<svg width="65" height="65" viewBox="0 0 65 65" fill="none" xmlns="http://www.w3.org/2000/svg">
<path fill-rule="evenodd" clip-rule="evenodd" d="M53.1991 45.2461C53.3616 44.2629 53.0854 43.2582 52.4435 42.4998C51.7989 41.7415 50.8537 41.3027 49.8597 41.3027C43.6712 41.3027 21.3274 41.3027 15.1389 41.3027C14.1449 41.3027 13.1997 41.7415 12.5551 42.4998C11.9133 43.2582 11.637 44.2629 11.7995 45.2461C12.3439 48.5096 13.5843 55.9467 14.0583 58.785C14.3291 60.4182 15.7429 61.6152 17.3976 61.6152C22.4324 61.6152 42.5662 61.6152 47.601 61.6152C49.2558 61.6152 50.6695 60.4182 50.9404 58.785L53.1991 45.2461ZM15.9379 45.3652L17.9691 57.5527H47.0295L49.0608 45.3652H15.9379Z" fill="#622DFA"/>
<path d="M32.5 53.4902C33.6218 53.4902 34.5312 52.5808 34.5312 51.459C34.5312 50.3372 33.6218 49.4277 32.5 49.4277C31.3782 49.4277 30.4688 50.3372 30.4688 51.459C30.4688 52.5808 31.3782 53.4902 32.5 53.4902Z" fill="#622DFA"/>
<path fill-rule="evenodd" clip-rule="evenodd" d="M44.0111 5.41602C44.0111 4.29477 43.1011 3.38477 41.9798 3.38477H27.084C25.4671 3.38477 23.9179 4.02664 22.775 5.16956C21.6321 6.31247 20.9902 7.86164 20.9902 9.47852V12.1489C20.9902 14.0529 23.0215 14.2181 23.0215 14.2181H37.9173C39.5342 14.2181 41.0834 13.5762 42.2263 12.4333C43.3692 11.2904 44.0111 9.74122 44.0111 8.12435V5.41602ZM25.0527 10.1556V9.47852C25.0527 8.93956 25.2667 8.42227 25.6486 8.0431C26.0277 7.66122 26.545 7.44727 27.084 7.44727H39.9486V8.12435C39.9486 8.66331 39.7346 9.1806 39.3527 9.55977C38.9736 9.94164 38.4563 10.1556 37.9173 10.1556H25.0527ZM20.9902 17.6035V21.666C20.9902 24.3608 22.06 26.9418 23.964 28.8485C25.8707 30.7525 28.4517 31.8223 31.1465 31.8223C32.0429 31.8223 32.9584 31.8223 33.8548 31.8223C36.5496 31.8223 39.1307 30.7525 41.0373 28.8485C42.9413 26.9418 44.0111 24.3608 44.0111 21.666V16.2493C44.0111 15.1281 43.1011 14.2181 41.9798 14.2181C40.8586 14.2181 39.9486 15.1281 39.9486 16.2493V21.666C39.9486 23.2829 39.3067 24.8321 38.1638 25.975C37.0209 27.1179 35.4717 27.7598 33.8548 27.7598H31.1465C29.5296 27.7598 27.9804 27.1179 26.8375 25.975C25.6946 24.8321 25.0527 23.2829 25.0527 21.666V17.6035C25.0527 16.4823 24.1427 15.5723 23.0215 15.5723C21.9002 15.5723 20.9902 16.4823 20.9902 17.6035Z" fill="#622DFA"/>
<path fill-rule="evenodd" clip-rule="evenodd" d="M52.1361 43.3333V40.625C52.1361 37.9302 51.0663 35.3492 49.1623 33.4425C47.2557 31.5385 44.6746 30.4688 41.9798 30.4688C41.3163 30.4688 40.6934 30.7938 40.3142 31.3381C40.3142 31.3381 38.9492 33.3152 38.1638 34.1006C37.0209 35.2435 35.4717 35.8854 33.8548 35.8854H31.1465C29.5296 35.8854 27.9804 35.2435 26.8375 34.1006C26.0521 33.3152 24.6871 31.3381 24.6871 31.3381C24.3079 30.7938 23.685 30.4688 23.0215 30.4688C20.3267 30.4688 17.7457 31.5385 15.839 33.4425C13.935 35.3492 12.8652 37.9302 12.8652 40.625C12.8652 41.4971 12.8652 43.3333 12.8652 43.3333C12.8652 44.4546 13.7752 45.3646 14.8965 45.3646C16.0177 45.3646 16.9277 44.4546 16.9277 43.3333C16.9277 43.3333 16.9277 41.4971 16.9277 40.625C16.9277 39.0081 17.5696 37.459 18.7125 36.316C19.6225 35.406 20.7871 34.8156 22.0411 34.6098C22.6098 35.3763 23.4115 36.419 23.964 36.9742C25.8706 38.8781 28.4517 39.9479 31.1465 39.9479C32.0429 39.9479 32.9584 39.9479 33.8548 39.9479C36.5496 39.9479 39.1307 38.8781 41.0373 36.9742C41.5898 36.419 42.3915 35.3763 42.9602 34.6098C44.2115 34.8156 45.3788 35.406 46.2888 36.316C47.4317 37.459 48.0736 39.0081 48.0736 40.625V43.3333C48.0736 44.4546 48.9836 45.3646 50.1048 45.3646C51.2261 45.3646 52.1361 44.4546 52.1361 43.3333Z" fill="#622DFA"/>
</svg>
