<svg width="65" height="65" viewBox="0 0 65 65" fill="none" xmlns="http://www.w3.org/2000/svg">
<path d="M58.9062 10.1562H54.8438V6.09375C54.8438 5.55503 54.6297 5.03837 54.2488 4.65744C53.8679 4.27651 53.3512 4.0625 52.8125 4.0625H36.5625C35.0539 4.08256 33.6063 4.66159 32.5 5.6875C31.3937 4.66159 29.9461 4.08256 28.4375 4.0625H12.1875C11.6488 4.0625 11.1321 4.27651 10.7512 4.65744C10.3703 5.03837 10.1562 5.55503 10.1562 6.09375V10.1562H6.09375C5.55503 10.1562 5.03837 10.3703 4.65744 10.7512C4.27651 11.1321 4.0625 11.6488 4.0625 12.1875V48.75C4.0625 49.2887 4.27651 49.8054 4.65744 50.1863C5.03837 50.5672 5.55503 50.7812 6.09375 50.7812H26.4062V56.875H24.375C23.8363 56.875 23.3196 57.089 22.9387 57.4699C22.5578 57.8509 22.3438 58.3675 22.3438 58.9062C22.3438 59.445 22.5578 59.9616 22.9387 60.3426C23.3196 60.7235 23.8363 60.9375 24.375 60.9375H40.625C41.1637 60.9375 41.6804 60.7235 42.0613 60.3426C42.4422 59.9616 42.6562 59.445 42.6562 58.9062C42.6562 58.3675 42.4422 57.8509 42.0613 57.4699C41.6804 57.089 41.1637 56.875 40.625 56.875H38.5938V50.7812H58.9062C59.445 50.7812 59.9616 50.5672 60.3426 50.1863C60.7235 49.8054 60.9375 49.2887 60.9375 48.75V12.1875C60.9375 11.6488 60.7235 11.1321 60.3426 10.7512C59.9616 10.3703 59.445 10.1562 58.9062 10.1562ZM56.875 14.2188V36.5625H54.8438V14.2188H56.875ZM36.5625 8.125H50.7812V36.5625H34.5312V10.1562C34.5312 9.61753 34.7453 9.10087 35.1262 8.71994C35.5071 8.33901 36.0238 8.125 36.5625 8.125ZM14.2188 8.125H28.4375C28.9762 8.125 29.4929 8.33901 29.8738 8.71994C30.2547 9.10087 30.4688 9.61753 30.4688 10.1562V36.5625H14.2188V8.125ZM10.1562 14.2188V36.5625H8.125V14.2188H10.1562ZM34.5312 56.875H30.4688V50.7812H34.5312V56.875ZM36.5625 46.7188H8.125V40.625H56.875V46.7188H36.5625ZM28.4375 14.2188C28.4375 14.7575 28.2235 15.2741 27.8426 15.6551C27.4616 16.036 26.945 16.25 26.4062 16.25H18.2812C17.7425 16.25 17.2259 16.036 16.8449 15.6551C16.464 15.2741 16.25 14.7575 16.25 14.2188C16.25 13.68 16.464 13.1634 16.8449 12.7824C17.2259 12.4015 17.7425 12.1875 18.2812 12.1875H26.4062C26.945 12.1875 27.4616 12.4015 27.8426 12.7824C28.2235 13.1634 28.4375 13.68 28.4375 14.2188ZM28.4375 22.3438C28.4375 22.8825 28.2235 23.3991 27.8426 23.7801C27.4616 24.161 26.945 24.375 26.4062 24.375H18.2812C17.7425 24.375 17.2259 24.161 16.8449 23.7801C16.464 23.3991 16.25 22.8825 16.25 22.3438C16.25 21.805 16.464 21.2884 16.8449 20.9074C17.2259 20.5265 17.7425 20.3125 18.2812 20.3125H26.4062C26.945 20.3125 27.4616 20.5265 27.8426 20.9074C28.2235 21.2884 28.4375 21.805 28.4375 22.3438ZM28.4375 30.4688C28.4375 31.0075 28.2235 31.5241 27.8426 31.9051C27.4616 32.286 26.945 32.5 26.4062 32.5H18.2812C17.7425 32.5 17.2259 32.286 16.8449 31.9051C16.464 31.5241 16.25 31.0075 16.25 30.4688C16.25 29.93 16.464 29.4134 16.8449 29.0324C17.2259 28.6515 17.7425 28.4375 18.2812 28.4375H26.4062C26.945 28.4375 27.4616 28.6515 27.8426 29.0324C28.2235 29.4134 28.4375 29.93 28.4375 30.4688ZM42.6562 14.2188C42.6562 13.68 42.8703 13.1634 43.2512 12.7824C43.6321 12.4015 44.1488 12.1875 44.6875 12.1875H46.7188C47.2575 12.1875 47.7741 12.4015 48.1551 12.7824C48.536 13.1634 48.75 13.68 48.75 14.2188C48.75 14.7575 48.536 15.2741 48.1551 15.6551C47.7741 16.036 47.2575 16.25 46.7188 16.25H44.6875C44.1488 16.25 43.6321 16.036 43.2512 15.6551C42.8703 15.2741 42.6562 14.7575 42.6562 14.2188ZM36.5625 30.4688C36.5625 29.93 36.7765 29.4134 37.1574 29.0324C37.5384 28.6515 38.055 28.4375 38.5938 28.4375H46.7188C47.2575 28.4375 47.7741 28.6515 48.1551 29.0324C48.536 29.4134 48.75 29.93 48.75 30.4688C48.75 31.0075 48.536 31.5241 48.1551 31.9051C47.7741 32.286 47.2575 32.5 46.7188 32.5H38.5938C38.055 32.5 37.5384 32.286 37.1574 31.9051C36.7765 31.5241 36.5625 31.0075 36.5625 30.4688ZM36.5625 14.2188C36.5625 13.817 36.6816 13.4243 36.9048 13.0902C37.128 12.7562 37.4453 12.4959 37.8164 12.3421C38.1876 12.1884 38.596 12.1482 38.99 12.2265C39.3841 12.3049 39.746 12.4984 40.0301 12.7824C40.3141 13.0665 40.5076 13.4284 40.586 13.8225C40.6643 14.2165 40.6241 14.6249 40.4704 14.9961C40.3166 15.3672 40.0563 15.6845 39.7223 15.9077C39.3882 16.1309 38.9955 16.25 38.5938 16.25C38.055 16.25 37.5384 16.036 37.1574 15.6551C36.7765 15.2741 36.5625 14.7575 36.5625 14.2188ZM42.6562 22.3438C42.6562 21.805 42.8703 21.2884 43.2512 20.9074C43.6321 20.5265 44.1488 20.3125 44.6875 20.3125H46.7188C47.2575 20.3125 47.7741 20.5265 48.1551 20.9074C48.536 21.2884 48.75 21.805 48.75 22.3438C48.75 22.8825 48.536 23.3991 48.1551 23.7801C47.7741 24.161 47.2575 24.375 46.7188 24.375H44.6875C44.1488 24.375 43.6321 24.161 43.2512 23.7801C42.8703 23.3991 42.6562 22.8825 42.6562 22.3438ZM36.5625 22.3438C36.5625 21.942 36.6816 21.5493 36.9048 21.2152C37.128 20.8812 37.4453 20.6209 37.8164 20.4671C38.1876 20.3134 38.596 20.2732 38.99 20.3515C39.3841 20.4299 39.746 20.6234 40.0301 20.9074C40.3141 21.1915 40.5076 21.5534 40.586 21.9475C40.6643 22.3415 40.6241 22.7499 40.4704 23.1211C40.3166 23.4922 40.0563 23.8095 39.7223 24.0327C39.3882 24.2559 38.9955 24.375 38.5938 24.375C38.055 24.375 37.5384 24.161 37.1574 23.7801C36.7765 23.3991 36.5625 22.8825 36.5625 22.3438Z" fill="#622DFA"/>
</svg>
