<svg width="65" height="65" viewBox="0 0 65 65" fill="none" xmlns="http://www.w3.org/2000/svg">
<path d="M54.166 3.38477H10.8327C6.71602 3.38477 3.38477 6.71602 3.38477 10.8327V54.166C3.38477 58.2827 6.71602 61.6139 10.8327 61.6139H54.166C58.2827 61.6139 61.6139 58.2827 61.6139 54.166V10.8327C61.6139 6.71602 58.2827 3.38477 54.166 3.38477ZM30.4681 50.7806V57.5514H20.9889V50.7806H30.4681ZM34.5306 50.7806H44.0098V57.5514H34.5306V50.7806ZM7.44727 46.7181V18.2806H57.5514V46.7181H7.44727ZM34.5306 14.2181V7.44727H44.0098V14.2181H34.5306ZM30.4681 14.2181H20.9889V7.44727H30.4681V14.2181ZM57.5514 10.8327V14.2181H48.0723V7.44727H54.166C56.0348 7.44727 57.5514 8.96393 57.5514 10.8327ZM10.8327 7.44727H16.9264V14.2181H7.44727V10.8327C7.44727 8.96393 8.96393 7.44727 10.8327 7.44727ZM7.44727 54.166V50.7806H16.9264V57.5514H10.8327C8.96393 57.5514 7.44727 56.0348 7.44727 54.166ZM54.166 57.5514H48.0723V50.7806H57.5514V54.166C57.5514 56.0348 56.0348 57.5514 54.166 57.5514ZM39.5952 29.5744L30.116 24.1035C29.0598 23.4806 27.7869 23.4806 26.7306 24.1035C25.6743 24.7264 25.0514 25.8098 25.0514 27.0285V37.9702C25.0514 39.1889 25.6743 40.2994 26.7306 40.8952C27.2723 41.1931 27.841 41.3556 28.4098 41.3556C28.9785 41.3556 29.5743 41.1931 30.0889 40.8952L39.5681 35.4244C40.6244 34.8014 41.2473 33.7181 41.2473 32.4994C41.2473 31.2806 40.6244 30.1702 39.5681 29.5744H39.5952ZM29.0868 36.8056V28.1931L36.5348 32.4994L29.0868 36.8056Z" fill="#622DFA"/>
</svg>
