<svg width="65" height="65" viewBox="0 0 65 65" fill="none" xmlns="http://www.w3.org/2000/svg">
<g clip-path="url(#clip0_158_85)">
<path d="M24.3743 44.3692L34.5685 39.2721L24.3743 34.1751V44.3692ZM21.666 29.793L40.6244 39.2721L21.666 48.7513V29.793Z" fill="#622DFA"/>
<path fill-rule="evenodd" clip-rule="evenodd" d="M27.0833 18.959H2.70833C1.99004 18.959 1.30116 19.2443 0.793252 19.7522C0.285341 20.2601 0 20.949 0 21.6673L0 56.8756C0 57.5939 0.285341 58.2828 0.793252 58.7907C1.30116 59.2986 1.99004 59.584 2.70833 59.584H54.1667C54.885 59.584 55.5738 59.2986 56.0817 58.7907C56.5897 58.2828 56.875 57.5939 56.875 56.8756V29.7923H54.1667V56.8756H2.70833V21.6673H27.0833V18.959Z" fill="#622DFA"/>
<path d="M44.1236 33.5594L38.9016 28.0515C38.6547 27.7906 38.3142 27.6384 37.9552 27.6285C37.5961 27.6186 37.2477 27.7517 36.9868 27.9986C36.7259 28.2455 36.5737 28.586 36.5638 28.9451C36.5538 29.3042 36.687 29.6525 36.9339 29.9134L42.4433 35.7236C43.0509 36.3666 44.0556 36.5794 44.8656 36.2017L48.7512 34.3898C49.8803 33.8633 50.0951 32.4782 49.2601 31.5976L43.7592 25.7864C43.6369 25.657 43.4903 25.553 43.3277 25.4803C43.1652 25.4076 42.99 25.3677 42.812 25.3627C42.634 25.3577 42.4568 25.3878 42.2905 25.4513C42.1242 25.5149 41.972 25.6105 41.8426 25.7328C41.7133 25.8552 41.6093 26.0018 41.5366 26.1643C41.4638 26.3268 41.4239 26.5021 41.4189 26.68C41.4139 26.858 41.444 27.0352 41.5076 27.2015C41.5711 27.3679 41.6667 27.5201 41.789 27.6494L46.3892 32.503L44.126 33.5583L44.1236 33.5594Z" fill="#622DFA"/>
<path d="M36.406 28.1913L32.9722 20.8276L42.7906 16.2492L41.646 13.7946L31.3367 18.6019C30.8159 18.8448 30.4129 19.2845 30.2164 19.8245C30.0198 20.3645 30.0459 20.9604 30.2887 21.4812L34.1803 29.8268C34.4232 30.3476 34.863 30.7506 35.403 30.9472C35.9429 31.1437 36.5389 31.1177 37.0597 30.8748L47.3689 26.0675L46.2243 23.613L36.406 28.1913Z" fill="#622DFA"/>
<path d="M46.6603 24.5468L57.6626 24.3979L57.6989 27.1033L46.6373 27.253C46.1347 27.2506 45.6428 27.1076 45.2171 26.8404C44.7915 26.5731 44.4491 26.1921 44.2286 25.7405L39.8849 16.4253C39.4614 15.5171 39.6288 14.3573 40.2745 13.6079L47.4995 5.23047L49.5486 6.99731L42.3635 15.3323L46.6603 24.5468Z" fill="#622DFA"/>
<path d="M47.293 6.68042L56.4497 26.3171C56.6015 26.6426 56.8764 26.8945 57.2139 27.0173C57.5514 27.1401 57.9238 27.1239 58.2493 26.9721C58.5748 26.8203 58.8267 26.5454 58.9495 26.2079C59.0724 25.8705 59.0561 25.498 58.9043 25.1725L49.7476 5.53583C49.5958 5.21033 49.3209 4.95846 48.9834 4.83562C48.646 4.71278 48.2735 4.72905 47.948 4.88083C47.6225 5.03261 47.3706 5.30748 47.2478 5.64497C47.125 5.98246 47.1412 6.35492 47.293 6.68042ZM60.6248 13.9111L63.0794 12.7665C63.4049 12.6147 63.6567 12.3399 63.7796 12.0024C63.9024 11.6649 63.8861 11.2924 63.7344 10.9669C63.5826 10.6414 63.3077 10.3896 62.9702 10.2667C62.6327 10.1439 62.2603 10.1602 61.9348 10.3119L59.4802 11.4565C59.1547 11.6083 58.9028 11.8832 58.78 12.2207C58.6572 12.5582 58.6734 12.9306 58.8252 13.2561C58.977 13.5816 59.2518 13.8335 59.5893 13.9563C59.9268 14.0792 60.2993 14.0629 60.6248 13.9111ZM56.6745 8.5543L58.4154 6.48147C58.6464 6.20611 58.7586 5.85027 58.7272 5.4922C58.6959 5.13414 58.5236 4.8032 58.2482 4.57218C57.9729 4.34115 57.617 4.22898 57.259 4.26032C56.9009 4.29167 56.57 4.46397 56.3389 4.73932L54.5992 6.81461C54.4818 6.95045 54.3925 7.10829 54.3366 7.27895C54.2807 7.44961 54.2594 7.62968 54.2737 7.80869C54.2881 7.98769 54.3379 8.16205 54.4203 8.32161C54.5027 8.48118 54.616 8.62276 54.7536 8.73813C54.8912 8.85349 55.0504 8.94034 55.2219 8.9936C55.3934 9.04686 55.5738 9.06548 55.7526 9.04837C55.9313 9.03126 56.1049 8.97877 56.2632 8.89395C56.4215 8.80913 56.5613 8.69367 56.6745 8.5543ZM61.049 20.6462L63.7559 20.645C63.9354 20.6479 64.1138 20.615 64.2805 20.5482C64.4472 20.4815 64.599 20.3823 64.727 20.2563C64.855 20.1304 64.9567 19.9802 65.0261 19.8146C65.0956 19.649 65.1314 19.4712 65.1315 19.2917C65.1315 19.1121 65.0959 18.9343 65.0266 18.7686C64.9574 18.6029 64.8558 18.4527 64.7279 18.3266C64.6 18.2006 64.4483 18.1012 64.2817 18.0343C64.115 17.9674 63.9367 17.9343 63.7572 17.937L61.0492 17.9357C60.8696 17.9329 60.6913 17.9658 60.5246 18.0325C60.3578 18.0992 60.2061 18.1985 60.078 18.3244C59.95 18.4504 59.8484 18.6005 59.7789 18.7661C59.7095 18.9317 59.6737 19.1095 59.6736 19.2891C59.6735 19.4687 59.7091 19.6465 59.7784 19.8121C59.8477 19.9778 59.9492 20.1281 60.0771 20.2541C60.205 20.3802 60.3567 20.4796 60.5234 20.5464C60.69 20.6133 60.8683 20.6464 61.0479 20.6437L61.049 20.6462Z" fill="#622DFA"/>
</g>
<defs>
<clipPath id="clip0_158_85">
<rect width="65" height="65" fill="white"/>
</clipPath>
</defs>
</svg>
