<svg xmlns="http://www.w3.org/2000/svg" xmlns:xlink="http://www.w3.org/1999/xlink" width="50" zoomAndPan="magnify" viewBox="0 0 37.5 37.499999" height="50" preserveAspectRatio="xMidYMid meet" version="1.0"><defs><clipPath id="55e09861e1"><path d="M 1.589844 1.589844 L 35.414062 1.589844 L 35.414062 35.414062 L 1.589844 35.414062 Z M 1.589844 1.589844 " clip-rule="nonzero"/></clipPath><clipPath id="8df5866e3c"><path d="M 18.503906 1.589844 C 9.164062 1.589844 1.589844 9.164062 1.589844 18.503906 C 1.589844 27.84375 9.164062 35.414062 18.503906 35.414062 C 27.84375 35.414062 35.414062 27.84375 35.414062 18.503906 C 35.414062 9.164062 27.84375 1.589844 18.503906 1.589844 Z M 18.503906 1.589844 " clip-rule="nonzero"/></clipPath><clipPath id="a25b2f2b89"><path d="M 0 0.519531 L 36 0.519531 L 36 36.785156 L 0 36.785156 Z M 0 0.519531 " clip-rule="nonzero"/></clipPath></defs><g clip-path="url(#55e09861e1)"><g clip-path="url(#8df5866e3c)"><path fill="#ffffff" d="M 1.589844 1.589844 L 35.414062 1.589844 L 35.414062 35.414062 L 1.589844 35.414062 Z M 1.589844 1.589844 " fill-opacity="1" fill-rule="nonzero"/></g></g><path fill="#2c57e4" d="M 17.984375 14.515625 C 15.789062 14.515625 13.996094 16.304688 13.996094 18.5 C 13.996094 20.695312 15.789062 22.488281 17.984375 22.488281 C 20.179688 22.488281 21.96875 20.695312 21.96875 18.5 C 21.96875 16.304688 20.179688 14.515625 17.984375 14.515625 Z M 17.984375 14.515625 " fill-opacity="1" fill-rule="nonzero"/><path fill="#2c57e4" d="M 23.339844 8.722656 L 12.625 8.722656 C 10.199219 8.722656 8.207031 10.699219 8.207031 13.144531 L 8.207031 23.855469 C 8.207031 26.285156 10.183594 28.277344 12.625 28.277344 L 23.339844 28.277344 C 25.769531 28.277344 27.761719 26.300781 27.761719 23.855469 L 27.761719 13.144531 C 27.746094 10.699219 25.769531 8.722656 23.339844 8.722656 Z M 17.984375 24.496094 C 14.667969 24.496094 11.972656 21.800781 11.972656 18.484375 C 11.972656 15.167969 14.667969 12.476562 17.984375 12.476562 C 21.300781 12.476562 23.992188 15.167969 23.992188 18.484375 C 23.976562 21.800781 21.285156 24.496094 17.984375 24.496094 Z M 24.414062 13.488281 C 23.617188 13.488281 22.964844 12.832031 22.964844 12.039062 C 22.964844 11.246094 23.617188 10.589844 24.414062 10.589844 C 25.207031 10.589844 25.859375 11.246094 25.859375 12.039062 C 25.859375 12.847656 25.222656 13.488281 24.414062 13.488281 Z M 24.414062 13.488281 " fill-opacity="1" fill-rule="nonzero"/><g clip-path="url(#a25b2f2b89)"><path fill="#2c57e4" d="M 17.984375 0.519531 C 8.050781 0.519531 0 8.566406 0 18.5 C 0 28.433594 8.050781 36.484375 17.984375 36.484375 C 27.917969 36.484375 35.964844 28.433594 35.964844 18.5 C 35.949219 8.566406 27.902344 0.519531 17.984375 0.519531 Z M 29.769531 23.855469 C 29.769531 27.40625 26.875 30.300781 23.324219 30.300781 L 12.625 30.300781 C 9.078125 30.300781 6.179688 27.40625 6.179688 23.855469 L 6.179688 13.144531 C 6.179688 9.59375 9.078125 6.699219 12.625 6.699219 L 23.339844 6.699219 C 26.890625 6.699219 29.785156 9.59375 29.785156 13.144531 L 29.785156 23.855469 Z M 29.769531 23.855469 " fill-opacity="1" fill-rule="nonzero"/></g></svg>