<svg xmlns="http://www.w3.org/2000/svg" xmlns:xlink="http://www.w3.org/1999/xlink" width="50" zoomAndPan="magnify" viewBox="0 0 37.5 37.499999" height="50" preserveAspectRatio="xMidYMid meet" version="1.0"><defs><clipPath id="dc89e88053"><path d="M 1.589844 1.589844 L 35.414062 1.589844 L 35.414062 35.414062 L 1.589844 35.414062 Z M 1.589844 1.589844 " clip-rule="nonzero"/></clipPath><clipPath id="f4260ffcf5"><path d="M 18.503906 1.589844 C 9.164062 1.589844 1.589844 9.164062 1.589844 18.503906 C 1.589844 27.84375 9.164062 35.414062 18.503906 35.414062 C 27.84375 35.414062 35.414062 27.84375 35.414062 18.503906 C 35.414062 9.164062 27.84375 1.589844 18.503906 1.589844 Z M 18.503906 1.589844 " clip-rule="nonzero"/></clipPath><clipPath id="8427114b93"><path d="M 7.363281 5.179688 L 28.089844 5.179688 L 28.089844 25.90625 L 7.363281 25.90625 Z M 7.363281 5.179688 " clip-rule="nonzero"/></clipPath></defs><g clip-path="url(#dc89e88053)"><g clip-path="url(#f4260ffcf5)"><path fill="#2c57e4" d="M 1.589844 1.589844 L 35.414062 1.589844 L 35.414062 35.414062 L 1.589844 35.414062 Z M 1.589844 1.589844 " fill-opacity="1" fill-rule="nonzero"/></g></g><g clip-path="url(#8427114b93)"><path fill="#2c57e4" d="M 28.15625 22.8125 C 28.15625 24.558594 26.742188 25.972656 24.996094 25.972656 L 10.523438 25.972656 C 8.78125 25.972656 7.363281 24.558594 7.363281 22.8125 L 7.363281 8.339844 C 7.363281 6.59375 8.78125 5.179688 10.523438 5.179688 L 24.996094 5.179688 C 26.742188 5.179688 28.15625 6.59375 28.15625 8.339844 Z M 28.15625 22.8125 " fill-opacity="1" fill-rule="nonzero"/></g><path fill="#ffffff" d="M 15.585938 12.597656 C 15.585938 12.804688 15.546875 13 15.46875 13.191406 C 15.390625 13.382812 15.277344 13.550781 15.132812 13.695312 C 14.984375 13.839844 14.816406 13.953125 14.628906 14.03125 C 14.4375 14.113281 14.238281 14.152344 14.035156 14.152344 C 13.828125 14.152344 13.628906 14.113281 13.4375 14.03125 C 13.25 13.953125 13.082031 13.839844 12.933594 13.695312 C 12.789062 13.550781 12.675781 13.382812 12.597656 13.191406 C 12.519531 13 12.480469 12.804688 12.480469 12.597656 C 12.480469 12.390625 12.519531 12.195312 12.597656 12.003906 C 12.675781 11.8125 12.789062 11.644531 12.933594 11.5 C 13.082031 11.355469 13.25 11.242188 13.4375 11.164062 C 13.628906 11.082031 13.828125 11.042969 14.035156 11.042969 C 14.238281 11.042969 14.4375 11.082031 14.628906 11.164062 C 14.816406 11.242188 14.984375 11.355469 15.132812 11.5 C 15.277344 11.644531 15.390625 11.8125 15.46875 12.003906 C 15.546875 12.195312 15.585938 12.390625 15.585938 12.597656 Z M 15.585938 12.597656 " fill-opacity="1" fill-rule="nonzero"/><path fill="#ffffff" d="M 12.695312 15.296875 L 15.363281 15.296875 L 15.363281 23.878906 L 12.695312 23.878906 Z M 12.695312 15.296875 " fill-opacity="1" fill-rule="nonzero"/><path fill="#ffffff" d="M 17.042969 15.296875 L 19.582031 15.296875 L 19.582031 23.878906 L 17.042969 23.878906 Z M 17.042969 15.296875 " fill-opacity="1" fill-rule="nonzero"/><path fill="#ffffff" d="M 17.152344 19.867188 L 19.691406 19.867188 L 19.691406 23.878906 L 17.152344 23.878906 Z M 17.152344 19.867188 " fill-opacity="1" fill-rule="nonzero"/><path fill="#ffffff" d="M 19.691406 19.867188 C 19.691406 19.867188 19.652344 18.753906 19.945312 18.175781 C 19.945312 18.175781 20.238281 17.460938 21.160156 17.457031 C 21.160156 17.457031 22.242188 17.269531 22.554688 18.34375 C 22.554688 18.34375 22.671875 18.9375 22.671875 19.191406 C 22.671875 19.441406 22.679688 23.878906 22.679688 23.878906 L 25.339844 23.878906 L 25.339844 18.964844 C 25.339844 18.964844 25.535156 16.1875 23.867188 15.425781 C 23.867188 15.425781 21.125 14.195312 19.636719 16.453125 C 19.636719 16.453125 19.3125 16.679688 19.269531 16.050781 C 19.222656 15.425781 18.84375 17.011719 18.832031 17.046875 C 18.820312 17.082031 19.269531 20.214844 19.269531 20.214844 Z M 19.691406 19.867188 " fill-opacity="1" fill-rule="nonzero"/></svg>