<svg xmlns="http://www.w3.org/2000/svg" xmlns:xlink="http://www.w3.org/1999/xlink" width="150" zoomAndPan="magnify" viewBox="0 0 112.5 89.999999" height="120" preserveAspectRatio="xMidYMid meet" version="1.0"><defs><clipPath id="f1f1a11e95"><path d="M 0 0.199219 L 112.003906 0.199219 L 112.003906 89.800781 L 0 89.800781 Z M 0 0.199219 " clip-rule="nonzero"/></clipPath><clipPath id="df37ff28cb"><path d="M 37.402344 23.664062 L 74.902344 23.664062 L 74.902344 59.652344 L 37.402344 59.652344 Z M 37.402344 23.664062 " clip-rule="nonzero"/></clipPath></defs><g clip-path="url(#f1f1a11e95)"><path fill="#ffffff" d="M 0 0.199219 L 112.5 0.199219 L 112.5 187.699219 L 0 187.699219 Z M 0 0.199219 " fill-opacity="1" fill-rule="nonzero"/><path fill="#ffffff" d="M 0 0.199219 L 112.5 0.199219 L 112.5 90.199219 L 0 90.199219 Z M 0 0.199219 " fill-opacity="1" fill-rule="nonzero"/><path fill="#ffffff" d="M 0 0.199219 L 112.5 0.199219 L 112.5 90.199219 L 0 90.199219 Z M 0 0.199219 " fill-opacity="1" fill-rule="nonzero"/></g><path fill="#004aad" d="M 52.890625 39.480469 C 52.179688 39.695312 52.117188 39.652344 52.054688 39.542969 C 51.941406 39.347656 52.058594 39.132812 52.371094 38.945312 C 52.554688 38.835938 53.011719 38.605469 53.171875 38.878906 L 54.261719 38.234375 C 53.929688 37.671875 53.253906 37.308594 52.378906 37.558594 L 52.039062 36.988281 L 50.953125 37.628906 L 51.28125 38.199219 C 50.667969 38.808594 50.625 39.613281 50.960938 40.1875 C 51.5625 41.210938 52.625 40.890625 53.257812 40.699219 C 54.050781 40.457031 54.132812 40.511719 54.246094 40.703125 C 54.3125 40.824219 54.300781 40.878906 54.292969 40.898438 C 54.265625 41 54.125 41.175781 53.792969 41.375 C 53.679688 41.441406 53.289062 41.644531 53.121094 41.363281 L 52.035156 42.011719 C 52.328125 42.511719 52.828125 42.777344 53.386719 42.777344 C 53.5625 42.777344 53.742188 42.75 53.925781 42.695312 L 54.214844 43.191406 L 55.304688 42.546875 L 55.007812 42.035156 C 55.265625 41.785156 55.445312 41.511719 55.523438 41.21875 C 55.621094 40.832031 55.554688 40.429688 55.332031 40.054688 C 54.675781 38.941406 53.5625 39.28125 52.890625 39.480469 " fill-opacity="1" fill-rule="nonzero"/><g clip-path="url(#df37ff28cb)"><path fill="#004aad" d="M 66.722656 35.519531 C 66.316406 35.742188 62.945312 36.625 58.707031 37.625 C 58.046875 37.777344 57.179688 37.824219 56.804688 37.171875 C 56.636719 36.882812 56.589844 36.542969 56.679688 36.21875 C 56.765625 35.902344 56.960938 35.636719 57.242188 35.464844 L 58.367188 34.949219 L 62.3125 33.289062 C 62.617188 33.160156 62.761719 32.8125 62.628906 32.507812 C 62.507812 32.207031 62.15625 32.0625 61.859375 32.191406 L 61.15625 32.488281 L 59.316406 29.347656 L 54.84375 31.996094 C 55.503906 29.902344 56.164062 28.648438 56.605469 28.535156 C 57.421875 28.332031 63.890625 28.128906 68.53125 28.023438 L 69.996094 33.320312 C 69.074219 33.953125 67.054688 35.324219 66.722656 35.519531 Z M 55.625 43.25 C 53.886719 44.621094 51.375 44.320312 50.007812 42.570312 C 48.644531 40.824219 48.949219 38.296875 50.683594 36.929688 C 52.113281 35.800781 54.0625 35.808594 55.472656 36.8125 C 55.507812 37.144531 55.609375 37.46875 55.78125 37.769531 C 56.042969 38.222656 56.429688 38.539062 56.917969 38.726562 C 57.484375 40.3125 57.015625 42.152344 55.625 43.25 Z M 56.648438 49.070312 C 57.03125 48.886719 57.425781 48.941406 57.726562 49.148438 L 56.570312 49.839844 C 56.289062 50.007812 56.195312 50.371094 56.363281 50.652344 C 56.476562 50.839844 56.671875 50.945312 56.871094 50.945312 C 56.976562 50.945312 57.082031 50.917969 57.175781 50.859375 L 60.15625 49.082031 C 60.566406 48.871094 60.996094 48.949219 61.300781 49.191406 L 57.945312 51.191406 C 57.667969 51.359375 57.570312 51.71875 57.738281 52.003906 C 57.90625 52.285156 58.265625 52.378906 58.550781 52.210938 L 62.722656 49.722656 C 63.488281 49.335938 64.292969 49.921875 64.292969 50.6875 C 64.292969 51.046875 64.136719 51.367188 63.878906 51.550781 C 63.652344 51.703125 63.371094 51.898438 63.050781 52.125 C 57.011719 56.339844 53.523438 58.480469 52.691406 58.480469 C 51.863281 58.480469 46.203125 57.269531 42.078125 56.339844 L 41.71875 50.863281 C 43.84375 50.269531 46.167969 49.671875 46.503906 49.65625 C 46.964844 49.664062 50.324219 50.597656 54.492188 51.867188 C 55.140625 52.066406 55.914062 52.460938 55.914062 53.214844 C 55.914062 53.902344 55.367188 54.460938 54.6875 54.472656 L 53.453125 54.351562 L 49.207031 53.804688 C 48.882812 53.765625 48.589844 53.996094 48.542969 54.320312 C 48.503906 54.644531 48.730469 54.941406 49.058594 54.980469 L 53.320312 55.535156 L 54.605469 55.65625 C 54.625 55.660156 54.640625 55.664062 54.660156 55.664062 C 56.003906 55.664062 57.09375 54.5625 57.09375 53.214844 C 57.09375 52.058594 56.292969 51.179688 54.832031 50.734375 C 54.652344 50.675781 54.453125 50.617188 54.242188 50.550781 Z M 74.902344 35.871094 L 72.390625 23.660156 L 67.59375 24.660156 L 68.203125 26.847656 C 65.128906 26.917969 57.402344 27.117188 56.324219 27.386719 C 55.050781 27.703125 54.042969 30.285156 53.34375 32.890625 L 40.4375 40.539062 L 45.234375 48.707031 C 44.148438 48.964844 42.644531 49.375 41.640625 49.652344 L 41.476562 47.207031 L 37.421875 47.195312 L 37.402344 59.667969 L 42.300781 59.671875 L 42.164062 57.574219 C 45.046875 58.222656 51.613281 59.667969 52.691406 59.667969 C 54.042969 59.667969 58.078125 57.042969 63.726562 53.097656 C 64.046875 52.875 64.324219 52.679688 64.546875 52.527344 C 65.128906 52.125 65.472656 51.4375 65.472656 50.6875 C 65.472656 49.433594 64.457031 48.410156 63.210938 48.410156 C 62.929688 48.410156 62.652344 48.46875 62.367188 48.585938 C 61.945312 48.078125 61.324219 47.773438 60.644531 47.773438 C 60.296875 47.773438 59.953125 47.855469 59.585938 48.039062 L 58.792969 48.515625 C 58.367188 48.046875 57.765625 47.773438 57.113281 47.773438 C 56.769531 47.773438 56.425781 47.855469 56.09375 48.019531 C 56.082031 48.027344 56.070312 48.035156 56.050781 48.042969 L 52.71875 50.097656 C 51.742188 49.804688 50.660156 49.488281 49.675781 49.214844 L 65.476562 39.84375 L 64.113281 37.519531 C 65.660156 37.117188 66.980469 36.742188 67.3125 36.546875 C 67.796875 36.265625 70.1875 34.628906 70.332031 34.53125 L 70.929688 36.695312 L 74.902344 35.871094 " fill-opacity="1" fill-rule="nonzero"/></g></svg>