<svg xmlns="http://www.w3.org/2000/svg" xmlns:xlink="http://www.w3.org/1999/xlink" width="150" zoomAndPan="magnify" viewBox="0 0 112.5 89.999999" height="120" preserveAspectRatio="xMidYMid meet" version="1.0"><defs><clipPath id="59e7149373"><path d="M 0 0.199219 L 112.003906 0.199219 L 112.003906 89.800781 L 0 89.800781 Z M 0 0.199219 " clip-rule="nonzero"/></clipPath><clipPath id="6998053e9d"><path d="M 55 27.199219 L 72.9375 27.199219 L 72.9375 50 L 55 50 Z M 55 27.199219 " clip-rule="nonzero"/></clipPath><clipPath id="cd40bebff6"><path d="M 58 44 L 72.9375 44 L 72.9375 63.199219 L 58 63.199219 Z M 58 44 " clip-rule="nonzero"/></clipPath><clipPath id="d901d34cba"><path d="M 39.9375 27.199219 L 63 27.199219 L 63 63.199219 L 39.9375 63.199219 Z M 39.9375 27.199219 " clip-rule="nonzero"/></clipPath></defs><g clip-path="url(#59e7149373)"><path fill="#ffffff" d="M 0 0.199219 L 112.5 0.199219 L 112.5 187.699219 L 0 187.699219 Z M 0 0.199219 " fill-opacity="1" fill-rule="nonzero"/><path fill="#ffffff" d="M 0 0.199219 L 112.5 0.199219 L 112.5 90.199219 L 0 90.199219 Z M 0 0.199219 " fill-opacity="1" fill-rule="nonzero"/><path fill="#ffffff" d="M 0 0.199219 L 112.5 0.199219 L 112.5 90.199219 L 0 90.199219 Z M 0 0.199219 " fill-opacity="1" fill-rule="nonzero"/></g><path fill="#004aad" d="M 70.09375 30.011719 C 70.09375 29.703125 69.835938 29.449219 69.523438 29.449219 L 58.714844 29.449219 C 58.402344 29.449219 58.144531 29.703125 58.144531 30.011719 L 58.144531 32.824219 C 58.144531 33.132812 58.402344 33.386719 58.714844 33.386719 L 69.523438 33.386719 C 69.835938 33.386719 70.09375 33.132812 70.09375 32.824219 Z M 70.09375 30.011719 " fill-opacity="1" fill-rule="nonzero"/><g clip-path="url(#6998053e9d)"><path fill="#004aad" d="M 57.574219 49.699219 L 59.453125 49.699219 C 60.105469 49.445312 60.820312 49.472656 61.472656 49.699219 L 61.671875 49.699219 L 61.671875 48.574219 L 57.574219 48.574219 C 57.261719 48.574219 57.007812 48.320312 57.007812 48.011719 L 57.007812 28.886719 C 57.007812 28.578125 57.261719 28.324219 57.574219 28.324219 L 70.660156 28.324219 C 70.972656 28.324219 71.230469 28.578125 71.230469 28.886719 L 71.230469 48.011719 C 71.230469 48.320312 70.972656 48.574219 70.660156 48.574219 L 70.578125 48.574219 C 70.71875 48.6875 70.859375 48.800781 71.003906 48.910156 C 71.089844 48.910156 71.144531 48.910156 71.230469 48.910156 C 71.515625 48.910156 71.769531 48.941406 72.027344 49.023438 C 72.253906 48.742188 72.367188 48.40625 72.367188 48.011719 L 72.367188 28.886719 C 72.367188 27.957031 71.601562 27.199219 70.660156 27.199219 L 57.574219 27.199219 C 56.636719 27.199219 55.867188 27.957031 55.867188 28.886719 L 55.867188 48.011719 C 55.867188 48.941406 56.636719 49.699219 57.574219 49.699219 Z M 57.574219 49.699219 " fill-opacity="1" fill-rule="nonzero"/></g><g clip-path="url(#cd40bebff6)"><path fill="#004aad" d="M 71.230469 50.035156 C 70.972656 50.035156 70.746094 50.09375 70.519531 50.207031 C 70.261719 49.613281 69.664062 49.222656 68.984375 49.222656 C 68.726562 49.222656 68.5 49.277344 68.273438 49.390625 C 68.015625 48.800781 67.417969 48.40625 66.734375 48.40625 C 66.535156 48.40625 66.367188 48.433594 66.167969 48.488281 L 66.167969 46.183594 C 66.167969 45.253906 65.398438 44.523438 64.460938 44.523438 C 63.519531 44.523438 62.753906 45.285156 62.753906 46.183594 L 62.753906 52.285156 C 62.410156 51.921875 62.011719 51.527344 61.699219 51.191406 C 61.074219 50.542969 60.078125 50.457031 59.367188 50.992188 C 58.96875 51.273438 58.742188 51.722656 58.714844 52.203125 C 58.683594 52.679688 58.828125 53.160156 59.167969 53.496094 C 60.390625 54.789062 62.722656 57.40625 64.0625 59.796875 C 63.777344 59.824219 63.550781 60.050781 63.550781 60.359375 L 63.550781 62.609375 C 63.550781 62.917969 63.804688 63.171875 64.117188 63.171875 L 72.085938 63.171875 C 72.398438 63.171875 72.652344 62.917969 72.652344 62.609375 L 72.652344 60.359375 C 72.652344 60.105469 72.480469 59.910156 72.253906 59.824219 C 72.796875 58.222656 72.910156 57.039062 72.9375 56.957031 C 72.9375 56.925781 72.9375 56.925781 72.9375 56.898438 L 72.9375 51.695312 C 72.9375 50.796875 72.167969 50.035156 71.230469 50.035156 Z M 71.800781 56.925781 C 71.769531 57.097656 71.628906 58.304688 71.058594 59.824219 L 65.34375 59.824219 C 64.0625 57.265625 61.644531 54.453125 59.992188 52.738281 C 59.878906 52.625 59.824219 52.457031 59.851562 52.285156 C 59.851562 52.117188 59.9375 51.976562 60.078125 51.863281 C 60.335938 51.667969 60.675781 51.695312 60.875 51.921875 C 61.671875 52.765625 62.894531 53.945312 62.921875 54.003906 C 63.09375 54.171875 63.4375 54.226562 63.636719 54.058594 C 63.777344 53.945312 63.890625 53.777344 63.890625 53.582031 L 63.890625 46.15625 C 63.890625 45.847656 64.148438 45.621094 64.460938 45.621094 C 64.773438 45.621094 65.027344 45.875 65.027344 46.15625 L 65.027344 53.636719 C 65.027344 53.945312 65.285156 54.199219 65.597656 54.199219 C 65.910156 54.199219 66.167969 53.945312 66.167969 53.636719 L 66.167969 50.035156 C 66.167969 49.726562 66.421875 49.503906 66.734375 49.503906 C 67.046875 49.503906 67.304688 49.753906 67.304688 50.035156 L 67.304688 54.199219 C 67.304688 54.507812 67.5625 54.761719 67.875 54.761719 C 68.1875 54.761719 68.441406 54.507812 68.441406 54.199219 L 68.441406 50.878906 C 68.441406 50.570312 68.699219 50.347656 69.011719 50.347656 C 69.324219 50.347656 69.582031 50.597656 69.582031 50.878906 L 69.582031 55.042969 C 69.582031 55.351562 69.835938 55.605469 70.148438 55.605469 C 70.460938 55.605469 70.71875 55.351562 70.71875 55.042969 L 70.71875 51.722656 C 70.71875 51.414062 70.972656 51.191406 71.289062 51.191406 C 71.601562 51.191406 71.855469 51.441406 71.855469 51.722656 L 71.855469 56.925781 Z M 71.800781 56.925781 " fill-opacity="1" fill-rule="nonzero"/></g><g clip-path="url(#d901d34cba)"><path fill="#004aad" d="M 57.886719 53.636719 C 57.886719 53.636719 57.859375 53.636719 57.859375 53.636719 L 49.609375 53.636719 C 49.296875 53.636719 49.039062 53.382812 49.039062 53.074219 C 49.039062 52.765625 49.296875 52.511719 49.609375 52.511719 L 57.574219 52.511719 C 57.574219 52.371094 57.574219 52.257812 57.574219 52.117188 C 57.605469 51.640625 57.773438 51.21875 58.03125 50.824219 L 57.574219 50.824219 C 56.011719 50.824219 54.730469 49.558594 54.730469 48.011719 L 54.730469 46.886719 L 49.609375 46.886719 C 49.296875 46.886719 49.039062 46.632812 49.039062 46.324219 C 49.039062 46.015625 49.296875 45.761719 49.609375 45.761719 L 54.730469 45.761719 L 54.730469 40.136719 L 49.609375 40.136719 C 49.296875 40.136719 49.039062 39.882812 49.039062 39.574219 C 49.039062 39.265625 49.296875 39.011719 49.609375 39.011719 L 54.730469 39.011719 L 54.730469 33.386719 L 49.609375 33.386719 C 49.296875 33.386719 49.039062 33.132812 49.039062 32.824219 C 49.039062 32.515625 49.296875 32.261719 49.609375 32.261719 L 54.730469 32.261719 L 54.730469 28.886719 C 54.730469 28.238281 54.957031 27.675781 55.300781 27.199219 L 41.644531 27.199219 C 40.707031 27.199219 39.9375 27.957031 39.9375 28.886719 L 39.9375 61.511719 C 39.9375 62.441406 40.707031 63.199219 41.644531 63.199219 L 60.988281 63.199219 C 61.585938 63.199219 62.097656 62.890625 62.410156 62.441406 L 62.410156 60.386719 C 62.410156 60.105469 62.496094 59.824219 62.609375 59.597656 C 61.246094 57.460938 59.226562 55.210938 58.34375 54.285156 C 58.171875 54.085938 58.003906 53.863281 57.886719 53.636719 Z M 49.609375 34.511719 L 53.59375 34.511719 C 53.90625 34.511719 54.160156 34.765625 54.160156 35.074219 C 54.160156 35.382812 53.90625 35.636719 53.59375 35.636719 L 49.609375 35.636719 C 49.296875 35.636719 49.039062 35.382812 49.039062 35.074219 C 49.039062 34.765625 49.296875 34.511719 49.609375 34.511719 Z M 49.609375 41.261719 L 53.59375 41.261719 C 53.90625 41.261719 54.160156 41.515625 54.160156 41.824219 C 54.160156 42.132812 53.90625 42.386719 53.59375 42.386719 L 49.609375 42.386719 C 49.296875 42.386719 49.039062 42.132812 49.039062 41.824219 C 49.039062 41.515625 49.296875 41.261719 49.609375 41.261719 Z M 49.609375 48.011719 L 53.59375 48.011719 C 53.90625 48.011719 54.160156 48.265625 54.160156 48.574219 C 54.160156 48.882812 53.90625 49.136719 53.59375 49.136719 L 49.609375 49.136719 C 49.296875 49.136719 49.039062 48.882812 49.039062 48.574219 C 49.039062 48.265625 49.296875 48.011719 49.609375 48.011719 Z M 47.335938 56.167969 C 47.335938 56.476562 47.078125 56.730469 46.765625 56.730469 L 43.351562 56.730469 C 43.039062 56.730469 42.78125 56.476562 42.78125 56.167969 L 42.78125 52.792969 C 42.78125 52.484375 43.039062 52.230469 43.351562 52.230469 L 46.765625 52.230469 C 47.078125 52.230469 47.335938 52.484375 47.335938 52.792969 Z M 47.335938 49.417969 C 47.335938 49.726562 47.078125 49.980469 46.765625 49.980469 L 43.351562 49.980469 C 43.039062 49.980469 42.78125 49.726562 42.78125 49.417969 L 42.78125 46.042969 C 42.78125 45.734375 43.039062 45.480469 43.351562 45.480469 L 46.765625 45.480469 C 47.078125 45.480469 47.335938 45.734375 47.335938 46.042969 Z M 47.335938 42.667969 C 47.335938 42.976562 47.078125 43.230469 46.765625 43.230469 L 43.351562 43.230469 C 43.039062 43.230469 42.78125 42.976562 42.78125 42.667969 L 42.78125 39.292969 C 42.78125 38.984375 43.039062 38.730469 43.351562 38.730469 L 46.765625 38.730469 C 47.078125 38.730469 47.335938 38.984375 47.335938 39.292969 Z M 47.335938 35.917969 C 47.335938 36.226562 47.078125 36.480469 46.765625 36.480469 L 43.351562 36.480469 C 43.039062 36.480469 42.78125 36.226562 42.78125 35.917969 L 42.78125 32.542969 C 42.78125 32.234375 43.039062 31.980469 43.351562 31.980469 L 46.765625 31.980469 C 47.078125 31.980469 47.335938 32.234375 47.335938 32.542969 Z M 53.59375 55.886719 L 49.609375 55.886719 C 49.296875 55.886719 49.039062 55.632812 49.039062 55.324219 C 49.039062 55.015625 49.296875 54.761719 49.609375 54.761719 L 53.59375 54.761719 C 53.90625 54.761719 54.160156 55.015625 54.160156 55.324219 C 54.160156 55.632812 53.90625 55.886719 53.59375 55.886719 Z M 53.59375 55.886719 " fill-opacity="1" fill-rule="nonzero"/></g><path fill="#004aad" d="M 69.523438 47.167969 C 69.835938 47.167969 70.09375 46.914062 70.09375 46.605469 L 70.09375 35.355469 C 70.09375 35.046875 69.835938 34.792969 69.523438 34.792969 L 58.714844 34.792969 C 58.402344 34.792969 58.144531 35.046875 58.144531 35.355469 L 58.144531 46.605469 C 58.144531 46.914062 58.402344 47.167969 58.714844 47.167969 L 61.644531 47.167969 L 61.644531 46.15625 C 61.644531 46.128906 61.644531 46.070312 61.644531 46.042969 L 59.28125 46.042969 L 59.28125 44.355469 L 61.84375 44.355469 L 61.84375 45.144531 C 62.269531 44.101562 63.292969 43.371094 64.488281 43.371094 C 65.226562 43.371094 65.910156 43.652344 66.394531 44.101562 L 66.394531 41.542969 L 68.953125 41.542969 L 68.953125 46.042969 L 67.304688 46.042969 C 67.304688 46.070312 67.304688 46.128906 67.304688 46.15625 L 67.304688 47.167969 Z M 61.84375 43.230469 L 59.28125 43.230469 L 59.28125 41.542969 L 61.84375 41.542969 Z M 61.84375 40.417969 L 59.28125 40.417969 L 59.28125 38.730469 L 61.84375 38.730469 Z M 61.84375 37.605469 L 59.28125 37.605469 L 59.28125 35.917969 L 61.84375 35.917969 Z M 65.257812 43.230469 L 62.980469 43.230469 L 62.980469 41.542969 L 65.257812 41.542969 Z M 65.257812 40.417969 L 62.980469 40.417969 L 62.980469 38.730469 L 65.257812 38.730469 Z M 65.257812 37.605469 L 62.980469 37.605469 L 62.980469 35.917969 L 65.257812 35.917969 Z M 66.394531 35.917969 L 68.953125 35.917969 L 68.953125 37.605469 L 66.394531 37.605469 Z M 66.394531 40.417969 L 66.394531 38.730469 L 68.953125 38.730469 L 68.953125 40.417969 Z M 66.394531 40.417969 " fill-opacity="1" fill-rule="nonzero"/></svg>