<svg xmlns="http://www.w3.org/2000/svg" xmlns:xlink="http://www.w3.org/1999/xlink" width="150" zoomAndPan="magnify" viewBox="0 0 112.5 89.999999" height="120" preserveAspectRatio="xMidYMid meet" version="1.0"><defs><clipPath id="691e802172"><path d="M 0 0.199219 L 112.003906 0.199219 L 112.003906 89.800781 L 0 89.800781 Z M 0 0.199219 " clip-rule="nonzero"/></clipPath><clipPath id="276049a6fc"><path d="M 37.570312 27.199219 L 75 27.199219 L 75 63.199219 L 37.570312 63.199219 Z M 37.570312 27.199219 " clip-rule="nonzero"/></clipPath></defs><g clip-path="url(#691e802172)"><path fill="#ffffff" d="M 0 0.199219 L 112.5 0.199219 L 112.5 90.199219 L 0 90.199219 Z M 0 0.199219 " fill-opacity="1" fill-rule="nonzero"/><path fill="#ffffff" d="M 0 0.199219 L 112.5 0.199219 L 112.5 90.199219 L 0 90.199219 Z M 0 0.199219 " fill-opacity="1" fill-rule="nonzero"/></g><g clip-path="url(#276049a6fc)"><path fill="#004aad" d="M 62.292969 41.980469 C 62.292969 42.148438 62.234375 42.289062 62.117188 42.40625 C 62 42.523438 61.855469 42.582031 61.691406 42.582031 L 42.230469 42.582031 C 42.0625 42.582031 41.921875 42.523438 41.804688 42.40625 C 41.6875 42.289062 41.628906 42.148438 41.628906 41.980469 C 41.628906 41.816406 41.6875 41.675781 41.804688 41.558594 C 41.921875 41.441406 42.0625 41.382812 42.230469 41.382812 L 61.6875 41.382812 C 61.855469 41.382812 61.996094 41.441406 62.117188 41.558594 C 62.234375 41.675781 62.292969 41.816406 62.292969 41.980469 Z M 44.21875 36.503906 L 43.492188 36.503906 C 43.308594 36.503906 43.152344 36.441406 43.023438 36.3125 L 43 36.289062 C 42.886719 36.164062 42.832031 36.015625 42.832031 35.84375 C 42.832031 35.679688 42.773438 35.539062 42.65625 35.421875 C 42.535156 35.304688 42.394531 35.246094 42.230469 35.246094 C 42.0625 35.246094 41.921875 35.304688 41.804688 35.421875 C 41.6875 35.539062 41.628906 35.679688 41.628906 35.84375 C 41.628906 36.335938 41.800781 36.761719 42.140625 37.117188 L 42.175781 37.160156 C 42.476562 37.457031 42.835938 37.628906 43.257812 37.679688 L 43.257812 38.160156 C 43.257812 38.324219 43.316406 38.464844 43.433594 38.582031 C 43.550781 38.699219 43.691406 38.753906 43.855469 38.753906 C 44.023438 38.753906 44.164062 38.699219 44.28125 38.582031 C 44.398438 38.464844 44.453125 38.324219 44.453125 38.160156 L 44.453125 37.679688 C 44.691406 37.648438 44.910156 37.578125 45.117188 37.464844 C 45.324219 37.351562 45.503906 37.203125 45.652344 37.023438 C 45.804688 36.839844 45.917969 36.636719 45.988281 36.414062 C 46.0625 36.191406 46.089844 35.960938 46.078125 35.726562 C 46.0625 35.492188 46.003906 35.265625 45.902344 35.054688 C 45.800781 34.839844 45.664062 34.652344 45.492188 34.492188 C 45.320312 34.332031 45.125 34.207031 44.90625 34.121094 C 44.683594 34.035156 44.457031 33.992188 44.21875 33.992188 L 43.492188 33.992188 C 43.308594 33.992188 43.152344 33.925781 43.023438 33.796875 L 43 33.777344 C 42.808594 33.5625 42.773438 33.328125 42.886719 33.066406 C 43.003906 32.804688 43.207031 32.675781 43.492188 32.675781 L 44.222656 32.675781 C 44.402344 32.675781 44.558594 32.738281 44.6875 32.867188 C 44.816406 32.996094 44.882812 33.152344 44.882812 33.332031 C 44.882812 33.496094 44.941406 33.640625 45.058594 33.753906 C 45.175781 33.871094 45.316406 33.929688 45.484375 33.929688 C 45.648438 33.929688 45.789062 33.871094 45.910156 33.753906 C 46.027344 33.640625 46.085938 33.496094 46.085938 33.332031 C 46.085938 33.105469 46.046875 32.890625 45.964844 32.679688 C 45.886719 32.46875 45.769531 32.277344 45.621094 32.109375 C 45.46875 31.9375 45.292969 31.800781 45.09375 31.699219 C 44.894531 31.59375 44.679688 31.527344 44.457031 31.5 L 44.457031 31.019531 C 44.457031 30.855469 44.398438 30.714844 44.28125 30.597656 C 44.164062 30.484375 44.023438 30.425781 43.855469 30.425781 C 43.691406 30.425781 43.550781 30.484375 43.433594 30.597656 C 43.316406 30.714844 43.257812 30.855469 43.257812 31.019531 L 43.257812 31.5 C 42.910156 31.542969 42.601562 31.671875 42.328125 31.890625 C 42.054688 32.105469 41.855469 32.378906 41.738281 32.707031 C 41.621094 33.035156 41.597656 33.371094 41.667969 33.710938 C 41.742188 34.054688 41.898438 34.351562 42.140625 34.605469 L 42.175781 34.644531 C 42.539062 35.007812 42.980469 35.1875 43.492188 35.1875 L 44.222656 35.1875 C 44.402344 35.1875 44.558594 35.253906 44.6875 35.382812 C 44.816406 35.511719 44.882812 35.664062 44.882812 35.847656 C 44.882812 36.027344 44.816406 36.183594 44.6875 36.3125 C 44.558594 36.441406 44.402344 36.503906 44.222656 36.503906 Z M 51.203125 36.503906 L 50.476562 36.503906 C 50.292969 36.503906 50.140625 36.441406 50.011719 36.3125 L 49.988281 36.289062 C 49.871094 36.164062 49.816406 36.015625 49.816406 35.84375 C 49.816406 35.679688 49.757812 35.539062 49.640625 35.421875 C 49.523438 35.304688 49.378906 35.246094 49.214844 35.246094 C 49.046875 35.246094 48.90625 35.304688 48.789062 35.421875 C 48.671875 35.539062 48.613281 35.679688 48.613281 35.84375 C 48.613281 36.335938 48.785156 36.761719 49.125 37.117188 L 49.160156 37.15625 C 49.460938 37.453125 49.820312 37.625 50.242188 37.675781 L 50.242188 38.160156 C 50.242188 38.324219 50.300781 38.464844 50.417969 38.582031 C 50.535156 38.699219 50.675781 38.753906 50.839844 38.753906 C 51.007812 38.753906 51.148438 38.699219 51.265625 38.582031 C 51.378906 38.464844 51.4375 38.324219 51.4375 38.160156 L 51.4375 37.679688 C 51.671875 37.648438 51.894531 37.578125 52.101562 37.464844 C 52.308594 37.351562 52.488281 37.203125 52.636719 37.023438 C 52.789062 36.839844 52.902344 36.636719 52.972656 36.414062 C 53.046875 36.191406 53.074219 35.960938 53.0625 35.726562 C 53.046875 35.492188 52.988281 35.265625 52.886719 35.054688 C 52.785156 34.839844 52.648438 34.652344 52.476562 34.492188 C 52.304688 34.332031 52.109375 34.207031 51.890625 34.121094 C 51.667969 34.035156 51.441406 33.992188 51.203125 33.992188 L 50.476562 33.992188 C 50.292969 33.992188 50.140625 33.925781 50.011719 33.796875 L 49.988281 33.777344 C 49.796875 33.5625 49.757812 33.328125 49.875 33.066406 C 49.988281 32.804688 50.191406 32.675781 50.476562 32.675781 L 51.203125 32.675781 C 51.386719 32.675781 51.542969 32.738281 51.671875 32.867188 C 51.800781 32.996094 51.863281 33.152344 51.867188 33.332031 C 51.867188 33.496094 51.925781 33.640625 52.042969 33.757812 C 52.160156 33.871094 52.300781 33.929688 52.464844 33.929688 C 52.632812 33.929688 52.773438 33.871094 52.890625 33.757812 C 53.007812 33.640625 53.066406 33.496094 53.066406 33.332031 C 53.066406 33.105469 53.027344 32.890625 52.949219 32.679688 C 52.867188 32.46875 52.753906 32.277344 52.601562 32.109375 C 52.453125 31.9375 52.277344 31.800781 52.078125 31.699219 C 51.875 31.59375 51.664062 31.527344 51.4375 31.5 L 51.4375 31.019531 C 51.4375 30.855469 51.378906 30.714844 51.265625 30.597656 C 51.148438 30.484375 51.007812 30.425781 50.839844 30.425781 C 50.675781 30.425781 50.535156 30.484375 50.417969 30.597656 C 50.300781 30.714844 50.242188 30.855469 50.242188 31.019531 L 50.242188 31.5 C 49.894531 31.542969 49.582031 31.671875 49.308594 31.890625 C 49.035156 32.105469 48.839844 32.378906 48.722656 32.707031 C 48.601562 33.035156 48.582031 33.371094 48.652344 33.710938 C 48.726562 34.054688 48.882812 34.351562 49.125 34.605469 L 49.160156 34.644531 C 49.523438 35.007812 49.960938 35.1875 50.476562 35.1875 L 51.203125 35.1875 C 51.386719 35.1875 51.542969 35.253906 51.671875 35.382812 C 51.800781 35.511719 51.863281 35.664062 51.863281 35.847656 C 51.863281 36.027344 51.800781 36.183594 51.671875 36.3125 C 51.542969 36.441406 51.386719 36.503906 51.203125 36.503906 Z M 74.910156 37.304688 L 73.835938 39.351562 L 66.980469 52.394531 C 66.980469 52.40625 66.988281 52.421875 66.988281 52.433594 L 66.988281 62.578125 C 66.988281 62.742188 66.929688 62.886719 66.8125 63.003906 C 66.695312 63.117188 66.554688 63.175781 66.386719 63.175781 L 38.175781 63.175781 C 38.011719 63.175781 37.871094 63.117188 37.753906 63 C 37.636719 62.882812 37.578125 62.742188 37.578125 62.578125 L 37.578125 27.796875 C 37.578125 27.632812 37.636719 27.492188 37.753906 27.375 C 37.871094 27.257812 38.011719 27.199219 38.175781 27.199219 L 57.898438 27.199219 C 58.085938 27.199219 58.242188 27.273438 58.359375 27.417969 L 66.820312 36.214844 C 66.875 36.273438 66.917969 36.339844 66.945312 36.414062 C 66.953125 36.4375 66.957031 36.460938 66.960938 36.484375 C 66.976562 36.53125 66.984375 36.578125 66.988281 36.628906 L 66.988281 42.78125 L 70.949219 35.238281 C 71.027344 35.09375 71.144531 34.996094 71.300781 34.945312 C 71.457031 34.898438 71.609375 34.910156 71.757812 34.988281 L 74.65625 36.5 C 74.804688 36.574219 74.902344 36.691406 74.953125 36.847656 C 75 37.003906 74.988281 37.15625 74.910156 37.304688 Z M 58.5 36.03125 L 64.980469 36.03125 L 58.5 29.285156 Z M 65.785156 53.574219 L 63.554688 55.308594 C 63.355469 55.480469 63.136719 55.507812 62.898438 55.394531 C 62.664062 55.277344 62.550781 55.085938 62.566406 54.824219 L 62.789062 50.886719 C 62.789062 50.882812 62.792969 50.882812 62.792969 50.878906 C 62.796875 50.800781 62.820312 50.726562 62.855469 50.65625 C 62.855469 50.652344 62.855469 50.648438 62.855469 50.644531 L 65.785156 45.066406 L 65.785156 37.222656 L 57.898438 37.222656 C 57.730469 37.222656 57.589844 37.164062 57.472656 37.046875 C 57.355469 36.929688 57.296875 36.789062 57.296875 36.625 L 57.296875 28.394531 L 38.777344 28.394531 L 38.777344 61.976562 L 65.785156 61.976562 Z M 63.835938 53.578125 L 65.183594 52.53125 L 63.929688 51.878906 Z M 72.496094 39.328125 L 70.65625 38.371094 L 66.945312 45.4375 C 66.941406 45.441406 66.941406 45.445312 66.941406 45.449219 L 64.195312 50.671875 L 65.171875 51.179688 L 66.03125 51.628906 Z M 73.574219 37.277344 L 71.734375 36.320312 L 71.214844 37.3125 L 73.050781 38.269531 Z M 60.476562 52.765625 L 42.230469 52.765625 C 42.0625 52.765625 41.921875 52.824219 41.804688 52.941406 C 41.6875 53.058594 41.628906 53.199219 41.628906 53.363281 C 41.628906 53.527344 41.6875 53.671875 41.804688 53.789062 C 41.921875 53.902344 42.0625 53.960938 42.230469 53.960938 L 60.476562 53.960938 C 60.640625 53.960938 60.785156 53.902344 60.902344 53.789062 C 61.019531 53.671875 61.078125 53.527344 61.078125 53.363281 C 61.078125 53.199219 61.019531 53.058594 60.902344 52.941406 C 60.785156 52.824219 60.640625 52.765625 60.476562 52.765625 Z M 60.476562 56.558594 L 42.230469 56.558594 C 42.0625 56.558594 41.921875 56.617188 41.804688 56.734375 C 41.6875 56.851562 41.628906 56.992188 41.628906 57.15625 C 41.628906 57.324219 41.6875 57.464844 41.804688 57.582031 C 41.921875 57.699219 42.0625 57.757812 42.230469 57.757812 L 60.476562 57.757812 C 60.640625 57.757812 60.785156 57.699219 60.902344 57.582031 C 61.019531 57.464844 61.078125 57.324219 61.078125 57.15625 C 61.078125 56.992188 61.019531 56.851562 60.902344 56.734375 C 60.785156 56.617188 60.640625 56.558594 60.476562 56.558594 Z M 61.691406 45.175781 L 42.230469 45.175781 C 42.0625 45.175781 41.921875 45.234375 41.804688 45.351562 C 41.6875 45.46875 41.628906 45.609375 41.628906 45.777344 C 41.628906 45.941406 41.6875 46.082031 41.804688 46.199219 C 41.921875 46.316406 42.0625 46.375 42.230469 46.375 L 61.6875 46.375 C 61.855469 46.375 61.996094 46.316406 62.113281 46.199219 C 62.230469 46.082031 62.289062 45.941406 62.289062 45.777344 C 62.289062 45.609375 62.230469 45.46875 62.113281 45.351562 C 61.996094 45.234375 61.855469 45.175781 61.6875 45.175781 Z M 61.691406 48.972656 L 42.230469 48.972656 C 42.0625 48.972656 41.921875 49.03125 41.804688 49.144531 C 41.6875 49.261719 41.628906 49.40625 41.628906 49.570312 C 41.628906 49.734375 41.6875 49.875 41.804688 49.992188 C 41.921875 50.109375 42.0625 50.167969 42.230469 50.167969 L 61.6875 50.167969 C 61.855469 50.167969 61.996094 50.109375 62.113281 49.992188 C 62.230469 49.875 62.289062 49.734375 62.289062 49.570312 C 62.289062 49.40625 62.230469 49.261719 62.113281 49.144531 C 61.996094 49.03125 61.855469 48.972656 61.6875 48.972656 Z M 61.691406 48.972656 " fill-opacity="1" fill-rule="nonzero"/></g></svg>