<svg xmlns="http://www.w3.org/2000/svg" xmlns:xlink="http://www.w3.org/1999/xlink" width="100" zoomAndPan="magnify" viewBox="0 0 75 74.999997" height="100" preserveAspectRatio="xMidYMid meet" version="1.0"><defs><clipPath id="da01ca540b"><path d="M 12.113281 7.5 L 63 7.5 L 63 63.75 L 12.113281 63.75 Z M 12.113281 7.5 " clip-rule="nonzero"/></clipPath></defs><rect x="-7.5" width="90" fill="#ffffff" y="-7.5" height="89.999996" fill-opacity="1"/><rect x="-7.5" width="90" fill="#ffffff" y="-7.5" height="89.999996" fill-opacity="1"/><g clip-path="url(#da01ca540b)"><path fill="#050a30" d="M 57.445312 30.898438 C 55.601562 37.742188 53.148438 43.394531 50.15625 47.707031 C 44.175781 56.324219 39.394531 59.507812 37.496094 60.519531 C 35.601562 59.507812 30.820312 56.328125 24.839844 47.707031 C 21.847656 43.394531 19.394531 37.742188 17.550781 30.898438 C 16.183594 25.828125 15.527344 21.429688 15.261719 19.3125 C 24.480469 11.136719 36.574219 10.566406 37.496094 10.535156 C 37.929688 10.550781 41.117188 10.699219 45.300781 11.816406 C 49.238281 12.867188 54.886719 15.019531 59.734375 19.3125 C 59.46875 21.429688 58.808594 25.828125 57.445312 30.898438 Z M 62.21875 17.476562 C 51.671875 7.753906 37.496094 7.503906 37.496094 7.503906 C 37.496094 7.503906 23.324219 7.753906 12.777344 17.476562 C 12.335938 17.882812 12.113281 18.476562 12.183594 19.074219 C 12.640625 23.03125 14.855469 38.632812 22.351562 49.433594 C 29.214844 59.328125 34.730469 62.585938 36.707031 63.511719 C 37.207031 63.742188 37.785156 63.742188 38.285156 63.511719 C 40.265625 62.585938 45.777344 59.328125 52.644531 49.433594 C 60.140625 38.632812 62.355469 23.03125 62.8125 19.074219 C 62.878906 18.476562 62.660156 17.882812 62.21875 17.476562 " fill-opacity="1" fill-rule="nonzero"/></g><path fill="#050a30" d="M 38.972656 38.582031 C 39.039062 38.882812 38.8125 39.164062 38.503906 39.164062 L 36.488281 39.164062 C 36.183594 39.164062 35.957031 38.882812 36.023438 38.582031 L 36.789062 35.175781 C 36.257812 34.914062 35.890625 34.367188 35.890625 33.734375 C 35.890625 32.808594 36.675781 32.066406 37.613281 32.132812 C 38.402344 32.1875 39.042969 32.824219 39.097656 33.617188 C 39.148438 34.296875 38.769531 34.898438 38.203125 35.175781 Z M 44.042969 26.828125 L 30.953125 26.828125 C 30.03125 26.828125 29.289062 27.570312 29.289062 28.492188 L 29.289062 40.265625 C 29.289062 41.183594 30.03125 41.929688 30.953125 41.929688 L 44.042969 41.929688 C 44.960938 41.929688 45.707031 41.183594 45.707031 40.265625 L 45.707031 28.492188 C 45.707031 27.570312 44.960938 26.828125 44.042969 26.828125 " fill-opacity="1" fill-rule="nonzero"/><path fill="#050a30" d="M 33.492188 24.464844 C 33.492188 22.257812 35.289062 20.460938 37.496094 20.460938 C 39.707031 20.460938 41.5 22.257812 41.5 24.464844 L 41.5 26.125 L 43.351562 26.125 L 43.351562 24.464844 C 43.351562 21.238281 40.722656 18.613281 37.496094 18.613281 C 34.269531 18.613281 31.644531 21.238281 31.644531 24.464844 L 31.644531 26.125 L 33.492188 26.125 L 33.492188 24.464844 " fill-opacity="1" fill-rule="nonzero"/><path fill="#050a30" d="M 32.109375 43.316406 L 42.882812 43.316406 C 43.300781 43.316406 43.652344 43.023438 43.738281 42.632812 L 31.257812 42.632812 C 31.34375 43.023438 31.691406 43.316406 32.109375 43.316406 " fill-opacity="1" fill-rule="nonzero"/></svg>