<svg xmlns="http://www.w3.org/2000/svg" xmlns:xlink="http://www.w3.org/1999/xlink" width="100" zoomAndPan="magnify" viewBox="0 0 75 74.999997" height="100" preserveAspectRatio="xMidYMid meet" version="1.0"><defs><clipPath id="bc1bdad991"><path d="M 11.121094 11.121094 L 63.621094 11.121094 L 63.621094 63.621094 L 11.121094 63.621094 Z M 11.121094 11.121094 " clip-rule="nonzero"/></clipPath></defs><rect x="-7.5" width="90" fill="#ffffff" y="-7.5" height="89.999996" fill-opacity="1"/><rect x="-7.5" width="90" fill="#ffffff" y="-7.5" height="89.999996" fill-opacity="1"/><path fill="#050a30" d="M 48.566406 27.433594 L 26.242188 27.433594 C 25.996094 27.433594 25.78125 27.519531 25.605469 27.695312 C 25.429688 27.875 25.339844 28.085938 25.339844 28.335938 L 25.339844 38.992188 C 25.339844 50.324219 37.175781 51.921875 37.292969 51.9375 C 37.367188 51.949219 37.441406 51.949219 37.519531 51.9375 C 37.636719 51.921875 49.46875 50.324219 49.46875 38.992188 L 49.46875 28.335938 C 49.46875 28.085938 49.382812 27.875 49.207031 27.695312 C 49.03125 27.519531 48.816406 27.433594 48.566406 27.433594 Z M 47.664062 38.992188 C 47.664062 48.289062 38.582031 49.960938 37.40625 50.140625 C 36.222656 49.960938 27.148438 48.316406 27.148438 39.003906 L 27.148438 29.25 L 47.664062 29.25 Z M 47.664062 38.992188 " fill-opacity="1" fill-rule="nonzero"/><path fill="#050a30" d="M 33.277344 45.625 L 41.535156 45.625 C 41.894531 45.625 42.238281 45.554688 42.570312 45.417969 C 42.902344 45.28125 43.195312 45.085938 43.449219 44.832031 C 43.703125 44.578125 43.902344 44.285156 44.039062 43.953125 C 44.175781 43.621094 44.246094 43.273438 44.246094 42.914062 L 44.246094 37.496094 C 44.246094 37.246094 44.15625 37.035156 43.980469 36.855469 C 43.804688 36.679688 43.589844 36.59375 43.339844 36.59375 L 41.484375 36.59375 L 41.484375 31.867188 C 41.484375 31.617188 41.398438 31.40625 41.222656 31.230469 C 41.046875 31.050781 40.832031 30.964844 40.582031 30.964844 L 34.226562 30.964844 C 33.980469 30.964844 33.765625 31.050781 33.589844 31.230469 C 33.414062 31.40625 33.324219 31.617188 33.324219 31.867188 L 33.324219 36.59375 L 31.46875 36.59375 C 31.21875 36.59375 31.007812 36.679688 30.832031 36.855469 C 30.65625 37.035156 30.566406 37.246094 30.566406 37.496094 L 30.566406 42.914062 C 30.566406 43.273438 30.636719 43.621094 30.773438 43.953125 C 30.910156 44.285156 31.105469 44.578125 31.359375 44.832031 C 31.613281 45.085938 31.90625 45.28125 32.238281 45.417969 C 32.570312 45.554688 32.917969 45.625 33.277344 45.625 Z M 35.132812 32.78125 L 39.679688 32.78125 L 39.679688 36.59375 L 35.132812 36.59375 Z M 32.375 38.398438 L 42.4375 38.398438 L 42.4375 42.914062 C 42.4375 43.164062 42.351562 43.378906 42.171875 43.554688 C 41.996094 43.730469 41.785156 43.816406 41.535156 43.816406 L 33.277344 43.816406 C 33.027344 43.816406 32.8125 43.730469 32.636719 43.554688 C 32.460938 43.378906 32.375 43.164062 32.375 42.914062 Z M 32.375 38.398438 " fill-opacity="1" fill-rule="nonzero"/><path fill="#050a30" d="M 36.503906 41.671875 L 36.503906 42.464844 C 36.503906 42.710938 36.589844 42.925781 36.765625 43.101562 C 36.941406 43.277344 37.15625 43.367188 37.40625 43.367188 C 37.65625 43.367188 37.867188 43.277344 38.042969 43.101562 C 38.21875 42.925781 38.308594 42.710938 38.308594 42.464844 L 38.308594 41.671875 C 38.6875 41.382812 38.882812 41.003906 38.886719 40.527344 C 38.886719 40.332031 38.847656 40.140625 38.773438 39.960938 C 38.699219 39.777344 38.59375 39.617188 38.453125 39.480469 C 38.3125 39.339844 38.152344 39.234375 37.972656 39.160156 C 37.789062 39.082031 37.601562 39.046875 37.40625 39.046875 C 37.210938 39.046875 37.019531 39.082031 36.839844 39.160156 C 36.65625 39.234375 36.496094 39.339844 36.359375 39.480469 C 36.21875 39.617188 36.113281 39.777344 36.039062 39.960938 C 35.960938 40.140625 35.925781 40.332031 35.925781 40.527344 C 35.929688 41.003906 36.121094 41.382812 36.503906 41.671875 Z M 36.503906 41.671875 " fill-opacity="1" fill-rule="nonzero"/><g clip-path="url(#bc1bdad991)"><path fill="#050a30" d="M 61.371094 48.65625 L 61.371094 39.945312 C 61.371094 39.699219 61.285156 39.484375 61.109375 39.308594 C 60.933594 39.132812 60.71875 39.042969 60.46875 39.042969 L 57.648438 39.042969 C 57.6875 38.53125 57.726562 38.019531 57.726562 37.496094 C 57.722656 34.316406 57.007812 31.304688 55.582031 28.464844 L 60.953125 28.464844 C 61.203125 28.464844 61.414062 28.375 61.59375 28.199219 C 61.769531 28.023438 61.855469 27.808594 61.855469 27.5625 L 61.855469 22.324219 C 62.042969 22.253906 62.21875 22.160156 62.382812 22.050781 C 62.550781 21.941406 62.699219 21.8125 62.835938 21.664062 C 62.96875 21.519531 63.085938 21.359375 63.183594 21.1875 C 63.285156 21.011719 63.359375 20.832031 63.414062 20.640625 C 63.472656 20.449219 63.503906 20.253906 63.515625 20.054688 C 63.527344 19.855469 63.511719 19.660156 63.476562 19.460938 C 63.441406 19.265625 63.382812 19.078125 63.304688 18.894531 C 63.222656 18.710938 63.125 18.542969 63.003906 18.382812 C 62.886719 18.222656 62.75 18.078125 62.597656 17.953125 C 62.445312 17.824219 62.277344 17.714844 62.101562 17.628906 C 61.921875 17.539062 61.738281 17.472656 61.542969 17.425781 C 61.347656 17.378906 61.152344 17.355469 60.953125 17.355469 C 60.753906 17.355469 60.558594 17.378906 60.363281 17.425781 C 60.171875 17.472656 59.984375 17.539062 59.804688 17.628906 C 59.628906 17.714844 59.460938 17.824219 59.308594 17.953125 C 59.15625 18.078125 59.019531 18.222656 58.902344 18.382812 C 58.78125 18.542969 58.683594 18.710938 58.601562 18.894531 C 58.523438 19.078125 58.464844 19.265625 58.429688 19.460938 C 58.394531 19.660156 58.382812 19.855469 58.390625 20.054688 C 58.402344 20.253906 58.433594 20.449219 58.492188 20.640625 C 58.546875 20.832031 58.625 21.011719 58.722656 21.1875 C 58.820312 21.359375 58.9375 21.519531 59.070312 21.664062 C 59.207031 21.8125 59.359375 21.941406 59.523438 22.050781 C 59.6875 22.160156 59.863281 22.253906 60.050781 22.324219 L 60.050781 26.65625 L 54.566406 26.65625 C 53.691406 25.273438 52.664062 24.015625 51.488281 22.878906 C 50.308594 21.746094 49.011719 20.765625 47.59375 19.945312 C 46.179688 19.121094 44.6875 18.480469 43.117188 18.019531 C 41.546875 17.5625 39.945312 17.292969 38.308594 17.222656 L 38.308594 13.867188 C 38.308594 13.621094 38.21875 13.40625 38.042969 13.230469 C 37.867188 13.054688 37.65625 12.964844 37.40625 12.964844 L 28.84375 12.964844 C 28.773438 12.777344 28.683594 12.605469 28.574219 12.4375 C 28.460938 12.273438 28.335938 12.125 28.1875 11.988281 C 28.042969 11.851562 27.882812 11.734375 27.710938 11.636719 C 27.535156 11.539062 27.355469 11.464844 27.164062 11.40625 C 26.972656 11.351562 26.777344 11.320312 26.578125 11.308594 C 26.378906 11.296875 26.183594 11.3125 25.988281 11.347656 C 25.792969 11.382812 25.601562 11.441406 25.421875 11.519531 C 25.238281 11.597656 25.066406 11.699219 24.90625 11.816406 C 24.75 11.9375 24.605469 12.074219 24.476562 12.226562 C 24.351562 12.378906 24.242188 12.542969 24.152344 12.722656 C 24.066406 12.898438 23.996094 13.085938 23.953125 13.28125 C 23.90625 13.472656 23.882812 13.667969 23.882812 13.867188 C 23.882812 14.066406 23.90625 14.265625 23.953125 14.457031 C 23.996094 14.652344 24.066406 14.835938 24.152344 15.015625 C 24.242188 15.191406 24.351562 15.359375 24.476562 15.511719 C 24.605469 15.664062 24.75 15.800781 24.90625 15.917969 C 25.066406 16.039062 25.238281 16.136719 25.421875 16.21875 C 25.601562 16.296875 25.792969 16.355469 25.988281 16.390625 C 26.183594 16.425781 26.378906 16.4375 26.578125 16.429688 C 26.777344 16.417969 26.972656 16.386719 27.164062 16.328125 C 27.355469 16.273438 27.535156 16.195312 27.710938 16.097656 C 27.882812 16 28.042969 15.882812 28.1875 15.75 C 28.335938 15.613281 28.460938 15.464844 28.574219 15.296875 C 28.683594 15.132812 28.773438 14.957031 28.84375 14.773438 L 36.503906 14.773438 L 36.503906 17.21875 C 35.265625 17.277344 34.046875 17.445312 32.839844 17.722656 C 31.632812 18 30.464844 18.386719 29.328125 18.882812 C 28.195312 19.375 27.113281 19.964844 26.085938 20.65625 C 25.058594 21.347656 24.105469 22.125 23.21875 22.988281 C 22.335938 23.855469 21.535156 24.792969 20.820312 25.804688 C 20.109375 26.816406 19.492188 27.882812 18.972656 29.007812 C 18.457031 30.128906 18.042969 31.292969 17.738281 32.492188 C 17.429688 33.691406 17.238281 34.90625 17.152344 36.140625 L 14.824219 36.140625 L 14.824219 28.710938 C 15.011719 28.640625 15.1875 28.550781 15.351562 28.4375 C 15.519531 28.328125 15.667969 28.199219 15.804688 28.050781 C 15.9375 27.90625 16.054688 27.746094 16.152344 27.574219 C 16.25 27.402344 16.328125 27.21875 16.382812 27.027344 C 16.4375 26.835938 16.472656 26.640625 16.484375 26.445312 C 16.492188 26.246094 16.480469 26.046875 16.445312 25.851562 C 16.410156 25.65625 16.351562 25.46875 16.273438 25.285156 C 16.191406 25.101562 16.09375 24.933594 15.972656 24.773438 C 15.855469 24.613281 15.71875 24.46875 15.566406 24.34375 C 15.414062 24.214844 15.246094 24.105469 15.070312 24.019531 C 14.890625 23.929688 14.707031 23.863281 14.511719 23.816406 C 14.316406 23.769531 14.121094 23.746094 13.921875 23.746094 C 13.722656 23.746094 13.527344 23.769531 13.332031 23.816406 C 13.140625 23.863281 12.953125 23.929688 12.777344 24.019531 C 12.597656 24.105469 12.433594 24.214844 12.28125 24.34375 C 12.128906 24.46875 11.992188 24.613281 11.871094 24.773438 C 11.753906 24.933594 11.652344 25.101562 11.574219 25.285156 C 11.496094 25.46875 11.4375 25.65625 11.402344 25.851562 C 11.367188 26.046875 11.351562 26.246094 11.363281 26.445312 C 11.375 26.640625 11.40625 26.835938 11.460938 27.027344 C 11.515625 27.21875 11.59375 27.402344 11.691406 27.574219 C 11.789062 27.746094 11.90625 27.90625 12.042969 28.050781 C 12.175781 28.199219 12.328125 28.328125 12.492188 28.4375 C 12.65625 28.550781 12.832031 28.640625 13.019531 28.710938 L 13.019531 37.042969 C 13.019531 37.292969 13.109375 37.507812 13.285156 37.683594 C 13.460938 37.859375 13.671875 37.949219 13.921875 37.949219 L 17.105469 37.949219 C 17.140625 39.496094 17.351562 41.019531 17.734375 42.523438 C 18.121094 44.023438 18.667969 45.460938 19.382812 46.835938 C 20.097656 48.210938 20.957031 49.488281 21.960938 50.664062 C 22.96875 51.84375 24.09375 52.890625 25.339844 53.8125 L 25.339844 57.421875 L 18.71875 57.421875 C 18.648438 57.238281 18.558594 57.0625 18.445312 56.894531 C 18.335938 56.730469 18.207031 56.582031 18.0625 56.445312 C 17.914062 56.308594 17.753906 56.195312 17.582031 56.09375 C 17.410156 55.996094 17.226562 55.921875 17.035156 55.863281 C 16.84375 55.808594 16.648438 55.777344 16.449219 55.765625 C 16.253906 55.753906 16.054688 55.769531 15.859375 55.804688 C 15.664062 55.839844 15.472656 55.898438 15.292969 55.976562 C 15.109375 56.054688 14.9375 56.15625 14.777344 56.273438 C 14.621094 56.394531 14.476562 56.53125 14.347656 56.683594 C 14.222656 56.835938 14.113281 57 14.023438 57.179688 C 13.933594 57.359375 13.867188 57.542969 13.820312 57.738281 C 13.777344 57.929688 13.753906 58.128906 13.753906 58.328125 C 13.753906 58.527344 13.777344 58.722656 13.820312 58.917969 C 13.867188 59.109375 13.933594 59.296875 14.023438 59.472656 C 14.113281 59.652344 14.222656 59.816406 14.347656 59.96875 C 14.476562 60.125 14.621094 60.257812 14.777344 60.378906 C 14.9375 60.5 15.109375 60.597656 15.292969 60.675781 C 15.472656 60.757812 15.664062 60.816406 15.859375 60.851562 C 16.054688 60.886719 16.253906 60.898438 16.449219 60.886719 C 16.648438 60.878906 16.84375 60.84375 17.035156 60.789062 C 17.226562 60.734375 17.410156 60.65625 17.582031 60.558594 C 17.753906 60.460938 17.914062 60.34375 18.0625 60.207031 C 18.207031 60.074219 18.335938 59.921875 18.445312 59.757812 C 18.558594 59.59375 18.648438 59.417969 18.71875 59.230469 L 26.242188 59.230469 C 26.492188 59.230469 26.707031 59.140625 26.882812 58.964844 C 27.058594 58.789062 27.148438 58.578125 27.148438 58.328125 L 27.148438 55.019531 C 28.480469 55.808594 29.886719 56.433594 31.363281 56.898438 C 32.84375 57.363281 34.355469 57.65625 35.902344 57.769531 C 37.445312 57.886719 38.984375 57.824219 40.515625 57.585938 C 42.046875 57.34375 43.53125 56.933594 44.96875 56.351562 L 44.96875 61.125 C 44.96875 61.371094 45.054688 61.585938 45.230469 61.761719 C 45.40625 61.9375 45.621094 62.027344 45.871094 62.027344 L 53.078125 62.027344 C 53.148438 62.210938 53.238281 62.386719 53.347656 62.554688 C 53.460938 62.71875 53.589844 62.867188 53.734375 63.003906 C 53.878906 63.140625 54.039062 63.253906 54.214844 63.355469 C 54.386719 63.453125 54.570312 63.527344 54.757812 63.585938 C 54.949219 63.640625 55.144531 63.671875 55.34375 63.683594 C 55.542969 63.695312 55.738281 63.679688 55.9375 63.644531 C 56.132812 63.609375 56.320312 63.550781 56.503906 63.472656 C 56.683594 63.390625 56.855469 63.292969 57.015625 63.171875 C 57.175781 63.054688 57.316406 62.917969 57.445312 62.765625 C 57.570312 62.613281 57.679688 62.449219 57.769531 62.269531 C 57.859375 62.089844 57.925781 61.90625 57.972656 61.710938 C 58.015625 61.519531 58.039062 61.320312 58.039062 61.125 C 58.039062 60.925781 58.015625 60.726562 57.972656 60.535156 C 57.925781 60.339844 57.859375 60.15625 57.769531 59.976562 C 57.679688 59.800781 57.570312 59.632812 57.445312 59.480469 C 57.316406 59.328125 57.175781 59.191406 57.015625 59.074219 C 56.855469 58.953125 56.683594 58.855469 56.503906 58.773438 C 56.320312 58.695312 56.132812 58.636719 55.9375 58.601562 C 55.738281 58.566406 55.542969 58.554688 55.34375 58.5625 C 55.144531 58.574219 54.949219 58.605469 54.757812 58.664062 C 54.570312 58.71875 54.386719 58.792969 54.214844 58.894531 C 54.039062 58.992188 53.878906 59.109375 53.734375 59.242188 C 53.589844 59.378906 53.460938 59.527344 53.347656 59.691406 C 53.238281 59.859375 53.148438 60.035156 53.078125 60.21875 L 46.773438 60.21875 L 46.773438 55.511719 C 48.167969 54.785156 49.460938 53.90625 50.652344 52.878906 C 51.84375 51.855469 52.898438 50.703125 53.824219 49.433594 C 54.75 48.160156 55.515625 46.800781 56.125 45.351562 C 56.734375 43.902344 57.167969 42.402344 57.429688 40.851562 L 59.570312 40.851562 L 59.570312 48.65625 C 59.386719 48.726562 59.210938 48.816406 59.042969 48.925781 C 58.878906 49.039062 58.730469 49.167969 58.59375 49.3125 C 58.457031 49.460938 58.339844 49.617188 58.242188 49.792969 C 58.144531 49.964844 58.066406 50.148438 58.011719 50.339844 C 57.957031 50.53125 57.921875 50.722656 57.914062 50.921875 C 57.902344 51.121094 57.914062 51.320312 57.949219 51.515625 C 57.988281 51.710938 58.042969 51.902344 58.125 52.082031 C 58.203125 52.265625 58.304688 52.4375 58.421875 52.59375 C 58.542969 52.753906 58.679688 52.898438 58.832031 53.027344 C 58.984375 53.152344 59.148438 53.261719 59.328125 53.351562 C 59.503906 53.441406 59.691406 53.507812 59.886719 53.554688 C 60.078125 53.597656 60.277344 53.621094 60.476562 53.621094 C 60.675781 53.621094 60.871094 53.597656 61.0625 53.554688 C 61.257812 53.507812 61.445312 53.441406 61.621094 53.351562 C 61.800781 53.261719 61.964844 53.152344 62.117188 53.027344 C 62.269531 52.898438 62.40625 52.753906 62.527344 52.59375 C 62.644531 52.4375 62.746094 52.265625 62.824219 52.082031 C 62.90625 51.902344 62.960938 51.710938 63 51.515625 C 63.035156 51.320312 63.046875 51.121094 63.035156 50.921875 C 63.027344 50.722656 62.992188 50.53125 62.9375 50.339844 C 62.882812 50.148438 62.804688 49.964844 62.707031 49.792969 C 62.609375 49.617188 62.492188 49.460938 62.355469 49.3125 C 62.222656 49.167969 62.070312 49.039062 61.90625 48.925781 C 61.738281 48.816406 61.5625 48.726562 61.378906 48.65625 Z M 60.953125 19.164062 C 61.164062 19.164062 61.339844 19.238281 61.488281 19.386719 C 61.636719 19.535156 61.707031 19.710938 61.707031 19.921875 C 61.707031 20.128906 61.632812 20.308594 61.488281 20.457031 C 61.339844 20.601562 61.160156 20.675781 60.953125 20.675781 C 60.742188 20.675781 60.566406 20.601562 60.417969 20.457031 C 60.269531 20.308594 60.195312 20.128906 60.195312 19.921875 C 60.195312 19.710938 60.269531 19.535156 60.417969 19.386719 C 60.566406 19.238281 60.746094 19.164062 60.953125 19.164062 Z M 26.457031 14.625 C 26.246094 14.625 26.066406 14.550781 25.917969 14.402344 C 25.769531 14.257812 25.695312 14.078125 25.695312 13.867188 C 25.695312 13.65625 25.769531 13.480469 25.917969 13.332031 C 26.066406 13.183594 26.246094 13.109375 26.453125 13.109375 C 26.664062 13.109375 26.84375 13.183594 26.992188 13.332031 C 27.140625 13.480469 27.210938 13.660156 27.210938 13.867188 C 27.210938 14.078125 27.136719 14.253906 26.988281 14.402344 C 26.84375 14.550781 26.664062 14.625 26.457031 14.625 Z M 13.921875 25.5625 C 14.132812 25.5625 14.308594 25.636719 14.457031 25.78125 C 14.605469 25.929688 14.679688 26.109375 14.679688 26.316406 C 14.679688 26.527344 14.605469 26.707031 14.457031 26.851562 C 14.308594 27 14.132812 27.074219 13.921875 27.074219 C 13.714844 27.074219 13.535156 27 13.386719 26.851562 C 13.238281 26.707031 13.164062 26.527344 13.164062 26.316406 C 13.164062 26.109375 13.238281 25.929688 13.386719 25.78125 C 13.535156 25.636719 13.714844 25.5625 13.921875 25.5625 Z M 16.328125 59.089844 C 16.117188 59.089844 15.9375 59.019531 15.789062 58.871094 C 15.640625 58.722656 15.566406 58.542969 15.566406 58.332031 C 15.566406 58.125 15.640625 57.945312 15.789062 57.796875 C 15.9375 57.648438 16.117188 57.574219 16.324219 57.574219 C 16.535156 57.574219 16.714844 57.648438 16.863281 57.796875 C 17.011719 57.945312 17.085938 58.125 17.082031 58.335938 C 17.082031 58.542969 17.011719 58.722656 16.863281 58.871094 C 16.714844 59.015625 16.535156 59.089844 16.328125 59.089844 Z M 55.46875 60.367188 C 55.679688 60.367188 55.859375 60.441406 56.007812 60.585938 C 56.15625 60.734375 56.230469 60.914062 56.230469 61.125 C 56.230469 61.335938 56.15625 61.511719 56.007812 61.660156 C 55.859375 61.808594 55.679688 61.882812 55.46875 61.882812 C 55.261719 61.882812 55.082031 61.808594 54.933594 61.660156 C 54.785156 61.511719 54.710938 61.332031 54.710938 61.125 C 54.714844 60.914062 54.785156 60.734375 54.933594 60.589844 C 55.082031 60.441406 55.261719 60.367188 55.46875 60.367188 Z M 37.40625 56.011719 C 36.800781 56.011719 36.195312 55.980469 35.589844 55.921875 C 34.988281 55.863281 34.386719 55.773438 33.792969 55.65625 C 33.199219 55.539062 32.609375 55.390625 32.03125 55.214844 C 31.449219 55.039062 30.878906 54.832031 30.320312 54.601562 C 29.761719 54.371094 29.210938 54.109375 28.675781 53.824219 C 28.144531 53.539062 27.625 53.226562 27.117188 52.890625 C 26.613281 52.554688 26.128906 52.191406 25.660156 51.808594 C 25.191406 51.421875 24.742188 51.015625 24.3125 50.589844 C 23.882812 50.160156 23.476562 49.710938 23.09375 49.242188 C 22.707031 48.773438 22.347656 48.285156 22.011719 47.78125 C 21.671875 47.277344 21.363281 46.757812 21.078125 46.222656 C 20.789062 45.6875 20.53125 45.140625 20.300781 44.582031 C 20.066406 44.019531 19.863281 43.449219 19.6875 42.871094 C 19.511719 42.289062 19.363281 41.703125 19.246094 41.109375 C 19.128906 40.511719 19.039062 39.914062 18.980469 39.3125 C 18.921875 38.707031 18.890625 38.101562 18.890625 37.496094 C 18.890625 36.890625 18.921875 36.285156 18.980469 35.679688 C 19.039062 35.078125 19.128906 34.476562 19.246094 33.882812 C 19.363281 33.289062 19.511719 32.703125 19.6875 32.121094 C 19.863281 31.539062 20.066406 30.96875 20.300781 30.410156 C 20.53125 29.851562 20.789062 29.300781 21.078125 28.769531 C 21.363281 28.234375 21.671875 27.714844 22.011719 27.210938 C 22.347656 26.707031 22.707031 26.21875 23.09375 25.75 C 23.476562 25.28125 23.882812 24.832031 24.3125 24.402344 C 24.742188 23.976562 25.191406 23.566406 25.660156 23.183594 C 26.128906 22.796875 26.613281 22.4375 27.117188 22.101562 C 27.625 21.765625 28.144531 21.453125 28.675781 21.167969 C 29.210938 20.882812 29.761719 20.621094 30.320312 20.390625 C 30.878906 20.15625 31.449219 19.953125 32.03125 19.777344 C 32.609375 19.601562 33.199219 19.453125 33.792969 19.335938 C 34.386719 19.21875 34.988281 19.128906 35.589844 19.070312 C 36.195312 19.011719 36.800781 18.980469 37.40625 18.980469 C 38.011719 18.980469 38.617188 19.011719 39.21875 19.070312 C 39.824219 19.128906 40.421875 19.21875 41.019531 19.335938 C 41.613281 19.453125 42.199219 19.601562 42.78125 19.777344 C 43.359375 19.953125 43.929688 20.15625 44.492188 20.390625 C 45.050781 20.621094 45.597656 20.882812 46.132812 21.167969 C 46.667969 21.453125 47.1875 21.765625 47.691406 22.101562 C 48.195312 22.4375 48.683594 22.796875 49.152344 23.183594 C 49.621094 23.566406 50.070312 23.976562 50.496094 24.402344 C 50.925781 24.832031 51.332031 25.28125 51.71875 25.75 C 52.101562 26.21875 52.464844 26.707031 52.800781 27.210938 C 53.136719 27.714844 53.449219 28.234375 53.734375 28.769531 C 54.019531 29.300781 54.28125 29.851562 54.511719 30.410156 C 54.742188 30.96875 54.949219 31.539062 55.125 32.121094 C 55.300781 32.703125 55.445312 33.289062 55.566406 33.882812 C 55.683594 34.476562 55.773438 35.078125 55.832031 35.679688 C 55.890625 36.285156 55.921875 36.890625 55.921875 37.496094 C 55.921875 38.101562 55.890625 38.707031 55.828125 39.308594 C 55.769531 39.914062 55.679688 40.511719 55.5625 41.105469 C 55.441406 41.703125 55.296875 42.289062 55.121094 42.867188 C 54.941406 43.449219 54.738281 44.019531 54.507812 44.578125 C 54.273438 45.136719 54.015625 45.683594 53.730469 46.21875 C 53.441406 46.753906 53.132812 47.273438 52.792969 47.777344 C 52.457031 48.28125 52.097656 48.769531 51.710938 49.238281 C 51.328125 49.707031 50.921875 50.152344 50.492188 50.582031 C 50.0625 51.011719 49.613281 51.417969 49.144531 51.800781 C 48.675781 52.1875 48.191406 52.546875 47.6875 52.882812 C 47.183594 53.222656 46.664062 53.53125 46.128906 53.820312 C 45.59375 54.105469 45.046875 54.363281 44.488281 54.597656 C 43.929688 54.828125 43.359375 55.03125 42.777344 55.210938 C 42.199219 55.386719 41.609375 55.535156 41.015625 55.652344 C 40.421875 55.769531 39.824219 55.859375 39.21875 55.921875 C 38.617188 55.980469 38.011719 56.011719 37.40625 56.011719 Z M 60.46875 51.804688 C 60.261719 51.804688 60.082031 51.730469 59.933594 51.582031 C 59.785156 51.433594 59.710938 51.257812 59.710938 51.046875 C 59.710938 50.863281 59.773438 50.699219 59.898438 50.558594 C 60.019531 50.421875 60.171875 50.339844 60.355469 50.3125 C 60.429688 50.34375 60.507812 50.34375 60.582031 50.3125 C 60.765625 50.339844 60.917969 50.421875 61.042969 50.558594 C 61.164062 50.699219 61.226562 50.863281 61.226562 51.046875 C 61.226562 51.257812 61.152344 51.433594 61.003906 51.582031 C 60.855469 51.730469 60.679688 51.804688 60.46875 51.804688 Z M 60.46875 51.804688 " fill-opacity="1" fill-rule="nonzero"/></g></svg>