<svg xmlns="http://www.w3.org/2000/svg" xmlns:xlink="http://www.w3.org/1999/xlink" width="150" zoomAndPan="magnify" viewBox="0 0 112.5 89.999999" height="120" preserveAspectRatio="xMidYMid meet" version="1.0"><defs><clipPath id="3ad7aaa868"><path d="M 0 0.199219 L 112.003906 0.199219 L 112.003906 89.800781 L 0 89.800781 Z M 0 0.199219 " clip-rule="nonzero"/></clipPath><clipPath id="829fb7893f"><path d="M 44.25 23.332031 L 74.191406 23.332031 L 74.191406 53 L 44.25 53 Z M 44.25 23.332031 " clip-rule="nonzero"/></clipPath><clipPath id="9be39dc9a1"><path d="M 38.25 46 L 52 46 L 52 59.332031 L 38.25 59.332031 Z M 38.25 46 " clip-rule="nonzero"/></clipPath></defs><g clip-path="url(#3ad7aaa868)"><path fill="#ffffff" d="M 0 0.199219 L 112.5 0.199219 L 112.5 97.699219 L 0 97.699219 Z M 0 0.199219 " fill-opacity="1" fill-rule="nonzero"/><path fill="#ffffff" d="M 0 0.199219 L 112.5 0.199219 L 112.5 90.199219 L 0 90.199219 Z M 0 0.199219 " fill-opacity="1" fill-rule="nonzero"/><path fill="#ffffff" d="M 0 0.199219 L 112.5 0.199219 L 112.5 90.199219 L 0 90.199219 Z M 0 0.199219 " fill-opacity="1" fill-rule="nonzero"/></g><path fill="#2b5baf" d="M 59.433594 36.03125 C 61.050781 36.03125 62.332031 34.695312 62.332031 33.132812 C 62.332031 31.519531 61.050781 30.238281 59.433594 30.238281 C 57.820312 30.238281 56.539062 31.519531 56.539062 33.132812 C 56.539062 34.75 57.875 36.03125 59.433594 36.03125 " fill-opacity="1" fill-rule="nonzero"/><path fill="#2b5baf" d="M 62.164062 36.53125 C 61.996094 36.476562 61.828125 36.476562 61.664062 36.53125 C 60.324219 37.367188 58.542969 37.367188 57.261719 36.53125 C 57.09375 36.421875 56.929688 36.421875 56.761719 36.53125 C 54.867188 37.53125 53.640625 39.484375 53.640625 41.65625 C 53.640625 42.269531 53.976562 43.160156 55.644531 43.773438 C 56.648438 44.160156 58.039062 44.328125 59.492188 44.328125 C 62.386719 44.328125 65.285156 43.492188 65.285156 41.65625 C 65.285156 39.484375 64.058594 37.53125 62.164062 36.53125 " fill-opacity="1" fill-rule="nonzero"/><path fill="#2b5baf" d="M 65.953125 37.03125 C 67.175781 37.03125 68.179688 36.03125 68.179688 34.804688 C 68.179688 33.578125 67.175781 32.574219 65.953125 32.574219 C 64.726562 32.574219 63.722656 33.578125 63.722656 34.804688 C 63.722656 36.03125 64.726562 37.03125 65.953125 37.03125 " fill-opacity="1" fill-rule="nonzero"/><path fill="#2b5baf" d="M 67.957031 37.367188 C 67.789062 37.253906 67.566406 37.3125 67.398438 37.367188 C 66.730469 37.8125 65.835938 37.921875 65.058594 37.648438 C 65.894531 38.816406 66.339844 40.210938 66.339844 41.65625 C 66.339844 42.210938 66.171875 42.769531 65.835938 43.214844 L 65.894531 43.214844 C 67.289062 43.214844 68.902344 42.9375 69.683594 42.210938 C 70.015625 41.933594 70.183594 41.546875 70.183594 41.152344 C 70.242188 39.539062 69.347656 38.089844 67.957031 37.367188 " fill-opacity="1" fill-rule="nonzero"/><path fill="#2b5baf" d="M 53.867188 37.648438 C 53.082031 37.925781 52.195312 37.8125 51.523438 37.367188 C 51.355469 37.257812 51.136719 37.257812 50.96875 37.367188 C 49.578125 38.09375 48.683594 39.539062 48.683594 41.15625 C 48.683594 41.546875 48.851562 41.933594 49.183594 42.214844 C 49.96875 42.992188 51.636719 43.21875 52.972656 43.21875 L 53.03125 43.21875 C 52.640625 42.601562 52.527344 42.046875 52.527344 41.65625 C 52.582031 40.152344 53.03125 38.761719 53.867188 37.648438 " fill-opacity="1" fill-rule="nonzero"/><path fill="#2b5baf" d="M 52.972656 37.03125 C 54.199219 37.03125 55.203125 36.03125 55.203125 34.804688 C 55.203125 33.578125 54.199219 32.574219 52.972656 32.574219 C 51.746094 32.574219 50.746094 33.578125 50.746094 34.804688 C 50.6875 36.03125 51.746094 37.03125 52.972656 37.03125 " fill-opacity="1" fill-rule="nonzero"/><g clip-path="url(#829fb7893f)"><path fill="#2b5baf" d="M 59.433594 51.738281 C 51.914062 51.738281 45.789062 45.609375 45.789062 38.089844 C 45.789062 30.515625 51.914062 24.390625 59.433594 24.390625 C 66.953125 24.390625 73.082031 30.515625 73.082031 38.035156 C 73.136719 45.609375 67.007812 51.738281 59.433594 51.738281 Z M 59.433594 23.332031 C 51.355469 23.332031 44.730469 29.960938 44.730469 38.089844 C 44.730469 46.167969 51.355469 52.796875 59.433594 52.796875 C 67.511719 52.796875 74.195312 46.167969 74.195312 38.089844 C 74.195312 29.960938 67.566406 23.332031 59.433594 23.332031 " fill-opacity="1" fill-rule="nonzero"/></g><g clip-path="url(#9be39dc9a1)"><path fill="#2b5baf" d="M 45.953125 46.277344 L 39.660156 52.632812 C 38.214844 54.074219 38.214844 56.472656 39.660156 57.921875 C 41.109375 59.367188 43.503906 59.367188 44.953125 57.921875 L 51.246094 51.625 C 49.074219 50.234375 47.238281 48.449219 45.953125 46.277344 " fill-opacity="1" fill-rule="nonzero"/></g></svg>