<svg width="81" height="80" viewBox="0 0 81 80" fill="none" xmlns="http://www.w3.org/2000/svg">
<path d="M39.3757 69.2998C39.5882 69.7248 40.0257 69.9998 40.5007 69.9998C40.9757 69.9998 41.4132 69.7248 41.6257 69.2998L59.4882 33.1873C63.3882 25.0248 62.1507 15.7498 56.3257 9.5623C52.0382 4.9998 46.4132 2.4873 40.5007 2.4873C34.5882 2.4873 28.9632 4.9998 24.6757 9.5623C18.8507 15.7498 17.6132 25.0248 21.5132 33.1873L39.3757 69.2998ZM26.4882 11.2873C30.3007 7.2373 35.2757 4.9998 40.5007 4.9998C45.7257 4.9998 50.6882 7.2373 54.5132 11.2873C59.6257 16.7123 60.6882 24.8873 57.2382 32.0998L40.5007 65.9248L23.7632 32.0998C20.3132 24.8748 21.3757 16.6998 26.4882 11.2748V11.2873Z" fill="black"/>
<path d="M53.2883 53.2127C53.2883 53.2127 53.1883 53.2127 53.1508 53.2127H53.1383V54.5127L53.0133 55.7002C67.7758 57.4002 75.5008 61.6752 75.5008 65.0127C75.5008 69.6627 61.9633 74.7752 41.7633 75.0002C41.3508 75.0002 40.9258 75.0002 40.5008 75.0002C40.0758 75.0002 39.6508 75.0002 39.2008 75.0002C19.0383 74.7752 5.50078 69.6627 5.50078 65.0127C5.50078 61.6752 13.2258 57.4127 27.9883 55.7002L27.8508 54.5127V53.2002C27.8508 53.2002 27.7508 53.2002 27.7008 53.2002C15.7508 54.5752 2.98828 58.4002 2.98828 64.9877C2.98828 72.8377 21.6258 77.2877 39.1508 77.4752C39.5883 77.4752 40.0383 77.4752 40.4883 77.4752C40.9383 77.4752 41.3883 77.4752 41.8133 77.4752C59.3508 77.2877 77.9883 72.8377 77.9883 64.9877C77.9883 58.3877 65.2258 54.5752 53.2758 53.2002L53.2883 53.2127ZM54.2508 23.7502C54.2508 24.1377 54.2508 24.5127 54.2008 24.8877L56.6883 25.1127C56.7258 24.6627 56.7383 24.2127 56.7383 23.7502C56.7383 23.2877 56.7258 22.8377 56.6883 22.3877L54.2008 22.6127C54.2383 22.9877 54.2508 23.3627 54.2508 23.7502Z" fill="black"/>
<path d="M40.5 40C47.925 40 54.3875 34.9875 56.2375 27.8125L53.8125 27.1875C52.25 33.2625 46.775 37.5 40.5 37.5C32.9125 37.5 26.75 31.3375 26.75 23.75C26.75 16.1625 32.9125 10 40.5 10C46.775 10 52.25 14.2375 53.8125 20.3125L56.2375 19.6875C54.4 12.5125 47.925 7.5 40.5 7.5C31.5375 7.5 24.25 14.7875 24.25 23.75C24.25 32.7125 31.5375 40 40.5 40Z" fill="black"/>
<path d="M35.0492 24.8748L33.4492 26.7998L38.4492 30.9623C38.6742 31.1498 38.9617 31.2498 39.2492 31.2498C39.3242 31.2498 39.3867 31.2498 39.4617 31.2373C39.8242 31.1748 40.1367 30.9623 40.3242 30.6498L47.8242 18.1498L45.6867 16.8623L38.9367 28.1123L35.0617 24.8748H35.0492Z" fill="black"/>
</svg>
