<svg width="81" height="80" viewBox="0 0 81 80" fill="none" xmlns="http://www.w3.org/2000/svg">
<path d="M40.5054 16.6694C38.142 16.6694 36.2197 18.5917 36.2197 20.9551C36.2197 23.3185 38.142 25.2408 40.5054 25.2408C42.8688 25.2408 44.7911 23.3185 44.7911 20.9551C44.7911 18.5917 42.8688 16.6694 40.5054 16.6694ZM40.5054 23.5265C39.0871 23.5265 37.934 22.3734 37.934 20.9551C37.934 19.5368 39.0871 18.3837 40.5054 18.3837C41.9237 18.3837 43.0768 19.5368 43.0768 20.9551C43.0768 22.3734 41.9226 23.5265 40.5054 23.5265ZM32.0837 61.8431H32.6734C33.1466 61.8431 33.5306 61.4591 33.5306 60.986C33.5306 60.5128 33.1466 60.1288 32.6734 60.1288H32.0837C31.6106 60.1288 31.2266 60.5128 31.2266 60.986C31.2266 61.4591 31.6106 61.8431 32.0837 61.8431ZM36.2471 61.8431H36.8368C37.31 61.8431 37.694 61.4591 37.694 60.986C37.694 60.5128 37.31 60.1288 36.8368 60.1288H36.2471C35.774 60.1288 35.39 60.5128 35.39 60.986C35.39 61.4591 35.774 61.8431 36.2471 61.8431ZM40.4106 61.8431H41.0003C41.4734 61.8431 41.8574 61.4591 41.8574 60.986C41.8574 60.5128 41.4734 60.1288 41.0003 60.1288H40.4106C39.9374 60.1288 39.5534 60.5128 39.5534 60.986C39.5534 61.4591 39.9374 61.8431 40.4106 61.8431ZM44.5728 61.8431H45.1626C45.6357 61.8431 46.0197 61.4591 46.0197 60.986C46.0197 60.5128 45.6357 60.1288 45.1626 60.1288H44.5728C44.0997 60.1288 43.7157 60.5128 43.7157 60.986C43.7157 61.4591 44.0997 61.8431 44.5728 61.8431ZM48.7363 61.8431H49.326C49.7991 61.8431 50.1831 61.4591 50.1831 60.986C50.1831 60.5128 49.7991 60.1288 49.326 60.1288H48.7363C48.2631 60.1288 47.8791 60.5128 47.8791 60.986C47.8791 61.4591 48.2631 61.8431 48.7363 61.8431ZM62.2357 20.5882C65.6368 20.5882 68.4026 17.8248 68.4026 14.426C68.4026 11.0271 65.6357 8.26367 62.2357 8.26367C58.838 8.26367 56.0734 11.0271 56.0734 14.426C56.0734 17.8248 58.838 20.5882 62.2357 20.5882ZM62.2357 9.97796C64.6906 9.97796 66.6883 11.9734 66.6883 14.426C66.6883 16.8785 64.6906 18.874 62.2357 18.874C59.7831 18.874 57.7877 16.8785 57.7877 14.426C57.7877 11.9734 59.7831 9.97796 62.2357 9.97796Z" fill="black"/>
<path d="M70.2367 40.4517C71.367 40.4517 72.2869 39.5317 72.2869 38.4014V34.7088H75.5921C76.5875 34.7088 77.3978 33.8985 77.3978 32.9031V28.2631C77.3978 27.6597 77.1144 27.1157 76.6207 26.7705C76.6172 26.7694 76.6149 26.7671 76.6127 26.7659L69.5589 21.9659C71.5315 20.0528 72.7624 17.3831 72.7624 14.4265C72.7624 8.62766 68.0401 3.9088 62.2355 3.9088C57.8698 3.9088 54.1189 6.58309 52.5304 10.3785L41.5418 2.90194C40.9212 2.45851 40.0881 2.45966 39.4869 2.89051L4.39323 26.7705C3.89837 27.1145 3.61494 27.6585 3.61494 28.2631V32.9031C3.61494 33.8985 4.42523 34.7088 5.42066 34.7088H8.7258V38.4025C8.7258 39.5328 9.6458 40.4528 10.7749 40.4528H11.1498V62.0722H10.7749C9.64466 62.0722 8.7258 62.9922 8.7258 64.1214V67.8162H5.60009C4.49952 67.8162 3.60352 68.7122 3.60352 69.8128V75.4357C3.60352 76.5362 4.49952 77.4322 5.60009 77.4322H75.4012C76.5018 77.4322 77.3967 76.5362 77.3967 75.4357V69.8128C77.3967 68.7122 76.5018 67.8162 75.4012 67.8162H72.2858V64.1214C72.2858 62.9911 71.3658 62.0722 70.2355 62.0722H69.8607V40.4517H70.2367ZM62.2344 5.62309C67.0938 5.62309 71.047 9.5728 71.047 14.4265C71.047 19.2802 67.0938 23.2299 62.2344 23.2299C57.3807 23.2299 53.4309 19.2802 53.4309 14.4265C53.4309 9.5728 57.3807 5.62309 62.2344 5.62309ZM62.2344 24.9442C62.2515 24.9442 62.2687 24.9408 62.2858 24.9408L66.0595 27.5111L66.5098 27.8151C66.5395 27.8357 66.6287 27.8974 66.5864 28.0311C66.5464 28.1602 66.4412 28.1602 66.4012 28.1602H14.6069C14.5669 28.1602 14.4629 28.1602 14.4218 28.0311C14.3795 27.8962 14.4698 27.8357 14.4949 27.8174L40.3818 10.1911C40.4241 10.1637 40.4675 10.1499 40.5098 10.1499C40.5487 10.1499 40.5852 10.1614 40.6184 10.1819L52.4424 18.2345C53.9727 22.1545 57.7795 24.9442 62.2344 24.9442ZM5.42066 32.9945C5.36923 32.9945 5.32923 32.9545 5.32923 32.9031L5.3658 28.1831L40.5612 4.3088L51.9898 12.0848C51.8172 12.8391 51.7178 13.6208 51.7178 14.4265C51.7178 14.8677 51.7544 15.2997 51.8069 15.7271L41.5715 8.7568C40.9235 8.3328 40.0904 8.33166 39.4298 8.7648L13.5281 26.4025C12.8355 26.8802 12.5384 27.7385 12.7875 28.5397C13.0401 29.3499 13.7555 29.8734 14.6092 29.8734H66.4035C67.2584 29.8734 67.9727 29.3499 68.2252 28.5397C68.4744 27.7385 68.1772 26.8791 67.4778 26.3968L64.8252 24.5899C66.0367 24.2802 67.1738 23.7865 68.1772 23.0985L75.6641 28.2208L75.6824 32.9008C75.6824 32.9522 75.6435 32.9922 75.591 32.9922C61.3441 32.9934 23.2938 32.9922 5.42066 32.9945ZM20.3921 62.0711H20.0172V40.4517H20.3921C21.5224 40.4517 22.4424 39.5317 22.4424 38.4014V34.7088H58.5704V38.4025C58.5704 39.5328 59.4904 40.4528 60.6195 40.4528H60.9944V62.0722H60.6195C59.4892 62.0722 58.5704 62.9922 58.5704 64.1214V67.8162H22.4412V64.1214C22.4412 62.9911 21.5224 62.0711 20.3921 62.0711ZM10.7749 38.7374C10.5898 38.7374 10.4401 38.5865 10.4401 38.4014V34.7088H20.7281V38.4025C20.7281 38.5877 20.5772 38.7385 20.3921 38.7385C20.1841 38.7374 10.6595 38.7374 10.7749 38.7374ZM18.3029 40.4517V62.0711H12.8641V40.4517H18.3029ZM10.4401 64.1214C10.4401 63.9362 10.5909 63.7865 10.7749 63.7865C14.6927 63.7865 17.2081 63.7865 20.3921 63.7865C20.5772 63.7865 20.7281 63.9374 20.7281 64.1214V67.8162H10.4401V64.1214ZM75.4012 69.5305C75.5567 69.5305 75.6824 69.6574 75.6824 69.8128V75.4357C75.6824 75.5911 75.5567 75.7179 75.4012 75.7179H5.60009C5.44466 75.7179 5.3178 75.5911 5.3178 75.4357V69.8128C5.3178 69.6574 5.44466 69.5305 5.60009 69.5305C17.3487 69.5305 42.9612 69.5305 75.4012 69.5305ZM70.2367 63.7854C70.4218 63.7854 70.5727 63.9362 70.5727 64.1202V67.8151H60.2847V64.1202C60.2847 63.9351 60.4355 63.7854 60.6195 63.7854C60.7681 63.7854 69.503 63.7854 69.0047 63.7854H70.2367ZM62.7087 62.0711V40.4517H68.1475V62.0711H62.7087ZM60.6195 38.7374C60.4344 38.7374 60.2847 38.5865 60.2847 38.4014V34.7088H70.5727V38.4025C70.5727 38.5877 70.4218 38.7385 70.2367 38.7385C70.0287 38.7374 60.5041 38.7374 60.6195 38.7374Z" fill="black"/>
<path d="M40.5062 55.1005C45.3142 55.1005 49.2033 51.1496 49.2033 46.4022C49.2033 41.6068 45.3016 37.705 40.5062 37.705C35.7096 37.705 31.8079 41.6068 31.8079 46.4022C31.8079 51.1622 35.7108 55.1005 40.5062 55.1005ZM40.5062 53.3862C38.5256 53.3862 36.6388 52.5267 35.3256 51.0662C36.6376 49.6056 38.5256 48.7462 40.5062 48.7462C42.4868 48.7462 44.3748 49.6068 45.6856 51.0662C44.3748 52.5256 42.4868 53.3862 40.5062 53.3862ZM38.5119 45.0376C38.5119 43.9382 39.4068 43.0433 40.5062 43.0433C41.6056 43.0433 42.5005 43.9382 42.5005 45.0376C42.5005 45.465 42.3645 45.8753 42.1062 46.2239C41.3576 47.2353 39.6525 47.2353 38.9062 46.2239C38.6479 45.8753 38.5119 45.465 38.5119 45.0376ZM33.5222 46.4022C33.5222 42.5519 36.6548 39.4193 40.5062 39.4193C44.3565 39.4193 47.489 42.5519 47.489 46.4022C47.489 47.5382 47.2136 48.6376 46.6879 49.633C45.7233 48.6548 44.5428 47.9245 43.2502 47.4913C43.3268 47.4067 43.4159 47.3348 43.4845 47.2422C43.9622 46.5965 44.2148 45.8342 44.2148 45.0365C44.2148 42.9908 42.5508 41.3279 40.5062 41.3279C38.4605 41.3279 36.7976 42.9919 36.7976 45.0365C36.7976 45.8342 37.0502 46.5965 37.5279 47.241C37.5965 47.3336 37.6856 47.4045 37.7622 47.4902C36.4696 47.9233 35.2879 48.6536 34.3233 49.6319C33.7988 48.6376 33.5222 47.5382 33.5222 46.4022ZM29.4639 64.8262H51.9473C52.969 64.8262 53.7999 63.9953 53.7999 62.9736V59.001C53.7999 57.9793 52.969 57.1485 51.9473 57.1485H29.4639C28.4422 57.1485 27.6113 57.9793 27.6113 59.001V62.9736C27.6113 63.9953 28.4422 64.8262 29.4639 64.8262ZM29.3256 58.9999C29.3256 58.9233 29.3873 58.8616 29.4639 58.8616H51.9473C52.0228 58.8616 52.0856 58.9233 52.0856 58.9999V62.9725C52.0856 63.049 52.0239 63.1107 51.9473 63.1107H29.4639C29.3873 63.1107 29.3256 63.049 29.3256 62.9725V58.9999ZM60.9439 15.865C61.113 16.057 61.3496 16.1553 61.5873 16.1553C61.7759 16.1553 61.9645 16.0936 62.1222 15.9668L64.3039 14.2216C64.673 13.9256 64.7325 13.3873 64.4376 13.017C64.1428 12.649 63.6033 12.5885 63.233 12.8833L61.6902 14.1176L61.3519 13.7336C61.0399 13.3782 60.4982 13.3428 60.1416 13.657C59.7862 13.969 59.7519 14.5119 60.065 14.8673L60.9439 15.865Z" fill="black"/>
</svg>
