<svg width="81" height="80" viewBox="0 0 81 80" fill="none" xmlns="http://www.w3.org/2000/svg">
<path d="M54.6413 27.6262C54.7574 27.5101 54.8495 27.3724 54.9123 27.2207C54.9752 27.0691 55.0075 26.9065 55.0075 26.7424C55.0075 26.5782 54.9752 26.4157 54.9123 26.2641C54.8495 26.1124 54.7574 25.9746 54.6413 25.8586C50.8759 22.1357 45.7944 20.0478 40.4994 20.0479C35.2043 20.0479 30.1229 22.1359 26.3576 25.8588C26.1304 26.0947 26.0048 26.4103 26.0079 26.7378C26.0109 27.0653 26.1424 27.3785 26.374 27.61C26.6056 27.8416 26.9188 27.973 27.2463 27.976C27.5738 27.979 27.8894 27.8534 28.1252 27.6261C31.4204 24.3694 35.8666 22.543 40.4995 22.543C45.1325 22.5431 49.5786 24.3696 52.8737 27.6264C52.9898 27.7424 53.1276 27.8345 53.2792 27.8973C53.4309 27.9601 53.5934 27.9924 53.7575 27.9924C53.9217 27.9924 54.0842 27.96 54.2358 27.8972C54.3875 27.8344 54.5252 27.7423 54.6413 27.6262Z" fill="black"/>
<path d="M70.8112 22.5004C52.507 -8.18591 6.05685 4.13321 5.5 40.0007C5.64355 72.2062 45.7106 87.3824 67.037 62.801C67.2456 62.5484 67.3467 62.224 67.3186 61.8975C67.2905 61.5711 67.1353 61.2688 66.8865 61.0556C66.6377 60.8424 66.3152 60.7353 65.9883 60.7575C65.6614 60.7797 65.3563 60.9293 65.1386 61.1742C61.8273 65.0342 57.6554 68.0622 52.9592 70.0142C48.263 71.9661 43.1738 72.7874 38.102 72.4118C33.0302 72.0361 28.1176 70.4741 23.7602 67.8516C19.4027 65.2292 15.7224 61.6196 13.0159 57.3139L16.3417 55.3935C17.1559 54.9184 17.762 54.1548 18.0401 53.2541C18.3181 52.3533 18.2478 51.381 17.8431 50.5296C16.4686 47.6192 15.6836 44.4656 15.5335 41.2504H35.6775C35.9817 42.4262 36.7042 43.4508 37.7096 44.1321C38.715 44.8134 39.9344 45.1046 41.1392 44.9513C42.344 44.798 43.4515 44.2106 44.2543 43.2992C45.0571 42.3878 45.4999 41.215 45.4999 40.0005C45.4999 38.786 45.0571 37.6131 44.2543 36.7017C43.4515 35.7904 42.344 35.203 41.1392 35.0497C39.9344 34.8964 38.715 35.1876 37.7096 35.8689C36.7042 36.5502 35.9817 37.5747 35.6775 38.7506L15.5442 38.7504C15.6322 36.7965 15.9566 34.8604 16.5101 32.9844C16.5582 32.8269 16.5746 32.6615 16.5585 32.4976C16.5425 32.3337 16.4941 32.1746 16.4164 32.0294C16.3386 31.8842 16.2329 31.7558 16.1054 31.6516C15.9779 31.5474 15.831 31.4695 15.6733 31.4222C15.5155 31.3749 15.35 31.3593 15.1862 31.3762C15.0224 31.393 14.8635 31.4421 14.7187 31.5206C14.5739 31.5991 14.4461 31.7054 14.3425 31.8334C14.2389 31.9614 14.1616 32.1087 14.1151 32.2667C13.4932 34.3757 13.1335 36.5534 13.0443 38.7504H10.5C10.1718 38.7555 9.85883 38.8895 9.62857 39.1233C9.3983 39.3572 9.26924 39.6723 9.26925 40.0005C9.26926 40.3287 9.39834 40.6437 9.62862 40.8776C9.8589 41.1114 10.1719 41.2453 10.5001 41.2504H13.0335C13.1835 44.8318 14.049 48.3469 15.5787 51.5886C15.7169 51.8741 15.7431 52.2011 15.6521 52.505C15.5612 52.8089 15.3597 53.0677 15.0874 53.2304L11.7604 55.1516C9.31439 50.4761 8.03676 45.2779 8.03666 40.0013C8.03656 34.7246 9.31401 29.5264 11.7598 24.8508L17.1419 27.9582C17.2919 28.0425 17.4576 28.0952 17.6288 28.1132C17.8 28.1312 17.973 28.114 18.1373 28.0628C18.4322 27.9602 18.6849 27.7632 18.8563 27.5022C21.1645 23.5236 24.5223 20.2563 28.5625 18.0578C32.6027 15.8592 37.1698 14.814 41.7641 15.0365C59.063 15.6143 70.7919 34.9452 63.1699 50.5151C62.7567 51.3669 62.6809 52.3434 62.9578 53.2487C63.2347 54.1539 63.8437 54.921 64.6626 55.3959L69.0998 57.9582C69.3885 58.1186 69.7282 58.1603 70.0471 58.0745C70.3659 57.9888 70.6389 57.7822 70.8081 57.4987C73.8586 52.1712 75.4637 46.139 75.4643 40C75.4648 33.861 73.8608 27.8284 70.8112 22.5004ZM40.5 37.5004C41.1568 37.51 41.7834 37.7775 42.2445 38.2454C42.7055 38.7132 42.964 39.3436 42.964 40.0005C42.964 40.6573 42.7055 41.2878 42.2444 41.7556C41.7833 42.2234 41.1567 42.4909 40.4999 42.5004C39.8431 42.4909 39.2165 42.2233 38.7554 41.7555C38.2944 41.2877 38.0359 40.6572 38.0359 40.0004C38.0359 39.3435 38.2944 38.7131 38.7555 38.2453C39.2166 37.7775 39.8432 37.5099 40.5 37.5004ZM20.6221 21.0228C19.3995 22.3034 18.3034 23.6992 17.3493 25.1907L13.015 22.6884C15.8284 18.2216 19.6875 14.5072 24.2585 11.8665C28.8296 9.22575 33.975 7.73807 39.25 7.53209V12.5412C32.1796 12.8618 25.5061 15.9003 20.6221 21.0228ZM41.8873 12.5395C41.8415 12.5372 41.7958 12.5384 41.75 12.5364V7.53209C47.025 7.73807 52.1704 9.22575 56.7415 11.8665C61.3125 14.5072 65.1716 18.2216 67.985 22.6884L63.6181 25.2095C61.2635 21.5227 58.064 18.4502 54.2848 16.2467C50.5057 14.0433 46.2557 12.7724 41.8873 12.5395ZM71.1702 50.7621C70.6314 52.2686 69.9795 53.7321 69.22 55.1402L65.9169 53.2328C65.642 53.0694 65.4393 52.808 65.3494 52.501C65.2596 52.1941 65.2894 51.8646 65.4329 51.5788C67.2031 47.7713 68.0737 43.6075 67.9771 39.4097C67.8805 35.2119 66.8194 31.0926 64.8758 27.3706L69.2404 24.8508C71.3189 28.8076 72.5627 33.149 72.8946 37.6062C73.2266 42.0633 72.6396 46.5411 71.1702 50.7621Z" fill="black"/>
<path d="M49.25 49.7656H31.75C30.7558 49.7667 29.8026 50.1621 29.0995 50.8652C28.3965 51.5682 28.0011 52.5214 28 53.5156V63.9844C28.0011 64.9786 28.3965 65.9318 29.0995 66.6348C29.8026 67.3379 30.7558 67.7333 31.75 67.7344H49.25C50.2442 67.7333 51.1974 67.3379 51.9005 66.6348C52.6035 65.9318 52.9989 64.9786 53 63.9844V53.5156C52.9989 52.5214 52.6035 51.5682 51.9005 50.8652C51.1974 50.1621 50.2442 49.7667 49.25 49.7656ZM31.75 52.2656H49.25C49.5814 52.2661 49.8991 52.3979 50.1334 52.6322C50.3677 52.8665 50.4996 53.1842 50.5 53.5156V55.3906H30.5C30.5697 54.2929 30.0723 52.3346 31.75 52.2656ZM49.25 65.2344H31.75C31.4186 65.2339 31.1009 65.1021 30.8666 64.8678C30.6323 64.6335 30.5004 64.3158 30.5 63.9844V57.8906H50.5V63.9844C50.4996 64.3158 50.3677 64.6335 50.1334 64.8678C49.8991 65.1021 49.5814 65.2339 49.25 65.2344Z" fill="black"/>
<path d="M46.1243 60.3125H44.718C44.3907 60.3189 44.079 60.4534 43.8498 60.6871C43.6206 60.9209 43.4922 61.2352 43.4922 61.5625C43.4922 61.8899 43.6206 62.2042 43.8498 62.4379C44.0791 62.6716 44.3908 62.8061 44.7181 62.8125H46.1243C46.4516 62.8061 46.7633 62.6716 46.9925 62.4379C47.2217 62.2042 47.3501 61.8899 47.3501 61.5625C47.3501 61.2351 47.2217 60.9208 46.9925 60.6871C46.7633 60.4534 46.4516 60.3189 46.1243 60.3125Z" fill="black"/>
</svg>
