<svg width="81" height="80" viewBox="0 0 81 80" fill="none" xmlns="http://www.w3.org/2000/svg">
<path d="M79.4085 36.7271L68.4994 25.8181C68.3782 25.6968 68.257 25.6968 68.1358 25.5756H68.0146C67.8933 25.5756 67.7721 25.5756 67.6509 25.4544H45.2267C45.3479 24.6059 45.3479 23.6362 44.9843 21.6968C46.3176 11.6362 42.4388 5.57563 42.3176 5.33321C39.6509 0.605934 32.3782 0.363509 27.0449 0.848358C18.6812 1.57563 15.0449 6.06048 14.8024 12.4847C14.6812 17.5756 14.4388 23.8787 14.56 24.6059C14.9237 30.0605 18.3176 34.909 22.1964 37.9393C21.8327 40.7271 23.2873 44.6059 19.8933 46.4241C10.56 51.3938 6.68123 49.0908 3.16607 54.3029C1.83274 56.1211 1.22668 58.4241 1.10547 60.8484C1.10547 61.5756 1.59032 62.0605 2.31759 62.0605H34.4388V78.1817C34.4388 78.909 34.9237 79.3938 35.6509 79.3938H78.6812C79.4085 79.3938 79.8933 78.909 79.8933 78.1817V37.6968C79.8933 37.212 79.6509 36.9696 79.4085 36.7271ZM75.7721 36.4847H68.863V29.5756L75.7721 36.4847ZM27.2873 3.15139C31.5297 2.78775 38.0752 2.78775 40.257 6.54533C40.257 6.54533 42.6812 10.4241 42.8024 16.8484C39.8933 13.4544 35.0449 12.2423 33.8327 11.9999H33.7115C32.863 11.8787 32.257 12.3635 32.257 13.212C32.257 13.8181 32.6206 14.3029 33.2267 14.4241C33.5903 14.6665 33.954 15.7574 34.3176 16.9696C31.6509 15.515 28.3782 14.5453 27.5297 14.3029C27.0449 14.1817 26.56 14.3029 26.3176 14.6665C25.7115 15.3938 26.3176 15.8787 26.56 17.212C24.863 15.9999 22.6812 15.0302 20.7418 14.3029C19.5297 13.8181 18.1964 14.1817 17.2267 15.0302C17.2267 14.3029 17.2267 13.4544 17.3479 12.6059C17.4691 6.42411 21.2267 3.75745 27.2873 3.15139ZM16.9843 24.3635C16.7418 20.3635 17.4691 18.6665 18.8024 16.7271C19.0449 16.3635 19.4085 16.2423 19.8933 16.3635C23.6509 17.6968 26.1964 19.3938 26.8024 20.7271C27.2873 21.9393 28.9843 21.5756 29.1055 20.2423C29.1055 19.9999 29.2267 18.5453 28.9843 16.9696C31.6509 17.9393 34.6812 19.2726 35.4085 20.6059V20.8484C36.1358 22.0605 37.8327 21.212 37.5903 19.9999C37.3479 18.6665 36.9843 16.8484 36.3782 15.2726C41.2267 17.212 42.8024 20.1211 42.8024 24.3635C42.8024 31.8787 34.0752 38.6665 29.8327 38.6665C25.3479 38.7878 17.4691 31.9999 16.9843 24.3635ZM5.10547 55.6362C8.01456 51.3938 10.9236 53.9393 20.9843 48.6059C25.7115 46.0605 24.257 40.9696 24.4994 39.6362C28.3782 41.8181 31.0449 41.8181 34.8024 39.7574C35.0449 40.9696 33.7115 46.1817 38.3176 48.6059C40.9843 50.0605 44.9843 51.8787 48.7418 52.4847C52.7418 53.0908 55.1661 55.7574 55.7721 59.7574H3.65092C3.77214 58.1817 4.25698 56.8484 5.10547 55.6362ZM77.4691 76.9696H36.863V62.0605H57.2267C57.954 62.0605 58.4388 61.4544 58.4388 60.8484C58.3176 55.1514 55.0449 50.909 49.3479 50.0605C45.8327 49.4544 42.1964 47.7574 39.6509 46.4241C36.257 44.6059 37.7115 40.8484 37.3479 38.1817C40.6206 35.7574 43.6509 31.9999 44.7418 27.8787H66.3176V37.6968C66.3176 38.4241 66.8024 38.909 67.5297 38.909H77.3479V76.9696H77.4691Z" fill="black"/>
<path d="M62.3175 37.6965C62.3175 36.9692 61.8326 36.4844 61.1054 36.4844H46.9235C46.1963 36.4844 45.7114 36.9692 45.7114 37.6965C45.7114 38.4238 46.1963 38.9086 46.9235 38.9086H61.1054C61.7114 38.9086 62.3175 38.3026 62.3175 37.6965ZM57.1054 48.1207C57.1054 48.848 57.5902 49.3329 58.3175 49.3329H71.772C72.4993 49.3329 72.9841 48.848 72.9841 48.1207C72.9841 47.3935 72.4993 46.9086 71.772 46.9086H58.3175C57.7114 46.9086 57.1054 47.3935 57.1054 48.1207ZM71.772 59.7571C72.4993 59.7571 72.9841 59.2723 72.9841 58.545C72.9841 57.8177 72.4993 57.3329 71.772 57.3329H63.5296C62.8023 57.3329 62.3175 57.8177 62.3175 58.545C62.3175 59.2723 62.8023 59.7571 63.5296 59.7571H71.772ZM71.8932 67.7571H42.4387C41.7114 67.7571 41.2266 68.242 41.2266 68.9692C41.2266 69.6965 41.7114 70.1813 42.4387 70.1813H72.0144C72.7417 70.1813 73.2266 69.6965 73.2266 68.9692C73.2266 68.242 72.6205 67.7571 71.8932 67.7571Z" fill="black"/>
</svg>
