<svg width="81" height="80" viewBox="0 0 81 80" fill="none" xmlns="http://www.w3.org/2000/svg">
<path d="M25.8625 35.8877C26.1 36.1127 26.4125 36.2502 26.75 36.2502C27.075 36.2502 27.4 36.1127 27.6375 35.8877C27.75 35.7627 27.8375 35.6252 27.9 35.4752C27.9625 35.3252 28 35.1627 28 35.0002C27.998 34.8368 27.9641 34.6755 27.9 34.5252C27.8375 34.3752 27.75 34.2377 27.6375 34.1127C27.5125 34.0002 27.3875 33.9127 27.225 33.8502C26.9968 33.7577 26.7467 33.7333 26.5049 33.7799C26.2631 33.8264 26.04 33.942 25.8625 34.1127C25.75 34.2377 25.6625 34.3752 25.6 34.5252C25.5359 34.6755 25.502 34.8368 25.5 35.0002C25.5 35.1627 25.5375 35.3252 25.6 35.4752C25.6625 35.6252 25.75 35.7627 25.8625 35.8877Z" fill="black"/>
<path d="M29.4401 52.2976C37.8826 50.9976 44.25 43.5601 44.25 35.0001C44.25 34.4526 44.225 33.9088 44.175 33.3701C44.0294 31.7664 43.6569 30.1916 43.0688 28.6926V28.6901L43.0663 28.6851C42.9876 28.4801 42.8926 28.2813 42.8063 28.0801C42.715 27.8663 42.6313 27.6501 42.5326 27.4413C41.9516 26.2194 41.2255 25.072 40.3701 24.0238C40.3675 24.0201 40.365 24.0201 40.3625 24.0176C38.7304 21.9768 36.6585 20.3308 34.3016 19.2023C31.9446 18.0738 29.3632 17.4919 26.75 17.5001C21.4138 17.5001 16.4475 19.8801 13.13 24.0226C11.9887 25.4209 11.0792 26.9934 10.4363 28.6801V28.6838L10.4313 28.6926V28.6963C9.64561 30.7049 9.24489 32.8433 9.25005 35.0001C9.25005 43.5613 15.6175 50.9976 24.06 52.2976C24.93 52.4326 25.835 52.5001 26.75 52.5001C27.665 52.5001 28.5701 52.4326 29.4401 52.2976ZM25.5463 49.9526L25.5 49.9476V41.1226C25.545 41.1313 25.5926 41.1276 25.6376 41.1351C26.0063 41.2038 26.3763 41.2501 26.75 41.2501C27.1238 41.2501 27.4938 41.2038 27.8625 41.1363C27.9075 41.1276 27.955 41.1313 28 41.1213V49.9463L27.9538 49.9526C27.4792 49.9872 27.0033 50.0001 26.5275 49.9913C26.2001 49.9887 25.8729 49.9758 25.5463 49.9526ZM20.8813 32.8926C20.865 32.9376 20.8388 32.9763 20.8238 33.0213L13.185 28.6088C13.1925 28.5926 13.1975 28.5751 13.2063 28.5588C13.3638 28.2263 13.5338 27.9013 13.715 27.5826L13.7975 27.4376C13.9863 27.1151 14.1875 26.8001 14.4 26.4926L14.4325 26.4488L22.0725 30.8613C22.0425 30.8951 22.0225 30.9363 21.9925 30.9713C21.7485 31.2534 21.5301 31.5567 21.34 31.8776L21.3388 31.8801C21.1525 32.2013 21.0075 32.5426 20.8813 32.8926ZM23.1313 34.0238C23.3899 33.0682 24.0164 32.2538 24.8738 31.7588C25.4432 31.4257 26.091 31.2501 26.7507 31.2501C27.4104 31.2501 28.0582 31.4257 28.6276 31.7588C29.7826 32.4226 30.5 33.6651 30.5 35.0001C30.5 36.3351 29.7825 37.5776 28.6263 38.2413C28.0565 38.5734 27.4089 38.7483 26.7494 38.7483C26.09 38.7483 25.4423 38.5734 24.8725 38.2413C24.1582 37.8284 23.6001 37.1911 23.285 36.4285C22.97 35.6659 22.9167 34.8206 23.1313 34.0238ZM31.4276 30.8613L39.0663 26.4488L39.1 26.4938C39.3013 26.7838 39.4888 27.0813 39.6675 27.3851L39.7913 27.5951C39.9701 27.9101 40.1388 28.2301 40.2938 28.5576L40.315 28.6101L32.6776 33.0213C32.6613 32.9763 32.635 32.9376 32.6188 32.8938C32.3657 32.1913 31.9889 31.5398 31.5063 30.9701C31.4776 30.9351 31.4576 30.8963 31.4276 30.8613ZM30.5 49.5251V39.9888C31.1726 39.4832 31.7362 38.847 32.1571 38.1185C32.5781 37.39 32.8478 36.584 32.95 35.7488L41.2001 30.9838C41.5626 32.2776 41.75 33.6213 41.75 34.9988C41.75 41.8413 37.0063 47.8426 30.5 49.5251ZM26.75 20.0001C30.825 20.0001 34.6401 21.6276 37.4426 24.5001L29.1988 29.2626C28.4232 28.9382 27.5908 28.7711 26.75 28.7711C25.9093 28.7711 25.0769 28.9382 24.3013 29.2626L16.0563 24.5001C17.4462 23.0716 19.1091 21.9372 20.9462 21.1641C22.7833 20.3911 24.757 19.9952 26.75 20.0001ZM11.75 35.0001C11.75 33.6251 11.9375 32.2826 12.3 30.9851L20.55 35.7501C20.6523 36.5853 20.922 37.3912 21.343 38.1198C21.7639 38.8483 22.3275 39.4844 23 39.9901V49.5263C16.4938 47.8426 11.75 41.8426 11.75 35.0001Z" fill="black"/>
<path d="M75.5 2.5H28C27.6685 2.5 27.3505 2.6317 27.1161 2.86612C26.8817 3.10054 26.75 3.41848 26.75 3.75V12.5C14.3438 12.5 4.25 22.5938 4.25 35C4.25 47.4062 14.3438 57.5 26.75 57.5V76.25C26.75 76.5815 26.8817 76.8995 27.1161 77.1339C27.3505 77.3683 27.6685 77.5 28 77.5H75.5C75.8315 77.5 76.1495 77.3683 76.3839 77.1339C76.6183 76.8995 76.75 76.5815 76.75 76.25V3.75C76.75 3.41848 76.6183 3.10054 76.3839 2.86612C76.1495 2.6317 75.8315 2.5 75.5 2.5ZM6.75 35C6.75 23.9725 15.7225 15 26.75 15C37.7775 15 46.75 23.9725 46.75 35C46.75 46.0275 37.7775 55 26.75 55C15.7225 55 6.75 46.0275 6.75 35ZM74.25 75H29.25V57.3525C40.4825 56.1037 49.25 46.5625 49.25 35C49.25 23.4375 40.4825 13.8962 29.25 12.6475V5H74.25V75Z" fill="black"/>
<path d="M63 51.25C59.5538 51.25 56.75 54.0537 56.75 57.5C56.75 58.8325 57.2038 60.1175 58 61.1987V70C58 70.2263 58.0614 70.4484 58.1777 70.6425C58.2939 70.8367 58.4608 70.9956 58.6603 71.1023C58.8598 71.2091 59.0846 71.2597 59.3106 71.2487C59.5367 71.2377 59.7555 71.1656 59.9438 71.04L63 69.0025L66.0562 71.04C66.2443 71.1662 66.4632 71.2387 66.6894 71.2497C66.9156 71.2607 67.1406 71.2098 67.34 71.1025C67.5395 70.9957 67.7063 70.8367 67.8225 70.6425C67.9387 70.4484 68.0001 70.2263 68 70V61.1975C68.7962 60.12 69.25 58.8338 69.25 57.5C69.25 54.0537 66.4463 51.25 63 51.25ZM63 53.75C65.0675 53.75 66.75 55.4325 66.75 57.5C66.75 58.4025 66.415 59.2825 65.8113 59.975C65.0988 60.785 64.0738 61.25 63 61.25C61.9262 61.25 60.9012 60.785 60.1887 59.975C59.5874 59.2903 59.2539 58.4113 59.25 57.5C59.25 55.4325 60.9325 53.75 63 53.75ZM65.5 67.6637L63.6938 66.46C63.4883 66.3229 63.2469 66.2498 63 66.2498C62.7531 66.2498 62.5117 66.3229 62.3062 66.46L60.5 67.6637V63.2262C60.5175 63.2338 60.5375 63.235 60.5537 63.2425C61.3265 63.5754 62.1587 63.748 63 63.75C63.8488 63.75 64.6775 63.5713 65.4425 63.2438C65.4612 63.2363 65.4813 63.2338 65.5 63.2262V67.6637ZM50.5 20H68C68.3315 20 68.6495 19.8683 68.8839 19.6339C69.1183 19.3995 69.25 19.0815 69.25 18.75V11.25C69.25 10.9185 69.1183 10.6005 68.8839 10.3661C68.6495 10.1317 68.3315 10 68 10H50.5C50.1685 10 49.8505 10.1317 49.6161 10.3661C49.3817 10.6005 49.25 10.9185 49.25 11.25V18.75C49.25 19.0815 49.3817 19.3995 49.6161 19.6339C49.8505 19.8683 50.1685 20 50.5 20ZM51.75 12.5H66.75V17.5H51.75V12.5ZM68 27.5H58C57.6685 27.5 57.3505 27.6317 57.1161 27.8661C56.8817 28.1005 56.75 28.4185 56.75 28.75C56.75 29.0815 56.8817 29.3995 57.1161 29.6339C57.3505 29.8683 57.6685 30 58 30H68C68.3315 30 68.6495 29.8683 68.8839 29.6339C69.1183 29.3995 69.25 29.0815 69.25 28.75C69.25 28.4185 69.1183 28.1005 68.8839 27.8661C68.6495 27.6317 68.3315 27.5 68 27.5ZM68 35H58C57.6685 35 57.3505 35.1317 57.1161 35.3661C56.8817 35.6005 56.75 35.9185 56.75 36.25C56.75 36.5815 56.8817 36.8995 57.1161 37.1339C57.3505 37.3683 57.6685 37.5 58 37.5H68C68.3315 37.5 68.6495 37.3683 68.8839 37.1339C69.1183 36.8995 69.25 36.5815 69.25 36.25C69.25 35.9185 69.1183 35.6005 68.8839 35.3661C68.6495 35.1317 68.3315 35 68 35ZM68 42.5H58C57.6685 42.5 57.3505 42.6317 57.1161 42.8661C56.8817 43.1005 56.75 43.4185 56.75 43.75C56.75 44.0815 56.8817 44.3995 57.1161 44.6339C57.3505 44.8683 57.6685 45 58 45H68C68.3315 45 68.6495 44.8683 68.8839 44.6339C69.1183 44.3995 69.25 44.0815 69.25 43.75C69.25 43.4185 69.1183 43.1005 68.8839 42.8661C68.6495 42.6317 68.3315 42.5 68 42.5Z" fill="black"/>
</svg>
