<svg width="81" height="80" viewBox="0 0 81 80" fill="none" xmlns="http://www.w3.org/2000/svg">
<g clip-path="url(#clip0_272_167)">
<path d="M21.5549 64.707H4.24161C3.31161 64.707 2.99995 64.707 2.99995 63.022V59.0137C2.99995 58.6821 2.86825 58.3642 2.63383 58.1298C2.39941 57.8954 2.08147 57.7637 1.74995 57.7637C1.41843 57.7637 1.10048 57.8954 0.866064 58.1298C0.631644 58.3642 0.499947 58.6821 0.499947 59.0137V63.022C0.405731 63.5543 0.433641 64.1011 0.581573 64.6211C0.729504 65.141 0.993592 65.6206 1.35391 66.0236C1.71424 66.4267 2.16138 66.7426 2.66161 66.9476C3.16184 67.1526 3.7021 67.2413 4.24161 67.207H21.5549C21.8865 67.207 22.2044 67.0753 22.4388 66.8409C22.6733 66.6065 22.8049 66.2885 22.8049 65.957C22.8049 65.6255 22.6733 65.3075 22.4388 65.0731C22.2044 64.8387 21.8865 64.707 21.5549 64.707ZM1.74995 55.0787C2.08147 55.0787 2.39941 54.947 2.63383 54.7125C2.86825 54.4781 2.99995 54.1602 2.99995 53.8287V12.5087L40.8333 12.5737V33.4153C40.8333 33.7468 40.965 34.0648 41.1994 34.2992C41.4338 34.5336 41.7518 34.6653 42.0833 34.6653C42.4148 34.6653 42.7327 34.5336 42.9672 34.2992C43.2016 34.0648 43.3333 33.7468 43.3333 33.4153V12.5737C43.3395 11.8976 43.077 11.2468 42.6035 10.7643C42.13 10.2817 41.4843 10.0069 40.8083 10.0003H4.05995L9.77661 5.16699H46.1099C46.6404 5.16699 47.1491 5.37771 47.5242 5.75278C47.8992 6.12785 48.1099 6.63656 48.1099 7.16699V32.5337C48.1099 32.8652 48.2416 33.1831 48.4761 33.4175C48.7105 33.652 49.0284 33.7837 49.3599 33.7837C49.6915 33.7837 50.0094 33.652 50.2438 33.4175C50.4783 33.1831 50.6099 32.8652 50.6099 32.5337V7.16699C50.6099 5.97352 50.1358 4.82893 49.2919 3.98501C48.448 3.1411 47.3034 2.66699 46.1099 2.66699H9.31995C9.02463 2.66681 8.73881 2.77134 8.51328 2.96199L1.08828 9.25199C0.912748 9.43202 0.77554 9.64577 0.684948 9.88033C0.568906 10.0667 0.505017 10.2808 0.499947 10.5003V53.8337C0.50127 54.1643 0.63355 54.481 0.867827 54.7143C1.1021 54.9477 1.41929 55.0787 1.74995 55.0787Z" fill="#1A1A1A"/>
<path d="M45.7362 32.9682C46.0678 32.9682 46.3857 32.8365 46.6201 32.6021C46.8546 32.3677 46.9862 32.0497 46.9862 31.7182V10.0665C46.9849 9.08193 46.5937 8.13793 45.8981 7.44109C45.2025 6.74424 44.2592 6.35129 43.2746 6.3482L12.0312 6.2832C11.6997 6.2832 11.3818 6.4149 11.1474 6.64932C10.9129 6.88374 10.7812 7.20168 10.7812 7.5332C10.7812 7.86472 10.9129 8.18267 11.1474 8.41709C11.3818 8.65151 11.6997 8.7832 12.0312 8.7832L43.2762 8.8482C43.5989 8.84908 43.9081 8.97778 44.1362 9.20612C44.3642 9.43446 44.4925 9.74384 44.4929 10.0665V31.7182C44.4929 32.0486 44.6237 32.3655 44.8567 32.5997C45.0897 32.834 45.4059 32.9664 45.7362 32.9682ZM62.9529 56.7649C62.6214 56.7649 62.3035 56.8966 62.069 57.131C61.8346 57.3654 61.7029 57.6833 61.7029 58.0149V68.4082C61.7052 68.6522 61.648 68.893 61.5363 69.1099C60.8329 70.4515 57.4996 74.8332 44.1662 74.8332C30.8329 74.8332 27.4996 70.4565 26.7879 69.1132C26.6764 68.8968 26.6192 68.6566 26.6212 68.4132V58.5449C26.6212 58.2133 26.4896 57.8954 26.2551 57.661C26.0207 57.4266 25.7028 57.2949 25.3712 57.2949C25.0397 57.2949 24.7218 57.4266 24.4874 57.661C24.2529 57.8954 24.1212 58.2133 24.1212 58.5449V68.4082C24.1178 69.0568 24.271 69.6966 24.5679 70.2732C25.6912 72.3949 29.8329 77.3332 44.1662 77.3332C58.4996 77.3332 62.6396 72.3999 63.7546 70.2799C64.0539 69.7034 64.2084 69.0627 64.2046 68.4132V58.0149C64.2046 57.8506 64.1722 57.6879 64.1093 57.5361C64.0463 57.3844 63.9541 57.2465 63.8379 57.1304C63.7216 57.0143 63.5836 56.9223 63.4318 56.8595C63.2799 56.7968 63.1172 56.7646 62.9529 56.7649Z" fill="#1A1A1A"/>
<path d="M79.6459 46.0655L46.5759 35.0188C46.3234 34.9338 46.0501 34.9338 45.7976 35.0188L8.54591 46.9621C8.29718 47.044 8.08038 47.2018 7.92604 47.4134C7.77171 47.6249 7.68761 47.8795 7.68558 48.1414C7.68356 48.4033 7.76371 48.6591 7.91476 48.8731C8.06581 49.087 8.28014 49.2481 8.52758 49.3338L43.3609 61.1071C43.4898 61.1507 43.6249 61.1732 43.7609 61.1738C43.9041 61.1736 44.0461 61.1488 44.1809 61.1005L69.7492 51.9705V57.9705C68.8874 58.2307 68.1318 58.7608 67.5938 59.4827C67.0559 60.2046 66.7639 61.0802 66.7609 61.9805V64.5005C66.7609 65.6179 67.2048 66.6896 67.995 67.4798C68.7851 68.2699 69.8568 68.7138 70.9742 68.7138C72.0917 68.7138 73.1634 68.2699 73.9535 67.4798C74.7437 66.6896 75.1876 65.6179 75.1876 64.5005V61.9771C75.1853 61.085 74.8994 60.2167 74.3712 59.4976C73.843 58.7786 73.0999 58.2461 72.2492 57.9771V51.0771L79.6676 48.4288C79.9126 48.3414 80.1243 48.1797 80.2731 47.9663C80.4219 47.7529 80.5003 47.4984 80.4976 47.2382C80.4948 46.9781 80.411 46.7253 80.2577 46.5151C80.1045 46.3048 79.8894 46.1477 79.6426 46.0655H79.6459ZM72.6809 64.5005C72.6809 64.9549 72.5004 65.3907 72.1791 65.712C71.8578 66.0333 71.422 66.2138 70.9676 66.2138C70.5132 66.2138 70.0774 66.0333 69.7561 65.712C69.4348 65.3907 69.2542 64.9549 69.2542 64.5005V61.9771C69.2542 61.7521 69.2986 61.5294 69.3847 61.3215C69.4708 61.1136 69.597 60.9247 69.7561 60.7656C69.9152 60.6065 70.104 60.4803 70.3119 60.3942C70.5198 60.3081 70.7426 60.2638 70.9676 60.2638C71.1926 60.2638 71.4154 60.3081 71.6232 60.3942C71.8311 60.4803 72.02 60.6065 72.1791 60.7656C72.3382 60.9247 72.4644 61.1136 72.5505 61.3215C72.6366 61.5294 72.6809 61.7521 72.6809 61.9771V64.5005ZM70.8209 48.9338L44.2992 46.0721C44.134 46.0504 43.966 46.0618 43.8053 46.1059C43.6445 46.15 43.4942 46.2258 43.3631 46.3288C43.2321 46.4319 43.123 46.5601 43.0422 46.7059C42.9615 46.8518 42.9107 47.0123 42.893 47.178C42.8752 47.3438 42.8907 47.5114 42.9387 47.6711C42.9866 47.8307 43.0661 47.9792 43.1722 48.1077C43.2784 48.2362 43.4092 48.3421 43.557 48.4193C43.7048 48.4965 43.8664 48.5434 44.0326 48.5571L65.4142 50.8638L43.7476 58.6038L12.9242 48.1838L46.1709 37.5171L75.4226 47.2888L70.8209 48.9338Z" fill="#1A1A1A"/>
</g>
<defs>
<clipPath id="clip0_272_167">
<rect width="80" height="80" fill="white" transform="translate(0.5)"/>
</clipPath>
</defs>
</svg>
