<svg width="81" height="80" viewBox="0 0 81 80" fill="none" xmlns="http://www.w3.org/2000/svg">
<g clip-path="url(#clip0_303_50)">
<path d="M30.1875 73.3359H50.8125C51.5999 73.3359 52.355 73.0232 52.9117 72.4664C53.4685 71.9097 53.7812 71.1545 53.7812 70.3672V55.7266C53.7812 54.9392 53.4685 54.1841 52.9117 53.6273C52.355 53.0706 51.5999 52.7578 50.8125 52.7578H47.9547V51.55C47.9539 50.7119 47.6206 49.9084 47.028 49.3158C46.4353 48.7232 45.6318 48.3899 44.7938 48.3891H36.2C35.3619 48.3899 34.5584 48.7232 33.9658 49.3158C33.3732 49.9084 33.0399 50.7119 33.0391 51.55V52.7578H30.1875C29.4001 52.7578 28.645 53.0706 28.0883 53.6273C27.5315 54.1841 27.2188 54.9392 27.2188 55.7266V70.3672C27.2188 71.1545 27.5315 71.9097 28.0883 72.4664C28.645 73.0232 29.4001 73.3359 30.1875 73.3359ZM35.3875 51.5438C35.3875 51.327 35.4736 51.1192 35.6268 50.9659C35.7801 50.8127 35.988 50.7266 36.2047 50.7266H44.7984C44.9058 50.7266 45.012 50.7477 45.1112 50.7888C45.2103 50.8298 45.3004 50.89 45.3763 50.9659C45.4522 51.0418 45.5124 51.1319 45.5534 51.231C45.5945 51.3302 45.6156 51.4364 45.6156 51.5438V52.7516H35.3891L35.3875 51.5438ZM29.5625 55.7234C29.5625 55.5577 29.6283 55.3987 29.7456 55.2815C29.8628 55.1643 30.0217 55.0984 30.1875 55.0984H50.8125C50.9783 55.0984 51.1372 55.1643 51.2544 55.2815C51.3717 55.3987 51.4375 55.5577 51.4375 55.7234V58.6719L43.7547 62.5C43.5496 62.183 43.2685 61.9222 42.9369 61.7416C42.6053 61.5609 42.2338 61.4661 41.8562 61.4656H39.1438C38.7662 61.4661 38.3947 61.5609 38.0631 61.7416C37.7315 61.9222 37.4504 62.183 37.2453 62.5L29.5625 58.6719V55.7234ZM41.7797 63.8156V66.3703H39.2219V63.8156H41.7797ZM29.5625 61.2906L36.8797 64.9422V66.4484C36.8805 67.0491 37.1195 67.6249 37.5442 68.0496C37.9689 68.4743 38.5447 68.7132 39.1453 68.7141H41.8578C42.4584 68.7132 43.0342 68.4743 43.4589 68.0496C43.8836 67.6249 44.1226 67.0491 44.1234 66.4484V64.9422L51.4375 61.2906V70.3641C51.4375 70.5298 51.3717 70.6888 51.2544 70.806C51.1372 70.9232 50.9783 70.9891 50.8125 70.9891H30.1875C30.0217 70.9891 29.8628 70.9232 29.7456 70.806C29.6283 70.6888 29.5625 70.5298 29.5625 70.3641V61.2906ZM78.0781 53.4375C78.7203 53.4371 79.3361 53.1818 79.7902 52.7277C80.2443 52.2736 80.4996 51.6578 80.5 51.0156V48.4734C80.4996 47.8312 80.2443 47.2155 79.7902 46.7614C79.3361 46.3073 78.7203 46.052 78.0781 46.0516H68.3125V44.0625H68.7031C69.3453 44.0621 69.9611 43.8068 70.4152 43.3527C70.8693 42.8986 71.1246 42.2828 71.125 41.6406V39.0984C71.1242 38.4564 70.8687 37.8408 70.4147 37.3868C69.9607 36.9328 69.3452 36.6774 68.7031 36.6766H62.7781V36.0219C62.7781 24.1312 53.4141 14.3859 41.6719 13.775V8.63437L49.6641 2.675C49.9141 2.48887 50.0991 2.22877 50.193 1.93157C50.2869 1.63437 50.2849 1.31515 50.1872 1.01917C50.0895 0.723192 49.9012 0.465469 49.6488 0.282541C49.3965 0.0996128 49.0929 0.000761072 48.7812 0L40.5 0C40.1892 0 39.8911 0.123465 39.6714 0.343234C39.4516 0.563003 39.3281 0.861074 39.3281 1.17188V13.775C27.5859 14.3859 18.2219 24.1312 18.2219 36.0219V36.6766H12.2969C11.6548 36.6774 11.0393 36.9328 10.5853 37.3868C10.1313 37.8408 9.87583 38.4564 9.875 39.0984V41.6406C9.87541 42.2828 10.1307 42.8986 10.5848 43.3527C11.0389 43.8068 11.6547 44.0621 12.2969 44.0625H12.6875V46.0516H2.92188C2.27981 46.0524 1.66427 46.3078 1.21026 46.7618C0.756254 47.2158 0.500827 47.8314 0.5 48.4734V51.0156C0.500414 51.6578 0.755708 52.2736 1.20981 52.7277C1.66391 53.1818 2.27968 53.4371 2.92188 53.4375H3.3125V77.6562H1.67188C1.36107 77.6562 1.063 77.7797 0.843234 77.9995C0.623465 78.2193 0.5 78.5173 0.5 78.8281C0.5 79.1389 0.623465 79.437 0.843234 79.6568C1.063 79.8765 1.36107 80 1.67188 80H79.3281C79.6389 80 79.937 79.8765 80.1568 79.6568C80.3765 79.437 80.5 79.1389 80.5 78.8281C80.5 78.5173 80.3765 78.2193 80.1568 77.9995C79.937 77.7797 79.6389 77.6562 79.3281 77.6562H77.6875V53.4375H78.0781ZM41.6719 2.34375H46.1875L41.6719 5.71094V2.34375ZM12.6875 77.6562H5.65625V53.4375H12.6875V77.6562ZM12.6875 51.0938H2.92188C2.90115 51.0938 2.88128 51.0855 2.86663 51.0709C2.85198 51.0562 2.84375 51.0363 2.84375 51.0156V48.4734C2.84375 48.4527 2.85198 48.4328 2.86663 48.4182C2.88128 48.4035 2.90115 48.3953 2.92188 48.3953H12.6875V51.0938ZM20.5656 36.0219C20.5656 33.4041 21.0812 30.8119 22.083 28.3933C23.0848 25.9748 24.5532 23.7772 26.4043 21.9261C28.2553 20.0751 30.4529 18.6067 32.8714 17.6049C35.29 16.6031 37.8822 16.0875 40.5 16.0875C43.1178 16.0875 45.71 16.6031 48.1286 17.6049C50.5471 18.6067 52.7447 20.0751 54.5957 21.9261C56.4468 23.7772 57.9152 25.9748 58.917 28.3933C59.9188 30.8119 60.4344 33.4041 60.4344 36.0219V36.6766H20.5656V36.0219ZM12.2969 41.7188C12.2762 41.7188 12.2563 41.7105 12.2416 41.6959C12.227 41.6812 12.2188 41.6613 12.2188 41.6406V39.0984C12.2188 39.0777 12.227 39.0578 12.2416 39.0432C12.2563 39.0285 12.2762 39.0203 12.2969 39.0203H68.7031C68.7238 39.0203 68.7437 39.0285 68.7584 39.0432C68.773 39.0578 68.7812 39.0777 68.7812 39.0984V41.6406C68.7812 41.6613 68.773 41.6812 68.7584 41.6959C68.7437 41.7105 68.7238 41.7188 68.7031 41.7188H12.2969ZM65.9688 77.6562H15.0312V44.0625H65.9688V77.6562ZM75.3438 77.6562H68.3125V53.4375H75.3438V77.6562ZM68.3125 51.0938V48.3953H78.0781C78.0987 48.3957 78.1184 48.4041 78.1329 48.4186C78.1475 48.4332 78.1559 48.4528 78.1562 48.4734V51.0156C78.1562 51.0363 78.148 51.0562 78.1334 51.0709C78.1187 51.0855 78.0988 51.0938 78.0781 51.0938H68.3125Z" fill="black"/>
</g>
<defs>
<clipPath id="clip0_303_50">
<rect width="80" height="80" fill="white" transform="translate(0.5)"/>
</clipPath>
</defs>
</svg>
