<svg width="81" height="80" viewBox="0 0 81 80" fill="none" xmlns="http://www.w3.org/2000/svg">
<g clip-path="url(#clip0_303_47)">
<path d="M37.9652 32.2779C37.6544 32.2779 37.3564 32.4014 37.1366 32.6211C36.9168 32.8409 36.7934 33.139 36.7934 33.4498V34.9998C36.7934 35.3106 36.9168 35.6086 37.1366 35.8284C37.3564 36.0482 37.6544 36.1716 37.9652 36.1716C38.276 36.1716 38.5741 36.0482 38.7939 35.8284C39.0136 35.6086 39.1371 35.3106 39.1371 34.9998V33.4545C39.1379 33.3001 39.1082 33.1471 39.0497 33.0043C38.9911 32.8615 38.9049 32.7317 38.796 32.6223C38.6871 32.513 38.5576 32.4262 38.415 32.3671C38.2724 32.308 38.1196 32.2777 37.9652 32.2779ZM34.9199 40.5013C34.2243 40.9581 33.4083 41.197 32.5762 41.1873C31.7921 41.1724 31.0284 40.9345 30.3746 40.5013C30.1152 40.3338 29.8001 40.2755 29.498 40.339C29.1958 40.4025 28.9308 40.5827 28.7608 40.8405C28.5907 41.0983 28.5293 41.4127 28.5898 41.7155C28.6503 42.0183 28.8279 42.285 29.084 42.4576C30.1077 43.1355 31.3033 43.5078 32.5309 43.531H32.6449C33.9132 43.5256 35.1528 43.1527 36.2137 42.4576C36.4697 42.285 36.6473 42.0183 36.7078 41.7155C36.7684 41.4127 36.7069 41.0983 36.5369 40.8405C36.3668 40.5827 36.1019 40.4025 35.7997 40.339C35.4975 40.2755 35.1825 40.3338 34.923 40.5013H34.9199ZM27.3215 32.2779C27.0107 32.2779 26.7126 32.4014 26.4928 32.6211C26.2731 32.8409 26.1496 33.139 26.1496 33.4498V34.9998C26.1496 35.3106 26.2731 35.6086 26.4928 35.8284C26.7126 36.0482 27.0107 36.1716 27.3215 36.1716C27.6323 36.1716 27.9304 36.0482 28.1501 35.8284C28.3699 35.6086 28.4934 35.3106 28.4934 34.9998V33.4545C28.4942 33.3001 28.4645 33.1471 28.4059 33.0043C28.3474 32.8615 28.2612 32.7317 28.1523 32.6223C28.0433 32.513 27.9139 32.4262 27.7713 32.3671C27.6287 32.308 27.4758 32.2777 27.3215 32.2779ZM32.1762 63.231C31.9444 63.231 31.7178 63.2997 31.5251 63.4285C31.3324 63.5573 31.1822 63.7403 31.0935 63.9544C31.0048 64.1686 30.9816 64.4042 31.0268 64.6315C31.072 64.8588 31.1836 65.0676 31.3475 65.2315C31.5114 65.3954 31.7202 65.507 31.9475 65.5523C32.1749 65.5975 32.4105 65.5743 32.6246 65.4856C32.8388 65.3969 33.0218 65.2467 33.1506 65.054C33.2793 64.8612 33.348 64.6347 33.348 64.4029C33.348 64.0921 33.2246 63.794 33.0048 63.5743C32.785 63.3545 32.487 63.231 32.1762 63.231ZM32.1762 72.606C31.9444 72.606 31.7178 72.6748 31.5251 72.8035C31.3324 72.9323 31.1822 73.1153 31.0935 73.3294C31.0048 73.5436 30.9816 73.7792 31.0268 74.0065C31.072 74.2338 31.1836 74.4426 31.3475 74.6065C31.5114 74.7704 31.7202 74.882 31.9475 74.9273C32.1749 74.9725 32.4105 74.9493 32.6246 74.8606C32.8388 74.7719 33.0218 74.6217 33.1506 74.429C33.2793 74.2362 33.348 74.0097 33.348 73.7779C33.348 73.4671 33.2246 73.169 33.0048 72.9493C32.785 72.7295 32.487 72.606 32.1762 72.606ZM32.1762 67.9185C31.9444 67.9185 31.7178 67.9872 31.5251 68.116C31.3324 68.2448 31.1822 68.4278 31.0935 68.6419C31.0048 68.8561 30.9816 69.0917 31.0268 69.319C31.072 69.5463 31.1836 69.7551 31.3475 69.919C31.5114 70.0829 31.7202 70.1945 31.9475 70.2398C32.1749 70.285 32.4105 70.2618 32.6246 70.1731C32.8388 70.0844 33.0218 69.9342 33.1506 69.7415C33.2793 69.5487 33.348 69.3222 33.348 69.0904C33.348 68.7796 33.2246 68.4815 33.0048 68.2618C32.785 68.042 32.487 67.9185 32.1762 67.9185ZM76.6871 50.8951H71.9512V48.5763C71.9499 47.492 71.5185 46.4524 70.7516 45.6858C69.9847 44.9191 68.9449 44.4881 67.8605 44.4873H55.2605C54.1764 44.4885 53.1371 44.9197 52.3705 45.6863C51.6039 46.4529 51.1727 47.4922 51.1715 48.5763V50.8951H46.4371C46.1263 50.8955 45.8167 50.9338 45.5152 51.0091L43.5465 50.5248C45.2159 50.0008 46.6749 48.9582 47.7114 47.5486C48.7479 46.1389 49.3081 44.4355 49.3106 42.6857V23.8904C49.268 19.499 47.4937 15.3019 44.3733 12.2116C41.253 9.12129 37.0389 7.3877 32.6473 7.3877C28.2556 7.3877 24.0415 9.12129 20.9212 12.2116C17.8008 15.3019 16.0265 19.499 15.984 23.8904V42.6857C15.9859 44.3612 16.4996 45.9962 17.4563 47.3717C18.4129 48.7473 19.767 49.7978 21.3371 50.3826L10.5449 53.0388C5.46055 54.2888 1.60586 58.5545 0.952734 63.6498C0.935547 63.7826 0.921484 63.9138 0.907422 64.0466L0.552734 67.681V74.1404C0.554386 75.6931 1.1716 77.1818 2.26907 78.2801C3.36655 79.3785 4.85474 79.9969 6.40742 79.9998H76.6871C77.698 79.9989 78.6672 79.597 79.382 78.8822C80.0968 78.1674 80.4988 77.1982 80.4996 76.1873V54.7076C80.4984 53.6968 80.0963 52.7278 79.3816 52.0131C78.6669 51.2984 77.6979 50.8963 76.6871 50.8951ZM46.9637 42.6857C46.962 44.2416 46.3431 45.7332 45.2428 46.8332C44.1425 47.9332 42.6508 48.5517 41.0949 48.5529H39.2965V47.8341C40.7978 46.8631 42.0772 45.5861 43.0511 44.0866C44.0249 42.5871 44.6714 40.899 44.948 39.1326H46.1246C46.4098 39.1317 46.6935 39.0929 46.9684 39.017L46.9637 42.6857ZM32.7762 47.4591C30.7183 47.4935 28.6998 46.8934 26.9949 45.7404C26.903 45.6531 26.7974 45.5813 26.6824 45.5279C26.277 45.23 25.8937 44.9031 25.5355 44.5498C24.579 43.6101 23.8202 42.4883 23.3042 41.2506C22.7881 40.0129 22.5252 38.6845 22.5309 37.3435V30.9123C23.2599 30.6142 23.9436 30.2156 24.5621 29.7279C26.3215 28.3326 27.1824 26.4716 27.6027 24.917C29.5685 26.9471 31.9245 28.5588 34.5291 29.6551C37.1337 30.7515 39.9331 31.3098 42.759 31.2966V37.1873C42.7559 42.7795 38.2793 47.3904 32.7762 47.4591ZM36.9527 49.0216V51.406C36.9642 52.0438 36.8486 52.6774 36.6125 53.2699C36.3764 53.8625 36.0246 54.402 35.5777 54.8571C35.1307 55.3122 34.5976 55.6736 34.0094 55.9204C33.4212 56.1671 32.7898 56.2942 32.152 56.2942C31.5141 56.2942 30.8827 56.1671 30.2945 55.9204C29.7063 55.6736 29.1732 55.3122 28.7262 54.8571C28.2793 54.402 27.9275 53.8625 27.6914 53.2699C27.4553 52.6774 27.3397 52.0438 27.3512 51.406V48.631C29.0073 49.4069 30.8145 49.8071 32.6434 49.8029H32.7996C34.2192 49.7858 35.6247 49.5203 36.9527 49.0185V49.0216ZM46.9637 35.9795C46.9552 36.1976 46.8626 36.4041 46.7053 36.5555C46.5481 36.707 46.3383 36.7917 46.1199 36.792H45.0996V31.8029H46.1246C46.3431 31.8035 46.5529 31.8886 46.7101 32.0403C46.8674 32.192 46.9599 32.3986 46.9684 32.617L46.9637 35.9795ZM18.3246 23.8904C18.364 20.1185 19.89 16.5145 22.5712 13.8612C25.2523 11.208 28.8721 9.71967 32.6441 9.71967C36.4162 9.71967 40.036 11.208 42.7171 13.8612C45.3983 16.5145 46.9243 20.1185 46.9637 23.8904V29.5763C46.6889 29.4999 46.4051 29.4605 46.1199 29.4591H44.9152C44.8626 29.3764 44.8002 29.3003 44.7293 29.2326C44.6124 29.1238 44.4744 29.0399 44.324 28.9862C44.1735 28.9324 44.0137 28.91 43.8543 28.9201C40.7661 29.1172 37.6774 28.5431 34.8663 27.2494C32.0552 25.9556 29.6101 23.983 27.7512 21.5091C27.6047 21.3146 27.4013 21.1705 27.1692 21.0969C26.9371 21.0233 26.6878 21.0238 26.456 21.0984C26.2242 21.173 26.0214 21.3179 25.8758 21.513C25.7301 21.7082 25.6489 21.9438 25.6434 22.1873C25.6262 23.0654 25.3934 26.0701 23.0965 27.892C22.4787 28.3775 21.7747 28.7417 21.0215 28.9654C20.7535 29.0468 20.5238 29.2221 20.3746 29.4591H19.1715C18.8851 29.4601 18.6002 29.5001 18.3246 29.5779V23.8904ZM20.1871 31.8029V36.7888H19.1715C18.9473 36.7888 18.7323 36.6998 18.5738 36.5413C18.4152 36.3827 18.3262 36.1677 18.3262 35.9435V32.656C18.3266 32.432 18.4158 32.2172 18.5742 32.0588C18.7327 31.9003 18.9474 31.8111 19.1715 31.8107L20.1871 31.8029ZM18.323 42.6857V39.0154C18.5987 39.0927 18.8836 39.1321 19.1699 39.1326H20.3152C20.6964 41.8211 21.9535 44.309 23.8918 46.2107C24.2441 46.5569 24.616 46.8824 25.0059 47.1857V48.5529H24.1918C22.6362 48.5512 21.1448 47.9326 20.0449 46.8326C18.9449 45.7327 18.3263 44.2413 18.3246 42.6857H18.323ZM42.9168 77.656H13.5309V69.2576C13.5309 68.9468 13.4074 68.6487 13.1876 68.4289C12.9679 68.2092 12.6698 68.0857 12.359 68.0857C12.0482 68.0857 11.7501 68.2092 11.5303 68.4289C11.3106 68.6487 11.1871 68.9468 11.1871 69.2576V77.656H6.40742C5.47527 77.6552 4.58154 77.2845 3.92241 76.6254C3.26329 75.9663 2.89262 75.0725 2.8918 74.1404V67.8498L3.23711 64.2748C3.24805 64.1654 3.26055 64.0576 3.27461 63.9498C3.80586 59.8076 6.95117 56.3373 11.1012 55.3154L25.0309 51.8888C25.1535 53.6951 25.9576 55.3875 27.2804 56.6236C28.6033 57.8596 30.3462 58.5472 32.1566 58.5472C33.9671 58.5472 35.71 57.8596 37.0329 56.6236C38.3557 55.3875 39.1598 53.6951 39.2824 51.8888L43.1215 52.8263C42.7967 53.3979 42.626 54.044 42.6262 54.7013V76.1873C42.6246 76.6913 42.7234 77.1906 42.9168 77.656ZM53.5152 48.5763C53.5156 48.1136 53.6997 47.6699 54.0269 47.3427C54.3541 47.0154 54.7978 46.8314 55.2605 46.831H67.8605C68.3236 46.831 68.7677 47.0149 69.0952 47.3421C69.4228 47.6694 69.607 48.1133 69.6074 48.5763V50.8951H53.5137L53.5152 48.5763ZM78.1559 76.1873C78.1559 76.5768 78.0011 76.9504 77.7257 77.2258C77.4502 77.5013 77.0766 77.656 76.6871 77.656H46.4371C46.0477 77.6556 45.6744 77.5007 45.399 77.2254C45.1236 76.95 44.9688 76.5767 44.9684 76.1873V61.992L56.7996 67.8935V70.9545C56.8004 71.5551 57.0394 72.1309 57.4641 72.5556C57.8888 72.9803 58.4646 73.2193 59.0652 73.2201H64.0652C64.6659 73.2193 65.2417 72.9803 65.6664 72.5556C66.0911 72.1309 66.33 71.5551 66.3309 70.9545V67.8935L78.1559 61.992V76.1873ZM59.1402 70.8748V66.031H63.984V70.8748H59.1402ZM78.1559 59.3748L66.234 65.3216C66.0964 64.8516 65.8103 64.4386 65.4185 64.1446C65.0268 63.8506 64.5504 63.6912 64.0605 63.6904H59.0605C58.5705 63.6912 58.0939 63.8504 57.7019 64.1445C57.3099 64.4385 57.0235 64.8514 56.8855 65.3216L44.9652 59.3748V54.7076C44.9656 54.3182 45.1205 53.9448 45.3959 53.6695C45.6712 53.3941 46.0446 53.2393 46.434 53.2388H76.6871C77.0765 53.2393 77.4499 53.3941 77.7252 53.6695C78.0006 53.9448 78.1554 54.3182 78.1559 54.7076V59.3748Z" fill="black"/>
</g>
<defs>
<clipPath id="clip0_303_47">
<rect width="80" height="80" fill="white" transform="translate(0.5)"/>
</clipPath>
</defs>
</svg>
