<svg width="81" height="80" viewBox="0 0 81 80" fill="none" xmlns="http://www.w3.org/2000/svg">
<g clip-path="url(#clip0_272_182)">
<path d="M40.5008 63.3871C34.4758 63.3871 28.4508 61.0996 23.8758 56.5121C21.6863 54.3335 19.9503 51.7425 18.7681 48.889C17.586 46.0354 16.981 42.9758 16.9883 39.8871C16.9883 33.5996 19.4383 27.6996 23.8758 23.2621C33.0508 14.0871 47.9633 14.0871 57.1383 23.2621C59.3278 25.4407 61.0639 28.0317 62.246 30.8853C63.4282 33.7388 64.0331 36.7984 64.0258 39.8871C64.0258 46.1746 61.5758 52.0746 57.1383 56.5121C52.5383 61.0871 46.5258 63.3871 40.5008 63.3871ZM40.5008 18.7996C35.1008 18.7996 29.7008 20.8496 25.5883 24.9621C23.6234 26.9154 22.0657 29.2394 21.0057 31.7993C19.9457 34.3591 19.4045 37.104 19.4133 39.8746C19.4133 45.5121 21.6133 50.7996 25.5883 54.7871C33.8133 63.0121 47.1883 63.0121 55.4133 54.7871C59.4008 50.7996 61.5883 45.4996 61.5883 39.8746C61.5883 34.2371 59.3883 28.9371 55.4133 24.9621C51.3008 20.8496 45.9008 18.7996 40.5008 18.7996Z" fill="black"/>
<path d="M72.8754 78.2377H72.6379C71.8142 78.2047 71.0062 78.0022 70.2642 77.6431C69.5223 77.2839 68.8623 76.7757 68.3254 76.1502L53.1754 58.3377C53.0715 58.2164 52.9927 58.0758 52.9433 57.924C52.894 57.7721 52.8752 57.612 52.888 57.4529C52.9008 57.2937 52.9449 57.1386 53.0178 56.9966C53.0907 56.8546 53.191 56.7283 53.3129 56.6252C53.4342 56.5213 53.5748 56.4425 53.7266 56.3932C53.8785 56.3438 54.0386 56.325 54.1977 56.3378C54.3569 56.3506 54.5119 56.3947 54.654 56.4676C54.796 56.5405 54.9222 56.6408 55.0254 56.7627L70.1879 74.5627C70.8379 75.3252 71.7504 75.7627 72.7504 75.8002C73.7629 75.8377 74.6879 75.4752 75.4004 74.7627C75.7472 74.4175 76.0184 74.0039 76.1969 73.5483C76.3754 73.0927 76.4573 72.6049 76.4373 72.116C76.4173 71.627 76.2959 71.1476 76.0808 70.7081C75.8658 70.2685 75.5617 69.8785 75.1879 69.5627L57.3879 54.4002C57.266 54.2971 57.1657 54.1708 57.0928 54.0288C57.0199 53.8868 56.9758 53.7317 56.963 53.5725C56.9502 53.4134 56.969 53.2533 57.0183 53.1014C57.0677 52.9496 57.1465 52.809 57.2504 52.6877C57.6879 52.1752 58.4504 52.1127 58.9629 52.5502L76.7504 67.7127C77.3765 68.2499 77.8859 68.9097 78.247 69.6514C78.6082 70.3932 78.8136 71.201 78.8504 72.0252C78.884 72.8467 78.7469 73.6663 78.4479 74.4322C78.1488 75.1981 77.6943 75.8938 77.1129 76.4752C75.9879 77.6002 74.4504 78.2377 72.8754 78.2377ZM52.8754 54.0002H28.1129C27.4379 54.0002 26.9004 53.4627 26.9004 52.7877V48.0502C26.9004 42.1877 31.4754 37.3752 37.3254 37.0877C37.7629 37.0627 38.1504 37.2627 38.3879 37.6002L40.5004 40.6127L42.6129 37.5877C42.8379 37.2627 43.2129 37.0752 43.6004 37.0752C49.5129 37.3752 54.0879 42.1877 54.0879 48.0502V52.7877C54.0879 53.4627 53.5504 54.0002 52.8754 54.0002ZM29.3254 51.5752H51.6629V48.0502C51.6629 43.7002 48.4254 40.0877 44.1879 39.5627L41.4879 43.4252C41.0379 44.0752 39.9504 44.0752 39.5004 43.4252L36.8004 39.5502C32.5879 40.0627 29.3254 43.6877 29.3254 48.0502V51.5752Z" fill="black"/>
<path d="M48.475 54.0001H48.4125C48.0926 53.9789 47.7937 53.8339 47.579 53.5958C47.3643 53.3578 47.2507 53.0455 47.2625 52.7251L47.525 47.8626C47.5625 47.2001 48.1375 46.6876 48.8 46.7126C49.4625 46.7501 49.975 47.3251 49.95 47.9876L49.6875 52.8501C49.6375 53.5001 49.1125 54.0001 48.475 54.0001ZM32.525 54.0001C31.8875 54.0001 31.35 53.5001 31.3125 52.8501L31.05 47.9876C31.0125 47.3251 31.525 46.7501 32.2 46.7126C32.85 46.6751 33.4375 47.1876 33.475 47.8626L33.7375 52.7251C33.775 53.3876 33.2625 53.9626 32.5875 54.0001H32.525ZM40.5 36.7251C36.5875 36.7251 33.4 33.5376 33.4 29.6251C33.4 25.7126 36.5875 22.5251 40.5 22.5251C44.4125 22.5251 47.6 25.7126 47.6 29.6251C47.6 33.5376 44.4125 36.7251 40.5 36.7251ZM40.5 24.9501C37.925 24.9501 35.825 27.0501 35.825 29.6251C35.825 32.2001 37.925 34.3001 40.5 34.3001C43.075 34.3001 45.175 32.2001 45.175 29.6251C45.175 27.0501 43.075 24.9501 40.5 24.9501ZM18.35 38.3751H1.7125C1.39093 38.3751 1.08252 38.2474 0.855133 38.02C0.627745 37.7926 0.5 37.4842 0.5 37.1626V31.5001C0.5 24.6251 5.875 18.9751 12.7375 18.6251C13.1625 18.6001 13.5625 18.8001 13.8 19.1376L16.5125 23.0251L19.225 19.1376C19.45 18.8126 19.825 18.6251 20.225 18.6251C22.925 18.7501 25.4375 19.6876 27.5375 21.3251C28.0625 21.7376 28.1625 22.5001 27.75 23.0251C27.5526 23.2785 27.2627 23.4432 26.944 23.483C26.6252 23.5229 26.3037 23.4346 26.05 23.2376C24.5372 22.0597 22.7297 21.3202 20.825 21.1001L17.5125 25.8501C17.0625 26.5001 15.975 26.5001 15.525 25.8501L12.2125 21.1001C6.975 21.6751 2.925 26.1251 2.925 31.5126V35.9626H18.3625C18.6824 35.9643 18.9886 36.093 19.2136 36.3204C19.4387 36.5478 19.5642 36.8552 19.5625 37.1751C19.5608 37.4951 19.4322 37.8012 19.2048 38.0263C18.9774 38.2513 18.6699 38.3768 18.35 38.3751Z" fill="black"/>
<path d="M6.988 38.3754C6.3505 38.3754 5.813 37.8754 5.7755 37.2254L5.463 31.4129C5.45884 31.0987 5.57655 30.7952 5.79141 30.5659C6.00627 30.3367 6.30158 30.1996 6.61535 30.1834C6.92912 30.1673 7.23695 30.2733 7.47424 30.4792C7.71153 30.6851 7.85983 30.975 7.888 31.2879L8.2005 37.1004C8.238 37.7629 7.7255 38.3379 7.0505 38.3754H6.988ZM16.513 18.2754C11.963 18.2754 8.263 14.5754 8.263 10.0254C8.263 5.47539 11.963 1.77539 16.513 1.77539C21.063 1.77539 24.763 5.47539 24.763 10.0254C24.763 14.5754 21.0755 18.2754 16.513 18.2754ZM16.513 4.18789C13.3005 4.18789 10.688 6.80039 10.688 10.0129C10.688 13.2254 13.3005 15.8379 16.513 15.8379C19.7255 15.8379 22.338 13.2254 22.338 10.0129C22.338 6.80039 19.738 4.18789 16.513 4.18789ZM79.288 38.3754H62.638C61.963 38.3754 61.4255 37.8379 61.4255 37.1629C61.4255 36.4879 61.963 35.9504 62.638 35.9504H78.0755V31.5004C78.0755 26.1379 74.0505 21.6879 68.788 21.1004L65.4755 25.8504C65.2505 26.1754 64.8755 26.3629 64.488 26.3629C64.2941 26.3646 64.1027 26.3188 63.9305 26.2294C63.7584 26.1401 63.6107 26.01 63.5005 25.8504L60.1755 21.1004C58.2755 21.3129 56.4755 22.0504 54.938 23.2379C54.6843 23.4349 54.3628 23.5231 54.044 23.4833C53.7253 23.4434 53.4354 23.2788 53.238 23.0254C53.041 22.7717 52.9528 22.4502 52.9926 22.1314C53.0324 21.8127 53.1971 21.5228 53.4505 21.3254C55.5505 19.6879 58.063 18.7629 60.7005 18.6379C61.1005 18.6254 61.513 18.8129 61.7505 19.1504L64.4755 23.0379L67.188 19.1504C67.413 18.8254 67.788 18.6379 68.188 18.6379C75.1255 18.9629 80.5005 24.6254 80.5005 31.5004V37.1629C80.5005 37.8254 79.963 38.3754 79.288 38.3754Z" fill="black"/>
<path d="M74.0121 38.3754H73.9496C73.6298 38.3541 73.3308 38.2091 73.1161 37.9711C72.9014 37.7331 72.7878 37.4207 72.7996 37.1004L73.1121 31.2879C73.1496 30.6254 73.7246 30.1129 74.3871 30.1379C75.0496 30.1754 75.5621 30.7504 75.5371 31.4129L75.2246 37.2254C75.1871 37.8754 74.6496 38.3754 74.0121 38.3754ZM64.4746 18.2754C59.9246 18.2754 56.2246 14.5754 56.2246 10.0254C56.2246 5.47539 59.9246 1.77539 64.4746 1.77539C69.0246 1.77539 72.7246 5.47539 72.7246 10.0254C72.7246 14.5754 69.0246 18.2754 64.4746 18.2754ZM64.4746 4.18789C61.2621 4.18789 58.6496 6.80039 58.6496 10.0129C58.6496 13.2254 61.2621 15.8379 64.4746 15.8379C67.6871 15.8379 70.2996 13.2254 70.2996 10.0129C70.2996 6.80039 67.6871 4.18789 64.4746 4.18789Z" fill="black"/>
</g>
<defs>
<clipPath id="clip0_272_182">
<rect width="80" height="80" fill="white" transform="translate(0.5)"/>
</clipPath>
</defs>
</svg>
