<svg width="81" height="80" viewBox="0 0 81 80" fill="none" xmlns="http://www.w3.org/2000/svg">
<g clip-path="url(#clip0_309_227)">
<path d="M60.8544 52.8171C65.7645 46.0124 67.932 37.6083 66.9254 29.2777C65.9188 20.9471 61.8119 13.3011 55.4223 7.86182C49.0327 2.42256 40.8291 -0.410984 32.4447 -0.0747244C24.0602 0.261535 16.1099 3.74294 10.1764 9.67641C4.24294 15.6099 0.761535 23.5602 0.425276 31.9447C0.0890163 40.3291 2.92256 48.5327 8.36182 54.9223C13.8011 61.3119 21.4471 65.4188 29.7777 66.4254C38.1083 67.432 46.5124 65.2645 53.3171 60.3544L71.7811 78.8184C72.1517 79.1933 72.5932 79.4908 73.0798 79.6936C73.5665 79.8964 74.0885 80.0005 74.6157 79.9997H74.6331C75.1568 79.9995 75.6751 79.8948 76.1579 79.692C76.6407 79.4892 77.0783 79.1922 77.4451 78.8184L79.3184 76.9517C79.6935 76.5815 79.9914 76.1405 80.1947 75.6542C80.3979 75.1679 80.5026 74.6461 80.5026 74.1191C80.5026 73.592 80.3979 73.0702 80.1947 72.584C79.9914 72.0977 79.6935 71.6566 79.3184 71.2864L60.8544 52.8171ZM3.16641 33.3331C3.16641 27.2678 4.96498 21.3387 8.33467 16.2956C11.7044 11.2525 16.4938 7.32186 22.0974 5.00077C27.701 2.67968 33.8671 2.07238 39.8158 3.25566C45.7646 4.43894 51.2289 7.35966 55.5177 11.6485C59.8065 15.9373 62.7272 21.4016 63.9105 27.3503C65.0938 33.2991 64.4865 39.4651 62.1654 45.0687C59.8443 50.6723 55.9137 55.4618 50.8706 58.8315C45.8275 62.2012 39.8984 63.9997 33.8331 63.9997C25.7025 63.9909 17.9074 60.7571 12.1582 55.0079C6.40901 49.2587 3.17523 41.4637 3.16641 33.3331ZM59.1944 54.9331L61.6664 57.4051L57.8997 61.1664L55.4331 58.6944C56.7846 57.5423 58.0423 56.2846 59.1944 54.9331ZM77.4331 75.0544L75.5477 76.9331C75.4272 77.0593 75.2824 77.1598 75.122 77.2285C74.9616 77.2972 74.7889 77.3328 74.6144 77.3331C74.4375 77.3327 74.2625 77.2971 74.0995 77.2285C73.9366 77.1598 73.7889 77.0594 73.6651 76.9331L59.7851 63.0517L63.5517 59.2851L77.4331 73.1731C77.5588 73.2953 77.6588 73.4416 77.7271 73.6032C77.7953 73.7647 77.8305 73.9383 77.8305 74.1137C77.8305 74.2891 77.7953 74.4628 77.7271 74.6243C77.6588 74.7859 77.5588 74.9321 77.4331 75.0544Z" fill="black"/>
<path d="M40.8327 6.21434C40.4901 6.12594 40.1263 6.17727 39.8215 6.35706C39.5167 6.53684 39.2958 6.83035 39.2074 7.17301C39.119 7.51567 39.1703 7.87941 39.3501 8.18422C39.5299 8.48903 39.8234 8.70994 40.1661 8.79834C44.6851 9.96404 48.7941 12.3558 52.0394 15.7097C55.2848 19.0635 57.5402 23.2489 58.5567 27.8038C59.5732 32.3587 59.3112 37.1059 57.7998 41.5213C56.2883 45.9367 53.586 49.8486 49.9914 52.825C49.7874 52.7477 49.5781 52.673 49.3527 52.5997L46.4541 51.653C46.5711 50.0818 46.7767 48.5184 47.0701 46.9703C47.0891 46.9104 47.1046 46.8494 47.1167 46.7877C47.177 46.4632 47.1668 46.1296 47.087 45.8094C47.0072 45.4892 46.8595 45.1899 46.6541 44.9317C46.4112 44.6311 46.096 44.3972 45.7381 44.2517C45.9606 43.681 46.1242 43.089 46.2261 42.485L46.6007 40.2317C47.5282 39.9766 48.3465 39.4247 48.9304 38.6604C49.5144 37.8961 49.8318 36.9615 49.8341 35.9997C49.8341 35.8663 49.8007 35.7463 49.7887 35.6183C53.6701 34.589 56.5007 33.0117 56.5007 30.6663C56.5007 27.6663 52.4714 26.565 46.3287 25.9397L44.4274 16.3077C44.1796 14.9822 43.4334 13.8021 42.3422 13.01C41.251 12.2178 39.8977 11.874 38.5607 12.049C35.4291 12.457 32.2577 12.457 29.1261 12.049C27.7875 11.8718 26.4318 12.2143 25.3379 13.0059C24.244 13.7975 23.4949 14.9781 23.2447 16.305L21.3434 25.9383C15.1967 26.565 11.1674 27.6663 11.1674 30.6663C11.1674 33.0117 13.9981 34.589 17.8794 35.6183C17.8674 35.7517 17.8341 35.869 17.8341 35.9997C17.8362 36.9612 18.1532 37.8955 18.7367 38.6598C19.3201 39.424 20.1378 39.9761 21.0647 40.2317L21.4394 42.4877C21.5436 43.0896 21.7089 43.6793 21.9327 44.2477C21.4416 44.4493 21.0363 44.8161 20.7868 45.2847C20.5373 45.7533 20.4592 46.2943 20.5661 46.8143C20.8745 48.4134 21.09 50.029 21.2114 51.653L18.3181 52.597C18.0901 52.6717 17.8794 52.7477 17.6741 52.8237C13.6595 49.5003 10.7683 45.019 9.39498 39.9915C8.0217 34.9639 8.23329 29.6351 10.0009 24.7323C11.7684 19.8295 15.0059 15.5916 19.2713 12.5969C23.5367 9.60226 28.6224 7.99681 33.8341 7.99967C34.1877 7.99967 34.5268 7.8592 34.7769 7.60915C35.0269 7.3591 35.1674 7.01996 35.1674 6.66634C35.1674 6.31272 35.0269 5.97358 34.7769 5.72353C34.5268 5.47348 34.1877 5.33301 33.8341 5.33301C26.7227 5.3414 19.8817 8.05854 14.7025 12.9317C9.52339 17.8048 6.39518 24.4679 5.95424 31.5656C5.51331 38.6632 7.79277 45.6623 12.3289 51.139C16.8651 56.6157 23.3173 60.1587 30.3729 61.0472C37.4285 61.9357 44.5576 60.103 50.31 55.9219C56.0623 51.7408 60.0059 45.5254 61.3384 38.5401C62.6709 31.5547 61.2923 24.324 57.4831 18.319C53.6738 12.3139 47.72 7.98556 40.8327 6.21434ZM47.3194 54.741C43.6677 57.0501 39.4823 58.3787 35.1674 58.5983V56.1983C35.1681 55.2902 35.2942 54.3866 35.5421 53.513L36.8927 48.8063C37.0238 48.3225 37.001 47.8099 36.8274 47.3397C39.3173 46.8072 41.8649 46.5935 44.4087 46.7037C44.0555 48.6286 43.8284 50.5745 43.7287 52.529C43.7143 52.8211 43.7962 53.1098 43.962 53.3508C44.1277 53.5917 44.3681 53.7715 44.6461 53.8623L47.3194 54.741ZM43.7194 26.521C42.6194 27.0477 39.7994 27.9997 33.8341 27.9997C27.8421 27.9997 25.0234 27.0397 23.9421 26.5263L24.4127 24.1397C27.4732 25.0194 30.651 25.4219 33.8341 25.333C37.0172 25.4219 40.195 25.0194 43.2554 24.1397L43.7194 26.521ZM28.7674 14.693C32.1379 15.1343 35.5516 15.1343 38.9221 14.693C39.5856 14.6116 40.2551 14.7873 40.7932 15.184C41.3313 15.5807 41.697 16.1684 41.8154 16.8263L42.7394 21.5037C39.8563 22.3841 36.8465 22.777 33.8341 22.6663C30.8232 22.7753 27.8152 22.381 24.9341 21.4997L25.8581 16.821C25.9759 16.16 26.344 15.5699 26.886 15.1735C27.4279 14.7771 28.1018 14.605 28.7674 14.693ZM13.8341 30.6663C13.8341 30.6117 13.9501 29.333 22.1007 28.5463C23.2821 29.2783 26.4834 30.6663 33.8341 30.6663C41.1847 30.6663 44.3861 29.2783 45.5674 28.5463C53.7181 29.333 53.8341 30.6117 53.8341 30.6663C53.8341 31.6317 47.8167 34.6663 33.8341 34.6663C19.8514 34.6663 13.8341 31.6317 13.8341 30.6663ZM20.5447 36.2143C24.9335 36.9738 29.3802 37.3481 33.8341 37.333C38.288 37.3481 42.7347 36.9738 47.1234 36.2143C47.0753 36.6263 46.8785 37.0066 46.57 37.2838C46.2614 37.561 45.8622 37.716 45.4474 37.7197C45.1318 37.7198 44.8265 37.8319 44.5857 38.036C44.345 38.2401 44.1845 38.523 44.1327 38.8343L43.5994 42.0477C43.4742 42.7364 43.2334 43.3991 42.8874 44.0077C39.8191 44.0181 36.769 44.4781 33.8341 45.373C30.8865 44.4788 27.8249 44.0162 24.7447 43.9997C24.4137 43.3892 24.1858 42.7284 24.0701 42.0437L23.5367 38.8303C23.485 38.519 23.3245 38.2361 23.0837 38.032C22.843 37.8279 22.5377 37.7158 22.2221 37.7157C21.8077 37.7124 21.4087 37.5581 21.0999 37.2817C20.7911 37.0054 20.5937 36.6258 20.5447 36.2143ZM23.0221 53.8663C23.3 53.7755 23.5404 53.5957 23.7062 53.3548C23.8719 53.1138 23.9539 52.8251 23.9394 52.533C23.8392 50.5749 23.6111 48.6254 23.2567 46.697C26.6858 46.5407 30.1157 46.988 33.3901 48.0183L33.6674 48.1157C33.8621 48.185 34.0581 48.249 34.2594 48.3263L32.9807 52.7837C32.6637 53.8947 32.5022 55.0443 32.5007 56.1997V58.5997C28.1852 58.38 23.9993 57.051 20.3474 54.741L23.0221 53.8663Z" fill="black"/>
</g>
<defs>
<clipPath id="clip0_309_227">
<rect width="80" height="80" fill="white" transform="translate(0.5)"/>
</clipPath>
</defs>
</svg>
