<svg width="81" height="80" viewBox="0 0 81 80" fill="none" xmlns="http://www.w3.org/2000/svg">
<path d="M18.5 10H14.5C14.2348 10 13.9804 10.1054 13.7929 10.2929C13.6054 10.4804 13.5 10.7348 13.5 11V74C13.5 74.2652 13.6054 74.5196 13.7929 74.7071C13.9804 74.8946 14.2348 75 14.5 75H61.5C61.7652 75 62.0196 74.8946 62.2071 74.7071C62.3946 74.5196 62.5 74.2652 62.5 74V70H66.5C66.7652 70 67.0196 69.8946 67.2071 69.7071C67.3946 69.5196 67.5 69.2652 67.5 69V18C67.5001 17.8684 67.4741 17.7381 67.4237 17.6166C67.3732 17.4951 67.2993 17.3848 67.206 17.292L55.208 5.294C55.1152 5.20079 55.0048 5.12684 54.8833 5.07638C54.7618 5.02593 54.6316 4.99997 54.5 5H19.5C19.2348 5 18.9804 5.10536 18.7929 5.29289C18.6054 5.48043 18.5 5.73478 18.5 6V10ZM60.5 73H15.5V12H18.5V69C18.5 69.2652 18.6054 69.5196 18.7929 69.7071C18.9804 69.8946 19.2348 70 19.5 70H60.5V73ZM55.5 8.414L64.086 17H55.5V8.414ZM20.5 7H53.5V18C53.5 18.2652 53.6054 18.5196 53.7929 18.7071C53.9804 18.8946 54.2348 19 54.5 19H65.5V68H20.5V7Z" fill="black"/>
<path d="M25.5 15H46.5C46.7652 15 47.0196 14.8946 47.2071 14.7071C47.3946 14.5196 47.5 14.2652 47.5 14C47.5 13.7348 47.3946 13.4804 47.2071 13.2929C47.0196 13.1054 46.7652 13 46.5 13H25.5C25.2348 13 24.9804 13.1054 24.7929 13.2929C24.6054 13.4804 24.5 13.7348 24.5 14C24.5 14.2652 24.6054 14.5196 24.7929 14.7071C24.9804 14.8946 25.2348 15 25.5 15ZM25.5 24.333H56.5C56.7652 24.333 57.0196 24.2276 57.2071 24.0401C57.3946 23.8526 57.5 23.5982 57.5 23.333C57.5 23.0678 57.3946 22.8134 57.2071 22.6259C57.0196 22.4384 56.7652 22.333 56.5 22.333H25.5C25.2348 22.333 24.9804 22.4384 24.7929 22.6259C24.6054 22.8134 24.5 23.0678 24.5 23.333C24.5 23.5982 24.6054 23.8526 24.7929 24.0401C24.9804 24.2276 25.2348 24.333 25.5 24.333ZM25.5 33.667H60.5C60.7652 33.667 61.0196 33.5616 61.2071 33.3741C61.3946 33.1866 61.5 32.9322 61.5 32.667C61.5 32.4018 61.3946 32.1474 61.2071 31.9599C61.0196 31.7724 60.7652 31.667 60.5 31.667H25.5C25.2348 31.667 24.9804 31.7724 24.7929 31.9599C24.6054 32.1474 24.5 32.4018 24.5 32.667C24.5 32.9322 24.6054 33.1866 24.7929 33.3741C24.9804 33.5616 25.2348 33.667 25.5 33.667ZM25.5 43H60.5C60.7652 43 61.0196 42.8946 61.2071 42.7071C61.3946 42.5196 61.5 42.2652 61.5 42C61.5 41.7348 61.3946 41.4804 61.2071 41.2929C61.0196 41.1054 60.7652 41 60.5 41H25.5C25.2348 41 24.9804 41.1054 24.7929 41.2929C24.6054 41.4804 24.5 41.7348 24.5 42C24.5 42.2652 24.6054 42.5196 24.7929 42.7071C24.9804 42.8946 25.2348 43 25.5 43ZM50.696 46.803C45.366 46.803 41.029 51.14 41.029 56.47C41.029 61.8 45.366 66.136 50.696 66.136C56.026 66.136 60.362 61.8 60.362 56.47C60.362 51.14 56.026 46.803 50.696 46.803ZM50.696 64.136C46.469 64.136 43.029 60.697 43.029 56.47C43.029 52.243 46.469 48.803 50.696 48.803C54.923 48.803 58.362 52.243 58.362 56.47C58.362 60.697 54.924 64.136 50.696 64.136Z" fill="black"/>
<path d="M54.2624 52.7858L49.0164 58.0318L47.1294 56.1458C47.0372 56.0502 46.9269 55.9741 46.8048 55.9217C46.6828 55.8692 46.5516 55.8417 46.4188 55.8405C46.2861 55.8393 46.1544 55.8647 46.0315 55.9149C45.9086 55.9652 45.7969 56.0395 45.703 56.1334C45.6092 56.2273 45.5349 56.3389 45.4846 56.4618C45.4343 56.5847 45.409 56.7164 45.4102 56.8492C45.4113 56.9819 45.4389 57.1132 45.4913 57.2352C45.5437 57.3572 45.6199 57.4675 45.7154 57.5598L48.3094 60.1528C48.4021 60.2459 48.5123 60.3199 48.6336 60.3703C48.7549 60.4208 48.885 60.4468 49.0164 60.4468C49.1478 60.4468 49.278 60.4208 49.3993 60.3703C49.5206 60.3199 49.6308 60.2459 49.7234 60.1528L55.6764 54.1998C55.772 54.1075 55.8481 53.9972 55.9005 53.8752C55.953 53.7532 55.9805 53.6219 55.9817 53.4892C55.9828 53.3564 55.9575 53.2247 55.9073 53.1018C55.857 52.9789 55.7827 52.8673 55.6888 52.7734C55.5949 52.6795 55.4833 52.6052 55.3604 52.5549C55.2375 52.5047 55.1058 52.4794 54.973 52.4805C54.8403 52.4817 54.709 52.5092 54.587 52.5617C54.465 52.6141 54.3547 52.6902 54.2624 52.7858Z" fill="black"/>
</svg>
