<svg width="81" height="80" viewBox="0 0 81 80" fill="none" xmlns="http://www.w3.org/2000/svg">
<g clip-path="url(#clip0_303_53)">
<path d="M64.25 47.5147V43.7496C64.2487 42.4239 63.7215 41.1529 62.7841 40.2155C61.8467 39.2781 60.5757 38.7509 59.25 38.7496H44.0196C43.8332 38.2267 43.5329 37.7518 43.1404 37.3592C42.7478 36.9667 42.2729 36.6664 41.75 36.48V32.4362C45.939 32.113 49.8401 30.1799 52.6345 27.0425C55.429 23.9051 56.8997 19.8073 56.738 15.6089C56.5762 11.4105 54.7947 7.438 51.7672 4.52484C48.7397 1.61169 44.7015 -0.015625 40.5 -0.015625C36.2985 -0.015625 32.2603 1.61169 29.2328 4.52484C26.2053 7.438 24.4238 11.4105 24.262 15.6089C24.1003 19.8073 25.571 23.9051 28.3655 27.0425C31.1599 30.1799 35.061 32.113 39.25 32.4362V36.48C38.7271 36.6664 38.2522 36.9667 37.8596 37.3592C37.4671 37.7518 37.1668 38.2267 36.9804 38.7496H21.75C20.4243 38.7509 19.1533 39.2781 18.2159 40.2155C17.2785 41.1529 16.7513 42.4239 16.75 43.7496V47.5147C12.5592 47.6068 0.5 48.2416 0.5 52.4996V74.9996C0.5 79.8592 16.2092 79.9996 18 79.9996C19.7908 79.9996 35.5 79.8592 35.5 74.9996V52.4996C35.5 48.2416 23.4408 47.6068 19.25 47.5147V43.7496C19.2509 43.0868 19.5146 42.4515 19.9832 41.9828C20.4519 41.5142 21.0872 41.2505 21.75 41.2496H36.9804C37.2351 41.98 37.7107 42.6131 38.3414 43.0611C38.972 43.509 39.7264 43.7497 40.5 43.7497C41.2736 43.7497 42.028 43.509 42.6586 43.0611C43.2893 42.6131 43.7649 41.98 44.0196 41.2496H59.25C59.9128 41.2505 60.5481 41.5142 61.0168 41.9828C61.4854 42.4515 61.7491 43.0868 61.75 43.7496V47.5147C57.5592 47.6068 45.5 48.2416 45.5 52.4996V74.9996C45.5 79.8592 61.2093 79.9996 63 79.9996C64.7907 79.9996 80.5 79.8592 80.5 74.9996V52.4996C80.5 48.2416 68.4408 47.6068 64.25 47.5147ZM3 62.839C7.508 64.9202 16.6585 64.9996 18 64.9996C19.3415 64.9996 28.492 64.9202 33 62.839V67.414C32.3568 68.3639 26.925 69.9996 18 69.9996C9.075 69.9996 3.64325 68.3638 3 67.4141V62.839ZM33 59.9131C32.3595 60.8621 26.9275 62.4996 18 62.4996C9.0725 62.4996 3.6405 60.8621 3 59.9131V55.3381C7.50825 57.4206 16.6586 57.4996 18 57.4996C19.3414 57.4996 28.4918 57.4206 33 55.3385V59.9131ZM18 77.4996C9.075 77.4996 3.64325 75.8638 3 74.9141V70.3385C7.50825 72.4206 16.6586 72.4996 18 72.4996C19.3414 72.4996 28.4918 72.4206 33 70.3385V74.9141C32.3568 75.8638 26.925 77.4996 18 77.4996ZM18 54.9996C9.3375 54.9996 3.96437 53.4579 3.06837 52.4996C3.96437 51.5414 9.3375 49.9996 18 49.9996C26.6625 49.9996 32.0356 51.5414 32.9316 52.4996C32.0356 53.4579 26.6625 54.9996 18 54.9996ZM26.8134 17.4996H31.783C31.8413 19.0846 32.0298 20.6621 32.3466 22.2162C31.1313 22.517 29.9462 22.929 28.8064 23.447C27.6889 21.6463 27.0065 19.61 26.8134 17.4996ZM28.8064 9.05223C29.9462 9.57017 31.1313 9.98216 32.3466 10.283C32.0298 11.8371 31.8413 13.4146 31.783 14.9996H26.8134C27.0065 12.8892 27.6889 10.8529 28.8064 9.05223ZM54.1866 14.9996H49.217C49.1587 13.4146 48.9702 11.8371 48.6534 10.283C49.8687 9.98216 51.0538 9.57017 52.1936 9.05223C53.3111 10.8529 53.9935 12.8892 54.1866 14.9996ZM52.1936 23.447C51.0538 22.929 49.8687 22.517 48.6534 22.2162C48.9702 20.6621 49.1587 19.0846 49.217 17.4996H54.1866C53.9935 19.61 53.3111 21.6463 52.1936 23.447ZM41.75 29.6659V23.7802C43.0261 23.8227 44.2986 23.94 45.561 24.1317C44.6101 26.9666 43.2 28.9274 41.75 29.6659ZM41.75 21.2805V17.4996H46.7184C46.6624 18.912 46.4925 20.3176 46.2103 21.7026C44.7341 21.4662 43.2443 21.3252 41.75 21.2805ZM46.7184 14.9996H41.75V11.2187C43.2443 11.174 44.7341 11.033 46.2103 10.7966C46.4924 12.1816 46.6624 13.5872 46.7184 14.9996ZM41.75 8.71898V2.83335C43.2 3.57185 44.6101 5.5326 45.561 8.36748C44.2986 8.55918 43.0261 8.67655 41.75 8.71898ZM39.25 2.83335V8.71898C37.9739 8.67655 36.7014 8.55918 35.439 8.36748C36.3899 5.5326 37.8 3.57185 39.25 2.83335ZM39.25 11.2187V14.9996H34.2816C34.3376 13.5872 34.5076 12.1817 34.7899 10.7967C36.266 11.033 37.7558 11.174 39.25 11.2187ZM34.2816 17.4996H39.25V21.2805C37.7558 21.3252 36.266 21.4662 34.7899 21.7025C34.5076 20.3175 34.3376 18.912 34.2816 17.4996ZM39.25 23.7802V29.6659C37.8 28.9274 36.3899 26.9666 35.439 24.1317C36.7014 23.94 37.9739 23.8227 39.25 23.7802ZM46.1266 28.7825C46.9378 27.4901 47.5747 26.0963 48.0209 24.6371C48.9153 24.86 49.7921 25.1482 50.6442 25.4996C49.3779 26.8904 47.8405 28.0075 46.1266 28.7825ZM50.6442 6.9996C49.7921 7.35096 48.9153 7.63924 48.0209 7.8621C47.5748 6.40276 46.9379 5.00874 46.1266 3.71623C47.8406 4.49131 49.3779 5.60865 50.6442 6.9996ZM34.8734 3.71673C34.0622 5.00908 33.4253 6.40293 32.9791 7.8621C32.0847 7.63924 31.2079 7.35096 30.3557 6.9996C31.6221 5.60883 33.1595 4.49167 34.8734 3.71673ZM30.3557 25.4996C31.2079 25.1482 32.0847 24.86 32.9791 24.6371C33.4252 26.0964 34.0621 27.4905 34.8734 28.783C33.1594 28.0079 31.6221 26.8905 30.3557 25.4996ZM40.5 41.2496C40.2528 41.2496 40.0111 41.1763 39.8055 41.0389C39.6 40.9016 39.4398 40.7064 39.3451 40.478C39.2505 40.2495 39.2258 39.9982 39.274 39.7557C39.3223 39.5133 39.4413 39.2905 39.6161 39.1157C39.7909 38.9409 40.0137 38.8219 40.2561 38.7736C40.4986 38.7254 40.7499 38.7501 40.9784 38.8448C41.2068 38.9394 41.402 39.0996 41.5393 39.3051C41.6767 39.5107 41.75 39.7524 41.75 39.9996C41.7498 40.3311 41.618 40.6489 41.3837 40.8833C41.1493 41.1176 40.8315 41.2494 40.5 41.2496ZM48 62.839C52.508 64.9202 61.6585 64.9996 63 64.9996C64.3415 64.9996 73.492 64.9202 78 62.839V67.4131C77.3595 68.3621 71.9275 69.9996 63 69.9996C54.0725 69.9996 48.6405 68.3621 48 67.4131V62.839ZM78 59.9131C77.3595 60.8621 71.9275 62.4996 63 62.4996C54.0725 62.4996 48.6405 60.8621 48 59.9131V55.3381C52.5083 57.4206 61.6586 57.4996 63 57.4996C64.3414 57.4996 73.4918 57.4206 78 55.3385V59.9131ZM63 49.9996C71.6625 49.9996 77.0356 51.5414 77.9316 52.4996C77.0356 53.4579 71.6625 54.9996 63 54.9996C54.3375 54.9996 48.9644 53.4579 48.0684 52.4996C48.9644 51.5414 54.3375 49.9996 63 49.9996ZM78 74.9141C77.3568 75.8638 71.925 77.4996 63 77.4996C54.075 77.4996 48.6432 75.8638 48 74.9141V70.3391C52.508 72.4202 61.6585 72.4996 63 72.4996C64.3415 72.4996 73.492 72.4202 78 70.339V74.9141Z" fill="black"/>
<path d="M58.1004 58.5655C57.9367 58.5524 57.772 58.5716 57.6158 58.6221C57.4596 58.6726 57.3148 58.7534 57.1898 58.8599C57.0648 58.9663 56.9619 59.0964 56.8871 59.2425C56.8124 59.3887 56.7671 59.5482 56.754 59.7119C56.7409 59.8756 56.7601 60.0402 56.8106 60.1965C56.8611 60.3527 56.9419 60.4975 57.0484 60.6225C57.1548 60.7475 57.2848 60.8504 57.431 60.9251C57.5772 60.9999 57.7367 61.0451 57.9004 61.0583C59.4958 61.1852 61.212 61.2499 63.0004 61.2499C64.7888 61.2499 66.505 61.1852 68.1004 61.0583C68.2641 61.0451 68.4235 60.9999 68.5697 60.9251C68.7159 60.8504 68.846 60.7475 68.9524 60.6225C69.0589 60.4975 69.1396 60.3527 69.1902 60.1965C69.2407 60.0402 69.2599 59.8756 69.2468 59.7119C69.2336 59.5482 69.1884 59.3887 69.1136 59.2425C69.0388 59.0964 68.936 58.9663 68.811 58.8599C68.686 58.7534 68.5412 58.6726 68.385 58.6221C68.2287 58.5716 68.0641 58.5524 67.9004 58.5655C64.6383 58.8098 61.3625 58.8098 58.1004 58.5655ZM57.9004 68.5583C59.4958 68.6852 61.212 68.7499 63.0004 68.7499C64.7888 68.7499 66.505 68.6852 68.1004 68.5583C68.4309 68.5318 68.7374 68.375 68.9524 68.1225C69.1674 67.87 69.2733 67.5425 69.2468 67.2119C69.2202 66.8813 69.0635 66.5749 68.811 66.3599C68.5585 66.1449 68.2309 66.039 67.9004 66.0655C64.6383 66.3098 61.3625 66.3098 58.1004 66.0655C57.7698 66.039 57.4423 66.1449 57.1898 66.3599C56.9373 66.5749 56.7805 66.8813 56.754 67.2119C56.7275 67.5425 56.8334 67.87 57.0484 68.1225C57.2633 68.375 57.5698 68.5318 57.9004 68.5583ZM58.1004 73.5655C57.9367 73.5524 57.772 73.5716 57.6158 73.6221C57.4596 73.6726 57.3148 73.7534 57.1898 73.8599C57.0648 73.9663 56.9619 74.0964 56.8871 74.2425C56.8124 74.3887 56.7671 74.5482 56.754 74.7119C56.7409 74.8756 56.7601 75.0402 56.8106 75.1965C56.8611 75.3527 56.9419 75.4975 57.0484 75.6225C57.1548 75.7475 57.2848 75.8504 57.431 75.9251C57.5772 75.9999 57.7367 76.0451 57.9004 76.0583C59.4958 76.1852 61.212 76.2499 63.0004 76.2499C64.7888 76.2499 66.505 76.1852 68.1004 76.0583C68.2641 76.0451 68.4235 75.9999 68.5697 75.9251C68.7159 75.8504 68.846 75.7475 68.9524 75.6225C69.0589 75.4975 69.1396 75.3527 69.1902 75.1965C69.2407 75.0402 69.2599 74.8756 69.2468 74.7119C69.2336 74.5482 69.1884 74.3887 69.1136 74.2425C69.0388 74.0964 68.936 73.9663 68.811 73.8599C68.686 73.7534 68.5412 73.6726 68.385 73.6221C68.2287 73.5716 68.0641 73.5524 67.9004 73.5655C64.6383 73.8098 61.3625 73.8098 58.1004 73.5655ZM13.1004 58.5655C12.9367 58.5524 12.772 58.5716 12.6158 58.6221C12.4596 58.6726 12.3148 58.7534 12.1898 58.8599C12.0648 58.9663 11.9619 59.0964 11.8872 59.2425C11.8124 59.3887 11.7671 59.5482 11.754 59.7119C11.7409 59.8756 11.7601 60.0402 11.8106 60.1965C11.8611 60.3527 11.9419 60.4975 12.0484 60.6225C12.1548 60.7475 12.2848 60.8504 12.431 60.9251C12.5772 60.9999 12.7367 61.0451 12.9004 61.0583C14.4958 61.1852 16.212 61.2499 18.0004 61.2499C19.7888 61.2499 21.505 61.1852 23.1004 61.0583C23.2641 61.0451 23.4235 60.9999 23.5697 60.9251C23.7159 60.8504 23.846 60.7475 23.9524 60.6225C24.0589 60.4975 24.1396 60.3527 24.1902 60.1965C24.2407 60.0402 24.2599 59.8756 24.2468 59.7119C24.2336 59.5482 24.1884 59.3887 24.1136 59.2425C24.0388 59.0964 23.936 58.9663 23.811 58.8599C23.686 58.7534 23.5412 58.6726 23.385 58.6221C23.2287 58.5716 23.0641 58.5524 22.9004 58.5655C19.6383 58.8098 16.3625 58.8098 13.1004 58.5655ZM12.9004 68.5583C14.4958 68.6852 16.212 68.7499 18.0004 68.7499C19.7888 68.7499 21.505 68.6852 23.1004 68.5583C23.4309 68.5318 23.7374 68.375 23.9524 68.1225C24.1674 67.87 24.2733 67.5425 24.2468 67.2119C24.2202 66.8813 24.0635 66.5749 23.811 66.3599C23.5585 66.1449 23.2309 66.039 22.9004 66.0655C19.6383 66.3098 16.3625 66.3098 13.1004 66.0655C12.9367 66.0524 12.772 66.0716 12.6158 66.1221C12.4596 66.1726 12.3148 66.2534 12.1898 66.3599C12.0648 66.4663 11.9619 66.5964 11.8872 66.7425C11.8124 66.8887 11.7671 67.0482 11.754 67.2119C11.7409 67.3756 11.7601 67.5402 11.8106 67.6965C11.8611 67.8527 11.9419 67.9975 12.0484 68.1225C12.1548 68.2475 12.2848 68.3504 12.431 68.4251C12.5772 68.4999 12.7367 68.5451 12.9004 68.5583ZM22.9004 73.5655C19.6383 73.8098 16.3625 73.8098 13.1004 73.5655C12.7698 73.539 12.4423 73.6449 12.1898 73.8599C11.9373 74.0749 11.7805 74.3813 11.754 74.7119C11.7275 75.0425 11.8334 75.37 12.0484 75.6225C12.2633 75.875 12.5698 76.0318 12.9004 76.0583C14.4958 76.1852 16.212 76.2499 18.0004 76.2499C19.7888 76.2499 21.505 76.1852 23.1004 76.0583C23.2641 76.0451 23.4235 75.9999 23.5697 75.9251C23.7159 75.8504 23.846 75.7475 23.9524 75.6225C24.0589 75.4975 24.1396 75.3527 24.1902 75.1965C24.2407 75.0402 24.2599 74.8756 24.2468 74.7119C24.2336 74.5482 24.1884 74.3887 24.1136 74.2425C24.0388 74.0964 23.936 73.9663 23.811 73.8599C23.686 73.7534 23.5412 73.6726 23.385 73.6221C23.2287 73.5716 23.0641 73.5524 22.9004 73.5655Z" fill="black"/>
</g>
<defs>
<clipPath id="clip0_303_53">
<rect width="80" height="80" fill="white" transform="translate(0.5)"/>
</clipPath>
</defs>
</svg>
