<svg width="81" height="80" viewBox="0 0 81 80" fill="none" xmlns="http://www.w3.org/2000/svg">
<g clip-path="url(#clip0_272_205)">
<path d="M75.5 46.6667H68.8333V43.3333H75.5C75.9419 43.3329 76.3656 43.1572 76.678 42.8447C76.9905 42.5322 77.1662 42.1086 77.1667 41.6667V5C77.1662 4.55811 76.9905 4.13444 76.678 3.82198C76.3656 3.50951 75.9419 3.33377 75.5 3.33333H5.5C5.05811 3.33377 4.63444 3.50951 4.32198 3.82198C4.00951 4.13444 3.83377 4.55811 3.83333 5V41.6667C3.83377 42.1086 4.00951 42.5322 4.32198 42.8447C4.63444 43.1572 5.05811 43.3329 5.5 43.3333H50.5V46.6667H5.5C4.17432 46.6653 2.90332 46.1381 1.96593 45.2007C1.02853 44.2633 0.501324 42.9923 0.5 41.6667L0.5 5C0.501324 3.67432 1.02853 2.40332 1.96593 1.46593C2.90332 0.528533 4.17432 0.00132369 5.5 0L75.5 0C76.8257 0.00132369 78.0967 0.528533 79.0341 1.46593C79.9715 2.40332 80.4987 3.67432 80.5 5V41.6667C80.4987 42.9923 79.9715 44.2633 79.0341 45.2007C78.0967 46.1381 76.8257 46.6653 75.5 46.6667ZM63.8333 80H30.5C30.058 80 29.634 79.8244 29.3215 79.5118C29.0089 79.1993 28.8333 78.7754 28.8333 78.3333V68.3333C28.8333 67.8913 29.0089 67.4674 29.3215 67.1548C29.634 66.8423 30.058 66.6667 30.5 66.6667H63.8333C64.2754 66.6667 64.6993 66.8423 65.0118 67.1548C65.3244 67.4674 65.5 67.8913 65.5 68.3333V78.3333C65.5 78.7754 65.3244 79.1993 65.0118 79.5118C64.6993 79.8244 64.2754 80 63.8333 80ZM32.1667 76.6667H62.1667V70H32.1667V76.6667Z" fill="#464646"/>
<path d="M52.1673 58.3333H48.834V51.6667C48.8341 51.2247 49.0097 50.8008 49.3223 50.4883L55.5007 44.31V33.3333C55.5033 31.124 56.3821 29.0059 57.9444 27.4437C59.5066 25.8815 61.6247 25.0026 63.834 25H65.5007C66.8263 25.0013 68.0973 25.5285 69.0347 26.4659C69.9721 27.4033 70.4993 28.6743 70.5007 30V45H67.1673V30C67.1669 29.5581 66.9911 29.1344 66.6787 28.822C66.3662 28.5095 65.9425 28.3338 65.5007 28.3333H63.834C62.5083 28.3347 61.2373 28.8619 60.2999 29.7993C59.3625 30.7367 58.8353 32.0077 58.834 33.3333V45C58.8339 45.442 58.6582 45.8658 58.3457 46.1783L52.1673 52.3567V58.3333Z" fill="#464646"/>
<path d="M62.1675 69.9996H32.1675C31.7255 69.9996 31.3016 69.824 30.989 69.5114C30.6765 69.1989 30.5009 68.7749 30.5009 68.3329V62.3563L24.3225 56.1779C24.01 55.8654 23.8343 55.4416 23.8342 54.9996V48.3329H27.1675V54.3096L33.3459 60.4879C33.6585 60.8004 33.8341 61.2243 33.8342 61.6662V66.6662H60.5009V61.6662C60.501 61.2243 60.6766 60.8004 60.9892 60.4879L67.1675 54.3096V44.9996H70.5009V54.9996C70.5008 55.4416 70.3251 55.8654 70.0126 56.1779L63.8342 62.3563V68.3329C63.8342 68.7749 63.6586 69.1989 63.3461 69.5114C63.0335 69.824 62.6096 69.9996 62.1675 69.9996ZM47.1675 33.3329H50.5009V36.6662H47.1675V33.3329ZM40.5009 33.3329H43.8342V36.6662H40.5009V33.3329ZM40.5009 24.9996H53.8342V28.3329H40.5009V24.9996ZM53.8342 16.6662H70.5009V19.9996H53.8342V16.6662ZM40.5009 16.6662H50.5009V19.9996H40.5009V16.6662ZM60.5009 8.33291H70.5009V11.6662H60.5009V8.33291ZM40.5009 8.33291H57.1675V11.6662H40.5009V8.33291ZM22.1675 23.3329C18.4925 23.3329 15.5009 19.5946 15.5009 14.9996C15.4281 14.1056 15.5506 13.2066 15.8598 12.3647C16.1691 11.5228 16.6578 10.7582 17.292 10.124C17.9262 9.48984 18.6908 9.00116 19.5326 8.69187C20.3745 8.38259 21.2736 8.26011 22.1675 8.33291C23.0615 8.26011 23.9606 8.38259 24.8024 8.69187C25.6443 9.00116 26.4089 9.48984 27.0431 10.124C27.6773 10.7582 28.166 11.5228 28.4753 12.3647C28.7845 13.2066 28.907 14.1056 28.8342 14.9996C28.8342 19.5946 25.8425 23.3329 22.1675 23.3329ZM22.1675 11.6662C19.1792 11.6662 18.8342 13.5696 18.8342 14.9996C18.8342 17.6629 20.3925 19.9996 22.1675 19.9996C23.9425 19.9996 25.5009 17.6629 25.5009 14.9996C25.5009 13.5696 25.1559 11.6662 22.1675 11.6662Z" fill="#464646"/>
<path d="M32.1667 36.6663H12.1667C11.7247 36.6663 11.3007 36.4907 10.9882 36.1781C10.6756 35.8656 10.5 35.4416 10.5 34.9996V26.1563C10.4968 24.9715 10.9158 23.8244 11.6818 22.9207C12.4478 22.0169 13.5108 21.4156 14.68 21.2246L21.8934 20.0229C22.0744 19.9937 22.259 19.9937 22.44 20.0229L29.6567 21.2246C30.8256 21.4163 31.888 22.0182 32.6534 22.9222C33.4188 23.8263 33.8371 24.9734 33.8334 26.1579V34.9996C33.8334 35.4416 33.6578 35.8656 33.3452 36.1781C33.0326 36.4907 32.6087 36.6663 32.1667 36.6663ZM13.8334 33.3329H30.5V26.1563C30.5012 25.7614 30.3615 25.379 30.1062 25.0779C29.8508 24.7767 29.4964 24.5764 29.1067 24.5129L22.1667 23.3563L15.2267 24.5129C14.8369 24.5764 14.4826 24.7767 14.2272 25.0779C13.9718 25.379 13.8322 25.7614 13.8334 26.1563V33.3329Z" fill="#464646"/>
</g>
<defs>
<clipPath id="clip0_272_205">
<rect width="80" height="80" fill="white" transform="translate(0.5)"/>
</clipPath>
</defs>
</svg>
