<svg width="81" height="80" viewBox="0 0 81 80" fill="none" xmlns="http://www.w3.org/2000/svg">
<path d="M45.9517 72.4992H16.3887C16.0573 72.4989 15.7395 72.3671 15.5052 72.1328C15.2708 71.8984 15.139 71.5807 15.1387 71.2492V16.162C15.1451 15.8325 15.2788 15.5182 15.5119 15.2852C15.7449 15.0521 16.0592 14.9184 16.3887 14.912H55.0898C55.4213 14.9123 55.739 15.0441 55.9734 15.2785C56.2077 15.5128 56.3395 15.8306 56.3398 16.162V48.7615C56.3398 49.093 56.4715 49.4109 56.706 49.6453C56.9404 49.8798 57.2583 50.0115 57.5898 50.0115C57.9214 50.0115 58.2393 49.8798 58.4737 49.6453C58.7081 49.4109 58.8398 49.093 58.8398 48.7615V16.162C58.8388 15.1677 58.4433 14.2145 57.7403 13.5115C57.0373 12.8085 56.0841 12.4131 55.0898 12.412H53.3637V8.97629C53.3644 8.38278 53.2313 7.79676 52.9743 7.26177C52.7173 6.72677 52.3431 6.25657 51.8794 5.88609C51.4119 5.50864 50.8653 5.24144 50.2803 5.10439C49.6953 4.96733 49.087 4.96394 48.5005 5.09447L16.0017 12.4443C15.0805 12.5377 14.2259 12.9698 13.6048 13.6565C12.9837 14.3433 12.6394 15.236 12.6387 16.162V71.2492C12.6398 72.2435 13.0352 73.1967 13.7382 73.8997C14.4412 74.6027 15.3944 74.9982 16.3887 74.9992H45.9517C46.2832 74.9992 46.6011 74.8675 46.8355 74.6331C47.07 74.3987 47.2017 74.0808 47.2017 73.7492C47.2017 73.4177 47.07 73.0998 46.8355 72.8654C46.6011 72.6309 46.2832 72.4992 45.9517 72.4992ZM49.0437 7.53526C49.264 7.48596 49.4925 7.4872 49.7122 7.53889C49.9318 7.59058 50.1369 7.69139 50.3121 7.83372C50.4839 7.97054 50.6227 8.1443 50.7182 8.34209C50.8137 8.53989 50.8635 8.75664 50.8638 8.97629V12.412H27.4807L49.0437 7.53526Z" fill="black"/>
<path d="M50.7402 37.165C50.7402 34.1983 49.8605 31.2982 48.2123 28.8315C46.5641 26.3648 44.2214 24.4422 41.4805 23.3069C38.7396 22.1715 35.7236 21.8745 32.8139 22.4533C29.9042 23.032 27.2314 24.4607 25.1336 26.5584C23.0358 28.6562 21.6072 31.329 21.0285 34.2387C20.4497 37.1484 20.7467 40.1644 21.882 42.9053C23.0174 45.6462 24.9399 47.9889 27.4067 49.6371C29.8734 51.2853 32.7735 52.165 35.7402 52.165C39.7171 52.1606 43.5298 50.5788 46.3419 47.7667C49.154 44.9547 50.7358 41.1419 50.7402 37.165ZM29.6848 26.2381C27.9996 29.1904 27.0773 32.5165 27.0016 35.915H23.3036C23.5083 33.9071 24.1955 31.9784 25.3066 30.2935C26.4177 28.6085 27.9198 27.2172 29.6848 26.2381ZM23.3036 38.415H27.0016C27.0773 41.8136 27.9996 45.1396 29.6848 48.0919C27.9198 47.1129 26.4177 45.7216 25.3066 44.0366C24.1955 42.3516 23.5083 40.423 23.3036 38.415ZM34.4902 49.4014C31.8647 48.2948 29.7816 43.7977 29.4988 38.415H34.4902V49.4014ZM34.4902 35.915H29.4988C29.7816 30.5323 31.8647 26.0353 34.4902 24.9287V35.915ZM48.1768 35.915H44.4789C44.4031 32.5165 43.4809 29.1904 41.7957 26.2381C43.5607 27.2172 45.0627 28.6085 46.1738 30.2935C47.285 31.9784 47.9721 33.9071 48.1768 35.915ZM36.9902 24.9287C39.6157 26.0353 41.6989 30.5323 41.9817 35.915H36.9902V24.9287ZM36.9902 49.4014V38.415H41.9817C41.6989 43.7977 39.6157 48.2948 36.9902 49.4014ZM41.7957 48.0919C43.4809 45.1396 44.4031 41.8136 44.4789 38.415H48.1768C47.9721 40.423 47.285 42.3516 46.1739 44.0366C45.0627 45.7216 43.5607 47.1129 41.7957 48.0919ZM43.8408 59.9995C43.8409 59.8353 43.8086 59.6728 43.7458 59.5211C43.683 59.3694 43.5909 59.2316 43.4748 59.1155C43.3587 58.9994 43.2209 58.9074 43.0692 58.8446C42.9175 58.7818 42.755 58.7495 42.5908 58.7495H25.7402C25.4087 58.7495 25.0908 58.8812 24.8563 59.1156C24.6219 59.35 24.4902 59.668 24.4902 59.9995C24.4902 60.331 24.6219 60.649 24.8563 60.8834C25.0908 61.1178 25.4087 61.2495 25.7402 61.2495H42.5908C42.755 61.2495 42.9175 61.2172 43.0692 61.1544C43.2209 61.0916 43.3587 60.9996 43.4748 60.8835C43.5909 60.7674 43.683 60.6296 43.7458 60.4779C43.8086 60.3262 43.8409 60.1637 43.8408 59.9995ZM20.7402 63.7495C20.4087 63.7495 20.0908 63.8812 19.8564 64.1156C19.6219 64.35 19.4902 64.668 19.4902 64.9995C19.4902 65.331 19.6219 65.649 19.8564 65.8834C20.0908 66.1178 20.4087 66.2495 20.7402 66.2495H42.1648C42.4963 66.2495 42.8142 66.1178 43.0487 65.8834C43.2831 65.649 43.4148 65.331 43.4148 64.9995C43.4148 64.668 43.2831 64.35 43.0487 64.1156C42.8142 63.8812 42.4963 63.7495 42.1648 63.7495H20.7402ZM57.1123 52.4995C54.8873 52.4995 52.7122 53.1593 50.8621 54.3955C49.0121 55.6316 47.5701 57.3886 46.7187 59.4443C45.8672 61.5 45.6444 63.762 46.0785 65.9443C46.5125 68.1266 47.584 70.1311 49.1573 71.7045C50.7307 73.2778 52.7352 74.3493 54.9175 74.7833C57.0998 75.2174 59.3618 74.9946 61.4175 74.1432C63.4732 73.2917 65.2302 71.8497 66.4663 69.9997C67.7025 68.1496 68.3623 65.9745 68.3623 63.7495C68.3589 60.7669 67.1726 57.9073 65.0635 55.7983C62.9545 53.6892 60.0949 52.5029 57.1123 52.4995ZM57.1123 72.4995C55.3817 72.4995 53.69 71.9863 52.2511 71.0249C50.8121 70.0634 49.6906 68.6968 49.0284 67.098C48.3661 65.4991 48.1928 63.7398 48.5304 62.0425C48.868 60.3451 49.7014 58.786 50.9251 57.5623C52.1488 56.3386 53.7079 55.5053 55.4053 55.1676C57.1026 54.83 58.8619 55.0033 60.4608 55.6656C62.0596 56.3278 63.4262 57.4493 64.3877 58.8883C65.3491 60.3272 65.8623 62.0189 65.8623 63.7495C65.8596 66.0693 64.9368 68.2933 63.2965 69.9337C61.6561 71.5741 59.4321 72.4968 57.1123 72.4995Z" fill="black"/>
<path d="M60.6034 59.949L55.6546 64.899L53.6209 62.8659C53.3858 62.6345 53.0689 62.5054 52.7391 62.5067C52.4093 62.508 52.0934 62.6395 51.8602 62.8728C51.627 63.106 51.4954 63.4219 51.4942 63.7517C51.4929 64.0815 51.622 64.3984 51.8534 64.6334L54.7709 67.5503C54.8869 67.6664 55.0247 67.7585 55.1763 67.8213C55.328 67.8841 55.4905 67.9165 55.6546 67.9165C55.8188 67.9165 55.9813 67.8841 56.133 67.8213C56.2846 67.7585 56.4224 67.6664 56.5384 67.5503L62.3709 61.7165C62.4874 61.6005 62.5798 61.4627 62.643 61.311C62.7061 61.1593 62.7387 60.9966 62.7388 60.8322C62.739 60.6678 62.7067 60.5051 62.6439 60.3532C62.5811 60.2013 62.489 60.0633 62.3728 59.9471C62.2565 59.8309 62.1185 59.7388 61.9667 59.6759C61.8148 59.6131 61.652 59.5809 61.4877 59.5811C61.3233 59.5812 61.1606 59.6138 61.0089 59.6769C60.8571 59.7401 60.7193 59.8325 60.6034 59.949Z" fill="black"/>
</svg>
