<svg width="81" height="80" viewBox="0 0 81 80" fill="none" xmlns="http://www.w3.org/2000/svg">
<g clip-path="url(#clip0_309_222)">
<path d="M29.875 26.875C32.1 26.875 34.2751 26.2152 36.1252 24.979C37.9752 23.7429 39.4172 21.9859 40.2686 19.9302C41.1201 17.8745 41.3429 15.6125 40.9088 13.4302C40.4748 11.248 39.4033 9.24339 37.83 7.67005C36.2566 6.09671 34.2521 5.02525 32.0698 4.59117C29.8875 4.15709 27.6255 4.37987 25.5698 5.23136C23.5141 6.08285 21.7571 7.52479 20.521 9.37484C19.2848 11.2249 18.625 13.4 18.625 15.625C18.6285 18.6076 19.8148 21.4671 21.9239 23.5761C24.0329 25.6852 26.8924 26.8715 29.875 26.875ZM29.875 6.87501C31.6056 6.87501 33.2973 7.38818 34.7362 8.34965C36.1752 9.31111 37.2967 10.6777 37.9589 12.2765C38.6212 13.8754 38.7945 15.6347 38.4569 17.332C38.1193 19.0294 37.2859 20.5885 36.0622 21.8122C34.8385 23.0359 33.2794 23.8693 31.582 24.2069C29.8847 24.5445 28.1254 24.3712 26.5265 23.709C24.9277 23.0467 23.5611 21.9252 22.5996 20.4862C21.6382 19.0473 21.125 17.3556 21.125 15.625C21.1276 13.3052 22.0503 11.0811 23.6907 9.44069C25.3311 7.80032 27.5552 6.87761 29.875 6.87501ZM72.4137 38.6681C71.8565 39.3525 71.2351 39.982 70.5582 40.5483C72.7757 41.5649 74.6554 43.196 75.9743 45.2482C77.2933 47.3003 77.9963 49.6876 78 52.1271V63.1018C78 63.1049 77.9994 63.1079 77.9982 63.1107C77.9971 63.1135 77.9954 63.1161 77.9932 63.1182C77.9911 63.1204 77.9885 63.1221 77.9857 63.1232C77.9829 63.1244 77.9799 63.125 77.9768 63.125L63 63.1143V52.819L69.12 41.599C67.9588 42.3403 66.6923 42.9019 65.3634 43.2648L61.75 49.8893L58.1366 43.2648C56.8077 42.9019 55.5412 42.3403 54.38 41.599L60.5 52.819V63.1125L45.5 63.1018V52.1271C45.5038 49.6876 46.2068 47.3003 47.5257 45.2482C48.8447 43.196 50.7243 41.5649 52.9419 40.5483C52.2649 39.982 51.6436 39.3525 51.0863 38.6681C48.6456 39.9686 46.6042 41.9077 45.1799 44.2782C43.7557 46.6487 43.0022 49.3616 43 52.1271V63.1018C43.0009 63.7707 43.267 64.412 43.74 64.885C44.213 65.358 44.8543 65.6241 45.5232 65.625H77.9768C78.6457 65.6241 79.287 65.358 79.76 64.885C80.233 64.412 80.4991 63.7707 80.5 63.1018V52.1271C80.4978 49.3616 79.7443 46.6487 78.3201 44.2782C76.8958 41.9077 74.8544 39.9686 72.4137 38.6681Z" fill="black"/>
<path d="M61.7508 41.25C63.9758 41.25 66.1509 40.5902 68.001 39.354C69.851 38.1179 71.293 36.3609 72.1444 34.3052C72.9959 32.2495 73.2187 29.9875 72.7846 27.8052C72.3506 25.623 71.2791 23.6184 69.7058 22.0451C68.1324 20.4717 66.1279 19.4003 63.9456 18.9662C61.7633 18.5321 59.5013 18.7549 57.4456 19.6064C55.3899 20.4578 53.6329 21.8998 52.3968 23.7498C51.1606 25.5999 50.5008 27.775 50.5008 30C50.5043 32.9826 51.6906 35.8421 53.7997 37.9511C55.9087 40.0602 58.7682 41.2465 61.7508 41.25ZM61.7508 21.25C63.4814 21.25 65.1731 21.7632 66.612 22.7246C68.051 23.6861 69.1725 25.0527 69.8347 26.6515C70.497 28.2504 70.6703 30.0097 70.3327 31.707C69.9951 33.4044 69.1617 34.9635 67.938 36.1872C66.7143 37.4109 65.1552 38.2443 63.4578 38.5819C61.7605 38.9195 60.0012 38.7462 58.4023 38.084C56.8035 37.4217 55.4369 36.3002 54.4754 34.8612C53.514 33.4223 53.0008 31.7306 53.0008 30C53.0034 27.6802 53.9261 25.4561 55.5665 23.8157C57.2069 22.1753 59.431 21.2526 61.7508 21.25ZM6.11482 50.8954C6.11536 54.3913 6.87635 57.8453 8.34502 61.0178C9.81368 64.1902 11.9549 67.0052 14.6201 69.2676C18.3768 72.4255 24.5157 75.6415 33.934 75.6415C37.493 75.6161 41.0392 75.2135 44.5133 74.4403C44.8151 74.3756 45.0823 74.2015 45.2634 73.9514C45.4445 73.7014 45.5267 73.3933 45.4941 73.0863C45.4615 72.7793 45.3164 72.4953 45.0869 72.2888C44.8573 72.0824 44.5595 71.9683 44.2508 71.9684C28.7106 71.9684 18.4982 63.7421 17.8787 50.8954H21.1917C21.6129 50.8944 22.0257 50.7775 22.3848 50.5573C22.7439 50.3371 23.0354 50.0223 23.2273 49.6473C23.4192 49.2724 23.5041 48.8518 23.4726 48.4317C23.4412 48.0117 23.2946 47.6085 23.049 47.2663L13.541 34.0875C13.3297 33.7903 13.0505 33.5479 12.7266 33.3805C12.4027 33.213 12.0434 33.1255 11.6788 33.125H11.6714C11.3019 33.1272 10.9384 33.2186 10.6117 33.3914C10.2851 33.5642 10.005 33.8132 9.79518 34.1174L0.918899 47.2839C0.677802 47.627 0.535392 48.0296 0.507158 48.448C0.478924 48.8663 0.565947 49.2844 0.758763 49.6568C0.951578 50.0291 1.2428 50.3415 1.60076 50.5599C1.95872 50.7783 2.36971 50.8943 2.78902 50.8954H6.11482ZM11.6849 35.7867L20.781 48.3954H16.5988C16.2673 48.3954 15.9494 48.5271 15.715 48.7615C15.4805 48.9959 15.3488 49.3139 15.3488 49.6454C15.3488 61.4563 22.3081 69.9939 33.7619 73.1403C25.1755 73.1 19.6207 70.2051 16.229 67.3535C13.6923 65.1905 11.6875 62.4725 10.37 59.4102C9.05246 56.3479 8.45754 53.0234 8.6313 49.6942C8.63796 49.5261 8.6106 49.3583 8.55084 49.201C8.49108 49.0437 8.40017 48.9001 8.28355 48.7788C8.16693 48.6576 8.02701 48.5611 7.87218 48.4952C7.71735 48.4293 7.55081 48.3953 7.38255 48.3954H3.18452L11.6849 35.7867ZM12.8267 30.766C13.6524 30.9735 14.4079 31.3972 15.0154 31.9935C16.322 29.4295 18.4513 27.3784 21.0623 26.1686C20.3875 25.6037 19.768 24.9757 19.2122 24.2933C16.4795 25.7574 14.2536 28.0137 12.8267 30.766ZM48.6076 37.2354C48.5158 34.5601 47.722 31.956 46.3059 29.6844C44.8898 27.4127 42.9012 25.5535 40.5396 24.2931C39.9823 24.9775 39.3609 25.607 38.684 26.1733C40.9016 27.1899 42.7812 28.821 44.1001 30.8732C45.4191 32.9253 46.1221 35.3126 46.1258 37.7521V39.18C46.8942 38.4599 47.7247 37.8092 48.6076 37.2354Z" fill="black"/>
<path d="M25.9699 48.7352C25.9529 49.4553 25.7732 50.1622 25.4441 50.8029C25.3619 50.9566 25.2715 51.1057 25.1732 51.2496H40.5231C40.565 50.4089 40.6668 49.5722 40.8277 48.7459L31.1259 48.7389V38.4437L37.2459 27.2237C36.0847 27.9649 34.8182 28.5265 33.4892 28.8895L29.8759 35.514L26.2625 28.8894C24.9336 28.5265 23.6671 27.9649 22.5059 27.2236L28.6259 38.4437V48.7371L25.9699 48.7352Z" fill="black"/>
</g>
<defs>
<clipPath id="clip0_309_222">
<rect width="80" height="80" fill="white" transform="translate(0.5)"/>
</clipPath>
</defs>
</svg>
