<svg width="81" height="80" viewBox="0 0 81 80" fill="none" xmlns="http://www.w3.org/2000/svg">
<path d="M50.0229 32.8573C51.1531 32.8573 52.2579 32.5222 53.1976 31.8943C54.1373 31.2664 54.8697 30.3739 55.3022 29.3298C55.7347 28.2856 55.8479 27.1367 55.6274 26.0282C55.4069 24.9197 54.8626 23.9015 54.0635 23.1024C53.2643 22.3032 52.2461 21.759 51.1377 21.5385C50.0292 21.318 48.8803 21.4312 47.8361 21.8637C46.792 22.2962 45.8995 23.0286 45.2716 23.9683C44.6437 24.908 44.3086 26.0128 44.3086 27.143C44.3104 28.658 44.913 30.1104 45.9842 31.1817C47.0555 32.2529 48.5079 32.8555 50.0229 32.8573ZM50.0229 23.3335C50.7763 23.3335 51.5129 23.5569 52.1393 23.9755C52.7658 24.3941 53.2541 24.9891 53.5424 25.6852C53.8308 26.3813 53.9062 27.1472 53.7592 27.8862C53.6122 28.6252 53.2494 29.304 52.7166 29.8367C52.1838 30.3695 51.5051 30.7323 50.7661 30.8793C50.0271 31.0263 49.2611 30.9509 48.565 30.6625C47.8689 30.3742 47.274 29.8859 46.8554 29.2595C46.4368 28.633 46.2134 27.8965 46.2134 27.143C46.2146 26.133 46.6164 25.1648 47.3305 24.4507C48.0447 23.7365 49.0129 23.3347 50.0229 23.3335Z" fill="black"/>
<path d="M18.1184 50.1694C18.6444 50.1694 19.0708 49.743 19.0708 49.217C19.0708 48.691 18.6444 48.2646 18.1184 48.2646C17.5924 48.2646 17.166 48.691 17.166 49.217C17.166 49.743 17.5924 50.1694 18.1184 50.1694Z" fill="black"/>
<path d="M72.2728 70.4764H59.6637C60.1269 69.9647 60.4701 69.3561 60.6685 68.695C60.834 68.0495 60.866 67.377 60.7623 66.7187C60.6586 66.0604 60.4216 65.4303 60.0656 64.8669C61.676 64.1786 63.0065 62.9663 63.8414 61.4269C64.2025 60.6438 64.404 59.7966 64.434 58.9347C64.464 58.0729 64.322 57.2137 64.0161 56.4074C65.0052 55.6855 66.7371 54.1259 67.0994 51.854C67.3742 50.1312 66.8175 48.3859 65.4437 46.6569C66.3537 45.7035 66.9166 44.4717 67.0418 43.1597C67.1285 41.6607 66.4956 40.2331 65.1609 38.9169C65.0017 38.7648 64.8228 38.6349 64.629 38.5307L68.928 28.2364C69.118 27.7773 69.1192 27.2618 68.9312 26.8019C68.7432 26.342 68.3814 25.9748 67.9242 25.7802L61.4537 23.0312V14.2388C61.4466 13.4875 61.1417 12.7697 60.606 12.2429C60.0702 11.7161 59.3474 11.4233 58.5961 11.4288H41.4514C40.7002 11.4235 39.9776 11.7162 39.442 12.2429C38.9064 12.7696 38.6015 13.4872 38.5942 14.2383V22.6264L31.1709 25.7802C30.7128 25.976 30.3507 26.3448 30.1634 26.8064C29.9761 27.268 29.9788 27.7849 30.1709 28.2445L33.8347 36.7812C34.433 36.5625 35.0377 36.3617 35.648 36.1793L31.9266 27.4997L38.5937 24.6674V35.4445C39.2452 35.3153 39.8801 35.2093 40.4985 35.1264V14.2388C40.5009 13.9883 40.6026 13.749 40.7812 13.5734C40.9598 13.3978 41.2009 13.3002 41.4514 13.3021H58.5961C58.8465 13.3003 59.0874 13.398 59.266 13.5735C59.4445 13.7491 59.5461 13.9884 59.5485 14.2388V38.1102H54.1371C54.6817 38.7037 55.1768 39.3408 55.6175 40.015H63.0985C63.3594 40.0317 63.6105 40.1211 63.8233 40.2731C64.7471 41.1835 65.1904 42.114 65.1409 43.0388C65.0547 44.6355 63.5633 45.8364 63.5509 45.8459C63.4469 45.9269 63.361 46.0287 63.2984 46.1446C63.2359 46.2606 63.1981 46.3884 63.1875 46.5197C63.1769 46.6511 63.1937 46.7832 63.2368 46.9077C63.2799 47.0322 63.3484 47.1464 63.438 47.2431C64.8318 48.7488 65.4309 50.1954 65.2199 51.545C64.8699 53.7797 62.419 55.1859 62.3966 55.1983C62.1925 55.3119 62.0372 55.4967 61.9605 55.7173C61.8837 55.938 61.8908 56.1792 61.9804 56.395C62.6485 58.0045 62.7004 59.414 62.1337 60.5826C61.1118 62.6921 58.3937 63.4802 58.3685 63.4874C58.2188 63.5287 58.0815 63.6061 57.9686 63.7128C57.8557 63.8194 57.7706 63.9521 57.7207 64.0992C57.6708 64.2462 57.6577 64.4033 57.6825 64.5566C57.7072 64.7099 57.7691 64.8549 57.8628 64.9788C58.7704 66.1783 59.099 67.2493 58.8399 68.1616C58.4652 69.4816 56.9714 70.2593 56.4971 70.4764H50.2009C49.8739 70.4994 49.5457 70.4547 49.2368 70.3452C48.9279 70.2358 48.6448 70.0638 48.4053 69.8401C48.1657 69.6163 47.9749 69.3457 47.8446 69.0449C47.7143 68.7442 47.6474 68.4198 47.648 68.092C47.6486 67.7643 47.7168 67.4401 47.8482 67.1399C47.9796 66.8396 48.1715 66.5697 48.4119 66.3469C48.6523 66.1241 48.936 65.9532 49.2454 65.8449C49.5547 65.7366 49.8831 65.6931 50.2099 65.7174H52.4052C52.5327 65.7214 52.6598 65.6998 52.7788 65.6537C52.8978 65.6077 53.0063 65.5382 53.098 65.4494C53.1896 65.3607 53.2625 65.2544 53.3122 65.1369C53.362 65.0194 53.3877 64.8931 53.3877 64.7655C53.3877 64.6379 53.362 64.5115 53.3122 64.394C53.2625 64.2765 53.1896 64.1702 53.098 64.0815C53.0063 63.9927 52.8978 63.9232 52.7788 63.8772C52.6598 63.8312 52.5327 63.8095 52.4052 63.8135H50.2099C49.8824 63.8381 49.5533 63.7947 49.2433 63.6863C48.9333 63.5778 48.649 63.4065 48.4083 63.1831C48.1675 62.9597 47.9755 62.689 47.8441 62.3879C47.7128 62.0869 47.645 61.762 47.645 61.4335C47.645 61.1051 47.7128 60.7802 47.8441 60.4792C47.9755 60.1781 48.1675 59.9074 48.4083 59.684C48.649 59.4606 48.9333 59.2893 49.2433 59.1808C49.5533 59.0723 49.8824 59.029 50.2099 59.0535H54.3099C54.4375 59.0576 54.5645 59.0359 54.6835 58.9899C54.8025 58.9439 54.9111 58.8744 55.0027 58.7856C55.0944 58.6968 55.1672 58.5905 55.217 58.473C55.2668 58.3555 55.2924 58.2292 55.2924 58.1016C55.2924 57.974 55.2668 57.8477 55.217 57.7302C55.1672 57.6127 55.0944 57.5064 55.0027 57.4176C54.9111 57.3288 54.8025 57.2594 54.6835 57.2134C54.5645 57.1673 54.4375 57.1457 54.3099 57.1497H50.2099C49.0494 57.1267 47.9272 57.5647 47.089 58.3677C46.2509 59.1707 45.7652 60.2731 45.7385 61.4335C45.7422 62.0796 45.8945 62.7161 46.1836 63.2939C46.4727 63.8716 46.8908 64.3752 47.4056 64.7655C46.8908 65.1557 46.4727 65.6593 46.1836 66.237C45.8945 66.8148 45.7422 67.4513 45.7385 68.0974C45.7392 68.9493 46.0031 69.7802 46.4942 70.4764H36.2947C36.0318 70.4457 35.7823 70.3436 35.5733 70.1812L30.7804 65.9859C29.2828 64.7597 26.3328 64.7664 26.2147 64.7655H24.3099V44.7745H25.7461C27.2886 44.726 28.7816 44.2191 30.0347 43.3183C30.1414 43.2502 30.2385 43.1878 30.3266 43.135C40.1009 37.2559 49.0899 39.4055 50.2218 39.7126C52.298 41.1345 54.1314 44.5188 55.6752 49.775C55.7852 50.2736 55.7136 50.7951 55.4733 51.2456C55.2329 51.696 54.8396 52.0459 54.3642 52.2321C53.2418 52.6569 52.0071 52.2131 50.5852 50.8759C49.0666 49.4483 47.3442 47.7045 46.919 47.0278C46.8275 46.8834 46.6984 46.7665 46.5456 46.6897C46.7715 46.1513 46.9664 45.6004 47.1294 45.0397C47.1999 44.7971 47.171 44.5365 47.0492 44.3151C46.9275 44.0938 46.7228 43.9299 46.4802 43.8595C46.2376 43.7891 45.9769 43.8179 45.7556 43.9397C45.5342 44.0615 45.3703 44.2662 45.2999 44.5088C43.289 51.4331 37.8928 51.4416 37.6618 51.4383C37.4145 51.4408 37.1779 51.5395 37.0021 51.7133C36.8262 51.8872 36.7248 52.1227 36.7195 52.3699C36.7141 52.6172 36.8051 52.8568 36.9732 53.0382C37.1414 53.2195 37.3735 53.3283 37.6204 53.3416H37.6375C39.2666 53.2545 40.8487 52.7656 42.2429 51.9185C43.6371 51.0714 44.8001 49.8925 45.628 48.4869C46.7721 49.8146 47.9916 51.0754 49.2804 52.2631C50.7199 53.6169 52.1385 54.2974 53.5161 54.2974C54.0372 54.2961 54.5536 54.1996 55.0399 54.0126C55.9592 53.6504 56.7156 52.9667 57.1687 52.0886C57.6217 51.2105 57.7404 50.1978 57.5028 49.2388C56.8675 47.0769 54.9356 40.4959 51.1447 38.0388C51.0722 37.9919 50.9937 37.955 50.9114 37.9293C50.4923 37.7978 40.5142 34.7845 29.3447 41.5035C29.232 41.5722 29.1203 41.6424 29.0094 41.714C28.0571 42.4135 26.9193 42.8157 25.739 42.8702H12.8818C12.6292 42.8702 12.387 42.9706 12.2084 43.1492C12.0298 43.3278 11.9294 43.57 11.9294 43.8226V66.6693C11.9303 67.4267 12.2317 68.1528 12.7673 68.6883C13.303 69.2237 14.0292 69.5248 14.7866 69.5255H21.4533C22.2107 69.5248 22.9369 69.2237 23.4725 68.6883C24.0082 68.1528 24.3095 67.4267 24.3104 66.6693H26.2523C27.0428 66.6693 28.8404 66.8583 29.5494 67.4383L33.0199 70.4764H8.72945C8.59396 70.4587 8.45625 70.4701 8.32552 70.5099C8.1948 70.5496 8.07406 70.6168 7.97137 70.707C7.86868 70.7971 7.78641 70.9081 7.73005 71.0326C7.67369 71.1571 7.64453 71.2922 7.64453 71.4288C7.64453 71.5654 7.67369 71.7005 7.73005 71.825C7.78641 71.9494 7.86868 72.0605 7.97137 72.1506C8.07406 72.2407 8.1948 72.3079 8.32552 72.3477C8.45625 72.3875 8.59396 72.3989 8.72945 72.3812H72.2723C72.4078 72.3989 72.5455 72.3875 72.6762 72.3477C72.807 72.3079 72.9277 72.2407 73.0304 72.1506C73.1331 72.0605 73.2153 71.9494 73.2717 71.825C73.3281 71.7005 73.3572 71.5654 73.3572 71.4288C73.3572 71.2922 73.3281 71.1571 73.2717 71.0326C73.2153 70.9081 73.1331 70.7971 73.0304 70.707C72.9277 70.6168 72.807 70.5496 72.6762 70.5099C72.5455 70.4701 72.4083 70.4587 72.2728 70.4764ZM62.7452 38.1107H61.4537V25.0869L67.1661 27.5245L62.7452 38.1107ZM22.4056 66.6693C22.4054 66.9218 22.305 67.1639 22.1264 67.3424C21.9479 67.521 21.7058 67.6214 21.4533 67.6216H14.7866C14.5341 67.6214 14.292 67.521 14.1134 67.3424C13.9349 67.1639 13.8345 66.9218 13.8342 66.6693V44.774H22.4056V66.6693Z" fill="black"/>
</svg>
