<svg width="81" height="80" viewBox="0 0 81 80" fill="none" xmlns="http://www.w3.org/2000/svg">
<path d="M27.2255 68.2999C24.6782 67.0926 22.3066 65.5452 20.1755 63.6999C22.275 62.54 24.4656 61.5534 26.7255 60.7499C27.0405 60.6438 27.3004 60.417 27.4481 60.1192C27.5958 59.8215 27.6191 59.4773 27.513 59.1624C27.407 58.8475 27.1801 58.5876 26.8824 58.4399C26.5847 58.2922 26.2405 58.2688 25.9255 58.3749C23.2676 59.3197 20.6991 60.4993 18.2505 61.8999C12.8121 56.363 9.62274 49.0043 9.30054 41.2499H21.4755C21.5874 46.0909 22.3613 50.8938 23.7755 55.5249C23.8475 55.7867 24.0045 56.0171 24.2217 56.18C24.4389 56.3429 24.7041 56.4291 24.9755 56.4249H25.3255C25.4859 56.3791 25.6355 56.3017 25.7655 56.1973C25.8955 56.0928 26.0033 55.9633 26.0825 55.8166C26.1617 55.6698 26.2108 55.5086 26.2267 55.3426C26.2427 55.1766 26.2253 55.0091 26.1755 54.8499C24.8331 50.4534 24.093 45.8952 23.9755 41.2999H39.2505V43.0249C39.2505 43.3564 39.3822 43.6744 39.6167 43.9088C39.8511 44.1432 40.169 44.2749 40.5005 44.2749C40.8321 44.2749 41.15 44.1432 41.3844 43.9088C41.6188 43.6744 41.7505 43.3564 41.7505 43.0249V41.2499H57.0255C57.0255 41.7999 57.0255 42.3499 57.0255 42.8999C57.0154 43.0628 57.038 43.2262 57.0919 43.3803C57.1458 43.5344 57.2299 43.6761 57.3394 43.7972C57.4489 43.9184 57.5814 44.0164 57.7293 44.0855C57.8772 44.1547 58.0374 44.1936 58.2005 44.1999C58.5218 44.1942 58.829 44.0674 59.0607 43.8449C59.2925 43.6224 59.4317 43.3206 59.4505 42.9999C59.4505 42.4249 59.4505 41.8249 59.4505 41.2249H68.0005C68.3321 41.2249 68.65 41.0932 68.8844 40.8588C69.1188 40.6244 69.2505 40.3064 69.2505 39.9749C69.2505 39.6434 69.1188 39.3254 68.8844 39.091C68.65 38.8566 68.3321 38.7249 68.0005 38.7249H59.5255C59.4157 32.7477 58.3001 26.8316 56.2255 21.2249C58.4792 20.357 60.6681 19.3294 62.7755 18.1499C68.529 23.9664 71.7543 31.8186 71.7505 39.9999C71.7505 40.3314 71.8822 40.6494 72.1167 40.8838C72.3511 41.1182 72.669 41.2499 73.0005 41.2499C73.3321 41.2499 73.65 41.1182 73.8844 40.8838C74.1189 40.6494 74.2505 40.3314 74.2505 39.9999C74.2496 35.489 73.3418 31.0244 71.5809 26.8713C69.8201 22.7183 67.2422 18.9617 64.0005 15.8249C63.9075 15.6844 63.7778 15.5721 63.6255 15.4999C59.3761 11.4645 54.1444 8.61163 48.4505 7.2249H48.0505C43.1168 6.07347 37.9843 6.07347 33.0505 7.2249H32.6505C26.9215 8.59649 21.6538 11.4502 17.3755 15.4999C17.2233 15.5721 17.0936 15.6844 17.0005 15.8249C13.0798 19.6223 10.1401 24.3151 8.43423 29.4999C6.72836 34.6847 6.30738 40.2063 7.2075 45.5897C8.10762 50.9732 10.3019 56.0575 13.6016 60.4054C16.9013 64.7532 21.2078 68.2345 26.1505 70.5499C26.319 70.6409 26.5092 70.6842 26.7005 70.6749C26.9818 70.6705 27.2534 70.5714 27.4713 70.3935C27.6892 70.2157 27.8408 69.9695 27.9015 69.6949C27.9622 69.4202 27.9285 69.1331 27.8059 68.8799C27.6832 68.6268 27.4787 68.4224 27.2255 68.2999ZM23.9755 38.7499C24.0827 33.0357 25.1562 27.3808 27.1505 22.0249C31.0735 23.238 35.1454 23.9027 39.2505 23.9999V38.7499H23.9755ZM33.7505 9.4999C35.56 9.11077 37.4007 8.88486 39.2505 8.8249V21.4999C35.4358 21.3976 31.652 20.7838 28.0005 19.6749C29.5461 16.0865 31.4739 12.6751 33.7505 9.4999ZM25.7005 18.8749C23.7941 18.1731 21.9395 17.3377 20.1505 16.3749C23.0487 13.8576 26.3885 11.8995 30.0005 10.5999C28.3341 13.2307 26.8955 15.9991 25.7005 18.8749ZM47.2505 9.4999C49.5272 12.6751 51.455 16.0865 53.0005 19.6749C49.3652 20.7794 45.5985 21.3932 41.8005 21.4999V8.8249C43.6336 8.88783 45.4575 9.11372 47.2505 9.4999ZM57.0255 38.7499H41.7505V23.9999C45.8557 23.9027 49.9276 23.238 53.8505 22.0249C55.8449 27.3808 56.9184 33.0357 57.0255 38.7499ZM51.0005 10.5999C54.6089 11.8844 57.9484 13.8254 60.8505 16.3249C59.0616 17.2877 57.207 18.1231 55.3005 18.8249C54.103 15.9663 52.6645 13.2147 51.0005 10.5999ZM18.2255 18.0999C20.3323 19.2879 22.5212 20.3239 24.7755 21.1999C22.701 26.8066 21.5854 32.7227 21.4755 38.6999H9.32554C9.61452 30.9698 12.79 23.6287 18.2255 18.1249V18.0999Z" fill="#0D1935"/>
<path d="M72.9992 46.4502H31.4492C31.1177 46.4502 30.7998 46.5819 30.5653 46.8163C30.3309 47.0507 30.1992 47.3687 30.1992 47.7002V72.7002C30.1992 73.0317 30.3309 73.3497 30.5653 73.5841C30.7998 73.8185 31.1177 73.9502 31.4492 73.9502H72.9992C73.3307 73.9502 73.6487 73.8185 73.8831 73.5841C74.1175 73.3497 74.2492 73.0317 74.2492 72.7002V47.7002C74.2492 47.3687 74.1175 47.0507 73.8831 46.8163C73.6487 46.5819 73.3307 46.4502 72.9992 46.4502ZM64.4992 71.4502H39.9242C39.7332 69.5868 38.9138 67.844 37.6007 66.5082C36.2876 65.1724 34.559 64.3231 32.6992 64.1002V56.3502C34.5822 56.1212 36.3287 55.2503 37.6446 53.8842C38.9606 52.5182 39.7657 50.7404 39.9242 48.8502H64.4992C64.6634 50.7425 65.4735 52.5208 66.7936 53.8864C68.1138 55.2521 69.8635 56.122 71.7492 56.3502V64.1002C69.8904 64.3211 68.1614 65.1658 66.8446 66.4962C65.5278 67.8266 64.701 69.5642 64.4992 71.4252V71.4502ZM71.7492 53.9502C70.5283 53.7311 69.4091 53.128 68.5547 52.2287C67.7004 51.3294 67.1554 50.1808 66.9992 48.9502H71.7492V53.9502ZM37.4242 48.9502C37.2809 50.1816 36.7434 51.3337 35.8919 52.2348C35.0405 53.1358 33.9206 53.7375 32.6992 53.9502V48.9502H37.4242ZM32.6992 66.5752C33.9002 66.776 35.0059 67.3546 35.8556 68.2268C36.7053 69.099 37.2548 70.2194 37.4242 71.4252H32.6992V66.5752ZM66.9992 71.4252C67.1775 70.2188 67.7331 69.0998 68.5863 68.2286C69.4396 67.3573 70.5468 66.7785 71.7492 66.5752V71.4252H66.9992Z" fill="#0D1935"/>
<path d="M52.2258 54.5502C51.114 54.5748 50.0341 54.927 49.1216 55.5626C48.209 56.1982 47.5044 57.0889 47.0958 58.1233C46.6873 59.1576 46.5931 60.2895 46.825 61.3771C47.0569 62.4647 47.6047 63.4597 48.3996 64.2374C49.1945 65.0152 50.2012 65.541 51.2937 65.7491C52.3861 65.9571 53.5157 65.8382 54.5408 65.4071C55.566 64.976 56.4411 64.252 57.0566 63.3258C57.6721 62.3996 58.0005 61.3123 58.0008 60.2002C58.001 59.4476 57.8508 58.7025 57.5591 58.0088C57.2673 57.315 56.84 56.6865 56.302 56.1602C55.764 55.6339 55.1263 55.2204 54.4263 54.9439C53.7264 54.6674 52.9782 54.5336 52.2258 54.5502ZM52.2258 63.3502C51.6087 63.3257 51.0124 63.1203 50.5111 62.7597C50.0098 62.399 49.6256 61.8989 49.4062 61.3216C49.1868 60.7443 49.142 60.1152 49.2773 59.5126C49.4126 58.91 49.722 58.3605 50.1671 57.9324C50.6123 57.5043 51.1734 57.2164 51.7808 57.1047C52.3882 56.9929 53.015 57.0622 53.5833 57.3039C54.1517 57.5455 54.6365 57.9489 54.9774 58.4639C55.3183 58.9788 55.5003 59.5826 55.5008 60.2002C55.5011 60.6246 55.4157 61.0447 55.2496 61.4353C55.0836 61.8258 54.8403 62.1788 54.5344 62.473C54.2285 62.7672 53.8664 62.9965 53.4697 63.1473C53.0729 63.298 52.6498 63.3671 52.2258 63.3502ZM43.0008 58.9502H41.9258C41.5943 58.9502 41.2763 59.0819 41.0419 59.3163C40.8075 59.5507 40.6758 59.8687 40.6758 60.2002C40.6822 60.5297 40.8159 60.844 41.049 61.077C41.282 61.3101 41.5963 61.4438 41.9258 61.4502H43.0008C43.3323 61.4502 43.6502 61.3185 43.8847 61.0841C44.1191 60.8497 44.2508 60.5317 44.2508 60.2002C44.2508 59.8687 44.1191 59.5507 43.8847 59.3163C43.6502 59.0819 43.3323 58.9502 43.0008 58.9502ZM62.4008 58.9502H61.3258C60.9943 58.9502 60.6763 59.0819 60.4419 59.3163C60.2075 59.5507 60.0758 59.8687 60.0758 60.2002C60.0822 60.5297 60.2159 60.844 60.449 61.077C60.682 61.3101 60.9963 61.4438 61.3258 61.4502H62.4008C62.7323 61.4502 63.0502 61.3185 63.2847 61.0841C63.5191 60.8497 63.6508 60.5317 63.6508 60.2002C63.6508 59.8687 63.5191 59.5507 63.2847 59.3163C63.0502 59.0819 62.7323 58.9502 62.4008 58.9502Z" fill="#0D1935"/>
</svg>
