<svg width="81" height="80" viewBox="0 0 81 80" fill="none" xmlns="http://www.w3.org/2000/svg">
<path fill-rule="evenodd" clip-rule="evenodd" d="M51.7654 62.1737C54.0779 65.0962 57.6554 66.9724 61.6666 66.9724C68.6316 66.9724 74.2854 61.3187 74.2854 54.3549C74.2854 50.2499 72.3216 46.5999 69.2816 44.2949V23.2612C69.2816 20.2612 66.8467 17.8262 63.8467 17.8262H12.1479C9.1479 17.8262 6.71289 20.2612 6.71289 23.2612V56.7387C6.71289 59.7387 9.1479 62.1737 12.1479 62.1737H51.7654ZM67.3254 45.9674C65.7104 44.8749 63.7629 44.2362 61.6666 44.2362C56.0829 44.2362 51.5491 48.7699 51.5491 54.3549C51.5491 56.5299 52.2366 58.5462 53.4066 60.1962C53.4091 60.1999 53.4116 60.2037 53.4141 60.2074C55.2491 62.7874 58.2629 64.4724 61.6666 64.4724C67.2516 64.4724 71.7854 59.9387 71.7854 54.3549C71.7854 50.8699 70.0204 47.7949 67.3366 45.9749C67.3329 45.9724 67.3291 45.9699 67.3254 45.9674ZM66.7816 42.8174V23.2612C66.7816 21.6412 65.4667 20.3262 63.8467 20.3262H12.1479C10.5279 20.3262 9.21289 21.6412 9.21289 23.2612V56.7387C9.21289 58.3587 10.5279 59.6737 12.1479 59.6737H50.2229C49.4691 58.0562 49.0491 56.2549 49.0491 54.3549C49.0491 47.3899 54.7029 41.7362 61.6666 41.7362C63.4879 41.7362 65.2179 42.1224 66.7816 42.8174ZM56.6479 54.1599L60.7104 58.5299C60.9467 58.7837 61.2792 58.9287 61.6267 58.9287C61.9729 58.9287 62.3054 58.7837 62.5416 58.5299L68.7216 51.8812C69.1916 51.3762 69.1629 50.5849 68.6579 50.1149C68.1529 49.6449 67.3604 49.6737 66.8917 50.1799L61.6267 55.8424L58.4791 52.4574C58.0091 51.9524 57.2179 51.9237 56.7129 52.3937C56.2079 52.8637 56.1779 53.6549 56.6479 54.1599ZM14.8104 55.6049H44.9529C45.6429 55.6049 46.2029 55.0449 46.2029 54.3549C46.2029 53.6649 45.6429 53.1049 44.9529 53.1049H14.8104C14.1204 53.1049 13.5604 53.6649 13.5604 54.3549C13.5604 55.0449 14.1204 55.6049 14.8104 55.6049ZM33.2929 47.0574C33.9841 47.0574 34.5429 46.4974 34.5429 45.8074C34.5429 40.0162 29.8416 35.3162 24.0516 35.3162C18.2616 35.3162 13.5604 40.0162 13.5604 45.8074C13.5604 46.4974 14.1204 47.0574 14.8104 47.0574H33.2929ZM31.9454 44.5574H16.1579C16.7591 40.7399 20.0666 37.8162 24.0516 37.8162C28.0366 37.8162 31.3454 40.7399 31.9454 44.5574ZM38.4666 44.1262H51.4379C52.1279 44.1262 52.6879 43.5662 52.6879 42.8762C52.6879 42.1862 52.1279 41.6262 51.4379 41.6262H38.4666C37.7766 41.6262 37.2166 42.1862 37.2166 42.8762C37.2166 43.5662 37.7766 44.1262 38.4666 44.1262ZM38.4666 36.8774H58.0616C58.7516 36.8774 59.3116 36.3174 59.3116 35.6274C59.3116 34.9374 58.7516 34.3774 58.0616 34.3774H38.4666C37.7766 34.3774 37.2166 34.9374 37.2166 35.6274C37.2166 36.3174 37.7766 36.8774 38.4666 36.8774ZM24.0516 24.1974C21.4679 24.1974 19.3704 26.2949 19.3704 28.8787C19.3704 31.4624 21.4679 33.5612 24.0516 33.5612C26.6354 33.5612 28.7329 31.4624 28.7329 28.8787C28.7329 26.2949 26.6354 24.1974 24.0516 24.1974ZM24.0516 26.6974C25.2554 26.6974 26.2329 27.6749 26.2329 28.8787C26.2329 30.0837 25.2554 31.0612 24.0516 31.0612C22.8479 31.0612 21.8704 30.0837 21.8704 28.8787C21.8704 27.6749 22.8479 26.6974 24.0516 26.6974ZM38.4666 29.6287H60.6192C61.3092 29.6287 61.8692 29.0687 61.8692 28.3787C61.8692 27.6887 61.3092 27.1287 60.6192 27.1287H38.4666C37.7766 27.1287 37.2166 27.6887 37.2166 28.3787C37.2166 29.0687 37.7766 29.6287 38.4666 29.6287Z" fill="black"/>
</svg>
