<svg width="81" height="80" viewBox="0 0 81 80" fill="none" xmlns="http://www.w3.org/2000/svg">
<path d="M29.5391 19.8399C29.5391 19.9199 29.4591 19.9999 29.4591 20.0799C29.3791 20.1599 29.3791 20.1599 29.2191 20.2399C29.0591 20.3199 28.9791 20.3199 28.8191 20.3199C28.6591 20.3199 28.4191 20.3199 28.1791 20.3199C27.9391 20.3199 27.7791 20.3199 27.6191 20.3199C27.4591 20.3199 27.3791 20.3199 27.2191 20.3199C27.1391 20.3199 27.0591 20.3199 26.9791 20.2399C26.8991 20.2399 26.8191 20.1599 26.8191 20.1599C26.7391 20.1599 26.7391 20.0799 26.7391 20.0799C26.7391 19.9999 26.6591 19.9999 26.6591 19.9199L23.6191 10.8799C23.5391 10.7199 23.5391 10.5599 23.5391 10.3999C23.5391 10.2399 23.5391 10.2399 23.6191 10.1599C23.6991 10.0799 23.7791 10.0799 23.9391 10.0799C24.0991 10.0799 24.3391 10.0799 24.5791 10.0799C24.8191 10.0799 24.9791 10.0799 25.1391 10.0799C25.2991 10.0799 25.3791 10.0799 25.4591 10.1599C25.5391 10.1599 25.6191 10.2399 25.6191 10.2399C25.6191 10.3199 25.6991 10.3199 25.6991 10.3999L28.1791 18.2399L30.5791 10.3999C30.5791 10.3199 30.6591 10.2399 30.6591 10.1599C30.6591 10.0799 30.7391 10.0799 30.8191 9.99992C30.8991 9.91992 30.9791 9.91992 31.1391 9.91992C31.2991 9.91992 31.4591 9.91992 31.6991 9.91992C31.9391 9.91992 32.0991 9.91992 32.2591 9.91992C32.4191 9.91992 32.4991 9.99992 32.4991 9.99992C32.5791 10.0799 32.5791 10.1599 32.5791 10.2399C32.5791 10.3199 32.4991 10.4799 32.4191 10.7199L29.5391 19.8399Z" fill="black"/>
<path d="M42.8188 14.9598C42.8188 15.8398 42.7387 16.5598 42.4987 17.1998C42.2587 17.8398 41.9387 18.3998 41.5387 18.8798C41.1387 19.3598 40.5788 19.6798 40.0188 19.9198C39.3787 20.1598 38.7387 20.3198 37.8587 20.3198C37.0587 20.3198 36.3387 20.2398 35.7787 19.9998C35.2187 19.7598 34.6587 19.4398 34.3387 19.0398C33.9387 18.6398 33.6187 18.0798 33.4587 17.4398C33.2987 16.7998 33.2188 16.0798 33.2188 15.1998C33.2188 14.3998 33.2987 13.5998 33.5387 12.9598C33.7787 12.3198 34.0987 11.7598 34.4987 11.2798C34.8987 10.7998 35.4588 10.4798 36.0187 10.2398C36.6588 9.99984 37.3787 9.83984 38.1787 9.83984C38.9787 9.83984 39.6187 9.91984 40.2587 10.1598C40.8187 10.3998 41.3787 10.6398 41.7787 11.1198C42.1787 11.5198 42.4987 12.0798 42.6587 12.7198C42.7387 13.3598 42.8188 14.0798 42.8188 14.9598ZM40.6587 15.1198C40.6587 14.5598 40.5787 14.0798 40.4987 13.6798C40.4187 13.2798 40.2587 12.8798 40.0987 12.5598C39.8587 12.2398 39.6187 11.9998 39.2987 11.8398C38.9787 11.6798 38.5788 11.5998 38.0188 11.5998C37.5388 11.5998 37.0587 11.6798 36.7387 11.9198C36.4187 12.0798 36.0987 12.3998 35.9387 12.7198C35.7787 13.0398 35.6187 13.4398 35.4587 13.8398C35.3787 14.2398 35.2987 14.7198 35.2987 15.1998C35.2987 15.7598 35.3787 16.2398 35.4587 16.7198C35.5387 17.1998 35.6987 17.5198 35.8587 17.8398C36.0187 18.1598 36.3387 18.3998 36.6587 18.5598C36.9787 18.7198 37.3787 18.7998 37.9387 18.7998C38.4187 18.7998 38.8988 18.7198 39.2188 18.4798C39.5388 18.2398 39.8587 17.9998 40.0188 17.6798C40.2587 17.3598 40.3387 16.9598 40.4987 16.5598C40.6587 16.1598 40.6587 15.5998 40.6587 15.1198Z" fill="black"/>
<path d="M50.9787 10.8799C50.9787 11.0399 50.9787 11.1999 50.9787 11.2799C50.9787 11.3599 50.9787 11.4399 50.8987 11.5199C50.8187 11.5999 50.8187 11.5999 50.8187 11.6799C50.8187 11.6799 50.7387 11.7599 50.6587 11.7599H48.0987V19.9999C48.0987 20.0799 48.0987 20.0799 48.0187 20.1599C48.0187 20.2399 47.9387 20.2399 47.8587 20.2399C47.7787 20.2399 47.6987 20.3199 47.5387 20.3199C47.3787 20.3199 47.2187 20.3199 47.0587 20.3199C46.8987 20.3199 46.6587 20.3199 46.5787 20.3199C46.4187 20.3199 46.3387 20.3199 46.2587 20.2399C46.1787 20.2399 46.0987 20.1599 46.0987 20.1599C46.0987 20.1599 46.0987 19.9999 46.0987 19.9199V11.6799H43.5387C43.4587 11.6799 43.4587 11.6799 43.3787 11.5999C43.3787 11.5999 43.2987 11.5199 43.2987 11.4399C43.2987 11.3599 43.2188 11.2799 43.2188 11.1999C43.2188 11.1199 43.2188 10.9599 43.2188 10.7999C43.2188 10.6399 43.2188 10.4799 43.2188 10.3999C43.2188 10.3199 43.2187 10.2399 43.2987 10.1599C43.3787 10.0799 43.3787 10.0799 43.3787 9.99992C43.3787 9.91992 43.4587 9.91992 43.5387 9.91992H50.7387C50.8187 9.91992 50.8187 9.91992 50.8987 9.99992C50.8987 9.99992 50.9787 10.0799 50.9787 10.1599C50.9787 10.2399 51.0587 10.3199 51.0587 10.3999C51.0587 10.4799 50.9787 10.7199 50.9787 10.8799Z" fill="black"/>
<path d="M58.2598 19.36C58.2598 19.52 58.2598 19.6 58.2598 19.76C58.2598 19.84 58.2598 19.92 58.1798 20C58.0998 20.08 58.0998 20.16 58.0998 20.16C58.0998 20.16 58.0198 20.24 57.9398 20.24H52.8198C52.6598 20.24 52.4998 20.16 52.4198 20.08C52.3398 20 52.2598 19.84 52.2598 19.6V10.64C52.2598 10.4 52.3398 10.24 52.4198 10.16C52.4998 10.08 52.6598 10 52.8198 10H57.9398C58.0198 10 58.0198 10 58.0998 10C58.0998 10 58.1798 10.08 58.1798 10.16C58.1798 10.24 58.2598 10.32 58.2598 10.4C58.2598 10.48 58.2598 10.64 58.2598 10.8C58.2598 10.96 58.2598 11.04 58.2598 11.2C58.2598 11.28 58.2598 11.36 58.1798 11.44C58.1798 11.52 58.0998 11.52 58.0998 11.6C58.0998 11.6 58.0198 11.68 57.9398 11.68H54.3398V14.16H57.3798C57.4598 14.16 57.4598 14.16 57.5398 14.24C57.5398 14.24 57.6198 14.32 57.6198 14.4C57.6198 14.48 57.6998 14.56 57.6998 14.64C57.6998 14.72 57.6998 14.88 57.6998 15.04C57.6998 15.2 57.6998 15.28 57.6998 15.44C57.6998 15.52 57.6998 15.6 57.6198 15.68C57.5398 15.76 57.5398 15.76 57.5398 15.84C57.5398 15.84 57.4598 15.84 57.3798 15.84H54.3398V18.72H58.0198C58.0998 18.72 58.0998 18.72 58.1798 18.8C58.1798 18.8 58.2598 18.88 58.2598 18.96C58.2598 19.04 58.3398 19.12 58.3398 19.2C58.2598 19.12 58.2598 19.2 58.2598 19.36Z" fill="black"/>
<path d="M66.7398 78.8H15.0598C12.4198 78.8 10.2598 76.64 10.2598 74V6.8C10.2598 4.16 12.4198 2 15.0598 2H66.7398C69.3798 2 71.5398 4.16 71.5398 6.8V73.92C71.6198 76.64 69.4598 78.8 66.7398 78.8ZM15.0598 3.6C13.2998 3.6 11.8598 5.04 11.8598 6.8V73.92C11.8598 75.68 13.2998 77.12 15.0598 77.12H66.7398C68.4998 77.12 69.9398 75.68 69.9398 73.92V6.8C69.9398 5.04 68.4998 3.6 66.7398 3.6H15.0598Z" fill="black"/>
<path d="M23.3802 37.1198C21.6202 37.1198 19.9402 36.3998 18.6602 35.1998C17.3802 33.9198 16.7402 32.3198 16.7402 30.4798C16.7402 28.7198 17.4602 27.0398 18.6602 25.7598C19.9402 24.4798 21.5402 23.8398 23.3802 23.8398C25.1402 23.8398 26.8202 24.5598 28.1002 25.7598C29.3802 27.0398 30.0202 28.6398 30.0202 30.4798C30.0202 34.1598 27.0602 37.1198 23.3802 37.1198ZM23.3802 25.5198C22.0202 25.5198 20.7402 26.0798 19.8602 26.9598C18.9002 27.9198 18.4202 29.1998 18.4202 30.4798C18.4202 31.8398 18.9802 33.1198 19.8602 33.9998C20.8202 34.9598 22.1002 35.4398 23.3802 35.4398C26.1802 35.4398 28.4202 33.1998 28.4202 30.3998C28.4202 29.0398 27.8602 27.7598 26.9802 26.8798C26.0202 25.9998 24.7402 25.5198 23.3802 25.5198Z" fill="black"/>
<path d="M22.2591 33.3597C22.0191 33.3597 21.8591 33.2797 21.6991 33.1197L19.8591 31.2797C19.5391 30.9597 19.5391 30.4797 19.8591 30.1597C20.1791 29.8397 20.6591 29.8397 20.9791 30.1597L22.2591 31.4397L25.7791 27.9197C26.0991 27.5997 26.5791 27.5997 26.8991 27.9197C27.2191 28.2397 27.2191 28.7197 26.8991 29.0397L22.8191 33.1197C22.6591 33.2797 22.4991 33.3597 22.2591 33.3597Z" fill="black"/>
<path d="M64.259 31.2797H34.259C33.779 31.2797 33.459 30.9597 33.459 30.4797C33.459 29.9997 33.779 29.6797 34.259 29.6797H64.259C64.739 29.6797 65.059 29.9997 65.059 30.4797C65.059 30.9597 64.659 31.2797 64.259 31.2797Z" fill="black"/>
<path d="M23.3802 54.4802C21.6202 54.4802 19.9402 53.7602 18.6602 52.5602C17.3802 51.3602 16.7402 49.6802 16.7402 47.8402C16.7402 46.0002 17.4602 44.4002 18.6602 43.1202C19.9402 41.8402 21.5402 41.2002 23.3802 41.2002C25.1402 41.2002 26.8202 41.9202 28.1002 43.1202C29.3802 44.4002 30.0202 46.0002 30.0202 47.8402C30.0202 51.5202 27.0602 54.4802 23.3802 54.4802ZM23.3802 42.8002C22.0202 42.8002 20.7402 43.3602 19.8602 44.2402C18.9802 45.1202 18.4202 46.4802 18.4202 47.7602C18.4202 49.0402 18.9802 50.4002 19.8602 51.2802C20.7402 52.1602 22.1002 52.7202 23.3802 52.7202C26.1802 52.7202 28.4202 50.4802 28.4202 47.6802C28.4202 46.3202 27.8602 45.0402 26.9802 44.1602C26.1002 43.2802 24.7402 42.8002 23.3802 42.8002Z" fill="black"/>
<path d="M22.2591 50.64C22.0191 50.64 21.8591 50.56 21.6991 50.4L19.8591 48.56C19.5391 48.24 19.5391 47.76 19.8591 47.44C20.1791 47.12 20.6591 47.12 20.9791 47.44L22.2591 48.72L25.7791 45.2C26.0991 44.88 26.5791 44.88 26.8991 45.2C27.2191 45.52 27.2191 46 26.8991 46.32L22.8191 50.4C22.6591 50.56 22.4991 50.64 22.2591 50.64Z" fill="black"/>
<path d="M64.259 48.64H34.259C33.779 48.64 33.459 48.32 33.459 47.84C33.459 47.36 33.779 47.04 34.259 47.04H64.259C64.739 47.04 65.059 47.36 65.059 47.84C65.059 48.32 64.659 48.64 64.259 48.64Z" fill="black"/>
<path d="M23.3802 71.7605C21.6202 71.7605 19.9402 71.0405 18.6602 69.8405C17.3802 68.5605 16.7402 66.9605 16.7402 65.1205C16.7402 63.2805 17.4602 61.6805 18.6602 60.4005C19.9402 59.1205 21.5402 58.4805 23.3802 58.4805C25.1402 58.4805 26.8202 59.2005 28.1002 60.4005C29.3802 61.6805 30.0202 63.2805 30.0202 65.1205C30.0202 68.8005 27.0602 71.7605 23.3802 71.7605ZM23.3802 60.1605C22.0202 60.1605 20.7402 60.7205 19.8602 61.6005C18.9802 62.4805 18.4202 63.8405 18.4202 65.1205C18.4202 66.4005 18.9802 67.7605 19.8602 68.6405C20.7402 69.5205 22.1002 70.0805 23.3802 70.0805C26.1802 70.0805 28.4202 67.8405 28.4202 65.0405C28.4202 63.6805 27.8602 62.4005 26.9802 61.5205C26.1002 60.6405 24.7402 60.1605 23.3802 60.1605Z" fill="black"/>
<path d="M22.2591 68.0003C22.0191 68.0003 21.8591 67.9203 21.6991 67.7603L19.8591 65.9203C19.5391 65.6003 19.5391 65.1203 19.8591 64.8003C20.1791 64.4803 20.6591 64.4803 20.9791 64.8003L22.2591 66.0803L25.7791 62.5603C26.0991 62.2403 26.5791 62.2403 26.8991 62.5603C27.2191 62.8803 27.2191 63.3603 26.8991 63.6803L22.8191 67.7603C22.6591 67.9203 22.4991 68.0003 22.2591 68.0003Z" fill="black"/>
<path d="M64.259 65.9203H34.259C33.779 65.9203 33.459 65.6003 33.459 65.1203C33.459 64.6403 33.779 64.3203 34.259 64.3203H64.259C64.739 64.3203 65.059 64.6403 65.059 65.1203C65.059 65.6003 64.659 65.9203 64.259 65.9203Z" fill="black"/>
</svg>
