<svg xmlns="http://www.w3.org/2000/svg" xmlns:xlink="http://www.w3.org/1999/xlink" width="70" zoomAndPan="magnify" viewBox="0 0 52.5 67.499996" height="90" preserveAspectRatio="xMidYMid meet" version="1.0"><defs><clipPath id="8718a92384"><path d="M 0 0.0703125 L 52.003906 0.0703125 L 52.003906 66.933594 L 0 66.933594 Z M 0 0.0703125 " clip-rule="nonzero"/></clipPath><clipPath id="e3d6bef7af"><path d="M 4 52 L 14 52 L 14 58.804688 L 4 58.804688 Z M 4 52 " clip-rule="nonzero"/></clipPath><clipPath id="c445e194a1"><path d="M 44 28 L 49.875 28 L 49.875 34 L 44 34 Z M 44 28 " clip-rule="nonzero"/></clipPath><clipPath id="f7a87193e8"><path d="M 2.625 43 L 5 43 L 5 46 L 2.625 46 Z M 2.625 43 " clip-rule="nonzero"/></clipPath><clipPath id="693cf97354"><path d="M 35 8.554688 L 38 8.554688 L 38 11 L 35 11 Z M 35 8.554688 " clip-rule="nonzero"/></clipPath><clipPath id="2b06df19ec"><path d="M 15 8.554688 L 17 8.554688 L 17 11 L 15 11 Z M 15 8.554688 " clip-rule="nonzero"/></clipPath></defs><g clip-path="url(#8718a92384)"><path fill="#ffffff" d="M 0 0.0703125 L 52.5 0.0703125 L 52.5 67.570312 L 0 67.570312 Z M 0 0.0703125 " fill-opacity="1" fill-rule="nonzero"/><path fill="#ffffff" d="M 0 0.0703125 L 52.5 0.0703125 L 52.5 67.570312 L 0 67.570312 Z M 0 0.0703125 " fill-opacity="1" fill-rule="nonzero"/></g><path fill="#1e6bbe" d="M 6.636719 26.078125 C 6.636719 27.015625 7.402344 27.773438 8.339844 27.773438 C 9.28125 27.773438 10.046875 27.015625 10.046875 26.078125 C 10.046875 25.144531 9.28125 24.382812 8.339844 24.382812 C 7.402344 24.382812 6.636719 25.144531 6.636719 26.078125 Z M 6.636719 26.078125 " fill-opacity="1" fill-rule="nonzero"/><g clip-path="url(#e3d6bef7af)"><path fill="#1e6bbe" d="M 4.238281 55.273438 L 12.222656 58.804688 L 13.574219 55.773438 L 5.636719 52.144531 Z M 4.238281 55.273438 " fill-opacity="1" fill-rule="nonzero"/></g><path fill="#1e6bbe" d="M 28.015625 26.023438 C 29.046875 26.023438 29.886719 25.1875 29.886719 24.160156 C 29.886719 23.128906 29.046875 22.292969 28.015625 22.292969 C 26.980469 22.292969 26.136719 23.128906 26.136719 24.160156 C 26.136719 25.1875 26.980469 26.023438 28.015625 26.023438 Z M 28.015625 26.023438 " fill-opacity="1" fill-rule="nonzero"/><path fill="#1e6bbe" d="M 40.191406 41.03125 L 35.496094 43.148438 C 31.851562 44.789062 27.683594 44.808594 24.023438 43.1875 L 23.121094 42.789062 C 16.914062 40.042969 9.769531 42.898438 7.074219 48.921875 L 6.097656 51.109375 L 14.035156 54.738281 L 14.65625 53.347656 C 15.636719 51.15625 18.234375 50.132812 20.472656 51.125 C 23.835938 52.613281 27.664062 52.597656 31.015625 51.085938 L 42.433594 45.941406 C 43.035156 45.667969 43.519531 45.183594 43.789062 44.582031 C 44.800781 42.316406 42.464844 40.007812 40.191406 41.03125 Z M 40.191406 41.03125 " fill-opacity="1" fill-rule="nonzero"/><path fill="#1e6bbe" d="M 20.625 19.5 C 20.078125 20.355469 19.691406 21.285156 19.476562 22.257812 C 19.425781 22.472656 19.257812 22.636719 19.042969 22.6875 L 15.847656 23.398438 L 15.847656 24.917969 L 19.042969 25.628906 C 19.257812 25.675781 19.425781 25.84375 19.476562 26.058594 C 19.695312 27.039062 20.082031 27.964844 20.621094 28.8125 C 20.742188 28.996094 20.742188 29.234375 20.625 29.417969 L 18.867188 32.175781 L 19.949219 33.25 L 22.722656 31.503906 C 22.90625 31.386719 23.144531 31.386719 23.332031 31.503906 C 24.191406 32.046875 25.125 32.429688 26.101562 32.648438 C 26.316406 32.695312 26.484375 32.863281 26.535156 33.074219 L 27.25 36.257812 L 28.777344 36.257812 L 29.492188 33.074219 C 29.539062 32.863281 29.707031 32.695312 29.921875 32.648438 C 30.910156 32.429688 31.84375 32.046875 32.695312 31.507812 C 32.878906 31.386719 33.117188 31.386719 33.304688 31.503906 L 36.078125 33.25 L 37.15625 32.175781 L 35.402344 29.417969 C 35.285156 29.234375 35.285156 29 35.402344 28.8125 C 35.945312 27.957031 36.332031 27.03125 36.550781 26.058594 C 36.597656 25.84375 36.765625 25.675781 36.980469 25.628906 L 40.179688 24.917969 L 40.179688 23.398438 L 36.980469 22.6875 C 36.765625 22.636719 36.597656 22.472656 36.550781 22.257812 C 36.332031 21.285156 35.945312 20.355469 35.402344 19.5 C 35.285156 19.316406 35.285156 19.082031 35.402344 18.894531 L 37.15625 16.136719 L 36.078125 15.0625 L 33.304688 16.8125 C 33.117188 16.933594 32.878906 16.929688 32.695312 16.8125 C 31.847656 16.277344 30.917969 15.890625 29.921875 15.667969 C 29.707031 15.617188 29.539062 15.453125 29.492188 15.238281 L 28.777344 12.058594 L 27.246094 12.058594 L 26.535156 15.238281 C 26.484375 15.453125 26.320312 15.617188 26.105469 15.667969 C 25.109375 15.890625 24.175781 16.277344 23.332031 16.8125 C 23.144531 16.929688 22.90625 16.933594 22.722656 16.8125 L 19.949219 15.0625 L 18.867188 16.136719 L 20.625 18.894531 C 20.742188 19.082031 20.742188 19.316406 20.625 19.5 Z M 28.019531 18.335938 C 31.242188 18.335938 33.867188 20.949219 33.867188 24.164062 C 33.867188 27.371094 31.242188 29.980469 28.019531 29.980469 C 24.789062 29.980469 22.15625 27.371094 22.15625 24.164062 C 22.15625 20.949219 24.789062 18.335938 28.019531 18.335938 Z M 28.019531 18.335938 " fill-opacity="1" fill-rule="nonzero"/><path fill="#1e6bbe" d="M 28.019531 28.847656 C 30.617188 28.847656 32.730469 26.746094 32.730469 24.164062 C 32.730469 21.574219 30.617188 19.464844 28.019531 19.464844 C 25.414062 19.464844 23.296875 21.574219 23.296875 24.164062 C 23.296875 26.746094 25.414062 28.847656 28.019531 28.847656 Z M 28.015625 21.164062 C 29.675781 21.164062 31.023438 22.507812 31.023438 24.160156 C 31.023438 25.808594 29.675781 27.152344 28.015625 27.152344 C 26.351562 27.152344 25 25.808594 25 24.160156 C 25 22.507812 26.351562 21.164062 28.015625 21.164062 Z M 28.015625 21.164062 " fill-opacity="1" fill-rule="nonzero"/><g clip-path="url(#c445e194a1)"><path fill="#1e6bbe" d="M 47.285156 28.339844 C 45.875 28.339844 44.726562 29.480469 44.726562 30.886719 C 44.726562 32.289062 45.875 33.429688 47.285156 33.429688 C 48.695312 33.429688 49.84375 32.289062 49.84375 30.886719 C 49.84375 29.480469 48.695312 28.339844 47.285156 28.339844 Z M 47.285156 28.339844 " fill-opacity="1" fill-rule="nonzero"/></g><g clip-path="url(#f7a87193e8)"><path fill="#1e6bbe" d="M 4.363281 44.453125 C 4.363281 44.6875 4.277344 44.886719 4.113281 45.054688 C 3.945312 45.21875 3.746094 45.300781 3.507812 45.300781 C 3.273438 45.300781 3.070312 45.21875 2.90625 45.054688 C 2.738281 44.886719 2.65625 44.6875 2.65625 44.453125 C 2.65625 44.21875 2.738281 44.019531 2.90625 43.855469 C 3.070312 43.6875 3.273438 43.605469 3.507812 43.605469 C 3.746094 43.605469 3.945312 43.6875 4.113281 43.855469 C 4.277344 44.019531 4.363281 44.21875 4.363281 44.453125 Z M 4.363281 44.453125 " fill-opacity="1" fill-rule="nonzero"/></g><path fill="#1e6bbe" d="M 48.707031 48.410156 C 48.707031 48.644531 48.625 48.84375 48.457031 49.011719 C 48.289062 49.175781 48.089844 49.257812 47.855469 49.257812 C 47.617188 49.257812 47.417969 49.175781 47.25 49.011719 C 47.085938 48.84375 47 48.644531 47 48.410156 C 47 48.175781 47.085938 47.976562 47.25 47.8125 C 47.417969 47.644531 47.617188 47.5625 47.855469 47.5625 C 48.089844 47.5625 48.289062 47.644531 48.457031 47.8125 C 48.625 47.976562 48.707031 48.175781 48.707031 48.410156 Z M 48.707031 48.410156 " fill-opacity="1" fill-rule="nonzero"/><path fill="#1e6bbe" d="M 47 19.578125 C 47 19.8125 46.917969 20.011719 46.75 20.175781 C 46.585938 20.34375 46.382812 20.425781 46.148438 20.425781 C 45.914062 20.425781 45.710938 20.34375 45.546875 20.175781 C 45.378906 20.011719 45.296875 19.8125 45.296875 19.578125 C 45.296875 19.34375 45.378906 19.144531 45.546875 18.976562 C 45.710938 18.8125 45.914062 18.730469 46.148438 18.730469 C 46.382812 18.730469 46.585938 18.8125 46.75 18.976562 C 46.917969 19.144531 47 19.34375 47 19.578125 Z M 47 19.578125 " fill-opacity="1" fill-rule="nonzero"/><g clip-path="url(#693cf97354)"><path fill="#1e6bbe" d="M 37.335938 9.402344 C 37.335938 9.636719 37.253906 9.835938 37.085938 10 C 36.921875 10.167969 36.71875 10.25 36.484375 10.25 C 36.25 10.25 36.046875 10.167969 35.878906 10 C 35.714844 9.835938 35.628906 9.636719 35.628906 9.402344 C 35.628906 9.167969 35.714844 8.964844 35.878906 8.800781 C 36.046875 8.636719 36.25 8.554688 36.484375 8.554688 C 36.71875 8.554688 36.921875 8.636719 37.085938 8.800781 C 37.253906 8.964844 37.335938 9.167969 37.335938 9.402344 Z M 37.335938 9.402344 " fill-opacity="1" fill-rule="nonzero"/></g><g clip-path="url(#2b06df19ec)"><path fill="#1e6bbe" d="M 16.871094 9.402344 C 16.871094 9.636719 16.785156 9.835938 16.621094 10 C 16.453125 10.167969 16.25 10.25 16.015625 10.25 C 15.78125 10.25 15.578125 10.167969 15.414062 10 C 15.246094 9.835938 15.164062 9.636719 15.164062 9.402344 C 15.164062 9.167969 15.246094 8.964844 15.414062 8.800781 C 15.578125 8.636719 15.78125 8.554688 16.015625 8.554688 C 16.25 8.554688 16.453125 8.636719 16.621094 8.800781 C 16.785156 8.964844 16.871094 9.167969 16.871094 9.402344 Z M 16.871094 9.402344 " fill-opacity="1" fill-rule="nonzero"/></g><path fill="#1e6bbe" d="M 8.058594 16.75 C 8.058594 16.984375 7.972656 17.183594 7.808594 17.351562 C 7.640625 17.515625 7.441406 17.597656 7.203125 17.597656 C 6.96875 17.597656 6.769531 17.515625 6.601562 17.351562 C 6.433594 17.183594 6.351562 16.984375 6.351562 16.75 C 6.351562 16.515625 6.433594 16.316406 6.601562 16.152344 C 6.769531 15.984375 6.96875 15.902344 7.203125 15.902344 C 7.441406 15.902344 7.640625 15.984375 7.808594 16.152344 C 7.972656 16.316406 8.058594 16.515625 8.058594 16.75 Z M 8.058594 16.75 " fill-opacity="1" fill-rule="nonzero"/><path fill="#1e6bbe" d="M 14.027344 35.972656 C 14.027344 36.207031 13.941406 36.40625 13.777344 36.574219 C 13.609375 36.738281 13.410156 36.820312 13.171875 36.820312 C 12.9375 36.820312 12.738281 36.738281 12.570312 36.574219 C 12.402344 36.40625 12.320312 36.207031 12.320312 35.972656 C 12.320312 35.738281 12.402344 35.539062 12.570312 35.375 C 12.738281 35.207031 12.9375 35.125 13.171875 35.125 C 13.410156 35.125 13.609375 35.207031 13.777344 35.375 C 13.941406 35.539062 14.027344 35.738281 14.027344 35.972656 Z M 14.027344 35.972656 " fill-opacity="1" fill-rule="nonzero"/><path fill="#1e6bbe" d="M 39.609375 54.628906 C 39.609375 54.863281 39.527344 55.0625 39.359375 55.230469 C 39.195312 55.394531 38.992188 55.476562 38.757812 55.476562 C 38.523438 55.476562 38.320312 55.394531 38.15625 55.230469 C 37.988281 55.0625 37.90625 54.863281 37.90625 54.628906 C 37.90625 54.394531 37.988281 54.195312 38.15625 54.03125 C 38.320312 53.863281 38.523438 53.78125 38.757812 53.78125 C 38.992188 53.78125 39.195312 53.863281 39.359375 54.03125 C 39.527344 54.195312 39.609375 54.394531 39.609375 54.628906 Z M 39.609375 54.628906 " fill-opacity="1" fill-rule="nonzero"/></svg>