<svg xmlns="http://www.w3.org/2000/svg" xmlns:xlink="http://www.w3.org/1999/xlink" width="70" zoomAndPan="magnify" viewBox="0 0 52.5 67.499996" height="90" preserveAspectRatio="xMidYMid meet" version="1.0"><defs><clipPath id="d57a77b57d"><path d="M 0 0.0703125 L 52.003906 0.0703125 L 52.003906 66.933594 L 0 66.933594 Z M 0 0.0703125 " clip-rule="nonzero"/></clipPath><clipPath id="d771258155"><path d="M 1.902344 12 L 5 12 L 5 15 L 1.902344 15 Z M 1.902344 12 " clip-rule="nonzero"/></clipPath><clipPath id="3a9548e829"><path d="M 29 11.054688 L 47 11.054688 L 47 23 L 29 23 Z M 29 11.054688 " clip-rule="nonzero"/></clipPath><clipPath id="2c8af57732"><path d="M 33 50 L 41 50 L 41 56.804688 L 33 56.804688 Z M 33 50 " clip-rule="nonzero"/></clipPath><clipPath id="f15083cfaa"><path d="M 43 40 L 50.652344 40 L 50.652344 49 L 43 49 Z M 43 40 " clip-rule="nonzero"/></clipPath></defs><g clip-path="url(#d57a77b57d)"><path fill="#ffffff" d="M 0 0.0703125 L 52.5 0.0703125 L 52.5 67.570312 L 0 67.570312 Z M 0 0.0703125 " fill-opacity="1" fill-rule="nonzero"/><path fill="#ffffff" d="M 0 0.0703125 L 52.5 0.0703125 L 52.5 67.570312 L 0 67.570312 Z M 0 0.0703125 " fill-opacity="1" fill-rule="nonzero"/></g><path fill="#ffffff" d="M 36.875 51.480469 C 38.046875 51.480469 38.996094 52.433594 38.996094 53.609375 C 38.996094 54.785156 38.046875 55.738281 36.875 55.738281 C 35.703125 55.738281 34.757812 54.785156 34.757812 53.609375 C 34.757812 52.433594 35.703125 51.480469 36.875 51.480469 Z M 36.875 51.480469 " fill-opacity="1" fill-rule="nonzero"/><path fill="#a7c7fc" d="M 49.59375 44.570312 C 49.59375 44.921875 49.527344 45.261719 49.390625 45.585938 C 49.257812 45.910156 49.066406 46.199219 48.816406 46.449219 C 48.570312 46.699219 48.28125 46.890625 47.957031 47.023438 C 47.632812 47.160156 47.296875 47.226562 46.945312 47.226562 C 46.59375 47.226562 46.253906 47.160156 45.929688 47.023438 C 45.605469 46.890625 45.320312 46.699219 45.070312 46.449219 C 44.820312 46.199219 44.628906 45.910156 44.496094 45.585938 C 44.363281 45.261719 44.292969 44.921875 44.292969 44.570312 C 44.292969 44.214844 44.363281 43.875 44.496094 43.550781 C 44.628906 43.226562 44.820312 42.9375 45.070312 42.6875 C 45.320312 42.4375 45.605469 42.246094 45.929688 42.113281 C 46.253906 41.976562 46.59375 41.910156 46.945312 41.910156 C 47.296875 41.910156 47.632812 41.976562 47.957031 42.113281 C 48.28125 42.246094 48.570312 42.4375 48.816406 42.6875 C 49.066406 42.9375 49.257812 43.226562 49.390625 43.550781 C 49.527344 43.875 49.59375 44.214844 49.59375 44.570312 Z M 49.59375 44.570312 " fill-opacity="1" fill-rule="nonzero"/><path fill="#a7c7fc" d="M 8.792969 13.191406 C 10.253906 13.191406 11.441406 14.378906 11.441406 15.847656 C 11.441406 17.316406 10.253906 18.507812 8.792969 18.507812 C 7.328125 18.507812 6.140625 17.316406 6.140625 15.847656 C 6.140625 14.378906 7.328125 13.191406 8.792969 13.191406 Z M 8.792969 13.191406 " fill-opacity="1" fill-rule="nonzero"/><path fill="#ffffff" d="M 23.097656 51.480469 L 24.160156 51.480469 C 24.160156 52.363281 23.800781 53.160156 23.226562 53.738281 C 22.652344 54.316406 21.855469 54.671875 20.980469 54.671875 L 10.382812 54.671875 C 8.625 54.671875 7.203125 53.246094 7.203125 51.480469 Z M 23.097656 51.480469 " fill-opacity="1" fill-rule="nonzero"/><path fill="#ffffff" d="M 45.355469 21.699219 L 46.414062 21.699219 C 46.414062 22.578125 46.058594 23.378906 45.484375 23.957031 C 44.90625 24.53125 44.113281 24.890625 43.234375 24.890625 L 32.636719 24.890625 C 32.589844 24.890625 32.539062 24.890625 32.492188 24.886719 C 32.480469 24.886719 32.46875 24.886719 32.457031 24.886719 C 32.421875 24.882812 32.390625 24.878906 32.359375 24.878906 C 32.304688 24.875 32.253906 24.867188 32.199219 24.859375 C 30.652344 24.648438 29.457031 23.3125 29.457031 21.699219 Z M 45.355469 21.699219 " fill-opacity="1" fill-rule="nonzero"/><path fill="#ffffff" d="M 8.261719 41.910156 L 23.097656 41.910156 L 23.097656 51.480469 L 8.261719 51.480469 Z M 8.261719 41.910156 " fill-opacity="1" fill-rule="nonzero"/><path fill="#ffffff" d="M 30.515625 12.125 L 45.355469 12.125 L 45.355469 21.699219 L 30.515625 21.699219 Z M 30.515625 12.125 " fill-opacity="1" fill-rule="nonzero"/><path fill="#a7c7fc" d="M 38.371094 43.921875 C 35.351562 47.097656 31.105469 49.085938 26.394531 49.117188 C 28.84375 49.054688 31.050781 47.070312 32.617188 43.910156 C 33.117188 42.910156 33.550781 41.789062 33.910156 40.578125 C 35.578125 41.4375 37.085938 42.574219 38.371094 43.921875 Z M 38.371094 43.921875 " fill-opacity="1" fill-rule="nonzero"/><path fill="#a7c7fc" d="M 43 32.335938 L 35.035156 32.335938 C 35.035156 29.660156 34.707031 27.132812 34.128906 24.890625 L 41.265625 24.890625 C 42.375 27.132812 43 29.660156 43 32.335938 Z M 43 32.335938 " fill-opacity="1" fill-rule="nonzero"/><path fill="#ffffff" d="M 26.277344 15.554688 C 27.816406 15.554688 29.261719 16.316406 30.515625 17.648438 L 30.515625 21.699219 L 29.457031 21.699219 C 29.457031 23.3125 30.652344 24.648438 32.199219 24.859375 C 30.359375 25.558594 28.363281 25.941406 26.277344 25.941406 Z M 26.277344 15.554688 " fill-opacity="1" fill-rule="nonzero"/><path fill="#ffffff" d="M 26.277344 32.335938 L 35.035156 32.335938 C 35.035156 35.332031 34.625 38.140625 33.910156 40.578125 C 31.621094 39.394531 29.027344 38.730469 26.277344 38.730469 Z M 26.277344 32.335938 " fill-opacity="1" fill-rule="nonzero"/><path fill="#ffffff" d="M 26.277344 38.730469 L 26.277344 49.117188 C 25.191406 49.117188 24.128906 49.011719 23.097656 48.8125 L 23.097656 41.910156 L 16.484375 41.910156 C 17.167969 41.414062 17.890625 40.964844 18.648438 40.578125 C 20.9375 39.394531 23.527344 38.730469 26.277344 38.730469 Z M 26.277344 38.730469 " fill-opacity="1" fill-rule="nonzero"/><path fill="#ffffff" d="M 26.277344 25.941406 L 26.277344 32.335938 L 17.519531 32.335938 C 17.519531 29.339844 17.929688 26.53125 18.648438 24.09375 C 20.9375 25.277344 23.527344 25.941406 26.277344 25.941406 Z M 26.277344 25.941406 " fill-opacity="1" fill-rule="nonzero"/><path fill="#a7c7fc" d="M 17.519531 32.335938 C 17.519531 35.332031 17.929688 38.140625 18.648438 40.578125 C 17.890625 40.964844 17.167969 41.414062 16.484375 41.910156 L 12.546875 41.910156 C 10.664062 39.195312 9.558594 35.894531 9.558594 32.335938 Z M 17.519531 32.335938 " fill-opacity="1" fill-rule="nonzero"/><path fill="#a7c7fc" d="M 9.558594 32.335938 C 9.558594 23.109375 16.980469 15.617188 26.160156 15.554688 C 23.714844 15.617188 21.511719 17.597656 19.941406 20.75 C 19.441406 21.753906 19.007812 22.878906 18.648438 24.09375 C 17.929688 26.53125 17.519531 29.339844 17.519531 32.335938 Z M 9.558594 32.335938 " fill-opacity="1" fill-rule="nonzero"/><path fill="#a7c7fc" d="M 35.035156 32.335938 L 43 32.335938 C 43 36.828125 41.238281 40.910156 38.371094 43.921875 C 37.085938 42.574219 35.578125 41.4375 33.910156 40.578125 C 34.625 38.140625 35.035156 35.332031 35.035156 32.335938 Z M 35.035156 32.335938 " fill-opacity="1" fill-rule="nonzero"/><path fill="#ffffff" d="M 26.277344 49.117188 L 26.277344 38.730469 C 29.027344 38.730469 31.621094 39.394531 33.910156 40.578125 C 33.550781 41.789062 33.117188 42.910156 32.617188 43.910156 C 31.050781 47.070312 28.84375 49.054688 26.394531 49.117188 C 26.355469 49.117188 26.316406 49.117188 26.277344 49.117188 Z M 26.277344 49.117188 " fill-opacity="1" fill-rule="nonzero"/><path fill="#ffffff" d="M 26.277344 32.335938 L 26.277344 38.730469 C 23.527344 38.730469 20.9375 39.394531 18.648438 40.578125 C 17.929688 38.140625 17.519531 35.332031 17.519531 32.335938 Z M 26.277344 32.335938 " fill-opacity="1" fill-rule="nonzero"/><path fill="#ffffff" d="M 35.035156 32.335938 L 26.277344 32.335938 L 26.277344 25.941406 C 28.363281 25.941406 30.359375 25.558594 32.199219 24.859375 C 32.253906 24.867188 32.304688 24.875 32.359375 24.878906 C 32.390625 24.878906 32.421875 24.882812 32.457031 24.886719 C 32.46875 24.886719 32.480469 24.886719 32.492188 24.886719 C 32.539062 24.890625 32.589844 24.890625 32.636719 24.890625 L 34.128906 24.890625 C 34.707031 27.132812 35.035156 29.660156 35.035156 32.335938 Z M 35.035156 32.335938 " fill-opacity="1" fill-rule="nonzero"/><path fill="#ffffff" d="M 26.277344 15.554688 L 26.277344 25.941406 C 23.527344 25.941406 20.9375 25.277344 18.648438 24.09375 C 19.007812 22.878906 19.441406 21.753906 19.941406 20.75 C 21.511719 17.597656 23.714844 15.617188 26.160156 15.554688 C 26.199219 15.554688 26.238281 15.554688 26.277344 15.554688 Z M 26.277344 15.554688 " fill-opacity="1" fill-rule="nonzero"/><path fill="#4c7fc7" d="M 47.164062 35.839844 C 47.355469 36.03125 47.472656 36.296875 47.472656 36.589844 C 47.472656 36.882812 47.355469 37.148438 47.164062 37.34375 C 46.972656 37.535156 46.707031 37.65625 46.414062 37.65625 C 45.828125 37.65625 45.355469 37.179688 45.355469 36.589844 C 45.355469 36.296875 45.472656 36.03125 45.664062 35.839844 C 45.855469 35.644531 46.121094 35.527344 46.414062 35.527344 C 46.707031 35.527344 46.972656 35.644531 47.164062 35.839844 Z M 47.164062 35.839844 " fill-opacity="1" fill-rule="nonzero"/><path fill="#4c7fc7" d="M 45.042969 50.730469 C 45.234375 50.921875 45.355469 51.1875 45.355469 51.480469 C 45.355469 51.777344 45.234375 52.042969 45.042969 52.234375 C 44.851562 52.425781 44.585938 52.546875 44.292969 52.546875 C 43.710938 52.546875 43.234375 52.070312 43.234375 51.480469 C 43.234375 51.1875 43.351562 50.921875 43.546875 50.730469 C 43.738281 50.539062 44.003906 50.417969 44.292969 50.417969 C 44.585938 50.417969 44.851562 50.539062 45.042969 50.730469 Z M 45.042969 50.730469 " fill-opacity="1" fill-rule="nonzero"/><path fill="#4c7fc7" d="M 18.550781 12.4375 C 18.742188 12.628906 18.859375 12.894531 18.859375 13.191406 C 18.859375 13.484375 18.742188 13.75 18.550781 13.941406 C 18.355469 14.132812 18.09375 14.253906 17.800781 14.253906 C 17.214844 14.253906 16.738281 13.777344 16.738281 13.191406 C 16.738281 12.894531 16.859375 12.628906 17.050781 12.4375 C 17.242188 12.246094 17.507812 12.125 17.800781 12.125 C 18.09375 12.125 18.355469 12.246094 18.550781 12.4375 Z M 18.550781 12.4375 " fill-opacity="1" fill-rule="nonzero"/><path fill="#4c7fc7" d="M 6.890625 36.902344 C 7.082031 37.09375 7.203125 37.359375 7.203125 37.65625 C 7.203125 37.949219 7.082031 38.214844 6.890625 38.40625 C 6.699219 38.597656 6.433594 38.71875 6.140625 38.71875 C 5.558594 38.71875 5.082031 38.242188 5.082031 37.65625 C 5.082031 37.359375 5.203125 37.09375 5.394531 36.902344 C 5.585938 36.710938 5.851562 36.589844 6.140625 36.589844 C 6.433594 36.589844 6.699219 36.710938 6.890625 36.902344 Z M 6.890625 36.902344 " fill-opacity="1" fill-rule="nonzero"/><g clip-path="url(#d771258155)"><path fill="#4c7fc7" d="M 3.710938 12.4375 C 3.902344 12.628906 4.023438 12.894531 4.023438 13.191406 C 4.023438 13.484375 3.902344 13.75 3.710938 13.941406 C 3.519531 14.132812 3.253906 14.253906 2.964844 14.253906 C 2.378906 14.253906 1.902344 13.777344 1.902344 13.191406 C 1.902344 12.894531 2.023438 12.628906 2.214844 12.4375 C 2.40625 12.246094 2.671875 12.125 2.964844 12.125 C 3.253906 12.125 3.519531 12.246094 3.710938 12.4375 Z M 3.710938 12.4375 " fill-opacity="1" fill-rule="nonzero"/></g><path fill="#4c7fc7" d="M 43 33.398438 L 9.558594 33.398438 C 8.972656 33.398438 8.5 32.921875 8.5 32.335938 C 8.5 31.75 8.972656 31.273438 9.558594 31.273438 L 43 31.273438 C 43.582031 31.273438 44.058594 31.75 44.058594 32.335938 C 44.058594 32.921875 43.582031 33.398438 43 33.398438 Z M 43 33.398438 " fill-opacity="1" fill-rule="nonzero"/><path fill="#4c7fc7" d="M 26.277344 50.179688 C 25.691406 50.179688 25.21875 49.707031 25.21875 49.117188 L 25.21875 15.554688 C 25.21875 14.964844 25.691406 14.492188 26.277344 14.492188 C 26.863281 14.492188 27.339844 14.964844 27.339844 15.554688 L 27.339844 49.117188 C 27.339844 49.707031 26.863281 50.179688 26.277344 50.179688 Z M 26.277344 50.179688 " fill-opacity="1" fill-rule="nonzero"/><path fill="#4c7fc7" d="M 26.277344 50.179688 C 25.144531 50.179688 24.007812 50.074219 22.898438 49.859375 C 22.324219 49.746094 21.949219 49.1875 22.058594 48.613281 C 22.167969 48.035156 22.726562 47.65625 23.300781 47.769531 C 24.277344 47.957031 25.28125 48.054688 26.277344 48.054688 C 26.863281 48.054688 27.339844 48.53125 27.339844 49.117188 C 27.339844 49.707031 26.863281 50.179688 26.277344 50.179688 Z M 26.277344 50.179688 " fill-opacity="1" fill-rule="nonzero"/><path fill="#4c7fc7" d="M 26.277344 50.179688 C 25.691406 50.179688 25.21875 49.707031 25.21875 49.117188 C 25.21875 48.53125 25.691406 48.054688 26.277344 48.054688 C 26.308594 48.054688 26.335938 48.054688 26.367188 48.054688 C 26.375 48.054688 26.378906 48.054688 26.386719 48.054688 C 30.664062 48.023438 34.648438 46.296875 37.605469 43.1875 C 38.007812 42.765625 38.679688 42.75 39.101562 43.15625 C 39.527344 43.558594 39.542969 44.234375 39.136719 44.660156 C 35.78125 48.183594 31.261719 50.144531 26.410156 50.179688 C 26.367188 50.179688 26.324219 50.179688 26.277344 50.179688 Z M 26.277344 50.179688 " fill-opacity="1" fill-rule="nonzero"/><path fill="#4c7fc7" d="M 26.394531 50.179688 C 25.820312 50.179688 25.351562 49.722656 25.335938 49.144531 C 25.320312 48.554688 25.78125 48.066406 26.367188 48.054688 C 28.304688 48.003906 30.238281 46.320312 31.671875 43.4375 C 31.933594 42.910156 32.566406 42.699219 33.09375 42.960938 C 33.617188 43.222656 33.828125 43.863281 33.566406 44.386719 C 31.746094 48.050781 29.207031 50.109375 26.421875 50.179688 C 26.414062 50.179688 26.402344 50.179688 26.394531 50.179688 Z M 26.394531 50.179688 " fill-opacity="1" fill-rule="nonzero"/><path fill="#4c7fc7" d="M 30.519531 17.164062 C 30.429688 17.164062 30.339844 17.152344 30.25 17.128906 C 28.957031 16.789062 27.621094 16.617188 26.277344 16.617188 C 25.691406 16.617188 25.21875 16.140625 25.21875 15.554688 C 25.21875 14.964844 25.691406 14.492188 26.277344 14.492188 C 27.800781 14.492188 29.316406 14.6875 30.785156 15.070312 C 31.351562 15.21875 31.691406 15.800781 31.542969 16.367188 C 31.417969 16.847656 30.988281 17.164062 30.519531 17.164062 Z M 30.519531 17.164062 " fill-opacity="1" fill-rule="nonzero"/><path fill="#4c7fc7" d="M 38.371094 44.988281 C 38.082031 44.988281 37.804688 44.867188 37.605469 44.660156 C 36.390625 43.382812 34.984375 42.328125 33.425781 41.523438 C 32.972656 41.289062 32.746094 40.765625 32.890625 40.273438 C 33.601562 37.867188 33.976562 35.121094 33.976562 32.335938 C 33.976562 29.8125 33.683594 27.398438 33.101562 25.15625 C 32.953125 24.589844 33.296875 24.007812 33.863281 23.859375 C 34.429688 23.714844 35.007812 24.054688 35.152344 24.621094 C 35.777344 27.039062 36.097656 29.632812 36.097656 32.335938 C 36.097656 35.011719 35.773438 37.65625 35.15625 40.046875 C 36.292969 40.707031 37.355469 41.488281 38.320312 42.382812 C 40.660156 39.566406 41.9375 36.035156 41.9375 32.335938 C 41.9375 29.886719 41.390625 27.539062 40.316406 25.363281 C 40.054688 24.835938 40.269531 24.199219 40.792969 23.9375 C 41.316406 23.675781 41.953125 23.890625 42.214844 24.417969 C 43.4375 26.890625 44.058594 29.554688 44.058594 32.335938 C 44.058594 36.949219 42.3125 41.324219 39.140625 44.660156 C 38.9375 44.867188 38.660156 44.988281 38.371094 44.988281 Z M 38.371094 44.988281 " fill-opacity="1" fill-rule="nonzero"/><path fill="#4c7fc7" d="M 16.484375 42.972656 C 16.15625 42.972656 15.832031 42.820312 15.625 42.53125 C 15.28125 42.058594 15.390625 41.390625 15.863281 41.046875 C 16.355469 40.6875 16.871094 40.355469 17.402344 40.046875 C 16.785156 37.65625 16.460938 35.011719 16.460938 32.335938 C 16.460938 29.347656 16.867188 26.394531 17.632812 23.792969 C 17.796875 23.230469 18.386719 22.910156 18.949219 23.074219 C 19.507812 23.242188 19.832031 23.832031 19.664062 24.398438 C 18.953125 26.804688 18.578125 29.550781 18.578125 32.335938 C 18.578125 35.121094 18.953125 37.867188 19.664062 40.273438 C 19.808594 40.765625 19.585938 41.289062 19.132812 41.523438 C 18.425781 41.886719 17.746094 42.304688 17.105469 42.769531 C 16.917969 42.90625 16.699219 42.972656 16.484375 42.972656 Z M 16.484375 42.972656 " fill-opacity="1" fill-rule="nonzero"/><path fill="#4c7fc7" d="M 12.546875 42.972656 C 12.210938 42.972656 11.882812 42.8125 11.675781 42.515625 C 9.597656 39.515625 8.5 35.996094 8.5 32.335938 C 8.5 27.589844 10.332031 23.125 13.664062 19.757812 C 16.996094 16.394531 21.429688 14.523438 26.15625 14.492188 C 26.15625 14.492188 26.160156 14.492188 26.160156 14.492188 C 26.742188 14.492188 27.21875 14.964844 27.222656 15.546875 C 27.226562 16.136719 26.753906 16.613281 26.167969 16.617188 C 17.59375 16.675781 10.617188 23.726562 10.617188 32.335938 C 10.617188 35.5625 11.585938 38.660156 13.414062 41.300781 C 13.75 41.785156 13.632812 42.445312 13.152344 42.78125 C 12.964844 42.910156 12.753906 42.972656 12.546875 42.972656 Z M 12.546875 42.972656 " fill-opacity="1" fill-rule="nonzero"/><path fill="#4c7fc7" d="M 26.277344 27.007812 C 23.421875 27.007812 20.691406 26.347656 18.164062 25.042969 C 17.644531 24.773438 17.4375 24.132812 17.707031 23.609375 C 17.972656 23.085938 18.613281 22.882812 19.132812 23.148438 C 21.355469 24.296875 23.761719 24.878906 26.277344 24.878906 C 28.1875 24.878906 30.054688 24.539062 31.824219 23.863281 C 31.992188 23.800781 32.171875 23.78125 32.347656 23.804688 C 32.378906 23.808594 32.410156 23.816406 32.445312 23.816406 C 32.449219 23.816406 32.457031 23.816406 32.464844 23.820312 C 32.484375 23.820312 32.503906 23.820312 32.523438 23.824219 C 33.109375 23.859375 33.550781 24.367188 33.511719 24.953125 C 33.476562 25.539062 32.972656 25.984375 32.386719 25.945312 C 32.371094 25.945312 32.355469 25.945312 32.335938 25.941406 C 30.394531 26.648438 28.359375 27.007812 26.277344 27.007812 Z M 26.277344 27.007812 " fill-opacity="1" fill-rule="nonzero"/><path fill="#4c7fc7" d="M 32.636719 25.953125 C 32.558594 25.953125 32.488281 25.953125 32.421875 25.945312 C 31.835938 25.90625 31.394531 25.402344 31.433594 24.816406 C 31.476562 24.226562 31.980469 23.785156 32.5625 23.824219 C 32.589844 23.828125 32.613281 23.828125 32.636719 23.828125 C 33.222656 23.828125 33.695312 24.300781 33.695312 24.890625 C 33.695312 25.476562 33.222656 25.953125 32.636719 25.953125 Z M 32.636719 25.953125 " fill-opacity="1" fill-rule="nonzero"/><path fill="#4c7fc7" d="M 19.941406 21.8125 C 19.78125 21.8125 19.621094 21.777344 19.46875 21.699219 C 18.945312 21.4375 18.734375 20.796875 18.996094 20.273438 C 20.816406 16.613281 23.351562 14.5625 26.136719 14.492188 C 26.179688 14.492188 26.230469 14.492188 26.277344 14.492188 C 28.0625 14.492188 29.792969 15.332031 31.289062 16.917969 C 31.691406 17.347656 31.671875 18.019531 31.246094 18.421875 C 30.820312 18.828125 30.148438 18.808594 29.746094 18.378906 C 28.648438 17.210938 27.480469 16.617188 26.277344 16.617188 C 26.25 16.617188 26.21875 16.617188 26.191406 16.617188 C 24.253906 16.667969 22.324219 18.347656 20.890625 21.222656 C 20.703125 21.597656 20.332031 21.8125 19.941406 21.8125 Z M 19.941406 21.8125 " fill-opacity="1" fill-rule="nonzero"/><path fill="#4c7fc7" d="M 18.648438 25.160156 C 18.546875 25.160156 18.449219 25.144531 18.347656 25.117188 C 17.785156 24.949219 17.464844 24.355469 17.632812 23.792969 C 18.007812 22.519531 18.464844 21.335938 18.996094 20.273438 C 19.257812 19.746094 19.894531 19.535156 20.417969 19.796875 C 20.941406 20.058594 21.152344 20.699219 20.890625 21.222656 C 20.417969 22.175781 20.003906 23.242188 19.664062 24.398438 C 19.527344 24.859375 19.105469 25.160156 18.648438 25.160156 Z M 18.648438 25.160156 " fill-opacity="1" fill-rule="nonzero"/><path fill="#4c7fc7" d="M 32.617188 44.976562 C 32.457031 44.976562 32.296875 44.941406 32.144531 44.863281 C 31.621094 44.601562 31.410156 43.960938 31.671875 43.4375 C 32.023438 42.730469 32.339844 41.960938 32.621094 41.136719 C 30.625 40.242188 28.496094 39.792969 26.277344 39.792969 C 23.761719 39.792969 21.355469 40.375 19.132812 41.523438 C 18.613281 41.789062 17.972656 41.585938 17.707031 41.0625 C 17.4375 40.539062 17.644531 39.898438 18.164062 39.628906 C 20.691406 38.328125 23.421875 37.664062 26.277344 37.664062 C 29.136719 37.664062 31.867188 38.328125 34.394531 39.628906 C 34.847656 39.863281 35.070312 40.386719 34.925781 40.878906 C 34.550781 42.152344 34.09375 43.332031 33.566406 44.386719 C 33.382812 44.761719 33.007812 44.976562 32.617188 44.976562 Z M 32.617188 44.976562 " fill-opacity="1" fill-rule="nonzero"/><path fill="#4c7fc7" d="M 43.234375 25.953125 L 32.636719 25.953125 C 32.570312 25.953125 32.511719 25.953125 32.453125 25.949219 C 32.429688 25.949219 32.40625 25.949219 32.382812 25.945312 C 32.34375 25.945312 32.304688 25.941406 32.265625 25.9375 C 32.210938 25.933594 32.132812 25.925781 32.046875 25.910156 C 29.964844 25.621094 28.398438 23.8125 28.398438 21.699219 C 28.398438 21.113281 28.871094 20.636719 29.457031 20.636719 L 30.515625 20.636719 C 31.101562 20.636719 31.578125 21.113281 31.578125 21.699219 C 31.578125 22.195312 31.238281 22.609375 30.785156 22.730469 C 31.097656 23.296875 31.667969 23.710938 32.34375 23.804688 C 32.351562 23.804688 32.359375 23.808594 32.367188 23.808594 C 32.394531 23.8125 32.417969 23.816406 32.445312 23.816406 C 32.453125 23.816406 32.457031 23.820312 32.464844 23.820312 C 32.480469 23.820312 32.496094 23.820312 32.507812 23.824219 C 32.527344 23.824219 32.546875 23.824219 32.5625 23.824219 C 32.589844 23.828125 32.613281 23.828125 32.636719 23.828125 L 43.234375 23.828125 C 43.800781 23.828125 44.332031 23.605469 44.734375 23.203125 C 44.875 23.058594 44.996094 22.902344 45.089844 22.730469 C 44.632812 22.613281 44.292969 22.195312 44.292969 21.699219 C 44.292969 21.113281 44.769531 20.636719 45.355469 20.636719 L 46.414062 20.636719 C 47 20.636719 47.472656 21.113281 47.472656 21.699219 C 47.472656 22.835938 47.03125 23.902344 46.230469 24.707031 C 45.429688 25.511719 44.367188 25.953125 43.234375 25.953125 Z M 43.234375 25.953125 " fill-opacity="1" fill-rule="nonzero"/><g clip-path="url(#3a9548e829)"><path fill="#4c7fc7" d="M 45.355469 22.761719 L 30.515625 22.761719 C 29.933594 22.761719 29.457031 22.285156 29.457031 21.699219 L 29.457031 12.125 C 29.457031 11.539062 29.933594 11.0625 30.515625 11.0625 L 45.355469 11.0625 C 45.941406 11.0625 46.414062 11.539062 46.414062 12.125 L 46.414062 21.699219 C 46.414062 22.285156 45.941406 22.761719 45.355469 22.761719 Z M 31.578125 20.636719 L 44.292969 20.636719 L 44.292969 13.191406 L 31.578125 13.191406 Z M 31.578125 20.636719 " fill-opacity="1" fill-rule="nonzero"/></g><path fill="#4c7fc7" d="M 20.980469 55.738281 L 10.382812 55.738281 C 8.042969 55.738281 6.140625 53.828125 6.140625 51.480469 C 6.140625 50.894531 6.617188 50.417969 7.203125 50.417969 L 8.261719 50.417969 C 8.847656 50.417969 9.320312 50.894531 9.320312 51.480469 C 9.320312 51.976562 8.984375 52.394531 8.527344 52.511719 C 8.890625 53.167969 9.585938 53.609375 10.382812 53.609375 L 20.980469 53.609375 C 21.546875 53.609375 22.078125 53.386719 22.476562 52.984375 C 22.621094 52.84375 22.738281 52.683594 22.835938 52.511719 C 22.378906 52.394531 22.039062 51.976562 22.039062 51.480469 C 22.039062 50.894531 22.511719 50.417969 23.097656 50.417969 L 24.160156 50.417969 C 24.742188 50.417969 25.21875 50.894531 25.21875 51.480469 C 25.21875 52.617188 24.777344 53.6875 23.976562 54.492188 C 23.175781 55.292969 22.109375 55.738281 20.980469 55.738281 Z M 20.980469 55.738281 " fill-opacity="1" fill-rule="nonzero"/><path fill="#4c7fc7" d="M 23.097656 52.546875 L 8.261719 52.546875 C 7.675781 52.546875 7.203125 52.070312 7.203125 51.480469 L 7.203125 41.910156 C 7.203125 41.320312 7.675781 40.84375 8.261719 40.84375 L 23.097656 40.84375 C 23.683594 40.84375 24.160156 41.320312 24.160156 41.910156 L 24.160156 51.480469 C 24.160156 52.070312 23.683594 52.546875 23.097656 52.546875 Z M 9.320312 50.417969 L 22.039062 50.417969 L 22.039062 42.972656 L 9.320312 42.972656 Z M 9.320312 50.417969 " fill-opacity="1" fill-rule="nonzero"/><g clip-path="url(#2c8af57732)"><path fill="#4c7fc7" d="M 36.875 56.800781 C 35.121094 56.800781 33.695312 55.371094 33.695312 53.609375 C 33.695312 51.851562 35.121094 50.417969 36.875 50.417969 C 38.628906 50.417969 40.054688 51.851562 40.054688 53.609375 C 40.054688 55.371094 38.628906 56.800781 36.875 56.800781 Z M 36.875 52.546875 C 36.292969 52.546875 35.816406 53.023438 35.816406 53.609375 C 35.816406 54.195312 36.292969 54.671875 36.875 54.671875 C 37.460938 54.671875 37.9375 54.195312 37.9375 53.609375 C 37.9375 53.023438 37.460938 52.546875 36.875 52.546875 Z M 36.875 52.546875 " fill-opacity="1" fill-rule="nonzero"/></g><g clip-path="url(#f15083cfaa)"><path fill="#4c7fc7" d="M 46.945312 48.292969 C 44.898438 48.292969 43.234375 46.621094 43.234375 44.570312 C 43.234375 42.515625 44.898438 40.84375 46.945312 40.84375 C 48.988281 40.84375 50.652344 42.515625 50.652344 44.570312 C 50.652344 46.621094 48.988281 48.292969 46.945312 48.292969 Z M 46.945312 42.972656 C 46.066406 42.972656 45.355469 43.6875 45.355469 44.570312 C 45.355469 45.449219 46.066406 46.164062 46.945312 46.164062 C 47.820312 46.164062 48.535156 45.449219 48.535156 44.570312 C 48.535156 43.6875 47.820312 42.972656 46.945312 42.972656 Z M 46.945312 42.972656 " fill-opacity="1" fill-rule="nonzero"/></g><path fill="#4c7fc7" d="M 8.792969 19.570312 C 6.746094 19.570312 5.082031 17.902344 5.082031 15.847656 C 5.082031 13.796875 6.746094 12.125 8.792969 12.125 C 10.835938 12.125 12.5 13.796875 12.5 15.847656 C 12.5 17.902344 10.835938 19.570312 8.792969 19.570312 Z M 8.792969 14.253906 C 7.914062 14.253906 7.203125 14.96875 7.203125 15.847656 C 7.203125 16.730469 7.914062 17.445312 8.792969 17.445312 C 9.667969 17.445312 10.382812 16.730469 10.382812 15.847656 C 10.382812 14.96875 9.667969 14.253906 8.792969 14.253906 Z M 8.792969 14.253906 " fill-opacity="1" fill-rule="nonzero"/></svg>