<svg xmlns="http://www.w3.org/2000/svg" xmlns:xlink="http://www.w3.org/1999/xlink" width="70" zoomAndPan="magnify" viewBox="0 0 52.5 67.499996" height="90" preserveAspectRatio="xMidYMid meet" version="1.0"><defs><clipPath id="08afeccbc0"><path d="M 0 0.0703125 L 52.003906 0.0703125 L 52.003906 66.933594 L 0 66.933594 Z M 0 0.0703125 " clip-rule="nonzero"/></clipPath><clipPath id="ac86dbaee9"><path d="M 2.207031 43 L 15 43 L 15 56 L 2.207031 56 Z M 2.207031 43 " clip-rule="nonzero"/></clipPath><clipPath id="82d986e807"><path d="M 2.207031 8 L 36 8 L 36 41 L 2.207031 41 Z M 2.207031 8 " clip-rule="nonzero"/></clipPath></defs><g clip-path="url(#08afeccbc0)"><path fill="#ffffff" d="M 0 0.0703125 L 52.5 0.0703125 L 52.5 67.570312 L 0 67.570312 Z M 0 0.0703125 " fill-opacity="1" fill-rule="nonzero"/><path fill="#ffffff" d="M 0 0.0703125 L 52.5 0.0703125 L 52.5 67.570312 L 0 67.570312 Z M 0 0.0703125 " fill-opacity="1" fill-rule="nonzero"/></g><path fill="#1e6bbe" d="M 19.648438 24.820312 C 19.648438 25.121094 19.589844 25.414062 19.476562 25.691406 C 19.359375 25.96875 19.195312 26.214844 18.980469 26.429688 C 18.769531 26.644531 18.523438 26.808594 18.242188 26.921875 C 17.964844 27.039062 17.675781 27.097656 17.371094 27.097656 C 17.070312 27.097656 16.78125 27.039062 16.503906 26.921875 C 16.222656 26.808594 15.976562 26.644531 15.765625 26.429688 C 15.550781 26.214844 15.386719 25.96875 15.269531 25.691406 C 15.15625 25.414062 15.097656 25.121094 15.097656 24.820312 C 15.097656 24.519531 15.15625 24.230469 15.269531 23.949219 C 15.386719 23.671875 15.550781 23.425781 15.765625 23.210938 C 15.976562 23 16.222656 22.832031 16.503906 22.71875 C 16.78125 22.601562 17.070312 22.546875 17.371094 22.546875 C 17.675781 22.546875 17.964844 22.601562 18.242188 22.71875 C 18.523438 22.832031 18.769531 23 18.980469 23.210938 C 19.195312 23.425781 19.359375 23.671875 19.476562 23.949219 C 19.589844 24.230469 19.648438 24.519531 19.648438 24.820312 Z M 19.648438 24.820312 " fill-opacity="1" fill-rule="nonzero"/><path fill="#1e6bbe" d="M 19.648438 40.75 L 19.648438 34.683594 L 21.164062 33.921875 L 21.164062 30.128906 C 21.164062 29.726562 21.085938 29.339844 20.933594 28.96875 C 20.78125 28.597656 20.558594 28.269531 20.277344 27.984375 C 19.992188 27.699219 19.664062 27.480469 19.292969 27.328125 C 18.921875 27.171875 18.535156 27.097656 18.132812 27.097656 L 16.613281 27.097656 C 16.210938 27.097656 15.824219 27.171875 15.453125 27.328125 C 15.082031 27.480469 14.753906 27.699219 14.46875 27.984375 C 14.183594 28.269531 13.964844 28.597656 13.8125 28.96875 C 13.660156 29.339844 13.582031 29.726562 13.582031 30.128906 L 13.582031 33.921875 L 15.097656 34.683594 L 15.097656 40.75 Z M 19.648438 40.75 " fill-opacity="1" fill-rule="nonzero"/><path fill="#1e6bbe" d="M 36.332031 24.820312 C 36.332031 25.121094 36.273438 25.414062 36.15625 25.691406 C 36.042969 25.96875 35.878906 26.214844 35.664062 26.429688 C 35.449219 26.644531 35.203125 26.808594 34.925781 26.921875 C 34.648438 27.039062 34.355469 27.097656 34.054688 27.097656 C 33.753906 27.097656 33.464844 27.039062 33.183594 26.921875 C 32.90625 26.808594 32.660156 26.644531 32.445312 26.429688 C 32.234375 26.214844 32.070312 25.96875 31.953125 25.691406 C 31.839844 25.414062 31.78125 25.121094 31.78125 24.820312 C 31.78125 24.519531 31.839844 24.230469 31.953125 23.949219 C 32.070312 23.671875 32.234375 23.425781 32.445312 23.210938 C 32.660156 23 32.90625 22.832031 33.183594 22.71875 C 33.464844 22.601562 33.753906 22.546875 34.054688 22.546875 C 34.355469 22.546875 34.648438 22.601562 34.925781 22.71875 C 35.203125 22.832031 35.449219 23 35.664062 23.210938 C 35.878906 23.425781 36.042969 23.671875 36.15625 23.949219 C 36.273438 24.230469 36.332031 24.519531 36.332031 24.820312 Z M 36.332031 24.820312 " fill-opacity="1" fill-rule="nonzero"/><path fill="#1e6bbe" d="M 30.265625 30.128906 L 30.265625 33.921875 L 31.78125 34.683594 L 31.78125 40.75 L 36.332031 40.75 L 36.332031 34.683594 L 37.847656 33.921875 L 37.847656 30.128906 C 37.847656 29.726562 37.769531 29.339844 37.617188 28.96875 C 37.460938 28.597656 37.242188 28.269531 36.957031 27.984375 C 36.675781 27.699219 36.347656 27.480469 35.972656 27.328125 C 35.601562 27.171875 35.214844 27.097656 34.8125 27.097656 L 33.296875 27.097656 C 32.894531 27.097656 32.507812 27.171875 32.136719 27.328125 C 31.765625 27.480469 31.4375 27.699219 31.152344 27.984375 C 30.867188 28.269531 30.648438 28.597656 30.496094 28.96875 C 30.339844 29.339844 30.265625 29.726562 30.265625 30.128906 Z M 30.265625 30.128906 " fill-opacity="1" fill-rule="nonzero"/><path fill="#1e6bbe" d="M 27.988281 24.820312 C 27.988281 25.121094 27.929688 25.414062 27.816406 25.691406 C 27.699219 25.96875 27.535156 26.214844 27.324219 26.429688 C 27.109375 26.644531 26.863281 26.808594 26.585938 26.921875 C 26.304688 27.039062 26.015625 27.097656 25.714844 27.097656 C 25.414062 27.097656 25.121094 27.039062 24.84375 26.921875 C 24.566406 26.808594 24.320312 26.644531 24.105469 26.429688 C 23.890625 26.214844 23.726562 25.96875 23.613281 25.691406 C 23.496094 25.414062 23.4375 25.121094 23.4375 24.820312 C 23.4375 24.519531 23.496094 24.230469 23.613281 23.949219 C 23.726562 23.671875 23.890625 23.425781 24.105469 23.210938 C 24.320312 23 24.566406 22.832031 24.84375 22.71875 C 25.121094 22.601562 25.414062 22.546875 25.714844 22.546875 C 26.015625 22.546875 26.304688 22.601562 26.585938 22.71875 C 26.863281 22.832031 27.109375 23 27.324219 23.210938 C 27.535156 23.425781 27.699219 23.671875 27.816406 23.949219 C 27.929688 24.230469 27.988281 24.519531 27.988281 24.820312 Z M 27.988281 24.820312 " fill-opacity="1" fill-rule="nonzero"/><path fill="#1e6bbe" d="M 21.921875 30.128906 L 21.921875 33.921875 L 23.4375 34.683594 L 23.4375 40.75 L 27.988281 40.75 L 27.988281 34.683594 L 29.503906 33.921875 L 29.503906 30.128906 C 29.503906 29.726562 29.429688 29.339844 29.273438 28.96875 C 29.121094 28.597656 28.902344 28.269531 28.617188 27.984375 C 28.332031 27.699219 28.003906 27.480469 27.632812 27.328125 C 27.261719 27.171875 26.875 27.097656 26.472656 27.097656 L 24.957031 27.097656 C 24.554688 27.097656 24.167969 27.171875 23.796875 27.328125 C 23.421875 27.480469 23.09375 27.699219 22.8125 27.984375 C 22.527344 28.269531 22.308594 28.597656 22.152344 28.96875 C 22 29.339844 21.921875 29.726562 21.921875 30.128906 Z M 21.921875 30.128906 " fill-opacity="1" fill-rule="nonzero"/><path fill="#1e6bbe" d="M 43.15625 8.132812 L 41.28125 12.128906 L 37.089844 12.769531 L 40.121094 15.878906 L 39.40625 20.269531 L 43.15625 18.195312 L 46.902344 20.269531 L 46.1875 15.878906 L 49.222656 12.769531 L 45.03125 12.128906 Z M 43.15625 8.132812 " fill-opacity="1" fill-rule="nonzero"/><g clip-path="url(#ac86dbaee9)"><path fill="#1e6bbe" d="M 3.253906 49.09375 C 3.257812 49.394531 3.285156 49.6875 3.34375 49.980469 L 2.207031 50.613281 C 2.5 51.707031 3.054688 52.640625 3.875 53.421875 L 4.535156 53.050781 C 4.828125 52.882812 5.117188 52.890625 5.402344 53.074219 C 5.640625 53.230469 5.886719 53.371094 6.148438 53.488281 C 6.453125 53.628906 6.605469 53.871094 6.601562 54.207031 L 6.601562 54.941406 C 7.714844 55.246094 8.832031 55.242188 9.945312 54.9375 L 9.945312 54.207031 C 9.941406 53.871094 10.09375 53.628906 10.398438 53.488281 C 10.660156 53.371094 10.90625 53.230469 11.144531 53.074219 C 11.429688 52.890625 11.71875 52.882812 12.011719 53.050781 L 12.667969 53.417969 C 13.488281 52.640625 14.046875 51.707031 14.339844 50.613281 L 13.203125 49.980469 C 13.320312 49.390625 13.320312 48.800781 13.203125 48.210938 L 14.339844 47.574219 C 14.046875 46.484375 13.492188 45.546875 12.671875 44.769531 L 12.011719 45.136719 C 11.71875 45.308594 11.429688 45.300781 11.144531 45.117188 C 10.90625 44.957031 10.660156 44.820312 10.398438 44.703125 C 10.09375 44.558594 9.941406 44.320312 9.945312 43.984375 L 9.945312 43.25 C 8.832031 42.945312 7.714844 42.945312 6.601562 43.253906 L 6.601562 43.984375 C 6.605469 44.320312 6.453125 44.558594 6.148438 44.703125 C 5.886719 44.820312 5.640625 44.957031 5.402344 45.117188 C 5.117188 45.300781 4.828125 45.308594 4.535156 45.136719 L 3.878906 44.773438 C 3.058594 45.546875 2.5 46.484375 2.207031 47.574219 L 3.34375 48.210938 C 3.285156 48.5 3.257812 48.796875 3.253906 49.09375 Z M 8.273438 46.820312 C 8.574219 46.820312 8.867188 46.875 9.144531 46.992188 C 9.421875 47.109375 9.667969 47.273438 9.882812 47.484375 C 10.09375 47.699219 10.257812 47.945312 10.375 48.222656 C 10.492188 48.503906 10.546875 48.792969 10.546875 49.09375 C 10.546875 49.398438 10.492188 49.6875 10.375 49.964844 C 10.257812 50.246094 10.09375 50.492188 9.882812 50.703125 C 9.667969 50.917969 9.421875 51.082031 9.144531 51.199219 C 8.867188 51.3125 8.574219 51.371094 8.273438 51.371094 C 7.972656 51.371094 7.679688 51.3125 7.402344 51.199219 C 7.125 51.082031 6.878906 50.917969 6.664062 50.703125 C 6.453125 50.492188 6.289062 50.246094 6.171875 49.964844 C 6.054688 49.6875 6 49.398438 6 49.09375 C 6 48.792969 6.054688 48.503906 6.171875 48.222656 C 6.289062 47.945312 6.453125 47.699219 6.664062 47.484375 C 6.878906 47.273438 7.125 47.109375 7.402344 46.992188 C 7.679688 46.875 7.972656 46.820312 8.273438 46.820312 Z M 8.273438 46.820312 " fill-opacity="1" fill-rule="nonzero"/></g><g clip-path="url(#82d986e807)"><path fill="#1e6bbe" d="M 2.964844 31.648438 C 2.960938 34.636719 3.523438 37.515625 4.660156 40.28125 L 6.0625 39.703125 C 5.664062 38.726562 5.335938 37.722656 5.085938 36.695312 C 4.835938 35.667969 4.664062 34.625 4.566406 33.570312 C 4.472656 32.519531 4.457031 31.464844 4.519531 30.40625 C 4.582031 29.351562 4.722656 28.304688 4.9375 27.269531 C 5.15625 26.238281 5.453125 25.222656 5.820312 24.230469 C 6.191406 23.242188 6.632812 22.28125 7.144531 21.359375 C 7.65625 20.433594 8.234375 19.550781 8.878906 18.710938 C 9.523438 17.871094 10.226562 17.085938 10.988281 16.351562 C 11.75 15.621094 12.5625 14.945312 13.425781 14.332031 C 14.285156 13.722656 15.1875 13.175781 16.132812 12.699219 C 17.074219 12.21875 18.050781 11.816406 19.054688 11.484375 C 20.058594 11.152344 21.082031 10.894531 22.121094 10.714844 C 23.164062 10.535156 24.214844 10.4375 25.269531 10.414062 C 26.328125 10.390625 27.382812 10.445312 28.429688 10.582031 C 29.480469 10.714844 30.511719 10.929688 31.53125 11.21875 C 32.546875 11.503906 33.535156 11.867188 34.5 12.304688 L 35.128906 10.925781 C 34.695312 10.730469 34.261719 10.546875 33.816406 10.378906 C 33.375 10.210938 32.925781 10.054688 32.476562 9.914062 C 32.023438 9.773438 31.566406 9.648438 31.105469 9.535156 C 30.648438 9.425781 30.183594 9.328125 29.71875 9.246094 C 29.253906 9.160156 28.785156 9.09375 28.3125 9.039062 C 27.84375 8.984375 27.371094 8.945312 26.898438 8.921875 C 26.425781 8.898438 25.953125 8.886719 25.480469 8.890625 C 25.007812 8.898438 24.535156 8.917969 24.0625 8.953125 C 23.589844 8.988281 23.117188 9.035156 22.648438 9.101562 C 22.179688 9.164062 21.714844 9.242188 21.25 9.335938 C 20.785156 9.429688 20.324219 9.535156 19.867188 9.65625 C 19.410156 9.78125 18.957031 9.917969 18.507812 10.066406 C 18.058594 10.214844 17.613281 10.378906 17.175781 10.558594 C 16.738281 10.734375 16.304688 10.925781 15.878906 11.132812 C 15.449219 11.335938 15.03125 11.554688 14.617188 11.785156 C 14.203125 12.019531 13.796875 12.261719 13.402344 12.519531 C 13.003906 12.773438 12.613281 13.042969 12.230469 13.324219 C 11.851562 13.605469 11.476562 13.898438 11.117188 14.199219 C 10.753906 14.503906 10.398438 14.820312 10.054688 15.144531 C 9.710938 15.472656 9.378906 15.808594 9.058594 16.15625 C 8.734375 16.503906 8.421875 16.859375 8.125 17.226562 C 7.824219 17.589844 7.535156 17.964844 7.257812 18.351562 C 6.980469 18.734375 6.71875 19.128906 6.464844 19.527344 C 6.210938 19.929688 5.972656 20.335938 5.746094 20.753906 C 5.519531 21.167969 5.304688 21.589844 5.105469 22.019531 C 4.90625 22.449219 4.71875 22.882812 4.546875 23.324219 C 4.371094 23.765625 4.210938 24.210938 4.066406 24.660156 C 3.921875 25.113281 3.789062 25.566406 3.671875 26.027344 C 3.554688 26.484375 3.453125 26.945312 3.363281 27.414062 C 3.277344 27.878906 3.203125 28.34375 3.144531 28.816406 C 3.085938 29.285156 3.039062 29.757812 3.011719 30.230469 C 2.980469 30.703125 2.964844 31.175781 2.964844 31.648438 Z M 2.964844 31.648438 " fill-opacity="1" fill-rule="nonzero"/></g><path fill="#1e6bbe" d="M 25.714844 52.886719 C 22.925781 52.894531 20.242188 52.367188 17.660156 51.304688 L 17.085938 52.710938 C 18.109375 53.128906 19.160156 53.472656 20.238281 53.738281 C 21.3125 54.003906 22.402344 54.191406 23.503906 54.296875 C 24.605469 54.40625 25.710938 54.429688 26.820312 54.378906 C 27.925781 54.324219 29.023438 54.1875 30.109375 53.972656 C 31.195312 53.757812 32.261719 53.464844 33.308594 53.097656 C 34.351562 52.726562 35.363281 52.28125 36.34375 51.761719 C 37.320312 51.246094 38.257812 50.65625 39.152344 50.003906 C 40.046875 49.347656 40.886719 48.632812 41.675781 47.855469 C 42.464844 47.074219 43.195312 46.246094 43.863281 45.359375 C 44.53125 44.476562 45.132812 43.546875 45.664062 42.574219 C 46.195312 41.601562 46.65625 40.597656 47.039062 39.558594 C 47.425781 38.519531 47.734375 37.457031 47.964844 36.375 C 48.195312 35.289062 48.347656 34.195312 48.417969 33.085938 C 48.488281 31.980469 48.476562 30.875 48.386719 29.769531 C 48.296875 28.667969 48.125 27.574219 47.875 26.496094 C 47.625 25.414062 47.296875 24.359375 46.894531 23.328125 L 45.480469 23.882812 C 45.796875 24.683594 46.0625 25.503906 46.277344 26.335938 C 46.492188 27.171875 46.652344 28.015625 46.765625 28.871094 C 46.878906 29.722656 46.9375 30.582031 46.945312 31.445312 C 46.953125 32.304688 46.910156 33.164062 46.8125 34.019531 C 46.714844 34.875 46.566406 35.722656 46.367188 36.5625 C 46.167969 37.398438 45.917969 38.222656 45.617188 39.03125 C 45.320312 39.839844 44.972656 40.625 44.574219 41.390625 C 44.179688 42.15625 43.738281 42.894531 43.253906 43.605469 C 42.769531 44.320312 42.242188 45 41.675781 45.644531 C 41.109375 46.292969 40.503906 46.90625 39.859375 47.480469 C 39.21875 48.054688 38.542969 48.585938 37.835938 49.078125 C 37.128906 49.570312 36.394531 50.019531 35.632812 50.421875 C 34.871094 50.824219 34.089844 51.179688 33.285156 51.488281 C 32.480469 51.792969 31.660156 52.050781 30.824219 52.261719 C 29.988281 52.46875 29.144531 52.625 28.289062 52.730469 C 27.433594 52.835938 26.574219 52.886719 25.714844 52.886719 Z M 25.714844 52.886719 " fill-opacity="1" fill-rule="nonzero"/></svg>