<svg width="64" height="64" viewBox="0 0 64 64" fill="none" xmlns="http://www.w3.org/2000/svg">
<path d="M61.5758 10.1818C60.7031 9.21215 59.5395 8.53336 58.1819 8.43639L55.5637 8.24245V5.91518C55.5637 3.20003 53.3334 0.969727 50.6182 0.969727H20.4607C17.7455 0.969727 15.5152 3.20003 15.5152 5.91518V28.0243C15.5152 28.1212 15.5152 28.1212 15.5152 28.2182C13.1879 29.4788 10.7637 30.5455 8.24248 31.2243C6.20612 31.8061 4.16976 32.194 2.03642 32.3879C1.55157 32.3879 1.1637 32.8728 1.1637 33.3576V33.4546C1.1637 45.3818 7.17582 56.3394 17.1637 62.8364C17.3576 62.9334 17.4546 63.0303 17.6485 63.0303C17.8425 63.0303 18.0364 62.9334 18.1334 62.8364C19.6849 61.8667 21.1395 60.7031 22.497 59.5394L53.1395 62.3516C53.3334 62.3516 53.4304 62.3516 53.6243 62.3516C56.1455 62.3516 58.2789 60.4122 58.5698 57.8909L62.6425 13.7697C62.8364 12.5091 62.4485 11.2485 61.5758 10.1818ZM17.8425 60.897C8.8243 54.8849 3.394 44.994 3.20006 34.2303C5.04248 34.0364 6.98188 33.6485 8.8243 33.1637C12.0243 32.2909 15.0304 30.9334 17.7455 29.1879C20.4607 30.9334 23.5637 32.194 26.6667 33.1637C28.5092 33.6485 30.4485 34.0364 32.291 34.2303C32.194 44.994 26.7637 54.8849 17.8425 60.897ZM53.7213 50.2303C53.7213 51.8788 52.3637 53.2364 50.7152 53.2364H28.3152C32.194 47.5152 34.4243 40.7273 34.4243 33.5515V33.4546C34.4243 32.9697 34.0364 32.4849 33.5516 32.4849C31.5152 32.2909 29.3819 31.9031 27.3455 31.3212C24.1455 30.4485 21.1395 29.0909 18.4243 27.2485C18.1334 27.0546 17.8425 27.0546 17.5516 27.1515V5.91518C17.4546 4.2667 18.8122 2.90912 20.4607 2.90912H50.7152C52.3637 2.90912 53.7213 4.2667 53.7213 5.91518V50.2303Z" fill="#1007AA"/>
<path d="M23.0788 40.6303V37.1394C23.0788 34.3273 20.7516 32 17.9394 32C15.1273 32 12.8 34.3273 12.8 37.1394V40.5334C11.2485 40.9213 9.98792 42.2788 9.98792 44.0243V47.4182C9.98792 51.6849 13.4788 55.1758 17.7455 55.1758C22.0122 55.1758 25.5031 51.6849 25.5031 47.4182V44.0243C25.6 42.4728 24.5334 41.1152 23.0788 40.6303ZM20.0728 50.7152C20.0728 51.0061 19.9758 51.2 19.7819 51.491C19.5879 51.6849 19.297 51.7819 19.1031 51.7819H16.4849C16.194 51.7819 16 51.6849 15.8061 51.491C15.6122 51.297 15.5152 51.0061 15.5152 50.7152C15.6122 49.8425 15.6122 48.8728 15.6122 48.4849C15.4182 48.194 15.4182 47.8061 15.4182 47.4182C15.4182 46.0606 16.4849 44.994 17.8425 44.994C19.2 44.994 20.2667 46.0606 20.2667 47.4182C20.2667 47.8061 20.1697 48.097 20.0728 48.4849C19.9758 48.8728 20.0728 49.9394 20.0728 50.7152ZM21.1394 40.4364H14.7394V37.1394C14.7394 35.394 16.194 33.9394 17.9394 33.9394C19.6849 33.9394 21.1394 35.394 21.1394 37.1394V40.4364ZM33.9394 7.85459V18.5213C33.9394 19.0061 33.5516 19.4909 32.9697 19.4909H22.3031C21.7212 19.4909 21.3334 19.0061 21.3334 18.5213V7.85459C21.3334 7.27277 21.7212 6.88489 22.3031 6.88489H32.9697C33.4546 6.88489 33.9394 7.27277 33.9394 7.85459ZM38.4 9.98792H48.8728C49.4546 9.98792 49.8425 9.60004 49.8425 9.01822C49.8425 8.4364 49.4546 8.04852 48.8728 8.04852H38.4C37.8182 8.04852 37.4303 8.4364 37.4303 9.01822C37.4303 9.50307 37.9152 9.98792 38.4 9.98792ZM38.4 14.1576H48.8728C49.4546 14.1576 49.8425 13.7697 49.8425 13.1879C49.8425 12.6061 49.4546 12.2182 48.8728 12.2182H38.4C37.8182 12.2182 37.4303 12.6061 37.4303 13.1879C37.4303 13.6728 37.9152 14.1576 38.4 14.1576ZM38.4 18.2303H48.8728C49.4546 18.2303 49.8425 17.8425 49.8425 17.2606C49.8425 16.6788 49.4546 16.2909 48.8728 16.2909H38.4C37.8182 16.2909 37.4303 16.6788 37.4303 17.2606C37.4303 17.8425 37.9152 18.2303 38.4 18.2303ZM48.8728 23.3697H23.1758C22.594 23.3697 22.2061 23.7576 22.2061 24.3394C22.2061 24.9213 22.594 25.3091 23.1758 25.3091H48.8728C49.4546 25.3091 49.8425 24.9213 49.8425 24.3394C49.8425 23.7576 49.4546 23.3697 48.8728 23.3697ZM48.8728 28.1213H33.3576C32.7758 28.1213 32.3879 28.5091 32.3879 29.0909C32.3879 29.6728 32.7758 30.0606 33.3576 30.0606H48.8728C49.4546 30.0606 49.8425 29.6728 49.8425 29.0909C49.8425 28.6061 49.4546 28.1213 48.8728 28.1213ZM48.8728 32.9697H39.2728C38.6909 32.9697 38.3031 33.3576 38.3031 33.9394C38.3031 34.5213 38.6909 34.9091 39.2728 34.9091H48.8728C49.4546 34.9091 49.8425 34.5213 49.8425 33.9394C49.8425 33.3576 49.4546 32.9697 48.8728 32.9697ZM48.8728 37.7213H38.4C37.8182 37.7213 37.4303 38.1091 37.4303 38.691C37.4303 39.2728 37.8182 39.6606 38.4 39.6606H48.8728C49.4546 39.6606 49.8425 39.2728 49.8425 38.691C49.8425 38.1091 49.4546 37.7213 48.8728 37.7213ZM48.8728 42.4728H37.5273C36.9455 42.4728 36.5576 42.8606 36.5576 43.4425C36.5576 44.0243 36.9455 44.4122 37.5273 44.4122H48.9697C49.5516 44.4122 49.9394 44.0243 49.9394 43.4425C49.8425 42.9576 49.4546 42.4728 48.8728 42.4728ZM48.8728 47.3213H36.5576C35.9758 47.3213 35.5879 47.7091 35.5879 48.291C35.5879 48.8728 35.9758 49.2606 36.5576 49.2606H48.8728C49.4546 49.2606 49.8425 48.8728 49.8425 48.291C49.8425 47.7091 49.4546 47.3213 48.8728 47.3213Z" fill="#1007AA"/>
</svg>
