<svg width="64" height="64" viewBox="0 0 64 64" fill="none" xmlns="http://www.w3.org/2000/svg">
<path d="M42.1979 25.718C42.5764 25.718 42.8836 25.4108 42.8836 25.0323V22.9029C42.8836 21.2901 42.1102 19.7596 40.8146 18.8069C40.5092 18.582 40.0804 18.6478 39.8564 18.9532C39.6324 19.2586 39.6974 19.6874 40.0027 19.9123C40.9481 20.6071 41.5131 21.7253 41.5131 22.9029V25.0323C41.5122 25.4108 41.8194 25.718 42.1979 25.718ZM38.1806 16.8129C38.2793 16.8631 38.3854 16.886 38.4887 16.886C38.7392 16.886 38.9806 16.7488 39.1012 16.5093C40.096 14.539 39.7156 12.1719 38.1568 10.6204L36.1719 8.63457C35.904 8.36668 35.4697 8.36668 35.2018 8.63457C34.9339 8.90245 34.9339 9.33674 35.2018 9.60462L37.1876 11.5914C38.3259 12.7251 38.603 14.4531 37.8761 15.8922C37.707 16.2295 37.8432 16.6419 38.1806 16.8129ZM3.04456 27.5777L6.86902 28.8293C7.01805 29.3541 7.20182 29.867 7.41851 30.3598L5.44913 34.2583C5.16936 34.8124 5.27725 35.4798 5.71611 35.9169L8.68479 38.8718C9.12273 39.3089 9.79016 39.4149 10.3406 39.1342L13.7033 37.4346C14.2692 37.7601 14.8672 38.0535 15.4898 38.3095L16.7433 42.1633C16.9353 42.7548 17.482 43.1525 18.1047 43.1525H22.3086C22.9294 43.1525 23.4761 42.7557 23.669 42.1651L24.7195 38.9477C25.5543 38.7374 26.3515 38.4613 27.0985 38.1249L30.3332 39.7614C30.8864 40.043 31.5529 39.9351 31.9918 39.4972L34.9614 36.5285C35.3993 36.0897 35.5054 35.4222 35.2256 34.87L33.8423 32.1409C34.357 31.2732 34.7703 30.3863 35.0729 29.4977L38.2446 28.4526C38.8334 28.2588 39.2283 27.7121 39.2283 27.094V22.9038C39.2283 22.2839 38.8334 21.7381 38.2446 21.5434L35.3911 20.6062C35.1241 19.6654 34.7666 18.7466 34.3241 17.867L35.8391 14.8627C36.1179 14.3105 36.011 13.6439 35.573 13.206L32.618 10.2501C32.1801 9.81399 31.5154 9.70611 30.9641 9.98496L28.0457 11.4506C27.2503 11.0382 26.4603 10.7027 25.6868 10.4503L24.544 6.95685C24.352 6.36622 23.8043 5.97034 23.1835 5.97034H18.9787C18.3588 5.97034 17.8121 6.36714 17.6183 6.95594L16.4754 10.4494C15.8382 10.6551 15.2119 10.9084 14.6057 11.2055L10.954 9.35959C10.3991 9.07799 9.73439 9.18588 9.29645 9.62474L6.32685 12.5925C5.88799 13.0323 5.78193 13.7006 6.06353 14.2547L7.86833 17.7948C7.62788 18.2574 7.40571 18.763 7.20273 19.3052L3.04456 20.6684C2.45576 20.8622 2.05988 21.409 2.05988 22.0279V26.2163C2.05896 26.838 2.45576 27.3847 3.04456 27.5777ZM3.47153 21.9713L7.94696 20.5047C8.14993 20.438 8.30993 20.2807 8.38125 20.0796C8.63451 19.3555 8.92342 18.7036 9.23976 18.1413C9.35313 17.9411 9.35771 17.6988 9.25348 17.4931L7.29599 13.5617L10.3342 10.582L14.2958 12.5843C14.4923 12.683 14.7255 12.6821 14.923 12.5806C15.6571 12.1975 16.427 11.8867 17.2105 11.6563C17.4272 11.5932 17.5991 11.4259 17.6686 11.2119L18.9778 7.33994L23.2393 7.38108L24.4919 11.2119C24.5623 11.4259 24.7332 11.5923 24.949 11.6563C25.8414 11.9196 26.7694 12.3118 27.7065 12.822C27.904 12.9308 28.1417 12.9354 28.3419 12.833L31.6471 11.2183L34.613 14.2428L32.9399 17.5607C32.8393 17.7601 32.842 17.9959 32.9463 18.1916C33.4738 19.1827 33.8816 20.2314 34.1595 21.3102C34.218 21.537 34.3881 21.718 34.6094 21.7911L37.8551 22.902L37.8139 27.1498L34.3122 28.3027C34.101 28.3713 33.9364 28.5395 33.8715 28.7507C33.5625 29.7537 33.0926 30.7603 32.4763 31.7441C32.3483 31.9479 32.3364 32.2039 32.4452 32.4179L33.9904 35.5575L30.9522 38.5372L27.4194 36.7498C27.2292 36.6547 27.0043 36.651 26.8114 36.7434C25.9593 37.1548 25.0249 37.4766 24.0347 37.7006C23.7988 37.7537 23.6087 37.9265 23.5337 38.1569L22.3067 41.7802L18.0462 41.739L16.6939 37.579C16.6299 37.3825 16.4818 37.2252 16.2898 37.1511C15.5099 36.8494 14.7694 36.4846 14.0882 36.0659C13.8788 35.9388 13.6247 35.9342 13.4208 36.0394L9.65302 37.899L6.67336 34.8737L8.79176 30.6817C8.88685 30.4924 8.88959 30.2702 8.79908 30.0782C8.50559 29.4602 8.27062 28.8028 8.10148 28.1253C8.04388 27.8967 7.87382 27.713 7.64982 27.6398L3.43131 26.2145L3.47153 21.9713Z" fill="#1007AA"/>
<path d="M14.0846 17.0505C14.2674 16.8905 14.4567 16.7369 14.6514 16.5916C14.955 16.3639 15.0162 15.9342 14.7886 15.6307C14.5609 15.328 14.1321 15.2686 13.8286 15.4935C13.6064 15.6608 13.3906 15.8355 13.1812 16.0183C12.896 16.267 12.8667 16.7004 13.1163 16.9865C13.3668 17.2709 13.7984 17.3011 14.0846 17.0505ZM11.4532 30.0105C11.7906 29.8377 11.9241 29.4245 11.7513 29.0871C11.029 27.6755 10.6624 26.1532 10.6624 24.5605C10.6624 22.8517 11.1049 21.1639 11.9415 19.68C12.128 19.3509 12.011 18.9331 11.6809 18.7465C11.3518 18.5628 10.9339 18.6761 10.7465 19.0071C9.79381 20.6958 9.29004 22.6158 9.29004 24.5605C9.29004 26.3717 9.70695 28.1061 10.5298 29.7125C10.7035 30.0517 11.1177 30.1815 11.4532 30.0105ZM28.341 24.5587C28.341 28.8009 24.8942 32.2478 20.6519 32.2478C16.4004 32.2478 12.9444 28.8009 12.9444 24.5587C12.9444 20.3255 16.4004 16.8695 20.6519 16.8695C24.8942 16.8695 28.341 20.3255 28.341 24.5587ZM32.5394 46.8169C32.0064 46.219 31.691 45.4483 31.6507 44.6473C31.6315 44.2688 31.3143 43.9598 30.9321 43.9964C30.5536 44.0156 30.2628 44.3365 30.2811 44.715C30.3369 45.8286 30.7748 46.8992 31.5154 47.7294C31.7678 48.0119 32.2011 48.0375 32.4836 47.7852C32.7662 47.5328 32.7908 47.1004 32.5394 46.8169ZM36.3364 56.6062C37.2608 57.5251 38.4878 58.0316 39.7906 58.0316C40.1691 58.0316 40.4763 57.7244 40.4763 57.3459C40.4763 56.9673 40.1691 56.6601 39.7906 56.6601C38.8526 56.6601 37.9684 56.2963 37.3038 55.6343L35.0939 53.4345C34.3634 52.7059 33.9876 51.7011 34.0626 50.6789C34.09 50.3013 33.8066 49.9721 33.429 49.9438C33.0596 49.931 32.7232 50.1998 32.6948 50.5765C32.5897 51.9982 33.1118 53.3934 34.1257 54.4055L36.3364 56.6062ZM61.0907 40.8238L59.061 40.1564C58.869 39.5072 58.6222 38.8672 58.3113 38.2547L59.4084 36.0969C59.6462 35.6215 59.5547 35.0455 59.1707 34.6615L56.9764 32.4581C56.5924 32.0832 56.0164 31.9918 55.541 32.2295L53.4473 33.2809C52.9079 33.0067 52.3593 32.7781 51.829 32.5952L51.0062 30.0809C50.8416 29.5689 50.3662 29.2215 49.8267 29.2215H46.6999C46.1604 29.2215 45.685 29.5689 45.5204 30.0809L44.6976 32.5952C44.277 32.7324 43.8564 32.9061 43.445 33.0981L40.8119 31.7632C40.3273 31.5255 39.7513 31.6169 39.3673 31.9918L37.1547 34.2044C36.7799 34.5884 36.6884 35.1644 36.9353 35.6489L38.2336 38.1998C38.0782 38.5107 37.9319 38.8398 37.8039 39.1872L34.7867 40.1747C34.2747 40.3392 33.9364 40.8147 33.9364 41.3541V44.4718C33.9364 45.0112 34.2747 45.4775 34.7867 45.6512L37.5479 46.5472C37.6484 46.8947 37.7673 47.2238 37.9044 47.5438L36.4782 50.3781C36.2313 50.8535 36.3227 51.4295 36.7067 51.8135L38.9193 54.0078C39.2942 54.3918 39.8702 54.4832 40.3547 54.2364L42.7684 53.0204C43.1524 53.2307 43.5456 53.4227 43.957 53.5964L44.8713 56.3941C45.0359 56.9061 45.5113 57.2444 46.0507 57.2444H49.1776C49.717 57.2444 50.1924 56.9061 50.357 56.3941L51.1067 54.0901C51.6736 53.9438 52.2222 53.7518 52.7342 53.5232L55.0747 54.7027C55.5502 54.9495 56.1262 54.8581 56.5102 54.4741L58.7227 52.2707C59.0976 51.8867 59.189 51.3107 58.9513 50.8261L57.9639 48.8878C58.3113 48.2844 58.5947 47.6718 58.8142 47.0501L61.0907 46.3004C61.6027 46.1358 61.941 45.6604 61.941 45.1209V42.0032C61.941 41.4638 61.6027 40.9884 61.0907 40.8238ZM47.9433 48.9747C44.7716 48.9747 42.197 46.4009 42.197 43.2375C42.197 40.0741 44.7707 37.5004 47.9433 37.5004C51.1067 37.5004 53.6804 40.0741 53.6804 43.2375C53.6804 46.4009 51.1058 48.9747 47.9433 48.9747Z" fill="#1007AA"/>
</svg>
