<svg width="64" height="64" viewBox="0 0 64 64" fill="none" xmlns="http://www.w3.org/2000/svg">
<path d="M41.07 43.01C41.22 41.91 41.61 40.85 42.23 39.91C42.53 39.45 42.4 38.83 41.94 38.53C41.48 38.23 40.86 38.35 40.56 38.82C39.72 40.09 39.21 41.53 39.05 43.01H24.94C24.66 40.39 23.29 37.99 21.08 36.3C18.21 34.11 16.09 31.17 14.94 27.78C14.83 27.34 14.44 27.03 13.97 27.03C13.42 27.03 12.97 27.48 12.97 28.03C12.97 28.14 12.99 28.25 13.02 28.35C14.29 32.15 16.66 35.44 19.86 37.89C21.57 39.2 22.64 41.03 22.91 43.02C21.29 43.06 19.98 44.38 19.98 46.01C19.98 47.64 21.33 49.01 22.98 49.01V51.01H21.98C21.43 51.01 20.98 51.46 20.98 52.01C20.98 52.56 21.43 53.01 21.98 53.01H22.98V54.01C22.98 55.66 24.33 57.01 25.98 57.01H26.98C26.98 59.77 29.22 62.01 31.98 62.01C34.74 62.01 36.98 59.77 36.98 57.01H37.98C39.63 57.01 40.98 55.66 40.98 54.01V53.01H41.98C42.53 53.01 42.98 52.56 42.98 52.01C42.98 51.46 42.53 51.01 41.98 51.01H40.98V49.01C42.63 49.01 43.98 47.66 43.98 46.01C43.98 44.36 42.67 43.06 41.05 43.02L41.07 43.01ZM32 60C30.35 60 29 58.65 29 57H35C35 58.65 33.65 60 32 60ZM39 54C39 54.55 38.55 55 38 55H26C25.45 55 25 54.55 25 54V53H39V54ZM39 51H25V49H39V51ZM41 47H23C22.45 47 22 46.55 22 46C22 45.45 22.45 45 23 45H23.98H24H40H40.02H41C41.55 45 42 45.45 42 46C42 46.55 41.55 47 41 47ZM41.79 26.53C41.94 26.22 42.06 25.91 42.18 25.59L44.24 25.07C44.69 24.96 45 24.56 45 24.1V19.74C45 19.28 44.69 18.88 44.24 18.77L42.18 18.25C42.07 17.93 41.94 17.62 41.79 17.31L42.89 15.49C43.13 15.1 43.07 14.59 42.74 14.27L39.65 11.18C39.32 10.85 38.82 10.79 38.43 11.03L36.61 12.13C36.3 11.98 35.99 11.86 35.67 11.74L35.15 9.68004C35.04 9.23004 34.64 8.92004 34.18 8.92004H29.82C29.36 8.92004 28.96 9.23004 28.85 9.68004L28.33 11.74C28.01 11.85 27.7 11.98 27.39 12.13L25.57 11.03C25.18 10.79 24.67 10.85 24.35 11.18L21.26 14.27C20.93 14.59 20.87 15.1 21.11 15.49L22.21 17.31C22.06 17.62 21.94 17.93 21.82 18.25L19.76 18.77C19.31 18.88 19 19.28 19 19.74V22.31C19 22.86 19.45 23.31 20 23.31C20.55 23.31 21 22.86 21 22.31V20.52L22.84 20.06C23.18 19.97 23.46 19.71 23.56 19.37C23.73 18.81 23.95 18.27 24.23 17.74C24.4 17.43 24.39 17.05 24.2 16.75L23.22 15.13L25.2 13.15L26.82 14.13C27.12 14.31 27.5 14.32 27.81 14.16C28.34 13.88 28.88 13.66 29.44 13.49C29.78 13.39 30.04 13.12 30.13 12.77L30.59 10.93H33.39L33.85 12.77C33.93 13.11 34.2 13.39 34.54 13.49C35.11 13.66 35.64 13.88 36.17 14.16C36.48 14.33 36.86 14.32 37.16 14.13L38.78 13.15L40.76 15.13L39.78 16.75C39.6 17.05 39.59 17.43 39.75 17.74C40.04 18.27 40.25 18.81 40.42 19.37C40.52 19.71 40.79 19.97 41.14 20.06L42.98 20.52V23.32L41.14 23.78C40.8 23.87 40.52 24.13 40.42 24.47C40.25 25.03 40.03 25.57 39.75 26.1C39.58 26.41 39.59 26.79 39.78 27.09L40.76 28.71L39.49 29.99C39.27 30.17 39.12 30.45 39.12 30.77C39.12 31.32 39.57 31.77 40.13 31.77C40.4 31.77 40.65 31.66 40.84 31.48L42.73 29.58C43.05 29.25 43.11 28.75 42.88 28.36L41.78 26.54L41.79 26.53Z" fill="#1007AA"/>
<path d="M32 15.92C28.69 15.92 26 18.61 26 21.92C26 25.23 28.69 27.92 32 27.92C35.31 27.92 38 25.23 38 21.92C38 18.61 35.31 15.92 32 15.92ZM32 25.92C29.79 25.92 28 24.13 28 21.92C28 19.71 29.79 17.92 32 17.92C34.21 17.92 36 19.71 36 21.92C36 24.13 34.21 25.92 32 25.92Z" fill="#1007AA"/>
<path d="M51.94 20.6301C51.82 18.8601 51.48 17.1201 50.91 15.4601C47.84 6.56006 39.13 1.08005 29.72 2.12005C27.54 2.36005 25.44 2.96006 23.47 3.90006C21.86 4.66006 20.38 5.64006 19.04 6.80006C15.98 6.21005 13.25 5.93006 10.86 5.94006C10.42 4.21006 8.85999 2.92006 6.99999 2.92006C4.78999 2.92006 2.99999 4.71005 2.99999 6.92005C2.99999 7.35005 3.08999 7.75006 3.20999 8.14006C2.75999 8.60006 2.41999 9.13005 2.20999 9.74005C1.04999 13.2401 4.78999 18.2501 12.45 23.4901C17 26.6001 22.57 29.5501 28.57 32.0201C34.1 34.3001 39.65 36.0101 44.62 36.9901C47.72 37.6101 50.51 37.9201 52.93 37.9201C53 37.9201 53.07 37.9201 53.15 37.9201C53.59 39.6501 55.15 40.9301 57.01 40.9301C59.22 40.9301 61.01 39.1401 61.01 36.9301C61.01 36.5001 60.92 36.1001 60.8 35.7101C61.26 35.2501 61.6 34.7101 61.8 34.1101C62.94 30.6801 59.35 25.7801 51.95 20.6401L51.94 20.6301ZM6.99999 4.92006C8.09999 4.92006 8.99999 5.82006 8.99999 6.92005C8.99999 8.02005 8.09999 8.92005 6.99999 8.92005C5.89999 8.92005 4.99999 8.02005 4.99999 6.92005C4.99999 5.82006 5.89999 4.92006 6.99999 4.92006ZM4.10999 10.3701C4.16999 10.2001 4.26999 10.0501 4.36999 9.90005C5.07999 10.5301 5.98999 10.9201 7.00999 10.9201C8.86999 10.9201 10.42 9.64005 10.87 7.92005C12.74 7.92005 14.92 8.11005 17.27 8.50005C14.37 11.6501 12.56 15.6101 12.13 19.8401C12.1 20.1401 12.08 20.4401 12.07 20.7301C6.45999 16.6101 3.36999 12.6201 4.11999 10.3601L4.10999 10.3701ZM14.02 22.1201C14.02 21.4401 14.03 20.7501 14.11 20.0601C14.56 15.7101 16.62 11.6701 19.92 8.68006C19.93 8.68006 19.95 8.66005 19.96 8.65005C19.96 8.65005 19.97 8.65006 19.98 8.64006C19.99 8.63005 20.01 8.62005 20.02 8.61005C21.31 7.44005 22.76 6.46006 24.35 5.71006C26.12 4.86005 28 4.33006 29.96 4.11006C38.44 3.17006 46.27 8.10006 49.04 16.1101C49.61 17.7401 49.93 19.4601 50.01 21.2101C50.01 21.4701 50.03 21.7401 50.03 21.9901C50.03 26.8601 48.02 31.5301 44.51 34.9001C39.8 33.9401 34.58 32.3101 29.35 30.1601C23.67 27.8201 18.39 25.0501 14.03 22.1101L14.02 22.1201ZM46.86 35.3501C49.9 31.9801 51.7 27.6401 51.95 23.0901C57.56 27.2101 60.65 31.2001 59.9 33.4701C59.84 33.6401 59.76 33.8001 59.66 33.9501C58.95 33.3201 58.03 32.9201 57.01 32.9201C55.16 32.9201 53.61 34.1901 53.16 35.9101C51.32 35.9201 49.18 35.7301 46.87 35.3501H46.86ZM57.01 38.9201C55.91 38.9201 55.01 38.0201 55.01 36.9201C55.01 35.8201 55.91 34.9201 57.01 34.9201C58.11 34.9201 59.01 35.8201 59.01 36.9201C59.01 38.0201 58.11 38.9201 57.01 38.9201Z" fill="#1007AA"/>
</svg>
