<svg xmlns="http://www.w3.org/2000/svg" xmlns:xlink="http://www.w3.org/1999/xlink" width="150" zoomAndPan="magnify" viewBox="0 0 112.5 89.999999" height="120" preserveAspectRatio="xMidYMid meet" version="1.0"><defs><clipPath id="92c7d30d4e"><path d="M 0 0.199219 L 112.003906 0.199219 L 112.003906 89.800781 L 0 89.800781 Z M 0 0.199219 " clip-rule="nonzero"/></clipPath><clipPath id="c33843af6e"><path d="M 42.75 27.199219 L 69.75 27.199219 L 69.75 63.199219 L 42.75 63.199219 Z M 42.75 27.199219 " clip-rule="nonzero"/></clipPath></defs><g clip-path="url(#92c7d30d4e)"><path fill="#ffffff" d="M 0 0.199219 L 112.5 0.199219 L 112.5 90.199219 L 0 90.199219 Z M 0 0.199219 " fill-opacity="1" fill-rule="nonzero"/><path fill="#ffffff" d="M 0 0.199219 L 112.5 0.199219 L 112.5 90.199219 L 0 90.199219 Z M 0 0.199219 " fill-opacity="1" fill-rule="nonzero"/></g><g clip-path="url(#c33843af6e)"><path fill="#004aad" d="M 66.753906 60.199219 L 45.75 60.199219 L 45.75 30.199219 L 57.753906 30.199219 L 57.753906 36.199219 C 57.753906 37.855469 59.09375 39.199219 60.75 39.199219 L 66.753906 39.199219 Z M 60.75 30.199219 L 66.753906 36.199219 L 60.75 36.199219 Z M 68.871094 34.078125 L 62.871094 28.078125 C 62.308594 27.515625 61.542969 27.199219 60.75 27.199219 L 45.75 27.199219 C 44.09375 27.199219 42.75 28.542969 42.75 30.199219 L 42.75 60.199219 C 42.75 61.855469 44.09375 63.199219 45.75 63.199219 L 66.753906 63.199219 C 68.40625 63.199219 69.75 61.855469 69.75 60.199219 L 69.75 36.199219 C 69.75 35.40625 69.433594 34.640625 68.871094 34.078125 " fill-opacity="1" fill-rule="nonzero"/></g><path fill="#004aad" d="M 62.253906 46.703125 L 59.246094 46.703125 L 59.246094 45.199219 L 62.253906 45.199219 Z M 59.246094 55.699219 L 59.246094 54.199219 L 62.253906 54.199219 L 62.253906 55.699219 Z M 50.25 55.699219 L 50.25 54.199219 L 57.753906 54.199219 L 57.753906 55.699219 Z M 50.25 51.203125 L 57.753906 51.203125 L 57.753906 52.695312 L 50.25 52.695312 Z M 62.253906 51.203125 L 62.253906 52.695312 L 59.246094 52.695312 L 59.246094 51.203125 Z M 59.246094 49.699219 L 59.246094 48.195312 L 62.253906 48.195312 L 62.253906 49.699219 Z M 50.25 48.195312 L 57.753906 48.195312 L 57.753906 49.699219 L 50.25 49.699219 Z M 50.25 45.199219 L 57.753906 45.199219 L 57.753906 46.703125 L 50.25 46.703125 Z M 48.75 43.699219 L 48.75 57.199219 L 63.746094 57.199219 L 63.746094 43.699219 L 48.75 43.699219 " fill-opacity="1" fill-rule="nonzero"/><path fill="#004aad" d="M 52.5 39.199219 L 51 39.199219 C 50.585938 39.199219 50.25 39.535156 50.25 39.949219 C 50.25 40.359375 50.585938 40.699219 51 40.699219 L 51.75 40.699219 L 51.75 41.449219 C 51.75 41.863281 52.089844 42.199219 52.5 42.199219 C 52.914062 42.199219 53.25 41.863281 53.25 41.449219 L 53.25 40.5625 C 54.121094 40.25 54.75 39.425781 54.75 38.449219 C 54.75 37.210938 53.742188 36.199219 52.5 36.199219 C 52.089844 36.199219 51.75 35.859375 51.75 35.449219 C 51.75 35.035156 52.089844 34.699219 52.5 34.699219 L 54 34.699219 C 54.414062 34.699219 54.75 34.363281 54.75 33.949219 C 54.75 33.535156 54.414062 33.199219 54 33.199219 L 53.25 33.199219 L 53.25 32.449219 C 53.25 32.039062 52.914062 31.699219 52.5 31.699219 C 52.089844 31.699219 51.75 32.039062 51.75 32.449219 L 51.75 33.339844 C 50.878906 33.648438 50.25 34.472656 50.25 35.449219 C 50.25 36.691406 51.261719 37.699219 52.5 37.699219 C 52.914062 37.699219 53.25 38.035156 53.25 38.449219 C 53.25 38.863281 52.914062 39.199219 52.5 39.199219 " fill-opacity="1" fill-rule="nonzero"/></svg>