<svg xmlns="http://www.w3.org/2000/svg" xmlns:xlink="http://www.w3.org/1999/xlink" width="150" zoomAndPan="magnify" viewBox="0 0 112.5 89.999999" height="120" preserveAspectRatio="xMidYMid meet" version="1.0"><defs><clipPath id="663ffd8d1b"><path d="M 0 0.199219 L 112.003906 0.199219 L 112.003906 89.800781 L 0 89.800781 Z M 0 0.199219 " clip-rule="nonzero"/></clipPath><clipPath id="1b34938be8"><path d="M 47 27.199219 L 55 27.199219 L 55 35 L 47 35 Z M 47 27.199219 " clip-rule="nonzero"/></clipPath><clipPath id="2d79d82bc6"><path d="M 36.816406 34 L 70 34 L 70 63.199219 L 36.816406 63.199219 Z M 36.816406 34 " clip-rule="nonzero"/></clipPath><clipPath id="9abfc0ef72"><path d="M 70 53 L 75.816406 53 L 75.816406 63 L 70 63 Z M 70 53 " clip-rule="nonzero"/></clipPath></defs><g clip-path="url(#663ffd8d1b)"><path fill="#ffffff" d="M 0 0.199219 L 112.5 0.199219 L 112.5 97.699219 L 0 97.699219 Z M 0 0.199219 " fill-opacity="1" fill-rule="nonzero"/><path fill="#ffffff" d="M 0 0.199219 L 112.5 0.199219 L 112.5 90.199219 L 0 90.199219 Z M 0 0.199219 " fill-opacity="1" fill-rule="nonzero"/><path fill="#ffffff" d="M 0 0.199219 L 112.5 0.199219 L 112.5 90.199219 L 0 90.199219 Z M 0 0.199219 " fill-opacity="1" fill-rule="nonzero"/></g><g clip-path="url(#1b34938be8)"><path fill="#004aad" d="M 50.929688 34.050781 C 52.816406 34.050781 54.34375 32.53125 54.34375 30.652344 C 54.34375 28.773438 52.816406 27.25 50.929688 27.25 C 49.046875 27.25 47.515625 28.773438 47.515625 30.652344 C 47.515625 32.53125 49.046875 34.050781 50.929688 34.050781 Z M 53.03125 31.25 L 52.957031 31.699219 C 52.894531 31.6875 51.386719 31.46875 50.050781 32.914062 L 49.714844 32.605469 C 51.222656 30.972656 52.957031 31.238281 53.03125 31.25 Z M 53.03125 31.25 " fill-opacity="1" fill-rule="nonzero"/></g><g clip-path="url(#2d79d82bc6)"><path fill="#004aad" d="M 40.136719 48.074219 C 39.25 48.832031 38.128906 49.527344 37.429688 50.878906 C 36.824219 52.050781 37.351562 54.800781 37.5 55.496094 L 37.078125 56 C 36.863281 56.253906 36.898438 56.632812 37.152344 56.847656 C 37.40625 57.058594 37.789062 57.023438 38.003906 56.769531 L 38.40625 56.289062 C 39.160156 56.710938 40.414062 57.175781 42.230469 57.117188 C 43.90625 57.0625 44.949219 56.691406 45.570312 56.347656 L 46.003906 56.867188 C 46.21875 57.121094 46.601562 57.152344 46.855469 56.941406 C 47.109375 56.730469 47.144531 56.347656 46.929688 56.09375 L 46.453125 55.527344 C 46.785156 54.808594 47.820312 52.28125 46.777344 50.5625 C 45.550781 48.539062 43.847656 48.074219 43.152344 47.503906 C 43.027344 47.402344 42.925781 47.320312 42.839844 47.246094 C 42.847656 47.226562 42.855469 47.207031 42.863281 47.183594 C 42.890625 47.089844 42.921875 46.988281 42.957031 46.882812 C 43.023438 46.679688 43.105469 46.453125 43.203125 46.210938 C 43.296875 45.972656 43.40625 45.71875 43.527344 45.449219 C 44.027344 45.042969 44.570312 44.632812 44.59375 44.21875 C 44.601562 44.089844 44.492188 43.953125 44.3125 43.824219 C 44.367188 43.722656 44.417969 43.617188 44.472656 43.515625 C 45.207031 42.101562 46.070312 40.613281 46.828125 39.429688 L 46.828125 45.242188 L 46.476562 49.539062 C 46.683594 49.789062 46.886719 50.066406 47.078125 50.382812 C 48.121094 52.105469 47.277344 54.511719 46.859375 55.46875 L 47.199219 55.871094 C 47.359375 56.066406 47.4375 56.3125 47.414062 56.566406 C 47.394531 56.816406 47.273438 57.046875 47.078125 57.207031 C 46.910156 57.351562 46.691406 57.429688 46.46875 57.429688 C 46.238281 57.429688 46.019531 57.34375 45.847656 57.199219 L 45.535156 61.050781 C 45.449219 62.078125 46.21875 62.980469 47.25 63.0625 C 48.28125 63.148438 49.1875 62.382812 49.273438 61.355469 L 50.398438 47.585938 L 51.460938 47.585938 L 52.589844 61.355469 C 52.671875 62.382812 53.578125 63.148438 54.609375 63.0625 C 55.640625 62.980469 56.410156 62.078125 56.328125 61.050781 L 55.03125 45.242188 L 55.03125 38.144531 C 56.566406 38.925781 59.007812 39.875 61.84375 39.875 C 63 39.875 64.21875 39.714844 65.464844 39.328125 C 65.804688 39.222656 66.0625 38.980469 66.199219 38.6875 L 68.589844 39.265625 L 69.453125 35.726562 L 62.671875 34.085938 L 61.851562 37.445312 C 57.941406 37.4375 54.808594 35.210938 54.769531 35.183594 C 54.589844 35.054688 54.386719 34.980469 54.179688 34.960938 C 54.078125 34.929688 53.972656 34.914062 53.859375 34.914062 L 48.253906 34.914062 C 48.199219 34.90625 48.144531 34.902344 48.089844 34.902344 C 47.980469 34.902344 47.875 34.914062 47.769531 34.9375 C 47.761719 34.9375 47.757812 34.9375 47.75 34.941406 C 47.722656 34.949219 47.691406 34.953125 47.664062 34.960938 C 47.652344 34.964844 47.640625 34.96875 47.628906 34.972656 C 47.082031 35.152344 46.53125 35.664062 45.773438 36.679688 C 45.179688 37.480469 44.472656 38.574219 43.730469 39.839844 C 43.199219 40.746094 42.597656 41.839844 42.050781 42.925781 C 41.855469 43.3125 41.667969 43.695312 41.496094 44.070312 C 40.730469 43.910156 39.378906 43.34375 39.074219 43.710938 C 38.734375 44.121094 39.988281 44.835938 40.867188 45.523438 C 40.824219 45.640625 40.78125 45.753906 40.738281 45.867188 C 40.652344 46.109375 40.578125 46.339844 40.519531 46.546875 C 40.449219 46.816406 40.472656 47.089844 40.570312 47.328125 C 40.617188 47.4375 40.675781 47.535156 40.75 47.628906 C 40.554688 47.753906 40.34375 47.898438 40.136719 48.074219 Z M 50.929688 45.796875 L 49.488281 43.984375 L 50.320312 37.886719 C 50.515625 37.960938 50.722656 38 50.929688 38 C 51.136719 38 51.34375 37.960938 51.539062 37.886719 L 52.371094 43.984375 Z M 63.410156 36.539062 L 64.230469 36.734375 C 64.226562 36.605469 64.238281 36.476562 64.269531 36.34375 C 64.300781 36.210938 64.351562 36.089844 64.414062 35.980469 L 63.597656 35.78125 L 63.648438 35.570312 L 64.546875 35.789062 C 64.878906 35.386719 65.421875 35.183594 65.960938 35.316406 C 66.503906 35.445312 66.894531 35.875 67.003906 36.382812 L 67.902344 36.601562 L 67.851562 36.808594 L 67.03125 36.613281 C 67.039062 36.742188 67.027344 36.871094 66.996094 37.003906 C 66.964844 37.136719 66.914062 37.257812 66.847656 37.367188 L 67.667969 37.566406 L 67.617188 37.777344 L 66.714844 37.558594 C 66.386719 37.960938 65.84375 38.164062 65.300781 38.03125 C 64.761719 37.902344 64.371094 37.472656 64.261719 36.964844 L 63.359375 36.746094 Z M 50.351562 36.046875 L 51.507812 36.046875 L 51.792969 37.179688 L 51.75 37.25 C 51.511719 37.449219 51.222656 37.546875 50.929688 37.546875 C 50.636719 37.546875 50.347656 37.449219 50.109375 37.25 L 50.066406 37.179688 Z M 43.5625 50.535156 L 42.945312 50.960938 C 42.703125 50.730469 42.464844 50.636719 42.140625 50.636719 C 41.738281 50.636719 41.488281 50.816406 41.488281 51.109375 C 41.488281 51.269531 41.570312 51.417969 41.722656 51.53125 C 41.855469 51.632812 41.917969 51.664062 42.425781 51.90625 C 43.382812 52.371094 43.675781 52.6875 43.675781 53.242188 C 43.675781 53.859375 43.195312 54.257812 42.355469 54.332031 L 42.355469 54.804688 L 41.882812 54.804688 L 41.882812 54.332031 C 41.375 54.289062 40.910156 54.082031 40.542969 53.738281 L 41.160156 53.335938 C 41.542969 53.664062 41.785156 53.769531 42.160156 53.769531 C 42.542969 53.769531 42.785156 53.578125 42.785156 53.273438 C 42.785156 53.105469 42.695312 52.945312 42.542969 52.820312 C 42.390625 52.703125 42.300781 52.652344 41.777344 52.390625 C 40.902344 51.953125 40.625 51.65625 40.625 51.152344 C 40.625 50.578125 41.113281 50.15625 41.882812 50.074219 L 41.882812 49.691406 L 42.355469 49.691406 L 42.355469 50.074219 C 42.820312 50.113281 43.214844 50.261719 43.5625 50.535156 Z M 43.5625 50.535156 " fill-opacity="1" fill-rule="nonzero"/></g><path fill="#004aad" d="M 68.339844 44.578125 L 74.671875 41.660156 L 73.140625 38.355469 L 66.804688 41.273438 Z M 70.148438 40.199219 C 70.65625 39.964844 71.226562 40.058594 71.628906 40.390625 L 72.472656 40 L 72.5625 40.199219 L 71.796875 40.550781 C 71.882812 40.648438 71.957031 40.757812 72.011719 40.878906 C 72.070312 41.003906 72.105469 41.128906 72.125 41.257812 L 72.890625 40.90625 L 72.980469 41.101562 L 72.140625 41.488281 C 72.132812 42.007812 71.832031 42.503906 71.328125 42.734375 C 70.824219 42.96875 70.25 42.875 69.847656 42.546875 L 69.007812 42.933594 L 68.914062 42.738281 L 69.679688 42.382812 C 69.597656 42.285156 69.523438 42.175781 69.464844 42.054688 C 69.410156 41.929688 69.371094 41.804688 69.351562 41.675781 L 68.585938 42.03125 L 68.496094 41.832031 L 69.335938 41.445312 C 69.347656 40.925781 69.644531 40.429688 70.148438 40.199219 Z M 70.148438 40.199219 " fill-opacity="1" fill-rule="nonzero"/><path fill="#004aad" d="M 70.023438 41.382812 C 70.148438 41.65625 70.367188 41.6875 70.699219 41.617188 L 70.867188 42.203125 C 70.664062 42.238281 70.535156 42.128906 70.371094 41.953125 L 70.265625 42 L 70.550781 42.542969 L 70.625 42.507812 C 70.625 42.457031 70.617188 42.429688 70.65625 42.410156 C 70.714844 42.382812 70.792969 42.382812 70.914062 42.351562 L 70.984375 42.597656 L 71.113281 42.554688 L 71.039062 42.304688 C 71.0625 42.300781 71.082031 42.289062 71.105469 42.277344 C 71.496094 42.097656 71.609375 41.785156 71.472656 41.496094 C 71.324219 41.175781 71.027344 41.210938 70.734375 41.265625 L 70.582031 40.738281 C 70.714844 40.714844 70.839844 40.765625 71 40.933594 L 71.09375 40.890625 L 70.867188 40.449219 L 70.800781 40.480469 C 70.796875 40.515625 70.789062 40.539062 70.753906 40.554688 C 70.710938 40.574219 70.636719 40.574219 70.539062 40.597656 L 70.46875 40.351562 L 70.34375 40.390625 L 70.414062 40.636719 C 70.390625 40.640625 70.375 40.652344 70.355469 40.660156 C 69.984375 40.832031 69.90625 41.132812 70.023438 41.382812 Z M 71.289062 41.699219 C 71.367188 41.867188 71.277344 42.035156 71.035156 42.144531 L 71 42.164062 L 70.828125 41.589844 C 71.09375 41.539062 71.210938 41.535156 71.289062 41.699219 Z M 70.410156 40.796875 L 70.453125 40.773438 L 70.605469 41.292969 C 70.398438 41.328125 70.28125 41.324219 70.214844 41.179688 C 70.144531 41.027344 70.230469 40.878906 70.410156 40.796875 Z M 70.410156 40.796875 " fill-opacity="1" fill-rule="nonzero"/><path fill="#004aad" d="M 65.550781 41.300781 L 61.96875 40.582031 L 60.585938 47.394531 L 64.167969 48.117188 Z M 63.230469 46.609375 L 63.015625 46.566406 L 63.183594 45.742188 C 63.054688 45.753906 62.921875 45.746094 62.789062 45.71875 C 62.65625 45.691406 62.53125 45.648438 62.417969 45.585938 L 62.25 46.410156 L 62.039062 46.367188 L 62.222656 45.460938 C 61.804688 45.148438 61.582031 44.617188 61.691406 44.070312 C 61.804688 43.527344 62.21875 43.125 62.722656 42.996094 L 62.90625 42.089844 L 63.117188 42.132812 L 62.953125 42.957031 C 63.082031 42.945312 63.214844 42.953125 63.347656 42.976562 C 63.480469 43.003906 63.601562 43.050781 63.71875 43.109375 L 63.886719 42.289062 L 64.097656 42.332031 L 63.914062 43.234375 C 64.328125 43.550781 64.554688 44.082031 64.441406 44.625 C 64.332031 45.171875 63.917969 45.574219 63.414062 45.703125 Z M 63.230469 46.609375 " fill-opacity="1" fill-rule="nonzero"/><path fill="#004aad" d="M 64.125 44.820312 L 64.167969 44.691406 L 63.925781 44.605469 C 63.933594 44.582031 63.9375 44.558594 63.941406 44.535156 C 64.027344 44.117188 63.839844 43.839844 63.527344 43.777344 C 63.175781 43.707031 63.03125 43.964844 62.902344 44.234375 L 62.382812 44.046875 C 62.445312 43.921875 62.558594 43.851562 62.789062 43.828125 L 62.8125 43.726562 L 62.320312 43.644531 L 62.304688 43.714844 C 62.332031 43.742188 62.34375 43.761719 62.339844 43.796875 C 62.328125 43.84375 62.285156 43.902344 62.246094 43.996094 L 62.003906 43.90625 L 61.960938 44.03125 L 62.203125 44.117188 C 62.195312 44.140625 62.191406 44.160156 62.1875 44.179688 C 62.105469 44.578125 62.304688 44.820312 62.578125 44.875 C 62.875 44.933594 63.027344 44.777344 63.164062 44.472656 L 63.738281 44.679688 C 63.648438 44.867188 63.480469 44.90625 63.242188 44.933594 L 63.21875 45.042969 L 63.824219 45.136719 L 63.84375 45.058594 C 63.800781 45.027344 63.773438 45.015625 63.78125 44.972656 C 63.796875 44.914062 63.839844 44.847656 63.886719 44.730469 Z M 62.523438 44.601562 C 62.359375 44.566406 62.289062 44.410156 62.328125 44.214844 L 62.339844 44.167969 L 62.847656 44.355469 C 62.753906 44.539062 62.683594 44.632812 62.523438 44.601562 Z M 63.792969 44.511719 L 63.785156 44.554688 L 63.21875 44.351562 C 63.335938 44.105469 63.402344 44.007812 63.578125 44.046875 C 63.765625 44.082031 63.847656 44.25 63.792969 44.511719 Z M 63.792969 44.511719 " fill-opacity="1" fill-rule="nonzero"/><path fill="#004aad" d="M 64.8125 37.398438 L 64.890625 37.417969 C 64.925781 37.378906 64.9375 37.351562 64.980469 37.363281 C 65.039062 37.375 65.101562 37.425781 65.214844 37.472656 L 65.117188 37.710938 L 65.246094 37.757812 L 65.34375 37.515625 C 65.363281 37.527344 65.386719 37.53125 65.410156 37.539062 C 65.828125 37.636719 66.113281 37.464844 66.1875 37.15625 C 66.273438 36.808594 66.019531 36.652344 65.753906 36.515625 L 65.960938 36.003906 C 66.082031 36.070312 66.148438 36.1875 66.167969 36.417969 L 66.269531 36.441406 L 66.367188 35.957031 L 66.296875 35.9375 C 66.269531 35.964844 66.25 35.976562 66.210938 35.96875 C 66.167969 35.957031 66.109375 35.914062 66.019531 35.867188 L 66.117188 35.632812 L 65.996094 35.585938 L 65.894531 35.824219 C 65.875 35.8125 65.855469 35.808594 65.832031 35.804688 C 65.4375 35.707031 65.1875 35.898438 65.121094 36.164062 C 65.050781 36.460938 65.203125 36.617188 65.503906 36.765625 L 65.273438 37.332031 C 65.089844 37.234375 65.058594 37.066406 65.039062 36.828125 L 64.929688 36.800781 Z M 65.402344 36.121094 C 65.441406 35.960938 65.601562 35.898438 65.792969 35.945312 L 65.839844 35.957031 L 65.636719 36.457031 C 65.453125 36.355469 65.363281 36.28125 65.402344 36.121094 Z M 65.625 36.824219 C 65.867188 36.949219 65.960938 37.023438 65.917969 37.195312 C 65.871094 37.378906 65.699219 37.453125 65.441406 37.390625 L 65.398438 37.378906 Z M 65.625 36.824219 " fill-opacity="1" fill-rule="nonzero"/><path fill="#004aad" d="M 62.183594 62.367188 L 62.183594 57.828125 L 62.414062 57.828125 L 62.414062 62.367188 C 62.414062 62.707031 62.695312 62.988281 63.039062 62.988281 C 63.382812 62.988281 63.664062 62.707031 63.664062 62.367188 L 63.664062 54.738281 C 63.882812 55.152344 64.128906 56.054688 64.015625 57.988281 C 64.003906 58.195312 64.164062 58.375 64.371094 58.386719 C 64.378906 58.386719 64.386719 58.386719 64.394531 58.386719 C 64.59375 58.386719 64.761719 58.234375 64.773438 58.03125 C 64.898438 55.914062 64.632812 54.53125 63.992188 53.921875 C 63.667969 53.617188 63.355469 53.605469 63.253906 53.613281 L 61.34375 53.613281 C 61.242188 53.605469 60.929688 53.617188 60.605469 53.921875 C 59.964844 54.53125 59.699219 55.914062 59.824219 58.03125 C 59.835938 58.234375 60.003906 58.386719 60.203125 58.386719 C 60.210938 58.386719 60.21875 58.386719 60.226562 58.386719 C 60.433594 58.375 60.59375 58.195312 60.582031 57.988281 C 60.46875 56.0625 60.707031 55.15625 60.933594 54.738281 L 60.933594 62.367188 C 60.933594 62.707031 61.214844 62.988281 61.558594 62.988281 C 61.902344 62.988281 62.183594 62.707031 62.183594 62.367188 Z M 62.183594 62.367188 " fill-opacity="1" fill-rule="nonzero"/><path fill="#004aad" d="M 63.433594 52.195312 C 63.433594 52.34375 63.40625 52.488281 63.347656 52.628906 C 63.289062 52.765625 63.207031 52.890625 63.101562 52.996094 C 62.996094 53.101562 62.871094 53.183594 62.734375 53.242188 C 62.59375 53.296875 62.449219 53.328125 62.300781 53.328125 C 62.148438 53.328125 62.003906 53.296875 61.863281 53.242188 C 61.726562 53.183594 61.601562 53.101562 61.496094 52.996094 C 61.390625 52.890625 61.308594 52.765625 61.25 52.628906 C 61.191406 52.488281 61.164062 52.34375 61.164062 52.195312 C 61.164062 52.046875 61.191406 51.902344 61.25 51.761719 C 61.308594 51.625 61.390625 51.5 61.496094 51.394531 C 61.601562 51.289062 61.726562 51.207031 61.863281 51.152344 C 62.003906 51.09375 62.148438 51.0625 62.300781 51.0625 C 62.449219 51.0625 62.59375 51.09375 62.734375 51.152344 C 62.871094 51.207031 62.996094 51.289062 63.101562 51.394531 C 63.207031 51.5 63.289062 51.625 63.347656 51.761719 C 63.40625 51.902344 63.433594 52.046875 63.433594 52.195312 Z M 63.433594 52.195312 " fill-opacity="1" fill-rule="nonzero"/><path fill="#004aad" d="M 69.855469 58.386719 C 70.054688 58.386719 70.222656 58.234375 70.234375 58.03125 C 70.359375 55.914062 70.09375 54.53125 69.453125 53.921875 C 69.128906 53.617188 68.816406 53.605469 68.714844 53.613281 L 66.804688 53.613281 C 66.703125 53.605469 66.390625 53.617188 66.066406 53.921875 C 65.425781 54.53125 65.160156 55.914062 65.285156 58.03125 C 65.296875 58.234375 65.464844 58.386719 65.664062 58.386719 C 65.671875 58.386719 65.679688 58.386719 65.6875 58.386719 C 65.894531 58.375 66.054688 58.195312 66.042969 57.988281 C 65.929688 56.0625 66.167969 55.15625 66.394531 54.738281 L 66.394531 62.367188 C 66.394531 62.707031 66.675781 62.988281 67.019531 62.988281 C 67.363281 62.988281 67.644531 62.707031 67.644531 62.367188 L 67.644531 57.828125 L 67.875 57.828125 L 67.875 62.367188 C 67.875 62.707031 68.15625 62.988281 68.5 62.988281 C 68.84375 62.988281 69.125 62.707031 69.125 62.367188 L 69.125 54.738281 C 69.34375 55.152344 69.589844 56.054688 69.476562 57.988281 C 69.464844 58.195312 69.625 58.375 69.832031 58.386719 C 69.839844 58.386719 69.847656 58.386719 69.855469 58.386719 Z M 69.855469 58.386719 " fill-opacity="1" fill-rule="nonzero"/><path fill="#004aad" d="M 68.894531 52.195312 C 68.894531 52.34375 68.867188 52.488281 68.808594 52.628906 C 68.75 52.765625 68.667969 52.890625 68.5625 52.996094 C 68.457031 53.101562 68.332031 53.183594 68.195312 53.242188 C 68.054688 53.296875 67.910156 53.328125 67.761719 53.328125 C 67.609375 53.328125 67.464844 53.296875 67.324219 53.242188 C 67.1875 53.183594 67.0625 53.101562 66.957031 52.996094 C 66.851562 52.890625 66.769531 52.765625 66.710938 52.628906 C 66.652344 52.488281 66.625 52.34375 66.625 52.195312 C 66.625 52.046875 66.652344 51.902344 66.710938 51.761719 C 66.769531 51.625 66.851562 51.5 66.957031 51.394531 C 67.0625 51.289062 67.1875 51.207031 67.324219 51.152344 C 67.464844 51.09375 67.609375 51.0625 67.761719 51.0625 C 67.910156 51.0625 68.054688 51.09375 68.195312 51.152344 C 68.332031 51.207031 68.457031 51.289062 68.5625 51.394531 C 68.667969 51.5 68.75 51.625 68.808594 51.761719 C 68.867188 51.902344 68.894531 52.046875 68.894531 52.195312 Z M 68.894531 52.195312 " fill-opacity="1" fill-rule="nonzero"/><g clip-path="url(#9abfc0ef72)"><path fill="#004aad" d="M 75.316406 58.386719 C 75.515625 58.386719 75.683594 58.234375 75.695312 58.03125 C 75.820312 55.914062 75.554688 54.53125 74.914062 53.921875 C 74.589844 53.617188 74.277344 53.605469 74.175781 53.613281 L 72.265625 53.613281 C 72.164062 53.605469 71.851562 53.617188 71.527344 53.921875 C 70.886719 54.53125 70.621094 55.914062 70.746094 58.03125 C 70.757812 58.234375 70.925781 58.386719 71.125 58.386719 C 71.132812 58.386719 71.140625 58.386719 71.148438 58.386719 C 71.355469 58.375 71.515625 58.195312 71.503906 57.988281 C 71.390625 56.0625 71.628906 55.15625 71.855469 54.738281 L 71.855469 62.367188 C 71.855469 62.707031 72.136719 62.988281 72.480469 62.988281 C 72.824219 62.988281 73.105469 62.707031 73.105469 62.367188 L 73.105469 57.828125 L 73.335938 57.828125 L 73.335938 62.367188 C 73.335938 62.707031 73.617188 62.988281 73.960938 62.988281 C 74.304688 62.988281 74.585938 62.707031 74.585938 62.367188 L 74.585938 54.738281 C 74.804688 55.152344 75.050781 56.054688 74.9375 57.988281 C 74.925781 58.195312 75.085938 58.375 75.292969 58.386719 C 75.300781 58.386719 75.308594 58.386719 75.316406 58.386719 Z M 75.316406 58.386719 " fill-opacity="1" fill-rule="nonzero"/></g><path fill="#004aad" d="M 74.355469 52.195312 C 74.355469 52.34375 74.328125 52.488281 74.269531 52.628906 C 74.210938 52.765625 74.128906 52.890625 74.023438 52.996094 C 73.917969 53.101562 73.792969 53.183594 73.65625 53.242188 C 73.515625 53.296875 73.371094 53.328125 73.222656 53.328125 C 73.070312 53.328125 72.925781 53.296875 72.785156 53.242188 C 72.648438 53.183594 72.523438 53.101562 72.417969 52.996094 C 72.3125 52.890625 72.230469 52.765625 72.171875 52.628906 C 72.113281 52.488281 72.085938 52.34375 72.085938 52.195312 C 72.085938 52.046875 72.113281 51.902344 72.171875 51.761719 C 72.230469 51.625 72.3125 51.5 72.417969 51.394531 C 72.523438 51.289062 72.648438 51.207031 72.785156 51.152344 C 72.925781 51.09375 73.070312 51.0625 73.222656 51.0625 C 73.371094 51.0625 73.515625 51.09375 73.65625 51.152344 C 73.792969 51.207031 73.917969 51.289062 74.023438 51.394531 C 74.128906 51.5 74.210938 51.625 74.269531 51.761719 C 74.328125 51.902344 74.355469 52.046875 74.355469 52.195312 Z M 74.355469 52.195312 " fill-opacity="1" fill-rule="nonzero"/></svg>