<svg width="140" height="140" viewBox="0 0 140 140" fill="none" xmlns="http://www.w3.org/2000/svg">
<rect width="140" height="140" rx="10" fill="#FFDEDE"/>
<path fill-rule="evenodd" clip-rule="evenodd" d="M70.0063 107.681C52.7655 107.681 38.7168 93.6603 38.7168 76.4054C38.7168 59.1645 52.7373 45.1299 70.0063 45.1299C87.2332 45.1299 101.282 59.1645 101.282 76.4054C101.282 93.6603 87.2332 107.681 70.0063 107.681ZM70.0063 47.8581C54.2702 47.8581 41.459 60.6692 41.459 76.4054C41.459 92.1416 54.2702 104.953 70.0063 104.953C85.7425 104.953 98.5396 92.1416 98.5396 76.4054C98.5396 60.6692 85.7425 47.8581 70.0063 47.8581Z" fill="#F64242"/>
<path fill-rule="evenodd" clip-rule="evenodd" d="M70.007 98.1606C58.0115 98.1606 48.252 88.4152 48.252 76.4197C48.252 64.4382 58.0115 54.6787 70.007 54.6787C81.9884 54.6787 91.7479 64.4382 91.7479 76.4197C91.7479 88.3871 81.9884 98.1606 70.007 98.1606ZM70.007 57.4069C59.5162 57.4069 50.9801 65.9429 50.9801 76.4197C50.9801 86.9105 59.5162 95.4184 70.007 95.4184C80.4837 95.4184 89.0198 86.8964 89.0198 76.4197C89.0198 65.9429 80.4837 57.4069 70.007 57.4069Z" fill="#F64242"/>
<path fill-rule="evenodd" clip-rule="evenodd" d="M70.008 88.6262C63.272 88.6262 57.7734 83.1558 57.7734 76.4197C57.7734 69.6837 63.272 64.1992 70.008 64.1992C76.744 64.1992 82.2285 69.6837 82.2285 76.4197C82.2285 83.1417 76.744 88.6262 70.008 88.6262ZM70.008 66.9414C64.7626 66.9414 60.5157 71.1884 60.5157 76.4197C60.5157 81.6511 64.7626 85.898 70.008 85.898C75.2393 85.898 79.4863 81.637 79.4863 76.4197C79.4863 71.1884 75.2393 66.9414 70.008 66.9414Z" fill="#F64242"/>
<path fill-rule="evenodd" clip-rule="evenodd" d="M70.0071 77.7979C69.2336 77.7979 68.6289 77.1932 68.6289 76.4198V24.6268C68.6289 23.8674 69.2336 23.2627 70.0071 23.2627C70.7664 23.2627 71.3711 23.8674 71.3711 24.6268V76.4198C71.3711 77.1651 70.7664 77.7979 70.0071 77.7979Z" fill="#F64242"/>
<path fill-rule="evenodd" clip-rule="evenodd" d="M74.6615 43.7804C74.3522 43.7804 74.0569 43.7663 73.7475 43.7101C71.9193 43.3866 70.3162 42.1632 68.8677 39.9131C68.7271 39.7022 68.6568 39.4209 68.6568 39.1678V24.627C68.6568 24.0223 69.0505 23.5019 69.6271 23.3191C70.2177 23.1504 70.8365 23.3754 71.174 23.8816C72.1865 25.4285 73.199 26.2864 74.2397 26.4692C75.9975 26.7504 78.135 25.1192 80.2163 23.5301C82.7476 21.6035 85.3633 19.5925 88.2883 20.0988C90.1305 20.4082 91.7337 21.6597 93.1821 23.8816C93.3087 24.1066 93.3931 24.3738 93.3931 24.627V39.1678C93.3931 39.7725 92.9993 40.3069 92.4087 40.4757C91.8321 40.6585 91.1993 40.4194 90.8759 39.9131C89.8774 38.3662 88.8368 37.5084 87.8102 37.3397C86.0523 37.0443 83.9148 38.6616 81.8476 40.2647C79.5694 41.9804 77.221 43.7804 74.6615 43.7804ZM71.3709 38.76C72.299 40.096 73.2553 40.8553 74.1975 41.01C75.9553 41.3054 78.1069 39.66 80.1741 38.085C82.7054 36.1443 85.3211 34.1334 88.2602 34.6396C89.0899 34.7802 89.8774 35.1318 90.6368 35.6662V25.0348C89.6946 23.7129 88.7383 22.9535 87.8102 22.7707C86.0523 22.4754 83.9148 24.1066 81.8476 25.6957C79.3163 27.6364 76.7006 29.6474 73.7756 29.1552C72.9318 29.0145 72.1443 28.663 71.3849 28.1426V38.76H71.3709ZM45.9455 119.986H37.2406C36.7485 119.986 36.2984 119.733 36.0453 119.297C35.7922 118.875 35.7922 118.369 36.0453 117.933L48.0127 97.2187C48.3924 96.5718 49.2221 96.3328 49.8971 96.7125C50.5299 97.0781 50.769 97.9219 50.4034 98.5828L39.6032 117.244H45.172L54.1018 101.761C54.4815 101.128 55.3253 100.889 55.9863 101.255C56.6331 101.634 56.8581 102.464 56.4925 103.139L47.1549 119.297C46.8877 119.733 46.4377 119.986 45.9455 119.986ZM94.054 119.986C93.5618 119.986 93.1118 119.733 92.8587 119.297L83.5351 103.139C83.1554 102.492 83.3804 101.648 84.0414 101.255C84.6883 100.889 85.518 101.1 85.9117 101.761L94.8556 117.244L100.396 117.23L89.6243 98.5828C89.2446 97.9359 89.4696 97.1062 90.1305 96.7125C90.7774 96.3328 91.6071 96.5578 92.0009 97.2187L103.954 117.919C104.193 118.341 104.207 118.847 103.954 119.283C103.715 119.705 103.265 119.958 102.787 119.958L94.054 119.986Z" fill="#F64242"/>
<path fill-rule="evenodd" clip-rule="evenodd" d="M108.652 119.986H31.3488C30.5754 119.986 29.9707 119.382 29.9707 118.622C29.9707 117.849 30.5754 117.244 31.3488 117.244H108.652C109.425 117.244 110.03 117.849 110.03 118.622C110.03 119.382 109.425 119.986 108.652 119.986Z" fill="#F64242"/>
</svg>
