<svg width="140" height="140" viewBox="0 0 140 140" fill="none" xmlns="http://www.w3.org/2000/svg">
<rect width="140" height="140" rx="10" fill="#FFE5F4"/>
<g clip-path="url(#clip0_346_227)">
<path d="M69.9998 49.7077C75.1701 49.7077 79.3748 45.5001 79.3748 40.3262C79.3748 38.4609 78.8217 36.7269 77.881 35.2649L79.3592 24.9125C79.4467 24.3012 79.167 23.6976 78.6451 23.3677C78.1248 23.0409 77.4607 23.0472 76.9451 23.3896L73.731 25.5348L71.3982 20.8644C70.8685 19.8043 69.1326 19.8043 68.6029 20.8644L66.2685 25.5348L63.0529 23.3896C62.5388 23.0456 61.8732 23.0393 61.3529 23.3677C60.8326 23.696 60.5513 24.3012 60.6388 24.9125L62.117 35.2649C61.1779 36.7269 60.6248 38.4609 60.6248 40.3262C60.6248 45.5001 64.8295 49.7077 69.9998 49.7077ZM69.9998 46.5805C66.5529 46.5805 63.7498 43.7755 63.7498 40.3262C63.7498 36.877 66.5529 34.0719 69.9998 34.0719C73.4467 34.0719 76.2498 36.877 76.2498 40.3262C76.2498 43.7755 73.4467 46.5805 69.9998 46.5805ZM66.0076 29.1185C66.381 29.3687 66.842 29.4437 67.2763 29.328C67.7092 29.2139 68.0717 28.9168 68.2732 28.5166L69.9998 25.0595L71.7263 28.5166C71.9263 28.9168 72.2904 29.2139 72.7232 29.328C73.1592 29.4453 73.6185 29.3656 73.992 29.1185L75.7717 27.9318L75.1232 32.4786C73.6482 31.5124 71.8904 30.9448 69.9998 30.9448C68.1092 30.9448 66.3513 31.5124 64.8779 32.4786L64.2295 27.9318L66.0076 29.1185Z" fill="#E50087"/>
<path d="M90.3125 110.687C90.3125 109.824 89.6125 109.055 88.75 109.055H83.9266L82.5875 94.3804C83.0172 94.285 83.6016 94.2412 84.1578 94.3053C84.7969 94.3804 85.4703 94.6352 86.1859 94.8948L86.6562 95.0699C88.7328 95.8079 90.8937 96.3067 93.0844 96.549C93.3 96.5725 93.6281 96.61 94.0156 96.61C94.8531 96.61 95.9656 96.4412 96.8062 95.6125C97.3312 95.0949 97.5938 94.471 97.7641 93.9863C98.2 92.7449 98.3891 91.3908 98.3125 90.0758C97.9359 83.6636 95.7422 77.8033 91.7953 72.656C90.7031 71.2316 89.4875 69.8948 88.3125 68.6033C86.3594 66.4533 84.5344 64.3879 83.2516 62.0284L92.575 57.3627C92.725 57.2877 92.8625 57.1892 92.9812 57.0703L103.919 46.1253C104.53 45.514 104.53 44.5258 103.919 43.9144L97.6687 37.6601C97.0578 37.0488 96.0703 37.0488 95.4594 37.6601L84.7609 48.33L72.8438 52.7674H67.1594L55.2422 48.33L44.5438 37.6414C43.9328 37.03 42.9453 37.0394 42.3344 37.6507L36.0844 43.9097C35.4734 44.5211 35.4734 45.5124 36.0844 46.1222L47.0219 57.0688C47.1406 57.1876 47.2781 57.2877 47.4281 57.3627L55.9141 61.6078C55.7922 66.4862 52.8875 71.7648 50.275 76.4602L49.6266 77.6267C46.5156 83.2555 44.1109 89.2643 42.475 95.4858C42.2844 96.2113 42.6359 96.9696 43.3125 97.2933C43.5297 97.3965 43.7594 97.4465 43.9859 97.4465C44.4703 97.4465 44.9422 97.2214 45.2437 96.8102C46.4516 95.1715 47.9234 93.7737 49.6203 92.6557C50.0953 92.343 50.625 91.9928 51.1766 91.9975C51.7781 92.0131 52.4547 92.6041 53.1719 93.228C53.4828 93.4985 53.7953 93.769 54.1125 94.0114C55.3688 94.973 56.3578 95.1481 57.3438 95.1418L56.0766 109.055H52.8125C51.95 109.055 51.25 109.824 51.25 110.687V116.872H20V120H52.8125C53.675 120 54.375 119.369 54.375 118.505V112.182H57.5H66.875H73.125H82.5H87.1875V118.505C87.1875 119.368 87.8875 120 88.75 120H120V116.872H90.3125V110.687ZM89.3141 74.5589C92.875 79.1996 94.8516 84.4829 95.1922 90.2572C95.2453 91.1641 95.1156 92.0944 94.8141 92.9497C94.6984 93.2796 94.6312 93.364 94.6141 93.3812C94.6062 93.3875 94.4266 93.5501 93.4266 93.4407C91.4766 93.2249 89.5516 92.7824 87.7 92.1257L87.2547 91.9646C86.4031 91.6535 85.5219 91.333 84.5172 91.2157C83.9578 91.15 83.1359 91.1406 82.3016 91.2782L80.9375 76.2882V64.3175C82.3609 66.6754 84.1969 68.7205 86 70.7031C87.1313 71.9509 88.3016 73.2377 89.3141 74.5589ZM72.4328 55.893L70 62.3834L67.5672 55.8914L72.4328 55.893ZM56.0063 91.5268C55.7406 91.3236 55.4813 91.0953 55.2203 90.8686C54.2219 89.9992 52.9797 88.9172 51.2578 88.8719C49.9078 88.8078 48.7547 89.4801 47.8984 90.0446C47.6891 90.1822 47.4828 90.3244 47.2797 90.4699C48.6547 86.5609 50.3562 82.7677 52.3594 79.1386L53.0031 77.98C55.4313 73.6192 58.3625 68.3406 58.9609 63.1323L59.0625 63.1824L59.0672 76.1475L57.625 92.0397C56.8937 92.0866 56.6375 92.0084 56.0063 91.5268ZM68.6109 109.055L70 95.8454L71.3891 109.053L68.6109 109.055ZM74.5313 109.055L71.5531 80.782C71.4688 79.9861 70.7984 79.3998 69.9984 79.3998C69.1984 79.3998 68.5281 79.9783 68.4437 80.7741L65.4688 109.055H59.2109L62.1875 76.2882V62.2161C62.1875 61.6235 61.8531 61.0825 61.3234 60.8167L49.05 54.6765L39.3969 45.0167L43.4375 40.9733L53.2703 50.8129C53.4281 50.9708 53.6172 51.0928 53.8266 51.171L63.8688 54.9392L63.85 54.947L68.5375 67.4556C68.7656 68.0654 69.3484 68.4704 70 68.4704C70.6516 68.4704 71.2344 68.0654 71.4641 67.4556L76.1516 54.947L76.1328 54.9392L86.175 51.171C86.3844 51.0928 86.5734 50.9708 86.7312 50.8129L96.5625 40.9733L100.603 45.0167L90.95 54.6765L78.6766 60.8167C78.1469 61.0825 77.8125 61.6235 77.8125 62.2161L77.8188 76.3961L80.7891 109.055H74.5313Z" fill="#E50087"/>
<path d="M112.188 59.0891V55.9619C104.434 55.9619 98.125 62.1474 98.125 69.9653H101.25C101.25 63.711 106.156 59.0891 112.188 59.0891ZM37.1875 113.745H40.3125C40.3125 88.7282 31.3906 70.0341 20 70.0341V73.1612C29.3156 73.1612 37.1875 91.8553 37.1875 113.745ZM32.5 55.9619V59.0891C38.5312 59.0891 43.4375 65.2746 43.4375 71.5289H46.5625C46.5625 63.711 40.2531 55.9619 32.5 55.9619ZM101.25 107.491H104.375C104.375 93.4189 111.384 80.9791 120 80.9791V77.852C109.486 77.852 101.25 90.2918 101.25 107.491ZM118.438 65.3434V62.2162C110.684 62.2162 104.375 68.4017 104.375 74.656H107.5C107.5 69.9653 112.406 65.3434 118.438 65.3434ZM26.25 110.618H29.375C29.375 105.928 25.1703 101.306 20 101.306V104.433C23.4469 104.433 26.25 107.491 26.25 110.618Z" fill="#E50087"/>
<path d="M112.188 24.6904H109.062V27.8176H112.188V24.6904Z" fill="#E50087"/>
<path d="M93.4375 62.2158H90.3125V65.343H93.4375V62.2158Z" fill="#E50087"/>
<path d="M109.062 34.0723H105.938V37.1994H109.062V34.0723Z" fill="#E50087"/>
<path d="M118.438 34.0723H115.312V37.1994H118.438V34.0723Z" fill="#E50087"/>
<path d="M115.312 48.1445H112.188V51.2717H115.312V48.1445Z" fill="#E50087"/>
<path d="M118.438 55.9619H115.312V59.0891H118.438V55.9619Z" fill="#E50087"/>
<path d="M115.312 101.306H112.188V104.433H115.312V101.306Z" fill="#E50087"/>
<path d="M104.375 79.416H101.25V82.5432H104.375V79.416Z" fill="#E50087"/>
<path d="M104.375 110.688H101.25V113.815H104.375V110.688Z" fill="#E50087"/>
<path d="M96.5625 27.8174H93.4375V30.9445H96.5625V27.8174Z" fill="#E50087"/>
<path d="M41.875 27.8174H38.75V30.9445H41.875V27.8174Z" fill="#E50087"/>
<path d="M32.5 37.1992H29.375V40.3264H32.5V37.1992Z" fill="#E50087"/>
<path d="M29.375 27.8174H26.25V30.9445H29.375V27.8174Z" fill="#E50087"/>
<path d="M46.5625 74.7246H43.4375V77.8518H46.5625V74.7246Z" fill="#E50087"/>
<path d="M34.0625 65.3438H30.9375V68.4709H34.0625V65.3438Z" fill="#E50087"/>
<path d="M24.6875 48.1445H21.5625V51.2717H24.6875V48.1445Z" fill="#E50087"/>
<path d="M24.6875 85.6699H21.5625V88.7971H24.6875V85.6699Z" fill="#E50087"/>
</g>
<defs>
<clipPath id="clip0_346_227">
<rect width="100" height="100" fill="white" transform="translate(20 20)"/>
</clipPath>
</defs>
</svg>
