<svg width="140" height="140" viewBox="0 0 140 140" fill="none" xmlns="http://www.w3.org/2000/svg">
<rect width="140" height="140" rx="10" fill="#FDF3CE"/>
<path d="M40.8562 83.1246C40.4969 83.1246 40.1375 83.0027 39.8437 82.7496C39.1875 82.1902 39.1094 81.2027 39.6656 80.5465L40.4406 79.6371C46.8937 73.1777 56.5 71.7465 64.4281 76.0027C65.1875 76.409 65.475 77.3558 65.0656 78.1183C64.6594 78.8808 63.7062 79.1621 62.95 78.7558C56.2469 75.1621 48.1219 76.3683 42.7344 81.7558L42.0437 82.5746C41.7344 82.9371 41.2969 83.1246 40.8562 83.1246Z" fill="#F6CA26"/>
<path d="M86.8848 88.75H63.7754C62.9129 88.75 62.2129 88.05 62.2129 87.1875C62.2129 86.325 62.9129 85.625 63.7754 85.625H85.216C85.091 84.7719 84.8098 83.7281 84.1879 82.7563C82.7504 80.5125 79.9504 79.375 75.8629 79.375C75.8629 79.375 75.8566 79.375 75.8504 79.375H64.1879C63.3254 79.375 62.6254 78.675 62.6254 77.8125C62.6254 76.95 63.3254 76.25 64.1879 76.25H75.8504C75.8504 76.25 75.8598 76.25 75.866 76.25C81.0848 76.25 84.7723 77.8719 86.8223 81.0687C88.4504 83.6062 88.4504 86.3031 88.4504 87.1875C88.4473 88.05 87.7504 88.75 86.8848 88.75Z" fill="#F6CA26"/>
<path d="M110.831 77.0284C107.793 75.3659 103.425 75.719 98.4527 78.0471L89.7684 82.5565L86.1652 83.2065C86.6371 84.3596 86.8059 85.4627 86.859 86.2565L90.559 85.5877C90.7152 85.5596 90.8621 85.5096 91.0027 85.4377L99.8402 80.8471C103.768 79.0096 107.228 78.6159 109.334 79.7659C110.49 80.4002 111.265 81.5096 111.653 83.0721L95.4465 92.6221L78.7496 97.319C76.8465 97.8534 74.884 98.1252 72.9059 98.1252H57.4434C55.3746 98.1252 52.7934 99.0502 51.1996 100.347L48.9652 101.397C48.8996 101.425 48.8621 101.478 48.8027 101.516L51.1215 103.838L52.7121 103.091C52.8434 103.028 52.9652 102.95 53.0746 102.853C54.0684 101.985 56.0684 101.25 57.4402 101.25H72.9027C75.1652 101.25 77.4152 100.938 79.5965 100.328L96.4871 95.5752C96.6152 95.5377 96.7402 95.4846 96.8559 95.4159L114.175 85.2096C114.715 84.8909 115.012 84.2815 114.931 83.6596C114.421 79.7534 112.421 77.8971 110.831 77.0284Z" fill="#F6CA26"/>
<path d="M45.6777 116.419C45.0715 117.025 44.0777 117.028 43.4684 116.419C42.859 115.806 42.8621 114.816 43.4684 114.21L52.4746 105.188L34.7965 87.5096L25.7934 96.5283C25.184 97.1377 24.1934 97.1377 23.584 96.5283C22.9746 95.9221 22.9746 94.9283 23.584 94.319L33.5434 84.3471C34.1527 83.7377 35.3402 83.6315 35.9527 84.244L55.8402 104.131C56.4496 104.741 56.2559 105.831 55.6434 106.441L45.6777 116.419ZM74.9309 110.625H71.5027C70.6402 110.625 69.9402 109.925 69.9402 109.063C69.9402 108.2 70.6402 107.5 71.5027 107.5H74.9309C87.4809 107.5 99.7871 103.181 109.59 95.3408C110.268 94.8065 111.25 94.9158 111.787 95.5846C112.325 96.2596 112.218 97.2408 111.543 97.7815C101.187 106.066 88.1871 110.625 74.9309 110.625Z" fill="#F6CA26"/>
<path d="M65.2539 110.625C66.1169 110.625 66.8164 109.925 66.8164 109.062C66.8164 108.2 66.1169 107.5 65.2539 107.5C64.391 107.5 63.6914 108.2 63.6914 109.062C63.6914 109.925 64.391 110.625 65.2539 110.625Z" fill="#F6CA26"/>
<path d="M79.3747 73.131C72.5185 73.131 66.1122 70.3935 61.3403 65.4185C60.9435 65.006 60.806 64.406 60.981 63.8592C61.7435 61.4779 63.606 59.5842 65.8466 58.9123L74.0716 55.3623C74.5091 55.1748 75.0216 55.1967 75.4403 55.4279L77.1122 56.3467C78.4966 57.106 80.256 57.1123 81.6341 56.3467L83.3091 55.4217C83.7278 55.1904 84.2341 55.1623 84.6778 55.356L93.2591 59.0435C95.1872 59.5967 97.0278 61.5154 97.7685 63.8654C97.9435 64.4092 97.8028 65.006 97.406 65.4185C92.6372 70.3904 86.231 73.131 79.3747 73.131ZM64.3247 63.9779C68.4122 67.8748 73.7185 70.006 79.3747 70.006C85.0372 70.006 90.3435 67.8717 94.4341 63.9717C93.906 63.0029 93.0653 62.231 92.2028 61.9779L84.1466 58.5279L83.1403 59.0842C80.8403 60.3529 77.9122 60.3498 75.606 59.0842L74.606 58.5342L66.9122 61.8435C65.8091 62.1842 64.881 62.981 64.3247 63.9779Z" fill="#F6CA26"/>
<path d="M58.2906 59.8438C57.7063 59.8438 57.1531 59.5187 56.8844 58.9594C55.2188 55.5094 54.375 51.8656 54.375 48.125C54.375 34.3406 65.5906 23.125 79.375 23.125C93.1594 23.125 104.375 34.3406 104.375 48.125C104.375 51.9219 103.544 55.5656 101.916 58.9594C101.537 59.7375 100.609 60.0656 99.8281 59.6875C99.05 59.3125 98.7219 58.3781 99.0969 57.6031C100.525 54.6344 101.25 51.4469 101.25 48.125C101.25 36.0656 91.4344 26.25 79.375 26.25C67.3156 26.25 57.5 36.0656 57.5 48.125C57.5 51.3937 58.2375 54.5812 59.6969 57.6031C60.0688 58.3781 59.7469 59.3125 58.9688 59.6875C58.75 59.7938 58.5188 59.8438 58.2906 59.8438Z" fill="#F6CA26"/>
<path d="M84.0625 58.4061C83.2 58.4061 82.5 57.7061 82.5 56.8436V54.3436C82.5 53.8529 82.7281 53.3936 83.1187 53.0998C84.7125 51.8936 85.625 50.0811 85.625 48.1279V45.0029C85.625 40.1592 85.3219 37.1904 79.375 37.1904C73.4281 37.1904 73.125 40.1592 73.125 45.0029V48.1279C73.125 50.0811 74.0375 51.8936 75.6313 53.0998C76.0219 53.3936 76.25 53.8529 76.25 54.3436V56.8436C76.25 57.7061 75.55 58.4061 74.6875 58.4061C73.825 58.4061 73.125 57.7061 73.125 56.8436V55.0811C71.1281 53.2967 70 50.8029 70 48.1279V45.0029C70 40.9123 70 34.0654 79.375 34.0654C88.75 34.0654 88.75 40.9123 88.75 45.0029V48.1279C88.75 50.8029 87.6219 53.2936 85.625 55.0811V56.8436C85.625 57.7061 84.925 58.4061 84.0625 58.4061Z" fill="#F6CA26"/>
</svg>
