<svg width="140" height="140" viewBox="0 0 140 140" fill="none" xmlns="http://www.w3.org/2000/svg">
<rect width="140" height="140" rx="10" fill="#E8E2F7"/>
<g clip-path="url(#clip0_346_220)">
<path fill-rule="evenodd" clip-rule="evenodd" d="M100.785 61.8866C99.0275 61.8866 97.6216 60.1291 98.0316 58.3717L98.5003 56.2627C97.0943 55.0325 95.3369 53.9194 96.0398 51.8104C96.7428 49.6429 98.8518 49.8186 100.668 49.6429C101.371 47.944 101.898 45.8936 104.124 45.8936C106.35 45.8936 106.878 47.944 107.639 49.6429C109.455 49.7601 111.564 49.6429 112.267 51.8104C112.912 53.9194 111.154 55.0325 109.748 56.2627C110.158 58.0202 110.92 60.012 109.162 61.3008C107.346 62.6482 105.706 61.3008 104.124 60.3635C103.128 60.9493 102.015 61.8866 100.785 61.8866ZM21.3474 108.694C20.5858 108.694 20 108.108 20 107.346V95.1028C20 90.299 23.925 86.4326 28.7288 86.4326H30.662C26.0926 83.0348 27.3228 78.8755 27.0885 74.1303C26.7955 69.268 31.1306 65.1672 35.8172 65.1672C40.6796 65.1672 44.6046 69.1508 44.6046 73.9546C44.6046 78.6997 45.3661 83.2106 41.031 86.4326C44.3117 86.4326 46.655 86.4912 49.1154 88.9516C49.9941 83.5035 54.6807 79.4027 60.3046 79.4027H63.4681V78.6997C60.4804 76.6493 58.5472 73.193 58.5472 69.3266V62.0038C58.5472 55.7355 63.7024 50.5802 69.9707 50.5802C76.2976 50.5802 81.3943 55.794 81.3943 62.0038V69.3266C81.3943 73.193 79.461 76.6493 76.4733 78.6997V79.4027H79.6368C85.3193 79.4027 90.0059 83.5621 90.8846 88.9516C93.3451 86.4912 95.6883 86.4326 98.9104 86.4326C94.5753 83.2106 95.3369 78.6997 95.3369 73.9546C95.3369 69.1508 99.2619 65.1672 104.124 65.1672C108.987 65.1672 112.912 69.1508 112.912 73.9546C112.912 78.6997 113.673 83.2106 109.338 86.4326H111.271C116.075 86.4326 120 90.299 120 95.1028V107.346C120 108.108 119.356 108.694 118.594 108.694H21.3474ZM66.2214 83.7964C66.3386 88.7173 73.7786 88.6001 73.7786 83.6792V80.1057C71.3767 80.9258 68.5647 80.9258 66.2214 80.1057V83.7964ZM51.693 105.94H57.8442V98.2662C57.8442 96.5087 60.5975 96.5087 60.5975 98.2662V105.94H79.3439V98.2662C79.3439 96.5087 82.0972 96.5087 82.0972 98.2662V105.94H88.307V90.7677C88.307 86.0225 84.4405 82.1561 79.6368 82.1561H76.5319C76.5319 84.4994 76.4733 86.1983 74.833 88.0729C73.6614 89.3617 72.1383 90.0061 70.498 90.1819C66.7487 90.4748 63.4681 87.4871 63.4681 83.6792V82.1561H60.3046C55.5595 82.1561 51.693 86.0225 51.693 90.7677V105.94ZM65.5185 76.7665C71.2595 80.1643 78.6995 76.0049 78.6995 69.3266V63.2926C76.3562 63.937 73.72 63.8784 71.2595 62.7653C68.5647 61.5351 63.761 62.4138 61.3005 63.0582V69.3266C61.3005 72.3728 62.8823 75.2434 65.5185 76.7665ZM69.9707 53.3336C65.8114 53.3336 62.355 56.2627 61.4763 60.1877C72.7827 57.6101 72.3726 62.531 78.5237 60.4806C77.8207 56.4384 74.2472 53.3336 69.9707 53.3336ZM22.7534 105.94H26.5612V100.668C26.5612 98.9106 29.3146 98.9106 29.3146 100.668V105.94H42.3784V100.668C42.3784 98.9106 45.1318 98.9106 45.1318 100.668V105.94H48.9397V95.1028C48.9397 91.8222 46.2449 89.1274 42.9643 89.1274H41.031C41.031 90.8848 40.6796 92.4666 39.3907 93.6382C36.2273 96.6259 30.662 94.5755 30.662 89.9475V89.1274H28.7288C25.3896 89.1274 22.6948 91.8222 22.6948 95.1028V105.94H22.7534ZM33.2982 84.8509C37.2818 86.6083 41.9098 83.7378 41.9098 79.3441V75.3605C36.7545 76.4736 37.3404 73.1344 29.7832 75.009V79.3441C29.7832 81.8046 31.2478 83.9135 33.2982 84.8509ZM33.4153 87.78V90.0061C33.4739 93.111 38.2777 93.111 38.2777 89.9475V87.78C36.696 88.2486 34.9971 88.2486 33.4153 87.78ZM35.8172 67.9206C33.181 67.9206 30.8963 69.678 30.0762 72.1385C37.5747 70.5568 37.6919 73.7202 41.734 72.5486C41.0896 69.9124 38.6878 67.9206 35.8172 67.9206ZM101.722 87.78V90.0647C101.839 93.1696 106.585 93.0524 106.585 89.9475V87.78C104.534 88.3658 103.656 88.0729 101.722 87.78ZM91.0018 105.94H94.8682V100.668C94.8682 98.9106 97.563 98.9106 97.563 100.668V105.94H110.685V100.668C110.685 98.9106 113.439 98.9106 113.439 100.668V105.94H117.247V95.1028C117.247 91.8222 114.552 89.1274 111.271 89.1274H109.279V89.9475C109.279 92.8766 106.878 95.1614 104.007 95.1028C101.195 95.0442 98.969 92.7595 98.969 89.9475V89.1274H97.0357C93.6965 89.1274 91.0018 91.8222 91.0018 95.1028V105.94ZM101.605 84.8509C105.53 86.6083 110.158 83.7378 110.158 79.3441V75.3605C105.062 76.4736 105.647 73.1344 98.0902 75.009V79.3441C98.0902 81.8046 99.5548 83.9135 101.605 84.8509ZM104.124 67.9206C101.429 67.9206 99.1447 69.678 98.3831 72.1385C105.882 70.5568 105.999 73.7202 109.982 72.5486C109.397 69.9124 106.995 67.9206 104.124 67.9206ZM73.3099 47.2996C72.0797 47.2996 70.9666 46.3623 69.9707 45.7179C68.389 46.6552 66.8073 48.0026 64.9912 46.7138C63.1752 45.425 63.9367 43.4332 64.3468 41.6171C62.9994 40.4455 61.1834 39.2738 61.8864 37.1649C62.5893 35.0559 64.6983 35.1731 66.5144 34.9973C67.2173 33.357 67.7446 31.3066 69.9707 31.3066C72.1968 31.3066 72.7241 33.357 73.4856 34.9973C75.3017 35.1731 77.4107 35.0559 78.1137 37.1649C78.7581 39.3324 77.0006 40.4455 75.5946 41.6171C76.0047 43.4332 76.8248 45.3664 75.0088 46.7138C74.4815 47.0653 73.8957 47.2996 73.3099 47.2996ZM69.9707 34.0014C69.5021 34.0014 69.1506 37.5164 67.5688 37.6921C63.4681 38.0436 63.761 37.4578 66.7487 40.1526C67.9789 41.207 66.1629 44.2533 66.5729 44.4877C67.0416 44.7806 69.2677 42.1444 70.6737 42.9645C74.1301 45.0735 73.6614 45.425 72.7827 41.5C72.4312 39.9182 75.6532 38.5123 75.4774 38.0436C75.3017 37.5749 71.9039 38.3365 71.2595 36.872C71.1424 36.579 70.1465 34.0014 69.9707 34.0014ZM39.1564 61.8866C37.9848 61.8866 36.8717 60.9493 35.8172 60.3635C34.2941 61.3008 32.6538 62.6482 30.8377 61.3008C29.0217 60.012 29.7832 58.0202 30.1933 56.2627C28.8459 55.0325 27.0299 53.9194 27.7329 51.8104C28.4359 49.6429 30.5448 49.7601 32.3609 49.6429C33.0639 47.944 33.5911 45.8936 35.8172 45.8936C38.1019 45.8936 38.5706 47.944 39.3322 49.6429C41.1482 49.7601 43.2572 49.6429 43.9602 51.8104C44.6632 53.9194 42.8471 55.0325 41.4997 56.2627C41.8512 58.0202 42.6714 60.012 40.8553 61.3008C40.3281 61.7109 39.7422 61.8866 39.1564 61.8866ZM35.8172 57.3758C36.6374 57.3758 39.3907 59.6019 39.2736 59.0161C38.512 54.681 37.7504 55.794 41.324 52.7478C41.734 52.3963 38.4534 52.2791 38.2777 52.2791C37.0475 52.1619 36.696 50.4045 35.9344 48.7056C35.7586 48.2955 35.3486 49.5843 34.5284 51.459C33.884 52.9235 30.4862 52.1619 30.3105 52.6306C30.1347 53.0993 33.4153 54.5052 33.0639 56.087C32.1265 60.0706 31.6579 59.6605 35.1142 57.6101C35.3486 57.4343 35.5829 57.3758 35.8172 57.3758ZM104.124 57.3758C104.944 57.3758 107.698 59.6019 107.581 59.0161C106.76 54.681 106.057 55.794 109.572 52.7478C110.041 52.3963 106.76 52.2791 106.526 52.2791C105.354 52.1619 104.944 50.4631 104.241 48.7056C104.007 48.2369 103.011 50.9903 102.835 51.459C102.191 52.9235 98.7932 52.1619 98.6175 52.6306C98.4417 53.0993 101.664 54.5052 101.312 56.087C100.434 59.9534 99.9063 59.7191 103.421 57.6101C103.656 57.4343 103.89 57.3758 104.124 57.3758Z" fill="#6D48C9"/>
</g>
<defs>
<clipPath id="clip0_346_220">
<rect width="100" height="100" fill="white" transform="translate(20 20)"/>
</clipPath>
</defs>
</svg>
