<svg width="140" height="140" viewBox="0 0 140 140" fill="none" xmlns="http://www.w3.org/2000/svg">
<rect width="140" height="140" rx="10" fill="#D8F6FF"/>
<path d="M45.5121 109H105.745C107.138 108.999 108.474 108.439 109.459 107.443C110.444 106.447 110.998 105.097 111 103.689V91.5706C110.998 90.1626 110.444 88.8128 109.459 87.8172C108.474 86.8216 107.138 86.2615 105.745 86.2598H45.5121C44.1189 86.2611 42.783 86.821 41.7979 87.8167C40.8127 88.8124 40.2587 90.1625 40.2574 91.5706V103.689C40.2587 105.098 40.8127 106.448 41.7979 107.443C42.783 108.439 44.1189 108.999 45.5121 109ZM105.745 89.4971C106.289 89.4975 106.811 89.7161 107.196 90.1049C107.58 90.4936 107.796 91.0208 107.797 91.5706V103.689C107.796 104.239 107.58 104.766 107.195 105.155C106.81 105.543 106.289 105.762 105.745 105.763H45.5121C44.9681 105.763 44.4465 105.544 44.0619 105.155C43.6772 104.766 43.4609 104.239 43.4605 103.689V91.5706C43.4609 91.0208 43.6772 90.4936 44.0619 90.1049C44.4465 89.7161 44.9681 89.4975 45.5121 89.4971H105.745Z" fill="#1FB8E6"/>
<path d="M99.749 102.497C100.702 102.497 101.633 102.212 102.425 101.677C103.218 101.142 103.835 100.382 104.2 99.4918C104.564 98.6021 104.66 97.6232 104.474 96.6787C104.288 95.7342 103.829 94.8666 103.156 94.1857C102.482 93.5048 101.623 93.0411 100.689 92.8532C99.7544 92.6653 98.7857 92.7617 97.9054 93.1303C97.0252 93.4988 96.2728 94.1228 95.7434 94.9235C95.2141 95.7242 94.9315 96.6656 94.9315 97.6286C94.9332 98.9194 95.4413 100.157 96.3444 101.07C97.2475 101.982 98.4719 102.496 99.749 102.497ZM99.749 95.997C100.068 95.997 100.38 96.0926 100.646 96.2719C100.911 96.4512 101.118 96.706 101.241 97.0042C101.363 97.3023 101.395 97.6304 101.332 97.9469C101.27 98.2634 101.116 98.5541 100.891 98.7823C100.665 99.0105 100.377 99.1659 100.064 99.2288C99.7508 99.2918 99.4262 99.2595 99.1312 99.136C98.8362 99.0125 98.5841 98.8034 98.4067 98.535C98.2293 98.2667 98.1346 97.9513 98.1346 97.6286C98.1355 97.1961 98.3059 96.7816 98.6084 96.4758C98.911 96.17 99.3211 95.9978 99.749 95.997ZM86.8853 102.497C87.8381 102.497 88.7695 102.212 89.5617 101.677C90.354 101.142 90.9714 100.382 91.3361 99.4918C91.7007 98.6021 91.7961 97.6232 91.6102 96.6787C91.4243 95.7342 90.9655 94.8666 90.2918 94.1857C89.618 93.5048 88.7596 93.0411 87.8251 92.8532C86.8906 92.6653 85.922 92.7617 85.0417 93.1303C84.1614 93.4988 83.409 94.1228 82.8797 94.9235C82.3503 95.7242 82.0678 96.6656 82.0678 97.6286C82.069 98.9195 82.577 100.157 83.4802 101.07C84.3834 101.983 85.608 102.496 86.8853 102.497ZM86.8853 95.997C87.2046 95.997 87.5167 96.0926 87.7822 96.2719C88.0477 96.4512 88.2546 96.706 88.3768 97.0042C88.4989 97.3023 88.5309 97.6304 88.4686 97.9469C88.4063 98.2634 88.2526 98.5541 88.0268 98.7823C87.801 99.0105 87.5134 99.1659 87.2002 99.2288C86.8871 99.2918 86.5625 99.2595 86.2675 99.136C85.9725 99.0125 85.7204 98.8034 85.543 98.535C85.3656 98.2667 85.2709 97.9513 85.2709 97.6286C85.2713 97.196 85.4415 96.7812 85.7442 96.4753C86.0469 96.1694 86.4572 95.9974 86.8853 95.997ZM48.2908 102.497H77.2359C77.6606 102.497 78.068 102.327 78.3683 102.023C78.6687 101.72 78.8374 101.308 78.8374 100.879V94.3783C78.8374 93.949 78.6687 93.5373 78.3683 93.2337C78.068 92.9302 77.6606 92.7596 77.2359 92.7596H48.2908C47.8661 92.7596 47.4587 92.9302 47.1583 93.2337C46.858 93.5373 46.6893 93.949 46.6893 94.3783V100.879C46.6893 101.308 46.858 101.72 47.1583 102.023C47.4587 102.327 47.8661 102.497 48.2908 102.497ZM75.6343 99.2602H49.8924V95.997H75.6343V99.2602ZM45.5121 89.4964H105.745C107.138 89.4947 108.474 88.9346 109.459 87.939C110.444 86.9434 110.998 85.5936 111 84.1856V72.0667C110.998 70.6587 110.444 69.3089 109.459 68.3133C108.474 67.3177 107.138 66.7576 105.745 66.7559H45.5121C44.1189 66.7571 42.783 67.3171 41.7979 68.3128C40.8127 69.3085 40.2587 70.6586 40.2574 72.0667V84.1856C40.2587 85.5937 40.8127 86.9438 41.7979 87.9395C42.783 88.9352 44.1189 89.4951 45.5121 89.4964ZM105.745 69.9932C106.289 69.994 106.81 70.2128 107.195 70.6014C107.58 70.9901 107.796 71.517 107.797 72.0667V84.1856C107.796 84.7353 107.58 85.2622 107.195 85.6508C106.81 86.0395 106.289 86.2582 105.745 86.2591H45.5121C44.9681 86.2587 44.4465 86.0401 44.0619 85.6513C43.6772 85.2625 43.4609 84.7354 43.4605 84.1856V72.0667C43.4609 71.5169 43.6772 70.9897 44.0619 70.601C44.4465 70.2122 44.9681 69.9936 45.5121 69.9932H105.745Z" fill="#1FB8E6"/>
<path d="M99.749 82.9962C100.702 82.9965 101.634 82.7111 102.427 82.1761C103.22 81.6411 103.837 80.8806 104.202 79.9906C104.567 79.1007 104.663 78.1213 104.477 77.1764C104.292 76.2315 103.833 75.3635 103.159 74.6822C102.485 74.0009 101.626 73.5369 100.691 73.3488C99.7565 73.1607 98.7875 73.2571 97.9068 73.6257C97.0261 73.9943 96.2734 74.6185 95.7438 75.4195C95.2142 76.2205 94.9315 77.1623 94.9315 78.1256C94.9332 79.4166 95.4413 80.6542 96.3443 81.5672C97.2474 82.4802 98.4717 82.994 99.749 82.9962ZM99.749 76.494C100.069 76.4937 100.381 76.5893 100.647 76.7686C100.913 76.9479 101.121 77.203 101.243 77.5015C101.366 77.8 101.398 78.1285 101.336 78.4455C101.273 78.7624 101.119 79.0536 100.893 79.2821C100.667 79.5106 100.379 79.6662 100.065 79.7292C99.7519 79.7921 99.4268 79.7597 99.1315 79.6359C98.8361 79.512 98.5838 79.3024 98.4063 79.0336C98.2289 78.7648 98.1343 78.4488 98.1346 78.1256C98.1355 77.6932 98.3059 77.2787 98.6084 76.9729C98.911 76.6671 99.3211 76.4949 99.749 76.494ZM86.8853 82.9962C87.8385 82.9965 88.7703 82.7111 89.5631 82.1761C90.3558 81.6411 90.9737 80.8806 91.3387 79.9906C91.7037 79.1007 91.7993 78.1213 91.6136 77.1764C91.4278 76.2315 90.969 75.3635 90.2951 74.6822C89.6212 74.0009 88.7625 73.5369 87.8276 73.3488C86.8928 73.1607 85.9237 73.2571 85.0431 73.6257C84.1624 73.9943 83.4096 74.6185 82.88 75.4195C82.3504 76.2205 82.0678 77.1623 82.0678 78.1256C82.069 79.4167 82.577 80.6546 83.4801 81.5676C84.3832 82.4807 85.6078 82.9945 86.8853 82.9962ZM86.8853 76.494C87.205 76.4937 87.5177 76.5893 87.7837 76.7686C88.0497 76.9479 88.257 77.203 88.3795 77.5015C88.502 77.8 88.5342 78.1285 88.4719 78.4455C88.4096 78.7624 88.2556 79.0536 88.0295 79.2821C87.8034 79.5106 87.5154 79.6662 87.2017 79.7292C86.8881 79.7921 86.5631 79.7597 86.2677 79.6359C85.9724 79.512 85.72 79.3024 85.5426 79.0336C85.3651 78.7648 85.2706 78.4488 85.2709 78.1256C85.2713 77.693 85.4415 77.2783 85.7442 76.9724C86.0469 76.6665 86.4572 76.4945 86.8853 76.494ZM48.2908 82.9962H77.2359C77.6606 82.9962 78.068 82.8256 78.3683 82.5221C78.6687 82.2185 78.8374 81.8068 78.8374 81.3775V74.8754C78.8374 74.4461 78.6687 74.0344 78.3683 73.7308C78.068 73.4272 77.6606 73.2567 77.2359 73.2567H48.2908C47.8661 73.2567 47.4587 73.4272 47.1583 73.7308C46.858 74.0344 46.6893 74.4461 46.6893 74.8754V81.3775C46.6893 81.8068 46.858 82.2185 47.1583 82.5221C47.4587 82.8256 47.8661 82.9962 48.2908 82.9962ZM75.6343 79.7589H49.8924V76.494H75.6343V79.7589ZM45.5121 69.9935H105.745C107.138 69.9918 108.474 69.4317 109.459 68.4361C110.444 67.4405 110.998 66.0907 111 64.6827V52.5638C110.998 51.1558 110.444 49.8059 109.459 48.8103C108.474 47.8147 107.138 47.2546 105.745 47.2529H65.9064C65.4816 47.2529 65.0743 47.4235 64.7739 47.727C64.4736 48.0306 64.3048 48.4423 64.3048 48.8716C64.3048 49.3009 64.4736 49.7126 64.7739 50.0162C65.0743 50.3197 65.4816 50.4903 65.9064 50.4903H105.745C106.289 50.4911 106.81 50.7098 107.195 51.0985C107.58 51.4872 107.796 52.0141 107.797 52.5638V64.6827C107.796 65.2323 107.58 65.7592 107.195 66.1479C106.81 66.5366 106.289 66.7553 105.745 66.7562H45.5121C45.08 66.7574 44.6588 66.6196 44.3093 66.3628C43.9653 66.111 43.5363 66.0077 43.1169 66.0756C42.6975 66.1434 42.3219 66.3769 42.0727 66.7246C41.8236 67.0723 41.7214 67.5058 41.7885 67.9298C41.8556 68.3537 42.0866 68.7333 42.4307 68.9851C43.3262 69.6426 44.4052 69.9958 45.5121 69.9935Z" fill="#1FB8E6"/>
<path d="M99.7489 63.4912C100.702 63.4912 101.633 63.2056 102.425 62.6706C103.218 62.1356 103.835 61.3752 104.2 60.4855C104.564 59.5958 104.66 58.6168 104.474 57.6723C104.288 56.7279 103.829 55.8603 103.155 55.1794C102.482 54.4984 101.623 54.0347 100.689 53.8468C99.7542 53.659 98.7856 53.7554 97.9053 54.1239C97.025 54.4924 96.2727 55.1165 95.7433 55.9172C95.2139 56.7179 94.9314 57.6592 94.9314 58.6222C94.9331 59.913 95.4412 61.1505 96.3443 62.0632C97.2474 62.9759 98.4717 63.4894 99.7489 63.4912ZM99.7489 56.9906C100.068 56.9906 100.38 57.0863 100.646 57.2656C100.911 57.4449 101.118 57.6997 101.24 57.9978C101.363 58.296 101.395 58.624 101.332 58.9405C101.27 59.257 101.116 59.5478 100.89 59.7759C100.665 60.0041 100.377 60.1595 100.064 60.2225C99.7507 60.2854 99.4261 60.2531 99.1311 60.1296C98.8361 60.0061 98.584 59.797 98.4066 59.5287C98.2292 59.2604 98.1345 58.9449 98.1345 58.6222C98.1354 58.1898 98.3057 57.7752 98.6083 57.4694C98.9109 57.1636 99.321 56.9915 99.7489 56.9906ZM86.8852 63.4912C87.838 63.4912 88.7694 63.2056 89.5616 62.6706C90.3538 62.1356 90.9713 61.3752 91.3359 60.4855C91.7006 59.5958 91.796 58.6168 91.6101 57.6723C91.4242 56.7279 90.9654 55.8603 90.2916 55.1794C89.6179 54.4984 88.7595 54.0347 87.825 53.8468C86.8905 53.659 85.9219 53.7554 85.0416 54.1239C84.1613 54.4924 83.4089 55.1165 82.8795 55.9172C82.3502 56.7179 82.0677 57.6592 82.0677 58.6222C82.0689 59.9131 82.5769 61.1508 83.4801 62.0637C84.3833 62.9765 85.6079 63.4899 86.8852 63.4912ZM86.8852 56.9906C87.2044 56.9906 87.5166 57.0863 87.7821 57.2656C88.0475 57.4449 88.2545 57.6997 88.3766 57.9978C88.4988 58.296 88.5308 58.624 88.4685 58.9405C88.4062 59.257 88.2525 59.5478 88.0267 59.7759C87.8009 60.0041 87.5133 60.1595 87.2001 60.2225C86.8869 60.2854 86.5623 60.2531 86.2674 60.1296C85.9724 60.0061 85.7202 59.797 85.5428 59.5287C85.3655 59.2604 85.2708 58.9449 85.2708 58.6222C85.2712 58.1896 85.4414 57.7749 85.7441 57.469C86.0467 57.1631 86.4571 56.991 86.8852 56.9906ZM61.936 63.4912H77.2357C77.6605 63.4912 78.0679 63.3206 78.3682 63.0171C78.6686 62.7135 78.8373 62.3018 78.8373 61.8725V55.372C78.8373 54.9427 78.6686 54.5309 78.3682 54.2274C78.0679 53.9238 77.6605 53.7533 77.2357 53.7533H65.3137C64.8889 53.7533 64.4816 53.9238 64.1812 54.2274C63.8809 54.5309 63.7121 54.9427 63.7121 55.372C63.7121 55.8013 63.8809 56.213 64.1812 56.5165C64.4816 56.8201 64.8889 56.9906 65.3137 56.9906H75.6342V60.2538H61.936C61.5112 60.2538 61.1039 60.4244 60.8035 60.7279C60.5032 61.0315 60.3344 61.4432 60.3344 61.8725C60.3344 62.3018 60.5032 62.7135 60.8035 63.0171C61.1039 63.3206 61.5112 63.4912 61.936 63.4912ZM42.4418 61.866H54.1444C55.0604 61.8652 55.9385 61.497 56.5862 60.8425C57.2339 60.1879 57.5981 59.3003 57.599 58.3746V49.8879C57.5977 48.9623 57.2333 48.075 56.5858 47.4205C55.9382 46.766 55.0602 46.3978 54.1444 46.3965H42.453C41.5371 46.3973 40.6589 46.7655 40.0112 47.4201C39.3635 48.0746 38.9993 48.9622 38.9984 49.8879V58.3746C38.9993 59.2983 39.362 60.1842 40.0072 60.8385C40.6525 61.4927 41.5278 61.8622 42.4418 61.866ZM54.1332 49.6338C54.1999 49.6338 54.2638 49.6606 54.311 49.7082C54.3582 49.7559 54.3846 49.8205 54.3846 49.8879V58.3746C54.3846 58.442 54.3582 58.5066 54.311 58.5543C54.2638 58.6019 54.1999 58.6287 54.1332 58.6287H42.4418C42.3751 58.6287 42.3111 58.6019 42.264 58.5543C42.2168 58.5066 42.1903 58.442 42.1903 58.3746V49.8879C42.1903 49.8205 42.2168 49.7559 42.264 49.7082C42.3111 49.6606 42.3751 49.6338 42.4418 49.6338H54.1332Z" fill="#1FB8E6"/>
<path d="M42.7902 49.6345H53.793C54.2177 49.6345 54.6251 49.4639 54.9254 49.1604C55.2258 48.8568 55.3945 48.4451 55.3945 48.0158V44.6797C55.3945 43.737 55.2108 42.8035 54.8539 41.9325C54.4969 41.0616 53.9737 40.2702 53.3141 39.6036C52.6546 38.937 51.8715 38.4082 51.0098 38.0474C50.148 37.6867 49.2244 37.501 48.2916 37.501C47.3588 37.501 46.4352 37.6867 45.5734 38.0474C44.7117 38.4082 43.9286 38.937 43.2691 39.6036C42.6095 40.2702 42.0863 41.0616 41.7294 41.9325C41.3724 42.8035 41.1887 43.737 41.1887 44.6797V48.0158C41.1887 48.4451 41.3574 48.8568 41.6578 49.1604C41.9581 49.4639 42.3655 49.6345 42.7902 49.6345ZM52.1914 46.3971H44.3918V44.6797C44.3918 44.1621 44.4927 43.6496 44.6887 43.1714C44.8846 42.6932 45.1719 42.2587 45.534 41.8927C45.8962 41.5267 46.3261 41.2364 46.7992 41.0383C47.2724 40.8402 47.7795 40.7383 48.2916 40.7383C48.8037 40.7383 49.3108 40.8402 49.784 41.0383C50.2571 41.2364 50.6871 41.5267 51.0492 41.8927C51.4113 42.2587 51.6986 42.6932 51.8946 43.1714C52.0905 43.6496 52.1914 44.1621 52.1914 44.6797V46.3971ZM48.2916 56.9913C48.7164 56.9913 49.1237 56.8207 49.4241 56.5172C49.7244 56.2136 49.8932 55.8019 49.8932 55.3726V53.7539C49.8932 53.3246 49.7244 52.9129 49.4241 52.6094C49.1237 52.3058 48.7164 52.1353 48.2916 52.1353C47.8668 52.1353 47.4595 52.3058 47.1591 52.6094C46.8588 52.9129 46.69 53.3246 46.69 53.7539V55.3726C46.69 55.8019 46.8588 56.2136 47.1591 56.5172C47.4595 56.8207 47.8668 56.9913 48.2916 56.9913Z" fill="#1FB8E6"/>
<path d="M48.2912 69.9935C52.1066 69.9935 55.8362 68.8501 59.0086 66.7077C62.181 64.5654 64.6535 61.5204 66.1136 57.9579C67.5737 54.3953 67.9557 50.4751 67.2114 46.6931C66.467 42.9111 64.6297 39.4371 61.9319 36.7105C59.234 33.9838 55.7967 32.1269 52.0547 31.3746C48.3126 30.6223 44.4339 31.0084 40.9089 32.4841C37.384 33.9598 34.3712 36.4587 32.2515 39.665C30.1318 42.8712 29.0004 46.6407 29.0004 50.4968C29.0063 55.6658 31.0406 60.6214 34.6571 64.2764C38.2735 67.9315 43.1768 69.9875 48.2912 69.9935ZM48.2912 34.2373C51.473 34.2373 54.5834 35.1909 57.229 36.9775C59.8747 38.7642 61.9367 41.3035 63.1543 44.2746C64.3719 47.2456 64.6905 50.5148 64.0698 53.6688C63.449 56.8229 61.9168 59.72 59.6669 61.9939C57.417 64.2679 54.5505 65.8164 51.4298 66.4438C48.309 67.0712 45.0743 66.7492 42.1347 65.5185C39.1951 64.2879 36.6825 62.2039 34.9148 59.53C33.147 56.8562 32.2035 53.7126 32.2035 50.4968C32.2082 46.1859 33.9046 42.053 36.9206 39.0048C39.9366 35.9566 44.0259 34.242 48.2912 34.2373Z" fill="#1FB8E6"/>
</svg>
