<svg width="50" height="50" viewBox="0 0 50 50" fill="none" xmlns="http://www.w3.org/2000/svg">
<path d="M44.6223 16.3191C44.1845 15.9619 43.6535 15.7377 43.0922 15.6731C42.5309 15.6084 41.9628 15.7061 41.4553 15.9544C40.9478 16.2027 40.5221 16.5912 40.2286 17.0741C39.9351 17.5569 39.7862 18.1137 39.7994 18.6785L39.7584 25.6542C39.2584 25.5048 38.7272 25.4942 38.2217 25.6237C37.7162 25.7532 37.2554 26.0178 36.8888 26.3891L31.2453 32.0215C30.8748 32.3931 30.5812 32.8341 30.3812 33.3193C30.1813 33.8044 30.0789 34.3242 30.0799 34.849L30.0784 39.2076L30.0948 41.0135H29.1102C28.903 41.0135 28.7043 41.0958 28.5578 41.2423C28.4113 41.3889 28.329 41.5876 28.329 41.7948V46.0939C28.329 46.3011 28.4113 46.4999 28.5578 46.6464C28.7043 46.7929 28.903 46.8752 29.1102 46.8752H41.4206C41.6278 46.8752 41.8266 46.7929 41.9731 46.6464C42.1196 46.4999 42.2019 46.3011 42.2019 46.0939V41.7948C42.1586 40.7469 40.9402 41.0567 40.2552 41.0135C40.2872 40.3361 40.047 39.1324 40.6394 38.6289L44.4385 34.8272C45.1861 34.0756 45.6089 33.0606 45.6161 32.0005L45.6599 18.5571C45.6608 18.131 45.5683 17.7098 45.3891 17.3231C45.2098 16.9365 44.9481 16.5938 44.6223 16.3191ZM40.6394 42.576V45.3127H29.8915V42.576C29.8915 42.576 40.3232 42.5761 40.6394 42.576ZM44.0536 31.9932C44.0494 32.6412 43.7913 33.2617 43.3345 33.7213L39.5289 37.5295C38.5691 38.394 38.6501 39.8378 38.6926 41.0135H31.6575C31.6379 39.8521 31.6403 36.0731 31.6424 34.8474C31.6451 34.2018 31.9003 33.5829 32.3535 33.1232L37.9943 27.4935C38.2481 27.2463 38.5881 27.1075 38.9424 27.1062C39.2967 27.105 39.6376 27.2415 39.8931 27.4869C40.1487 27.7323 40.2989 28.0674 40.312 28.4215C40.3251 28.7755 40.2001 29.1208 39.9634 29.3845C39.9295 29.436 34.6494 34.6989 34.6079 34.7465C34.4664 34.894 34.3884 35.0911 34.3906 35.2955C34.3927 35.4999 34.4749 35.6953 34.6194 35.8398C34.764 35.9843 34.9594 36.0664 35.1638 36.0685C35.3682 36.0706 35.5653 35.9926 35.7128 35.851L41.0361 30.5277C41.5222 30.0321 41.8169 29.3803 41.8679 28.688C41.9189 27.9957 41.7228 27.3078 41.3146 26.7463L41.3619 18.6827C41.3443 18.4143 41.4051 18.1466 41.5371 17.9122C41.669 17.6778 41.8663 17.4868 42.1048 17.3626C42.3434 17.2385 42.613 17.1864 42.8806 17.2127C43.1483 17.2391 43.4025 17.3428 43.6122 17.5112C43.7642 17.6389 43.8864 17.7982 43.9702 17.9781C44.054 18.1581 44.0974 18.3541 44.0974 18.5526L44.0536 31.9932ZM20.8896 41.0135H19.9049L19.9214 39.1996L19.9198 34.8512C19.9209 34.3251 19.8181 33.8039 19.6174 33.3175C19.4168 32.8312 19.1221 32.3892 18.7502 32.0169L13.1125 26.391C12.7456 26.0194 12.2849 25.7543 11.7792 25.6239C11.2736 25.4935 10.7421 25.5027 10.2413 25.6505L10.2004 18.6834C10.2147 18.1181 10.0665 17.5605 9.77343 17.0769C9.48034 16.5933 9.05465 16.2039 8.54688 15.955C8.03911 15.7061 7.47058 15.6081 6.90878 15.6726C6.34697 15.7372 5.81549 15.9616 5.3774 16.3192C5.05154 16.594 4.7898 16.9368 4.61055 17.3236C4.43131 17.7103 4.33891 18.1316 4.33985 18.5579L4.38372 32.0024C4.39122 33.0613 4.81346 34.075 5.55983 34.826L9.35545 38.6236C9.95651 39.133 9.71151 40.341 9.7446 41.0135H8.57916C8.37196 41.0135 8.17325 41.0958 8.02674 41.2423C7.88022 41.3888 7.79791 41.5875 7.79791 41.7947V46.0939C7.79791 46.3011 7.88022 46.4998 8.02674 46.6463C8.17325 46.7928 8.37196 46.8751 8.57916 46.8751H20.8896C21.0968 46.8751 21.2955 46.7928 21.442 46.6463C21.5885 46.4998 21.6708 46.3011 21.6708 46.0939V41.7948C21.6708 41.5875 21.5885 41.3888 21.442 41.2423C21.2955 41.0958 21.0968 41.0135 20.8896 41.0135ZM6.66379 33.7202C6.20825 33.2611 5.95067 32.6419 5.94624 31.9952L5.90239 18.5533C5.90545 18.3697 5.9454 18.1885 6.01986 18.0207C6.09432 17.8528 6.20178 17.7016 6.33585 17.576C6.46991 17.4505 6.62785 17.3532 6.80026 17.2899C6.97268 17.2267 7.15606 17.1987 7.3395 17.2077C7.52294 17.2167 7.70269 17.2625 7.86808 17.3424C8.03347 17.4222 8.18111 17.5345 8.30223 17.6726C8.42335 17.8107 8.51548 17.9717 8.57314 18.146C8.6308 18.3204 8.6528 18.5046 8.63786 18.6876L8.68521 26.7462C8.27681 27.308 8.08086 27.9964 8.1322 28.6891C8.18353 29.3817 8.47883 30.0337 8.96559 30.5292L14.2871 35.8511C14.4346 35.9928 14.6317 36.071 14.8362 36.0689C15.0408 36.0669 15.2363 35.9847 15.3809 35.8401C15.5255 35.6955 15.6077 35.4999 15.6097 35.2954C15.6117 35.0909 15.5335 34.8937 15.3918 34.7463L10.076 29.4305C9.82427 29.1735 9.68401 28.8275 9.68569 28.4676C9.68737 28.1078 9.83086 27.7632 10.085 27.5085C10.3392 27.2537 10.6836 27.1095 11.0434 27.1071C11.4032 27.1046 11.7495 27.2442 12.0071 27.4954L17.6421 33.1186C18.0979 33.5798 18.3547 34.2013 18.3574 34.8497C18.3564 36.0858 18.3649 39.8269 18.3423 41.0135H11.3072C11.347 39.8219 11.4381 38.409 10.4659 37.5242L6.66379 33.7202ZM20.1083 45.3127H9.36041V42.576C9.65271 42.5762 20.1083 42.576 20.1083 42.576V45.3127Z" fill="black"/>
<path d="M36.9878 20.9362C37.1305 21.4483 37.1018 6.1838 37.0822 6.01939C37.0822 5.91679 37.062 5.8152 37.0228 5.72042C36.9835 5.62564 36.9259 5.53952 36.8534 5.46698C36.7808 5.39444 36.6947 5.3369 36.5999 5.29765C36.5051 5.25841 36.4035 5.23821 36.3009 5.23823C32.3216 5.16194 28.497 4.86272 25.4005 3.23542C25.2794 3.16314 25.141 3.12498 25 3.125C24.8589 3.12502 24.7205 3.1632 24.5994 3.23551C21.5054 4.86062 17.6762 5.1624 13.6989 5.23818C13.4917 5.2382 13.293 5.32053 13.1464 5.46706C12.9999 5.61358 12.9176 5.8123 12.9176 6.01952C12.9748 6.07207 12.7931 21.6271 13.0202 20.9396C13.9283 25.489 23.5873 30.7623 24.9999 31.2498C26.4233 30.7556 36.0638 25.4968 36.9878 20.9362ZM24.9999 29.5843C21.9463 27.9401 15.0562 23.6631 14.5595 20.6712C14.5052 20.3689 14.4786 20.0622 14.4802 19.7549V6.79339C18.3405 6.66396 21.899 6.29037 24.9999 4.7999C28.1001 6.28926 31.6618 6.66419 35.5197 6.79341V19.755C35.5202 20.0656 35.4954 20.3757 35.4457 20.6823C34.9464 23.6604 28.054 27.9394 24.9999 29.5843Z" fill="black"/>
<path d="M29.867 13.4684L27.0972 13.2159L26.0016 10.6594C25.9151 10.4659 25.7744 10.3016 25.5966 10.1863C25.4187 10.0711 25.2113 10.0097 24.9994 10.0098C24.7874 10.0098 24.58 10.0712 24.4022 10.1865C24.2244 10.3019 24.0838 10.4662 23.9974 10.6597L22.9018 13.2159L20.1315 13.4689C19.9191 13.4883 19.717 13.5697 19.5504 13.7028C19.3837 13.836 19.2598 14.0151 19.1939 14.218C19.128 14.4209 19.1231 14.6387 19.1798 14.8444C19.2365 15.05 19.3523 15.2346 19.5128 15.3751L21.6055 17.2069L20.9891 19.9176C20.9542 20.0771 20.9554 20.2424 20.9925 20.4014C21.0296 20.5605 21.1017 20.7092 21.2035 20.8369C21.3053 20.9645 21.4344 21.0678 21.5812 21.1393C21.728 21.2108 21.8889 21.2486 22.0522 21.2501C22.4552 21.3493 24.5753 19.8671 24.9995 19.6723L27.3882 21.096C27.5715 21.2053 27.7829 21.2585 27.9961 21.2488C28.2093 21.2392 28.4151 21.1672 28.5877 21.0417C28.7604 20.9162 28.8924 20.7428 28.9675 20.543C29.0425 20.3432 29.0572 20.1257 29.0099 19.9176L28.3934 17.2069L30.4862 15.375C30.6467 15.2344 30.7625 15.0499 30.8191 14.8442C30.8758 14.6384 30.8709 14.4206 30.805 14.2177C30.7391 14.0147 30.6151 13.8356 30.4484 13.7024C30.2817 13.5692 30.0795 13.4879 29.867 13.4684ZM27.1521 16.2165C27.0041 16.3459 26.8939 16.513 26.8332 16.7C26.7725 16.887 26.7635 17.0869 26.8073 17.2786L27.2418 19.1897L25.5587 18.1865C25.3898 18.0854 25.1967 18.032 24.9999 18.032C24.8031 18.0319 24.61 18.0851 24.441 18.1861L22.7572 19.1897L23.1917 17.2786C23.2354 17.0869 23.2265 16.887 23.1658 16.7C23.105 16.513 22.9948 16.3459 22.8468 16.2165L21.3706 14.9245L23.3229 14.7467C23.5187 14.7289 23.706 14.6585 23.865 14.543C24.0241 14.4275 24.149 14.2712 24.2266 14.0906L24.9995 12.2878L25.7731 14.0929C25.8509 14.273 25.9757 14.4287 26.1346 14.5438C26.2934 14.6588 26.4803 14.729 26.6757 14.7467L28.6284 14.9245L27.1521 16.2165Z" fill="black"/>
</svg>
