<svg width="42" height="56" viewBox="0 0 42 56" fill="none" xmlns="http://www.w3.org/2000/svg">
<path d="M1.75168 41.2735C2.05441 41.5564 2.41126 41.7751 2.80072 41.9165C3.19019 42.0578 3.60423 42.1189 4.01793 42.096C7.00168 42.096 11.3767 39.471 14.4042 37.3623C14.9895 38.5354 15.3289 39.8158 15.4017 41.1248C15.1696 41.1248 14.9471 41.217 14.783 41.3811C14.6189 41.5452 14.5267 41.7677 14.5267 41.9998V50.8285C14.5546 51.9845 15.0391 53.0824 15.8742 53.8823C16.6735 54.6786 17.7559 55.1254 18.8842 55.1248H23.3642C23.932 55.1275 24.4947 55.0166 25.0191 54.7987C25.5436 54.5808 26.0191 54.2603 26.4179 53.856C27.2241 53.0433 27.6796 51.947 27.6867 50.8023V41.9998C27.6882 41.7848 27.6106 41.5768 27.4686 41.4154C27.3266 41.254 27.1301 41.1506 26.9167 41.1248C26.9892 39.814 27.3255 38.5313 27.9054 37.3535C30.9417 39.4535 35.2642 42.0435 38.2304 42.0435C38.6441 42.0664 39.0582 42.0053 39.4476 41.864C39.8371 41.7226 40.1939 41.5039 40.4967 41.221C42.5879 39.1298 40.4967 34.0548 36.3667 28.236C37.7776 25.9701 38.6618 23.4163 38.954 20.763C39.2463 18.1098 38.9392 15.4248 38.0554 12.906C40.3742 9.26603 42.5529 4.58478 40.4967 2.52853C38.9829 1.01478 35.9292 1.57478 31.4142 4.17353C28.4071 2.04405 24.8133 0.900391 21.1285 0.900391C17.4438 0.900391 13.85 2.04405 10.8429 4.17353C6.31918 1.54853 3.26543 1.01478 1.75168 2.52853C-0.304571 4.58478 1.89168 9.26604 4.20168 12.9585C3.31217 15.4759 3.00129 18.1613 3.29213 20.8153C3.58298 23.4692 4.46808 26.0236 5.88168 28.2885C1.76043 34.1248 -0.339571 39.1823 1.75168 41.2735ZM16.3117 42.8748H25.9367V45.0623H16.3117V42.8748ZM20.5467 41.1248L18.4992 30.9135L18.9804 30.3885L20.3367 32.8298C20.4182 32.964 20.5343 33.0738 20.6729 33.1477C20.8114 33.2216 20.9673 33.2569 21.1242 33.2498C21.2807 33.2511 21.4347 33.2104 21.5701 33.1319C21.7056 33.0534 21.8175 32.94 21.8942 32.8035L23.2592 30.3448L23.7317 30.8698L21.7017 41.1248H20.5467ZM16.3117 46.8123H25.9367V48.9998H16.3117V46.8123ZM25.1492 41.1248H23.4867L25.4992 30.8173L25.8404 29.0673C25.8628 28.9524 25.8624 28.8342 25.8391 28.7194C25.8158 28.6047 25.7702 28.4957 25.7048 28.3986C25.6394 28.3015 25.5555 28.2182 25.4579 28.1536C25.3603 28.0889 25.251 28.0441 25.136 28.0217C25.0211 27.9993 24.903 27.9997 24.7882 28.023C24.6735 28.0462 24.5645 28.0919 24.4674 28.1573C24.3703 28.2227 24.287 28.3066 24.2223 28.4042C24.1577 28.5018 24.1128 28.6111 24.0904 28.726L23.7492 28.2973C23.6544 28.1984 23.5377 28.1231 23.4086 28.0775C23.2794 28.0319 23.1413 28.0173 23.0054 28.0348C22.8686 28.0522 22.7378 28.1017 22.6238 28.1792C22.5098 28.2568 22.4157 28.3602 22.3492 28.481L21.1242 30.6248L19.9429 28.4985C19.8756 28.3766 19.7801 28.2725 19.6645 28.1949C19.5488 28.1172 19.4163 28.0684 19.2779 28.0523C19.1407 28.0369 19.0017 28.0543 18.8724 28.103C18.7432 28.1516 18.6272 28.2302 18.5342 28.3323L18.1054 28.8048V28.7523C18.061 28.5251 17.9282 28.3247 17.7364 28.1952C17.5445 28.0656 17.3091 28.0174 17.0817 28.061C16.9683 28.083 16.8603 28.1272 16.7641 28.1911C16.6679 28.255 16.5852 28.3373 16.521 28.4333C16.4567 28.5293 16.4121 28.637 16.3897 28.7504C16.3673 28.8637 16.3675 28.9803 16.3904 29.0935L18.7617 41.1248H17.1779C17.0933 39.3552 16.5988 37.6294 15.7333 36.0836C14.8677 34.5378 13.6549 33.2143 12.1904 32.2173C10.5692 31.1873 9.14898 29.8709 7.99918 28.3323C10.77 24.627 13.8147 21.1347 17.1079 17.8848C18.4379 16.546 19.7854 15.2598 21.1242 14.0698C22.4629 15.2773 23.8104 16.546 25.1492 17.8848C28.4396 21.1379 31.4814 24.6331 34.2492 28.341C33.1183 29.9046 31.7166 31.2529 30.1104 32.3223C28.6612 33.3081 27.4594 34.6155 26.5988 36.1424C25.7382 37.6693 25.2421 39.3745 25.1492 41.1248ZM25.1492 52.6223C24.9107 52.8619 24.627 53.0518 24.3146 53.1809C24.0022 53.3101 23.6672 53.376 23.3292 53.3748H18.8842C18.5461 53.376 18.2112 53.3101 17.8988 53.1809C17.5863 53.0518 17.3027 52.8619 17.0642 52.6223C16.5866 52.1363 16.3168 51.4836 16.3117 50.8023V50.7498H25.9367V50.8023C25.9384 51.4927 25.668 52.156 25.1842 52.6485L25.1492 52.6223ZM36.9179 32.3748C39.7092 37.0035 39.9192 39.3748 39.2629 40.0835C38.3879 40.9585 34.7217 40.0835 28.8329 35.9623C29.4555 35.1289 30.209 34.402 31.0642 33.8098C32.6759 32.7371 34.1032 31.4103 35.2904 29.881C35.8767 30.686 36.4279 31.4998 36.9179 32.3748ZM35.2467 26.7923C32.5261 23.2035 29.5616 19.8063 26.3742 16.6248C25.0704 15.321 23.7492 14.0698 22.4367 12.8885C25.2102 10.447 28.1775 8.23472 31.3092 6.27353C34.2772 8.67217 36.3007 12.0437 37.0213 15.7911C37.742 19.5386 37.1133 23.4201 35.2467 26.7485V26.7923ZM39.2629 3.77103C39.9629 4.47103 39.5517 6.94728 37.2154 10.9635C36.1638 8.82381 34.6975 6.91434 32.9017 5.34603C36.6554 3.28978 38.6679 3.17603 39.2629 3.77103ZM29.7692 5.17978C26.7284 7.14613 23.8387 9.33681 21.1242 11.7335C18.4126 9.33703 15.5258 7.14636 12.4879 5.17978C15.0675 3.52897 18.066 2.65165 21.1285 2.65165C24.1911 2.65165 27.1896 3.52897 29.7692 5.17978ZM2.99418 3.77103C3.58918 3.17603 5.61918 3.28978 9.34668 5.34603C7.55089 6.91434 6.08459 8.82381 5.03293 10.9635C2.74918 6.94728 2.28543 4.47103 2.99418 3.77103ZM4.93668 18.8385C4.93649 16.4281 5.47636 14.0483 6.5166 11.874C7.55685 9.69959 9.07104 7.78591 10.9479 6.27353C14.0759 8.23862 17.0375 10.4569 19.8029 12.906C18.4992 14.0873 17.1692 15.3385 15.8742 16.6248C12.6937 19.7916 9.73224 23.171 7.01043 26.7398C5.64657 24.3301 4.93199 21.6074 4.93668 18.8385ZM5.37418 32.3748C5.85543 31.5698 6.41543 30.721 7.01043 29.8723C8.20171 31.3894 9.63563 32.6992 11.2542 33.7485C12.1056 34.3319 12.8562 35.05 13.4767 35.8748C7.56168 40.0048 3.90418 40.9498 2.97668 40.0398C2.32918 39.3748 2.54793 36.9598 5.37418 32.3748Z" fill="black"/>
</svg>
