<svg width="76" height="76" viewBox="0 0 76 76" fill="none" xmlns="http://www.w3.org/2000/svg">
<path d="M17.7517 51.2735C18.0544 51.5564 18.4113 51.7751 18.8007 51.9165C19.1902 52.0578 19.6042 52.1189 20.0179 52.096C23.0017 52.096 27.3767 49.471 30.4042 47.3623C30.9895 48.5354 31.3289 49.8158 31.4017 51.1248C31.1696 51.1248 30.9471 51.217 30.783 51.3811C30.6189 51.5452 30.5267 51.7677 30.5267 51.9998V60.8285C30.5546 61.9845 31.0391 63.0824 31.8742 63.8823C32.6735 64.6786 33.7559 65.1254 34.8842 65.1248H39.3642C39.932 65.1275 40.4947 65.0166 41.0191 64.7987C41.5436 64.5808 42.0191 64.2603 42.4179 63.856C43.2241 63.0433 43.6796 61.947 43.6867 60.8023V51.9998C43.6882 51.7848 43.6106 51.5768 43.4686 51.4154C43.3266 51.254 43.1301 51.1506 42.9167 51.1248C42.9892 49.814 43.3255 48.5313 43.9054 47.3535C46.9417 49.4535 51.2642 52.0435 54.2304 52.0435C54.6441 52.0664 55.0582 52.0053 55.4476 51.864C55.8371 51.7226 56.1939 51.5039 56.4967 51.221C58.5879 49.1298 56.4967 44.0548 52.3667 38.236C53.7776 35.9701 54.6618 33.4163 54.954 30.763C55.2463 28.1098 54.9392 25.4248 54.0554 22.906C56.3742 19.266 58.5529 14.5848 56.4967 12.5285C54.9829 11.0148 51.9292 11.5748 47.4142 14.1735C44.4071 12.0441 40.8133 10.9004 37.1285 10.9004C33.4438 10.9004 29.85 12.0441 26.8429 14.1735C22.3192 11.5485 19.2654 11.0148 17.7517 12.5285C15.6954 14.5848 17.8917 19.266 20.2017 22.9585C19.3122 25.4759 19.0013 28.1613 19.2921 30.8153C19.583 33.4692 20.4681 36.0236 21.8817 38.2885C17.7604 44.1248 15.6604 49.1823 17.7517 51.2735ZM32.3117 52.8748H41.9367V55.0623H32.3117V52.8748ZM36.5467 51.1248L34.4992 40.9135L34.9804 40.3885L36.3367 42.8298C36.4182 42.964 36.5343 43.0738 36.6729 43.1477C36.8114 43.2216 36.9673 43.2569 37.1242 43.2498C37.2807 43.2511 37.4347 43.2104 37.5701 43.1319C37.7056 43.0534 37.8175 42.94 37.8942 42.8035L39.2592 40.3448L39.7317 40.8698L37.7017 51.1248H36.5467ZM32.3117 56.8123H41.9367V58.9998H32.3117V56.8123ZM41.1492 51.1248H39.4867L41.4992 40.8173L41.8404 39.0673C41.8628 38.9524 41.8624 38.8342 41.8391 38.7194C41.8158 38.6047 41.7702 38.4957 41.7048 38.3986C41.6394 38.3015 41.5555 38.2182 41.4579 38.1536C41.3603 38.0889 41.251 38.0441 41.136 38.0217C41.0211 37.9993 40.903 37.9997 40.7882 38.023C40.6735 38.0462 40.5645 38.0919 40.4674 38.1573C40.3703 38.2227 40.287 38.3066 40.2223 38.4042C40.1577 38.5018 40.1128 38.6111 40.0904 38.726L39.7492 38.2973C39.6544 38.1984 39.5377 38.1231 39.4086 38.0775C39.2794 38.0319 39.1413 38.0173 39.0054 38.0348C38.8686 38.0522 38.7378 38.1017 38.6238 38.1792C38.5098 38.2568 38.4157 38.3602 38.3492 38.481L37.1242 40.6248L35.9429 38.4985C35.8756 38.3766 35.7801 38.2725 35.6645 38.1949C35.5488 38.1172 35.4163 38.0684 35.2779 38.0523C35.1407 38.0369 35.0017 38.0543 34.8724 38.103C34.7432 38.1516 34.6272 38.2302 34.5342 38.3323L34.1054 38.8048V38.7523C34.061 38.5251 33.9282 38.3247 33.7364 38.1952C33.5445 38.0656 33.3091 38.0174 33.0817 38.061C32.9683 38.083 32.8603 38.1272 32.7641 38.1911C32.6679 38.255 32.5852 38.3373 32.521 38.4333C32.4567 38.5293 32.4121 38.637 32.3897 38.7504C32.3673 38.8637 32.3675 38.9803 32.3904 39.0935L34.7617 51.1248H33.1779C33.0933 49.3552 32.5988 47.6294 31.7333 46.0836C30.8677 44.5378 29.6549 43.2143 28.1904 42.2173C26.5692 41.1873 25.149 39.8709 23.9992 38.3323C26.77 34.627 29.8147 31.1347 33.1079 27.8848C34.4379 26.546 35.7854 25.2598 37.1242 24.0698C38.4629 25.2773 39.8104 26.546 41.1492 27.8848C44.4396 31.1379 47.4814 34.6331 50.2492 38.341C49.1183 39.9046 47.7166 41.2529 46.1104 42.3223C44.6612 43.3081 43.4594 44.6155 42.5988 46.1424C41.7382 47.6693 41.2421 49.3745 41.1492 51.1248ZM41.1492 62.6223C40.9107 62.8619 40.627 63.0518 40.3146 63.1809C40.0022 63.3101 39.6672 63.376 39.3292 63.3748H34.8842C34.5461 63.376 34.2112 63.3101 33.8988 63.1809C33.5863 63.0518 33.3027 62.8619 33.0642 62.6223C32.5866 62.1363 32.3168 61.4836 32.3117 60.8023V60.7498H41.9367V60.8023C41.9384 61.4927 41.668 62.156 41.1842 62.6485L41.1492 62.6223ZM52.9179 42.3748C55.7092 47.0035 55.9192 49.3748 55.2629 50.0835C54.3879 50.9585 50.7217 50.0835 44.8329 45.9623C45.4555 45.1289 46.209 44.402 47.0642 43.8098C48.6759 42.7371 50.1032 41.4103 51.2904 39.881C51.8767 40.686 52.4279 41.4998 52.9179 42.3748ZM51.2467 36.7923C48.5261 33.2035 45.5616 29.8063 42.3742 26.6248C41.0704 25.321 39.7492 24.0698 38.4367 22.8885C41.2102 20.447 44.1775 18.2347 47.3092 16.2735C50.2772 18.6722 52.3007 22.0437 53.0213 25.7911C53.742 29.5386 53.1133 33.4201 51.2467 36.7485V36.7923ZM55.2629 13.771C55.9629 14.471 55.5517 16.9473 53.2154 20.9635C52.1638 18.8238 50.6975 16.9143 48.9017 15.346C52.6554 13.2898 54.6679 13.176 55.2629 13.771ZM45.7692 15.1798C42.7284 17.1461 39.8387 19.3368 37.1242 21.7335C34.4126 19.337 31.5258 17.1464 28.4879 15.1798C31.0675 13.529 34.066 12.6517 37.1285 12.6517C40.1911 12.6517 43.1896 13.529 45.7692 15.1798ZM18.9942 13.771C19.5892 13.176 21.6192 13.2898 25.3467 15.346C23.5509 16.9143 22.0846 18.8238 21.0329 20.9635C18.7492 16.9473 18.2854 14.471 18.9942 13.771ZM20.9367 28.8385C20.9365 26.4281 21.4764 24.0483 22.5166 21.874C23.5568 19.6996 25.071 17.7859 26.9479 16.2735C30.0759 18.2386 33.0375 20.4569 35.8029 22.906C34.4992 24.0873 33.1692 25.3385 31.8742 26.6248C28.6937 29.7916 25.7322 33.171 23.0104 36.7398C21.6466 34.3301 20.932 31.6074 20.9367 28.8385ZM21.3742 42.3748C21.8554 41.5698 22.4154 40.721 23.0104 39.8723C24.2017 41.3894 25.6356 42.6992 27.2542 43.7485C28.1056 44.3319 28.8562 45.05 29.4767 45.8748C23.5617 50.0048 19.9042 50.9498 18.9767 50.0398C18.3292 49.3748 18.5479 46.9598 21.3742 42.3748Z" fill="#0053CF"/>
<path d="M36.9238 29.25C36.2316 29.25 35.5549 29.4553 34.9793 29.8399C34.4038 30.2244 33.9552 30.7711 33.6903 31.4106C33.4253 32.0501 33.356 32.7539 33.4911 33.4328C33.6261 34.1117 33.9595 34.7354 34.449 35.2249C34.9384 35.7144 35.5621 36.0477 36.241 36.1827C36.9199 36.3178 37.6237 36.2485 38.2632 35.9836C38.9028 35.7187 39.4494 35.2701 39.834 34.6945C40.2186 34.1189 40.4238 33.4422 40.4238 32.75C40.4238 31.8217 40.0551 30.9315 39.3987 30.2751C38.7423 29.6187 37.8521 29.25 36.9238 29.25ZM36.9238 34.5C36.5777 34.5 36.2394 34.3974 35.9516 34.2051C35.6638 34.0128 35.4395 33.7395 35.307 33.4197C35.1746 33.0999 35.1399 32.7481 35.2075 32.4086C35.275 32.0691 35.4417 31.7573 35.6864 31.5126C35.9311 31.2678 36.243 31.1011 36.5824 31.0336C36.9219 30.9661 37.2738 31.0008 37.5935 31.1332C37.9133 31.2657 38.1866 31.49 38.3789 31.7778C38.5712 32.0655 38.6738 32.4039 38.6738 32.75C38.6738 33.2141 38.4895 33.6592 38.1613 33.9874C37.8331 34.3156 37.388 34.5 36.9238 34.5Z" fill="#0053CF"/>
</svg>
