<svg width="48" height="48" viewBox="0 0 48 48" fill="none" xmlns="http://www.w3.org/2000/svg">
<g clip-path="url(#clip0_196_256)">
<path d="M35.2794 0.763804C30.5344 0.514414 26.4684 3.68434 24.0009 7.01759C21.5337 3.68434 17.4662 0.519177 12.7223 0.763804C5.76135 1.12672 0.175168 6.95388 0.00451293 14.0305C-0.096768 17.313 0.994629 20.5209 3.07666 23.0606L22.2855 45.7059C22.4967 45.9549 22.7595 46.1549 23.0557 46.292C23.3519 46.4292 23.6744 46.5003 24.0009 46.5003C24.3273 46.5003 24.6498 46.4292 24.946 46.292C25.2422 46.1549 25.505 45.9549 25.7162 45.7059L30.5033 40.0615C30.0104 39.8977 29.5395 39.674 29.1012 39.3953L24.5721 44.7355C24.5003 44.816 24.4123 44.8804 24.3139 44.9246C24.2154 44.9687 24.1087 44.9915 24.0009 44.9915C23.893 44.9915 23.7863 44.9687 23.6878 44.9246C23.5894 44.8804 23.5014 44.816 23.4296 44.7355L4.2207 22.0901C2.37486 19.8319 1.40966 16.9815 1.50378 14.0664C1.65576 7.76942 6.61792 2.58387 12.8007 2.26161C12.9493 2.25392 13.0973 2.25013 13.2445 2.25026C17.5878 2.25026 21.3041 5.56117 23.3721 8.74024C23.4402 8.84492 23.5334 8.93093 23.6432 8.99047C23.753 9.05001 23.8759 9.08119 24.0009 9.08119C24.1258 9.08119 24.2487 9.05001 24.3585 8.99047C24.4683 8.93093 24.5615 8.84492 24.6296 8.74024C26.7676 5.45351 30.678 2.02577 35.201 2.26161C41.3838 2.58387 46.3459 7.76942 46.4979 14.0668C46.543 15.9484 46.0544 17.879 45.0049 19.9694C44.4062 21.1371 43.6714 22.2298 42.8157 23.2246L41.1052 25.2414L41.3955 25.6654C41.4014 25.6731 41.4069 25.6812 41.4123 25.6892C41.606 25.9733 41.7834 26.268 41.9437 26.5721L43.9597 24.1951C44.8925 23.1094 45.6933 21.9168 46.3452 20.6425C47.5083 18.3273 48.0485 16.1644 47.9972 14.0309C47.8265 6.95424 42.2404 1.12672 35.2794 0.763804Z" fill="black"/>
<path d="M40.9916 32.2807C41.0495 32.1595 41.1024 32.0362 41.1502 31.9109C41.7372 30.3687 41.3545 28.259 40.175 26.536C40.1717 26.5316 40.1688 26.5268 40.1655 26.5224L35.9339 20.343C35.6171 19.9265 35.1527 19.6475 34.6362 19.5635C34.1198 19.4795 33.5908 19.5969 33.1584 19.8914L32.6208 20.2338C32.3298 20.4191 32.0887 20.6729 31.9184 20.9729L26.7028 15.947C26.3052 15.5776 25.7827 15.372 25.24 15.3715C24.6973 15.371 24.1744 15.5755 23.7761 15.9441L23.3209 16.3835C23.1461 16.5491 22.9968 16.7397 22.8777 16.9489L22.8616 16.9332C22.502 16.58 22.0172 16.3835 21.5132 16.3867C21.0092 16.3899 20.5269 16.5924 20.1718 16.95L19.7283 17.3781C18.3473 18.6581 18.9827 19.6772 19.487 20.2664C19.3861 20.34 19.2906 20.4205 19.201 20.5074L18.7454 20.9469C18.5495 21.1353 18.3933 21.3611 18.2861 21.611C18.1789 21.8608 18.1229 22.1296 18.1214 22.4015C18.1202 22.6513 18.1691 22.8989 18.2652 23.1296C18.3613 23.3602 18.5027 23.5693 18.681 23.7444L19.1486 24.1952C19.0571 24.2622 18.9702 24.3353 18.8886 24.4142L18.5037 24.7859C18.342 24.9436 18.214 25.1325 18.1275 25.3412C18.0411 25.5499 17.998 25.774 18.0009 25.9999C18.004 26.2764 18.0626 26.5496 18.173 26.8032C18.2835 27.0568 18.4436 27.2857 18.644 27.4764L28.5463 37.0191C29.8379 38.2844 31.483 39.5266 34.7038 38.4499L35.4443 39.1644C35.5151 39.2329 35.5988 39.2868 35.6905 39.3229C35.7822 39.3591 35.8801 39.3768 35.9787 39.3751C36.0772 39.3734 36.1745 39.3523 36.2649 39.3129C36.3552 39.2736 36.437 39.2169 36.5054 39.1459C36.5739 39.075 36.6276 38.9913 36.6637 38.8995C36.6997 38.8078 36.7174 38.7098 36.7155 38.6113C36.7137 38.5127 36.6925 38.4155 36.6531 38.3252C36.6136 38.2348 36.5568 38.1532 36.4858 38.0848L35.4098 37.047C35.307 36.9481 35.1782 36.8805 35.0384 36.8521C34.8986 36.8237 34.7536 36.8356 34.6203 36.8866C31.9147 37.9259 30.7879 37.1151 29.5911 35.9432L19.6847 26.3961C19.5747 26.2923 19.5089 26.1501 19.5009 25.9991C19.4981 25.9749 19.5006 25.9503 19.5083 25.9271C19.5161 25.904 19.5288 25.8828 19.5456 25.8651L19.9301 25.4934C20.1319 25.2993 20.2667 25.2769 20.43 25.43L20.4461 25.4454L20.4494 25.4487L24.551 29.4045C24.6945 29.5419 24.8867 29.6168 25.0854 29.6128C25.2841 29.6088 25.4731 29.5263 25.611 29.3833C25.749 29.2402 25.8246 29.0483 25.8214 28.8496C25.8182 28.6509 25.7364 28.4616 25.5939 28.3231L21.492 24.3702C21.4795 24.3578 21.4671 24.3457 21.4543 24.3336L19.7217 22.664C19.6883 22.6289 19.6623 22.5876 19.645 22.5423C19.6278 22.497 19.6198 22.4488 19.6214 22.4004C19.6221 22.3301 19.6371 22.2606 19.6655 22.1963C19.694 22.132 19.7353 22.0742 19.7869 22.0265L20.2425 21.587C20.4508 21.386 20.586 21.372 20.5984 21.3779C22.109 22.842 25.0567 25.6853 26.2901 26.8674L26.8127 27.3713C26.9357 27.4877 27.0936 27.5605 27.262 27.5782C27.4195 27.5936 27.5778 27.559 27.7144 27.4792C27.851 27.3994 27.959 27.2785 28.023 27.1338C28.0869 26.9891 28.1036 26.8279 28.0706 26.6731C28.0375 26.5184 27.9566 26.378 27.8391 26.2719C27.8025 26.239 27.648 26.0914 27.4081 25.8614L21.6359 20.2946C21.6275 20.2866 21.6194 20.2789 21.611 20.2712C21.1441 19.8197 20.8325 19.5164 20.7812 19.4644C20.278 18.9137 20.278 18.9137 20.7588 18.4676L21.2133 18.0293C21.2504 17.9856 21.2963 17.9502 21.348 17.9254C21.3997 17.9006 21.456 17.887 21.5133 17.8855C21.5706 17.884 21.6276 17.8946 21.6805 17.9166C21.7334 17.9386 21.7811 17.9715 21.8205 18.0131L29.2275 25.1554C29.3706 25.2935 29.5628 25.3691 29.7617 25.3655C29.9606 25.3619 30.1499 25.2795 30.288 25.1363C30.4261 24.9931 30.5017 24.801 30.4981 24.6021C30.4946 24.4032 30.4121 24.2139 30.269 24.0758L24.3627 18.3797C24.2241 18.2593 24.1379 18.0896 24.1225 17.9066C24.1307 17.8204 24.1561 17.7367 24.1973 17.6606C24.2384 17.5844 24.2944 17.5172 24.362 17.4631L24.8176 17.0236C24.937 16.9264 25.0864 16.8736 25.2404 16.8742C25.3944 16.8748 25.5434 16.9288 25.6621 17.0269L32.2363 23.362L34.0981 26.0808C34.1537 26.1621 34.2248 26.2316 34.3073 26.2855C34.3898 26.3393 34.4821 26.3763 34.5789 26.3945C34.6757 26.4126 34.7751 26.4116 34.8715 26.3913C34.9679 26.371 35.0594 26.332 35.1407 26.2763C35.222 26.2207 35.2915 26.1496 35.3454 26.0671C35.3992 25.9846 35.4362 25.8923 35.4544 25.7955C35.4725 25.6987 35.4715 25.5993 35.4512 25.5029C35.4309 25.4065 35.3919 25.315 35.3362 25.2337L33.4422 22.4626C33.429 22.4436 33.4151 22.4253 33.4004 22.4073L33.2093 22.1286C33.1604 22.0483 33.1453 21.952 33.1672 21.8606C33.1841 21.786 33.2158 21.7156 33.2603 21.6535C33.3049 21.5914 33.3613 21.5388 33.4264 21.4987L33.964 21.1567C34.0695 21.0728 34.2018 21.0299 34.3364 21.0361C34.471 21.0423 34.5988 21.0971 34.6961 21.1904L38.9365 27.3827L38.9456 27.3958C39.8355 28.7025 40.1581 30.3006 39.7484 31.3769C39.6615 31.6052 39.5505 31.8236 39.4173 32.0284C39.3203 32.1779 39.2796 32.3571 39.3027 32.5339C39.3258 32.7107 39.4111 32.8734 39.5433 32.993L40.7477 34.0829C40.8953 34.2163 41.0898 34.2857 41.2885 34.2757C41.4871 34.2658 41.6737 34.1773 41.8072 34.0298C41.9406 33.8822 42.01 33.6877 42.0001 33.489C41.9901 33.2903 41.9016 33.1038 41.7541 32.9703L40.9916 32.2807ZM16.8961 15.3515C17.0518 15.3516 17.2037 15.3031 17.3307 15.2128C17.4576 15.1226 17.5534 14.9951 17.6045 14.8479C17.6557 14.7008 17.6598 14.5414 17.6162 14.3919C17.5727 14.2423 17.4837 14.11 17.3615 14.0134L15.6974 12.6976C15.5413 12.5756 15.3433 12.5203 15.1466 12.5438C14.9498 12.5674 14.7704 12.6678 14.6475 12.8232C14.5246 12.9787 14.4682 13.1764 14.4907 13.3733C14.5131 13.5701 14.6126 13.7501 14.7673 13.8739L16.4313 15.1897C16.5635 15.2947 16.7273 15.3517 16.8961 15.3515ZM20.4025 13.0543C20.432 13.0544 20.4615 13.0527 20.4908 13.0492C20.5886 13.0377 20.6832 13.0071 20.7692 12.9591C20.8552 12.9111 20.9309 12.8466 20.992 12.7694C21.053 12.6921 21.0983 12.6036 21.1252 12.5088C21.152 12.4141 21.1599 12.315 21.1485 12.2171L20.8874 9.98213C20.8759 9.88432 20.8453 9.78971 20.7973 9.70372C20.7493 9.61773 20.6848 9.54203 20.6076 9.48096C20.5303 9.41988 20.4418 9.37462 20.347 9.34776C20.2523 9.3209 20.1532 9.31297 20.0554 9.32442C19.9575 9.33586 19.8629 9.36646 19.7769 9.41447C19.6909 9.46248 19.6153 9.52695 19.5542 9.60422C19.4308 9.76025 19.3745 9.9589 19.3976 10.1564L19.6587 12.3914C19.6801 12.5738 19.7676 12.742 19.9047 12.8642C20.0418 12.9863 20.2189 13.054 20.4025 13.0543ZM15.3818 17.7989L13.1471 18.06C12.9572 18.0823 12.7829 18.1762 12.66 18.3227C12.537 18.4692 12.4746 18.6571 12.4856 18.848C12.4966 19.039 12.5801 19.2185 12.7191 19.3499C12.858 19.4813 13.042 19.5546 13.2332 19.5549C13.2627 19.555 13.2922 19.5533 13.3215 19.5498L15.5561 19.2887C15.7536 19.2656 15.9339 19.1649 16.0573 19.0089C16.1806 18.8528 16.2369 18.6542 16.2138 18.4566C16.1907 18.2591 16.09 18.0788 15.934 17.9555C15.778 17.8321 15.5793 17.7758 15.3818 17.7989Z" fill="black"/>
</g>
<defs>
<clipPath id="clip0_196_256">
<rect width="48" height="48" fill="white"/>
</clipPath>
</defs>
</svg>
