<svg width="140" height="140" viewBox="0 0 140 140" fill="none" xmlns="http://www.w3.org/2000/svg">
<rect width="140" height="140" rx="10" fill="#D5F8EF"/>
<g clip-path="url(#clip0_346_171)">
<path d="M81.9077 20.1517C81.3327 20.0834 80.746 20.0367 80.166 20C79.7155 19.9755 79.2646 20.0431 78.8411 20.1987C78.4176 20.3543 78.0302 20.5946 77.7027 20.905C77.3748 21.2188 77.1139 21.5957 76.9357 22.013C76.7575 22.4304 76.6658 22.8796 76.666 23.3334V31.97C76.6649 32.3851 76.7721 32.7932 76.9771 33.1541C77.1821 33.515 77.4778 33.816 77.835 34.0275C78.1921 34.239 78.5982 34.3535 79.0132 34.3598C79.4282 34.3661 79.8377 34.2639 80.201 34.0634C81.1665 33.5594 82.2439 33.3083 83.3327 33.3334C83.8163 33.3391 84.293 33.4487 84.7306 33.6548C85.1681 33.8609 85.5562 34.1586 85.8685 34.5279C86.1809 34.8971 86.4102 35.3292 86.5409 35.7949C86.6716 36.2605 86.7006 36.7488 86.626 37.2267C86.4432 38.0822 85.9477 38.8387 85.2366 39.3482C84.5255 39.8577 83.6499 40.0836 82.781 39.9817C81.8757 39.9248 80.9917 39.682 80.1844 39.2684C79.8246 39.0682 79.4184 38.9663 79.0067 38.9731C78.595 38.9798 78.1924 39.0949 77.8394 39.3067C77.4838 39.5199 77.1894 39.8215 76.985 40.1822C76.7805 40.5429 76.6729 40.9504 76.6727 41.365V50C76.6727 50.8841 77.0239 51.7319 77.649 52.3571C78.2741 52.9822 79.122 53.3334 80.006 53.3334H87.1977C86.8405 54.4082 86.661 55.5341 86.666 56.6667C86.6881 58.4302 87.3994 60.1151 88.6478 61.361C89.8961 62.6069 91.5824 63.3148 93.346 63.3334C94.2888 63.3344 95.221 63.1354 96.0812 62.7496C96.9414 62.3638 97.71 61.7999 98.3362 61.0952C98.9625 60.3906 99.4321 59.5611 99.7142 58.6615C99.9963 57.762 100.084 56.8128 99.9727 55.8767C99.9142 55.0112 99.7462 54.1566 99.4727 53.3334H106.666C107.119 53.334 107.567 53.2423 107.983 53.064C108.4 52.8856 108.775 52.6243 109.087 52.296C109.399 51.9677 109.641 51.5793 109.798 51.1545C109.955 50.7296 110.023 50.2773 109.999 49.825C109.984 49.55 109.968 49.2734 109.944 48.98C109.328 41.6731 106.197 34.8059 101.084 29.5491C95.972 24.2923 89.1947 20.9711 81.9077 20.1517ZM98.0327 50C97.6168 50.001 97.2084 50.11 96.8473 50.3163C96.4862 50.5225 96.1848 50.819 95.9727 51.1767C95.7632 51.5261 95.6488 51.9242 95.6409 52.3315C95.633 52.7388 95.7319 53.1411 95.9277 53.4984C96.3473 54.3122 96.5931 55.2044 96.6494 56.1184C96.7553 56.9863 96.5309 57.8623 96.0209 58.5724C95.5108 59.2826 94.7523 59.7749 93.896 59.9517C93.4186 60.0267 92.9306 59.9983 92.4652 59.8683C91.9997 59.7383 91.5676 59.5099 91.1981 59.1984C90.8286 58.8869 90.5303 58.4996 90.3235 58.0628C90.1167 57.6261 90.0062 57.1499 89.9994 56.6667C89.972 55.5799 90.2215 54.5039 90.7244 53.54C90.925 53.1765 91.0274 52.7669 91.0213 52.3517C91.0152 51.9365 90.9009 51.5301 90.6896 51.1726C90.4784 50.8151 90.1776 50.5189 89.8168 50.3133C89.4561 50.1076 89.0479 49.9997 88.6327 50H79.9994V42.805C80.822 43.0786 81.6761 43.2466 82.541 43.305C84.2451 43.4843 85.9538 43.0107 87.3224 41.9798C88.6911 40.9489 89.6179 39.4374 89.916 37.75C90.0733 36.7953 90.0208 35.8178 89.7623 34.8854C89.5037 33.953 89.0453 33.0881 88.4189 32.3506C87.7925 31.6132 87.0131 31.021 86.1347 30.615C85.2564 30.2091 84.3003 29.9993 83.3327 30C82.2003 29.9928 81.0744 30.1707 79.9994 30.5267V23.3334C80.4994 23.3617 81.0144 23.4034 81.541 23.4634C88.0324 24.2604 94.0572 27.2497 98.6185 31.9368C103.18 36.6238 106.004 42.7277 106.624 49.2384C106.641 49.49 106.659 49.7384 106.668 49.9984L98.0327 50Z" fill="#19D4A4"/>
<path d="M90.2999 66.6662H81.3666C80.9507 66.6672 80.5423 66.7762 80.1812 66.9824C79.8201 67.1887 79.5187 67.4852 79.3066 67.8429C79.0973 68.19 78.9826 68.586 78.9738 68.9912C78.9651 69.3965 79.0625 69.797 79.2566 70.1529C79.6794 70.97 79.9269 71.8663 79.9833 72.7845C80.0888 73.6524 79.8643 74.5282 79.3543 75.2382C78.8443 75.9483 78.086 76.4407 77.2299 76.6179C76.7527 76.6915 76.2653 76.662 75.8004 76.5315C75.3355 76.401 74.904 76.1725 74.5348 75.8612C74.1656 75.55 73.8674 75.1633 73.6601 74.7272C73.4529 74.2911 73.3414 73.8157 73.3333 73.3329C73.307 72.2456 73.5565 71.1694 74.0583 70.2045C74.2596 69.8412 74.3624 69.4316 74.3566 69.0162C74.3508 68.6009 74.2365 68.1943 74.0252 67.8367C73.8138 67.4791 73.5126 67.183 73.1515 66.9777C72.7905 66.7724 72.382 66.665 71.9666 66.6662H63.3333V59.4696C64.1554 59.7429 65.0089 59.9109 65.8733 59.9696C67.2067 60.1267 68.5565 59.8785 69.7467 59.2573C70.937 58.6361 71.9125 57.6707 72.5461 56.4869C73.1797 55.3032 73.442 53.9561 73.2988 52.6211C73.1556 51.2861 72.6135 50.0253 71.7433 49.0029C71.1166 48.2692 70.3381 47.6803 69.4616 47.2769C68.5851 46.8735 67.6315 46.6651 66.6666 46.6662C65.5343 46.659 64.4085 46.8363 63.3333 47.1912V39.7012C63.3323 39.2936 63.249 38.8904 63.0884 38.5157C62.9277 38.1411 62.693 37.8028 62.3983 37.5212C62.1089 37.2456 61.7671 37.0309 61.3932 36.8897C61.0193 36.7486 60.6209 36.6839 60.2216 36.6996C54.1696 36.9779 48.3245 38.9864 43.3797 42.4869C38.435 45.9874 34.5982 50.8328 32.3245 56.4484C30.0508 62.0639 29.4357 68.2138 30.5521 74.1684C31.6686 80.123 34.4697 85.6324 38.6233 90.0429C41.0044 92.5411 42.5772 95.699 43.1366 99.1046C43.2992 100.133 43.7753 101.086 44.4999 101.833C43.9766 102.455 43.6147 103.196 43.4465 103.992C43.2783 104.787 43.3088 105.612 43.5355 106.392C43.7621 107.173 44.1779 107.886 44.7459 108.467C45.3138 109.049 46.0165 109.481 46.7916 109.726C47.6766 115.5 53.9999 120 61.6666 120C69.3333 120 75.6566 115.5 76.5483 109.73C77.3241 109.485 78.0275 109.053 78.5961 108.471C79.1647 107.889 79.5809 107.176 79.8078 106.395C80.0347 105.614 80.0652 104.789 79.8966 103.993C79.7281 103.197 79.3657 102.455 78.8416 101.833C79.5612 101.093 80.0339 100.148 80.1949 99.1279C80.7867 95.6652 82.3962 92.4573 84.8183 89.9129C89.9507 84.4239 92.958 77.2848 93.2999 69.7779C93.3196 69.3783 93.2569 68.9789 93.1159 68.6044C92.9748 68.23 92.7584 67.8885 92.4799 67.6012C92.1983 67.3065 91.86 67.0718 91.4854 66.9111C91.1108 66.7505 90.7076 66.6671 90.2999 66.6662ZM59.9999 40.0479V48.6329C59.9988 49.0479 60.106 49.4561 60.311 49.8169C60.516 50.1778 60.8117 50.4789 61.1689 50.6904C61.526 50.9018 61.9321 51.0164 62.3471 51.0227C62.7621 51.029 63.1716 50.9268 63.5349 50.7262C64.5007 50.2234 65.5781 49.9734 66.6666 49.9996C67.1525 49.9984 67.6328 50.1036 68.0738 50.3076C68.5148 50.5116 68.9059 50.8096 69.2197 51.1807C69.5334 51.5517 69.7622 51.9869 69.8901 52.4557C70.018 52.9245 70.0418 53.4156 69.9599 53.8946C69.7799 54.7515 69.2851 55.5099 68.5733 56.0199C67.8614 56.5299 66.9843 56.7546 66.1149 56.6496C65.2109 56.5948 64.328 56.3536 63.5216 55.9412C63.1627 55.739 62.7567 55.6355 62.3448 55.641C61.933 55.6466 61.5299 55.7611 61.1766 55.9729C60.8189 56.185 60.5224 56.4864 60.3162 56.8475C60.1099 57.2086 60.0009 57.617 59.9999 58.0329V66.6662H52.8033C53.0848 65.8212 53.2562 64.9434 53.3133 64.0546C53.463 62.3687 52.98 60.6875 51.9585 59.3382C50.9369 57.9888 49.4498 57.0679 47.7866 56.7546C46.8296 56.5915 45.8485 56.6393 44.9119 56.8949C43.9753 57.1504 43.1059 57.6074 42.3643 58.2339C41.6227 58.8604 41.0269 59.6413 40.6185 60.522C40.2101 61.4028 39.999 62.3621 39.9999 63.3329C39.9927 64.4651 40.17 65.591 40.5249 66.6662H33.4133C33.8012 59.7382 36.7259 53.1954 41.6295 48.286C46.5331 43.3765 53.0724 40.444 59.9999 40.0479ZM41.0466 87.7546C36.4848 82.9235 33.7801 76.6338 33.4116 69.9995H41.9666C42.3816 70.0007 42.7898 69.8935 43.1507 69.6885C43.5115 69.4834 43.8126 69.1877 44.0241 68.8306C44.2355 68.4735 44.3501 68.0673 44.3564 67.6524C44.3627 67.2374 44.2605 66.8279 44.0599 66.4646C43.5569 65.4989 43.3069 64.4214 43.3333 63.3329C43.3423 62.8488 43.4548 62.3723 43.6633 61.9353C43.8717 61.4983 44.1713 61.111 44.5418 60.7994C44.9123 60.4878 45.3452 60.259 45.8115 60.1285C46.2777 59.998 46.7665 59.9688 47.2449 60.0429C48.0889 60.2252 48.8358 60.713 49.3419 61.4126C49.848 62.1122 50.0776 62.9742 49.9866 63.8329C49.9337 64.7525 49.6914 65.6513 49.2749 66.4729C49.0728 66.8318 48.9692 67.2378 48.9747 67.6497C48.9803 68.0615 49.0948 68.4646 49.3066 68.8179C49.5181 69.1765 49.8192 69.474 50.1803 69.6812C50.5415 69.8883 50.9503 69.998 51.3666 69.9995H59.9999V77.1912C58.9247 76.8363 57.7988 76.659 56.6666 76.6662C55.6958 76.6655 54.7365 76.8768 53.8558 77.2854C52.9751 77.694 52.1943 78.29 51.568 79.0317C50.9416 79.7735 50.4848 80.6431 50.2295 81.5798C49.9742 82.5164 49.9266 83.4976 50.0899 84.4546C50.4054 86.1175 51.3277 87.6038 52.6777 88.6248C54.0276 89.6459 55.7089 90.1287 57.3949 89.9795C58.2817 89.9222 59.1573 89.7503 59.9999 89.4679V99.9996H47.9499C47.5674 99.9889 47.2019 99.8391 46.9218 99.5784C46.6417 99.3176 46.4662 98.9637 46.4283 98.5829C45.7654 94.514 43.8897 90.7399 41.0466 87.7546ZM61.6666 116.666C56.0333 116.666 51.3199 113.798 50.2349 110H73.0983C72.0133 113.798 67.2999 116.666 61.6666 116.666ZM74.9999 106.666H48.3333C47.8912 106.666 47.4673 106.491 47.1548 106.178C46.8422 105.866 46.6666 105.442 46.6666 105C46.6666 104.558 46.8422 104.134 47.1548 103.821C47.4673 103.508 47.8912 103.333 48.3333 103.333H74.9999C75.442 103.333 75.8659 103.508 76.1784 103.821C76.491 104.134 76.6666 104.558 76.6666 105C76.6666 105.442 76.491 105.866 76.1784 106.178C75.8659 106.491 75.442 106.666 74.9999 106.666ZM82.3833 87.6446C79.5089 90.6741 77.6012 94.4905 76.9033 98.6079C76.858 98.9832 76.6799 99.33 76.401 99.5853C76.1222 99.8406 75.7611 99.9875 75.3833 99.9996H63.3333V88.0329C63.3323 87.617 63.2233 87.2086 63.017 86.8475C62.8108 86.4864 62.5143 86.185 62.1566 85.9729C61.8094 85.7636 61.4135 85.6489 61.0083 85.6401C60.603 85.6313 60.2025 85.7288 59.8466 85.9229C59.0179 86.3483 58.1098 86.5969 57.1799 86.6529C56.3196 86.747 55.455 86.519 54.7529 86.013C54.0508 85.507 53.5611 84.7588 53.3783 83.9129C53.3037 83.4344 53.3325 82.9455 53.4626 82.4791C53.5928 82.0126 53.8213 81.5794 54.1328 81.2087C54.4444 80.838 54.8317 80.5382 55.2687 80.3296C55.7058 80.1211 56.1824 80.0085 56.6666 79.9995C57.7538 79.9733 58.83 80.2227 59.7949 80.7246C60.1583 80.9259 60.5679 81.0287 60.9832 81.0229C61.3986 81.0171 61.8052 80.9028 62.1628 80.6915C62.5203 80.4801 62.8165 80.1789 63.0218 79.8178C63.2271 79.4567 63.3345 79.0483 63.3333 78.6329V69.9995H70.5249C70.17 71.0748 69.9927 72.2006 69.9999 73.3329C70.0002 74.2428 70.1865 75.1431 70.5473 75.9785C70.9081 76.8138 71.4359 77.5666 72.0982 78.1906C72.7606 78.8146 73.5434 79.2966 74.3988 79.607C75.2541 79.9174 76.1639 80.0498 77.0723 79.9958C77.9806 79.9419 78.8684 79.7029 79.681 79.2934C80.4936 78.8839 81.214 78.3127 81.7978 77.6147C82.3816 76.9168 82.8166 76.1068 83.0761 75.2347C83.3356 74.3625 83.414 73.4465 83.3066 72.5429C83.2489 71.6773 83.0809 70.8226 82.8066 69.9995H89.9566C89.5677 76.5846 86.8887 82.8264 82.3833 87.6446Z" fill="#19D4A4"/>
</g>
<defs>
<clipPath id="clip0_346_171">
<rect width="100" height="100" fill="white" transform="translate(20 20)"/>
</clipPath>
</defs>
</svg>
