<svg width="65" height="65" viewBox="0 0 65 65" fill="none" xmlns="http://www.w3.org/2000/svg">
<path d="M28 9H8V11H28V9Z" fill="#622DFA"/>
<path d="M26 15H10V16H26V15Z" fill="#622DFA"/>
<path d="M28 20H8V22H28V20Z" fill="#622DFA"/>
<path d="M26 26H10V27H26V26Z" fill="#622DFA"/>
<path d="M28 31H8V33H28V31Z" fill="#622DFA"/>
<path d="M26 37H10V38H26V37Z" fill="#622DFA"/>
<path d="M57 9H37V11H57V9Z" fill="#622DFA"/>
<path d="M55 15H39V16H55V15Z" fill="#622DFA"/>
<path d="M57 20H37V22H57V20Z" fill="#622DFA"/>
<path d="M61.471 4H37.9137C35.5673 4 33.5964 5.31683 32.564 7.19802C31.5316 5.31683 29.5607 4 27.2143 4H3.65698C3.28156 4 3 4.28218 3 4.65842C3 14.9109 3 39.2723 3 48.4901C3 48.8663 3.28156 49.1485 3.65698 49.1485H28.9037C30.4992 49.1485 31.8132 50.4653 31.8132 52.0644C31.8132 52.2525 31.907 52.4406 32.0009 52.5347C32.0947 52.6287 32.2824 52.7228 32.4701 52.7228C32.8455 52.7228 33.1271 52.4406 33.1271 52.0644V51.9703C33.1271 50.3713 34.4411 49.0545 36.1304 49.0545H44.2019V50.0891L43.451 57.1436C43.3572 58.1782 43.6387 59.1188 44.2957 59.8713C44.9527 60.6238 45.8912 61 46.9236 61C47.956 61 48.8946 60.5297 49.5515 59.8713C50.2085 59.1188 50.4901 58.1782 50.3962 57.1436L49.6454 50.0891V49.0545H61.2833C61.6587 49.0545 61.9403 48.7723 61.9403 48.396V42.4703V4.65842C62.128 4.28218 61.8464 4 61.471 4ZM37.9137 5.31683H60.7202V41.7178H57.1537C58.28 39.8366 58.8431 37.6733 58.8431 35.5099C58.8431 28.9257 53.4934 23.5644 46.9236 23.5644C40.3539 23.5644 35.0042 28.9257 35.0042 35.5099C35.0042 37.6733 35.5673 39.8366 36.6936 41.7178H33.1271V10.0198C33.221 7.38614 35.3796 5.31683 37.9137 5.31683ZM48.8946 45.9505C42.3248 47.1733 36.412 42.1881 36.412 35.604C36.412 29.7723 41.1047 25.0693 46.9236 25.0693C52.7426 25.0693 57.4353 29.7723 57.4353 35.604C57.5291 40.5891 53.9627 45.0099 48.8946 45.9505ZM45.6097 47.3614C46.6421 47.4554 47.3929 47.4554 48.2376 47.3614H48.3314C48.3314 47.5495 48.3314 49.7129 48.3314 49.6188H45.6097C45.6097 49.4307 45.6097 47.2673 45.6097 47.3614ZM27.2143 5.31683C29.7484 5.31683 31.8131 7.38614 31.907 9.92574V41.6238H4.40781V5.31683H27.2143ZM28.9037 47.8317H4.40781V43.1287H31.907V48.9604C31.0623 48.302 30.0299 47.8317 28.9037 47.8317ZM36.2243 47.8317C35.098 47.8317 34.0656 48.302 33.221 48.9604V43.1287H37.7259C39.4153 45.104 41.7617 46.6089 44.2019 47.1733V47.8317H36.2243ZM48.613 59.1188C48.2376 59.5891 47.6745 59.8713 47.0175 59.8713C46.4544 59.8713 45.7974 59.5891 45.422 59.1188C45.0466 58.6485 44.8588 58.0842 44.8588 57.4257L45.5158 50.9356H48.4253L49.0823 57.4257C49.1761 58.0842 48.9884 58.6485 48.613 59.1188ZM60.7202 47.8317H49.7392V47.1733C52.1794 46.6089 54.5258 45.104 56.2152 43.1287H60.7202V47.8317Z" fill="#622DFA"/>
<path d="M52.1622 39.7093C51.1216 41.1744 49.6081 42.2209 48 42.5349L48.2838 44C50.2703 43.5814 52.0676 42.3256 53.2973 40.5465C54.4324 38.9767 55 36.9884 55 35H53.5811C53.6757 36.7791 53.1081 38.3488 52.1622 39.7093Z" fill="#622DFA"/>
</svg>
