<svg width="65" height="65" viewBox="0 0 65 65" fill="none" xmlns="http://www.w3.org/2000/svg">
<path d="M32.5631 24.3286C30.9312 24.3273 29.3356 24.8101 27.9781 25.7162C26.6206 26.6222 25.5621 27.9107 24.9367 29.4186C24.3112 30.9265 24.1469 32.5862 24.4644 34.1876C24.7819 35.789 25.5671 37.2602 26.7205 38.4151C27.8739 39.57 29.3438 40.3567 30.9443 40.6757C32.5447 40.9947 34.2037 40.8317 35.7115 40.2072C37.2193 39.5828 38.5081 38.525 39.4149 37.1676C40.3217 35.8102 40.8057 34.2143 40.8057 32.5817C40.8057 32.3391 40.7093 32.1065 40.5379 31.9349C40.3664 31.7634 40.1339 31.667 39.8914 31.667H33.4774V25.2503C33.4783 25.1296 33.4554 25.0099 33.4098 24.8981C33.3643 24.7863 33.2971 24.6847 33.2121 24.599C33.1271 24.5133 33.026 24.4453 32.9146 24.3989C32.8032 24.3525 32.6838 24.3286 32.5631 24.3286ZM31.6488 26.3036V32.5748C31.6488 33.0806 32.0575 33.4895 32.5631 33.4895H38.8385C38.6775 34.6641 38.1916 35.7702 37.4357 36.6832C36.6797 37.5962 35.6837 38.2797 34.5602 38.6565C33.4366 39.0334 32.2301 39.0886 31.0768 38.816C29.9235 38.5434 28.8693 37.9537 28.0332 37.1136C27.1914 36.2774 26.6003 35.2222 26.3266 34.0674C26.0529 32.9126 26.1076 31.7042 26.4845 30.5789C26.8613 29.4536 27.5454 28.4561 28.4592 27.6994C29.3731 26.9426 30.4803 26.4567 31.6558 26.2966L31.6488 26.3036ZM38.0628 20.6629C37.5087 20.6629 37.1415 21.1618 37.1415 21.6816L37.1485 27.1767C37.19 27.6825 37.6887 28.0567 38.1875 28.0013L43.6594 27.9944C44.1719 27.9528 44.5529 27.4261 44.4698 26.9203C44.4213 25.2497 43.726 23.6633 42.5306 22.4959C41.3353 21.3284 39.7333 20.6712 38.0628 20.6629ZM38.9771 22.5893C40.6394 22.9081 42.1148 24.2732 42.5373 25.9155L42.5927 26.165H38.9771V22.5893ZM17.8997 51.832C17.6563 51.832 17.4229 51.9287 17.2508 52.1009C17.0787 52.2731 16.982 52.5066 16.982 52.7501C16.982 52.9937 17.0787 53.2272 17.2508 53.3994C17.4229 53.5716 17.6563 53.6683 17.8997 53.6683H50.8907C51.1341 53.6683 51.3675 53.5716 51.5396 53.3994C51.7117 53.2272 51.8084 52.9937 51.8084 52.7501C51.8084 52.5066 51.7117 52.2731 51.5396 52.1009C51.3675 51.9287 51.1341 51.832 50.8907 51.832H17.8997ZM16.0711 6C14.8728 6.02772 14.8728 7.80168 16.0711 7.8294C16.6807 7.8294 17.401 8.16202 17.9413 8.70945C18.4601 9.19963 18.7744 9.86802 18.821 10.5804V52.7467C18.821 53.2525 19.2296 53.6683 19.7353 53.6683H49.0551C49.5608 53.6683 49.9763 53.2525 49.9763 52.7467V10.5804C49.9763 9.45091 49.2491 8.15509 48.5149 7.42056C48.1164 6.98756 47.6354 6.63879 47.1 6.39481C46.5647 6.15083 45.986 6.01659 45.3979 6H16.0711ZM19.5344 7.8294H45.391C46.0828 7.87187 46.7299 8.18562 47.1919 8.70252C47.7117 9.2281 48.0451 9.90964 48.1408 10.6428V51.8389H20.6495V10.5804C20.6116 9.561 20.2169 8.5873 19.5344 7.8294ZM16.0711 6C15.4755 6.01567 14.8887 6.14857 14.3444 6.39112C13.8001 6.63368 13.3089 6.98112 12.8988 7.41363C12.028 8.24095 11.52 9.3795 11.4858 10.5804V16.0825C11.4858 16.5883 11.9014 16.9972 12.407 16.9972H19.7353C20.2409 16.9972 20.6495 16.5814 20.6495 16.0825V10.5804C20.6161 9.37932 20.108 8.2405 19.2365 7.41363C18.41 6.54182 17.2717 6.03346 16.0711 6ZM16.0711 7.8294C16.6807 7.8294 17.401 8.16202 17.9413 8.70945C18.4601 9.19963 18.7744 9.86802 18.821 10.5804V15.1678H13.3213V10.5804C13.3213 9.97063 13.6538 9.24995 14.201 8.70945C14.6909 8.1904 15.359 7.876 16.0711 7.8294ZM49.0967 37.6541C48.8797 37.6532 48.6694 37.7295 48.5034 37.8694C48.3374 38.0093 48.2267 38.2037 48.1908 38.4179C48.155 38.632 48.1965 38.8519 48.3079 39.0383C48.4193 39.2246 48.5933 39.3653 48.7988 39.435C50.3591 40.001 51.6817 41.0791 52.5509 42.4936C53.4201 43.9081 53.7847 45.5755 53.5851 47.2238C53.5556 47.4635 53.6221 47.7051 53.77 47.896C53.918 48.0868 54.1353 48.2114 54.3747 48.2425C55.7446 48.4385 56.9899 49.1452 57.8609 50.2211C58.732 51.2969 59.1644 52.6623 59.0715 54.0437C58.9786 55.4251 58.3673 56.7203 57.3602 57.6697C56.353 58.6192 55.0243 59.1527 53.6405 59.1634H11.4858C11.0041 59.1653 10.5268 59.0717 10.0814 58.8881C9.63605 58.7046 9.23139 58.4346 8.89078 58.0939C8.55017 57.7531 8.28034 57.3483 8.09685 56.9027C7.91336 56.4571 7.81984 55.9796 7.82167 55.4977C7.82013 54.9502 7.94168 54.4093 8.17732 53.9151C8.41296 53.421 8.75665 52.9861 9.18297 52.6428C9.60929 52.2994 10.1073 52.0564 10.6402 51.9317C11.1731 51.8069 11.7272 51.8036 12.2616 51.9221C12.3874 51.9479 12.5173 51.947 12.6428 51.9193C12.7682 51.8916 12.8865 51.8377 12.9897 51.7612C13.093 51.6847 13.179 51.5873 13.2421 51.4753C13.3052 51.3633 13.344 51.2393 13.3559 51.1113C13.7023 47.6604 16.3967 44.9302 19.8253 44.549C19.9449 44.5354 20.0607 44.4983 20.1659 44.4399C20.2712 44.3815 20.364 44.3029 20.4389 44.2086C20.5139 44.1144 20.5695 44.0063 20.6027 43.8905C20.6358 43.7747 20.6459 43.6535 20.6322 43.5339C20.6186 43.4142 20.5815 43.2984 20.5231 43.1931C20.4648 43.0877 20.3862 42.9949 20.292 42.92C20.1978 42.845 20.0897 42.7893 19.974 42.7562C19.8582 42.723 19.7371 42.7129 19.6175 42.7266C17.6973 42.95 15.8972 43.7766 14.476 45.0877C13.0548 46.3987 12.0855 48.1267 11.7074 50.0234L11.4996 50.0026C10.0422 50.0062 8.64544 50.5871 7.61485 51.6181C6.58426 52.6492 6.00366 54.0465 6 55.5046C6 58.5259 8.46583 60.9998 11.4927 60.9998H53.6474C55.4336 61.0142 57.1631 60.3724 58.5077 59.1959C59.8524 58.0195 60.7188 56.3903 60.9425 54.6173C61.1663 52.8443 60.7319 51.0507 59.7218 49.5768C58.7116 48.1029 57.1959 47.0512 55.4621 46.621L55.476 46.3369C55.476 42.3939 52.9825 38.9915 49.4292 37.7096C49.3243 37.6739 49.2075 37.6551 49.0967 37.6541Z" fill="#622DFA"/>
</svg>
