<svg width="65" height="65" viewBox="0 0 65 65" fill="none" xmlns="http://www.w3.org/2000/svg">
<path fill-rule="evenodd" clip-rule="evenodd" d="M20.1126 59H11.1912C8.33138 59 6 56.6686 6 53.8399V44.8563C6 44.4211 6.34194 44.0792 6.77713 44.0792H9.73021C10.1654 44.0792 10.5073 44.4211 10.5073 44.8563V53.7777C10.5073 54.1818 10.8493 54.5238 11.2534 54.5238H20.1748C20.61 54.5238 20.9519 54.8657 20.9519 55.3009V58.2229C20.8587 58.6581 20.5167 59 20.1126 59ZM7.49208 45.6334V53.8399C7.49208 55.8604 9.17067 57.4768 11.1912 57.4768H19.3355V56.078H11.1912C10.01 56.078 8.95308 55.0211 8.95308 53.8399V45.6334H7.49208ZM53.8399 59H44.8563C44.4211 59 44.0792 58.6581 44.0792 58.2229V55.3009C44.0792 54.8657 44.4211 54.5238 44.8563 54.5238H53.7777C54.1818 54.5238 54.5238 54.1818 54.5238 53.7777V44.8563C54.5238 44.4211 54.8657 44.0792 55.3009 44.0792H58.2229C58.6581 44.0792 59 44.4211 59 44.8563V53.7777C59 56.6686 56.6686 59 53.8399 59ZM45.6334 57.4768H53.8399C55.8604 57.4768 57.4768 55.8604 57.4768 53.8399V45.6334H56.078V53.8399C56.078 55.0211 55.0211 56.078 53.8399 56.078H45.6334V57.4768ZM58.254 20.8587H55.332C54.8968 20.8587 54.5548 20.5167 54.5548 20.0815V11.1912C54.5548 10.8182 54.2129 10.4762 53.8399 10.4762H44.8563C44.4211 10.4762 44.0792 10.1343 44.0792 9.69912V6.77713C44.0792 6.34194 44.4211 6 44.8563 6H53.7777C56.6375 6 58.9689 8.33138 58.9689 11.1912V20.1126C59 20.5167 58.6581 20.8587 58.254 20.8587ZM56.078 19.3355H57.4768V11.1912C57.4768 9.13959 55.8604 7.49208 53.8399 7.49208H45.6334V8.95308H53.8399C55.0211 8.95308 56.078 10.01 56.078 11.1912V19.3355ZM9.73021 20.8587H6.77713C6.34194 20.8587 6 20.5167 6 20.0815V11.1912C6 8.33138 8.33138 6 11.1912 6H20.1126C20.5478 6 20.8897 6.34194 20.8897 6.77713V9.73021C20.8897 10.1654 20.5478 10.5073 20.1126 10.5073H11.1912C10.8182 10.5073 10.4762 10.8493 10.4762 11.2534V20.1748C10.4762 20.5167 10.1343 20.8587 9.73021 20.8587ZM7.49208 19.3355H8.95308V11.1912C8.95308 10.01 10.01 8.95308 11.1912 8.95308H19.3355V7.49208H11.1912C9.13959 7.49208 7.49208 9.17067 7.49208 11.1912V19.3355Z" fill="#622DFA"/>
<path fill-rule="evenodd" clip-rule="evenodd" d="M46.0699 51.1088H18.9316C18.714 51.1088 18.5275 51.0155 18.4032 50.8912C18.2788 50.7668 18.1855 50.5492 18.1855 50.3938L18.2166 21.4525V21.4215C18.2166 21.2349 18.3099 21.0795 18.4032 20.9552C18.4032 20.9552 18.4032 20.9552 18.4342 20.893L25.1799 14.1473C25.1799 14.1473 25.1799 14.1473 25.211 14.0851C25.3354 13.9608 25.5219 13.9297 25.6773 13.9297H25.7395H46.1009C46.5361 13.9297 46.8781 14.2716 46.8781 14.7068V50.4249C46.847 50.7668 46.5051 51.1088 46.0699 51.1088ZM19.7088 49.6166H45.3238V15.4218H26.4545V21.4215C26.4545 21.8567 26.1125 22.1986 25.6773 22.1986H19.7399L19.7088 49.6166ZM20.7657 20.6754H24.9623V16.5098L20.7657 20.6754Z" fill="#622DFA"/>
<path fill-rule="evenodd" clip-rule="evenodd" d="M39.3864 26.3004H25.6463C25.2111 26.3004 24.8691 25.9585 24.8691 25.5232C24.8691 25.088 25.2111 24.7461 25.6463 24.7461H39.3864C39.8216 24.7461 40.1635 25.088 40.1635 25.5232C40.1635 25.9585 39.8216 26.3004 39.3864 26.3004ZM39.3864 32.8907H25.6463C25.2111 32.8907 24.8691 32.5487 24.8691 32.1135C24.8691 31.6783 25.2111 31.3364 25.6463 31.3364H39.3864C39.8216 31.3364 40.1635 31.6783 40.1635 32.1135C40.1635 32.5487 39.8216 32.8907 39.3864 32.8907ZM39.3864 39.512H25.6463C25.2111 39.512 24.8691 39.1701 24.8691 38.7349C24.8691 38.2997 25.2111 37.9577 25.6463 37.9577H39.3864C39.8216 37.9577 40.1635 38.2997 40.1635 38.7349C40.1635 39.1701 39.8216 39.512 39.3864 39.512ZM39.3864 46.1023H25.6463C25.2111 46.1023 24.8691 45.7604 24.8691 45.3251C24.8691 44.921 25.2111 44.5791 25.6463 44.5791H39.3864C39.8216 44.5791 40.1635 44.921 40.1635 45.3251C40.1635 45.7604 39.8216 46.1023 39.3864 46.1023Z" fill="#622DFA"/>
<path fill-rule="evenodd" clip-rule="evenodd" d="M54.8967 36.3707H10.1326C9.69742 36.3707 9.35547 36.0288 9.35547 35.5936C9.35547 35.1584 9.69742 34.8164 10.1326 34.8164H54.8967C55.3319 34.8164 55.6739 35.1584 55.6739 35.5936C55.6739 36.0288 55.3008 36.3707 54.8967 36.3707Z" fill="#622DFA"/>
</svg>
