<svg width="65" height="65" viewBox="0 0 65 65" fill="none" xmlns="http://www.w3.org/2000/svg">
<path d="M44.7746 27.1754H25.5272L25.0903 24.7084C24.9875 24.1156 24.4736 23.6797 23.8825 23.6797H20.2249C19.9 23.6797 19.5885 23.811 19.3588 24.0448C19.1291 24.2786 19 24.5957 19 24.9263C19 25.2569 19.1291 25.574 19.3588 25.8078C19.5885 26.0416 19.9 26.1729 20.2249 26.1729H22.8546L25.0646 38.578C25.0818 38.6651 25.2445 39.4497 25.6985 40.3563C26.5808 42.1434 28.3625 43.2506 30.3412 43.2506H42.5561C42.8809 43.2506 43.1925 43.1192 43.4222 42.8854C43.6519 42.6517 43.781 42.3346 43.781 42.004C43.781 41.6733 43.6519 41.3563 43.4222 41.1225C43.1925 40.8887 42.8809 40.7573 42.5561 40.7573H30.3497C29.3133 40.7573 28.3539 40.1646 27.8999 39.2405C27.8143 39.0574 27.7372 38.8831 27.6772 38.7349H41.2541C42.6931 38.7349 43.8838 38.1159 44.5947 36.9827C44.9031 36.4945 45.0916 35.9365 45.1687 35.3002L45.991 28.5615C46.0338 28.2041 45.9225 27.8467 45.6912 27.5764C45.4599 27.3236 45.1258 27.1754 44.7746 27.1754ZM42.736 35.0038C42.7017 35.2566 42.6332 35.4745 42.5304 35.6402C42.2734 36.0499 41.8708 36.2417 41.2541 36.2417H27.1461L25.9726 29.6686H43.3784L42.736 35.0038ZM29.2961 43.7998C27.72 43.7998 26.4352 45.1074 26.4352 46.7114C26.4352 48.3155 27.72 49.6231 29.2961 49.6231C30.8723 49.6231 32.1571 48.3155 32.1571 46.7114C32.1571 45.1074 30.8723 43.7998 29.2961 43.7998ZM29.2961 47.1299C29.1871 47.1299 29.0825 47.0858 29.0054 47.0073C28.9283 46.9288 28.885 46.8224 28.885 46.7114C28.885 46.6004 28.9283 46.494 29.0054 46.4155C29.0825 46.3371 29.1871 46.293 29.2961 46.293C29.4052 46.293 29.5098 46.3371 29.5869 46.4155C29.664 46.494 29.7073 46.6004 29.7073 46.7114C29.7073 46.8224 29.664 46.9288 29.5869 47.0073C29.5098 47.0858 29.4052 47.1299 29.2961 47.1299ZM40.3204 43.7998C38.7443 43.7998 37.4594 45.1074 37.4594 46.7114C37.4594 48.3155 38.7443 49.6231 40.3204 49.6231C41.8965 49.6231 43.1814 48.3155 43.1814 46.7114C43.1814 45.1074 41.8965 43.7998 40.3204 43.7998ZM40.3204 47.1299C40.2391 47.1299 40.1596 47.1053 40.092 47.0593C40.0243 47.0134 39.9717 46.948 39.9405 46.8716C39.9094 46.7951 39.9013 46.711 39.9171 46.6298C39.933 46.5486 39.9722 46.4741 40.0297 46.4155C40.0872 46.357 40.1604 46.3172 40.2402 46.301C40.3199 46.2849 40.4026 46.2932 40.4777 46.3248C40.5529 46.3565 40.6171 46.4101 40.6623 46.479C40.7074 46.5478 40.7316 46.6287 40.7316 46.7114C40.723 46.9468 40.5431 47.1299 40.3204 47.1299Z" fill="#622DFA"/>
<path d="M56.0984 5H8.90156C6.75312 5 5 6.7807 5 8.98246V56.0175C5 58.2105 6.75312 60 8.90156 60H56.0984C58.2469 60 60 58.2105 60 56.0175V8.98246C60 6.7807 58.2469 5 56.0984 5ZM57.5336 56.0175C57.5336 56.8246 56.8891 57.4912 56.0898 57.4912H8.90156C8.11094 57.4912 7.45781 56.8333 7.45781 56.0175V15.4649H57.5336V56.0175ZM57.5336 12.9474H7.46641V8.98246C7.46641 8.17544 8.11094 7.50877 8.91016 7.50877H56.107C56.8977 7.50877 57.5508 8.16667 57.5508 8.98246V12.9474H57.5336Z" fill="#622DFA"/>
<path d="M11.7902 8.11328C11.1083 8.11328 10.5627 8.68858 10.5627 9.39872C10.5627 10.1089 11.1168 10.6841 11.7902 10.6841C12.1135 10.6841 12.4235 10.5487 12.6522 10.3077C12.8808 10.0666 13.0092 9.73963 13.0092 9.39872C13.0092 9.0578 12.8808 8.73084 12.6522 8.48978C12.4235 8.24871 12.1135 8.11328 11.7902 8.11328ZM16.3166 8.11328C15.6347 8.11328 15.0891 8.68858 15.0891 9.39872C15.0891 10.1089 15.6432 10.6841 16.3166 10.6841C16.6399 10.6841 16.95 10.5487 17.1786 10.3077C17.4072 10.0666 17.5356 9.73963 17.5356 9.39872C17.5356 9.0578 17.4072 8.73084 17.1786 8.48978C16.95 8.24871 16.6399 8.11328 16.3166 8.11328ZM20.843 8.11328C20.1611 8.11328 19.6155 8.68858 19.6155 9.39872C19.6155 10.1089 20.1696 10.6841 20.843 10.6841C21.1663 10.6841 21.4764 10.5487 21.705 10.3077C21.9336 10.0666 22.062 9.73963 22.062 9.39872C22.062 9.0578 21.9336 8.73084 21.705 8.48978C21.4764 8.24871 21.1663 8.11328 20.843 8.11328ZM53.2184 8.11328H44.2167C43.8934 8.11328 43.5834 8.24871 43.3548 8.48978C43.1262 8.73084 42.9978 9.0578 42.9978 9.39872C42.9978 9.73963 43.1262 10.0666 43.3548 10.3077C43.5834 10.5487 43.8934 10.6841 44.2167 10.6841H53.2269C53.9004 10.6841 54.4459 10.1089 54.4459 9.39872C54.4459 8.68858 53.8918 8.11328 53.2184 8.11328ZM11.2191 54.8114H53.781C54.4544 54.8114 55 54.2361 55 53.526V19.0709C55 18.3608 54.4544 17.7855 53.781 17.7855H11.2191C10.5457 17.7855 10.0001 18.3608 10.0001 19.0709V53.526C9.99157 54.2361 10.5457 54.8114 11.2191 54.8114ZM12.4381 20.3564H52.5535V52.2315H12.4381V20.3564Z" fill="#622DFA"/>
</svg>
