<svg xmlns="http://www.w3.org/2000/svg" xmlns:xlink="http://www.w3.org/1999/xlink" width="150" zoomAndPan="magnify" viewBox="0 0 112.5 89.999999" height="120" preserveAspectRatio="xMidYMid meet" version="1.0"><defs><clipPath id="8d5f980f3d"><path d="M 0 0.199219 L 112.003906 0.199219 L 112.003906 89.800781 L 0 89.800781 Z M 0 0.199219 " clip-rule="nonzero"/></clipPath><clipPath id="659c3bee0d"><path d="M 41 32 L 69 32 L 69 63.199219 L 41 63.199219 Z M 41 32 " clip-rule="nonzero"/></clipPath><clipPath id="77fd99e505"><path d="M 55 27.199219 L 57 27.199219 L 57 32 L 55 32 Z M 55 27.199219 " clip-rule="nonzero"/></clipPath><clipPath id="36413f6c1f"><path d="M 38.65625 44 L 44 44 L 44 46 L 38.65625 46 Z M 38.65625 44 " clip-rule="nonzero"/></clipPath><clipPath id="3d7b2e908d"><path d="M 69 44.386719 L 73.90625 44.386719 L 73.90625 46 L 69 46 Z M 69 44.386719 " clip-rule="nonzero"/></clipPath></defs><g clip-path="url(#8d5f980f3d)"><path fill="#ffffff" d="M 0 0.199219 L 112.5 0.199219 L 112.5 187.699219 L 0 187.699219 Z M 0 0.199219 " fill-opacity="1" fill-rule="nonzero"/><path fill="#ffffff" d="M 0 0.199219 L 112.5 0.199219 L 112.5 90.199219 L 0 90.199219 Z M 0 0.199219 " fill-opacity="1" fill-rule="nonzero"/><path fill="#ffffff" d="M 0 0.199219 L 112.5 0.199219 L 112.5 90.199219 L 0 90.199219 Z M 0 0.199219 " fill-opacity="1" fill-rule="nonzero"/></g><g clip-path="url(#659c3bee0d)"><path fill="#004aad" d="M 52.410156 42.722656 L 54.753906 43.742188 C 55.382812 42.898438 56.578125 42.726562 57.417969 43.355469 C 58.265625 43.980469 58.4375 45.171875 57.8125 46.015625 C 57.183594 46.855469 55.988281 47.03125 55.144531 46.402344 C 54.582031 45.984375 54.296875 45.292969 54.398438 44.605469 L 52.035156 43.574219 Z M 56.046875 37.25 C 60.273438 37.121094 63.800781 40.433594 63.929688 44.648438 C 63.9375 44.882812 63.933594 45.113281 63.921875 45.34375 L 61.402344 45.34375 L 61.402344 44.410156 L 62.988281 44.410156 C 62.886719 42.957031 62.3125 41.574219 61.351562 40.476562 L 60.234375 41.59375 L 59.574219 40.9375 L 60.695312 39.816406 C 59.59375 38.859375 58.207031 38.285156 56.75 38.1875 L 56.75 39.769531 L 55.816406 39.769531 L 55.816406 38.1875 C 54.359375 38.285156 52.972656 38.859375 51.871094 39.816406 L 52.996094 40.9375 L 52.335938 41.59375 L 51.214844 40.476562 C 50.253906 41.574219 49.679688 42.957031 49.582031 44.410156 L 51.164062 44.410156 L 51.164062 45.34375 L 48.644531 45.34375 C 48.390625 41.132812 51.605469 37.515625 55.824219 37.261719 C 55.898438 37.257812 55.972656 37.253906 56.046875 37.25 Z M 56.859375 32.945312 C 50.257812 32.628906 44.644531 37.710938 44.324219 44.300781 C 44.304688 44.707031 44.304688 45.109375 44.328125 45.515625 L 41.339844 53.109375 L 45.546875 53.109375 L 45.546875 56.90625 C 45.546875 57.933594 46.382812 58.761719 47.410156 58.761719 C 47.410156 58.761719 47.410156 58.761719 47.414062 58.761719 L 50.164062 58.761719 L 50.164062 63.113281 L 62.132812 63.113281 L 62.132812 56.839844 C 64.621094 55.328125 66.441406 52.933594 67.234375 50.136719 C 67.421875 49.472656 67.605469 48.8125 67.796875 48.152344 C 69.609375 41.804688 65.921875 35.195312 59.5625 33.386719 C 58.679688 33.140625 57.773438 32.992188 56.859375 32.945312 " fill-opacity="1" fill-rule="nonzero"/></g><path fill="#004aad" d="M 57.257812 44.878906 C 57.261719 44.339844 56.832031 43.902344 56.292969 43.894531 C 55.753906 43.886719 55.316406 44.316406 55.308594 44.855469 C 55.308594 44.863281 55.308594 44.867188 55.308594 44.878906 C 55.304688 45.414062 55.734375 45.851562 56.273438 45.859375 C 56.808594 45.867188 57.25 45.433594 57.257812 44.898438 C 57.257812 44.890625 57.257812 44.882812 57.257812 44.878906 " fill-opacity="1" fill-rule="nonzero"/><g clip-path="url(#77fd99e505)"><path fill="#004aad" d="M 56.625 27.285156 L 55.941406 27.285156 L 55.941406 31.710938 L 56.625 31.710938 L 56.625 27.285156 " fill-opacity="1" fill-rule="nonzero"/></g><path fill="#004aad" d="M 47.765625 29.46875 L 47.167969 29.8125 L 49.390625 33.644531 L 49.984375 33.300781 L 47.765625 29.46875 " fill-opacity="1" fill-rule="nonzero"/><path fill="#004aad" d="M 41.1875 35.785156 L 40.84375 36.378906 L 44.683594 38.59375 L 45.03125 37.996094 L 41.1875 35.785156 " fill-opacity="1" fill-rule="nonzero"/><g clip-path="url(#36413f6c1f)"><path fill="#004aad" d="M 38.65625 44.535156 L 38.65625 45.222656 L 43.089844 45.222656 L 43.089844 44.535156 L 38.65625 44.535156 " fill-opacity="1" fill-rule="nonzero"/></g><path fill="#004aad" d="M 71.375 53.96875 L 71.722656 53.375 L 67.878906 51.164062 L 67.535156 51.753906 L 71.375 53.96875 " fill-opacity="1" fill-rule="nonzero"/><g clip-path="url(#3d7b2e908d)"><path fill="#004aad" d="M 73.910156 45.222656 L 73.910156 44.535156 L 69.476562 44.535156 L 69.476562 45.222656 L 73.910156 45.222656 " fill-opacity="1" fill-rule="nonzero"/></g><path fill="#004aad" d="M 71.722656 36.378906 L 71.375 35.785156 L 67.535156 37.996094 L 67.878906 38.59375 L 71.722656 36.378906 " fill-opacity="1" fill-rule="nonzero"/><path fill="#004aad" d="M 65.398438 29.8125 L 64.796875 29.46875 L 62.578125 33.300781 L 63.175781 33.644531 L 65.398438 29.8125 " fill-opacity="1" fill-rule="nonzero"/></svg>