<svg xmlns="http://www.w3.org/2000/svg" xmlns:xlink="http://www.w3.org/1999/xlink" width="150" zoomAndPan="magnify" viewBox="0 0 112.5 89.999999" height="120" preserveAspectRatio="xMidYMid meet" version="1.0"><defs><clipPath id="38d4c5ea96"><path d="M 0 0.199219 L 112.003906 0.199219 L 112.003906 89.800781 L 0 89.800781 Z M 0 0.199219 " clip-rule="nonzero"/></clipPath><clipPath id="a5d99a14b8"><path d="M 55 27.199219 L 57 27.199219 L 57 29 L 55 29 Z M 55 27.199219 " clip-rule="nonzero"/></clipPath><clipPath id="9e31d038a4"><path d="M 47 49 L 65 49 L 65 63.199219 L 47 63.199219 Z M 47 49 " clip-rule="nonzero"/></clipPath><clipPath id="3414627a49"><path d="M 38.25 47 L 44 47 L 44 61 L 38.25 61 Z M 38.25 47 " clip-rule="nonzero"/></clipPath><clipPath id="0aeac7747c"><path d="M 40 62 L 42 62 L 42 63.199219 L 40 63.199219 Z M 40 62 " clip-rule="nonzero"/></clipPath><clipPath id="fd6b647b30"><path d="M 69 47 L 74.25 47 L 74.25 61 L 69 61 Z M 69 47 " clip-rule="nonzero"/></clipPath><clipPath id="a9f740aaed"><path d="M 71 62 L 73 62 L 73 63.199219 L 71 63.199219 Z M 71 62 " clip-rule="nonzero"/></clipPath></defs><g clip-path="url(#38d4c5ea96)"><path fill="#ffffff" d="M 0 0.199219 L 112.5 0.199219 L 112.5 90.199219 L 0 90.199219 Z M 0 0.199219 " fill-opacity="1" fill-rule="nonzero"/><path fill="#ffffff" d="M 0 0.199219 L 112.5 0.199219 L 112.5 90.199219 L 0 90.199219 Z M 0 0.199219 " fill-opacity="1" fill-rule="nonzero"/></g><path fill="#004aad" d="M 53.851562 45.199219 L 58.648438 45.199219 L 58.648438 46.398438 L 53.851562 46.398438 Z M 53.851562 45.199219 " fill-opacity="1" fill-rule="nonzero"/><path fill="#004aad" d="M 56.25 48.800781 C 57.246094 48.800781 58.050781 47.992188 58.050781 47 L 54.449219 47 C 54.449219 47.992188 55.253906 48.800781 56.25 48.800781 Z M 56.25 48.800781 " fill-opacity="1" fill-rule="nonzero"/><g clip-path="url(#a5d99a14b8)"><path fill="#004aad" d="M 55.648438 27.199219 L 56.851562 27.199219 L 56.851562 29 L 55.648438 29 Z M 55.648438 27.199219 " fill-opacity="1" fill-rule="nonzero"/></g><path fill="#004aad" d="M 64.050781 36.199219 L 65.851562 36.199219 L 65.851562 37.398438 L 64.050781 37.398438 Z M 64.050781 36.199219 " fill-opacity="1" fill-rule="nonzero"/><path fill="#004aad" d="M 46.648438 36.199219 L 48.449219 36.199219 L 48.449219 37.398438 L 46.648438 37.398438 Z M 46.648438 36.199219 " fill-opacity="1" fill-rule="nonzero"/><path fill="#004aad" d="M 61.339844 42.738281 L 62.191406 41.890625 L 63.460938 43.164062 L 62.613281 44.011719 Z M 61.339844 42.738281 " fill-opacity="1" fill-rule="nonzero"/><path fill="#004aad" d="M 49.039062 30.433594 L 49.886719 29.585938 L 51.160156 30.859375 L 50.308594 31.707031 Z M 49.039062 30.433594 " fill-opacity="1" fill-rule="nonzero"/><path fill="#004aad" d="M 61.339844 30.859375 L 62.613281 29.585938 L 63.460938 30.433594 L 62.1875 31.707031 Z M 61.339844 30.859375 " fill-opacity="1" fill-rule="nonzero"/><path fill="#004aad" d="M 49.039062 43.164062 L 50.308594 41.890625 L 51.160156 42.738281 L 49.886719 44.011719 Z M 49.039062 43.164062 " fill-opacity="1" fill-rule="nonzero"/><path fill="#004aad" d="M 59.25 43.222656 C 59.25 42.519531 59.554688 41.851562 60.089844 41.402344 C 61.410156 40.300781 62.25 38.648438 62.25 36.800781 C 62.25 33.257812 59.1875 30.4375 55.566406 30.835938 C 52.792969 31.144531 50.550781 33.417969 50.28125 36.195312 C 50.074219 38.28125 50.941406 40.167969 52.390625 41.386719 C 52.933594 41.84375 53.25 42.511719 53.25 43.222656 L 53.25 44.597656 L 59.25 44.597656 Z M 56.25 38.175781 L 54.394531 39.199219 L 54.75 37.027344 L 53.25 35.492188 L 55.324219 35.175781 L 56.25 33.199219 L 57.175781 35.175781 L 59.25 35.492188 L 57.75 37.027344 L 58.105469 39.199219 Z M 56.25 38.175781 " fill-opacity="1" fill-rule="nonzero"/><path fill="#004aad" d="M 59.25 54.199219 C 59.25 54.597656 59.175781 54.980469 59.023438 55.347656 C 58.871094 55.714844 58.652344 56.039062 58.371094 56.320312 C 58.089844 56.601562 57.765625 56.820312 57.398438 56.972656 C 57.03125 57.121094 56.648438 57.199219 56.25 57.199219 C 55.851562 57.199219 55.46875 57.121094 55.101562 56.972656 C 54.734375 56.820312 54.410156 56.601562 54.128906 56.320312 C 53.847656 56.039062 53.628906 55.714844 53.476562 55.347656 C 53.324219 54.980469 53.25 54.597656 53.25 54.199219 C 53.25 53.800781 53.324219 53.417969 53.476562 53.050781 C 53.628906 52.683594 53.847656 52.359375 54.128906 52.078125 C 54.410156 51.796875 54.734375 51.578125 55.101562 51.425781 C 55.46875 51.273438 55.851562 51.199219 56.25 51.199219 C 56.648438 51.199219 57.03125 51.273438 57.398438 51.425781 C 57.765625 51.578125 58.089844 51.796875 58.371094 52.078125 C 58.652344 52.359375 58.871094 52.683594 59.023438 53.050781 C 59.175781 53.417969 59.25 53.800781 59.25 54.199219 Z M 59.25 54.199219 " fill-opacity="1" fill-rule="nonzero"/><g clip-path="url(#9e31d038a4)"><path fill="#004aad" d="M 64.050781 49.398438 L 62.25 49.398438 C 61.917969 49.398438 61.648438 49.667969 61.648438 50 L 61.648438 56 C 61.648438 56.664062 61.113281 57.199219 60.449219 57.199219 L 52.050781 57.199219 C 51.386719 57.199219 50.851562 56.664062 50.851562 56 L 50.851562 50 C 50.851562 49.667969 50.582031 49.398438 50.25 49.398438 L 48.449219 49.398438 C 48.117188 49.398438 47.851562 49.667969 47.851562 50 L 47.851562 56.597656 C 47.851562 58.585938 49.460938 60.199219 51.449219 60.199219 L 52.050781 60.199219 L 52.050781 63.199219 L 60.449219 63.199219 L 60.449219 60.199219 L 61.050781 60.199219 C 63.039062 60.199219 64.648438 58.585938 64.648438 56.597656 L 64.648438 50 C 64.648438 49.667969 64.382812 49.398438 64.050781 49.398438 Z M 64.050781 49.398438 " fill-opacity="1" fill-rule="nonzero"/></g><g clip-path="url(#3414627a49)"><path fill="#004aad" d="M 40.050781 60.800781 L 41.25 60.800781 L 41.25 51.199219 L 43.050781 51.199219 L 40.648438 47.597656 L 38.25 51.199219 L 40.050781 51.199219 Z M 40.050781 60.800781 " fill-opacity="1" fill-rule="nonzero"/></g><g clip-path="url(#0aeac7747c)"><path fill="#004aad" d="M 40.050781 62 L 41.25 62 L 41.25 63.199219 L 40.050781 63.199219 Z M 40.050781 62 " fill-opacity="1" fill-rule="nonzero"/></g><g clip-path="url(#fd6b647b30)"><path fill="#004aad" d="M 71.851562 47.597656 L 69.449219 51.199219 L 71.25 51.199219 L 71.25 60.800781 L 72.449219 60.800781 L 72.449219 51.199219 L 74.25 51.199219 Z M 71.851562 47.597656 " fill-opacity="1" fill-rule="nonzero"/></g><g clip-path="url(#a9f740aaed)"><path fill="#004aad" d="M 71.25 62 L 72.449219 62 L 72.449219 63.199219 L 71.25 63.199219 Z M 71.25 62 " fill-opacity="1" fill-rule="nonzero"/></g></svg>