<svg width="30" height="30" viewBox="0 0 30 30" fill="none" xmlns="http://www.w3.org/2000/svg">
<path d="M25.2499 4.75013C24.7984 4.29867 24.1966 4.05005 23.5547 4.05005H9.52499C8.39283 4.05005 7.47186 4.97101 7.47186 6.10317V10.9556C5.53294 11.283 4.04999 12.9694 4.04999 15C4.04999 17.0307 5.53294 18.7171 7.47186 19.0445V21.1594H4.73436C4.35642 21.1594 4.04999 21.4655 4.04999 21.8438V23.5547C4.04999 24.8537 5.1509 25.95 6.4453 25.95H20.1375C21.4334 25.9407 22.5281 24.7938 22.5281 23.4451V8.84067H25.2656C25.6436 8.84067 25.95 8.53424 25.95 8.1563V6.44536C25.95 5.8041 25.7014 5.20193 25.2499 4.75013ZM5.41874 15C5.41874 13.4906 6.6468 12.2625 8.15624 12.2625C9.66567 12.2625 10.8937 13.4906 10.8937 15C10.8937 16.5098 9.66567 17.7375 8.15624 17.7375C6.6468 17.7375 5.41874 16.5098 5.41874 15ZM6.4453 24.5813C5.89146 24.5813 5.41874 24.1209 5.41874 23.5547V22.5282H17.7375V23.5547C17.7375 23.8934 17.8241 24.2743 17.9687 24.5813C17.9687 24.5813 6.44898 24.5813 6.4453 24.5813ZM21.1594 6.44536V23.4451C21.1594 24.0466 20.6775 24.5773 20.1328 24.5813C19.5755 24.5939 19.1062 24.1138 19.1062 23.5547V21.8438C19.1062 21.4655 18.7998 21.1594 18.4219 21.1594H8.84061V19.0445C10.7795 18.7171 12.2625 17.0307 12.2625 15C12.2625 12.9694 10.7795 11.283 8.84061 10.9556V6.10317C8.84061 5.7259 9.14771 5.4188 9.52499 5.4188H21.3906C21.2408 5.73384 21.1594 6.0967 21.1594 6.44536ZM24.5812 7.47192H22.5281V6.44536C22.5281 5.87928 22.9886 5.4188 23.5546 5.4188C24.1104 5.41876 24.5812 5.89185 24.5812 6.44536V7.47192Z" fill="#2C57E4"/>
<path d="M10.118 13.9506C9.90976 13.6401 9.4867 13.556 9.17489 13.7634L7.59858 14.8065L7.31267 14.5227C6.69503 13.9097 5.72834 14.8592 6.35101 15.4772C6.35101 15.4772 7.02988 16.151 7.03108 16.1522C7.24502 16.3646 7.62797 16.4104 7.88914 16.2366L9.92935 14.8866C10.2418 14.6799 10.3262 14.2607 10.118 13.9506ZM12.0277 10.95C12.0277 10.95 18.3715 10.95 18.393 10.95C19.259 10.95 19.2764 9.59998 18.393 9.59998C18.393 9.59998 12.042 9.59998 12.0277 9.59998C11.1506 9.59998 11.1495 10.95 12.0277 10.95ZM18.393 12.3C18.393 12.3 13.969 12.3 13.959 12.3C13.0853 12.3 13.0789 13.65 13.959 13.65C13.959 13.65 18.3793 13.65 18.393 13.65C19.2591 13.65 19.2767 12.3 18.393 12.3ZM18.393 15C18.393 15 14.2808 15 14.2718 15C13.3975 15 13.3913 16.35 14.2718 16.35C14.2718 16.35 18.38 16.35 18.393 16.35C19.263 16.35 19.2749 15 18.393 15ZM18.393 17.7C18.393 17.7 13.2894 17.7 13.2789 17.7C12.4042 17.7 12.3991 19.05 13.2789 19.05C13.2789 19.05 18.3768 19.05 18.393 19.05C19.2562 19.05 19.2796 17.7 18.393 17.7Z" fill="#2C57E4"/>
</svg>
