<svg width="30" height="30" viewBox="0 0 30 30" fill="none" xmlns="http://www.w3.org/2000/svg">
<path fill-rule="evenodd" clip-rule="evenodd" d="M15 3.30005C9.22974 3.30005 4.46511 7.60514 3.48515 13.234C3.36343 13.9332 3.29999 14.6527 3.29999 15.3868C3.29999 15.6767 3.30987 15.9637 3.32935 16.2478C3.52351 19.0797 4.66901 21.5935 6.43738 23.5319C7.49264 24.6886 9.22592 24.554 10.2776 23.6206C11.3403 22.6775 11.5479 21.1192 10.7482 19.9425L8.68047 16.9001C8.13712 16.1007 7.24164 15.6055 6.27221 15.5459L4.86022 15.4592C4.86007 15.4351 4.85999 15.411 4.85999 15.3868C4.85999 14.7427 4.91564 14.1127 5.02203 13.5016C5.88095 8.56797 10.0395 4.86005 15 4.86005C19.9605 4.86005 24.119 8.56797 24.9779 13.5016C25.0843 14.1127 25.14 14.7427 25.14 15.3868L25.1399 15.428L25.1398 15.4592L23.7278 15.5459C22.7583 15.6055 21.8629 16.1007 21.3195 16.9001L19.2518 19.9425C18.4521 21.1192 18.6597 22.6775 19.7223 23.6206C19.9421 23.8156 20.1915 23.9757 20.4583 24.0965C20.0389 24.7256 19.3228 25.14 18.51 25.14H17.7193C17.7264 25.076 17.73 25.011 17.73 24.945C17.73 23.9758 16.9443 23.19 15.975 23.19H15.195C14.2257 23.19 13.44 23.9758 13.44 24.945C13.44 25.9143 14.2257 26.7 15.195 26.7H15.975C16.0143 26.7 16.0534 26.6988 16.0921 26.6962C16.1177 26.6988 16.1437 26.7 16.17 26.7H18.51C20.1228 26.7 21.5069 25.7211 22.1006 24.325C22.6372 24.2373 23.1514 23.9826 23.5626 23.5319C25.331 21.5935 26.4765 19.0797 26.6706 16.2478C26.6901 15.9637 26.7 15.6767 26.7 15.3868C26.7 14.6527 26.6365 13.9332 26.5148 13.234C25.5349 7.60514 20.7702 3.30005 15 3.30005ZM21.6305 22.8H21.6455C21.945 22.7982 22.2236 22.685 22.4101 22.4805C23.7619 20.9987 24.6945 19.1339 25.0162 17.0297L23.8234 17.103C23.3194 17.134 22.8724 17.3905 22.6097 17.777L20.542 20.8194C20.19 21.3374 20.2723 22.0229 20.7579 22.4538C21.023 22.6891 21.3362 22.7982 21.6305 22.8ZM7.58987 22.4805C6.23803 20.9987 5.30547 19.1339 4.98377 17.0297L6.17658 17.103C6.68059 17.134 7.12756 17.3905 7.39023 17.777L9.45793 20.8194C9.80998 21.3374 9.72769 22.0229 9.24211 22.4538C8.70219 22.933 7.96248 22.889 7.58987 22.4805ZM15 24.945C15 24.8374 15.0873 24.75 15.195 24.75H15.975C16.0827 24.75 16.17 24.8374 16.17 24.945C16.17 25.0527 16.0827 25.14 15.975 25.14H15.195C15.0873 25.14 15 25.0527 15 24.945Z" fill="#2C57E4"/>
<path d="M13.0729 10.4026C12.9626 10.1103 12.6897 9.91266 12.3797 9.90061C12.0697 9.88856 11.7825 10.0643 11.6501 10.3472L10.4852 12.8365H8.42368C7.99637 12.8365 7.64999 13.1857 7.64999 13.6165C7.64999 14.0473 7.99637 14.3965 8.42368 14.3965H10.9757C11.2751 14.3965 11.5477 14.2223 11.6754 13.9493L12.2736 12.671L13.9824 17.1975C14.0872 17.4751 14.3393 17.6686 14.6327 17.6965C14.926 17.7245 15.2096 17.5821 15.3642 17.3292L16.708 15.1306H21.5763C22.0036 15.1306 22.35 14.7814 22.35 14.3506C22.35 13.9198 22.0036 13.5706 21.5763 13.5706H16.276C16.0075 13.5706 15.7582 13.7109 15.6173 13.9414L14.8703 15.1636L13.0729 10.4026Z" fill="#2C57E4"/>
</svg>
