<svg xmlns="http://www.w3.org/2000/svg" width="631" height="537" fill="none" viewBox="0 0 631 537">
  <path fill="#E6F2FF" d="M70.995 367.611c24.99-70.62-54.57-114.067 7.79-173.807 14.06-13.472 28.112-22.044 37.075-49.255 11.094-33.683-17.819-89.517 18.891-120.429 79.432-66.887 157.237 31.473 261.502 1.29 70.286-20.348 113.512 15.214 118.317 82.152 4.268 59.485 39.645 52.445 54.279 94.634 8.301 23.938 4.906 46.729-5.454 63.867a107.809 107.809 0 0 0-15.259 63.034c12.693 182.67-93.464 215.83-286.635 139.516-45.811-10.905-50.707 12.053-96.759 12.053-71.21 0-114.602-54.129-93.747-113.055Z"/>
  <path fill="#AFD0F3" d="M578.834 355.656c-2.626-1.791-5.892.933-7.481 3.795-4.058 7.299-5.042 17.305-11.75 21.707-1.321.867-2.8 1.45-4.039 2.446-2.078 1.668-3.291 4.344-3.957 7.068-1.34 5.483-.731 11.303-1.097 16.974-.369 5.672-2.081 11.788-6.519 14.73-2.147 1.421-4.761 1.97-6.722 3.682-4.083 3.556-3.745 10.322-3.172 16.022.577 5.7.527 12.598-3.874 15.675-1.186.829-2.589 1.277-3.714 2.2-2.708 2.229-3.068 6.451-3.159 10.168a586.066 586.066 0 0 0 .4 40.903c.048 1.081.123 2.235.729 3.099.775 1.113 2.172 1.406 3.436 1.614l9.562 1.589c1.718.287 3.544.558 5.136-.183 1.718-.804 2.812-2.629 3.786-4.366a290.72 290.72 0 0 0 11.873-23.649c2.229-4.99 4.373-10.536 3.181-15.971-.624-2.847-2.134-5.426-2.566-8.314-1.611-10.741 11.454-17.513 13.121-28.207 1.075-6.891-2.884-13.925-1.721-20.798 1.337-7.923 9.225-14.259 7.557-22.144-.552-2.604-2.116-4.836-2.86-7.387-2.298-7.897 3.642-15.483 5.436-23.491.57-2.544.473-5.766-1.58-7.166m51.817 59.053c-1.1-2.062-3.925-1.091-5.753.479-4.66 4.004-8.21 10.861-13.664 12.003-1.072.224-2.163.201-3.222.542-1.778.574-3.317 2.122-4.53 3.868-2.444 3.519-3.774 7.857-5.669 11.801-1.895 3.944-4.754 7.803-8.37 8.578-1.75.375-3.531-.012-5.249.624-3.579 1.325-5.357 6.258-6.675 10.505-1.317 4.247-3.376 9.159-7.008 10.045-.981.239-1.98.138-2.948.463-2.333.782-3.796 3.695-4.946 6.321a510.614 510.614 0 0 0-11.776 29.348c-.286.785-.58 1.633-.46 2.431.155 1.028.933 1.652 1.655 2.179 1.819 1.33 3.642 2.66 5.461 3.991.98.719 2.033 1.456 3.238 1.403 1.302-.06 2.515-1.037 3.631-1.99a221.067 221.067 0 0 0 14.31-13.354c2.847-2.901 5.808-6.224 6.665-10.464.451-2.22.274-4.515.851-6.706 2.16-8.156 12.249-9.095 16.426-16.239 2.692-4.603 2.304-10.811 5.044-15.376 3.159-5.262 9.909-7.437 11.192-13.566.426-2.027.11-4.086.397-6.132.896-6.33 6.81-9.975 10.272-15.161 1.1-1.649 1.986-3.982 1.125-5.593"/>
  <path fill="#C5DEF8" d="M599.894 399.919c-1.504-1.74-4.042-.085-5.486 1.901-3.685 5.069-5.697 12.645-10.751 15.117-.996.486-2.055.735-3.017 1.334-1.607 1.002-2.777 2.897-3.587 4.905-1.633 4.042-2.018 8.61-3.033 12.929-1.015 4.319-2.983 8.799-6.331 10.458-1.62.804-3.43.867-4.965 1.917-3.197 2.181-3.891 7.443-4.282 11.914-.391 4.47-1.358 9.779-4.7 11.548-.902.476-1.892.627-2.765 1.188-2.103 1.347-2.913 4.55-3.481 7.403a525.584 525.584 0 0 0-5.28 31.577c-.114.839-.221 1.74.063 2.487.365.965 1.251 1.381 2.065 1.716l6.138 2.534c1.103.457 2.279.918 3.436.561 1.252-.384 2.226-1.639 3.109-2.846a235.485 235.485 0 0 0 11.097-16.599c2.157-3.541 4.335-7.519 4.278-11.873-.028-2.28-.681-4.474-.577-6.756.388-8.5 9.988-11.927 12.545-19.941 1.649-5.164-.028-11.126 1.677-16.265 1.964-5.92 8.065-9.726 8.027-16.028-.013-2.084-.75-4.016-.899-6.085-.457-6.403 4.521-11.431 6.798-17.358.721-1.882 1.097-4.379-.079-5.741"/>
  <path fill="#AFD0F3" d="M52.283 360.092c2.627-1.791 5.893.933 7.482 3.795 4.057 7.299 5.04 17.305 11.75 21.707 1.32.867 2.8 1.45 4.038 2.446 2.078 1.668 3.292 4.344 3.957 7.068 1.34 5.483.731 11.303 1.1 16.974.369 5.672 2.08 11.788 6.52 14.73 2.147 1.422 4.76 1.973 6.725 3.682 4.082 3.556 3.745 10.322 3.168 16.022-.577 5.7-.526 12.595 3.875 15.675 1.185.829 2.588 1.274 3.714 2.201 2.708 2.228 3.067 6.45 3.158 10.167a585.452 585.452 0 0 1-.4 40.903c-.047 1.081-.123 2.235-.728 3.099-.776 1.113-2.172 1.406-3.437 1.614-3.187.53-6.374 1.059-9.565 1.592-1.721.287-3.543.558-5.136-.183-1.718-.804-2.812-2.629-3.786-4.366a291.253 291.253 0 0 1-11.873-23.648c-2.229-4.991-4.373-10.537-3.18-15.972.623-2.847 2.133-5.426 2.565-8.314 1.611-10.741-11.453-17.513-13.121-28.206-1.075-6.892 2.885-13.926 1.721-20.799-1.336-7.922-9.224-14.259-7.557-22.141.552-2.604 2.116-4.836 2.86-7.387 2.298-7.897-3.642-15.482-5.435-23.487-.571-2.544-.47-5.766 1.582-7.166M.463 419.141c1.1-2.065 3.925-1.091 5.753.479 4.66 4.004 8.21 10.861 13.664 12.003 1.075.223 2.163.201 3.222.542 1.778.574 3.317 2.122 4.53 3.868 2.444 3.519 3.774 7.857 5.669 11.801 1.895 3.944 4.754 7.802 8.37 8.578 1.75.375 3.531-.013 5.25.624 3.575 1.321 5.356 6.258 6.674 10.505 1.318 4.244 3.376 9.159 7.008 10.044.98.24 1.98.139 2.948.464 2.333.782 3.796 3.695 4.947 6.321a507.755 507.755 0 0 1 11.772 29.348c.287.788.58 1.633.46 2.434-.155 1.028-.933 1.652-1.655 2.179-1.82 1.33-3.642 2.66-5.46 3.991-.981.719-2.034 1.456-3.239 1.4-1.302-.06-2.515-1.038-3.631-1.99a221.38 221.38 0 0 1-14.31-13.354c-2.847-2.901-5.808-6.224-6.665-10.464-.451-2.22-.271-4.515-.851-6.706-2.16-8.156-12.248-9.095-16.426-16.239-2.692-4.603-2.304-10.811-5.044-15.376-3.16-5.262-9.909-7.437-11.192-13.566-.426-2.027-.11-4.086-.4-6.132-.896-6.33-6.81-9.978-10.272-15.164-1.1-1.649-1.986-3.982-1.125-5.593"/>
  <path fill="#C5DEF8" d="M31.227 404.355c1.503-1.74 4.041-.088 5.485 1.901 3.686 5.07 5.697 12.645 10.75 15.117.997.486 2.056.735 3.018 1.334 1.608 1.002 2.778 2.897 3.588 4.905 1.633 4.042 2.017 8.61 3.033 12.929 1.015 4.32 2.982 8.8 6.33 10.458 1.62.804 3.43.867 4.966 1.917 3.196 2.181 3.89 7.44 4.28 11.914.392 4.473 1.36 9.779 4.702 11.548.901.476 1.891.627 2.764 1.188 2.103 1.347 2.914 4.55 3.481 7.403a528.165 528.165 0 0 1 5.284 31.577c.113.839.22 1.74-.063 2.488-.366.964-1.252 1.38-2.062 1.715l-6.138 2.534c-1.104.458-2.28.918-3.437.562-1.251-.385-2.225-1.64-3.108-2.847a235.697 235.697 0 0 1-11.098-16.599c-2.156-3.541-4.335-7.519-4.281-11.873.028-2.279.681-4.474.577-6.756-.388-8.5-9.988-11.927-12.544-19.941-1.65-5.164.028-11.126-1.678-16.265-1.964-5.92-8.064-9.726-8.026-16.028.012-2.084.75-4.016.898-6.084.457-6.404-4.52-11.432-6.797-17.356-.722-1.882-1.094-4.379.079-5.741"/>
  <path fill="#E6ECF4" d="M618.848 523.558c0 7.144-134.213 12.935-299.769 12.935-165.557 0-299.77-5.791-299.77-12.935s134.213-12.935 299.77-12.935c165.556 0 299.769 5.791 299.769 12.935Z"/>
  <path fill="#fff" d="M255.798 530.342h167.426c15.095 0 27.331-12.317 27.331-27.513v-355.3c0-15.196-12.236-27.514-27.331-27.514H255.798c-15.095 0-27.33 12.318-27.33 27.514v355.3c0 15.196 12.235 27.513 27.33 27.513Z"/>
  <path fill="#1A2F68" d="M236.308 150.833v348.689c0 12.664 10.196 22.929 22.775 22.929h160.859c12.579 0 22.775-10.265 22.775-22.929V150.833c0-12.665-10.196-22.93-22.775-22.93h-36.665l-1.542 6.205c-1.015 4.083-4.657 6.945-8.837 6.945h-66.771c-4.18 0-7.825-2.862-8.837-6.945l-1.541-6.205h-36.666c-12.579 0-22.775 10.265-22.775 22.93Zm19.493-30.821h167.426c15.095 0 27.331 12.318 27.331 27.514v355.3c0 15.196-12.236 27.513-27.331 27.513H255.801c-15.095 0-27.33-12.317-27.33-27.513V147.529c0-15.196 12.235-27.514 27.33-27.514v-.003Z"/>
  <path stroke="#004566" stroke-miterlimit="10" stroke-width="3.09" d="m259.852 160.382-6.513-5.202 6.51-5.208m157.205 1.002 12.724-.006m-12.724 5.917 12.728-.006m-12.747-2.966 12.728-.007"/>
  <path fill="#19355A" d="M288.936 125.586h90.68l-6.403 11.29c-1.072 1.891-2.913 3.036-4.89 3.036h-68.097c-1.977 0-3.815-1.142-4.89-3.036l-6.4-11.29Z"/>
  <path fill="#AFD0F3" fill-rule="evenodd" d="M407.987 192.517c0-6.012-4.883-10.895-10.895-10.895H283.245c-6.015 0-10.895 4.883-10.895 10.895v144.166c0 6.015 4.883 10.895 10.895 10.895h113.847c6.015 0 10.895-4.883 10.895-10.895V192.517Z" clip-rule="evenodd"/>
  <mask id="a" width="136" height="167" x="272" y="181" maskUnits="userSpaceOnUse" style="mask-type:luminance">
    <path fill="#fff" d="M407.987 192.517c0-6.012-4.883-10.895-10.895-10.895H283.245c-6.015 0-10.895 4.883-10.895 10.895v144.166c0 6.015 4.883 10.895 10.895 10.895h113.847c6.015 0 10.895-4.883 10.895-10.895V192.517Z"/>
  </mask>
  <g mask="url(#a)">
    <path fill="#353A4E" d="M320.658 271.829s-4.726 9.505-.725 17.974c4.004 8.471 9.423 4.65 9.423 4.65l-8.701-22.624h.003Z"/>
    <path fill="#FCB75C" d="M316.364 297.006s-32.078 6.719-40.701 26.625c-4.704 10.857-11.523 33.418-16.183 49.563a14.403 14.403 0 0 0 13.838 18.386h12.777s12.583-53.422 14.9-62.095c2.317-8.67 15.372-32.479 15.372-32.479m50.185 3.03s25.974 3.689 34.597 23.595c4.319 9.972 10.423 29.805 15 45.483a17.55 17.55 0 0 1-16.847 22.46h-8.582s-12.582-53.422-14.9-62.095c-2.317-8.67-9.268-29.449-9.268-29.449"/>
    <path fill="#FCB75C" d="M378.371 323.208c-.7-6.422-1.81-14.439-3.49-20.615-10.565-6.17-29.758-7.567-29.758-7.567h-14.985s-18.317.978-29.096 7.034c-1.68 6.176-3.452 14.726-4.152 21.151-1.472 13.491-.908 27.154.517 40.619.984 9.301 2.374 18.535 3.824 27.753h72.799c1.45-9.221 2.843-18.452 3.824-27.753 1.422-13.462 1.986-27.125.517-40.619"/>
    <path fill="#FFCBB3" d="M353.736 298.359c-4.042-2.109-2.166-23.027-2.166-23.027h-26.416s1.879 20.918-2.166 23.027c-4.042 2.112-6.009 1.536-4.032 7.907 1.607 5.18 7.654 7.737 16.271 8.329 0 0 2.099.139 3.136.123 1.035.016 3.137-.123 3.137-.123 8.614-.595 14.664-3.149 16.268-8.329 1.977-6.371.01-5.795-4.032-7.907Zm22.17-44.103c-.99-1.302-2.693-2.166-4.231-2.475-3.619-.731-5.587 4.092-6.548 6.731a77.695 77.695 0 0 0-3.604 13.695c-.113.684-.17 1.504.353 1.958.347.303.848.341 1.309.325 7.285-.268 10.35-9.304 12.736-14.833.382-.886.744-1.801.811-2.762.069-1.009-.262-1.895-.826-2.639Zm-75.523 2.636c.066.962.426 1.879.81 2.765 2.387 5.53 5.451 14.565 12.737 14.833.46.016.962-.022 1.309-.324.523-.458.466-1.274.353-1.961a78.036 78.036 0 0 0-3.604-13.696c-.961-2.638-2.929-7.465-6.548-6.734-1.535.312-3.241 1.176-4.231 2.475-.564.744-.895 1.63-.826 2.639"/>
    <path fill="#FFCBB3" d="M370.833 224.079c-1.945-8.2-6.097-15.625-13.475-20.07-14.086-8.49-38.863-4.827-47.239 10.331-1.69 3.058-3.26 6.378-4.316 9.707-4.203 13.279.16 29.522 4.089 42.407 3.058 10.035 8.559 19.811 18.809 23.815 23.566 9.203 37.75-14.855 41.432-34.351 1.945-10.297 3.143-21.552.7-31.839Z"/>
    <path stroke="#E58A6F" stroke-linecap="round" stroke-linejoin="round" stroke-width="5.13" d="M338.048 262.39c-2.188 3.544-4.205 5.577.788 7.343"/>
    <path fill="#fff" fill-rule="evenodd" d="m330.542 273.667 15.574.763c-5.117 5.546-8.648 4.959-15.574-.763Z" clip-rule="evenodd"/>
    <path fill="#171837" fill-rule="evenodd" d="M324.873 249.713c1.466 0 2.655 1.743 2.655 3.887s-1.189 3.887-2.655 3.887c-1.466 0-2.657-1.743-2.657-3.887s1.191-3.887 2.657-3.887Zm30.452 0c1.466 0 2.655 1.743 2.655 3.887s-1.189 3.887-2.655 3.887c-1.466 0-2.658-1.743-2.658-3.887s1.189-3.887 2.658-3.887Zm-33.519-7.825c4.183-.646 7.705-.356 7.859.65.155 1.005-3.115 2.345-7.298 2.992-4.184.646-7.705.356-7.86-.647-.154-1.005 3.115-2.345 7.299-2.992v-.003Zm36.252-.088c4.212.413 7.551 1.573 7.453 2.585-.101 1.012-3.6 1.498-7.812 1.081-4.212-.416-7.551-1.573-7.453-2.585.101-1.012 3.6-1.497 7.812-1.081Z" clip-rule="evenodd"/>
    <path fill="#353A4E" d="M306.093 251.573c.677.704 14.773-15.873 17.797-19.007 3.023-3.131 6.822-8.714 10.936-9.909-.381 6.094-4.278 11.813-9.691 14.225 4.325 1.381 9.045-.646 12.573-3.591 3.528-2.941 6.277-6.769 9.685-9.858 3.408-3.09 7.869-5.492 12.327-4.673-1.545 1.832-1.4 4.682-.401 6.883 1 2.2 2.696 3.959 4.168 5.857 4.717 6.088 7.207 13.983 6.876 21.782 0 0 5.751-12.617 5.751-27.687 0-15.069-14.922-21.526-14.922-21.526s-1.009-8.61-21.277-8.61c-20.269 0-36.578 15.376-38.659 30.445-2.077 15.07 4.833 25.669 4.833 25.669"/>
    <path fill="#41475F" d="M326.39 200.062c8.733-3.651 19.407-4.442 27.976.952 3.721 2.38 3.396 7.298 3.396 11.264 1.132-2.222 3.074-4.442 5.823-4.284 2.352.145 4.3 1.044 6.107 2.216-4.042-4.212-8.503-6.144-8.503-6.144s-1.009-8.613-21.278-8.613c-20.268 0-36.577 15.378-38.658 30.445-.003.028-.006.057-.012.085 1.705-2.847 2.336-6.63 4.12-9.584 4.691-7.932 12.775-12.85 21.022-16.343m37.908 12.266c1.958 1.173 3.682 2.743 5.082 4.553a19.102 19.102 0 0 1 1.848 2.888 19.233 19.233 0 0 1 1.299 3.171 18.977 18.977 0 0 1 .772 6.76c-.151 2.266-.709 4.508-1.687 6.544a22.194 22.194 0 0 0 1.186-6.567 20.875 20.875 0 0 0-.183-3.316 19.66 19.66 0 0 0-.706-3.238 20.982 20.982 0 0 0-2.936-5.952 22.675 22.675 0 0 0-4.675-4.843Z"/>
    <path fill="#41475F" d="m355.463 209.548-.829-.596c-.28-.192-.567-.375-.851-.561a26.078 26.078 0 0 0-5.498-2.651 26.5 26.5 0 0 0-3.938-1.044 25.24 25.24 0 0 0-4.045-.422 25.804 25.804 0 0 0-8.017 1.091c-1.293.391-2.56.87-3.777 1.45a25.454 25.454 0 0 0-3.49 2.024c-.284.183-.545.391-.82.586-.274.196-.529.41-.794.621-.129.108-.265.209-.391.319l-.753.668-.19.167-.179.177c-.981.92-1.87 1.929-2.74 2.957-.864 1.031-1.671 2.112-2.465 3.2-.792 1.094-1.561 2.204-2.34 3.31a131.592 131.592 0 0 1-2.367 3.304 56.325 56.325 0 0 1-2.557 3.175c-.908 1.015-1.904 1.977-3.065 2.718a7.756 7.756 0 0 1-1.86.882 5.628 5.628 0 0 1-2.036.246 5.566 5.566 0 0 0 2.008-.337 7.679 7.679 0 0 0 1.797-.93c1.113-.766 2.059-1.747 2.919-2.778 1.722-2.08 3.238-4.312 4.748-6.554 1.504-2.245 3.027-4.496 4.748-6.614.208-.268.438-.524.659-.782l.334-.388c.111-.129.23-.252.347-.378.233-.249.464-.505.703-.751l.732-.721.182-.18.193-.174.769-.687c.129-.113.265-.217.397-.328.268-.217.53-.438.81-.64.281-.202.549-.419.839-.605 4.543-3.134 10.139-4.767 15.675-4.54 5.536.224 10.949 2.302 15.142 5.769"/>
    <path fill="#41475F" d="M350.561 211.563c-.58-.098-1.154-.212-1.734-.3l-.873-.101-.435-.05-.217-.025-.221-.013-.877-.047c-.293-.016-.583-.038-.876-.029l-.877.007h-.438l-.438.031c-2.33.12-4.641.533-6.863 1.211-4.439 1.359-8.535 3.805-11.678 7.166-1.592 1.664-3.011 3.496-4.461 5.309a81.209 81.209 0 0 1-2.232 2.686c-.769.88-1.57 1.734-2.44 2.528-1.737 1.583-3.73 2.923-5.937 3.787-1.103.425-2.26.722-3.439.838-.297.016-.59.051-.886.051-.296-.006-.593 0-.886-.022-.293-.035-.586-.06-.88-.101l-.863-.177a10.71 10.71 0 0 0 3.49.082 12.883 12.883 0 0 0 3.338-.958 17.42 17.42 0 0 0 3.027-1.68 22.294 22.294 0 0 0 2.683-2.176c1.661-1.598 3.111-3.402 4.54-5.227 1.434-1.819 2.856-3.67 4.473-5.372a25.665 25.665 0 0 1 5.505-4.411 27.22 27.22 0 0 1 6.501-2.793 27.454 27.454 0 0 1 6.995-1.047l.442-.012.444.012.886.029c.297 0 .59.034.883.063l.88.082.22.022.218.035.435.069.87.139c.574.119 1.144.261 1.718.391"/>
    <path fill="#353A4E" d="M310.522 356.791c.902 2.156 1.532 4.372 1.747 6.683 4.023-2.348 6.838-6.611 7.796-10.93 1.362-6.129-.091-12.431-1.046-18.623a116.072 116.072 0 0 1-.615-30.726c.435-3.833.706-10.227 5.01-10.678-11.369-.567-20.877 6.192-25.591 15.41-4.71 9.219-3.717 20.244 1.075 29.431 3.449 6.611 8.831 12.74 11.624 19.433Z"/>
    <path fill="#41475F" d="M324.12 346.658c1.075-6.753-.142-13.664-1.936-20.31-1.882-6.983-4.398-13.846-5.609-20.946-.472-2.774-.725-5.697.413-8.317 1.047-2.408 3.582-4.464 6.422-4.568 0 9.802 4.578 17.734 5.165 26.795.624 9.622-.527 19.455-4.638 28.371.066-.341.126-.681.18-1.025"/>
    <path fill="#353A4E" d="M327.285 338.754c-.155.378-.318.754-.489 1.126 1.274-6.523-.211-13.727-1.973-20.329-2.365-8.859-4.956-18.484-1.428-26.873-.177 3.036.564 6.179 1.368 9.174 2.096 7.809 4.578 15.631 4.789 23.661.116 4.464-.558 9.057-2.27 13.244"/>
    <path fill="#A14337" d="M324.564 296.928s3.257-4.436-3.099-5.265l-1.207.822s1.958.707 3.465 4.833c0 0 .368.032.844-.39"/>
  </g>
  <path fill="#fff" fill-rule="evenodd" d="M287.81 216.124v-23.869h24.393v5.404h-19.339l-.072 18.386-4.982.079Zm103.673 0v-23.869h-24.389v5.404h19.338l.073 18.386 4.978.079ZM287.81 272.22v23.869h24.393v-5.404h-19.339l-.072-18.386-4.982-.079Zm103.673 0v23.869h-24.389v-5.404h19.338l.073-18.386 4.978-.079Z" clip-rule="evenodd"/>
  <path stroke="#8F98DD" stroke-linejoin="round" stroke-width="13.18" d="m328.294 472.639 10.984 12.919 21.318-26.81"/>
  <path stroke="#8F98DD" stroke-linejoin="round" stroke-width="5.13" d="M340.167 455.195c13.147 0 23.821 10.675 23.821 23.822 0 13.147-10.674 23.822-23.821 23.822-13.147 0-23.822-10.675-23.822-23.822 0-13.147 10.675-23.822 23.822-23.822Z"/>
  <path fill="#AFD0F3" fill-rule="evenodd" d="M380.814 391.038h-86.547v35.471h86.547v-35.471Z" clip-rule="evenodd"/>
  <path fill="#FF4040" d="M305.607 397.842h5.171v9.742l9.111-9.742h6.759l-10.438 10.902 11.333 12.557h-7.222l-9.543-11.132v11.132h-5.171v-23.459Z"/>
  <path fill="#FF4040" d="m335.097 411.294-8.815-13.452h6.429l4.972 8.78 5.268-8.78h6.128l-8.814 13.452v10.007h-5.168v-10.007Zm31.048-7.355c-1.028-1.226-2.519-1.923-4.439-1.923-3.91 0-6.794 3.181-6.794 7.554 0 4.372 2.881 7.553 6.627 7.553 2.087 0 3.777-.926 4.836-2.519l4.306 3.216c-1.954 2.784-5.268 4.077-8.483 4.077-7.324 0-12.658-4.805-12.658-12.327 0-7.523 5.334-12.327 12.658-12.327 2.616 0 5.93.895 7.919 3.446l-3.975 3.247.003.003Z"/>
  <path fill="#3660A1" d="m148.115 148.748.013-1.229c.126-12.75 10.561-22.983 23.311-22.86 12.749.126 22.983 10.561 22.86 23.311l-.013 1.229-46.168-.451h-.003Z"/>
  <path fill="#ED1C24" d="M124.322 143.944h-1.435v24.673h21.577v-1.435h-20.142v-23.238Zm93.243 0v23.238h-21.608v1.435h23.04v-24.673h-1.435.003Zm-94.678-51.493h1.435V69.213h20.142v-1.435h-21.577v24.673Zm73.07-24.673v1.435h21.608V92.45H219V67.778h-23.043Zm-20.101 99.313c.201.684.432 1.22.51 1.775.398 2.752-1.421 5.388-4.139 6.059-2.68.659-5.489-.826-6.4-3.461-.719-2.075-.375-4.01 1.163-5.615 1.583-1.649 3.531-2.071 5.71-1.419.249.076.706.085.567.53-.129.416-.454.504-.911.369-2.878-.864-5.612.952-5.902 3.893-.201 2.056 1.076 3.985 3.103 4.682 1.872.643 4.082-.139 5.157-1.829.716-1.122.953-2.329.577-3.619-.154-.526.089-.857.565-1.362"/>
  <path fill="#ED1C24" d="M171.167 170.266c.451-.839.845-1.627 1.293-2.387a30.34 30.34 0 0 1 1.381-2.134c.438-.621 1.031-.839 1.605-.678.372.104.526.271.239.634-1.362 1.727-2.399 3.644-3.326 5.63a1.885 1.885 0 0 1-.596.722c-.495.344-.873.224-1.289-.192a83.895 83.895 0 0 0-2.484-2.364c-.366-.335-.369-.521.053-.76.593-.334 1.132-.196 1.617.208.489.407.959.835 1.507 1.321Z"/>
  <path fill="#3660A1" d="M164.437 115.333s-1.797 3.613-.275 6.832c1.523 3.219 3.582 1.766 3.582 1.766l-3.307-8.601v.003Z"/>
  <path fill="#fff" d="M177.01 125.416c-1.536-.801-.823-8.752-.823-8.752h-10.042s.716 7.951-.822 8.752c-1.539.801-2.283.583-1.533 3.004.612 1.971 2.91 2.942 6.183 3.166 0 0 .797.053 1.191.047.395.006 1.192-.047 1.192-.047 3.273-.227 5.574-1.198 6.183-3.166.75-2.421.003-2.203-1.533-3.004m8.431-16.763c-.376-.495-1.025-.823-1.608-.94-1.375-.277-2.122 1.555-2.488 2.56a29.551 29.551 0 0 0-1.368 5.205c-.044.262-.066.571.132.744.133.114.322.13.499.123 2.771-.101 3.934-3.537 4.842-5.64.145-.337.284-.684.306-1.05a1.472 1.472 0 0 0-.315-1.002Zm-28.709 1.003c.026.365.164.712.309 1.049.908 2.103 2.072 5.536 4.843 5.637.173.007.365-.009.498-.123.199-.173.176-.485.132-.744a29.814 29.814 0 0 0-1.368-5.205c-.366-1.002-1.113-2.837-2.487-2.56-.584.12-1.233.448-1.608.94a1.474 1.474 0 0 0-.316 1.002"/>
  <path fill="#fff" d="M183.507 97.184c-.741-3.118-2.317-5.94-5.123-7.63-5.353-3.228-14.774-1.835-17.958 3.928-.643 1.164-1.239 2.425-1.639 3.69-1.599 5.046.06 11.219 1.554 16.119 1.164 3.814 3.254 7.531 7.15 9.051 8.957 3.499 14.348-5.646 15.748-13.055.738-3.913 1.195-8.191.265-12.103"/>
  <path fill="#3660A1" d="M158.897 107.631c.259.265 5.615-6.034 6.766-7.226 1.148-1.191 2.592-3.313 4.158-3.767-.145 2.317-1.626 4.489-3.682 5.407 1.646.523 3.44-.246 4.78-1.365 1.339-1.12 2.386-2.573 3.682-3.749 1.296-1.176 2.992-2.087 4.685-1.775-.587.697-.533 1.778-.152 2.617.382.835 1.025 1.504 1.583 2.226 1.794 2.314 2.74 5.315 2.614 8.279 0 0 2.184-4.796 2.184-10.524 0-5.729-5.671-8.181-5.671-8.181s-.385-3.273-8.087-3.273-13.903 5.845-14.694 11.574c-.792 5.728 1.838 9.757 1.838 9.757"/>
  <path fill="#3660A1" d="M166.615 88.053c3.32-1.387 7.377-1.69 10.634.363 1.412.905 1.289 2.774 1.289 4.281.429-.845 1.17-1.69 2.214-1.63.892.054 1.633.397 2.32.842-1.538-1.602-3.231-2.336-3.231-2.336s-.385-3.273-8.087-3.273-13.903 5.845-14.695 11.574c0 .01 0 .022-.003.031.65-1.081.889-2.519 1.567-3.644 1.781-3.014 4.855-4.884 7.992-6.211m-1.62 198.31.009-.867c.088-9.014 7.466-16.249 16.479-16.161 9.014.089 16.249 7.466 16.161 16.479l-.01.871-32.639-.319v-.003Z"/>
  <path fill="#ED1C24" d="M148.172 282.964h-1.015v17.444h15.256v-1.012h-14.241v-16.432Zm65.922 0v16.429H198.82v1.012h16.29v-17.444h-1.013l-.003.003Zm-66.937-36.407h1.015v-16.429h14.241v-1.015h-15.256v17.444Zm51.659-17.444v1.015h15.275v16.429h1.012v-17.444h-16.29.003Zm-14.209 70.214c.142.482.306.86.363 1.254.28 1.946-1.006 3.812-2.926 4.285-1.895.466-3.881-.583-4.524-2.447-.507-1.469-.265-2.834.823-3.969 1.119-1.166 2.497-1.466 4.035-1.002.177.053.498.059.401.375-.092.293-.322.356-.643.261-2.034-.611-3.966.672-4.171 2.753-.142 1.453.759 2.818 2.191 3.31 1.324.454 2.884-.098 3.647-1.293.508-.794.675-1.648.407-2.56-.107-.372.063-.608.4-.964"/>
  <path fill="#ED1C24" d="M181.291 301.571c.318-.592.599-1.15.914-1.686.303-.517.631-1.022.974-1.511.309-.438.728-.592 1.135-.479.265.073.372.193.17.448-.964 1.22-1.696 2.579-2.352 3.982a1.326 1.326 0 0 1-.422.511c-.35.242-.618.157-.911-.136a57.61 57.61 0 0 0-1.756-1.671c-.259-.236-.262-.369.038-.539.419-.236.797-.139 1.144.148.347.287.678.593 1.066.933Z"/>
  <path fill="#fff" d="M185.421 269.862c-1.085-.567-.58-6.189-.58-6.189h-7.1s.504 5.622-.58 6.189c-1.088.568-1.614.413-1.085 2.125.432 1.393 2.059 2.078 4.373 2.238 0 0 .564.038.842.032.277.003.842-.032.842-.032 2.314-.16 3.94-.845 4.372-2.238.53-1.712 0-1.557-1.084-2.125Zm5.958-11.851c-.264-.35-.725-.584-1.138-.665-.971-.196-1.5 1.1-1.759 1.809a20.984 20.984 0 0 0-.968 3.679c-.031.183-.047.404.095.527.091.082.227.091.353.088 1.958-.072 2.781-2.5 3.424-3.988.104-.236.198-.482.217-.741a1.016 1.016 0 0 0-.224-.709Zm-20.296.709c.018.259.113.505.217.744.64 1.485 1.466 3.916 3.424 3.985.123.003.258-.006.353-.088.142-.123.126-.344.095-.527-.205-1.236-.54-2.5-.968-3.679-.259-.709-.788-2.005-1.76-1.809-.413.081-.87.315-1.138.665a1.032 1.032 0 0 0-.22.709"/>
  <path fill="#fff" d="M190.017 249.902c-.523-2.204-1.639-4.199-3.622-5.394-3.786-2.283-10.445-1.296-12.696 2.777-.454.823-.876 1.715-1.16 2.611-1.129 3.569.044 7.932 1.1 11.397.823 2.695 2.298 5.325 5.054 6.4 6.334 2.471 10.145-3.992 11.135-9.231.523-2.769.845-5.792.189-8.557"/>
  <path fill="#3660A1" d="m189.05 253.566.684 4.36s1.267-.858 1.33.183c.06 1.04-.101 3.641-2.371 3.279l-2.761 5.214 8.376.24h.561c.01-2.485-.088-16.902-3.83-20.124-4.095-3.528-8.134-5.019-15.19-2.131l-.986 5.719s6.743 6.047 14.187 3.26Z"/>
  <path fill="#3660A1" d="m176.871 266.813-2.384-3.285s-3.272-2.721-3.319-4.83c-.026-1.081.961-.939 1.554-1.362 0 0 2.065-6.403 2.147-6.895l.977-5.854s-9.902 3.484-7.245 22.255l8.27-.029ZM373.147 91.014l.006-.71c.073-7.374 6.11-13.294 13.484-13.222 7.374.073 13.295 6.11 13.223 13.484l-.007.71-26.706-.262Z"/>
  <path fill="#ED1C24" d="M359.382 88.233h-.829v14.272h12.482v-.829h-11.653V88.233Zm53.94 0v13.443h-12.501v.829h13.33V88.233h-.829Zm-54.769-29.79h.829V45.002h11.653v-.83h-12.482v14.273Zm42.271-14.272v.83h12.501v13.443h.829V44.17h-13.33Zm-11.63 57.452c.117.394.249.706.296 1.027.231 1.593-.822 3.118-2.396 3.506-1.551.382-3.174-.476-3.701-2.002-.416-1.201-.217-2.32.675-3.247.914-.955 2.043-1.198 3.301-.82.145.044.41.051.328.306-.076.24-.265.29-.527.211-1.665-.498-3.247.552-3.414 2.255-.117 1.188.621 2.304 1.794 2.708 1.084.372 2.361-.082 2.985-1.056.413-.65.552-1.35.334-2.094-.088-.306.051-.498.328-.788"/>
  <path fill="#ED1C24" d="M386.483 103.46c.261-.485.488-.942.747-1.381.249-.422.517-.835.798-1.235.252-.36.596-.486.93-.391.214.06.302.157.138.369-.788.999-1.387 2.109-1.923 3.256a1.042 1.042 0 0 1-.347.416c-.286.199-.504.13-.747-.113a44.252 44.252 0 0 0-1.437-1.368c-.212-.193-.215-.303.031-.442.344-.192.653-.113.937.12.283.233.554.486.873.763"/>
  <path fill="#fff" d="M389.863 77.517c-.89-.463-.477-5.063-.477-5.063h-5.807s.413 4.6-.476 5.063c-.889.464-1.321.338-.886 1.74.353 1.139 1.684 1.7 3.579 1.832 0 0 .463.032.69.029.227.003.69-.029.69-.029 1.895-.132 3.222-.693 3.579-1.831.435-1.4 0-1.274-.886-1.74m4.867-9.698c-.217-.287-.592-.476-.93-.546-.794-.16-1.229.899-1.44 1.479a16.942 16.942 0 0 0-.792 3.01c-.025.152-.038.332.079.433.076.066.186.075.287.072 1.602-.06 2.276-2.046 2.8-3.263.085-.195.163-.397.176-.608a.837.837 0 0 0-.183-.58m-16.605.583c.016.21.095.413.177.608.523 1.217 1.198 3.203 2.799 3.263.101.003.211-.003.287-.072.117-.101.104-.281.079-.432a17.198 17.198 0 0 0-.791-3.011c-.212-.58-.644-1.643-1.441-1.479-.337.07-.713.259-.93.546a.867.867 0 0 0-.183.58"/>
  <path fill="#fff" d="M393.62 61.183c-.428-1.803-1.339-3.437-2.963-4.414-3.096-1.866-8.547-1.062-10.388 2.273-.372.672-.716 1.403-.949 2.134-.924 2.92.035 6.492.898 9.326.672 2.207 1.883 4.357 4.137 5.237 5.183 2.024 8.301-3.267 9.111-7.554.429-2.264.69-4.739.154-7.002Z"/>
  <path fill="#3660A1" d="m392.829 64.181.558 3.569s1.037-.703 1.088.151c.05.852-.082 2.98-1.939 2.683l-2.257 4.269 6.853.195h.458c.009-2.03-.073-13.83-3.134-16.466-3.351-2.888-6.655-4.108-12.428-1.743l-.807 4.678s5.52 4.947 11.608 2.667"/>
  <path fill="#3660A1" d="m382.864 75.02-1.952-2.69s-2.676-2.225-2.714-3.95c-.019-.885.788-.769 1.273-1.112 0 0 1.69-5.24 1.756-5.64l.801-4.793s-8.102 2.85-5.93 18.21l6.766-.022v-.003Z"/>
  <path fill="#F4D2C6" d="M80.071 311.667s5.892 23.109 4.814 30.521c0 0 8.21.794 15.363-3.077 0 0-8.799-18.976-8.777-23.737l-11.4-3.707Z"/>
  <path fill="#152E60" d="m138.645 511.448 1.866 3.478 14.505 2.645c1.728.315 3.002 1.472 3.241 2.945l-28.323 4.59-.861-12.11 9.572-1.551v.003Zm-73.057-7.979-.773 3.872 9.509 11.267c1.131 1.343 1.377 3.049.627 4.335l-24.774-14.477 7.04-9.89 8.37 4.893Z"/>
  <path fill="#EDA19D" d="M93.328 322.729s-2.14.397-5.41-1.331c0 0 1.63 4.975 6.592 4.285l-1.182-2.954Z"/>
  <path fill="#E8AE87" fill-rule="evenodd" d="m100.752 372.57-13.316-.016v22.444l13.316.013V372.57Z" clip-rule="evenodd"/>
  <path fill="#FFC9B5" d="m87.508 335.472 4.143.937 4.17.923c2.785.606 5.565 1.217 8.349 1.797 2.781.587 5.564 1.142 8.333 1.687 2.768.539 5.536 1.05 8.241 1.475.677.108 1.346.205 2.005.294.659.091 1.308.173 1.923.236.608.066 1.21.11 1.63.133.113.006.176.009.252.015.003.003-.035.016-.032.022.016 0 .023.01.048.01.107.003.34-.032.583-.079.246-.047.526-.11.817-.186.286-.072.592-.158.898-.243a58.678 58.678 0 0 0 1.892-.586c1.283-.423 2.591-.886 3.903-1.368 2.623-.971 5.274-1.99 7.91-3.049l3.963-1.598 3.944-1.624.05-.022a3.878 3.878 0 0 1 5.06 2.106 3.87 3.87 0 0 1-1.554 4.773l-1.87 1.148-1.866 1.125a253.316 253.316 0 0 1-3.758 2.216 318.189 318.189 0 0 1-3.805 2.166 162.526 162.526 0 0 1-3.872 2.113c-1.308.69-2.632 1.371-4.007 2.036a68.12 68.12 0 0 1-2.118.981c-.369.16-.738.321-1.132.479-.388.158-.795.315-1.236.466-.445.155-.905.306-1.501.454-.148.038-.321.073-.482.108-.177.034-.391.069-.568.094-.283.038-.577.079-.822.101a35.45 35.45 0 0 1-2.677.161c-.82.022-1.602.025-2.377.019-.773-.006-1.536-.019-2.289-.038a237.254 237.254 0 0 1-8.878-.432c-2.926-.183-5.829-.425-8.73-.671a618.52 618.52 0 0 1-8.682-.804l-4.332-.448-2.169-.233-2.185-.249c-4.587-.524-7.878-4.663-7.355-9.244.523-4.581 4.67-7.872 9.253-7.346.3.035.593.085.883.148l.05.013-.003-.016Z"/>
  <path fill="#FFC9B5" d="M170.707 325.658c-2.238.766-5.52 2.78-9.861 3.411-.666.095-1.7-.167-1.545-.564.309-.782 1.135-1.249 1.611-1.939.684-1 1.321-3.402.186-4.244-.627-.463-.977 0-1.302.697-1.498 3.197-2.86 3.332-4.594 5.025-.851.829-.305.789-2.21 3.43-.359.495-.668 1.246-1.157 1.593-.271.192-1.894 1.412-2.566 1.73.977 3.449 4.187 6.678 4.187 6.678 1.084-.555 1.406-1.189 2.818-1.167 1.129.016 1.394.193 2.522.06 1.558-.183 4.54-.728 7.381-2.238 1.447-.773.902-2.614-.631-1.945-.356.154-.684.283-.993.343.252-.085.848-.35 3.604-1.8 1.081-.571.791-2.595-.744-1.907a12.01 12.01 0 0 1-2.22.747c.596-.126 2.838-1.091 4.587-2.065 1.403-.782.826-3.02-.469-2.44-1.277.57-2.51 1.04-4.033 1.399v-.006c.656-.151 3.582-1.185 6.028-2.44 1.11-.571 1-2.9-.596-2.355"/>
  <path fill="#36425B" d="M97.984 456.674c-3.294 7.175-16.838 30.452-29.092 50.556-5.798-2.068-11.044-3.868-16.672-7.818.416-.943.851-1.898 1.312-2.869 8.566-18.317 22.5-42.271 23.39-45.601 1.538-5.75-.697-40.562-.12-50.345 13.594-3.695 25.707 1.334 34.222-1.072-3.017 18.973-7.589 45.266-13.043 57.149"/>
  <path fill="#7091E2" d="M109.151 396.622c.937-.016 2.529 2.85 1.838 4.852-6.734 2.333-29.449-.145-34.878-.697-.895-1.504-.072-9.578.23-12.437 1.577-14.755-7.355-26.429-3.817-44.582.901-4.61 3.748-11.735 8.94-14.295 7.636-3.773 23.217 8.834 25.118 17.75.965 4.537.202 18.367 2.232 26.243.511 2.005.999 3.972 1.431 5.88 0 0 0 .009.01.009 1.639 7.109-1.488 13.317-1.107 17.274"/>
  <path fill="#6F40C1" d="m82.896 327.054-.744 2.091s13.975 2.21 19.256 9.849c0 0 .58-4.685-5.75-9.367-2.352-1.737-8.014-3.027-10.76-3.572-.858-.17-1.747.271-2.005.996"/>
  <path fill="#36425B" d="M111.078 399.191c-.016.306-.035.608-.054.908-.296 4.483 19.72 41.294 22.488 51.827 1.838 6.996 5.968 36.448 9.193 59.787-5.798 2.062-10.996 3.982-17.847 4.477-.271-.993-.542-2.008-.801-3.052-4.95-19.619-10.779-50.941-11.469-54.317-2.349-11.492-35.39-33.608-37.117-59.627h35.607v-.003Z"/>
  <path fill="#EFBEAD" d="M152.913 371.223a5.495 5.495 0 0 0-3.962 1.403c-.272.246-.527.536-.631.889-.104.353-.025.782.271 1 .177.132.407.173.624.205a11.86 11.86 0 0 0 6.066-.748c.359-.145.795-.286 1.107-.52.637-.476-.669-1.264-1-1.463a5.45 5.45 0 0 0-2.185-.74c-.094-.013-.192-.019-.29-.026Z"/>
  <path fill="#F4D2C6" d="M96.496 322.243s-14.615 4.559-17.314-4.587-6.403-14.717 2.815-18.014c9.219-3.298 12.069-.347 13.711 2.487 1.643 2.831 4.521 18.689.788 20.111v.003Z"/>
  <path fill="#163560" d="M95.131 301.253s-.933 10.641-3.133 10.18c-2.2-.463-4.625-1.45-4.304 1.756.322 3.207-2.14 8.708-5.312 8.692-6.807-.028-14.203-17.491-12.34-20.804 5.376-9.553 32.858-11.482 25.086.173l.003.003Z"/>
  <path fill="#F75911" d="m169.393 321.206-21.867 74.627c-.429 1.463-1.469 2.456-2.308 2.21l-2.677-.785c-.841-.245-1.176-1.642-.75-3.105l21.867-74.624c.429-1.463 1.469-2.456 2.308-2.21l2.676.785c.842.246 1.179 1.643.751 3.106v-.004Z"/>
  <path fill="#5EA7FF" d="M142.554 267.948c3.846-13.733 14.266-23.856 26.905-27.907 7.361-2.365 15.473-2.664 23.475-.426 21.737 6.088 34.421 28.645 28.33 50.38a40.698 40.698 0 0 1-12.554 19.84c-10.029 8.695-24.093 12.346-37.826 8.496-21.738-6.088-34.421-28.642-28.33-50.383Zm7.737 42.17a44.172 44.172 0 0 0 19.647 11.587c23.598 6.611 48.091-7.167 54.702-30.761 6.52-23.289-6.803-47.442-29.834-54.425a47.451 47.451 0 0 0-.93-.274c-23.597-6.608-48.087 7.156-54.699 30.754-4.445 15.877.328 32.154 11.114 43.119Z"/>
  <path fill="#F4D2C6" d="M157.863 372.936c.93.05 1.532.879 1.599 1.374.053.423-.905 1.201-4.2 1.425.823.158 2.106.561 2.116 1.4.006.842-.978 1.157-1.737 1.308.816.344 1.16.23 1.195.981.012.309-.64 1.106-1.318 1.113.93.277 1.267.507 1.217 1.198-.045.596-3.118 3.272-5.404 3.575-2.696.356-3.72.372-6.255.564-1.034-4.814-1.598-6.163-1.765-6.958.958-.466 1.368-1.765 1.759-2.276 1.147-1.504 2.418-3.613 4.161-3.777 4.2-.391 8.535.066 8.639.073"/>
  <path fill="#F4D2C6" d="m92.203 349.612 1.383 1.475L95 352.575l2.847 2.961a569.72 569.72 0 0 0 5.734 5.864 344.816 344.816 0 0 0 5.805 5.7c.971.93 1.948 1.844 2.922 2.733a87.69 87.69 0 0 0 2.907 2.544c.476.398.949.779 1.396 1.119.442.341.877.647 1.148.83.079.056.104.072.148.11-.016-.003-.05-.009-.053-.003.012.006.012.016.031.028.082.051.3.129.524.202.463.148 1.049.296 1.645.429 1.205.271 2.507.507 3.821.728 1.315.221 2.655.419 4.001.608 2.692.391 5.416.741 8.15 1.066l4.104.486 4.099.46h.041a3.88 3.88 0 0 1 3.421 4.281 3.876 3.876 0 0 1-3.676 3.437c-5.637.252-11.211.368-16.896.328a179.016 179.016 0 0 1-4.294-.105 82.342 82.342 0 0 1-4.442-.274 31.92 31.92 0 0 1-2.449-.312 15.485 15.485 0 0 1-1.488-.321c-.145-.038-.309-.089-.461-.136a13.565 13.565 0 0 1-.539-.189c-.274-.107-.567-.221-.797-.325a28.38 28.38 0 0 1-2.466-1.233 50.256 50.256 0 0 1-2.052-1.21 99.92 99.92 0 0 1-3.752-2.447 171.622 171.622 0 0 1-3.556-2.494 248.494 248.494 0 0 1-6.85-5.11 389.898 389.898 0 0 1-6.669-5.237l-3.285-2.667-1.636-1.346-1.652-1.371a8.353 8.353 0 0 1-1.085-11.766 8.363 8.363 0 0 1 12.494-.404l.067.073h-.004Z"/>
  <path fill="#7091E2" d="M87.75 368.66c4.084-4.363 12.268-12.327 12.284-12.346-4.569-6.166-14.83-21.778-23.756-13.502-10.385 9.631 6.45 20.788 11.476 25.848"/>
  <path fill="#ED1C24" d="M462.762 230.343h-1.539v26.483h23.16v-1.539h-21.621v-24.944Zm100.088 0v24.944h-23.195v1.539h24.733v-26.483h-1.538ZM461.223 175.07h1.539v-24.944h21.621v-1.538h-23.16v26.482Zm78.436-26.482v1.538h23.194v24.944h1.538v-26.482h-24.732Zm-21.584 106.598c.218.735.464 1.309.549 1.908.425 2.954-1.526 5.785-4.442 6.504-2.876.709-5.889-.886-6.87-3.717-.772-2.229-.403-4.304 1.249-6.025 1.699-1.772 3.789-2.223 6.128-1.523.268.082.76.092.609.568-.139.447-.489.542-.978.394-3.089-.927-6.024 1.021-6.333 4.18-.218 2.204 1.154 4.278 3.329 5.026 2.008.69 4.382-.149 5.536-1.965.769-1.204 1.021-2.503.618-3.884-.164-.564.095-.92.608-1.462"/>
  <path fill="#ED1C24" d="M513.047 258.594c.486-.901.908-1.746 1.387-2.563.461-.782.959-1.548 1.482-2.292.47-.665 1.107-.898 1.725-.725.4.114.564.293.258.681-1.463 1.854-2.576 3.913-3.569 6.047-.138.296-.375.59-.64.772-.533.366-.936.24-1.387-.208a88.72 88.72 0 0 0-2.667-2.538c-.391-.359-.397-.561.057-.816.637-.36 1.213-.211 1.737.224.526.435 1.028.898 1.617 1.415"/>
  <path fill="#fff" d="m518.703 215.018.892-9.758.218-4.678h-13.377l-.167 4.385-.479 9.71.658.041-.242-1.873 1.469.981h5.864l9.493-.52 1.428.974-5.757.738Z"/>
  <path fill="#fff" d="M527.559 193.299c-1.454-3.294-4.266-.558-4.266-.558.088-4.385-.618-9.023-2.525-11.895l-7.661-2.995-7.661 2.995c-1.907 2.872-2.614 7.513-2.525 11.895 0 0-2.809-2.74-4.266.558.457 4.209 3.594 6.447 4.694 5.051 0 0 1.328 9.057 9.758 9.057s9.757-9.057 9.757-9.057c1.098 1.396 3.648-.035 4.695-5.051Z"/>
  <path fill="#3660A1" d="m508.129 182.217-4.94.13c-4.219.917-2.895 6.075-1.649 9.514l1.381.886c-.095-6.066 1.235-9.909 5.205-10.527"/>
  <path fill="#3660A1" d="M524.671 191.858c.492-2.468.826-5.64.347-7.9.886-3.799-2.907-9.525-13.822-8.667-10.64 1.201-8.007 7.056-8.007 7.056l1.879 1.349c3.363 2.008 10.495 3.244 16.381 1.86 0 0 1.393 1.668 1.841 7.188.438-.385.829-.653 1.378-.886"/>
  <path fill="#3660A1" fill-rule="evenodd" d="M480.073 232.689c4.593-10.704 8.503-19.166 13.657-20.575 4.093-1.113 8.229-1.727 12.409-1.794.861 2.522 3.676 3.292 5.681 3.487 2.261.221 5.41-.381 7.173-2.736 8.358.198 14.199.93 15.612 4.149 3.802 5.4 6.769 11.595 8.988 17.825l-63.52-.356Z" clip-rule="evenodd"/>
  <path fill="#13375B" fill-rule="evenodd" d="m532.934 332.969-22.687-19.036a18.248 18.248 0 0 1-6.482-15.098c.42-6.744 3.342-13.317 6.769-16.29a5.502 5.502 0 0 1 2.989-1.318c1.482-.167 3.32-.016 5.577.504.504.117.99.306 1.441.558 1.009.568 1.967 1.362 2.881 2.365 1.529 1.68 3.642 2.323 5.35 5.057 2.92 4.675 4.994 8.632 8.235 9.575.202.056.397.132.587.223 8.846 4.313 10.375 11.914 9.786 17.343-.622 5.735-5.199 12.762-14.44 16.12l-.006-.003Z" clip-rule="evenodd"/>
  <path fill="#F7A893" fill-rule="evenodd" d="M471.722 326.424a2.35 2.35 0 0 1-.912-2.317c.284-1.523.716-3.843.908-4.865a.737.737 0 0 0-.359-.775.777.777 0 0 0-.958.151c-.7.773-2.037 2.242-2.037 2.242l-4.496-6.775a.612.612 0 0 0-.8-.202.638.638 0 0 0-.3.785l1.428 3.878-2.292-2.412a1.262 1.262 0 0 0-.965-.394c-.362.012-.703.18-.933.46-.056.07-.094.114-.094.114l-.423.362c-.41.35-.551.924-.356 1.428.315.798.738 1.879.738 1.879l-.867-.447a.978.978 0 0 0-1.227.277.807.807 0 0 0-.037.924c2.156 3.313 5.741 6.551 9.231 8.831l.69.785 4.057-3.932.004.003Z" clip-rule="evenodd"/>
  <path stroke="#E07559" stroke-linecap="round" stroke-linejoin="round" stroke-width=".64" d="M460.003 316.379s1.57 2.576 2.834 3.263"/>
  <path fill="#253A7D" fill-rule="evenodd" d="m499.679 503.276 1.422.303a2.677 2.677 0 0 1 2.119 2.708l-.542 16.366-1.46.075-.155-8.149h-1.689l-2.485 4.82a4.966 4.966 0 0 1-4.328 2.693c-3.771.069-9.796.176-9.796.176-.536-2.055 1.741-3.786 6.536-5.23l7.122-14.074 3.256.309m39.828 3.49a2.125 2.125 0 0 1 2.05-1.961l5.435-.17a2.118 2.118 0 0 1 2.169 1.835c1.34 9.738 1.746 18.131-3.345 18.579-6.271.573-7.135-7.507-6.312-18.283h.003Z" clip-rule="evenodd"/>
  <path fill="#F6AD83" fill-rule="evenodd" d="M545.097 452.686c-.044 18.09 4.092 34.244 2.509 51.82.767 4.367 1.999 8.91.603 12.466-2.453.533-4.906.404-7.359-.602l-.151-13.065c-.593-15.864-5.993-31.612-5.618-46.707l10.016-3.915v.003Zm-51.376-2.031-.164 54.431s-3.767 9.641-4.902 12.551a.988.988 0 0 0 .552 1.277c4.215 1.74 8.288-3.008 12.222-14.156l6.404-49.191-14.112-4.912Z" clip-rule="evenodd"/>
  <path fill="#FFA38A" fill-rule="evenodd" d="m509.541 314.504 1.63-.87.047-4.893 7.923-.435-.117 5.58 2.138.388.066 1.633-5.051 1.951-3.925.092-2.963-3.125.252-.321Z" clip-rule="evenodd"/>
  <path fill="#495494" fill-rule="evenodd" d="M495.064 372.97c-2.941 19.928-4.59 39.853-3.149 59.781l-1.369 68.089c4.9.993 9.544.92 13.86-.514 3.786-13.897 5.804-36.464 6.671-64.668l4.278-41.401 9.751 41.231c1.892 22.198 5.855 43.759 12.488 64.497 4.543 1.759 9.795 1.747 15.738 0l-16.98-127.008-41.288-.007Z" clip-rule="evenodd"/>
  <path fill="#39467B" fill-rule="evenodd" d="m536.351 372.977-41.287-.007.293-2.128 40.714.492.28 1.643Z" clip-rule="evenodd"/>
  <path fill="#BBDBFA" fill-rule="evenodd" d="M509.346 314.728c2.973 4.086 8.168 3.581 11.87-.252l2.478 56.685-17.797-.215 3.446-56.218h.003Z" clip-rule="evenodd"/>
  <path fill="#61A0E0" fill-rule="evenodd" d="m509.507 314.412-4.852 104.682-16.095-.877c2.053-19.742 4.31-38.762 6.829-56.871-5.174 7.333-17.157-9.423-29.96-29.077l8.213-8.213 15.11 17.52c.275-14.931 5.297-25.666 20.758-27.164h-.003Z" clip-rule="evenodd"/>
  <path fill="#646464" fill-rule="evenodd" d="M492.908 321.809v-.243c0-.278.11-.546.305-.741a1.05 1.05 0 0 1 .741-.306h3.516v-.416a.529.529 0 1 1 1.059 0v.388h3.285c.277 0 .545.11.741.305.195.196.306.464.306.741v.388l-9.96-.113.007-.003Z" clip-rule="evenodd"/>
  <path fill="#333D3F" fill-rule="evenodd" d="M485.218 324.274a2.397 2.397 0 0 1 .464-2.046 2.403 2.403 0 0 1 1.891-.908c5.571.022 17.252.072 21.87.091a2.406 2.406 0 0 1 2.343 1.901l6.589 30.701a2.416 2.416 0 0 1-.482 2.021 2.428 2.428 0 0 1-1.879.892l-21.297-.072a2.405 2.405 0 0 1-2.336-1.86c-1.352-5.798-5.504-23.617-7.163-30.717v-.003Z" clip-rule="evenodd"/>
  <path stroke="#000" stroke-linecap="round" stroke-linejoin="round" stroke-width=".8" d="m515.351 394.257-.986-3.695-.268-10.224"/>
  <path fill="#61A0E0" fill-rule="evenodd" d="m521.02 314.242 2.957 104.139 18.289-2.241-7.261-58.391c7.532 2.57 12.57 1.835 12.699-5.397a15.023 15.023 0 0 0-.7-4.773c-3.843-12.081-7.465-22.46-12.822-28.759-2.991-3.515-7.771-4.171-13.162-4.578Z" clip-rule="evenodd"/>
  <path fill="#61A0E0" fill-rule="evenodd" d="m535.009 357.746-12.879-5.36.098 4.294 13.216 4.568-.435-3.502Z" clip-rule="evenodd"/>
  <path stroke="#1B74CA" stroke-linecap="round" stroke-linejoin="round" stroke-width="2" d="m522.486 340.75 18.153 5.413m-9.474-9.641 1.492 7.317"/>
  <path fill="#61A0E0" fill-rule="evenodd" d="m522.379 340.539-4.862 9.174 5.385 3.093-.523-12.267Z" clip-rule="evenodd"/>
  <path fill="#FBA489" fill-rule="evenodd" d="M518.369 348.392c-7.929-3.19-14.468-6.958-14.351-10.914-.807-1.176-.978-2.075-.253-2.583-.422-1.071-.104-1.774 1.006-2.08.215-.476.508-.845.918-1.056a1.645 1.645 0 0 1 1.727.141c1.328.984 2.718 2.217 4.313 4.222a3.087 3.087 0 0 0 2.658 1.151c.236-.016.4-.029.4-.029l-.876-4.064c1.475.108 2.721 3.421 4.388 7.457l2.841 2.295-2.771 5.46Z" clip-rule="evenodd"/>
  <path stroke="#D37667" stroke-linecap="round" stroke-linejoin="round" stroke-width=".69" d="m504.771 332.812 6.602 5.022m-7.607-2.942 6.314 4.414m-6.062-1.828 5.236 3.802"/>
  <path fill="#F7A893" d="M524.438 298.545c-.022.038-.208.297-.508.297-.161 0-.356-.076-.567-.3-.637-.678-.861-3.597-1.406-3.758-.546-.164-2.56.561-6.962-1.847-4.401-2.409-4.287-3.743-4.287-3.743l-.76.713c-.136.126-.303.299-.489.498a7.77 7.77 0 0 0-2.276 5.322c-.044 1.866-.016 4.391.262 6.809.082.716.186 1.425.318 2.103.492 2.485.968 4.411 2.664 5.439 1.551.945 2.995 1.34 4.2 1.412.122-.003 3.843.404 6.412-1.586 2.601-2.017 4.338-6.491 4.338-6.491s1.971-.262 2.604-1.715c.259-.605.492-2.125-.961-3.5-1.091-1.024-2.1-.674-2.582.35"/>
</svg>
