<svg width="30" height="30" viewBox="0 0 30 30" fill="none" xmlns="http://www.w3.org/2000/svg">
<path d="M26.4667 14.4667H25.3867C25.1173 9.15467 20.8453 4.88267 15.5333 4.61333V3.53333C15.5333 3.24 15.2933 3 15 3C14.7067 3 14.4667 3.24 14.4667 3.53333V4.61333C9.15467 4.88267 4.88267 9.15467 4.61333 14.4667H3.53333C3.24 14.4667 3 14.7067 3 15C3 15.2933 3.24 15.5333 3.53333 15.5333H4.61333C4.88267 20.8453 9.15467 25.1173 14.4667 25.3867V26.4667C14.4667 26.76 14.7067 27 15 27C15.2933 27 15.5333 26.76 15.5333 26.4667V25.3867C20.8453 25.1173 25.1173 20.8453 25.3867 15.5333H26.4667C26.76 15.5333 27 15.2933 27 15C27 14.7067 26.76 14.4667 26.4667 14.4667ZM24.3173 14.4667H19.768C19.5227 12.2453 17.7547 10.4773 15.5333 10.232V5.68267C20.256 5.94933 24.0507 9.744 24.3173 14.4667ZM14.4667 14.4667H11.3093C11.544 12.8347 12.8347 11.544 14.4667 11.3093V14.4667ZM14.4667 15.5333V18.6907C12.8347 18.456 11.544 17.1653 11.3093 15.5333H14.4667ZM15.5333 15.5333H18.6907C18.456 17.1653 17.1653 18.456 15.5333 18.6907V15.5333ZM15.5333 14.4667V11.3093C17.1653 11.544 18.456 12.8347 18.6907 14.4667H15.5333ZM14.4667 5.68267V10.232C12.2453 10.4773 10.4773 12.2453 10.232 14.4667H5.68267C5.94933 9.744 9.744 5.94933 14.4667 5.68267ZM5.68267 15.5333H10.232C10.48 17.7547 12.2453 19.5227 14.4667 19.768V24.3173C9.744 24.0507 5.94933 20.256 5.68267 15.5333ZM15.5333 24.3173V19.768C17.7547 19.52 19.5227 17.7547 19.768 15.5333H24.3173C24.0507 20.256 20.256 24.0507 15.5333 24.3173Z" fill="#2C57E4"/>
</svg>
