<svg width="30" height="30" viewBox="0 0 30 30" fill="none" xmlns="http://www.w3.org/2000/svg">
<path d="M25.3125 15C25.3125 21.5775 22.5394 24.375 15 27.1875C7.5 24.375 4.6875 21.6019 4.6875 15C4.6875 12.8906 4.6875 7.5 4.6875 7.5L15 2.8125L25.3125 7.5V15Z" stroke="#2C57E4" stroke-width="1.5" stroke-miterlimit="10" stroke-linecap="round" stroke-linejoin="round"/>
<path d="M18.75 20.625H11.25C10.7325 20.625 10.3125 20.205 10.3125 19.6875V14.0625C10.3125 13.545 10.7325 13.125 11.25 13.125H18.75C19.2675 13.125 19.6875 13.545 19.6875 14.0625V19.6875C19.6875 20.205 19.2675 20.625 18.75 20.625ZM17.8125 13.125H12.1875V11.25C12.1875 9.69656 13.4466 8.4375 15 8.4375C16.5534 8.4375 17.8125 9.69656 17.8125 11.25V13.125Z" stroke="#2C57E4" stroke-width="1.5" stroke-miterlimit="10" stroke-linecap="round" stroke-linejoin="round"/>
<path d="M15 17.8125C15.5178 17.8125 15.9375 17.3928 15.9375 16.875C15.9375 16.3572 15.5178 15.9375 15 15.9375C14.4822 15.9375 14.0625 16.3572 14.0625 16.875C14.0625 17.3928 14.4822 17.8125 15 17.8125Z" fill="#2C57E4"/>
</svg>
