<svg width="30" height="30" viewBox="0 0 30 30" fill="none" xmlns="http://www.w3.org/2000/svg">
<path d="M24.1651 3.90002H14.9983H5.83493C4.76809 3.90002 3.89999 4.76795 3.89999 5.83479V14.9983V24.1651C3.89999 25.2319 4.76809 26.1 5.83493 26.1H14.9983H24.1651C25.2319 26.1 26.1 25.2319 26.1 24.1651V14.9983V5.83479C26.1 4.76795 25.2319 3.90002 24.1651 3.90002ZM24.918 5.83479V14.4073H22.5467C22.551 14.3986 22.5538 14.3889 22.558 14.3802C22.5879 14.3163 22.6148 14.2513 22.6393 14.1855C22.6486 14.1606 22.6577 14.1358 22.6661 14.1107C22.6908 14.0375 22.7126 13.9637 22.7304 13.8886C22.7352 13.8689 22.7386 13.8486 22.7428 13.8287C22.7568 13.763 22.7679 13.6966 22.7767 13.6297C22.7794 13.609 22.7828 13.5884 22.7848 13.5676C22.7934 13.4867 22.7978 13.4052 22.7985 13.3231C22.7985 13.3152 22.7999 13.3074 22.7999 13.2993C22.7999 13.2865 22.798 13.2736 22.7978 13.2608C22.7968 13.1934 22.7933 13.1259 22.787 13.058C22.7858 13.0453 22.7853 13.0327 22.7838 13.02C22.7828 13.0106 22.7826 13.0013 22.7814 12.9918C22.7622 12.8299 22.7259 12.6732 22.6771 12.5217C22.673 12.5092 22.6683 12.4971 22.6643 12.4847C22.6423 12.4202 22.618 12.3569 22.5911 12.2948C22.5819 12.2732 22.5722 12.2519 22.5624 12.2306C22.5388 12.1799 22.5133 12.1303 22.4865 12.0815C22.4719 12.055 22.4581 12.0283 22.4427 12.0023C22.4189 11.9625 22.3931 11.9243 22.3672 11.886C22.321 11.8167 22.2713 11.75 22.2183 11.6855C22.2055 11.67 22.1935 11.654 22.1805 11.6388C22.1445 11.597 22.1065 11.5572 22.0677 11.5179C22.0525 11.5023 22.0371 11.487 22.0216 11.4718C21.9988 11.4498 21.9782 11.426 21.9546 11.4047C21.937 11.3888 21.9176 11.3757 21.8995 11.3605C21.8826 11.3461 21.8651 11.3328 21.8478 11.3189C21.7909 11.2732 21.7327 11.2298 21.6724 11.1893C21.6278 11.159 21.5831 11.1291 21.5366 11.1018C21.5138 11.0886 21.4904 11.077 21.4672 11.0645C21.4139 11.0353 21.3595 11.0076 21.3039 10.9822C21.2874 10.9748 21.2707 10.9677 21.254 10.9605C21.1854 10.9309 21.1155 10.9042 21.0441 10.8808C21.0383 10.8789 21.0328 10.8769 21.027 10.875C20.8683 10.824 20.7037 10.7865 20.5338 10.7683C20.4399 10.7582 20.346 10.7538 20.2526 10.7541C20.1679 10.7539 20.0828 10.7587 19.9977 10.7671C19.997 10.7671 19.9963 10.7671 19.9955 10.7673C19.9884 10.768 19.9813 10.7676 19.9742 10.7685C19.8053 10.7867 19.6417 10.8237 19.4838 10.8742C19.4754 10.8769 19.4673 10.8799 19.4588 10.8826C19.3901 10.9054 19.3227 10.9309 19.2567 10.9594C19.2383 10.9672 19.2201 10.975 19.2018 10.9832C19.148 11.0079 19.0953 11.0349 19.0433 11.0633C19.0191 11.0763 18.9945 11.0884 18.9707 11.1023C18.9256 11.1288 18.8824 11.1578 18.8391 11.1871C18.7778 11.2281 18.7186 11.272 18.6607 11.3186C18.6431 11.3328 18.6252 11.3465 18.608 11.361C18.5901 11.3762 18.5708 11.3894 18.5533 11.4051C18.5298 11.4262 18.5094 11.4496 18.4867 11.4716C18.4707 11.4871 18.4552 11.5028 18.4395 11.5187C18.401 11.5579 18.3631 11.5974 18.3275 11.6388C18.3138 11.6545 18.3015 11.6713 18.2882 11.6874C18.2361 11.7509 18.1872 11.8164 18.1418 11.8844C18.1154 11.9236 18.0889 11.9626 18.0648 12.0031C18.0496 12.0288 18.0359 12.0552 18.0217 12.0813C17.9945 12.1306 17.9688 12.1806 17.9449 12.2318C17.9352 12.2527 17.9258 12.2735 17.9168 12.2946C17.8895 12.3576 17.8648 12.4217 17.8427 12.4871C17.8388 12.4986 17.8344 12.5099 17.8307 12.5214C17.7816 12.6732 17.7453 12.8302 17.7259 12.9925C17.7247 13.0026 17.7245 13.0126 17.7233 13.0227C17.7221 13.0328 17.7218 13.043 17.7208 13.0531C17.714 13.124 17.7105 13.1948 17.7095 13.2654C17.7093 13.277 17.7076 13.2883 17.7076 13.3C17.7076 13.3072 17.7088 13.3142 17.7088 13.3212C17.7095 13.405 17.714 13.4882 17.7228 13.5708C17.7248 13.5892 17.7277 13.6075 17.7301 13.6259C17.739 13.6961 17.7508 13.7658 17.7657 13.8349C17.7694 13.8525 17.7723 13.87 17.7765 13.8874C17.7946 13.9643 17.817 14.0397 17.8422 14.1142C17.85 14.1375 17.8584 14.1603 17.867 14.1833C17.8927 14.2527 17.9207 14.3211 17.9523 14.3879C17.9555 14.3945 17.9575 14.4016 17.9607 14.4084H15.5893V11.2782C15.5893 10.9618 15.4017 10.6783 15.1111 10.5557C14.8181 10.4321 14.4794 10.4961 14.2494 10.7202C13.9529 11.0093 13.545 11.1459 13.1287 11.0969C12.5073 11.0224 12.0085 10.5164 11.9428 9.89378C11.9013 9.50068 12.0222 9.12447 12.2834 8.83437C12.5419 8.54698 12.9122 8.38217 13.2991 8.38217C13.6593 8.38217 13.9987 8.5203 14.2543 8.77105C14.2825 8.79874 14.3124 8.82407 14.3438 8.8467C14.5632 9.00576 14.8514 9.04156 15.1067 8.934C15.3999 8.8109 15.5893 8.52604 15.5893 8.20825V5.08203H24.1651C24.5803 5.08203 24.918 5.41974 24.918 5.83479ZM5.08199 5.83479C5.08199 5.41974 5.41971 5.08203 5.83493 5.08203H14.4073V7.45211C14.066 7.2873 13.689 7.20017 13.2991 7.20017C12.5777 7.20017 11.8873 7.50766 11.4047 8.04361C10.9236 8.57822 10.6913 9.29788 10.7676 10.0179C10.8907 11.1837 11.8248 12.1311 12.9882 12.2704C13.4826 12.3301 13.9733 12.2458 14.4073 12.0354V14.4073H11.2826H11.2777C10.9592 14.4073 10.6742 14.5973 10.5515 14.8913C10.4473 15.1409 10.4804 15.4203 10.63 15.6375C10.656 15.6753 10.6845 15.7119 10.7176 15.7454C10.7519 15.78 10.7836 15.8163 10.8135 15.8539C10.8209 15.8632 10.8275 15.8734 10.8348 15.8828C10.8567 15.9119 10.8779 15.9414 10.8973 15.9721C10.9044 15.9833 10.9106 15.9948 10.9174 16.0061C10.9354 16.0366 10.9527 16.0677 10.9682 16.0995C10.9738 16.1106 10.9788 16.1221 10.9841 16.1334C10.9993 16.1668 11.0131 16.2008 11.0254 16.2352C11.0291 16.2457 11.033 16.2562 11.0366 16.2668C11.0487 16.3036 11.0592 16.3409 11.0682 16.3787C11.0703 16.388 11.0729 16.397 11.0749 16.4063C11.084 16.448 11.0908 16.4902 11.096 16.5327C11.0967 16.5387 11.0979 16.5444 11.0985 16.5501C11.109 16.6464 11.109 16.7448 11.0989 16.8438C11.068 17.1288 10.9474 17.3975 10.7553 17.6107C10.7529 17.6133 10.7507 17.6158 10.7483 17.6183C10.7176 17.6519 10.6852 17.6842 10.6509 17.7147C10.6499 17.7156 10.6491 17.7164 10.6482 17.7173C10.5769 17.7804 10.5006 17.835 10.4204 17.8812C10.4132 17.8855 10.4057 17.8893 10.3985 17.8934C10.3667 17.911 10.3343 17.927 10.3014 17.9419C10.2914 17.9462 10.2816 17.9508 10.2715 17.955C10.2367 17.9697 10.2014 17.9829 10.1654 17.9945C10.159 17.9966 10.1528 17.9991 10.1464 18.0011C10.1036 18.0143 10.0602 18.0254 10.0163 18.0342C10.0074 18.0361 9.99811 18.0371 9.98899 18.0386C9.95674 18.0445 9.92431 18.0493 9.89139 18.0526C9.86336 18.0555 9.8355 18.0568 9.80763 18.0582C9.78653 18.0592 9.76542 18.0606 9.74398 18.0606C9.71949 18.0606 9.69518 18.059 9.67086 18.0577C9.6457 18.0563 9.62054 18.0553 9.59521 18.0526C9.5606 18.0489 9.52615 18.044 9.49221 18.0378C9.48461 18.0364 9.47684 18.0356 9.46941 18.0341C9.42534 18.0251 9.38178 18.014 9.33906 18.0008C9.33196 17.9986 9.32521 17.9959 9.31829 17.9935C9.28316 17.982 9.24838 17.9692 9.21427 17.9549C9.20363 17.9505 9.19333 17.9456 9.18286 17.9408C9.15078 17.9263 9.1192 17.9106 9.08813 17.8936C9.0802 17.8892 9.07209 17.885 9.06416 17.8804C8.98429 17.8343 8.9083 17.7799 8.83738 17.7169C8.83637 17.7159 8.83519 17.7149 8.83417 17.7139C8.80006 17.6835 8.76781 17.6513 8.73725 17.6178C8.73488 17.6151 8.73235 17.6126 8.72999 17.6099C8.53783 17.3966 8.41743 17.128 8.38653 16.8429C8.3764 16.744 8.37657 16.6457 8.38687 16.5493C8.38754 16.5434 8.38873 16.5376 8.3894 16.5317C8.39464 16.4892 8.40139 16.4471 8.41034 16.4054C8.41237 16.396 8.41507 16.3867 8.41726 16.3774C8.42621 16.3399 8.43651 16.3028 8.44867 16.2663C8.45239 16.2553 8.45627 16.2443 8.46032 16.2335C8.47248 16.1996 8.48616 16.1663 8.50102 16.1336C8.50659 16.1214 8.51199 16.1094 8.5179 16.0974C8.53293 16.0669 8.54948 16.037 8.5667 16.0076C8.57413 15.9949 8.58122 15.9823 8.58916 15.9698C8.60706 15.9416 8.62665 15.9144 8.64674 15.8874C8.65569 15.8754 8.6638 15.8631 8.67308 15.8514C8.69926 15.8186 8.72712 15.7874 8.7565 15.757C8.76055 15.7528 8.76393 15.7482 8.76798 15.7442C8.99104 15.5184 9.05639 15.1834 8.93397 14.8903C8.81121 14.5963 8.52618 14.4063 8.20771 14.4063H8.20349H5.08199V5.83479ZM14.8857 21.0659C14.5951 21.1883 14.4073 21.4717 14.4073 21.7881V24.918H5.83493C5.41971 24.918 5.08199 24.5803 5.08199 24.1651V15.5893H7.44937C7.44515 15.598 7.44245 15.6072 7.43823 15.616C7.40834 15.6797 7.38166 15.7445 7.35735 15.8104C7.34823 15.835 7.33911 15.8595 7.33067 15.8843C7.30635 15.9568 7.28474 16.0301 7.26701 16.1045C7.26194 16.1255 7.25823 16.1467 7.25384 16.1678C7.23965 16.2349 7.22817 16.3024 7.21939 16.3706C7.2172 16.3882 7.21416 16.4054 7.2123 16.4232C7.20352 16.5051 7.1993 16.588 7.19845 16.671C7.19828 16.68 7.19693 16.6886 7.19693 16.6975C7.19693 16.7084 7.19845 16.719 7.19862 16.73C7.19963 16.8139 7.20318 16.8983 7.21247 16.9829C7.22175 17.0675 7.23644 17.1504 7.25401 17.2325C7.25417 17.2333 7.25434 17.234 7.25451 17.2347C7.27207 17.3167 7.29453 17.3971 7.32003 17.4761C7.32374 17.4878 7.32797 17.4995 7.33185 17.5111C7.35481 17.579 7.38065 17.6453 7.40919 17.7107C7.41611 17.7264 7.42269 17.7423 7.42979 17.758C7.459 17.8213 7.49091 17.8831 7.52502 17.9435C7.53262 17.9572 7.53937 17.9712 7.54731 17.9847C7.58649 18.0509 7.62853 18.1151 7.67328 18.1774C7.69658 18.21 7.72225 18.2409 7.74707 18.2725C7.77037 18.302 7.79367 18.3314 7.81833 18.3598C7.84822 18.3944 7.87928 18.428 7.9112 18.4613C7.93399 18.4849 7.95747 18.5079 7.98111 18.5307C8.00475 18.5535 8.02636 18.5779 8.05084 18.5997C8.06266 18.6104 8.07567 18.6193 8.08782 18.6296C8.09576 18.6365 8.1042 18.6428 8.11231 18.6495C8.15942 18.6889 8.20687 18.7274 8.25651 18.763C8.26343 18.7679 8.2707 18.7723 8.27762 18.7772C8.32861 18.8132 8.38012 18.8483 8.43331 18.8804C8.69098 19.0361 8.97821 19.1455 9.283 19.2012C9.28671 19.2019 9.29042 19.2024 9.29414 19.2031C9.3426 19.2117 9.39089 19.221 9.4402 19.2267C9.45641 19.2285 9.47262 19.2282 9.489 19.2297C9.53577 19.2345 9.58289 19.2365 9.63017 19.2385C9.66309 19.2399 9.69602 19.2429 9.72895 19.2431C9.73553 19.2431 9.74212 19.2439 9.74887 19.2439C9.78636 19.2439 9.82418 19.239 9.86167 19.2373C9.90895 19.2351 9.9564 19.234 10.0035 19.2291C10.0179 19.2277 10.0322 19.2282 10.0466 19.2265C10.2892 19.1982 10.5211 19.133 10.7385 19.0398C10.7539 19.0332 10.7691 19.0263 10.7843 19.0193C10.8417 18.9933 10.8979 18.9655 10.953 18.9354C10.9766 18.9227 11.0003 18.9103 11.0234 18.8967C11.0697 18.8696 11.1143 18.8405 11.1587 18.8106C11.2103 18.776 11.2605 18.739 11.3098 18.7005C11.3409 18.676 11.3724 18.6524 11.4023 18.6266C11.4131 18.6173 11.4249 18.6095 11.4356 18.5999C11.4601 18.5781 11.4815 18.5538 11.505 18.5312C11.5288 18.5082 11.5526 18.4851 11.5756 18.4613C11.6073 18.4283 11.6382 18.3947 11.6679 18.3603C11.6928 18.3317 11.7162 18.302 11.7397 18.2723C11.7645 18.2409 11.7899 18.2102 11.8132 18.1778C11.8579 18.1154 11.9001 18.0513 11.9391 17.9849C11.9471 17.9714 11.9536 17.9574 11.9612 17.9439C11.9955 17.8834 12.0273 17.8215 12.0566 17.7581C12.0637 17.7426 12.0703 17.7269 12.0771 17.7112C12.1056 17.646 12.1314 17.5795 12.1544 17.5116C12.1583 17.5 12.1625 17.4885 12.1662 17.4767C12.1917 17.3976 12.2142 17.3173 12.2317 17.2352C12.2319 17.2343 12.2321 17.2337 12.2323 17.233C12.2498 17.1509 12.2645 17.068 12.2738 16.9834C12.2831 16.8988 12.2866 16.8146 12.2876 16.7305C12.2878 16.7197 12.2893 16.709 12.2893 16.6981C12.2893 16.6891 12.288 16.6805 12.2878 16.6715C12.287 16.5883 12.2827 16.5056 12.274 16.4237C12.2721 16.4061 12.2691 16.3887 12.2669 16.3711C12.2581 16.3029 12.2466 16.2352 12.2324 16.1683C12.228 16.1472 12.2242 16.126 12.2193 16.105C12.2015 16.0306 12.1799 15.9573 12.1556 15.8848C12.1473 15.86 12.138 15.8355 12.1289 15.8109C12.1044 15.745 12.0778 15.6802 12.048 15.6165C12.044 15.6077 12.0411 15.5985 12.0369 15.5898H14.4073V18.7188C14.4073 19.0367 14.5968 19.3216 14.8901 19.4447C15.1824 19.5671 15.517 19.5029 15.743 19.2811C15.9675 19.0604 16.2553 18.9265 16.5641 18.8964C16.6082 18.8922 16.6528 18.89 16.6977 18.89C17.084 18.89 17.454 19.0553 17.7129 19.3434C17.7456 19.3798 17.7762 19.4177 17.8045 19.4567C17.9744 19.6909 18.0632 19.9687 18.0619 20.2606C18.0617 20.3092 18.0588 20.3582 18.0536 20.4075C17.9867 21.0296 17.4873 21.5346 16.8659 21.6083C16.4508 21.6574 16.0434 21.5199 15.7472 21.2312C15.5177 21.0064 15.1793 20.9423 14.8857 21.0659ZM24.918 24.1651C24.918 24.5803 24.5803 24.918 24.1651 24.918H15.5893V22.5459C16.0223 22.7558 16.5114 22.8404 17.005 22.7816C18.1683 22.6437 19.1036 21.6983 19.2287 20.5336C19.3065 19.8118 19.0745 19.0897 18.5923 18.553C18.1097 18.0156 17.4192 17.7075 16.6977 17.7075C16.3078 17.7075 15.9307 17.7951 15.5893 17.9608V15.5893H18.7182H18.7191C18.9175 15.5893 19.1029 15.5152 19.2439 15.3886C19.2503 15.3828 19.2557 15.3757 19.2621 15.3698C19.2829 15.3499 19.3037 15.3296 19.3222 15.3073C19.3719 15.2479 19.4132 15.1807 19.4443 15.1066C19.5669 14.8143 19.5027 14.4794 19.2807 14.2535C19.2734 14.2461 19.2674 14.2381 19.2603 14.2305C19.2332 14.2018 19.2071 14.1725 19.1829 14.1417C19.1736 14.1301 19.1654 14.1177 19.1566 14.1058C19.1363 14.0782 19.1166 14.0504 19.0985 14.0217C19.0907 14.0095 19.0838 13.9968 19.0765 13.9845C19.0588 13.9543 19.0421 13.9236 19.0269 13.892C19.0213 13.8805 19.0159 13.8689 19.0107 13.8572C18.9953 13.8231 18.9815 13.7885 18.969 13.7534C18.9654 13.7434 18.9617 13.7336 18.9583 13.7235C18.9455 13.6845 18.9347 13.6448 18.9254 13.6046C18.9239 13.5977 18.9217 13.5909 18.9204 13.584C18.8999 13.4886 18.8898 13.3906 18.8901 13.2914C18.8903 13.2704 18.8923 13.2498 18.8935 13.2289C18.8949 13.2019 18.8957 13.1748 18.8986 13.1477C18.93 12.8672 19.0482 12.6026 19.2363 12.3915C19.2412 12.3861 19.2462 12.3809 19.2511 12.3755C19.2768 12.3476 19.3037 12.3208 19.3317 12.2949C19.3386 12.2885 19.3455 12.2821 19.3526 12.2759C19.3844 12.2478 19.417 12.2213 19.4506 12.1968C19.4531 12.195 19.4555 12.1928 19.4582 12.1909C19.4955 12.1639 19.534 12.1392 19.5733 12.1165C19.5787 12.1132 19.5845 12.1107 19.5899 12.1075C19.6235 12.0886 19.6579 12.0712 19.6929 12.0555C19.7015 12.0516 19.7101 12.0479 19.7187 12.0442C19.754 12.0292 19.79 12.0153 19.8264 12.0033C19.8318 12.0015 19.8373 11.9996 19.8428 11.9979C19.9308 11.9702 20.0218 11.9513 20.1147 11.942C20.1206 11.9415 20.1265 11.9415 20.1324 11.941C20.1731 11.9375 20.2141 11.9351 20.2555 11.9351C20.2825 11.9351 20.3092 11.9373 20.3361 11.939C20.356 11.9402 20.3757 11.9403 20.3957 11.9422C20.4865 11.9515 20.5753 11.9699 20.6614 11.9967C20.6704 11.9996 20.6792 12.0026 20.6881 12.0057C20.7207 12.0167 20.7528 12.0288 20.7845 12.0422C20.7959 12.0471 20.8073 12.0518 20.8185 12.0568C20.8497 12.071 20.8804 12.0867 20.9107 12.1034C20.9193 12.1082 20.9281 12.1124 20.9365 12.1173C20.9745 12.1394 21.0117 12.1634 21.0478 12.1892C21.0532 12.1931 21.0584 12.1975 21.0638 12.2016C21.0942 12.224 21.1238 12.248 21.1525 12.2732C21.1616 12.2811 21.1704 12.2894 21.1793 12.2976C21.2048 12.3213 21.2295 12.3458 21.2529 12.3711C21.2597 12.3783 21.2668 12.3856 21.2734 12.393C21.46 12.6033 21.5773 12.8663 21.6091 13.1453C21.6126 13.1786 21.6141 13.2118 21.6153 13.2449C21.6158 13.2596 21.6175 13.2741 21.6177 13.289C21.6182 13.3896 21.6077 13.4889 21.587 13.5855C21.5861 13.5894 21.5849 13.5931 21.5841 13.597C21.5743 13.6406 21.5625 13.6834 21.5484 13.7258C21.5459 13.7333 21.5432 13.7405 21.5407 13.7479C21.5273 13.7861 21.5123 13.8236 21.4956 13.8604C21.4914 13.8695 21.4872 13.8786 21.4828 13.8878C21.4662 13.9222 21.448 13.9558 21.4286 13.9889C21.4227 13.9987 21.4171 14.0087 21.411 14.0185C21.3909 14.0505 21.3691 14.0816 21.3463 14.1122C21.3396 14.1213 21.3333 14.1306 21.3262 14.1395C21.2985 14.1748 21.2688 14.2088 21.2374 14.2415C21.2339 14.2452 21.2308 14.2491 21.2273 14.2528C21.0052 14.4786 20.9409 14.8134 21.0633 15.1057C21.0792 15.1437 21.0981 15.1799 21.1192 15.2143C21.1248 15.2234 21.1319 15.2315 21.1378 15.2403C21.153 15.2629 21.1678 15.2857 21.1851 15.3063C21.2057 15.3313 21.2286 15.354 21.2519 15.3761C21.2558 15.3798 21.2592 15.3842 21.2633 15.3879C21.4042 15.5149 21.5897 15.589 21.7882 15.589H21.7891H24.918V24.1651Z" fill="#2C57E4"/>
</svg>
