<svg width="30" height="30" viewBox="0 0 30 30" fill="none" xmlns="http://www.w3.org/2000/svg">
<path d="M18.75 18.0505C17.7145 18.0505 16.875 18.89 16.875 19.9255C16.875 20.961 17.7145 21.8005 18.75 21.8005C19.7855 21.8005 20.625 20.961 20.625 19.9255C20.6239 18.8904 19.7851 18.0516 18.75 18.0505ZM18.75 20.5505C18.4048 20.5505 18.125 20.2707 18.125 19.9255C18.125 19.5803 18.4048 19.3005 18.75 19.3005C19.0952 19.3005 19.375 19.5803 19.375 19.9255C19.3743 20.2704 19.0949 20.5498 18.75 20.5505ZM11.25 18.0505C10.2145 18.0505 9.375 18.89 9.375 19.9255C9.375 20.961 10.2145 21.8005 11.25 21.8005C12.2855 21.8005 13.125 20.961 13.125 19.9255C13.1239 18.8904 12.2851 18.0516 11.25 18.0505ZM11.25 20.5505C10.9048 20.5505 10.625 20.2707 10.625 19.9255C10.625 19.5803 10.9048 19.3005 11.25 19.3005C11.5952 19.3005 11.875 19.5803 11.875 19.9255C11.8743 20.2704 11.5949 20.5498 11.25 20.5505ZM3.12576 17.5C3.12599 17.5 3.12546 17.5 3.12576 17.5C2.78076 17.4997 2.50023 17.7793 2.5 18.1242C2.5 18.124 2.5 18.1245 2.5 18.1242V21.875C2.5 22.2201 2.77985 22.5 3.125 22.5C3.47015 22.5 3.75 22.2201 3.75 21.875V18.125C3.75023 17.78 3.47069 17.5002 3.12576 17.5ZM26.8758 17.5C26.876 17.5 26.8755 17.5 26.8758 17.5C26.5308 17.4997 26.2502 17.7793 26.25 18.1242C26.25 18.124 26.25 18.1245 26.25 18.1242V21.875C26.25 22.2201 26.5298 22.5 26.875 22.5C27.2202 22.5 27.5 22.2201 27.5 21.875V18.125C27.5002 17.78 27.2207 17.5002 26.8758 17.5ZM21.25 8.74996H15.625V7.41123C16.9619 7.066 17.7658 5.70247 17.4206 4.36558C17.0754 3.02875 15.7119 2.22477 14.375 2.57C13.0381 2.91515 12.2342 4.27875 12.5794 5.61558C12.8068 6.49616 13.4944 7.18387 14.375 7.41123V8.74996H8.75C6.67984 8.75225 5.00229 10.4298 5 12.5V23.75C5.00229 25.8201 6.67984 27.4977 8.75 27.5H21.25C23.3202 27.4977 24.9977 25.8201 25 23.75V12.5C24.9977 10.4298 23.3202 8.75225 21.25 8.74996ZM13.75 4.99996C13.75 4.30958 14.3096 3.74996 15 3.74996C15.6904 3.74996 16.25 4.30958 16.25 4.99996C16.25 5.69034 15.6904 6.24996 15 6.24996C14.3098 6.2495 13.7505 5.69012 13.75 4.99996ZM17.9492 9.99996L17.0117 13.75H12.9883L12.0508 9.99996H17.9492ZM23.75 23.75C23.7482 25.13 22.63 26.2482 21.25 26.25H8.75C7.37 26.2482 6.25175 25.13 6.25 23.75V12.5C6.25175 11.12 7.37 10.0017 8.75 9.99996H10.7617L11.8933 14.5263C11.963 14.8046 12.2131 15 12.5 15H17.5C17.7869 15 18.037 14.8046 18.1067 14.5263L19.2383 9.99996H21.25C22.63 10.0017 23.7482 11.12 23.75 12.5V23.75Z" fill="#2C57E4"/>
</svg>
