<svg xmlns="http://www.w3.org/2000/svg" xmlns:xlink="http://www.w3.org/1999/xlink" width="44" zoomAndPan="magnify" viewBox="0 0 33 32.999998" height="44" preserveAspectRatio="xMidYMid meet" version="1.0"><defs><clipPath id="4314dca235"><path d="M 0 0 L 32.25 0 L 32.25 33 L 0 33 Z M 0 0 " clip-rule="nonzero"/></clipPath></defs><path fill="#1007aa" d="M 23.464844 4.96875 L 16.867188 7.167969 L 17.214844 8.210938 L 23.8125 6.011719 L 23.464844 4.96875 " fill-opacity="1" fill-rule="nonzero"/><path fill="#1007aa" d="M 2.199219 21.984375 L 20.339844 21.984375 L 20.339844 20.882812 L 2.199219 20.882812 L 2.199219 21.984375 " fill-opacity="1" fill-rule="nonzero"/><path fill="#1007aa" d="M 2.199219 24.183594 L 20.339844 24.183594 L 20.339844 23.082031 L 2.199219 23.082031 L 2.199219 24.183594 " fill-opacity="1" fill-rule="nonzero"/><g clip-path="url(#4314dca235)"><path fill="#1007aa" d="M 23.257812 25.078125 C 22.273438 23.441406 22.3125 21.390625 23.382812 19.789062 L 23.476562 19.644531 L 30.1875 15.617188 C 29.761719 16.949219 29.949219 18.421875 30.753906 19.628906 L 31.113281 20.167969 Z M 31.070312 26.792969 L 23.25 31.679688 C 22.261719 30.042969 22.300781 27.988281 23.371094 26.386719 L 23.480469 26.222656 C 23.539062 26.195312 23.59375 26.164062 23.648438 26.132812 L 29.84375 22.257812 C 29.605469 23.863281 30.035156 25.5 31.070312 26.792969 Z M 22.109375 25.28125 L 1.648438 25.28125 C 1.347656 25.28125 1.097656 25.035156 1.097656 24.734375 L 1.097656 19.835938 C 1.097656 19.816406 1.101562 19.800781 1.101562 19.785156 L 22.109375 19.785156 C 21.226562 21.511719 21.226562 23.554688 22.109375 25.28125 Z M 22.101562 31.878906 L 4.398438 31.878906 C 4.09375 31.878906 3.847656 31.632812 3.847656 31.328125 L 3.847656 26.382812 L 22.101562 26.382812 C 21.214844 28.109375 21.214844 30.152344 22.101562 31.878906 Z M 8.15625 15 C 8.203125 15.019531 8.253906 15.039062 8.304688 15.054688 L 16 17.457031 C 16.160156 17.507812 16.328125 17.535156 16.492188 17.535156 C 16.65625 17.535156 16.824219 17.507812 16.984375 17.457031 L 24.679688 15.054688 C 25.09375 14.921875 25.425781 14.644531 25.628906 14.289062 L 30.265625 14.289062 L 22.9375 18.683594 L 2.421875 18.683594 Z M 8.246094 8.457031 L 15.941406 10.84375 L 15.941406 16.289062 L 8.632812 14.003906 C 8.402344 13.929688 8.246094 13.71875 8.246094 13.480469 Z M 17.042969 10.84375 L 24.738281 8.457031 L 24.738281 13.480469 C 24.738281 13.71875 24.582031 13.929688 24.351562 14.003906 L 17.042969 16.289062 Z M 31.1875 21.417969 L 31.695312 21.101562 C 31.953125 20.941406 32.125 20.691406 32.1875 20.398438 C 32.253906 20.105469 32.195312 19.808594 32.027344 19.558594 L 31.667969 19.019531 C 30.867188 17.8125 30.867188 16.257812 31.667969 15.054688 L 31.773438 14.898438 C 32 14.558594 32.019531 14.125 31.828125 13.769531 C 31.636719 13.410156 31.265625 13.1875 30.859375 13.1875 L 25.839844 13.1875 L 25.839844 8.113281 L 30.90625 6.542969 C 31.371094 6.398438 31.679688 5.976562 31.679688 5.492188 C 31.679688 5.007812 31.371094 4.585938 30.90625 4.441406 L 16.992188 0.125 C 16.660156 0.0195312 16.3125 0.0234375 15.984375 0.132812 L 13.019531 1.121094 L 13.367188 2.164062 L 16.332031 1.175781 C 16.441406 1.140625 16.558594 1.140625 16.667969 1.171875 L 30.582031 5.492188 L 16.65625 9.8125 C 16.550781 9.847656 16.4375 9.847656 16.328125 9.8125 L 2.433594 5.5 L 6.207031 4.367188 L 5.890625 3.316406 L 2.117188 4.445312 C 1.652344 4.585938 1.335938 5.007812 1.332031 5.496094 C 1.332031 5.980469 1.640625 6.40625 2.105469 6.550781 L 2.199219 6.578125 L 2.199219 10.835938 L 0.628906 13.453125 L 1.570312 14.019531 L 2.199219 12.972656 L 2.199219 14.835938 L 3.296875 14.835938 L 3.296875 12.972656 L 3.925781 14.019531 L 4.871094 13.453125 L 3.296875 10.835938 L 3.296875 6.917969 L 7.148438 8.113281 L 7.148438 13.480469 C 7.148438 13.746094 7.210938 14 7.324219 14.226562 L 0.757812 18.449219 C 0.28125 18.753906 0 19.273438 0 19.835938 L 0 24.734375 C 0 25.640625 0.738281 26.382812 1.648438 26.382812 L 2.75 26.382812 L 2.75 31.328125 C 2.75 32.238281 3.488281 32.980469 4.398438 32.980469 L 22.773438 32.980469 C 23.082031 32.980469 23.386719 32.890625 23.648438 32.726562 L 31.652344 27.726562 C 31.917969 27.558594 32.101562 27.285156 32.15625 26.976562 C 32.207031 26.667969 32.125 26.351562 31.929688 26.105469 C 30.910156 24.832031 30.609375 23.148438 31.125 21.601562 L 31.1875 21.417969 " fill-opacity="1" fill-rule="nonzero"/></g><path fill="#1007aa" d="M 4.949219 28.582031 L 20.339844 28.582031 L 20.339844 27.480469 L 4.949219 27.480469 L 4.949219 28.582031 " fill-opacity="1" fill-rule="nonzero"/><path fill="#1007aa" d="M 4.949219 30.78125 L 20.339844 30.78125 L 20.339844 29.679688 L 4.949219 29.679688 L 4.949219 30.78125 " fill-opacity="1" fill-rule="nonzero"/><path fill="#1007aa" d="M 9.894531 2.460938 C 10.117188 2.785156 10.402344 3.070312 10.726562 3.292969 C 10.402344 3.515625 10.117188 3.796875 9.894531 4.125 C 9.671875 3.796875 9.390625 3.515625 9.0625 3.292969 C 9.390625 3.070312 9.671875 2.785156 9.894531 2.460938 Z M 9.347656 5.902344 L 9.347656 6.039062 L 10.445312 6.039062 L 10.445312 5.902344 C 10.445312 4.765625 11.371094 3.84375 12.507812 3.84375 L 12.644531 3.84375 L 12.644531 2.742188 L 12.507812 2.742188 C 11.371094 2.742188 10.445312 1.816406 10.445312 0.679688 L 10.445312 0.542969 L 9.347656 0.542969 L 9.347656 0.679688 C 9.347656 1.816406 8.421875 2.742188 7.285156 2.742188 L 7.148438 2.742188 L 7.148438 3.84375 L 7.285156 3.84375 C 8.421875 3.84375 9.347656 4.765625 9.347656 5.902344 " fill-opacity="1" fill-rule="nonzero"/></svg>