<svg xmlns="http://www.w3.org/2000/svg" xmlns:xlink="http://www.w3.org/1999/xlink" width="44" zoomAndPan="magnify" viewBox="0 0 33 32.999998" height="44" preserveAspectRatio="xMidYMid meet" version="1.0"><path fill="#1007aa" d="M 13.046875 8.367188 C 13.046875 8.367188 13.070312 8.390625 13.070312 8.390625 C 13.949219 9.269531 15.160156 9.808594 16.5 9.808594 C 17.839844 9.808594 19.050781 9.269531 19.929688 8.390625 C 19.929688 8.390625 19.953125 8.367188 19.953125 8.367188 C 19.953125 8.367188 19.980469 8.339844 19.980469 8.339844 C 20.855469 7.464844 21.398438 6.25 21.398438 4.910156 C 21.398438 3.570312 20.855469 2.359375 19.980469 1.480469 C 19.980469 1.480469 19.953125 1.457031 19.953125 1.457031 C 19.953125 1.457031 19.929688 1.429688 19.929688 1.429688 C 19.050781 0.554688 17.839844 0.0117188 16.5 0.0117188 C 15.160156 0.0117188 13.949219 0.554688 13.070312 1.429688 C 13.070312 1.429688 13.046875 1.457031 13.046875 1.457031 C 13.046875 1.457031 13.019531 1.480469 13.019531 1.480469 C 12.144531 2.359375 11.601562 3.570312 11.601562 4.910156 C 11.601562 6.25 12.144531 7.464844 13.019531 8.339844 C 13.019531 8.339844 13.019531 8.367188 13.046875 8.367188 Z M 13.148438 4.394531 L 12.660156 4.394531 C 12.761719 3.726562 13.019531 3.082031 13.40625 2.566406 L 13.742188 2.898438 C 13.84375 3.003906 13.972656 3.054688 14.101562 3.054688 C 14.230469 3.054688 14.359375 3.003906 14.464844 2.898438 C 14.667969 2.695312 14.667969 2.382812 14.464844 2.179688 L 14.128906 1.84375 C 14.644531 1.457031 15.261719 1.171875 15.957031 1.09375 L 15.957031 1.558594 C 15.957031 1.84375 16.191406 2.074219 16.472656 2.074219 C 16.757812 2.074219 16.988281 1.84375 16.988281 1.558594 L 16.988281 1.070312 C 17.660156 1.171875 18.304688 1.429688 18.820312 1.816406 L 18.484375 2.152344 C 18.277344 2.359375 18.277344 2.667969 18.484375 2.875 C 18.589844 2.976562 18.71875 3.027344 18.847656 3.027344 C 18.976562 3.027344 19.105469 2.976562 19.207031 2.875 L 19.542969 2.539062 C 19.929688 3.054688 20.210938 3.671875 20.289062 4.371094 L 19.851562 4.371094 C 19.566406 4.371094 19.335938 4.601562 19.335938 4.886719 C 19.335938 5.167969 19.566406 5.402344 19.851562 5.402344 L 20.339844 5.402344 C 20.238281 6.070312 19.980469 6.714844 19.59375 7.230469 L 19.257812 6.894531 C 19.050781 6.691406 18.742188 6.691406 18.535156 6.894531 C 18.332031 7.101562 18.332031 7.410156 18.535156 7.617188 L 18.871094 7.953125 C 18.355469 8.339844 17.738281 8.625 17.042969 8.699219 L 17.042969 8.261719 C 17.042969 7.980469 16.808594 7.746094 16.527344 7.746094 C 16.242188 7.746094 16.011719 7.980469 16.011719 8.261719 L 16.011719 8.753906 C 15.339844 8.648438 14.695312 8.390625 14.179688 8.003906 L 14.515625 7.667969 C 14.722656 7.464844 14.722656 7.152344 14.515625 6.949219 C 14.308594 6.742188 14 6.742188 13.792969 6.949219 L 13.457031 7.28125 C 13.070312 6.765625 12.789062 6.148438 12.710938 5.453125 L 13.148438 5.453125 C 13.433594 5.453125 13.664062 5.21875 13.664062 4.9375 C 13.664062 4.652344 13.433594 4.394531 13.148438 4.394531 Z M 13.148438 4.394531 " fill-opacity="1" fill-rule="nonzero"/><path fill="#1007aa" d="M 15.210938 5.425781 L 16.5 5.425781 C 16.785156 5.425781 17.015625 5.195312 17.015625 4.910156 L 17.015625 3.363281 C 17.015625 3.082031 16.785156 2.847656 16.5 2.847656 C 16.214844 2.847656 15.984375 3.082031 15.984375 3.363281 L 15.984375 4.394531 L 15.210938 4.394531 C 14.925781 4.394531 14.695312 4.628906 14.695312 4.910156 C 14.695312 5.195312 14.925781 5.425781 15.210938 5.425781 Z M 15.210938 5.425781 " fill-opacity="1" fill-rule="nonzero"/><path fill="#1007aa" d="M 0.722656 18.292969 C 0.824219 18.601562 0.953125 18.910156 1.109375 19.21875 C 0.953125 19.65625 1.03125 20.171875 1.390625 20.507812 L 1.960938 21.074219 C 2.191406 21.308594 2.5 21.4375 2.835938 21.4375 C 2.992188 21.4375 3.121094 21.410156 3.273438 21.359375 C 3.558594 21.515625 3.867188 21.644531 4.203125 21.746094 C 4.410156 22.160156 4.820312 22.46875 5.3125 22.46875 L 6.109375 22.46875 C 6.601562 22.46875 7.039062 22.183594 7.21875 21.746094 C 7.527344 21.644531 7.835938 21.515625 8.148438 21.359375 C 8.277344 21.410156 8.429688 21.4375 8.585938 21.4375 C 8.921875 21.4375 9.230469 21.308594 9.460938 21.074219 L 10.027344 20.507812 C 10.390625 20.148438 10.46875 19.65625 10.3125 19.21875 C 10.46875 18.9375 10.597656 18.625 10.699219 18.292969 C 11.113281 18.085938 11.421875 17.671875 11.421875 17.183594 L 11.421875 16.382812 C 11.421875 15.894531 11.136719 15.457031 10.699219 15.273438 C 10.597656 14.964844 10.46875 14.65625 10.3125 14.347656 C 10.363281 14.21875 10.390625 14.0625 10.390625 13.910156 C 10.390625 13.574219 10.261719 13.265625 10.027344 13.03125 L 9.460938 12.464844 C 9.230469 12.234375 8.921875 12.105469 8.585938 12.105469 C 8.429688 12.105469 8.300781 12.128906 8.148438 12.179688 C 7.863281 12.027344 7.554688 11.898438 7.21875 11.792969 C 7.011719 11.382812 6.601562 11.074219 6.109375 11.074219 L 5.3125 11.074219 C 4.820312 11.074219 4.382812 11.355469 4.203125 11.792969 C 3.894531 11.898438 3.582031 12.027344 3.273438 12.179688 C 3.09375 12.15625 2.964844 12.128906 2.808594 12.128906 C 2.476562 12.128906 2.164062 12.257812 1.933594 12.492188 L 1.367188 13.058594 C 1.160156 13.265625 1.03125 13.574219 1.03125 13.910156 C 1.03125 14.0625 1.058594 14.191406 1.109375 14.347656 C 0.953125 14.628906 0.824219 14.941406 0.722656 15.273438 C 0.285156 15.457031 0 15.867188 0 16.382812 L 0 17.183594 C 0 17.671875 0.285156 18.085938 0.722656 18.292969 Z M 1.03125 16.382812 C 1.03125 16.28125 1.109375 16.175781 1.238281 16.175781 L 1.574219 16.175781 C 1.675781 15.480469 1.960938 14.835938 2.347656 14.296875 L 2.113281 14.0625 C 2.035156 13.984375 2.035156 13.855469 2.113281 13.78125 L 2.679688 13.210938 C 2.707031 13.1875 2.757812 13.160156 2.808594 13.160156 C 2.863281 13.160156 2.914062 13.1875 2.9375 13.210938 L 3.171875 13.445312 C 3.710938 13.03125 4.355469 12.773438 5.054688 12.671875 L 5.054688 12.335938 C 5.054688 12.234375 5.128906 12.128906 5.257812 12.128906 L 6.058594 12.128906 C 6.160156 12.128906 6.265625 12.207031 6.265625 12.335938 L 6.265625 12.671875 C 6.960938 12.773438 7.605469 13.058594 8.148438 13.445312 L 8.378906 13.210938 C 8.40625 13.1875 8.457031 13.160156 8.507812 13.160156 C 8.558594 13.160156 8.609375 13.1875 8.636719 13.210938 L 9.203125 13.78125 C 9.28125 13.855469 9.28125 13.984375 9.203125 14.0625 L 8.972656 14.296875 C 9.382812 14.835938 9.640625 15.480469 9.746094 16.175781 L 10.082031 16.175781 C 10.183594 16.175781 10.285156 16.253906 10.285156 16.382812 L 10.285156 17.183594 C 10.285156 17.285156 10.210938 17.390625 10.082031 17.390625 L 9.746094 17.390625 C 9.640625 18.085938 9.359375 18.730469 8.972656 19.269531 L 9.203125 19.503906 C 9.28125 19.582031 9.28125 19.710938 9.203125 19.785156 L 8.636719 20.355469 C 8.636719 20.378906 8.585938 20.378906 8.535156 20.378906 C 8.480469 20.378906 8.429688 20.355469 8.40625 20.328125 L 8.171875 20.097656 C 7.632812 20.507812 6.988281 20.765625 6.289062 20.871094 L 6.289062 21.203125 C 6.289062 21.308594 6.214844 21.410156 6.085938 21.410156 L 5.285156 21.410156 C 5.183594 21.410156 5.078125 21.332031 5.078125 21.203125 L 5.078125 20.871094 C 4.382812 20.765625 3.738281 20.484375 3.195312 20.097656 L 2.964844 20.328125 C 2.914062 20.378906 2.863281 20.378906 2.808594 20.378906 C 2.757812 20.378906 2.707031 20.355469 2.679688 20.328125 L 2.113281 19.761719 C 2.035156 19.683594 2.035156 19.554688 2.113281 19.476562 L 2.347656 19.246094 C 1.933594 18.703125 1.675781 18.058594 1.574219 17.363281 L 1.238281 17.363281 C 1.109375 17.363281 1.03125 17.285156 1.03125 17.15625 Z M 1.03125 16.382812 " fill-opacity="1" fill-rule="nonzero"/><path fill="#1007aa" d="M 5.671875 19.863281 C 7.375 19.863281 8.765625 18.472656 8.765625 16.769531 C 8.765625 15.070312 7.375 13.675781 5.671875 13.675781 C 3.96875 13.675781 2.578125 15.070312 2.578125 16.769531 C 2.578125 18.472656 3.96875 19.863281 5.671875 19.863281 Z M 5.671875 14.707031 C 6.804688 14.707031 7.734375 15.636719 7.734375 16.769531 C 7.734375 17.90625 6.804688 18.832031 5.671875 18.832031 C 4.539062 18.832031 3.609375 17.90625 3.609375 16.769531 C 3.609375 15.636719 4.539062 14.707031 5.671875 14.707031 Z M 5.671875 14.707031 " fill-opacity="1" fill-rule="nonzero"/><path fill="#1007aa" d="M 26.582031 9.808594 L 27.792969 9.808594 C 26.503906 7.667969 24.648438 5.917969 22.402344 4.78125 C 22.402344 4.832031 22.402344 4.859375 22.402344 4.910156 C 22.402344 5.246094 22.378906 5.582031 22.328125 5.890625 C 24.054688 6.84375 25.523438 8.183594 26.582031 9.808594 Z M 26.582031 9.808594 " fill-opacity="1" fill-rule="nonzero"/><path fill="#1007aa" d="M 31.453125 11.871094 L 30.394531 11.871094 C 30.265625 11.277344 29.75 10.839844 29.132812 10.839844 L 26.554688 10.839844 C 25.9375 10.839844 25.421875 11.277344 25.292969 11.871094 L 24.234375 11.871094 C 23.382812 11.871094 22.6875 12.566406 22.6875 13.417969 L 22.6875 21.152344 C 22.6875 22.003906 23.382812 22.699219 24.234375 22.699219 L 31.453125 22.699219 C 32.304688 22.699219 33 22.003906 33 21.152344 L 33 13.417969 C 33 12.566406 32.304688 11.871094 31.453125 11.871094 Z M 26.296875 12.128906 C 26.296875 11.976562 26.398438 11.871094 26.554688 11.871094 L 29.132812 11.871094 C 29.289062 11.871094 29.390625 11.976562 29.390625 12.128906 L 29.390625 12.644531 C 29.390625 12.800781 29.289062 12.902344 29.132812 12.902344 L 26.554688 12.902344 C 26.398438 12.902344 26.296875 12.800781 26.296875 12.644531 Z M 31.96875 21.152344 C 31.96875 21.4375 31.738281 21.667969 31.453125 21.667969 L 24.234375 21.667969 C 23.949219 21.667969 23.71875 21.4375 23.71875 21.152344 L 23.71875 13.417969 C 23.71875 13.136719 23.949219 12.902344 24.234375 12.902344 L 25.292969 12.902344 C 25.421875 13.496094 25.9375 13.933594 26.554688 13.933594 L 29.132812 13.933594 C 29.75 13.933594 30.265625 13.496094 30.394531 12.902344 L 31.453125 12.902344 C 31.738281 12.902344 31.96875 13.136719 31.96875 13.417969 Z M 31.96875 21.152344 " fill-opacity="1" fill-rule="nonzero"/><path fill="#1007aa" d="M 29.90625 14.964844 L 25.78125 14.964844 C 25.496094 14.964844 25.265625 15.199219 25.265625 15.480469 C 25.265625 15.765625 25.496094 15.996094 25.78125 15.996094 L 29.90625 15.996094 C 30.191406 15.996094 30.421875 15.765625 30.421875 15.480469 C 30.421875 15.199219 30.191406 14.964844 29.90625 14.964844 Z M 29.90625 14.964844 " fill-opacity="1" fill-rule="nonzero"/><path fill="#1007aa" d="M 29.90625 17.027344 L 25.78125 17.027344 C 25.496094 17.027344 25.265625 17.261719 25.265625 17.542969 C 25.265625 17.828125 25.496094 18.058594 25.78125 18.058594 L 29.90625 18.058594 C 30.191406 18.058594 30.421875 17.828125 30.421875 17.542969 C 30.421875 17.261719 30.191406 17.027344 29.90625 17.027344 Z M 29.90625 17.027344 " fill-opacity="1" fill-rule="nonzero"/><path fill="#1007aa" d="M 29.90625 19.089844 L 25.78125 19.089844 C 25.496094 19.089844 25.265625 19.324219 25.265625 19.605469 C 25.265625 19.890625 25.496094 20.121094 25.78125 20.121094 L 29.90625 20.121094 C 30.191406 20.121094 30.421875 19.890625 30.421875 19.605469 C 30.421875 19.324219 30.191406 19.089844 29.90625 19.089844 Z M 29.90625 19.089844 " fill-opacity="1" fill-rule="nonzero"/><path fill="#1007aa" d="M 6.058594 10.066406 C 6.109375 10.066406 6.160156 10.066406 6.214844 10.066406 C 7.296875 8.339844 8.816406 6.894531 10.621094 5.890625 C 10.597656 5.582031 10.570312 5.246094 10.570312 4.910156 C 10.570312 4.859375 10.570312 4.832031 10.570312 4.78125 C 8.25 5.96875 6.316406 7.824219 5.027344 10.09375 C 5.105469 10.09375 5.183594 10.066406 5.257812 10.066406 Z M 6.058594 10.066406 " fill-opacity="1" fill-rule="nonzero"/><path fill="#1007aa" d="M 27.484375 23.730469 L 26.246094 23.730469 C 25.421875 24.867188 24.390625 25.820312 23.203125 26.617188 C 22.480469 26.308594 21.734375 25.972656 21.167969 25.742188 C 20.832031 25.585938 20.574219 25.484375 20.394531 25.40625 L 19.953125 23.988281 C 21.011719 22.648438 21.65625 20.765625 21.65625 19.039062 C 21.65625 15.945312 19.464844 13.417969 16.757812 13.417969 C 14.050781 13.417969 11.859375 15.945312 11.859375 19.039062 C 11.859375 20.765625 12.503906 22.648438 13.5625 23.988281 L 13.121094 25.382812 C 12.96875 25.457031 12.683594 25.5625 12.347656 25.714844 C 11.703125 26 10.828125 26.386719 10.003906 26.722656 C 8.636719 25.84375 7.449219 24.738281 6.546875 23.394531 C 6.394531 23.421875 6.238281 23.449219 6.058594 23.449219 L 5.335938 23.449219 C 6.265625 24.917969 7.449219 26.179688 8.867188 27.1875 C 8.25 27.445312 7.785156 27.648438 7.707031 27.675781 C 7.554688 27.726562 7.425781 27.855469 7.398438 28.011719 L 6.1875 32.316406 C 6.136719 32.472656 6.1875 32.652344 6.265625 32.78125 C 6.34375 32.910156 6.523438 32.988281 6.675781 32.988281 L 26.785156 32.988281 C 26.941406 32.988281 27.097656 32.910156 27.199219 32.78125 C 27.300781 32.652344 27.328125 32.496094 27.277344 32.316406 L 26.066406 28.011719 C 26.011719 27.855469 25.910156 27.726562 25.753906 27.675781 C 25.679688 27.648438 25.058594 27.390625 24.285156 27.03125 C 25.550781 26.15625 26.632812 25.019531 27.484375 23.730469 Z M 12.890625 19.039062 C 12.890625 16.511719 14.617188 14.449219 16.757812 14.449219 C 18.898438 14.449219 20.625 16.511719 20.625 19.039062 C 20.625 21.566406 18.898438 24.761719 16.757812 24.761719 C 14.617188 24.761719 12.890625 21.589844 12.890625 19.039062 Z M 25.164062 28.578125 L 26.117188 31.980469 L 7.375 31.980469 L 8.328125 28.578125 C 8.792969 28.371094 9.925781 27.90625 12.734375 26.671875 C 13.765625 26.230469 13.765625 26.207031 13.84375 26.179688 C 13.921875 26.101562 14 26.027344 14.023438 25.921875 L 14.359375 24.839844 C 15.054688 25.433594 15.882812 25.792969 16.730469 25.792969 C 17.582031 25.792969 18.40625 25.433594 19.105469 24.839844 L 19.4375 25.921875 C 19.464844 26.027344 19.542969 26.128906 19.621094 26.179688 C 19.671875 26.230469 19.695312 26.230469 20.703125 26.671875 C 23.5625 27.882812 24.699219 28.371094 25.164062 28.578125 Z M 25.164062 28.578125 " fill-opacity="1" fill-rule="nonzero"/></svg>