<svg xmlns="http://www.w3.org/2000/svg" xmlns:xlink="http://www.w3.org/1999/xlink" width="44" zoomAndPan="magnify" viewBox="0 0 33 32.999998" height="44" preserveAspectRatio="xMidYMid meet" version="1.0"><path fill="#1007aa" d="M 13.210938 19.289062 L 13.210938 17.429688 L 22.53125 13.808594 L 31.847656 17.429688 L 31.851562 19.289062 Z M 30.753906 26.414062 L 29.65625 26.414062 L 29.65625 20.386719 L 30.753906 20.386719 Z M 31.847656 31.898438 L 13.210938 31.898438 L 13.210938 29.703125 L 31.847656 29.703125 Z M 13.757812 27.511719 L 15.953125 27.511719 L 15.953125 28.609375 L 13.757812 28.609375 Z M 20.886719 26.570312 C 20.558594 26.757812 20.335938 27.109375 20.335938 27.511719 L 20.335938 28.609375 L 17.046875 28.609375 L 17.046875 27.511719 C 17.046875 27.109375 16.824219 26.757812 16.5 26.570312 L 16.5 20.386719 L 20.886719 20.386719 Z M 23.078125 26.414062 L 21.980469 26.414062 L 21.980469 20.386719 L 23.078125 20.386719 Z M 21.433594 27.511719 L 23.625 27.511719 L 23.625 28.609375 L 21.433594 28.609375 Z M 28.558594 26.570312 C 28.234375 26.757812 28.011719 27.109375 28.011719 27.511719 L 28.011719 28.609375 L 24.722656 28.609375 L 24.722656 27.511719 C 24.722656 27.109375 24.5 26.757812 24.175781 26.570312 L 24.175781 20.386719 L 28.558594 20.386719 Z M 31.300781 28.609375 L 29.109375 28.609375 L 29.109375 27.511719 L 31.300781 27.511719 Z M 15.402344 20.386719 L 15.402344 26.414062 L 14.308594 26.414062 L 14.308594 20.386719 Z M 12.816406 16.410156 C 12.652344 16.472656 12.523438 16.578125 12.414062 16.695312 L 10.480469 14.765625 C 11.546875 13.695312 11.546875 11.957031 10.480469 10.890625 L 14.3125 7.054688 C 14.515625 6.851562 14.847656 6.839844 15.0625 7.027344 C 15.214844 7.167969 15.375 7.308594 15.535156 7.449219 C 15.394531 7.554688 15.257812 7.660156 15.128906 7.789062 C 13.847656 9.070312 13.847656 11.160156 15.128906 12.4375 C 15.769531 13.082031 16.613281 13.402344 17.453125 13.402344 C 18.296875 13.402344 19.140625 13.082031 19.78125 12.4375 C 20.839844 11.382812 21.023438 9.75 20.296875 8.488281 C 20.503906 8.148438 20.617188 7.746094 20.597656 7.332031 C 20.578125 6.773438 20.335938 6.25 19.925781 5.882812 L 17.515625 3.851562 L 18.230469 3.136719 C 18.765625 3.671875 19.464844 3.9375 20.167969 3.9375 C 20.871094 3.9375 21.574219 3.671875 22.105469 3.136719 L 24.429688 5.460938 C 23.363281 6.53125 23.363281 8.269531 24.429688 9.339844 L 20.253906 13.515625 Z M 9.703125 11.667969 C 10.34375 12.304688 10.34375 13.347656 9.703125 13.992188 L 8.539062 12.828125 Z M 5.242188 12.160156 L 1.152344 12.164062 L 1.152344 3.9375 L 6.085938 3.9375 C 6.242188 3.9375 6.390625 4.003906 6.492188 4.121094 C 6.601562 4.238281 6.648438 4.390625 6.628906 4.546875 L 5.792969 11.675781 C 5.757812 11.953125 5.523438 12.160156 5.242188 12.160156 Z M 19.003906 11.667969 C 18.152344 12.519531 16.757812 12.519531 15.90625 11.667969 C 15.050781 10.808594 15.050781 9.421875 15.90625 8.566406 C 16.054688 8.414062 16.222656 8.300781 16.402344 8.207031 C 16.863281 8.601562 17.207031 8.894531 17.207031 8.894531 C 17.816406 9.457031 18.710938 9.566406 19.449219 9.222656 C 19.8125 10.03125 19.660156 11.011719 19.003906 11.667969 Z M 14.355469 3.492188 C 14.796875 3.304688 15.289062 3.386719 15.65625 3.710938 C 15.65625 3.710938 19.203125 6.710938 19.207031 6.714844 C 19.59375 7.042969 19.597656 7.710938 19.246094 8.0625 C 18.90625 8.398438 18.300781 8.410156 17.933594 8.070312 C 17.933594 8.070312 16.140625 6.523438 15.789062 6.210938 C 15.140625 5.636719 14.152344 5.667969 13.535156 6.28125 L 8.195312 11.625 C 7.800781 11.390625 7.472656 11.144531 7 10.777344 L 7.6875 4.9375 C 10.875 4.671875 13.421875 3.886719 14.355469 3.492188 Z M 20.171875 1.199219 L 21.332031 2.359375 L 21.332031 2.363281 C 20.691406 3.003906 19.644531 3.003906 19.003906 2.363281 Z M 25.207031 8.5625 C 24.566406 7.921875 24.566406 6.878906 25.207031 6.238281 L 26.371094 7.402344 Z M 32.246094 16.410156 L 22.925781 12.785156 C 22.820312 12.742188 22.710938 12.722656 22.601562 12.71875 L 27.144531 8.175781 C 27.570312 7.75 27.570312 7.054688 27.144531 6.628906 L 20.941406 0.421875 C 20.515625 -0.0078125 19.820312 -0.00390625 19.394531 0.421875 L 16.675781 3.140625 L 16.375 2.882812 C 15.703125 2.28125 14.765625 2.125 13.925781 2.480469 C 13.050781 2.851562 10.644531 3.589844 7.589844 3.847656 C 7.519531 3.683594 7.433594 3.527344 7.3125 3.394531 C 7 3.042969 6.554688 2.84375 6.085938 2.84375 L 1.152344 2.84375 C 0.546875 2.84375 0.0546875 3.335938 0.0546875 3.9375 L 0.0546875 12.160156 C 0.0546875 12.765625 0.546875 13.257812 1.152344 13.257812 L 5.242188 13.257812 C 6 13.257812 6.644531 12.742188 6.832031 12.023438 C 7.058594 12.1875 7.273438 12.34375 7.503906 12.488281 C 7.378906 12.867188 7.460938 13.300781 7.761719 13.601562 L 12.113281 17.949219 L 12.113281 19.289062 C 12.113281 19.894531 12.605469 20.386719 13.210938 20.386719 L 13.210938 26.570312 C 12.886719 26.757812 12.664062 27.109375 12.664062 27.511719 L 12.664062 28.761719 C 12.335938 28.949219 12.113281 29.300781 12.113281 29.703125 L 12.113281 31.898438 C 12.113281 32.503906 12.605469 32.992188 13.210938 32.992188 L 31.847656 32.992188 C 32.453125 32.992188 32.945312 32.503906 32.945312 31.898438 L 32.945312 29.703125 C 32.945312 29.300781 32.722656 28.949219 32.398438 28.761719 L 32.398438 27.511719 C 32.398438 27.109375 32.175781 26.757812 31.847656 26.570312 L 31.847656 20.386719 C 32.453125 20.386719 32.945312 19.894531 32.945312 19.289062 L 32.945312 17.429688 C 32.945312 16.972656 32.671875 16.574219 32.246094 16.410156 " fill-opacity="1" fill-rule="nonzero"/><path fill="#1007aa" d="M 23.625 16.546875 L 21.433594 16.546875 C 21.132812 16.546875 20.886719 16.792969 20.886719 17.097656 C 20.886719 17.398438 21.132812 17.644531 21.433594 17.644531 L 23.625 17.644531 C 23.929688 17.644531 24.175781 17.398438 24.175781 17.097656 C 24.175781 16.792969 23.929688 16.546875 23.625 16.546875 " fill-opacity="1" fill-rule="nonzero"/></svg>