<svg xmlns="http://www.w3.org/2000/svg" xmlns:xlink="http://www.w3.org/1999/xlink" width="44" zoomAndPan="magnify" viewBox="0 0 33 32.999998" height="44" preserveAspectRatio="xMidYMid meet" version="1.0"><defs><clipPath id="613e07d5c9"><path d="M 0 1.511719 L 33 1.511719 L 33 28.511719 L 0 28.511719 Z M 0 1.511719 " clip-rule="nonzero"/></clipPath></defs><path fill="#1007aa" d="M 21.476562 15.816406 C 21.578125 15.921875 21.703125 15.972656 21.851562 15.972656 C 22 15.972656 22.125 15.921875 22.226562 15.816406 L 25.757812 12.285156 C 25.867188 12.183594 25.921875 12.054688 25.921875 11.90625 C 25.921875 11.757812 25.871094 11.632812 25.765625 11.527344 C 25.660156 11.421875 25.535156 11.371094 25.386719 11.371094 C 25.234375 11.371094 25.109375 11.425781 25.007812 11.535156 L 21.851562 14.6875 L 20.65625 13.492188 C 20.550781 13.386719 20.425781 13.332031 20.277344 13.328125 C 20.128906 13.328125 20 13.378906 19.894531 13.484375 C 19.789062 13.589844 19.738281 13.71875 19.738281 13.867188 C 19.742188 14.015625 19.796875 14.140625 19.902344 14.246094 Z M 21.476562 15.816406 " fill-opacity="1" fill-rule="nonzero"/><path fill="#1007aa" d="M 16.597656 14.144531 C 16.640625 14.777344 16.777344 15.386719 17.015625 15.972656 C 17.085938 16.15625 17.167969 16.332031 17.25 16.492188 C 17.457031 16.90625 17.707031 17.292969 18 17.648438 C 18.152344 17.835938 18.316406 18.011719 18.492188 18.175781 C 19.421875 19.082031 20.527344 19.636719 21.804688 19.84375 C 22.144531 19.902344 22.488281 19.929688 22.832031 19.929688 C 23.203125 19.929688 23.570312 19.898438 23.9375 19.832031 C 24.300781 19.765625 24.660156 19.667969 25.007812 19.535156 C 25.355469 19.40625 25.691406 19.246094 26.011719 19.058594 C 26.328125 18.867188 26.628906 18.652344 26.910156 18.410156 C 27.191406 18.167969 27.449219 17.902344 27.683594 17.613281 C 27.917969 17.324219 28.125 17.015625 28.304688 16.691406 C 28.484375 16.363281 28.632812 16.027344 28.75 15.675781 C 28.871094 15.320312 28.957031 14.960938 29.011719 14.59375 C 29.066406 14.226562 29.089844 13.855469 29.078125 13.484375 C 29.066406 13.113281 29.023438 12.746094 28.945312 12.382812 C 28.871094 12.019531 28.761719 11.664062 28.621094 11.320312 C 28.480469 10.976562 28.3125 10.648438 28.113281 10.332031 C 27.917969 10.019531 27.691406 9.722656 27.441406 9.449219 C 27.191406 9.175781 26.917969 8.925781 26.621094 8.699219 C 26.328125 8.472656 26.011719 8.277344 25.683594 8.105469 C 25.351562 7.9375 25.007812 7.796875 24.652344 7.6875 C 24.644531 7.683594 24.632812 7.683594 24.621094 7.679688 C 24.023438 7.503906 23.417969 7.417969 22.796875 7.421875 C 22.464844 7.421875 22.136719 7.453125 21.808594 7.503906 C 20.796875 7.671875 19.882812 8.066406 19.066406 8.683594 C 19.050781 8.691406 19.035156 8.703125 19.019531 8.714844 C 18.910156 8.804688 18.800781 8.894531 18.699219 8.980469 C 18.089844 9.519531 17.597656 10.15625 17.230469 10.882812 L 17.210938 10.925781 C 17.1875 10.980469 17.160156 11.035156 17.136719 11.09375 L 17.105469 11.160156 C 16.75 11.960938 16.574219 12.800781 16.574219 13.675781 C 16.574219 13.804688 16.578125 13.929688 16.589844 14.050781 C 16.589844 14.082031 16.59375 14.113281 16.597656 14.144531 Z M 18.085938 11.578125 L 18.117188 11.507812 C 18.132812 11.464844 18.152344 11.425781 18.171875 11.382812 L 18.1875 11.351562 C 18.492188 10.75 18.898438 10.226562 19.40625 9.78125 C 19.480469 9.710938 19.5625 9.644531 19.644531 9.578125 C 19.65625 9.570312 19.667969 9.5625 19.679688 9.554688 C 20.363281 9.027344 21.132812 8.695312 21.988281 8.554688 C 22.265625 8.507812 22.546875 8.484375 22.832031 8.484375 C 23.347656 8.484375 23.847656 8.558594 24.339844 8.703125 C 24.351562 8.707031 24.359375 8.710938 24.371094 8.710938 C 24.964844 8.898438 25.507812 9.179688 26 9.558594 C 26.492188 9.9375 26.902344 10.386719 27.234375 10.914062 C 27.5625 11.441406 27.792969 12.007812 27.917969 12.617188 C 28.046875 13.226562 28.0625 13.835938 27.96875 14.453125 C 27.875 15.066406 27.679688 15.644531 27.378906 16.191406 C 27.074219 16.734375 26.691406 17.207031 26.21875 17.613281 C 25.746094 18.019531 25.21875 18.328125 24.636719 18.542969 C 24.054688 18.761719 23.453125 18.867188 22.832031 18.867188 C 22.546875 18.867188 22.265625 18.84375 21.984375 18.796875 C 20.917969 18.625 20 18.160156 19.226562 17.40625 C 19.082031 17.269531 18.945312 17.125 18.820312 16.96875 C 18.578125 16.671875 18.371094 16.355469 18.199219 16.011719 C 18.128906 15.878906 18.066406 15.738281 18.003906 15.578125 C 17.804688 15.089844 17.691406 14.582031 17.660156 14.054688 C 17.660156 14.042969 17.65625 14.035156 17.652344 14.019531 C 17.652344 14.003906 17.652344 13.984375 17.652344 13.96875 C 17.640625 13.875 17.640625 13.777344 17.640625 13.675781 C 17.636719 12.945312 17.785156 12.246094 18.085938 11.578125 Z M 18.085938 11.578125 " fill-opacity="1" fill-rule="nonzero"/><g clip-path="url(#613e07d5c9)"><path fill="#1007aa" d="M 32.601562 6.445312 C 29.152344 5.507812 26.007812 3.949219 23.175781 1.765625 C 23.078125 1.683594 22.964844 1.644531 22.835938 1.644531 C 22.707031 1.644531 22.59375 1.683594 22.496094 1.765625 C 19.667969 3.949219 16.527344 5.507812 13.082031 6.445312 C 12.8125 6.515625 12.679688 6.683594 12.679688 6.960938 L 12.679688 7.417969 L 2.515625 7.417969 C 2.179688 7.417969 1.859375 7.484375 1.550781 7.613281 C 1.242188 7.742188 0.972656 7.921875 0.734375 8.160156 C 0.5 8.394531 0.316406 8.667969 0.191406 8.976562 C 0.0625 9.285156 0 9.605469 0 9.941406 L 0 25.90625 C 0 26.238281 0.0625 26.558594 0.191406 26.867188 C 0.316406 27.175781 0.5 27.449219 0.734375 27.6875 C 0.972656 27.921875 1.242188 28.105469 1.550781 28.234375 C 1.859375 28.363281 2.179688 28.425781 2.515625 28.425781 L 30.484375 28.425781 C 30.820312 28.425781 31.140625 28.363281 31.449219 28.234375 C 31.757812 28.105469 32.027344 27.921875 32.265625 27.6875 C 32.5 27.449219 32.683594 27.175781 32.808594 26.867188 C 32.9375 26.558594 33 26.238281 33 25.90625 L 33 6.960938 C 33 6.683594 32.867188 6.515625 32.601562 6.445312 Z M 22.835938 2.855469 C 25.59375 4.917969 28.625 6.421875 31.933594 7.371094 L 31.933594 15.78125 C 31.925781 15.835938 31.902344 15.976562 31.855469 16.183594 C 31.851562 16.195312 31.851562 16.203125 31.847656 16.214844 C 31.839844 16.253906 31.828125 16.296875 31.820312 16.335938 C 31.8125 16.359375 31.808594 16.378906 31.800781 16.40625 C 31.792969 16.445312 31.78125 16.488281 31.769531 16.53125 C 31.761719 16.558594 31.753906 16.585938 31.742188 16.617188 C 31.730469 16.660156 31.71875 16.707031 31.703125 16.753906 C 31.695312 16.789062 31.683594 16.824219 31.671875 16.859375 C 31.660156 16.902344 31.644531 16.949219 31.628906 16.996094 C 31.613281 17.042969 31.601562 17.082031 31.585938 17.125 C 31.574219 17.167969 31.554688 17.222656 31.535156 17.273438 C 31.519531 17.320312 31.503906 17.363281 31.488281 17.410156 C 31.46875 17.457031 31.449219 17.515625 31.429688 17.570312 C 31.410156 17.621094 31.390625 17.667969 31.371094 17.71875 C 31.351562 17.773438 31.328125 17.832031 31.304688 17.886719 C 31.28125 17.941406 31.261719 17.992188 31.238281 18.046875 C 31.214844 18.105469 31.1875 18.164062 31.164062 18.222656 C 31.136719 18.28125 31.113281 18.335938 31.085938 18.394531 C 31.058594 18.453125 31.03125 18.515625 31 18.574219 C 30.972656 18.636719 30.941406 18.695312 30.914062 18.757812 C 30.882812 18.820312 30.851562 18.882812 30.820312 18.945312 C 30.789062 19.007812 30.753906 19.070312 30.71875 19.132812 C 30.6875 19.199219 30.652344 19.261719 30.617188 19.328125 C 30.582031 19.390625 30.542969 19.457031 30.503906 19.523438 C 30.46875 19.59375 30.429688 19.65625 30.390625 19.722656 C 30.351562 19.789062 30.308594 19.859375 30.269531 19.925781 C 30.226562 19.996094 30.183594 20.0625 30.140625 20.128906 C 30.097656 20.195312 30.050781 20.269531 30.003906 20.339844 C 29.960938 20.410156 29.914062 20.472656 29.867188 20.542969 C 29.824219 20.609375 29.769531 20.6875 29.71875 20.757812 C 29.667969 20.832031 29.621094 20.894531 29.570312 20.964844 C 29.519531 21.035156 29.460938 21.113281 29.40625 21.183594 C 29.347656 21.257812 29.296875 21.324219 29.242188 21.394531 C 29.1875 21.464844 29.125 21.542969 29.0625 21.617188 C 29.007812 21.6875 28.949219 21.757812 28.890625 21.828125 C 28.824219 21.902344 28.757812 21.976562 28.691406 22.054688 C 28.632812 22.125 28.570312 22.191406 28.507812 22.261719 C 28.4375 22.339844 28.367188 22.414062 28.292969 22.492188 C 28.226562 22.5625 28.164062 22.628906 28.09375 22.699219 C 28.019531 22.773438 27.941406 22.851562 27.859375 22.929688 C 27.789062 22.996094 27.722656 23.066406 27.652344 23.132812 C 27.570312 23.210938 27.484375 23.289062 27.398438 23.367188 C 27.324219 23.433594 27.25 23.5 27.171875 23.566406 C 27.085938 23.644531 26.992188 23.722656 26.898438 23.800781 C 26.820312 23.863281 26.746094 23.929688 26.664062 23.996094 C 26.566406 24.074219 26.46875 24.152344 26.367188 24.230469 C 26.285156 24.292969 26.203125 24.355469 26.121094 24.421875 C 26.011719 24.5 25.90625 24.578125 25.796875 24.65625 C 25.710938 24.714844 25.628906 24.777344 25.539062 24.839844 C 25.425781 24.917969 25.304688 24.996094 25.183594 25.074219 C 25.097656 25.132812 25.011719 25.191406 24.921875 25.246094 C 24.792969 25.328125 24.660156 25.410156 24.523438 25.488281 C 24.4375 25.542969 24.355469 25.59375 24.269531 25.644531 C 24.117188 25.734375 23.960938 25.820312 23.800781 25.90625 C 23.726562 25.949219 23.652344 25.992188 23.574219 26.03125 C 23.335938 26.160156 23.089844 26.28125 22.839844 26.40625 C 14.925781 22.566406 13.808594 16.246094 13.738281 15.78125 L 13.746094 7.953125 L 13.746094 7.367188 C 17.054688 6.421875 20.082031 4.917969 22.835938 2.855469 Z M 2.515625 27.363281 C 2.320312 27.363281 2.136719 27.324219 1.957031 27.25 C 1.78125 27.175781 1.625 27.070312 1.488281 26.933594 C 1.351562 26.796875 1.246094 26.640625 1.175781 26.460938 C 1.101562 26.28125 1.0625 26.097656 1.066406 25.90625 L 1.066406 9.941406 C 1.0625 9.75 1.101562 9.5625 1.175781 9.382812 C 1.246094 9.207031 1.351562 9.050781 1.488281 8.914062 C 1.625 8.777344 1.78125 8.671875 1.957031 8.597656 C 2.136719 8.523438 2.320312 8.484375 2.515625 8.484375 L 12.679688 8.484375 L 12.671875 15.816406 C 12.671875 15.835938 12.675781 15.859375 12.675781 15.878906 C 12.675781 15.890625 12.679688 15.90625 12.683594 15.925781 L 12.6875 15.945312 C 12.6875 15.964844 12.691406 15.984375 12.695312 16.011719 C 12.699219 16.027344 12.703125 16.050781 12.707031 16.070312 C 12.710938 16.089844 12.714844 16.109375 12.71875 16.132812 C 12.722656 16.15625 12.726562 16.191406 12.734375 16.21875 C 12.738281 16.242188 12.742188 16.261719 12.746094 16.289062 C 12.753906 16.324219 12.761719 16.363281 12.773438 16.402344 C 12.777344 16.425781 12.78125 16.449219 12.789062 16.472656 C 12.796875 16.515625 12.808594 16.5625 12.820312 16.609375 C 12.828125 16.636719 12.832031 16.660156 12.839844 16.6875 C 12.851562 16.738281 12.867188 16.792969 12.878906 16.84375 C 12.886719 16.875 12.894531 16.902344 12.902344 16.9375 C 12.917969 16.988281 12.9375 17.046875 12.953125 17.101562 C 12.960938 17.136719 12.972656 17.171875 12.984375 17.207031 C 13 17.265625 13.019531 17.328125 13.039062 17.386719 C 13.054688 17.429688 13.0625 17.464844 13.078125 17.507812 C 13.097656 17.570312 13.121094 17.636719 13.144531 17.703125 C 13.160156 17.746094 13.171875 17.785156 13.1875 17.828125 C 13.214844 17.898438 13.242188 17.96875 13.269531 18.039062 C 13.285156 18.085938 13.300781 18.128906 13.320312 18.175781 C 13.347656 18.246094 13.378906 18.320312 13.40625 18.394531 C 13.429688 18.441406 13.445312 18.488281 13.46875 18.539062 C 13.5 18.613281 13.535156 18.691406 13.570312 18.769531 C 13.589844 18.820312 13.613281 18.871094 13.636719 18.921875 C 13.671875 19 13.710938 19.082031 13.75 19.160156 C 13.777344 19.214844 13.800781 19.269531 13.828125 19.324219 C 13.867188 19.402344 13.910156 19.484375 13.953125 19.566406 C 13.984375 19.625 14.011719 19.679688 14.042969 19.738281 C 14.085938 19.820312 14.136719 19.90625 14.183594 19.988281 C 14.214844 20.046875 14.246094 20.105469 14.28125 20.164062 C 14.332031 20.25 14.382812 20.335938 14.433594 20.417969 C 14.472656 20.480469 14.507812 20.542969 14.546875 20.605469 C 14.601562 20.691406 14.65625 20.777344 14.710938 20.863281 C 14.753906 20.925781 14.796875 20.992188 14.839844 21.054688 C 14.894531 21.140625 14.957031 21.226562 15.019531 21.316406 C 15.066406 21.382812 15.109375 21.449219 15.160156 21.515625 C 15.222656 21.601562 15.289062 21.6875 15.355469 21.773438 C 15.40625 21.84375 15.457031 21.910156 15.511719 21.980469 C 15.578125 22.066406 15.648438 22.152344 15.71875 22.238281 C 15.777344 22.308594 15.832031 22.378906 15.890625 22.449219 C 15.960938 22.535156 16.039062 22.621094 16.113281 22.703125 C 16.175781 22.777344 16.238281 22.847656 16.304688 22.921875 C 16.382812 23.003906 16.464844 23.089844 16.542969 23.175781 C 16.613281 23.25 16.679688 23.320312 16.75 23.394531 C 16.832031 23.476562 16.921875 23.5625 17.007812 23.644531 C 17.082031 23.71875 17.15625 23.792969 17.230469 23.867188 C 17.320312 23.949219 17.414062 24.03125 17.503906 24.113281 C 17.585938 24.1875 17.664062 24.261719 17.75 24.335938 C 17.84375 24.417969 17.941406 24.5 18.039062 24.578125 C 18.125 24.652344 18.214844 24.726562 18.304688 24.800781 C 18.402344 24.882812 18.507812 24.960938 18.609375 25.039062 C 18.703125 25.113281 18.800781 25.1875 18.898438 25.261719 C 19 25.335938 19.113281 25.414062 19.21875 25.492188 C 19.324219 25.570312 19.425781 25.640625 19.53125 25.714844 C 19.640625 25.789062 19.757812 25.863281 19.871094 25.9375 C 19.984375 26.011719 20.09375 26.085938 20.207031 26.15625 C 20.324219 26.230469 20.441406 26.300781 20.5625 26.375 C 20.679688 26.445312 20.800781 26.519531 20.925781 26.589844 C 21.046875 26.660156 21.171875 26.730469 21.296875 26.796875 C 21.421875 26.867188 21.554688 26.941406 21.6875 27.007812 C 21.820312 27.078125 21.949219 27.140625 22.078125 27.207031 C 22.175781 27.257812 22.269531 27.308594 22.371094 27.355469 Z M 31.933594 25.90625 C 31.9375 26.097656 31.898438 26.28125 31.824219 26.460938 C 31.753906 26.640625 31.648438 26.796875 31.511719 26.933594 C 31.375 27.070312 31.21875 27.175781 31.042969 27.25 C 30.863281 27.324219 30.679688 27.363281 30.484375 27.363281 L 23.304688 27.363281 C 23.386719 27.324219 23.457031 27.285156 23.535156 27.246094 C 23.714844 27.15625 23.894531 27.066406 24.066406 26.972656 C 24.179688 26.914062 24.292969 26.851562 24.402344 26.789062 C 24.566406 26.699219 24.730469 26.609375 24.886719 26.515625 C 24.992188 26.453125 25.101562 26.390625 25.207031 26.324219 C 25.363281 26.230469 25.511719 26.136719 25.664062 26.039062 C 25.761719 25.976562 25.859375 25.914062 25.953125 25.851562 C 26.109375 25.746094 26.261719 25.640625 26.410156 25.535156 C 26.488281 25.476562 26.570312 25.421875 26.648438 25.363281 C 26.84375 25.222656 27.03125 25.078125 27.214844 24.933594 C 27.242188 24.914062 27.273438 24.890625 27.296875 24.871094 C 27.503906 24.707031 27.703125 24.539062 27.894531 24.375 C 27.964844 24.316406 28.027344 24.253906 28.09375 24.195312 C 28.214844 24.085938 28.335938 23.976562 28.453125 23.867188 C 28.527344 23.796875 28.597656 23.726562 28.667969 23.660156 C 28.773438 23.558594 28.875 23.457031 28.972656 23.355469 C 29.042969 23.285156 29.109375 23.210938 29.179688 23.136719 C 29.273438 23.039062 29.363281 22.941406 29.453125 22.839844 C 29.515625 22.769531 29.582031 22.695312 29.644531 22.625 C 29.730469 22.523438 29.8125 22.421875 29.894531 22.324219 C 29.953125 22.253906 30.011719 22.183594 30.066406 22.113281 C 30.152344 22.007812 30.230469 21.90625 30.3125 21.800781 C 30.359375 21.738281 30.40625 21.675781 30.453125 21.613281 C 30.546875 21.484375 30.640625 21.351562 30.726562 21.222656 C 30.753906 21.1875 30.78125 21.152344 30.804688 21.117188 C 30.914062 20.953125 31.019531 20.792969 31.117188 20.632812 C 31.148438 20.585938 31.179688 20.535156 31.207031 20.484375 C 31.277344 20.375 31.34375 20.265625 31.402344 20.15625 C 31.441406 20.097656 31.472656 20.039062 31.503906 19.980469 C 31.558594 19.882812 31.609375 19.785156 31.660156 19.691406 C 31.695312 19.632812 31.726562 19.570312 31.753906 19.511719 C 31.800781 19.421875 31.847656 19.332031 31.890625 19.242188 C 31.90625 19.214844 31.921875 19.183594 31.933594 19.152344 Z M 31.933594 25.90625 " fill-opacity="1" fill-rule="nonzero"/></g><path fill="#1007aa" d="M 11.964844 18.273438 C 11.09375 17.917969 10.1875 17.679688 9.253906 17.5625 L 9.253906 17.167969 C 9.75 16.765625 10.085938 16.253906 10.261719 15.636719 C 10.472656 15.558594 10.644531 15.425781 10.777344 15.238281 C 10.90625 15.050781 10.96875 14.84375 10.96875 14.617188 L 10.96875 14.171875 C 10.972656 13.832031 10.839844 13.550781 10.582031 13.332031 C 10.585938 13.148438 10.582031 12.980469 10.582031 12.828125 L 10.582031 12.722656 C 10.582031 11.179688 9.589844 10.398438 7.632812 10.398438 C 5.679688 10.398438 4.683594 11.179688 4.683594 12.722656 L 4.683594 12.832031 C 4.683594 12.984375 4.683594 13.152344 4.683594 13.335938 C 4.425781 13.554688 4.296875 13.832031 4.296875 14.171875 L 4.296875 14.617188 C 4.296875 14.84375 4.359375 15.050781 4.488281 15.238281 C 4.621094 15.421875 4.792969 15.554688 5.003906 15.636719 C 5.179688 16.25 5.511719 16.761719 6.007812 17.164062 L 6.007812 17.5625 C 5.074219 17.683594 4.167969 17.917969 3.296875 18.273438 C 2.824219 18.480469 2.449219 18.800781 2.167969 19.230469 C 1.886719 19.660156 1.75 20.132812 1.753906 20.648438 L 1.753906 22.066406 C 1.753906 22.214844 1.804688 22.339844 1.910156 22.445312 C 2.011719 22.546875 2.140625 22.601562 2.285156 22.601562 L 12.976562 22.601562 C 13.121094 22.601562 13.246094 22.546875 13.351562 22.445312 C 13.457031 22.339844 13.507812 22.214844 13.507812 22.066406 L 13.507812 20.648438 C 13.511719 20.132812 13.371094 19.660156 13.09375 19.230469 C 12.8125 18.796875 12.4375 18.480469 11.964844 18.273438 Z M 5.421875 14.636719 L 5.355469 14.617188 L 5.367188 14.15625 C 5.488281 14.121094 5.582031 14.054688 5.65625 13.953125 C 5.730469 13.851562 5.761719 13.738281 5.757812 13.617188 C 5.742188 13.324219 5.742188 13.058594 5.742188 12.835938 L 5.742188 12.722656 C 5.742188 12.085938 5.890625 11.464844 7.632812 11.464844 C 9.375 11.464844 9.515625 12.085938 9.515625 12.722656 L 9.515625 12.832031 C 9.515625 13.054688 9.515625 13.320312 9.503906 13.609375 C 9.496094 13.734375 9.53125 13.847656 9.601562 13.949219 C 9.675781 14.050781 9.773438 14.117188 9.894531 14.152344 C 9.902344 14.15625 9.90625 14.164062 9.902344 14.171875 L 9.882812 14.640625 L 9.839844 14.640625 C 9.714844 14.640625 9.605469 14.675781 9.511719 14.75 C 9.414062 14.828125 9.351562 14.925781 9.324219 15.042969 C 9.128906 15.816406 8.804688 16.214844 8.457031 16.414062 C 8.445312 16.421875 8.429688 16.429688 8.417969 16.4375 C 8.171875 16.5625 7.90625 16.617188 7.628906 16.609375 C 7.074219 16.609375 6.289062 16.449219 5.933594 15.042969 C 5.867188 14.773438 5.695312 14.640625 5.421875 14.636719 Z M 12.441406 21.535156 L 2.816406 21.535156 L 2.816406 20.648438 C 2.816406 20.347656 2.894531 20.070312 3.058594 19.816406 C 3.222656 19.5625 3.441406 19.375 3.714844 19.25 C 4.582031 18.902344 5.480469 18.679688 6.410156 18.582031 C 6.597656 18.5625 6.757812 18.480469 6.882812 18.339844 C 7.011719 18.195312 7.074219 18.03125 7.074219 17.839844 L 7.074219 17.625 C 7.445312 17.691406 7.816406 17.691406 8.1875 17.625 L 8.1875 17.839844 C 8.1875 18.03125 8.25 18.199219 8.378906 18.339844 C 8.503906 18.480469 8.664062 18.5625 8.851562 18.582031 C 9.78125 18.679688 10.679688 18.902344 11.542969 19.25 C 11.820312 19.375 12.039062 19.5625 12.203125 19.816406 C 12.367188 20.070312 12.445312 20.347656 12.441406 20.648438 Z M 12.441406 21.535156 " fill-opacity="1" fill-rule="nonzero"/><path fill="#1007aa" d="M 12.976562 23.90625 L 2.285156 23.90625 C 2.140625 23.90625 2.011719 23.957031 1.910156 24.0625 C 1.804688 24.164062 1.753906 24.292969 1.753906 24.4375 C 1.753906 24.585938 1.804688 24.710938 1.910156 24.816406 C 2.011719 24.917969 2.140625 24.96875 2.285156 24.96875 L 12.976562 24.96875 C 13.121094 24.96875 13.246094 24.917969 13.351562 24.816406 C 13.457031 24.710938 13.507812 24.585938 13.507812 24.4375 C 13.507812 24.292969 13.457031 24.164062 13.351562 24.0625 C 13.246094 23.957031 13.121094 23.90625 12.976562 23.90625 Z M 12.976562 23.90625 " fill-opacity="1" fill-rule="nonzero"/></svg>