<svg xmlns="http://www.w3.org/2000/svg" xmlns:xlink="http://www.w3.org/1999/xlink" width="44" zoomAndPan="magnify" viewBox="0 0 33 32.999998" height="44" preserveAspectRatio="xMidYMid meet" version="1.0"><defs><clipPath id="2ced88c779"><path d="M 0 2.316406 L 33 2.316406 L 33 32.316406 L 0 32.316406 Z M 0 2.316406 " clip-rule="nonzero"/></clipPath></defs><g clip-path="url(#2ced88c779)"><path fill="#1007aa" d="M 32.753906 21.738281 L 28.996094 19.566406 L 28.996094 4.976562 C 28.996094 3.535156 27.824219 2.359375 26.378906 2.359375 L 2.632812 2.359375 C 1.191406 2.359375 0.015625 3.535156 0.015625 4.976562 L 0.015625 21.707031 C 0.015625 23.148438 1.191406 24.324219 2.632812 24.324219 L 21.128906 24.324219 L 21.128906 28.449219 C 21.128906 28.636719 21.230469 28.804688 21.390625 28.898438 L 26.808594 32.03125 C 26.890625 32.078125 26.980469 32.101562 27.070312 32.101562 C 27.160156 32.101562 27.25 32.078125 27.328125 32.03125 L 32.75 28.898438 C 32.910156 28.804688 33.011719 28.636719 33.011719 28.449219 L 33.011719 22.1875 C 33.015625 22 32.917969 21.832031 32.753906 21.738281 Z M 1.0625 7.609375 L 27.957031 7.609375 L 27.957031 10.832031 L 1.0625 10.832031 Z M 2.632812 3.402344 L 26.382812 3.402344 C 27.25 3.402344 27.957031 4.105469 27.957031 4.976562 L 27.957031 6.566406 L 1.0625 6.566406 L 1.0625 4.976562 C 1.0625 4.109375 1.765625 3.402344 2.632812 3.402344 Z M 2.632812 23.277344 C 1.765625 23.277344 1.058594 22.574219 1.058594 21.703125 L 1.058594 11.871094 L 27.953125 11.871094 L 27.953125 18.964844 L 27.328125 18.605469 C 27.171875 18.511719 26.96875 18.511719 26.808594 18.605469 L 21.390625 21.738281 C 21.230469 21.832031 21.128906 22 21.128906 22.1875 L 21.128906 23.277344 Z M 31.972656 28.148438 L 27.074219 30.976562 L 22.171875 28.148438 L 22.171875 22.488281 L 27.074219 19.65625 L 31.972656 22.488281 Z M 31.972656 28.148438 " fill-opacity="1" fill-rule="nonzero"/></g><path fill="#1007aa" d="M 24.835938 24.945312 C 24.628906 24.742188 24.300781 24.742188 24.097656 24.945312 C 23.894531 25.152344 23.894531 25.480469 24.097656 25.683594 L 25.875 27.460938 C 25.976562 27.558594 26.113281 27.613281 26.242188 27.613281 C 26.375 27.613281 26.511719 27.558594 26.613281 27.460938 L 30.164062 23.90625 C 30.371094 23.703125 30.371094 23.371094 30.164062 23.171875 C 29.960938 22.964844 29.628906 22.964844 29.429688 23.171875 L 26.242188 26.355469 Z M 24.835938 24.945312 " fill-opacity="1" fill-rule="nonzero"/><path fill="#1007aa" d="M 17.546875 16.207031 L 4.398438 16.207031 C 4.113281 16.207031 3.878906 16.4375 3.878906 16.726562 C 3.878906 17.015625 4.113281 17.246094 4.398438 17.246094 L 17.546875 17.246094 C 17.835938 17.246094 18.070312 17.015625 18.070312 16.726562 C 18.070312 16.4375 17.835938 16.207031 17.546875 16.207031 Z M 17.546875 16.207031 " fill-opacity="1" fill-rule="nonzero"/><path fill="#1007aa" d="M 14.804688 19.011719 L 4.398438 19.011719 C 4.113281 19.011719 3.878906 19.246094 3.878906 19.535156 C 3.878906 19.820312 4.113281 20.054688 4.398438 20.054688 L 14.804688 20.054688 C 15.089844 20.054688 15.324219 19.820312 15.324219 19.535156 C 15.324219 19.246094 15.085938 19.011719 14.804688 19.011719 Z M 14.804688 19.011719 " fill-opacity="1" fill-rule="nonzero"/></svg>