<svg xmlns="http://www.w3.org/2000/svg" xmlns:xlink="http://www.w3.org/1999/xlink" width="44" zoomAndPan="magnify" viewBox="0 0 33 32.999998" height="44" preserveAspectRatio="xMidYMid meet" version="1.0"><defs><clipPath id="623c9937f5"><path d="M 0 0.535156 L 33 0.535156 L 33 32.785156 L 0 32.785156 Z M 0 0.535156 " clip-rule="nonzero"/></clipPath></defs><g clip-path="url(#623c9937f5)"><path fill="#1007aa" d="M 17.933594 0.53125 C 17.277344 0.53125 16.621094 0.777344 16.125 1.273438 C 16.074219 1.324219 16.035156 1.382812 16.011719 1.449219 C 16.011719 1.449219 16.007812 1.449219 16.007812 1.453125 C 15.484375 2.074219 15.296875 2.886719 15.453125 3.640625 L 8.917969 10.175781 C 8.730469 10.132812 8.542969 10.109375 8.355469 10.109375 C 7.699219 10.109375 7.042969 10.355469 6.546875 10.851562 C 6.496094 10.902344 6.460938 10.960938 6.433594 11.027344 C 5.589844 12.027344 5.609375 13.527344 6.546875 14.46875 L 11.148438 19.070312 C 12.089844 20.011719 13.589844 20.027344 14.589844 19.183594 C 14.65625 19.15625 14.714844 19.117188 14.765625 19.070312 C 15.402344 18.429688 15.625 17.527344 15.441406 16.699219 L 17.605469 14.539062 L 30.101562 27.035156 C 30.707031 27.640625 31.699219 27.640625 32.308594 27.035156 C 32.914062 26.425781 32.914062 25.433594 32.308594 24.828125 L 19.8125 12.332031 L 21.976562 10.164062 C 22.730469 10.320312 23.546875 10.132812 24.167969 9.605469 C 24.234375 9.578125 24.292969 9.542969 24.339844 9.492188 C 25.335938 8.5 25.335938 6.867188 24.339844 5.875 L 19.742188 1.273438 C 19.246094 0.777344 18.589844 0.53125 17.933594 0.53125 Z M 17.933594 1.589844 C 18.316406 1.589844 18.699219 1.734375 18.988281 2.027344 L 23.589844 6.628906 C 24.171875 7.210938 24.171875 8.15625 23.589844 8.738281 C 23.175781 9.15625 22.578125 9.269531 22.054688 9.09375 C 22.019531 9.074219 21.984375 9.0625 21.941406 9.050781 C 21.773438 8.980469 21.613281 8.878906 21.476562 8.738281 L 16.875 4.140625 C 16.292969 3.554688 16.292969 2.609375 16.875 2.027344 C 17.167969 1.734375 17.550781 1.589844 17.933594 1.589844 Z M 15.933594 4.660156 C 15.996094 4.738281 16.054688 4.816406 16.125 4.890625 L 20.726562 9.492188 C 20.796875 9.5625 20.878906 9.621094 20.957031 9.683594 L 14.960938 15.679688 C 14.898438 15.601562 14.835938 15.523438 14.765625 15.453125 L 10.164062 10.851562 C 10.09375 10.78125 10.015625 10.714844 9.9375 10.65625 Z M 16.199219 5.683594 C 16.125 5.683594 16.066406 5.710938 16.015625 5.761719 L 15.367188 6.410156 C 15.3125 6.460938 15.285156 6.523438 15.285156 6.597656 C 15.285156 6.671875 15.3125 6.738281 15.363281 6.789062 C 15.414062 6.84375 15.480469 6.867188 15.554688 6.867188 C 15.628906 6.867188 15.691406 6.839844 15.742188 6.785156 L 16.390625 6.136719 C 16.476562 6.054688 16.5 5.957031 16.449219 5.84375 C 16.402344 5.730469 16.320312 5.679688 16.199219 5.683594 Z M 14.628906 7.253906 C 14.554688 7.253906 14.496094 7.28125 14.445312 7.332031 L 11.535156 10.242188 C 11.480469 10.292969 11.453125 10.359375 11.453125 10.433594 C 11.453125 10.507812 11.476562 10.570312 11.53125 10.621094 C 11.582031 10.675781 11.644531 10.703125 11.71875 10.699219 C 11.796875 10.699219 11.859375 10.671875 11.910156 10.617188 L 14.820312 7.710938 C 14.90625 7.625 14.929688 7.527344 14.878906 7.414062 C 14.832031 7.300781 14.75 7.25 14.628906 7.253906 Z M 8.355469 11.164062 C 8.738281 11.164062 9.121094 11.3125 9.414062 11.601562 L 14.011719 16.203125 C 14.148438 16.339844 14.25 16.496094 14.320312 16.660156 C 14.332031 16.707031 14.347656 16.75 14.371094 16.792969 C 14.539062 17.3125 14.425781 17.90625 14.011719 18.316406 C 13.429688 18.898438 12.484375 18.898438 11.898438 18.316406 L 7.300781 13.714844 C 6.714844 13.132812 6.714844 12.1875 7.300781 11.601562 C 7.589844 11.3125 7.972656 11.164062 8.355469 11.164062 Z M 19.4375 12.707031 L 31.929688 25.203125 C 32.332031 25.605469 32.332031 26.257812 31.929688 26.65625 C 31.53125 27.058594 30.875 27.058594 30.476562 26.65625 L 17.980469 14.164062 L 19.417969 12.726562 C 19.421875 12.71875 19.429688 12.714844 19.4375 12.707031 Z M 5.039062 25.019531 C 4.328125 25.019531 3.746094 25.605469 3.746094 26.316406 L 3.746094 26.382812 C 3.746094 26.460938 3.753906 26.539062 3.769531 26.617188 L 1.691406 26.617188 C 1.570312 26.617188 1.457031 26.65625 1.359375 26.734375 C 1.261719 26.8125 1.203125 26.910156 1.175781 27.03125 L 0.125 31.8125 C 0.0898438 31.980469 0.125 32.128906 0.230469 32.257812 C 0.335938 32.390625 0.476562 32.457031 0.644531 32.457031 L 21.472656 32.457031 C 21.644531 32.457031 21.78125 32.390625 21.886719 32.257812 C 21.992188 32.128906 22.027344 31.980469 21.992188 31.8125 L 20.945312 27.03125 C 20.917969 26.910156 20.855469 26.8125 20.757812 26.734375 C 20.660156 26.65625 20.550781 26.617188 20.425781 26.617188 L 18.59375 26.617188 C 18.605469 26.539062 18.617188 26.460938 18.617188 26.382812 L 18.617188 26.316406 C 18.617188 25.605469 18.03125 25.019531 17.320312 25.019531 Z M 5.039062 25.550781 L 17.320312 25.550781 C 17.742188 25.550781 18.085938 25.894531 18.085938 26.316406 L 18.085938 26.382812 C 18.085938 26.464844 18.070312 26.542969 18.042969 26.617188 L 4.316406 26.617188 C 4.292969 26.542969 4.273438 26.464844 4.273438 26.382812 L 4.273438 26.316406 C 4.273438 25.894531 4.617188 25.550781 5.039062 25.550781 Z M 2.121094 27.679688 L 20 27.679688 L 20.8125 31.394531 L 1.304688 31.394531 L 1.539062 30.332031 L 11.976562 30.332031 C 12.050781 30.335938 12.113281 30.308594 12.167969 30.257812 C 12.21875 30.203125 12.246094 30.140625 12.246094 30.066406 C 12.246094 29.992188 12.21875 29.929688 12.167969 29.878906 C 12.113281 29.828125 12.050781 29.800781 11.976562 29.800781 L 1.652344 29.800781 Z M 13.039062 29.800781 C 12.964844 29.800781 12.902344 29.828125 12.847656 29.878906 C 12.796875 29.929688 12.769531 29.992188 12.769531 30.066406 C 12.769531 30.140625 12.796875 30.203125 12.847656 30.257812 C 12.902344 30.308594 12.964844 30.335938 13.039062 30.332031 L 13.570312 30.332031 C 13.644531 30.335938 13.707031 30.308594 13.761719 30.257812 C 13.8125 30.203125 13.839844 30.140625 13.839844 30.066406 C 13.839844 29.992188 13.8125 29.929688 13.761719 29.878906 C 13.707031 29.828125 13.644531 29.800781 13.570312 29.800781 Z M 15.164062 29.800781 C 15.089844 29.800781 15.027344 29.828125 14.972656 29.878906 C 14.921875 29.929688 14.894531 29.992188 14.894531 30.066406 C 14.894531 30.140625 14.921875 30.203125 14.972656 30.257812 C 15.027344 30.308594 15.089844 30.335938 15.164062 30.332031 L 17.289062 30.332031 C 17.363281 30.335938 17.425781 30.308594 17.480469 30.257812 C 17.53125 30.203125 17.558594 30.140625 17.558594 30.066406 C 17.558594 29.992188 17.53125 29.929688 17.480469 29.878906 C 17.425781 29.828125 17.363281 29.800781 17.289062 29.800781 Z M 15.164062 29.800781 " fill-opacity="1" fill-rule="nonzero"/></g></svg>