<svg xmlns="http://www.w3.org/2000/svg" xmlns:xlink="http://www.w3.org/1999/xlink" width="44" zoomAndPan="magnify" viewBox="0 0 33 32.999998" height="44" preserveAspectRatio="xMidYMid meet" version="1.0"><defs><clipPath id="699a7ee53b"><path d="M 0.0078125 6.515625 L 32.992188 6.515625 L 32.992188 26.472656 L 0.0078125 26.472656 Z M 0.0078125 6.515625 " clip-rule="nonzero"/></clipPath></defs><g clip-path="url(#699a7ee53b)"><path fill="#1007aa" d="M 1.894531 7.296875 C 1.285156 7.296875 0.785156 7.792969 0.785156 8.40625 L 0.785156 24.585938 C 0.785156 25.195312 1.285156 25.695312 1.894531 25.695312 L 31.105469 25.695312 C 31.714844 25.695312 32.214844 25.195312 32.214844 24.585938 L 32.214844 8.40625 C 32.214844 7.792969 31.714844 7.296875 31.105469 7.296875 Z M 31.105469 26.472656 L 1.894531 26.472656 C 0.851562 26.472656 0.0078125 25.628906 0.0078125 24.585938 L 0.0078125 8.40625 C 0.0078125 7.363281 0.851562 6.515625 1.894531 6.515625 L 31.105469 6.515625 C 32.148438 6.515625 32.992188 7.363281 32.992188 8.40625 L 32.992188 24.585938 C 32.992188 25.625 32.148438 26.472656 31.105469 26.472656 " fill-opacity="1" fill-rule="nonzero"/></g><path fill="#1007aa" d="M 11.308594 23.25 C 11.136719 23.25 10.976562 23.132812 10.933594 22.957031 C 10.578125 21.609375 9.460938 20.597656 8.085938 20.378906 C 7.722656 20.324219 7.339844 20.324219 6.976562 20.378906 C 5.597656 20.597656 4.484375 21.609375 4.128906 22.957031 C 4.074219 23.167969 3.863281 23.292969 3.652344 23.234375 C 3.445312 23.179688 3.320312 22.96875 3.375 22.757812 C 3.808594 21.113281 5.175781 19.875 6.855469 19.609375 C 7.300781 19.539062 7.765625 19.539062 8.210938 19.609375 C 9.890625 19.875 11.253906 21.113281 11.6875 22.757812 C 11.742188 22.96875 11.621094 23.179688 11.410156 23.234375 C 11.375 23.246094 11.34375 23.25 11.308594 23.25 " fill-opacity="1" fill-rule="nonzero"/><path fill="#1007aa" d="M 4.140625 23.28125 L 10.921875 23.28125 L 10.921875 14.457031 L 4.140625 14.457031 Z M 11.308594 24.058594 L 3.75 24.058594 C 3.535156 24.058594 3.363281 23.886719 3.363281 23.671875 L 3.363281 14.066406 C 3.363281 13.851562 3.535156 13.675781 3.75 13.675781 L 11.308594 13.675781 C 11.523438 13.675781 11.699219 13.851562 11.699219 14.066406 L 11.699219 23.671875 C 11.699219 23.886719 11.523438 24.058594 11.308594 24.058594 " fill-opacity="1" fill-rule="nonzero"/><path fill="#1007aa" d="M 29.25 15.511719 L 14.355469 15.511719 C 14.144531 15.511719 13.96875 15.335938 13.96875 15.121094 C 13.96875 14.90625 14.144531 14.730469 14.355469 14.730469 L 29.25 14.730469 C 29.464844 14.730469 29.636719 14.90625 29.636719 15.121094 C 29.636719 15.335938 29.464844 15.511719 29.25 15.511719 " fill-opacity="1" fill-rule="nonzero"/><path fill="#1007aa" d="M 23.402344 18.011719 L 14.355469 18.011719 C 14.144531 18.011719 13.96875 17.835938 13.96875 17.621094 C 13.96875 17.40625 14.144531 17.230469 14.355469 17.230469 L 23.402344 17.230469 C 23.613281 17.230469 23.789062 17.40625 23.789062 17.621094 C 23.789062 17.835938 23.617188 18.011719 23.402344 18.011719 " fill-opacity="1" fill-rule="nonzero"/><path fill="#1007aa" d="M 27.699219 20.507812 L 14.355469 20.507812 C 14.144531 20.507812 13.96875 20.332031 13.96875 20.117188 C 13.96875 19.90625 14.144531 19.730469 14.355469 19.730469 L 27.699219 19.730469 C 27.914062 19.730469 28.089844 19.90625 28.089844 20.117188 C 28.089844 20.332031 27.917969 20.507812 27.699219 20.507812 " fill-opacity="1" fill-rule="nonzero"/><path fill="#1007aa" d="M 22.492188 23.007812 L 14.355469 23.007812 C 14.144531 23.007812 13.96875 22.832031 13.96875 22.617188 C 13.96875 22.40625 14.144531 22.230469 14.355469 22.230469 L 22.488281 22.230469 C 22.703125 22.230469 22.878906 22.40625 22.878906 22.617188 C 22.878906 22.832031 22.707031 23.007812 22.492188 23.007812 " fill-opacity="1" fill-rule="nonzero"/><path fill="#1007aa" d="M 4.140625 11.867188 L 28.859375 11.867188 L 28.859375 9.710938 L 4.140625 9.710938 Z M 29.25 12.648438 L 3.75 12.648438 C 3.535156 12.648438 3.363281 12.472656 3.363281 12.257812 L 3.363281 9.320312 C 3.363281 9.105469 3.535156 8.929688 3.75 8.929688 L 29.25 8.929688 C 29.464844 8.929688 29.636719 9.105469 29.636719 9.320312 L 29.636719 12.257812 C 29.636719 12.472656 29.464844 12.648438 29.25 12.648438 " fill-opacity="1" fill-rule="nonzero"/><path fill="#1007aa" d="M 7.53125 16.25 C 6.617188 16.25 5.875 16.992188 5.875 17.90625 C 5.875 18.816406 6.617188 19.558594 7.53125 19.558594 C 8.441406 19.558594 9.183594 18.816406 9.183594 17.90625 C 9.183594 16.992188 8.441406 16.25 7.53125 16.25 Z M 7.53125 20.335938 C 6.1875 20.335938 5.097656 19.246094 5.097656 17.90625 C 5.097656 16.5625 6.1875 15.472656 7.53125 15.472656 C 8.871094 15.472656 9.964844 16.5625 9.964844 17.90625 C 9.964844 19.246094 8.871094 20.335938 7.53125 20.335938 " fill-opacity="1" fill-rule="nonzero"/></svg>