<svg xmlns="http://www.w3.org/2000/svg" xmlns:xlink="http://www.w3.org/1999/xlink" width="44" zoomAndPan="magnify" viewBox="0 0 33 32.999998" height="44" preserveAspectRatio="xMidYMid meet" version="1.0"><path fill="#1007aa" d="M 29.804688 7.453125 L 30.871094 7.453125 L 30.871094 6.386719 L 29.804688 6.386719 L 29.804688 7.453125 " fill-opacity="1" fill-rule="nonzero"/><path fill="#1007aa" d="M 27.675781 7.453125 L 28.742188 7.453125 L 28.742188 6.386719 L 27.675781 6.386719 L 27.675781 7.453125 " fill-opacity="1" fill-rule="nonzero"/><path fill="#1007aa" d="M 25.546875 7.453125 L 26.613281 7.453125 L 26.613281 6.386719 L 25.546875 6.386719 L 25.546875 7.453125 " fill-opacity="1" fill-rule="nonzero"/><path fill="#1007aa" d="M 24.484375 6.386719 L 19.160156 6.386719 L 19.160156 7.453125 L 24.484375 7.453125 L 24.484375 6.386719 " fill-opacity="1" fill-rule="nonzero"/><path fill="#1007aa" d="M 30.871094 4.257812 L 19.160156 4.257812 L 19.160156 5.324219 L 30.871094 5.324219 L 30.871094 4.257812 " fill-opacity="1" fill-rule="nonzero"/><path fill="#1007aa" d="M 30.871094 2.128906 L 19.160156 2.128906 L 19.160156 3.195312 L 30.871094 3.195312 L 30.871094 2.128906 " fill-opacity="1" fill-rule="nonzero"/><path fill="#1007aa" d="M 31.933594 8.515625 L 26.613281 8.515625 L 26.613281 11.515625 C 26.613281 11.679688 26.375 11.765625 26.273438 11.640625 L 23.667969 8.515625 L 18.097656 8.515625 L 18.097656 1.066406 L 31.933594 1.066406 Z M 21.289062 13.839844 C 21.289062 19.121094 16.992188 23.417969 11.710938 23.417969 C 6.425781 23.417969 2.128906 19.121094 2.128906 13.839844 C 2.128906 8.554688 6.425781 4.257812 11.710938 4.257812 C 13.621094 4.257812 15.453125 4.820312 17.03125 5.878906 L 17.03125 7.207031 C 15.53125 6.003906 13.652344 5.324219 11.710938 5.324219 C 7.011719 5.324219 3.195312 9.140625 3.195312 13.839844 C 3.195312 18.535156 7.011719 22.355469 11.710938 22.355469 C 16.40625 22.355469 20.226562 18.535156 20.226562 13.839844 C 20.226562 12.324219 19.828125 10.871094 19.082031 9.582031 L 20.289062 9.582031 C 20.941406 10.898438 21.289062 12.359375 21.289062 13.839844 Z M 6.589844 25.261719 L 4.652344 24.097656 L 5.550781 22.503906 C 6.160156 22.9375 6.808594 23.3125 7.503906 23.613281 Z M 3.070312 31.59375 C 2.886719 31.917969 2.433594 32.027344 2.121094 31.824219 L 1.359375 31.3125 C 1.175781 31.191406 1.066406 30.984375 1.066406 30.765625 L 1.066406 30.652344 C 1.066406 30.539062 1.09375 30.425781 1.148438 30.328125 L 4.132812 25.027344 L 6.070312 26.191406 Z M 13.675781 13.15625 C 14.421875 12.570312 14.902344 11.664062 14.902344 10.644531 C 14.902344 8.882812 13.472656 7.453125 11.710938 7.453125 C 9.949219 7.453125 8.515625 8.882812 8.515625 10.644531 C 8.515625 11.664062 9 12.570312 9.742188 13.15625 C 7.78125 13.941406 6.386719 15.859375 6.386719 18.097656 L 6.386719 19.042969 C 5.074219 17.699219 4.257812 15.863281 4.257812 13.839844 C 4.257812 9.730469 7.601562 6.386719 11.710938 6.386719 C 13.714844 6.386719 15.648438 7.210938 17.046875 8.648438 C 17.097656 9.066406 17.390625 9.40625 17.78125 9.527344 C 18.679688 10.792969 19.160156 12.277344 19.160156 13.839844 C 19.160156 15.863281 18.347656 17.699219 17.03125 19.042969 L 17.03125 18.097656 C 17.03125 15.859375 15.640625 13.941406 13.675781 13.15625 Z M 15.96875 19.945312 C 14.761719 20.789062 13.292969 21.289062 11.710938 21.289062 C 10.128906 21.289062 8.660156 20.789062 7.453125 19.945312 L 7.453125 18.097656 C 7.453125 15.75 9.363281 13.839844 11.710938 13.839844 C 14.058594 13.839844 15.96875 15.75 15.96875 18.097656 Z M 9.582031 10.644531 C 9.582031 9.46875 10.535156 8.515625 11.710938 8.515625 C 12.882812 8.515625 13.839844 9.46875 13.839844 10.644531 C 13.839844 11.820312 12.882812 12.773438 11.710938 12.773438 C 10.535156 12.773438 9.582031 11.820312 9.582031 10.644531 Z M 31.933594 0 L 18.097656 0 C 17.511719 0 17.03125 0.476562 17.03125 1.066406 L 17.03125 4.625 C 15.417969 3.6875 13.597656 3.195312 11.710938 3.195312 C 5.839844 3.195312 1.066406 7.96875 1.066406 13.839844 C 1.066406 17.027344 2.476562 19.882812 4.707031 21.835938 L 0.222656 29.804688 C 0.078125 30.0625 0 30.355469 0 30.652344 L 0 30.765625 C 0 31.34375 0.285156 31.878906 0.769531 32.203125 L 1.53125 32.707031 C 1.816406 32.898438 2.148438 33 2.492188 33 C 3.117188 33 3.695312 32.660156 4 32.113281 L 8.511719 23.992188 C 9.523438 24.308594 10.59375 24.484375 11.710938 24.484375 C 17.578125 24.484375 22.355469 19.707031 22.355469 13.839844 C 22.355469 12.371094 22.046875 10.917969 21.460938 9.582031 L 23.167969 9.582031 L 25.453125 12.320312 C 25.695312 12.609375 26.046875 12.773438 26.417969 12.773438 C 27.113281 12.773438 27.675781 12.210938 27.675781 11.515625 L 27.675781 9.582031 L 31.933594 9.582031 C 32.523438 9.582031 33 9.101562 33 8.515625 L 33 1.066406 C 33 0.476562 32.523438 0 31.933594 0 " fill-opacity="1" fill-rule="nonzero"/><path fill="#1007aa" d="M 28.742188 18.097656 L 28.742188 18.628906 C 28.742188 18.816406 28.738281 19.003906 28.726562 19.191406 C 28.46875 23.957031 25.773438 27.109375 21.046875 28.285156 C 24.089844 26.285156 25.945312 23.644531 26.460938 20.523438 C 26.5625 19.902344 26.613281 19.261719 26.613281 18.628906 L 26.613281 18.097656 L 25.039062 18.097656 L 27.675781 14.707031 L 30.316406 18.097656 Z M 22.863281 19.160156 L 25.535156 19.160156 C 25.515625 19.558594 25.472656 19.957031 25.40625 20.351562 C 24.808594 23.996094 22.277344 26.835938 17.878906 28.789062 L 15.105469 30.023438 L 18.132812 29.804688 C 25.207031 29.300781 29.453125 25.453125 29.789062 19.25 C 29.792969 19.21875 29.792969 19.191406 29.792969 19.160156 L 32.492188 19.160156 L 27.675781 12.972656 L 22.863281 19.160156 " fill-opacity="1" fill-rule="nonzero"/></svg>