<svg xmlns="http://www.w3.org/2000/svg" xmlns:xlink="http://www.w3.org/1999/xlink" width="44" zoomAndPan="magnify" viewBox="0 0 33 32.999998" height="44" preserveAspectRatio="xMidYMid meet" version="1.0"><defs><clipPath id="19f7d77fe6"><path d="M 6 3 L 31 3 L 31 32.65625 L 6 32.65625 Z M 6 3 " clip-rule="nonzero"/></clipPath></defs><path fill="#1007aa" d="M 5.429688 12.402344 C 5.53125 12.402344 5.605469 12.402344 5.707031 12.378906 C 5.734375 12.019531 5.757812 11.691406 5.808594 11.332031 C 5.683594 11.359375 5.554688 11.382812 5.429688 11.382812 C 4.433594 11.382812 3.644531 10.59375 3.644531 9.601562 C 3.644531 8.605469 4.433594 7.816406 5.429688 7.816406 C 5.9375 7.816406 6.371094 8.019531 6.703125 8.351562 C 6.855469 8.046875 7.007812 7.714844 7.1875 7.433594 C 6.703125 7.027344 6.089844 6.796875 5.429688 6.796875 C 3.875 6.796875 2.625 8.046875 2.625 9.601562 C 2.625 11.15625 3.875 12.402344 5.429688 12.402344 Z M 5.429688 12.402344 " fill-opacity="1" fill-rule="nonzero"/><g clip-path="url(#19f7d77fe6)"><path fill="#1007aa" d="M 26.832031 23.5625 C 26.121094 22.546875 24.71875 22.289062 23.699219 22.976562 L 22.167969 20.660156 C 26.347656 17.550781 27.316406 11.640625 24.308594 7.332031 C 21.226562 2.976562 15.1875 1.90625 10.832031 4.988281 C 6.472656 8.046875 5.402344 14.109375 8.460938 18.46875 C 10.320312 21.167969 13.328125 22.597656 16.386719 22.597656 C 18.066406 22.597656 19.773438 22.164062 21.304688 21.246094 L 22.859375 23.5625 C 22.398438 23.921875 22.117188 24.40625 22.015625 24.964844 C 21.914062 25.550781 22.042969 26.164062 22.398438 26.671875 C 22.398438 26.671875 25.789062 31.3125 25.789062 31.3125 C 26.5 32.277344 27.929688 32.585938 28.949219 31.871094 C 28.949219 31.871094 29.660156 31.363281 29.660156 31.363281 C 30.679688 30.648438 30.933594 29.222656 30.222656 28.203125 Z M 9.277344 17.882812 C 6.550781 13.957031 7.492188 8.554688 11.390625 5.804688 C 12.917969 4.757812 14.652344 4.25 16.359375 4.25 C 19.085938 4.25 21.789062 5.550781 23.46875 7.945312 C 26.195312 11.867188 25.253906 17.269531 21.355469 20.023438 C 17.429688 22.75 12.027344 21.804688 9.277344 17.882812 Z M 29.585938 29.730469 C 29.535156 30.035156 29.355469 30.34375 29.074219 30.546875 L 28.363281 31.054688 C 27.800781 31.4375 27.011719 31.3125 26.601562 30.75 C 26.601562 30.75 23.214844 26.113281 23.214844 26.113281 C 22.808594 25.578125 22.984375 24.761719 23.519531 24.378906 C 23.519531 24.378906 24.234375 23.871094 24.234375 23.871094 C 24.792969 23.488281 25.585938 23.613281 25.992188 24.175781 C 25.992188 24.175781 29.382812 28.8125 29.382812 28.8125 C 29.585938 29.066406 29.660156 29.425781 29.585938 29.730469 Z M 29.585938 29.730469 " fill-opacity="1" fill-rule="nonzero"/></g><path fill="#1007aa" d="M 19.289062 10.542969 C 19.011719 10.875 18.652344 11.15625 18.269531 11.382812 C 19.621094 11.433594 20.691406 12.554688 20.691406 13.933594 L 20.691406 18.007812 C 20.691406 18.289062 20.460938 18.519531 20.183594 18.519531 L 19.671875 18.519531 L 19.671875 16.988281 C 19.671875 16.710938 19.441406 16.480469 19.164062 16.480469 C 18.882812 16.480469 18.652344 16.710938 18.652344 16.988281 L 18.652344 18.519531 L 14.09375 18.519531 L 14.09375 16.988281 C 14.09375 16.710938 13.863281 16.480469 13.582031 16.480469 C 13.300781 16.480469 13.074219 16.710938 13.074219 16.988281 L 13.074219 18.519531 L 12.5625 18.519531 C 12.28125 18.519531 12.054688 18.289062 12.054688 18.007812 L 12.054688 13.933594 C 12.054688 12.554688 13.125 11.433594 14.472656 11.382812 C 14.09375 11.15625 13.761719 10.875 13.453125 10.542969 C 12.054688 11.027344 11.035156 12.351562 11.035156 13.933594 L 11.035156 18.007812 C 11.035156 18.851562 11.722656 19.539062 12.5625 19.539062 L 20.207031 19.539062 C 21.046875 19.539062 21.738281 18.851562 21.738281 18.007812 L 21.738281 13.933594 C 21.710938 12.351562 20.691406 11.027344 19.289062 10.542969 Z M 19.289062 10.542969 " fill-opacity="1" fill-rule="nonzero"/><path fill="#1007aa" d="M 15.109375 11.664062 L 14.855469 14.824219 C 14.832031 15.054688 14.882812 15.308594 15.035156 15.488281 C 15.035156 15.488281 15.75 16.402344 15.75 16.402344 C 16.078125 16.8125 16.691406 16.8125 17.023438 16.402344 L 17.734375 15.488281 C 17.890625 15.308594 17.941406 15.054688 17.914062 14.824219 L 17.660156 11.664062 C 17.355469 11.765625 16.996094 11.84375 16.664062 11.867188 L 16.894531 14.902344 L 16.386719 15.5625 L 15.875 14.902344 L 16.105469 11.894531 C 15.773438 11.867188 15.417969 11.792969 15.109375 11.664062 Z M 15.109375 11.664062 " fill-opacity="1" fill-rule="nonzero"/><path fill="#1007aa" d="M 16.386719 10.875 C 17.941406 10.875 19.1875 9.625 19.1875 8.070312 C 19.1875 6.515625 17.914062 5.269531 16.386719 5.269531 C 14.855469 5.269531 13.582031 6.515625 13.582031 8.070312 C 13.582031 9.625 14.832031 10.875 16.386719 10.875 Z M 16.386719 6.289062 C 17.378906 6.289062 18.167969 7.078125 18.167969 8.070312 C 18.167969 9.066406 17.378906 9.855469 16.386719 9.855469 C 15.390625 9.855469 14.601562 9.066406 14.601562 8.070312 C 14.601562 7.078125 15.390625 6.289062 16.386719 6.289062 Z M 16.386719 6.289062 " fill-opacity="1" fill-rule="nonzero"/><path fill="#1007aa" d="M 27.316406 7.816406 C 28.3125 7.816406 29.101562 8.605469 29.101562 9.601562 C 29.101562 10.59375 28.3125 11.382812 27.316406 11.382812 C 27.191406 11.382812 27.0625 11.359375 26.933594 11.332031 C 26.984375 11.691406 27.011719 12.019531 27.035156 12.378906 C 27.136719 12.378906 27.214844 12.402344 27.316406 12.402344 C 28.871094 12.402344 30.121094 11.15625 30.121094 9.601562 C 30.121094 8.046875 28.871094 6.796875 27.316406 6.796875 C 26.65625 6.796875 26.042969 7.027344 25.558594 7.433594 C 25.738281 7.742188 25.914062 8.046875 26.042969 8.351562 C 26.375 8.019531 26.832031 7.816406 27.316406 7.816406 Z M 27.316406 7.816406 " fill-opacity="1" fill-rule="nonzero"/><path fill="#1007aa" d="M 8.691406 20.378906 C 8.332031 20.023438 8 19.613281 7.695312 19.207031 L 7.695312 20.046875 L 3.136719 20.046875 L 3.136719 18.519531 C 3.136719 18.238281 2.90625 18.007812 2.625 18.007812 C 2.34375 18.007812 2.117188 18.238281 2.117188 18.519531 L 2.117188 20.046875 L 1.605469 20.046875 C 1.324219 20.046875 1.097656 19.820312 1.097656 19.539062 L 1.097656 15.460938 C 1.097656 14.085938 2.167969 12.964844 3.515625 12.914062 C 3.136719 12.683594 2.804688 12.402344 2.496094 12.070312 C 1.097656 12.554688 0.078125 13.882812 0.078125 15.460938 L 0.078125 19.539062 C 0.078125 20.378906 0.765625 21.066406 1.605469 21.066406 L 9.25 21.066406 C 9.328125 21.066406 9.378906 21.066406 9.429688 21.042969 C 9.175781 20.835938 8.945312 20.609375 8.691406 20.378906 Z M 8.691406 20.378906 " fill-opacity="1" fill-rule="nonzero"/><path fill="#1007aa" d="M 4.152344 13.191406 L 3.898438 16.351562 C 3.875 16.582031 3.925781 16.835938 4.078125 17.015625 C 4.078125 17.015625 4.792969 17.933594 4.792969 17.933594 C 5.121094 18.339844 5.734375 18.339844 6.066406 17.933594 L 6.601562 17.246094 C 6.066406 16.023438 5.757812 14.695312 5.707031 13.398438 L 5.9375 16.453125 L 5.429688 17.117188 L 4.917969 16.453125 L 5.171875 13.421875 C 4.816406 13.398438 4.484375 13.320312 4.152344 13.191406 Z M 4.152344 13.191406 " fill-opacity="1" fill-rule="nonzero"/><path fill="#1007aa" d="M 27.0625 13.421875 C 27.011719 14.746094 26.707031 16.046875 26.171875 17.269531 C 26.171875 17.269531 26.707031 17.984375 26.707031 17.984375 C 27.035156 18.390625 27.648438 18.390625 27.980469 17.984375 L 28.691406 17.066406 C 28.847656 16.886719 28.898438 16.632812 28.871094 16.402344 L 28.617188 13.246094 C 28.3125 13.347656 27.953125 13.421875 27.621094 13.449219 L 27.851562 16.480469 L 27.34375 17.144531 L 26.832031 16.480469 Z M 27.0625 13.421875 " fill-opacity="1" fill-rule="nonzero"/><path fill="#1007aa" d="M 32.363281 14.007812 C 31.980469 13.089844 31.164062 12.378906 30.246094 12.070312 C 29.96875 12.402344 29.609375 12.683594 29.253906 12.914062 C 30.222656 12.9375 31.113281 13.601562 31.46875 14.492188 C 31.699219 15.078125 31.699219 15.714844 31.699219 16.351562 C 31.699219 17.347656 31.699219 18.316406 31.675781 19.308594 C 31.675781 19.488281 31.675781 19.691406 31.546875 19.84375 C 31.34375 20.097656 30.960938 20.074219 30.65625 20.046875 L 30.65625 18.722656 C 30.65625 18.59375 30.65625 18.441406 30.605469 18.316406 C 30.527344 18.136719 30.347656 18.007812 30.144531 18.007812 C 29.941406 18.007812 29.761719 18.136719 29.6875 18.316406 C 29.636719 18.441406 29.636719 18.59375 29.636719 18.722656 C 29.636719 19.15625 29.636719 19.613281 29.636719 20.046875 C 28.105469 20.046875 26.578125 20.046875 25.050781 20.046875 C 25.050781 19.765625 25.050781 19.488281 25.050781 19.179688 C 24.566406 19.765625 24.082031 20.328125 23.519531 20.863281 C 23.570312 21.015625 23.773438 21.042969 23.953125 21.042969 C 26.171875 21.042969 28.386719 21.042969 30.605469 21.042969 C 31.140625 21.042969 31.75 21.015625 32.160156 20.683594 C 32.488281 20.40625 32.640625 19.972656 32.695312 19.5625 C 32.746094 19.128906 32.695312 18.722656 32.667969 18.289062 C 32.589844 16.863281 32.921875 15.332031 32.363281 14.007812 Z M 32.363281 14.007812 " fill-opacity="1" fill-rule="nonzero"/></svg>