<svg xmlns="http://www.w3.org/2000/svg" xmlns:xlink="http://www.w3.org/1999/xlink" width="44" zoomAndPan="magnify" viewBox="0 0 33 32.999998" height="44" preserveAspectRatio="xMidYMid meet" version="1.0"><defs><clipPath id="0e7a8327cf"><path d="M 4.207031 15 L 29.707031 15 L 29.707031 33 L 4.207031 33 Z M 4.207031 15 " clip-rule="nonzero"/></clipPath></defs><path fill="#1007aa" d="M 24.375 7.5 C 24.375 3.363281 21.011719 0 16.875 0 C 6.925781 0.410156 6.929688 14.589844 16.875 15 C 21.011719 15 24.375 11.636719 24.375 7.5 Z M 10.875 7.5 C 10.875 4.191406 13.570312 1.5 16.875 1.5 C 24.824219 1.800781 24.824219 13.199219 16.875 13.5 C 13.570312 13.5 10.875 10.808594 10.875 7.5 Z M 10.875 7.5 " fill-opacity="1" fill-rule="nonzero"/><g clip-path="url(#0e7a8327cf)"><path fill="#1007aa" d="M 5.449219 20.289062 L 4.316406 30.5 C 4.246094 31.136719 4.449219 31.773438 4.875 32.25 C 5.304688 32.726562 5.914062 33 6.550781 33 L 27.199219 33 C 28.503906 33.027344 29.609375 31.792969 29.4375 30.5 C 29.4375 30.5 28.300781 20.289062 28.300781 20.289062 C 28.160156 19.019531 27.394531 17.921875 26.25 17.347656 L 21.710938 15.078125 C 21.5 14.972656 21.25 14.972656 21.039062 15.078125 C 18.433594 16.382812 15.316406 16.382812 12.710938 15.078125 C 12.5 14.972656 12.25 14.972656 12.039062 15.078125 L 7.5 17.347656 C 6.359375 17.921875 5.59375 19.019531 5.449219 20.289062 Z M 14.804688 31.5 L 16.738281 22.480469 C 16.828125 22.503906 16.921875 22.503906 17.015625 22.480469 L 18.949219 31.5 Z M 15.605469 19.5 L 18.148438 19.5 C 18.367188 19.492188 18.460938 19.800781 18.277344 19.917969 L 16.875 20.847656 L 15.476562 19.917969 C 15.292969 19.800781 15.382812 19.492188 15.605469 19.5 Z M 8.171875 18.691406 L 12.386719 16.585938 C 15.226562 17.878906 18.53125 17.878906 21.371094 16.585938 L 25.582031 18.691406 C 26.265625 19.035156 26.726562 19.695312 26.8125 20.457031 L 27.945312 30.667969 C 28.003906 31.097656 27.636719 31.511719 27.203125 31.5 L 20.484375 31.5 L 18.375 21.652344 L 19.109375 21.164062 C 20.519531 20.261719 19.828125 17.96875 18.152344 18 C 18.152344 18 15.605469 18 15.605469 18 C 14.652344 18 13.875 18.773438 13.875 19.726562 C 13.835938 20.683594 14.664062 21.214844 15.378906 21.652344 C 15.378906 21.652344 13.269531 31.5 13.269531 31.5 L 6.554688 31.5 C 6.179688 31.5 5.765625 31.175781 5.808594 30.667969 L 6.941406 20.457031 C 7.027344 19.695312 7.484375 19.035156 8.171875 18.691406 Z M 8.171875 18.691406 " fill-opacity="1" fill-rule="nonzero"/></g><path fill="#1007aa" d="M 10.125 23.25 L 13.125 23.25 C 14.105469 23.246094 14.109375 21.753906 13.125 21.75 C 13.125 21.75 10.125 21.75 10.125 21.75 C 9.144531 21.753906 9.144531 23.246094 10.125 23.25 Z M 10.125 23.25 " fill-opacity="1" fill-rule="nonzero"/></svg>