<svg xmlns="http://www.w3.org/2000/svg" xmlns:xlink="http://www.w3.org/1999/xlink" width="44" zoomAndPan="magnify" viewBox="0 0 33 32.999998" height="44" preserveAspectRatio="xMidYMid meet" version="1.0"><defs><clipPath id="ef22948c36"><path d="M 0 0 L 33 0 L 33 32.285156 L 0 32.285156 Z M 0 0 " clip-rule="nonzero"/></clipPath></defs><g clip-path="url(#ef22948c36)"><path fill="#1007aa" d="M 8.9375 28.128906 L 9.445312 29.027344 C 9.828125 29.707031 9.585938 30.570312 8.910156 30.949219 L 7.234375 31.902344 C 6.558594 32.28125 5.691406 32.039062 5.3125 31.367188 L 0.382812 22.65625 C 0 21.976562 0.238281 21.113281 0.914062 20.734375 L 2.59375 19.78125 C 3.265625 19.402344 4.128906 19.640625 4.515625 20.3125 L 4.515625 20.316406 L 4.933594 21.054688 L 9.378906 18.480469 C 10.683594 17.726562 12.015625 17.230469 13.445312 17.695312 C 14.859375 18.15625 17.167969 19.140625 19.523438 19.566406 C 19.546875 19.574219 19.570312 19.578125 19.59375 19.585938 C 20.746094 19.960938 21.449219 21.125 21.132812 22.296875 C 21.070312 22.53125 20.984375 22.742188 20.867188 22.933594 C 21.183594 22.859375 21.484375 22.738281 21.785156 22.5625 L 27.761719 19.082031 C 29.890625 17.84375 31.308594 17.964844 32.109375 18.503906 C 32.792969 18.960938 33.105469 19.746094 33.085938 20.511719 C 33.066406 21.285156 32.699219 22.027344 32.089844 22.402344 L 21.242188 29.082031 C 20.117188 29.773438 18.886719 29.9375 17.609375 29.597656 L 17.605469 29.597656 C 17.605469 29.597656 9.949219 27.546875 9.949219 27.546875 Z M 8.519531 29.550781 L 3.589844 20.839844 C 3.496094 20.671875 3.28125 20.613281 3.113281 20.707031 L 1.4375 21.65625 L 1.433594 21.65625 C 1.269531 21.75 1.210938 21.964844 1.304688 22.132812 L 6.234375 30.84375 C 6.332031 31.011719 6.546875 31.070312 6.714844 30.976562 L 8.390625 30.027344 C 8.558594 29.933594 8.617188 29.71875 8.519531 29.550781 Z M 8.414062 27.207031 L 9.609375 26.515625 C 9.730469 26.445312 9.875 26.425781 10.011719 26.464844 L 17.882812 28.570312 C 18.867188 28.835938 19.816406 28.714844 20.6875 28.175781 L 31.535156 21.5 C 31.832031 21.316406 31.988281 20.949219 32.019531 20.574219 C 32.070312 19.992188 31.796875 19.355469 31.078125 19.207031 C 30.4375 19.070312 29.53125 19.28125 28.296875 20 L 22.320312 23.480469 C 21.375 24.03125 20.382812 24.183594 19.300781 24.011719 C 19.300781 24.011719 18.558594 23.890625 18.558594 23.890625 C 18.550781 23.890625 18.542969 23.886719 18.539062 23.886719 C 18.535156 23.886719 18.535156 23.886719 18.535156 23.886719 C 17.1875 23.609375 15.9375 23.203125 14.550781 22.828125 C 14.269531 22.753906 14.101562 22.460938 14.175781 22.179688 C 14.253906 21.898438 14.542969 21.730469 14.828125 21.804688 C 16.183594 22.171875 17.410156 22.570312 18.726562 22.84375 C 19.433594 22.921875 19.949219 22.625 20.109375 22.023438 C 20.273438 21.410156 19.890625 20.8125 19.296875 20.605469 C 16.902344 20.167969 14.558594 19.171875 13.121094 18.707031 C 11.984375 18.335938 10.945312 18.804688 9.910156 19.398438 L 5.457031 21.980469 Z M 2.90625 21.785156 C 3.289062 21.730469 3.640625 21.992188 3.699219 22.375 C 3.753906 22.753906 3.488281 23.109375 3.109375 23.164062 C 2.726562 23.222656 2.375 22.957031 2.316406 22.574219 C 2.265625 22.195312 2.527344 21.839844 2.90625 21.785156 Z M 12.816406 9.40625 C 12.300781 8.925781 11.972656 8.328125 11.972656 7.578125 L 11.972656 4.207031 C 11.972656 3.523438 12.527344 2.96875 13.210938 2.96875 L 17.734375 2.96875 L 17.734375 2.019531 C 17.734375 0.914062 18.640625 0.0078125 19.742188 0.0078125 L 24.164062 0.0078125 C 25.269531 0.0078125 26.175781 0.914062 26.175781 2.019531 L 26.175781 2.96875 L 30.695312 2.96875 C 31.378906 2.96875 31.9375 3.523438 31.9375 4.207031 L 31.9375 7.578125 C 31.9375 8.328125 31.605469 8.925781 31.09375 9.40625 L 31.09375 15.386719 C 31.09375 16.4375 30.234375 17.300781 29.179688 17.300781 L 14.726562 17.300781 C 13.675781 17.300781 12.816406 16.4375 12.816406 15.386719 Z M 16.488281 4.027344 L 13.210938 4.027344 C 13.113281 4.027344 13.03125 4.109375 13.03125 4.207031 L 13.03125 7.578125 C 13.03125 8.082031 13.308594 8.453125 13.679688 8.757812 C 13.683594 8.757812 13.683594 8.757812 13.683594 8.757812 C 13.800781 8.855469 13.925781 8.945312 14.058594 9.027344 C 15.140625 9.710938 17.367188 10.101562 19.832031 10.246094 C 20.160156 9.394531 20.984375 8.789062 21.953125 8.789062 C 22.925781 8.789062 23.75 9.394531 24.074219 10.246094 C 26.546875 10.097656 28.773438 9.707031 29.847656 9.027344 C 29.980469 8.945312 30.109375 8.855469 30.226562 8.757812 C 30.597656 8.453125 30.875 8.082031 30.875 7.578125 L 30.875 4.207031 C 30.875 4.109375 30.796875 4.027344 30.695312 4.027344 L 27.417969 4.027344 L 27.417969 5.804688 C 27.417969 6.585938 26.78125 7.222656 26 7.222656 L 17.90625 7.222656 C 17.128906 7.222656 16.488281 6.582031 16.488281 5.804688 Z M 19.695312 11.300781 C 17.304688 11.152344 15.136719 10.753906 13.875 10.136719 L 13.875 15.386719 C 13.875 15.855469 14.257812 16.238281 14.726562 16.238281 L 29.179688 16.238281 C 29.648438 16.238281 30.03125 15.855469 30.03125 15.386719 L 30.03125 10.136719 C 28.777344 10.75 26.609375 11.148438 24.214844 11.300781 C 24.09375 12.441406 23.128906 13.332031 21.953125 13.332031 C 20.78125 13.332031 19.8125 12.441406 19.695312 11.300781 Z M 26.359375 4.027344 L 17.550781 4.027344 L 17.550781 5.804688 C 17.550781 6 17.710938 6.164062 17.90625 6.164062 L 26 6.164062 C 26.199219 6.164062 26.359375 6 26.359375 5.804688 Z M 25.113281 2.96875 L 25.113281 2.019531 C 25.113281 1.496094 24.6875 1.066406 24.164062 1.066406 L 19.742188 1.066406 C 19.222656 1.066406 18.792969 1.496094 18.792969 2.019531 L 18.792969 2.96875 L 19.042969 2.96875 L 19.042969 2.019531 C 19.042969 1.644531 19.371094 1.316406 19.742188 1.316406 L 24.164062 1.316406 C 24.542969 1.316406 24.863281 1.644531 24.863281 2.019531 L 24.863281 2.96875 Z M 20.105469 2.96875 L 23.804688 2.96875 L 23.804688 2.378906 L 20.105469 2.378906 Z M 20.742188 11.058594 C 20.742188 11.730469 21.285156 12.273438 21.953125 12.273438 C 22.625 12.273438 23.164062 11.730469 23.164062 11.058594 C 23.164062 10.394531 22.625 9.851562 21.953125 9.851562 C 21.28125 9.851562 20.742188 10.394531 20.742188 11.058594 Z M 20.742188 11.058594 " fill-opacity="1" fill-rule="evenodd"/></g></svg>