<svg xmlns="http://www.w3.org/2000/svg" xmlns:xlink="http://www.w3.org/1999/xlink" width="44" zoomAndPan="magnify" viewBox="0 0 33 32.999998" height="44" preserveAspectRatio="xMidYMid meet" version="1.0"><defs><clipPath id="dfd2edb2d9"><path d="M 0 0.601562 L 24 0.601562 L 24 32.101562 L 0 32.101562 Z M 0 0.601562 " clip-rule="nonzero"/></clipPath></defs><g clip-path="url(#dfd2edb2d9)"><path fill="#1007aa" d="M 21.210938 6.726562 L 16.613281 6.726562 L 16.613281 6.113281 C 16.613281 5.359375 16 4.75 15.25 4.75 L 14.402344 4.75 L 14.402344 3.484375 C 14.402344 1.894531 13.109375 0.601562 11.515625 0.601562 C 9.925781 0.601562 8.632812 1.894531 8.632812 3.484375 L 8.632812 4.75 L 7.785156 4.75 C 7.035156 4.75 6.421875 5.359375 6.421875 6.113281 L 6.421875 6.726562 L 1.824219 6.726562 C 0.832031 6.726562 0.0234375 7.535156 0.0234375 8.527344 L 0.0234375 30.59375 C 0.0234375 31.585938 0.832031 32.394531 1.824219 32.394531 L 21.210938 32.394531 C 22.203125 32.394531 23.011719 31.585938 23.011719 30.59375 L 23.011719 8.527344 C 23.011719 7.535156 22.203125 6.726562 21.210938 6.726562 Z M 9.808594 3.484375 C 9.808594 2.542969 10.574219 1.777344 11.515625 1.777344 C 12.457031 1.777344 13.222656 2.542969 13.222656 3.484375 L 13.222656 4.75 L 9.808594 4.75 Z M 7.597656 6.113281 C 7.597656 6.011719 7.679688 5.925781 7.785156 5.925781 L 15.25 5.925781 C 15.351562 5.925781 15.433594 6.007812 15.433594 6.113281 L 15.433594 8.519531 C 15.433594 8.621094 15.351562 8.703125 15.25 8.703125 L 7.785156 8.703125 C 7.683594 8.703125 7.597656 8.621094 7.597656 8.519531 Z M 21.832031 30.59375 C 21.832031 30.9375 21.554688 31.214844 21.210938 31.214844 L 1.824219 31.214844 C 1.480469 31.214844 1.199219 30.9375 1.199219 30.59375 L 1.199219 8.527344 C 1.199219 8.183594 1.480469 7.902344 1.824219 7.902344 L 6.421875 7.902344 L 6.421875 8.519531 C 6.421875 9.269531 7.035156 9.882812 7.785156 9.882812 L 15.25 9.882812 C 16.003906 9.882812 16.613281 9.269531 16.613281 8.519531 L 16.613281 7.902344 L 21.210938 7.902344 C 21.554688 7.902344 21.835938 8.183594 21.835938 8.527344 L 21.835938 30.59375 Z M 21.832031 30.59375 " fill-opacity="1" fill-rule="nonzero"/></g><path fill="#1007aa" d="M 7.28125 11.96875 L 5.617188 13.628906 L 4.695312 12.710938 C 4.464844 12.480469 4.09375 12.480469 3.863281 12.710938 C 3.632812 12.9375 3.632812 13.3125 3.863281 13.542969 L 4.941406 14.621094 C 5.125 14.800781 5.363281 14.898438 5.617188 14.902344 C 5.875 14.902344 6.113281 14.800781 6.292969 14.621094 L 8.113281 12.800781 C 8.34375 12.570312 8.34375 12.199219 8.113281 11.96875 C 7.882812 11.738281 7.507812 11.738281 7.28125 11.96875 Z M 7.28125 11.96875 " fill-opacity="1" fill-rule="nonzero"/><path fill="#1007aa" d="M 18.753906 12.757812 L 10.21875 12.757812 C 9.894531 12.757812 9.632812 13.023438 9.632812 13.347656 C 9.632812 13.671875 9.894531 13.9375 10.21875 13.9375 L 18.753906 13.9375 C 19.078125 13.9375 19.34375 13.671875 19.34375 13.347656 C 19.34375 13.023438 19.078125 12.757812 18.753906 12.757812 Z M 18.753906 12.757812 " fill-opacity="1" fill-rule="nonzero"/><path fill="#1007aa" d="M 7.28125 16.722656 L 5.617188 18.382812 L 4.695312 17.460938 C 4.464844 17.234375 4.09375 17.234375 3.863281 17.460938 C 3.632812 17.691406 3.632812 18.066406 3.863281 18.296875 L 4.941406 19.375 C 5.125 19.554688 5.363281 19.652344 5.617188 19.65625 C 5.875 19.65625 6.113281 19.554688 6.292969 19.375 L 8.113281 17.554688 C 8.34375 17.324219 8.34375 16.953125 8.113281 16.722656 C 7.882812 16.492188 7.507812 16.492188 7.28125 16.722656 Z M 7.28125 16.722656 " fill-opacity="1" fill-rule="nonzero"/><path fill="#1007aa" d="M 18.753906 17.515625 L 10.21875 17.515625 C 9.894531 17.515625 9.632812 17.777344 9.632812 18.101562 C 9.632812 18.425781 9.894531 18.691406 10.21875 18.691406 L 18.753906 18.691406 C 19.078125 18.691406 19.34375 18.425781 19.34375 18.101562 C 19.34375 17.777344 19.078125 17.515625 18.753906 17.515625 Z M 18.753906 17.515625 " fill-opacity="1" fill-rule="nonzero"/><path fill="#1007aa" d="M 7.28125 21.476562 L 5.617188 23.136719 L 4.695312 22.214844 C 4.464844 21.984375 4.09375 21.984375 3.863281 22.214844 C 3.632812 22.445312 3.632812 22.820312 3.863281 23.046875 L 4.941406 24.128906 C 5.125 24.308594 5.363281 24.40625 5.617188 24.410156 C 5.875 24.410156 6.113281 24.308594 6.292969 24.128906 L 8.113281 22.308594 C 8.34375 22.078125 8.34375 21.707031 8.113281 21.476562 C 7.882812 21.246094 7.507812 21.246094 7.28125 21.476562 Z M 7.28125 21.476562 " fill-opacity="1" fill-rule="nonzero"/><path fill="#1007aa" d="M 18.753906 22.265625 L 10.21875 22.265625 C 9.894531 22.265625 9.632812 22.53125 9.632812 22.855469 C 9.632812 23.179688 9.894531 23.445312 10.21875 23.445312 L 18.753906 23.445312 C 19.078125 23.445312 19.34375 23.179688 19.34375 22.855469 C 19.34375 22.53125 19.078125 22.265625 18.753906 22.265625 Z M 18.753906 22.265625 " fill-opacity="1" fill-rule="nonzero"/><path fill="#1007aa" d="M 7.28125 26.230469 L 5.617188 27.890625 L 4.695312 26.96875 C 4.464844 26.742188 4.09375 26.742188 3.863281 26.96875 C 3.632812 27.199219 3.632812 27.574219 3.863281 27.804688 L 4.941406 28.882812 C 5.125 29.0625 5.363281 29.160156 5.617188 29.164062 C 5.875 29.164062 6.113281 29.0625 6.292969 28.882812 L 8.113281 27.0625 C 8.34375 26.832031 8.34375 26.460938 8.113281 26.230469 C 7.882812 26 7.507812 26 7.28125 26.230469 Z M 7.28125 26.230469 " fill-opacity="1" fill-rule="nonzero"/><path fill="#1007aa" d="M 18.753906 27.019531 L 10.21875 27.019531 C 9.894531 27.019531 9.632812 27.285156 9.632812 27.609375 C 9.632812 27.933594 9.894531 28.199219 10.21875 28.199219 L 18.753906 28.199219 C 19.078125 28.199219 19.34375 27.933594 19.34375 27.609375 C 19.34375 27.285156 19.078125 27.019531 18.753906 27.019531 Z M 18.753906 27.019531 " fill-opacity="1" fill-rule="nonzero"/><path fill="#1007aa" d="M 31.742188 10.566406 L 26.066406 10.566406 C 25.316406 10.566406 24.703125 11.179688 24.703125 11.929688 L 24.703125 27.667969 C 24.703125 27.75 24.722656 27.839844 24.757812 27.914062 C 24.769531 27.949219 24.789062 27.980469 24.808594 28.007812 L 27.070312 31.292969 C 27.179688 31.453125 27.363281 31.546875 27.554688 31.546875 C 27.75 31.546875 27.929688 31.453125 28.039062 31.292969 L 30.300781 28.007812 C 30.324219 27.980469 30.339844 27.949219 30.355469 27.914062 C 30.390625 27.839844 30.410156 27.75 30.410156 27.667969 L 30.410156 11.929688 C 30.410156 11.867188 30.398438 11.804688 30.390625 11.742188 L 31.738281 11.742188 C 31.773438 11.742188 31.796875 11.769531 31.796875 11.800781 L 31.796875 18.347656 C 31.796875 18.671875 32.0625 18.9375 32.386719 18.9375 C 32.710938 18.9375 32.976562 18.671875 32.976562 18.347656 L 32.976562 11.800781 C 32.976562 11.121094 32.421875 10.566406 31.742188 10.566406 Z M 25.878906 27.226562 L 25.878906 20.753906 L 29.230469 20.753906 L 29.230469 27.226562 Z M 27.554688 29.921875 L 26.507812 28.402344 L 28.601562 28.402344 Z M 29.230469 11.929688 L 29.230469 19.578125 L 25.878906 19.578125 L 25.878906 11.929688 C 25.878906 11.828125 25.964844 11.742188 26.066406 11.742188 L 29.042969 11.742188 C 29.148438 11.742188 29.230469 11.828125 29.230469 11.929688 Z M 29.230469 11.929688 " fill-opacity="1" fill-rule="nonzero"/></svg>