<svg xmlns="http://www.w3.org/2000/svg" xmlns:xlink="http://www.w3.org/1999/xlink" width="44" zoomAndPan="magnify" viewBox="0 0 33 32.999998" height="44" preserveAspectRatio="xMidYMid meet" version="1.0"><defs><clipPath id="42eaf27280"><path d="M 22 4.050781 L 33 4.050781 L 33 12 L 22 12 Z M 22 4.050781 " clip-rule="nonzero"/></clipPath><clipPath id="165c2af227"><path d="M 22 23 L 33 23 L 33 30.300781 L 22 30.300781 Z M 22 23 " clip-rule="nonzero"/></clipPath></defs><path fill="#1007aa" d="M 7.9375 13.101562 C 3.992188 13.101562 0 12.0625 0 10.078125 C 0 8.089844 3.992188 7.050781 7.9375 7.050781 C 11.878906 7.050781 15.871094 8.089844 15.871094 10.078125 C 15.871094 12.0625 11.878906 13.101562 7.9375 13.101562 Z M 7.9375 8.078125 C 3.71875 8.078125 1.027344 9.261719 1.027344 10.078125 C 1.027344 10.890625 3.71875 12.074219 7.9375 12.074219 C 12.152344 12.074219 14.84375 10.890625 14.84375 10.078125 C 14.84375 9.261719 12.152344 8.078125 7.9375 8.078125 Z M 7.9375 8.078125 " fill-opacity="1" fill-rule="nonzero"/><path fill="#1007aa" d="M 7.9375 17.667969 C 3.992188 17.667969 0 16.628906 0 14.644531 L 0 10.078125 L 1.027344 10.078125 L 1.027344 14.644531 C 1.027344 15.457031 3.71875 16.640625 7.9375 16.640625 C 12.152344 16.640625 14.84375 15.457031 14.84375 14.644531 L 14.84375 10.078125 L 15.871094 10.078125 L 15.871094 14.644531 C 15.871094 16.628906 11.878906 17.667969 7.9375 17.667969 Z M 7.9375 17.667969 " fill-opacity="1" fill-rule="nonzero"/><path fill="#1007aa" d="M 7.9375 22.234375 C 3.992188 22.234375 0 21.195312 0 19.210938 L 0 14.644531 L 1.027344 14.644531 L 1.027344 19.210938 C 1.027344 20.023438 3.71875 21.207031 7.9375 21.207031 C 12.152344 21.207031 14.84375 20.023438 14.84375 19.210938 L 14.84375 14.644531 L 15.871094 14.644531 L 15.871094 19.210938 C 15.871094 21.195312 11.878906 22.234375 7.9375 22.234375 Z M 7.9375 22.234375 " fill-opacity="1" fill-rule="nonzero"/><path fill="#1007aa" d="M 7.9375 26.800781 C 3.992188 26.800781 0 25.761719 0 23.777344 L 0 19.210938 L 1.027344 19.210938 L 1.027344 23.777344 C 1.027344 24.589844 3.71875 25.773438 7.9375 25.773438 C 12.152344 25.773438 14.84375 24.589844 14.84375 23.777344 L 14.84375 19.210938 L 15.871094 19.210938 L 15.871094 23.777344 C 15.871094 25.761719 11.878906 26.800781 7.9375 26.800781 Z M 7.9375 26.800781 " fill-opacity="1" fill-rule="nonzero"/><path fill="#1007aa" d="M 5.082031 14.359375 L 6.222656 14.359375 L 6.222656 15.386719 L 5.082031 15.386719 Z M 5.082031 14.359375 " fill-opacity="1" fill-rule="nonzero"/><path fill="#1007aa" d="M 7.363281 14.359375 L 8.507812 14.359375 L 8.507812 15.386719 L 7.363281 15.386719 Z M 7.363281 14.359375 " fill-opacity="1" fill-rule="nonzero"/><path fill="#1007aa" d="M 9.648438 14.359375 L 10.789062 14.359375 L 10.789062 15.386719 L 9.648438 15.386719 Z M 9.648438 14.359375 " fill-opacity="1" fill-rule="nonzero"/><path fill="#1007aa" d="M 5.082031 18.925781 L 6.222656 18.925781 L 6.222656 19.953125 L 5.082031 19.953125 Z M 5.082031 18.925781 " fill-opacity="1" fill-rule="nonzero"/><path fill="#1007aa" d="M 7.363281 18.925781 L 8.507812 18.925781 L 8.507812 19.953125 L 7.363281 19.953125 Z M 7.363281 18.925781 " fill-opacity="1" fill-rule="nonzero"/><path fill="#1007aa" d="M 9.648438 18.925781 L 10.789062 18.925781 L 10.789062 19.953125 L 9.648438 19.953125 Z M 9.648438 18.925781 " fill-opacity="1" fill-rule="nonzero"/><path fill="#1007aa" d="M 5.082031 23.492188 L 6.222656 23.492188 L 6.222656 24.519531 L 5.082031 24.519531 Z M 5.082031 23.492188 " fill-opacity="1" fill-rule="nonzero"/><path fill="#1007aa" d="M 7.363281 23.492188 L 8.507812 23.492188 L 8.507812 24.519531 L 7.363281 24.519531 Z M 7.363281 23.492188 " fill-opacity="1" fill-rule="nonzero"/><path fill="#1007aa" d="M 9.648438 23.492188 L 10.789062 23.492188 L 10.789062 24.519531 L 9.648438 24.519531 Z M 9.648438 23.492188 " fill-opacity="1" fill-rule="nonzero"/><path fill="#1007aa" d="M 17.070312 21.210938 L 19.355469 21.210938 L 19.355469 22.238281 L 17.070312 22.238281 Z M 17.070312 21.210938 " fill-opacity="1" fill-rule="nonzero"/><path fill="#1007aa" d="M 17.070312 12.074219 L 19.355469 12.074219 L 19.355469 13.101562 L 17.070312 13.101562 Z M 17.070312 12.074219 " fill-opacity="1" fill-rule="nonzero"/><path fill="#1007aa" d="M 19.355469 16.640625 L 21.636719 16.640625 L 21.636719 17.671875 L 19.355469 17.671875 Z M 19.355469 16.640625 " fill-opacity="1" fill-rule="nonzero"/><path fill="#1007aa" d="M 21.636719 27.261719 L 18.839844 27.261719 L 18.839844 7.050781 L 21.636719 7.050781 L 21.636719 8.078125 L 19.867188 8.078125 L 19.867188 26.234375 L 21.636719 26.234375 Z M 21.636719 27.261719 " fill-opacity="1" fill-rule="nonzero"/><path fill="#1007aa" d="M 25.0625 7.050781 L 26.207031 7.050781 L 26.207031 8.078125 L 25.0625 8.078125 Z M 25.0625 7.050781 " fill-opacity="1" fill-rule="nonzero"/><path fill="#1007aa" d="M 27.347656 7.050781 L 28.488281 7.050781 L 28.488281 8.078125 L 27.347656 8.078125 Z M 27.347656 7.050781 " fill-opacity="1" fill-rule="nonzero"/><path fill="#1007aa" d="M 29.632812 7.050781 L 32.484375 7.050781 L 32.484375 8.078125 L 29.632812 8.078125 Z M 29.632812 7.050781 " fill-opacity="1" fill-rule="nonzero"/><g clip-path="url(#42eaf27280)"><path fill="#1007aa" d="M 31.914062 11.046875 L 23.921875 11.046875 C 23.632812 11.046875 23.359375 10.933594 23.15625 10.730469 C 22.949219 10.523438 22.835938 10.25 22.835938 9.960938 L 22.835938 5.164062 C 22.835938 4.875 22.949219 4.601562 23.15625 4.398438 C 23.359375 4.195312 23.632812 4.082031 23.921875 4.082031 L 31.914062 4.082031 C 32.203125 4.082031 32.476562 4.195312 32.683594 4.398438 C 32.886719 4.601562 33 4.875 33 5.164062 L 33 9.960938 C 33 10.25 32.886719 10.523438 32.683594 10.730469 C 32.476562 10.933594 32.207031 11.046875 31.914062 11.046875 Z M 23.921875 5.109375 C 23.90625 5.109375 23.894531 5.113281 23.882812 5.125 C 23.867188 5.140625 23.863281 5.15625 23.863281 5.164062 L 23.863281 9.960938 C 23.863281 9.972656 23.867188 9.988281 23.882812 10.003906 C 23.894531 10.011719 23.90625 10.019531 23.921875 10.019531 L 31.914062 10.019531 C 31.929688 10.019531 31.945312 10.011719 31.957031 10.003906 C 31.96875 9.988281 31.972656 9.972656 31.972656 9.960938 L 31.972656 5.164062 C 31.972656 5.15625 31.96875 5.140625 31.957031 5.125 C 31.945312 5.113281 31.929688 5.109375 31.914062 5.109375 Z M 23.921875 5.109375 " fill-opacity="1" fill-rule="nonzero"/></g><path fill="#1007aa" d="M 25.0625 16.640625 L 26.207031 16.640625 L 26.207031 17.667969 L 25.0625 17.667969 Z M 25.0625 16.640625 " fill-opacity="1" fill-rule="nonzero"/><path fill="#1007aa" d="M 27.347656 16.640625 L 28.488281 16.640625 L 28.488281 17.667969 L 27.347656 17.667969 Z M 27.347656 16.640625 " fill-opacity="1" fill-rule="nonzero"/><path fill="#1007aa" d="M 29.632812 16.640625 L 32.484375 16.640625 L 32.484375 17.667969 L 29.632812 17.667969 Z M 29.632812 16.640625 " fill-opacity="1" fill-rule="nonzero"/><path fill="#1007aa" d="M 31.914062 20.636719 L 23.921875 20.636719 C 23.632812 20.636719 23.359375 20.523438 23.15625 20.320312 C 22.949219 20.117188 22.835938 19.84375 22.835938 19.554688 L 22.835938 14.757812 C 22.835938 14.46875 22.949219 14.195312 23.15625 13.988281 C 23.359375 13.785156 23.632812 13.671875 23.921875 13.671875 L 31.914062 13.671875 C 32.203125 13.671875 32.476562 13.785156 32.683594 13.988281 C 32.886719 14.195312 33 14.46875 33 14.757812 L 33 19.554688 C 33 19.84375 32.886719 20.117188 32.683594 20.320312 C 32.476562 20.523438 32.203125 20.636719 31.914062 20.636719 Z M 23.921875 14.699219 C 23.910156 14.699219 23.894531 14.703125 23.882812 14.71875 C 23.871094 14.726562 23.863281 14.742188 23.863281 14.757812 L 23.863281 19.554688 C 23.863281 19.5625 23.867188 19.578125 23.882812 19.59375 C 23.894531 19.605469 23.90625 19.609375 23.921875 19.609375 L 31.914062 19.609375 C 31.929688 19.609375 31.945312 19.605469 31.957031 19.59375 C 31.96875 19.578125 31.972656 19.5625 31.972656 19.554688 L 31.972656 14.757812 C 31.972656 14.742188 31.964844 14.726562 31.957031 14.714844 C 31.941406 14.703125 31.925781 14.699219 31.914062 14.699219 Z M 23.921875 14.699219 " fill-opacity="1" fill-rule="nonzero"/><path fill="#1007aa" d="M 25.0625 26.234375 L 26.207031 26.234375 L 26.207031 27.261719 L 25.0625 27.261719 Z M 25.0625 26.234375 " fill-opacity="1" fill-rule="nonzero"/><path fill="#1007aa" d="M 27.347656 26.234375 L 28.488281 26.234375 L 28.488281 27.261719 L 27.347656 27.261719 Z M 27.347656 26.234375 " fill-opacity="1" fill-rule="nonzero"/><path fill="#1007aa" d="M 29.632812 26.234375 L 32.484375 26.234375 L 32.484375 27.261719 L 29.632812 27.261719 Z M 29.632812 26.234375 " fill-opacity="1" fill-rule="nonzero"/><g clip-path="url(#165c2af227)"><path fill="#1007aa" d="M 31.914062 30.230469 L 23.921875 30.230469 C 23.632812 30.230469 23.359375 30.117188 23.15625 29.914062 C 22.949219 29.707031 22.835938 29.433594 22.835938 29.144531 L 22.835938 24.347656 C 22.835938 24.058594 22.949219 23.785156 23.15625 23.582031 C 23.359375 23.375 23.632812 23.261719 23.921875 23.261719 L 31.914062 23.261719 C 32.203125 23.261719 32.476562 23.375 32.683594 23.582031 C 32.886719 23.785156 33 24.058594 33 24.347656 L 33 29.144531 C 33 29.433594 32.886719 29.707031 32.683594 29.910156 C 32.476562 30.117188 32.203125 30.230469 31.914062 30.230469 Z M 23.921875 24.292969 C 23.90625 24.292969 23.894531 24.296875 23.882812 24.308594 C 23.871094 24.320312 23.863281 24.332031 23.863281 24.347656 L 23.863281 29.144531 C 23.863281 29.160156 23.871094 29.175781 23.882812 29.1875 C 23.890625 29.195312 23.90625 29.203125 23.921875 29.203125 L 31.914062 29.203125 C 31.929688 29.203125 31.945312 29.195312 31.957031 29.183594 C 31.964844 29.175781 31.972656 29.160156 31.972656 29.144531 L 31.972656 24.347656 C 31.972656 24.332031 31.964844 24.320312 31.953125 24.308594 C 31.945312 24.296875 31.929688 24.292969 31.914062 24.292969 Z M 23.921875 24.292969 " fill-opacity="1" fill-rule="nonzero"/></g></svg>