<svg xmlns="http://www.w3.org/2000/svg" xmlns:xlink="http://www.w3.org/1999/xlink" width="44" zoomAndPan="magnify" viewBox="0 0 33 32.999998" height="44" preserveAspectRatio="xMidYMid meet" version="1.0"><defs><clipPath id="c927cd3927"><path d="M 4.050781 0 L 28.6875 0 L 28.6875 33 L 4.050781 33 Z M 4.050781 0 " clip-rule="nonzero"/></clipPath></defs><g clip-path="url(#c927cd3927)"><path fill="#1007aa" d="M 27.398438 33.007812 L 5.199219 33.007812 C 4.566406 33.007812 4.050781 32.488281 4.050781 31.855469 L 4.050781 1.152344 C 4.050781 0.519531 4.566406 0 5.199219 0 L 27.398438 0 C 28.03125 0 28.546875 0.519531 28.546875 1.152344 L 28.546875 31.855469 C 28.546875 32.488281 28.03125 33.007812 27.398438 33.007812 Z M 5.199219 0.648438 C 4.921875 0.648438 4.691406 0.875 4.691406 1.152344 L 4.691406 31.855469 C 4.691406 32.136719 4.921875 32.363281 5.199219 32.363281 L 27.398438 32.363281 C 27.675781 32.363281 27.90625 32.136719 27.90625 31.855469 L 27.90625 1.152344 C 27.90625 0.875 27.675781 0.648438 27.398438 0.648438 Z M 5.199219 0.648438 " fill-opacity="1" fill-rule="evenodd"/></g><path fill="#1007aa" d="M 16.765625 8.960938 C 15.785156 8.960938 14.992188 8.214844 14.992188 7.296875 C 14.992188 7.117188 15.136719 6.976562 15.3125 6.976562 C 15.492188 6.976562 15.636719 7.117188 15.636719 7.296875 C 15.636719 7.859375 16.140625 8.316406 16.765625 8.316406 C 17.386719 8.316406 17.894531 7.859375 17.894531 7.296875 C 17.894531 6.734375 17.386719 6.277344 16.765625 6.277344 C 15.789062 6.277344 14.992188 5.53125 14.992188 4.613281 C 14.992188 3.695312 15.789062 2.949219 16.765625 2.949219 C 17.742188 2.949219 18.539062 3.695312 18.539062 4.613281 C 18.539062 4.792969 18.394531 4.9375 18.214844 4.9375 C 18.039062 4.9375 17.894531 4.792969 17.894531 4.613281 C 17.894531 4.050781 17.386719 3.59375 16.765625 3.59375 C 16.144531 3.59375 15.636719 4.050781 15.636719 4.613281 C 15.636719 5.175781 16.144531 5.632812 16.765625 5.632812 C 17.742188 5.632812 18.539062 6.378906 18.539062 7.296875 C 18.539062 8.214844 17.742188 8.960938 16.765625 8.960938 Z M 16.765625 8.960938 " fill-opacity="1" fill-rule="evenodd"/><path fill="#1007aa" d="M 11.113281 8.960938 C 9.480469 8.960938 8.148438 7.628906 8.148438 5.996094 C 8.148438 4.359375 9.480469 3.027344 11.113281 3.027344 C 12.175781 3.027344 13.160156 3.597656 13.6875 4.519531 C 13.777344 4.671875 13.722656 4.871094 13.570312 4.957031 C 13.414062 5.046875 13.21875 4.992188 13.128906 4.839844 C 12.714844 4.121094 11.945312 3.671875 11.113281 3.671875 C 9.835938 3.671875 8.792969 4.714844 8.792969 5.996094 C 8.792969 7.273438 9.835938 8.316406 11.113281 8.316406 C 12.289062 8.316406 13.261719 7.4375 13.414062 6.304688 L 12.152344 6.304688 C 11.972656 6.304688 11.828125 6.160156 11.828125 5.984375 C 11.828125 5.804688 11.972656 5.660156 12.152344 5.660156 L 13.757812 5.660156 C 13.9375 5.660156 14.082031 5.804688 14.082031 5.984375 L 14.082031 5.996094 C 14.082031 7.628906 12.75 8.960938 11.113281 8.960938 Z M 11.113281 8.960938 " fill-opacity="1" fill-rule="evenodd"/><path fill="#1007aa" d="M 21.792969 8.960938 C 21.617188 8.960938 21.472656 8.816406 21.472656 8.636719 L 21.472656 3.273438 C 21.472656 3.09375 21.617188 2.949219 21.792969 2.949219 C 21.972656 2.949219 22.117188 3.09375 22.117188 3.273438 L 22.117188 8.636719 C 22.117188 8.816406 21.972656 8.960938 21.792969 8.960938 Z M 21.792969 8.960938 " fill-opacity="1" fill-rule="evenodd"/><path fill="#1007aa" d="M 24.125 3.59375 L 19.460938 3.59375 C 19.285156 3.59375 19.140625 3.449219 19.140625 3.273438 C 19.140625 3.09375 19.285156 2.949219 19.460938 2.949219 L 24.125 2.949219 C 24.304688 2.949219 24.449219 3.09375 24.449219 3.273438 C 24.449219 3.449219 24.304688 3.59375 24.125 3.59375 Z M 24.125 3.59375 " fill-opacity="1" fill-rule="evenodd"/><path fill="#1007aa" d="M 22.777344 12.46875 L 9.820312 12.46875 C 9.644531 12.46875 9.5 12.324219 9.5 12.148438 C 9.5 11.96875 9.644531 11.824219 9.820312 11.824219 L 22.777344 11.824219 C 22.953125 11.824219 23.097656 11.96875 23.097656 12.148438 C 23.097656 12.324219 22.953125 12.46875 22.777344 12.46875 Z M 22.777344 12.46875 " fill-opacity="1" fill-rule="evenodd"/><path fill="#1007aa" d="M 22.777344 15.824219 L 9.820312 15.824219 C 9.644531 15.824219 9.5 15.683594 9.5 15.503906 C 9.5 15.324219 9.644531 15.179688 9.820312 15.179688 L 22.777344 15.179688 C 22.953125 15.179688 23.097656 15.324219 23.097656 15.503906 C 23.097656 15.683594 22.953125 15.824219 22.777344 15.824219 Z M 22.777344 15.824219 " fill-opacity="1" fill-rule="evenodd"/><path fill="#1007aa" d="M 22.777344 19.183594 L 9.820312 19.183594 C 9.644531 19.183594 9.5 19.039062 9.5 18.859375 C 9.5 18.683594 9.644531 18.539062 9.820312 18.539062 L 22.777344 18.539062 C 22.953125 18.539062 23.097656 18.683594 23.097656 18.859375 C 23.097656 19.039062 22.953125 19.183594 22.777344 19.183594 Z M 22.777344 19.183594 " fill-opacity="1" fill-rule="evenodd"/><path fill="#1007aa" d="M 16.296875 28.25 C 15.40625 28.25 14.679688 27.523438 14.679688 26.632812 C 14.679688 26.453125 14.824219 26.3125 15.003906 26.3125 C 15.179688 26.3125 15.324219 26.453125 15.324219 26.632812 C 15.324219 27.167969 15.761719 27.605469 16.296875 27.605469 C 16.835938 27.605469 17.273438 27.167969 17.273438 26.632812 C 17.273438 26.09375 16.835938 25.660156 16.296875 25.660156 C 15.40625 25.660156 14.679688 24.933594 14.679688 24.039062 C 14.679688 23.148438 15.40625 22.421875 16.296875 22.421875 C 17.191406 22.421875 17.917969 23.148438 17.917969 24.039062 C 17.917969 24.21875 17.773438 24.363281 17.59375 24.363281 C 17.417969 24.363281 17.273438 24.21875 17.273438 24.039062 C 17.273438 23.503906 16.835938 23.066406 16.296875 23.066406 C 15.761719 23.066406 15.324219 23.503906 15.324219 24.039062 C 15.324219 24.578125 15.761719 25.015625 16.296875 25.015625 C 17.191406 25.015625 17.917969 25.738281 17.917969 26.632812 C 17.917969 27.523438 17.191406 28.25 16.296875 28.25 Z M 16.296875 28.25 " fill-opacity="1" fill-rule="evenodd"/><path fill="#1007aa" d="M 16.296875 28.820312 C 16.121094 28.820312 15.976562 28.675781 15.976562 28.496094 L 15.976562 22.175781 C 15.976562 21.996094 16.121094 21.851562 16.296875 21.851562 C 16.476562 21.851562 16.621094 21.996094 16.621094 22.175781 L 16.621094 28.496094 C 16.621094 28.675781 16.476562 28.820312 16.296875 28.820312 Z M 16.296875 28.820312 " fill-opacity="1" fill-rule="evenodd"/><path fill="#1007aa" d="M 16.296875 30.058594 C 13.695312 30.058594 11.574219 27.941406 11.574219 25.335938 C 11.574219 22.730469 13.695312 20.613281 16.296875 20.613281 C 18.902344 20.613281 21.023438 22.730469 21.023438 25.335938 C 21.023438 27.941406 18.902344 30.058594 16.296875 30.058594 Z M 16.296875 21.257812 C 14.050781 21.257812 12.21875 23.085938 12.21875 25.335938 C 12.21875 27.585938 14.050781 29.414062 16.296875 29.414062 C 18.546875 29.414062 20.378906 27.585938 20.378906 25.335938 C 20.378906 23.085938 18.546875 21.257812 16.296875 21.257812 Z M 16.296875 21.257812 " fill-opacity="1" fill-rule="evenodd"/></svg>