<svg xmlns="http://www.w3.org/2000/svg" xmlns:xlink="http://www.w3.org/1999/xlink" width="44" zoomAndPan="magnify" viewBox="0 0 33 32.999998" height="44" preserveAspectRatio="xMidYMid meet" version="1.0"><defs><clipPath id="4059316404"><path d="M 0 7 L 32.878906 7 L 32.878906 28.625 L 0 28.625 Z M 0 7 " clip-rule="nonzero"/></clipPath><clipPath id="4aca88c1c1"><path d="M 2 20 L 11 20 L 11 28.625 L 2 28.625 Z M 2 20 " clip-rule="nonzero"/></clipPath><clipPath id="449fa10a67"><path d="M 12 20 L 21 20 L 21 28.625 L 12 28.625 Z M 12 20 " clip-rule="nonzero"/></clipPath><clipPath id="5f187609de"><path d="M 10 25 L 13 25 L 13 28.625 L 10 28.625 Z M 10 25 " clip-rule="nonzero"/></clipPath></defs><g clip-path="url(#4059316404)"><path fill="#1007aa" d="M 32.320312 28.570312 L 0.523438 28.570312 C 0.238281 28.570312 0.0078125 28.339844 0.0078125 28.058594 L 0.0078125 7.847656 C 0.0078125 7.5625 0.238281 7.332031 0.523438 7.332031 L 15.800781 7.332031 C 16.085938 7.332031 16.3125 7.5625 16.3125 7.847656 C 16.3125 8.128906 16.085938 8.359375 15.800781 8.359375 L 1.035156 8.359375 L 1.035156 27.542969 L 31.808594 27.542969 L 31.808594 8.359375 L 26.667969 8.359375 C 26.386719 8.359375 26.15625 8.128906 26.15625 7.847656 C 26.15625 7.5625 26.386719 7.332031 26.667969 7.332031 L 32.320312 7.332031 C 32.601562 7.332031 32.832031 7.5625 32.832031 7.847656 L 32.832031 28.058594 C 32.832031 28.339844 32.601562 28.570312 32.320312 28.570312 Z M 32.320312 28.570312 " fill-opacity="1" fill-rule="nonzero"/></g><g clip-path="url(#4aca88c1c1)"><path fill="#1007aa" d="M 3.308594 28.570312 C 3.027344 28.570312 2.796875 28.339844 2.796875 28.058594 L 2.796875 25.886719 C 2.796875 24.769531 3.515625 23.800781 4.582031 23.476562 L 9.019531 21.898438 L 9.761719 20.429688 C 9.890625 20.175781 10.199219 20.074219 10.453125 20.203125 C 10.703125 20.332031 10.804688 20.640625 10.679688 20.890625 L 9.84375 22.542969 C 9.785156 22.664062 9.679688 22.753906 9.558594 22.796875 L 4.914062 24.445312 C 4.90625 24.449219 4.898438 24.449219 4.890625 24.453125 C 4.261719 24.640625 3.824219 25.230469 3.824219 25.886719 L 3.824219 28.058594 C 3.824219 28.339844 3.59375 28.570312 3.308594 28.570312 Z M 3.308594 28.570312 " fill-opacity="1" fill-rule="nonzero"/></g><g clip-path="url(#449fa10a67)"><path fill="#1007aa" d="M 19.75 28.570312 C 19.464844 28.570312 19.234375 28.339844 19.234375 28.058594 L 19.234375 25.886719 C 19.234375 25.230469 18.796875 24.640625 18.167969 24.453125 C 18.160156 24.449219 18.152344 24.449219 18.144531 24.445312 L 13.5 22.796875 C 13.378906 22.753906 13.273438 22.664062 13.214844 22.546875 L 12.378906 20.890625 C 12.253906 20.640625 12.355469 20.332031 12.605469 20.203125 C 12.859375 20.074219 13.167969 20.175781 13.296875 20.429688 L 14.039062 21.898438 L 18.476562 23.476562 C 19.542969 23.800781 20.261719 24.769531 20.261719 25.886719 L 20.261719 28.058594 C 20.261719 28.339844 20.03125 28.570312 19.75 28.570312 Z M 19.75 28.570312 " fill-opacity="1" fill-rule="nonzero"/></g><path fill="#1007aa" d="M 11.527344 21.398438 C 9.078125 21.398438 7.085938 19.402344 7.085938 16.953125 L 7.085938 14.453125 C 7.085938 14.167969 7.316406 13.9375 7.597656 13.9375 C 7.882812 13.9375 8.109375 14.167969 8.109375 14.453125 L 8.109375 16.953125 C 8.109375 18.835938 9.644531 20.371094 11.527344 20.371094 C 13.414062 20.371094 14.945312 18.835938 14.945312 16.953125 L 14.945312 14.453125 C 14.945312 14.167969 15.175781 13.9375 15.460938 13.9375 C 15.742188 13.9375 15.972656 14.167969 15.972656 14.453125 L 15.972656 16.953125 C 15.972656 19.402344 13.980469 21.398438 11.527344 21.398438 Z M 11.527344 21.398438 " fill-opacity="1" fill-rule="nonzero"/><path fill="#1007aa" d="M 13.316406 25.683594 C 13.226562 25.683594 13.132812 25.660156 13.050781 25.613281 L 11.265625 24.539062 C 11.121094 24.453125 11.03125 24.304688 11.019531 24.140625 C 11.003906 23.972656 11.074219 23.8125 11.199219 23.707031 L 13.34375 21.917969 C 13.5625 21.738281 13.886719 21.765625 14.066406 21.984375 C 14.25 22.203125 14.21875 22.527344 14 22.707031 L 12.414062 24.03125 L 13.238281 24.527344 L 15.097656 22.664062 C 15.296875 22.464844 15.621094 22.464844 15.824219 22.664062 C 16.023438 22.867188 16.023438 23.191406 15.824219 23.390625 L 13.679688 25.535156 C 13.578125 25.632812 13.449219 25.683594 13.316406 25.683594 Z M 13.316406 25.683594 " fill-opacity="1" fill-rule="nonzero"/><path fill="#1007aa" d="M 9.742188 25.683594 C 9.609375 25.683594 9.480469 25.632812 9.378906 25.535156 L 7.234375 23.390625 C 7.035156 23.191406 7.035156 22.867188 7.234375 22.664062 C 7.4375 22.464844 7.761719 22.464844 7.960938 22.664062 L 9.820312 24.527344 L 10.644531 24.03125 L 9.058594 22.707031 C 8.839844 22.527344 8.808594 22.203125 8.992188 21.984375 C 9.171875 21.765625 9.496094 21.738281 9.714844 21.917969 L 11.859375 23.707031 C 11.984375 23.8125 12.054688 23.972656 12.039062 24.140625 C 12.027344 24.304688 11.9375 24.453125 11.792969 24.539062 L 10.007812 25.613281 C 9.925781 25.660156 9.832031 25.683594 9.742188 25.683594 Z M 9.742188 25.683594 " fill-opacity="1" fill-rule="nonzero"/><path fill="#1007aa" d="M 15.460938 14.964844 L 15.136719 14.964844 C 14.261719 14.964844 13.464844 14.542969 12.957031 13.878906 C 12.453125 14.542969 11.65625 14.964844 10.777344 14.964844 L 7.597656 14.964844 C 7.316406 14.964844 7.085938 14.734375 7.085938 14.453125 L 7.085938 13.199219 C 7.085938 11.242188 8.679688 9.652344 10.636719 9.652344 L 12.421875 9.652344 C 14.378906 9.652344 15.972656 11.242188 15.972656 13.199219 L 15.972656 14.453125 C 15.972656 14.734375 15.742188 14.964844 15.460938 14.964844 Z M 8.109375 13.9375 L 10.777344 13.9375 C 11.589844 13.9375 12.296875 13.359375 12.457031 12.5625 C 12.503906 12.324219 12.714844 12.152344 12.957031 12.152344 C 13.203125 12.152344 13.414062 12.324219 13.460938 12.5625 C 13.609375 13.296875 14.21875 13.847656 14.945312 13.929688 L 14.945312 13.199219 C 14.945312 11.808594 13.816406 10.675781 12.421875 10.675781 L 10.636719 10.675781 C 9.242188 10.675781 8.109375 11.808594 8.109375 13.199219 Z M 8.109375 13.9375 " fill-opacity="1" fill-rule="nonzero"/><path fill="#1007aa" d="M 12.242188 26.398438 L 10.816406 26.398438 C 10.589844 26.398438 10.390625 26.253906 10.324219 26.039062 L 9.96875 24.894531 C 9.882812 24.625 10.035156 24.339844 10.304688 24.253906 C 10.574219 24.167969 10.863281 24.320312 10.945312 24.589844 L 11.191406 25.375 L 11.867188 25.375 L 12.113281 24.589844 C 12.195312 24.320312 12.484375 24.167969 12.753906 24.253906 C 13.023438 24.339844 13.175781 24.625 13.089844 24.894531 L 12.734375 26.039062 C 12.667969 26.253906 12.46875 26.398438 12.242188 26.398438 Z M 12.242188 26.398438 " fill-opacity="1" fill-rule="nonzero"/><g clip-path="url(#5f187609de)"><path fill="#1007aa" d="M 12.398438 28.570312 L 10.660156 28.570312 C 10.515625 28.570312 10.382812 28.511719 10.285156 28.40625 C 10.1875 28.304688 10.136719 28.164062 10.148438 28.019531 L 10.304688 25.851562 C 10.324219 25.582031 10.546875 25.375 10.816406 25.375 L 12.242188 25.375 C 12.511719 25.375 12.734375 25.582031 12.753906 25.851562 L 12.910156 28.019531 C 12.921875 28.164062 12.871094 28.304688 12.773438 28.40625 C 12.675781 28.511719 12.542969 28.570312 12.398438 28.570312 Z M 11.210938 27.542969 L 11.847656 27.542969 L 11.765625 26.398438 L 11.292969 26.398438 Z M 11.210938 27.542969 " fill-opacity="1" fill-rule="nonzero"/></g><path fill="#1007aa" d="M 29.9375 11.867188 L 24.378906 11.867188 C 24.09375 11.867188 23.867188 11.636719 23.867188 11.355469 C 23.867188 11.070312 24.09375 10.839844 24.378906 10.839844 L 29.9375 10.839844 C 30.222656 10.839844 30.453125 11.070312 30.453125 11.355469 C 30.453125 11.636719 30.222656 11.867188 29.9375 11.867188 Z M 29.9375 11.867188 " fill-opacity="1" fill-rule="nonzero"/><path fill="#1007aa" d="M 29.9375 14.507812 L 20.285156 14.507812 C 20 14.507812 19.769531 14.277344 19.769531 13.992188 C 19.769531 13.710938 20 13.480469 20.285156 13.480469 L 29.9375 13.480469 C 30.222656 13.480469 30.453125 13.710938 30.453125 13.992188 C 30.453125 14.277344 30.222656 14.507812 29.9375 14.507812 Z M 29.9375 14.507812 " fill-opacity="1" fill-rule="nonzero"/><path fill="#1007aa" d="M 29.9375 17.144531 L 20.285156 17.144531 C 20 17.144531 19.769531 16.914062 19.769531 16.632812 C 19.769531 16.347656 20 16.121094 20.285156 16.121094 L 29.9375 16.121094 C 30.222656 16.121094 30.453125 16.347656 30.453125 16.632812 C 30.453125 16.914062 30.222656 17.144531 29.9375 17.144531 Z M 29.9375 17.144531 " fill-opacity="1" fill-rule="nonzero"/><path fill="#1007aa" d="M 29.9375 19.785156 L 20.285156 19.785156 C 20 19.785156 19.769531 19.554688 19.769531 19.273438 C 19.769531 18.988281 20 18.757812 20.285156 18.757812 L 29.9375 18.757812 C 30.222656 18.757812 30.453125 18.988281 30.453125 19.273438 C 30.453125 19.554688 30.222656 19.785156 29.9375 19.785156 Z M 29.9375 19.785156 " fill-opacity="1" fill-rule="nonzero"/><path fill="#1007aa" d="M 29.9375 22.421875 L 21.78125 22.421875 C 21.5 22.421875 21.269531 22.195312 21.269531 21.910156 C 21.269531 21.628906 21.5 21.398438 21.78125 21.398438 L 29.9375 21.398438 C 30.222656 21.398438 30.453125 21.628906 30.453125 21.910156 C 30.453125 22.195312 30.222656 22.421875 29.9375 22.421875 Z M 29.9375 22.421875 " fill-opacity="1" fill-rule="nonzero"/><path fill="#1007aa" d="M 29.9375 25.0625 L 21.78125 25.0625 C 21.5 25.0625 21.269531 24.832031 21.269531 24.550781 C 21.269531 24.265625 21.5 24.035156 21.78125 24.035156 L 29.9375 24.035156 C 30.222656 24.035156 30.453125 24.265625 30.453125 24.550781 C 30.453125 24.832031 30.222656 25.0625 29.9375 25.0625 Z M 29.9375 25.0625 " fill-opacity="1" fill-rule="nonzero"/><path fill="#1007aa" d="M 21.222656 12.847656 C 19.847656 12.847656 18.523438 12.382812 17.4375 11.503906 C 16.179688 10.492188 15.394531 9.046875 15.222656 7.441406 C 15.050781 5.835938 15.515625 4.257812 16.53125 3.003906 C 18.625 0.40625 22.4375 0 25.03125 2.09375 C 25.128906 2.171875 25.222656 2.25 25.308594 2.332031 C 25.519531 2.519531 25.535156 2.84375 25.34375 3.054688 C 25.152344 3.265625 24.828125 3.28125 24.617188 3.089844 C 24.546875 3.023438 24.46875 2.957031 24.386719 2.890625 C 22.234375 1.152344 19.066406 1.492188 17.328125 3.644531 C 16.484375 4.691406 16.101562 6 16.242188 7.332031 C 16.386719 8.667969 17.039062 9.863281 18.082031 10.707031 C 19.125 11.550781 20.433594 11.933594 21.769531 11.792969 C 23.101562 11.648438 24.300781 10.996094 25.140625 9.953125 C 26.019531 8.863281 26.398438 7.503906 26.210938 6.121094 C 26.171875 5.839844 26.367188 5.582031 26.648438 5.542969 C 26.929688 5.503906 27.1875 5.699219 27.226562 5.980469 C 27.449219 7.625 26.980469 9.304688 25.941406 10.59375 C 24.925781 11.851562 23.484375 12.640625 21.878906 12.8125 C 21.660156 12.835938 21.441406 12.847656 21.222656 12.847656 Z M 21.222656 12.847656 " fill-opacity="1" fill-rule="nonzero"/><path fill="#1007aa" d="M 21.855469 9.554688 C 21.71875 9.554688 21.589844 9.5 21.492188 9.402344 L 19.457031 7.351562 C 19.257812 7.148438 19.257812 6.824219 19.460938 6.625 C 19.660156 6.425781 19.988281 6.425781 20.1875 6.628906 L 21.679688 8.136719 C 22.632812 6.191406 24.566406 4.402344 27.554688 2.695312 C 27.800781 2.554688 28.113281 2.640625 28.253906 2.882812 C 28.394531 3.128906 28.308594 3.445312 28.0625 3.585938 C 24.925781 5.378906 23.050781 7.21875 22.335938 9.214844 C 22.277344 9.378906 22.136719 9.503906 21.964844 9.539062 C 21.929688 9.550781 21.890625 9.554688 21.855469 9.554688 Z M 21.855469 9.554688 " fill-opacity="1" fill-rule="nonzero"/></svg>