<svg xmlns="http://www.w3.org/2000/svg" xmlns:xlink="http://www.w3.org/1999/xlink" width="44" zoomAndPan="magnify" viewBox="0 0 33 32.999998" height="44" preserveAspectRatio="xMidYMid meet" version="1.0"><defs><clipPath id="ab042cf984"><path d="M 3.058594 0 L 30 0 L 30 33 L 3.058594 33 Z M 3.058594 0 " clip-rule="nonzero"/></clipPath></defs><g clip-path="url(#ab042cf984)"><path fill="#1007aa" d="M 29.289062 0.660156 L 29.285156 0.660156 C 28.890625 0.265625 28.347656 0.0195312 27.75 0.0195312 L 5.238281 0.0195312 C 4.640625 0.0195312 4.097656 0.261719 3.699219 0.660156 C 3.304688 1.054688 3.058594 1.601562 3.058594 2.195312 L 3.058594 30.804688 C 3.058594 31.398438 3.304688 31.941406 3.699219 32.339844 L 3.703125 32.339844 C 4.097656 32.738281 4.640625 32.980469 5.238281 32.980469 L 27.75 32.980469 C 28.347656 32.980469 28.890625 32.738281 29.285156 32.339844 L 29.289062 32.339844 C 29.683594 31.945312 29.929688 31.402344 29.929688 30.804688 L 29.929688 2.195312 C 29.925781 1.601562 29.683594 1.058594 29.289062 0.660156 Z M 20.230469 31.882812 L 5.238281 31.882812 C 4.9375 31.882812 4.667969 31.761719 4.476562 31.566406 L 4.472656 31.566406 C 4.277344 31.371094 4.15625 31.101562 4.15625 30.800781 L 4.15625 2.195312 C 4.15625 1.898438 4.277344 1.628906 4.472656 1.433594 L 4.476562 1.433594 C 4.667969 1.238281 4.9375 1.117188 5.238281 1.117188 L 23.726562 1.117188 C 24.023438 1.117188 24.292969 1.238281 24.488281 1.433594 L 24.492188 1.433594 C 24.683594 1.628906 24.804688 1.898438 24.804688 2.195312 L 24.804688 30.804688 C 24.804688 31.101562 24.683594 31.371094 24.492188 31.566406 L 24.488281 31.566406 C 24.292969 31.761719 24.023438 31.882812 23.726562 31.882812 Z M 28.832031 30.804688 C 28.832031 31.101562 28.710938 31.371094 28.515625 31.566406 C 28.316406 31.761719 28.046875 31.882812 27.75 31.882812 L 25.613281 31.882812 C 25.796875 31.5625 25.902344 31.195312 25.902344 30.804688 L 25.902344 2.195312 C 25.902344 1.804688 25.796875 1.4375 25.613281 1.117188 L 27.75 1.117188 C 28.046875 1.117188 28.316406 1.238281 28.511719 1.433594 L 28.515625 1.433594 C 28.710938 1.628906 28.832031 1.898438 28.832031 2.199219 Z M 14.480469 5.933594 C 14.480469 5.929688 14.480469 5.933594 14.480469 5.933594 C 12.441406 5.933594 10.59375 6.757812 9.257812 8.09375 C 7.921875 9.429688 7.097656 11.277344 7.097656 13.316406 C 7.097656 15.355469 7.921875 17.203125 9.257812 18.539062 C 10.59375 19.875 12.441406 20.703125 14.480469 20.703125 C 14.484375 20.703125 14.480469 20.703125 14.484375 20.703125 C 16.523438 20.703125 18.367188 19.875 19.703125 18.539062 C 21.039062 17.203125 21.867188 15.355469 21.867188 13.316406 C 21.867188 11.277344 21.039062 9.429688 19.703125 8.09375 C 18.367188 6.757812 16.519531 5.933594 14.480469 5.933594 Z M 20.035156 10.363281 L 18.835938 10.363281 C 18.609375 9.554688 18.296875 8.820312 17.914062 8.199219 C 17.863281 8.113281 17.808594 8.027344 17.753906 7.945312 C 18.179688 8.207031 18.578125 8.519531 18.929688 8.871094 C 19.367188 9.308594 19.742188 9.8125 20.035156 10.363281 Z M 8.191406 13.316406 C 8.191406 12.671875 8.289062 12.046875 8.472656 11.460938 L 9.886719 11.460938 C 9.789062 12.054688 9.738281 12.675781 9.738281 13.316406 C 9.738281 13.957031 9.789062 14.578125 9.886719 15.171875 L 8.472656 15.171875 C 8.289062 14.585938 8.191406 13.964844 8.191406 13.316406 Z M 10.835938 13.316406 C 10.835938 12.671875 10.894531 12.046875 11 11.460938 L 12.59375 11.460938 C 12.558594 12.054688 12.539062 12.675781 12.539062 13.316406 C 12.539062 13.957031 12.558594 14.582031 12.59375 15.171875 L 11 15.171875 C 10.890625 14.585938 10.835938 13.964844 10.835938 13.316406 Z M 16.003906 8.375 C 15.933594 8.03125 15.851562 7.71875 15.757812 7.441406 C 16.214844 7.742188 16.628906 8.195312 16.980469 8.765625 C 17.265625 9.230469 17.507812 9.769531 17.695312 10.363281 L 16.285156 10.363281 C 16.214844 9.625 16.117188 8.949219 16.003906 8.375 Z M 14.929688 8.59375 C 15.035156 9.105469 15.121094 9.703125 15.1875 10.363281 L 13.777344 10.363281 C 13.839844 9.703125 13.929688 9.105469 14.03125 8.59375 C 14.230469 7.625 14.394531 7.027344 14.480469 7.027344 C 14.566406 7.027344 14.734375 7.625 14.929688 8.59375 Z M 15.324219 13.316406 C 15.324219 13.960938 15.304688 14.585938 15.273438 15.171875 L 13.691406 15.171875 C 13.65625 14.585938 13.636719 13.960938 13.636719 13.316406 C 13.636719 12.671875 13.65625 12.050781 13.691406 11.460938 L 15.273438 11.460938 C 15.304688 12.050781 15.324219 12.671875 15.324219 13.316406 Z M 14.480469 19.605469 C 14.394531 19.605469 14.230469 19.007812 14.03125 18.042969 C 13.929688 17.53125 13.839844 16.933594 13.777344 16.269531 L 15.1875 16.269531 C 15.121094 16.933594 15.035156 17.53125 14.929688 18.042969 C 14.734375 19.007812 14.566406 19.605469 14.480469 19.605469 Z M 13.203125 7.441406 C 13.113281 7.71875 13.03125 8.03125 12.960938 8.375 C 12.84375 8.949219 12.746094 9.625 12.675781 10.363281 L 11.269531 10.363281 C 11.457031 9.773438 11.695312 9.230469 11.984375 8.765625 C 12.332031 8.195312 12.75 7.742188 13.203125 7.441406 Z M 12.675781 16.269531 C 12.746094 17.011719 12.84375 17.683594 12.960938 18.261719 C 13.03125 18.605469 13.113281 18.914062 13.203125 19.195312 C 12.75 18.894531 12.332031 18.441406 11.984375 17.867188 C 11.699219 17.402344 11.457031 16.863281 11.269531 16.269531 Z M 15.757812 19.195312 C 15.851562 18.917969 15.933594 18.605469 16.003906 18.261719 C 16.117188 17.683594 16.214844 17.011719 16.289062 16.269531 L 17.695312 16.269531 C 17.507812 16.863281 17.269531 17.402344 16.980469 17.867188 C 16.628906 18.441406 16.214844 18.894531 15.757812 19.195312 Z M 16.371094 15.171875 C 16.402344 14.578125 16.421875 13.957031 16.421875 13.316406 C 16.421875 12.675781 16.402344 12.054688 16.371094 11.460938 L 17.964844 11.460938 C 18.070312 12.050781 18.128906 12.671875 18.128906 13.316406 C 18.128906 13.964844 18.070312 14.585938 17.964844 15.171875 Z M 19.074219 11.460938 L 20.492188 11.460938 C 20.671875 12.050781 20.769531 12.671875 20.769531 13.316406 C 20.769531 13.964844 20.671875 14.585938 20.492188 15.171875 L 19.074219 15.171875 C 19.171875 14.578125 19.226562 13.957031 19.226562 13.316406 C 19.226562 12.675781 19.171875 12.054688 19.074219 11.460938 Z M 10.035156 8.871094 C 10.386719 8.519531 10.78125 8.207031 11.210938 7.945312 C 11.15625 8.027344 11.101562 8.113281 11.046875 8.195312 C 10.664062 8.820312 10.351562 9.554688 10.128906 10.363281 L 8.929688 10.363281 C 9.222656 9.8125 9.597656 9.308594 10.035156 8.871094 Z M 8.929688 16.269531 L 10.128906 16.269531 C 10.351562 17.082031 10.664062 17.8125 11.046875 18.4375 C 11.101562 18.523438 11.15625 18.609375 11.210938 18.6875 C 10.78125 18.429688 10.386719 18.117188 10.035156 17.765625 C 9.597656 17.328125 9.222656 16.820312 8.929688 16.269531 Z M 18.929688 17.765625 C 18.574219 18.117188 18.179688 18.429688 17.753906 18.691406 C 17.808594 18.609375 17.863281 18.523438 17.914062 18.4375 C 18.296875 17.8125 18.609375 17.082031 18.835938 16.269531 L 20.035156 16.269531 C 19.742188 16.820312 19.367188 17.328125 18.929688 17.765625 Z M 21.304688 24.324219 C 21.304688 24.628906 21.058594 24.871094 20.753906 24.871094 L 8.207031 24.871094 C 7.90625 24.871094 7.660156 24.628906 7.660156 24.324219 C 7.660156 24.019531 7.90625 23.773438 8.207031 23.773438 L 20.753906 23.773438 C 21.058594 23.777344 21.304688 24.023438 21.304688 24.324219 Z M 19.851562 26.519531 C 19.851562 26.824219 19.605469 27.066406 19.304688 27.066406 L 9.660156 27.066406 C 9.355469 27.066406 9.109375 26.824219 9.109375 26.519531 C 9.109375 26.214844 9.355469 25.96875 9.660156 25.96875 L 19.304688 25.96875 C 19.605469 25.972656 19.851562 26.214844 19.851562 26.519531 Z M 19.851562 26.519531 " fill-opacity="1" fill-rule="nonzero"/></g></svg>