<svg xmlns="http://www.w3.org/2000/svg" xmlns:xlink="http://www.w3.org/1999/xlink" width="44" zoomAndPan="magnify" viewBox="0 0 33 32.999998" height="44" preserveAspectRatio="xMidYMid meet" version="1.0"><defs><clipPath id="1122bf779d"><path d="M 26 18 L 33 18 L 33 31.421875 L 26 31.421875 Z M 26 18 " clip-rule="nonzero"/></clipPath><clipPath id="99116026e8"><path d="M 18 10 L 26 10 L 26 31.421875 L 18 31.421875 Z M 18 10 " clip-rule="nonzero"/></clipPath><clipPath id="8e5291f45a"><path d="M 8 30 L 28 30 L 28 31.421875 L 8 31.421875 Z M 8 30 " clip-rule="nonzero"/></clipPath><clipPath id="ae1515493b"><path d="M 6 30 L 8 30 L 8 31.421875 L 6 31.421875 Z M 6 30 " clip-rule="nonzero"/></clipPath><clipPath id="07bd1dc119"><path d="M 11 15 L 19 15 L 19 31.421875 L 11 31.421875 Z M 11 15 " clip-rule="nonzero"/></clipPath><clipPath id="17c6f4c38d"><path d="M 0 1.421875 L 20 1.421875 L 20 29 L 0 29 Z M 0 1.421875 " clip-rule="nonzero"/></clipPath></defs><path fill="#1007aa" d="M 10.242188 14.507812 C 8.671875 14.507812 7.398438 13.230469 7.398438 11.660156 C 7.398438 10.09375 8.671875 8.816406 10.242188 8.816406 C 11.8125 8.816406 13.085938 10.09375 13.085938 11.660156 C 13.085938 13.230469 11.8125 14.507812 10.242188 14.507812 Z M 10.242188 9.957031 C 9.300781 9.957031 8.535156 10.722656 8.535156 11.664062 C 8.535156 12.605469 9.300781 13.371094 10.242188 13.371094 C 11.183594 13.371094 11.949219 12.605469 11.949219 11.664062 C 11.949219 10.722656 11.183594 9.957031 10.242188 9.957031 Z M 10.242188 9.957031 " fill-opacity="1" fill-rule="nonzero"/><g clip-path="url(#1122bf779d)"><path fill="#1007aa" d="M 33 31.574219 L 26.742188 31.574219 L 26.742188 18.183594 L 33 20.964844 Z M 27.878906 30.4375 L 31.863281 30.4375 L 31.863281 21.703125 L 27.878906 19.933594 Z M 27.878906 30.4375 " fill-opacity="1" fill-rule="nonzero"/></g><path fill="#1007aa" d="M 30.722656 20.320312 L 29.585938 20.320312 L 29.585938 11.660156 L 26.742188 11.660156 L 26.742188 10.523438 L 30.722656 10.523438 Z M 30.722656 20.320312 " fill-opacity="1" fill-rule="nonzero"/><g clip-path="url(#99116026e8)"><path fill="#1007aa" d="M 19.34375 31.003906 L 18.207031 31.003906 L 18.207031 10.523438 L 25.605469 10.523438 L 25.605469 11.660156 L 19.34375 11.660156 Z M 19.34375 31.003906 " fill-opacity="1" fill-rule="nonzero"/></g><g clip-path="url(#8e5291f45a)"><path fill="#1007aa" d="M 8.535156 30.4375 L 27.3125 30.4375 L 27.3125 31.574219 L 8.535156 31.574219 Z M 8.535156 30.4375 " fill-opacity="1" fill-rule="nonzero"/></g><g clip-path="url(#ae1515493b)"><path fill="#1007aa" d="M 6.257812 30.4375 L 7.398438 30.4375 L 7.398438 31.574219 L 6.257812 31.574219 Z M 6.257812 30.4375 " fill-opacity="1" fill-rule="nonzero"/></g><g clip-path="url(#07bd1dc119)"><path fill="#1007aa" d="M 13.085938 31.003906 L 11.949219 31.003906 L 11.949219 18.679688 L 18.554688 15.875 L 19 16.925781 L 13.085938 19.433594 Z M 13.085938 31.003906 " fill-opacity="1" fill-rule="nonzero"/></g><path fill="#1007aa" d="M 29.015625 11.09375 L 27.878906 11.09375 L 27.878906 9.386719 L 21.050781 9.386719 L 21.050781 11.09375 L 19.914062 11.09375 L 19.914062 8.25 L 29.015625 8.25 Z M 29.015625 11.09375 " fill-opacity="1" fill-rule="nonzero"/><path fill="#1007aa" d="M 14.226562 20.765625 L 17.070312 20.765625 L 17.070312 21.902344 L 14.226562 21.902344 Z M 14.226562 20.765625 " fill-opacity="1" fill-rule="nonzero"/><path fill="#1007aa" d="M 14.226562 24.179688 L 17.070312 24.179688 L 17.070312 25.316406 L 14.226562 25.316406 Z M 14.226562 24.179688 " fill-opacity="1" fill-rule="nonzero"/><path fill="#1007aa" d="M 14.226562 27.589844 L 17.070312 27.589844 L 17.070312 28.730469 L 14.226562 28.730469 Z M 14.226562 27.589844 " fill-opacity="1" fill-rule="nonzero"/><path fill="#1007aa" d="M 21.050781 14.507812 L 27.878906 14.507812 L 27.878906 15.644531 L 21.050781 15.644531 Z M 21.050781 14.507812 " fill-opacity="1" fill-rule="nonzero"/><path fill="#1007aa" d="M 21.050781 17.921875 L 25.601562 17.921875 L 25.601562 19.058594 L 21.050781 19.058594 Z M 21.050781 17.921875 " fill-opacity="1" fill-rule="nonzero"/><path fill="#1007aa" d="M 21.050781 21.332031 L 25.601562 21.332031 L 25.601562 22.472656 L 21.050781 22.472656 Z M 21.050781 21.332031 " fill-opacity="1" fill-rule="nonzero"/><path fill="#1007aa" d="M 21.050781 24.746094 L 25.601562 24.746094 L 25.601562 25.882812 L 21.050781 25.882812 Z M 21.050781 24.746094 " fill-opacity="1" fill-rule="nonzero"/><g clip-path="url(#17c6f4c38d)"><path fill="#1007aa" d="M 10.242188 28.347656 L 9.867188 28.019531 C 9.464844 27.664062 0 19.226562 0 11.660156 C 0 6.015625 4.597656 1.421875 10.242188 1.421875 C 14.191406 1.421875 17.828125 3.730469 19.511719 7.304688 L 18.480469 7.789062 C 16.984375 4.613281 13.75 2.558594 10.242188 2.558594 C 5.222656 2.558594 1.140625 6.640625 1.140625 11.660156 C 1.140625 17.90625 8.480469 25.167969 10.242188 26.820312 C 10.632812 26.453125 11.296875 25.8125 12.105469 24.960938 L 12.933594 25.742188 C 11.597656 27.15625 10.65625 27.984375 10.617188 28.019531 Z M 10.242188 28.347656 " fill-opacity="1" fill-rule="nonzero"/></g></svg>