<svg xmlns="http://www.w3.org/2000/svg" xmlns:xlink="http://www.w3.org/1999/xlink" width="44" zoomAndPan="magnify" viewBox="0 0 33 32.999998" height="44" preserveAspectRatio="xMidYMid meet" version="1.0"><defs><clipPath id="fd53f7f6ee"><path d="M 0 0 L 31.5 0 L 31.5 33 L 0 33 Z M 0 0 " clip-rule="nonzero"/></clipPath></defs><g clip-path="url(#fd53f7f6ee)"><path fill="#1007aa" d="M 30.40625 7.765625 L 26.898438 6.296875 L 26.898438 1.523438 C 26.898438 0.671875 26.199219 0 25.347656 0 L 16.0625 0 C 15.210938 0 14.511719 0.671875 14.511719 1.523438 L 14.511719 6.0625 L 10.488281 7.765625 C 9.972656 7.972656 9.738281 8.59375 9.945312 9.109375 L 11.933594 13.726562 C 12.269531 13.597656 12.601562 13.492188 12.914062 13.390625 L 10.902344 8.695312 L 14.511719 7.171875 L 14.511719 13.003906 C 14.875 12.925781 15.210938 12.875 15.542969 12.824219 L 15.542969 1.523438 C 15.542969 1.238281 15.777344 1.007812 16.0625 1.007812 L 25.347656 1.007812 C 25.632812 1.007812 25.867188 1.238281 25.867188 1.523438 L 25.867188 14.449219 L 22.925781 14.449219 C 23.207031 14.757812 23.492188 15.121094 23.722656 15.480469 L 27.773438 15.480469 C 27.902344 15.480469 28.109375 15.558594 28.160156 15.609375 C 28.652344 16.101562 28.910156 16.617188 28.882812 17.105469 C 28.832031 17.984375 28.03125 18.628906 28.03125 18.628906 C 27.929688 18.707031 27.851562 18.859375 27.828125 18.988281 C 27.828125 19.144531 27.851562 19.273438 27.957031 19.375 C 28.703125 20.203125 29.039062 20.976562 28.910156 21.699219 C 28.730469 22.910156 27.386719 23.660156 27.386719 23.6875 C 27.15625 23.816406 27.050781 24.097656 27.15625 24.332031 C 27.515625 25.207031 27.542969 25.957031 27.234375 26.601562 C 26.691406 27.738281 25.195312 28.175781 25.195312 28.175781 C 25.039062 28.226562 24.910156 28.355469 24.832031 28.511719 C 24.78125 28.664062 24.808594 28.847656 24.910156 28.976562 C 25.402344 29.621094 25.582031 30.214844 25.453125 30.703125 C 25.246094 31.425781 24.445312 31.839844 24.1875 31.96875 L 20.808594 31.96875 C 20.035156 31.96875 19.414062 31.398438 19.414062 30.679688 C 19.414062 29.957031 20.035156 29.386719 20.808594 29.386719 L 21.996094 29.386719 C 22.277344 29.386719 22.511719 29.15625 22.511719 28.871094 C 22.511719 28.589844 22.277344 28.355469 21.996094 28.355469 L 20.808594 28.355469 C 20.035156 28.355469 19.414062 27.789062 19.414062 27.066406 C 19.414062 26.34375 20.035156 25.777344 20.808594 25.777344 L 23.027344 25.777344 C 23.3125 25.777344 23.542969 25.542969 23.542969 25.257812 C 23.542969 24.976562 23.3125 24.742188 23.027344 24.742188 L 20.808594 24.742188 C 19.464844 24.742188 18.382812 25.777344 18.382812 27.066406 C 18.382812 27.789062 18.746094 28.433594 19.285156 28.871094 C 18.746094 29.308594 18.382812 29.957031 18.382812 30.679688 C 18.382812 31.140625 18.539062 31.605469 18.796875 31.96875 L 13.273438 31.96875 C 13.171875 31.96875 12.964844 31.890625 12.886719 31.8125 L 10.28125 29.542969 C 9.480469 28.871094 7.882812 28.871094 7.804688 28.871094 L 6.773438 28.871094 L 6.773438 18.0625 L 7.546875 18.0625 C 8.65625 18.0625 9.402344 17.570312 9.867188 17.261719 C 9.921875 17.234375 9.972656 17.183594 10.023438 17.15625 C 15.3125 13.984375 20.1875 15.144531 20.808594 15.300781 C 21.945312 16.074219 22.925781 17.90625 23.777344 20.746094 C 23.90625 21.207031 23.648438 21.855469 23.054688 22.085938 C 22.433594 22.316406 21.761719 22.085938 21.015625 21.363281 C 20.1875 20.589844 19.261719 19.636719 19.027344 19.273438 C 18.976562 19.195312 18.898438 19.117188 18.820312 19.09375 C 18.925781 18.808594 19.054688 18.527344 19.132812 18.191406 C 19.207031 17.90625 19.054688 17.621094 18.769531 17.546875 C 18.484375 17.46875 18.203125 17.621094 18.125 17.90625 C 17.066406 21.671875 14.125 21.671875 13.996094 21.671875 C 13.714844 21.671875 13.480469 21.90625 13.480469 22.1875 C 13.480469 22.472656 13.6875 22.707031 13.996094 22.707031 C 14.175781 22.707031 16.730469 22.652344 18.332031 20.074219 C 18.847656 20.71875 19.957031 21.777344 20.316406 22.113281 C 21.09375 22.835938 21.867188 23.222656 22.613281 23.222656 C 22.898438 23.222656 23.15625 23.167969 23.441406 23.066406 C 24.472656 22.679688 25.066406 21.492188 24.78125 20.484375 C 24.445312 19.324219 23.386719 15.738281 21.324219 14.421875 C 21.273438 14.398438 21.246094 14.371094 21.195312 14.371094 C 20.964844 14.292969 15.542969 12.644531 9.507812 16.304688 C 9.457031 16.332031 9.402344 16.382812 9.328125 16.410156 C 8.941406 16.667969 8.347656 17.027344 7.546875 17.027344 L 0.578125 17.027344 C 0.296875 17.027344 0.0625 17.261719 0.0625 17.546875 L 0.0625 29.929688 C 0.0625 30.78125 0.761719 31.476562 1.613281 31.476562 L 5.222656 31.476562 C 6.074219 31.476562 6.773438 30.78125 6.773438 29.929688 L 7.832031 29.929688 C 8.269531 29.929688 9.222656 30.03125 9.609375 30.34375 L 12.191406 32.585938 C 12.449219 32.820312 12.914062 33 13.273438 33 L 24.316406 33 C 24.367188 33 24.445312 33 24.496094 32.972656 C 24.574219 32.949219 26.070312 32.355469 26.457031 31.011719 C 26.640625 30.367188 26.535156 29.671875 26.125 28.949219 C 26.742188 28.664062 27.671875 28.070312 28.160156 27.089844 C 28.546875 26.292969 28.574219 25.363281 28.265625 24.382812 C 28.808594 23.996094 29.734375 23.144531 29.941406 21.90625 C 30.097656 20.976562 29.789062 20.023438 29.039062 19.09375 C 29.398438 18.707031 29.863281 18.035156 29.917969 17.210938 C 29.96875 16.410156 29.632812 15.636719 28.882812 14.914062 C 28.808594 14.835938 28.703125 14.757812 28.601562 14.707031 L 30.921875 9.132812 C 31.15625 8.59375 30.921875 8 30.40625 7.765625 Z M 5.742188 29.929688 C 5.742188 30.214844 5.507812 30.445312 5.222656 30.445312 L 1.613281 30.445312 C 1.328125 30.445312 1.097656 30.214844 1.097656 29.929688 L 1.097656 18.0625 L 5.742188 18.0625 Z M 27.59375 14.449219 L 26.898438 14.449219 L 26.898438 7.40625 L 29.992188 8.722656 Z M 27.59375 14.449219 " fill-opacity="1" fill-rule="nonzero"/></g><path fill="#1007aa" d="M 20.707031 11.609375 C 22.40625 11.609375 23.800781 10.21875 23.800781 8.515625 C 23.800781 6.8125 22.40625 5.417969 20.707031 5.417969 C 19.003906 5.417969 17.609375 6.8125 17.609375 8.515625 C 17.609375 10.21875 19.003906 11.609375 20.707031 11.609375 Z M 20.707031 6.449219 C 21.839844 6.449219 22.769531 7.378906 22.769531 8.515625 C 22.769531 9.648438 21.839844 10.578125 20.707031 10.578125 C 19.570312 10.578125 18.640625 9.648438 18.640625 8.515625 C 18.640625 7.378906 19.570312 6.449219 20.707031 6.449219 Z M 20.707031 6.449219 " fill-opacity="1" fill-rule="nonzero"/><path fill="#1007aa" d="M 3.933594 20.484375 C 3.933594 20.628906 3.882812 20.75 3.78125 20.851562 C 3.683594 20.953125 3.5625 21.003906 3.417969 21.003906 C 3.277344 21.003906 3.152344 20.953125 3.054688 20.851562 C 2.953125 20.75 2.902344 20.628906 2.902344 20.484375 C 2.902344 20.34375 2.953125 20.222656 3.054688 20.121094 C 3.152344 20.019531 3.277344 19.96875 3.417969 19.96875 C 3.5625 19.96875 3.683594 20.019531 3.78125 20.121094 C 3.882812 20.222656 3.933594 20.34375 3.933594 20.484375 Z M 3.933594 20.484375 " fill-opacity="1" fill-rule="nonzero"/></svg>