<svg xmlns="http://www.w3.org/2000/svg" xmlns:xlink="http://www.w3.org/1999/xlink" width="44" zoomAndPan="magnify" viewBox="0 0 33 32.999998" height="44" preserveAspectRatio="xMidYMid meet" version="1.0"><path fill="#1007aa" d="M 0.21875 11.582031 L 0.21875 2.839844 C 0.21875 2.480469 0.289062 2.128906 0.425781 1.796875 C 0.566406 1.460938 0.761719 1.167969 1.019531 0.910156 C 1.277344 0.652344 1.570312 0.457031 1.90625 0.316406 C 2.238281 0.179688 2.589844 0.109375 2.949219 0.109375 L 16.0625 0.109375 C 16.425781 0.109375 16.773438 0.179688 17.109375 0.316406 C 17.441406 0.457031 17.738281 0.652344 17.992188 0.910156 C 18.25 1.167969 18.445312 1.460938 18.585938 1.796875 C 18.726562 2.128906 18.792969 2.480469 18.792969 2.839844 L 18.792969 3.386719 C 18.792969 3.539062 18.742188 3.667969 18.632812 3.773438 C 18.527344 3.878906 18.398438 3.933594 18.25 3.933594 C 18.097656 3.933594 17.96875 3.878906 17.863281 3.773438 C 17.753906 3.667969 17.703125 3.539062 17.703125 3.386719 L 17.703125 2.839844 C 17.703125 2.625 17.660156 2.414062 17.578125 2.214844 C 17.492188 2.011719 17.375 1.835938 17.222656 1.683594 C 17.066406 1.527344 16.890625 1.410156 16.691406 1.328125 C 16.488281 1.242188 16.28125 1.203125 16.0625 1.203125 L 2.949219 1.203125 C 2.734375 1.203125 2.523438 1.242188 2.324219 1.328125 C 2.121094 1.410156 1.945312 1.527344 1.792969 1.683594 C 1.636719 1.835938 1.519531 2.011719 1.4375 2.214844 C 1.351562 2.414062 1.3125 2.625 1.3125 2.839844 L 1.3125 11.582031 C 1.3125 11.800781 1.351562 12.007812 1.4375 12.210938 C 1.519531 12.410156 1.636719 12.585938 1.792969 12.742188 C 1.945312 12.894531 2.121094 13.011719 2.324219 13.097656 C 2.523438 13.179688 2.734375 13.222656 2.949219 13.222656 L 4.589844 13.222656 C 4.742188 13.222656 4.867188 13.273438 4.976562 13.382812 L 8.027344 16.433594 C 8.101562 16.496094 8.179688 16.507812 8.269531 16.472656 C 8.359375 16.433594 8.40625 16.371094 8.414062 16.273438 L 8.414062 13.769531 C 8.414062 13.617188 8.46875 13.488281 8.574219 13.382812 C 8.679688 13.273438 8.808594 13.222656 8.960938 13.222656 L 12.785156 13.222656 C 12.9375 13.222656 13.0625 13.273438 13.171875 13.382812 C 13.277344 13.488281 13.332031 13.617188 13.332031 13.769531 C 13.332031 13.917969 13.277344 14.046875 13.171875 14.15625 C 13.0625 14.261719 12.9375 14.316406 12.785156 14.316406 L 9.507812 14.316406 L 9.507812 16.273438 C 9.507812 16.539062 9.433594 16.785156 9.285156 17.007812 C 9.136719 17.226562 8.9375 17.390625 8.691406 17.492188 C 8.445312 17.59375 8.191406 17.621094 7.929688 17.566406 C 7.667969 17.515625 7.445312 17.394531 7.253906 17.207031 L 4.363281 14.316406 L 2.949219 14.316406 C 2.589844 14.3125 2.238281 14.246094 1.90625 14.105469 C 1.570312 13.96875 1.277344 13.769531 1.019531 13.511719 C 0.761719 13.257812 0.566406 12.960938 0.425781 12.628906 C 0.289062 12.292969 0.21875 11.945312 0.21875 11.582031 Z M 33 7.757812 L 33 16.5 C 33 16.863281 32.929688 17.210938 32.792969 17.542969 C 32.652344 17.878906 32.453125 18.175781 32.199219 18.429688 C 31.941406 18.6875 31.648438 18.882812 31.3125 19.023438 C 30.980469 19.160156 30.628906 19.230469 30.269531 19.230469 L 25.578125 19.230469 L 22.683594 22.125 C 22.496094 22.3125 22.273438 22.433594 22.011719 22.484375 C 21.75 22.535156 21.496094 22.511719 21.246094 22.410156 C 21 22.308594 20.804688 22.144531 20.65625 21.921875 C 20.507812 21.703125 20.433594 21.457031 20.433594 21.191406 L 20.433594 19.230469 L 17.15625 19.230469 C 16.792969 19.230469 16.445312 19.160156 16.109375 19.023438 C 15.777344 18.882812 15.480469 18.6875 15.226562 18.429688 C 14.96875 18.175781 14.769531 17.878906 14.632812 17.542969 C 14.492188 17.210938 14.425781 16.863281 14.425781 16.5 L 14.425781 7.757812 C 14.425781 7.394531 14.492188 7.046875 14.632812 6.714844 C 14.769531 6.378906 14.96875 6.082031 15.226562 5.828125 C 15.480469 5.570312 15.777344 5.375 16.109375 5.234375 C 16.445312 5.097656 16.792969 5.027344 17.15625 5.027344 L 30.269531 5.027344 C 30.628906 5.027344 30.980469 5.097656 31.3125 5.234375 C 31.648438 5.375 31.941406 5.570312 32.199219 5.828125 C 32.453125 6.082031 32.652344 6.378906 32.792969 6.714844 C 32.929688 7.046875 33 7.394531 33 7.757812 Z M 31.90625 7.757812 C 31.90625 7.539062 31.867188 7.332031 31.78125 7.132812 C 31.699219 6.929688 31.582031 6.753906 31.425781 6.601562 C 31.273438 6.445312 31.097656 6.328125 30.894531 6.246094 C 30.695312 6.160156 30.484375 6.121094 30.269531 6.121094 L 17.15625 6.121094 C 16.9375 6.121094 16.730469 6.160156 16.527344 6.246094 C 16.328125 6.328125 16.152344 6.445312 15.996094 6.601562 C 15.84375 6.753906 15.726562 6.929688 15.640625 7.132812 C 15.558594 7.332031 15.515625 7.539062 15.515625 7.757812 L 15.515625 16.5 C 15.515625 16.71875 15.558594 16.925781 15.640625 17.128906 C 15.726562 17.328125 15.84375 17.503906 15.996094 17.660156 C 16.152344 17.8125 16.328125 17.929688 16.527344 18.015625 C 16.730469 18.097656 16.9375 18.140625 17.15625 18.140625 L 20.980469 18.140625 C 21.132812 18.140625 21.261719 18.191406 21.367188 18.300781 C 21.472656 18.40625 21.527344 18.535156 21.527344 18.683594 L 21.527344 21.191406 C 21.535156 21.285156 21.582031 21.351562 21.671875 21.390625 C 21.757812 21.425781 21.839844 21.414062 21.914062 21.351562 L 24.964844 18.300781 C 25.070312 18.191406 25.199219 18.140625 25.351562 18.140625 L 30.269531 18.140625 C 30.484375 18.140625 30.695312 18.097656 30.894531 18.015625 C 31.097656 17.929688 31.273438 17.8125 31.425781 17.660156 C 31.582031 17.503906 31.699219 17.328125 31.78125 17.128906 C 31.867188 16.925781 31.90625 16.71875 31.90625 16.5 Z M 11.480469 6.121094 L 10.855469 8.304688 L 12.238281 8.304688 C 12.390625 8.304688 12.519531 8.359375 12.625 8.464844 C 12.730469 8.570312 12.785156 8.699219 12.785156 8.851562 C 12.785156 9 12.730469 9.128906 12.625 9.238281 C 12.519531 9.34375 12.390625 9.398438 12.238281 9.398438 L 10.542969 9.398438 L 10.03125 11.1875 C 9.957031 11.449219 9.78125 11.582031 9.507812 11.582031 C 9.457031 11.582031 9.40625 11.574219 9.355469 11.5625 C 9.210938 11.519531 9.101562 11.433594 9.027344 11.300781 C 8.957031 11.171875 8.941406 11.03125 8.980469 10.886719 L 9.40625 9.398438 L 7.265625 9.398438 L 6.753906 11.1875 C 6.679688 11.449219 6.503906 11.582031 6.230469 11.582031 C 6.179688 11.582031 6.128906 11.574219 6.078125 11.5625 C 5.933594 11.519531 5.824219 11.433594 5.75 11.300781 C 5.675781 11.171875 5.660156 11.03125 5.703125 10.886719 L 6.128906 9.398438 L 4.589844 9.398438 C 4.4375 9.398438 4.308594 9.34375 4.203125 9.238281 C 4.097656 9.128906 4.042969 9 4.042969 8.851562 C 4.042969 8.699219 4.097656 8.570312 4.203125 8.464844 C 4.308594 8.359375 4.4375 8.304688 4.589844 8.304688 L 6.441406 8.304688 L 7.066406 6.121094 L 5.683594 6.121094 C 5.53125 6.121094 5.402344 6.066406 5.296875 5.960938 C 5.1875 5.851562 5.136719 5.722656 5.136719 5.574219 C 5.136719 5.421875 5.1875 5.292969 5.296875 5.1875 C 5.402344 5.078125 5.53125 5.027344 5.683594 5.027344 L 7.378906 5.027344 L 7.886719 3.238281 C 7.929688 3.09375 8.015625 2.984375 8.148438 2.910156 C 8.28125 2.839844 8.417969 2.820312 8.5625 2.863281 C 8.707031 2.90625 8.816406 2.992188 8.890625 3.121094 C 8.964844 3.253906 8.980469 3.390625 8.941406 3.539062 L 8.515625 5.027344 L 10.65625 5.027344 L 11.167969 3.238281 C 11.207031 3.09375 11.296875 2.984375 11.425781 2.910156 C 11.558594 2.839844 11.695312 2.820312 11.839844 2.863281 C 11.988281 2.90625 12.09375 2.992188 12.167969 3.121094 C 12.242188 3.253906 12.257812 3.390625 12.21875 3.539062 L 11.792969 5.027344 L 13.332031 5.027344 C 13.480469 5.027344 13.609375 5.078125 13.71875 5.1875 C 13.824219 5.292969 13.878906 5.421875 13.878906 5.574219 C 13.878906 5.722656 13.824219 5.851562 13.71875 5.960938 C 13.609375 6.066406 13.480469 6.121094 13.332031 6.121094 Z M 10.34375 6.121094 L 8.203125 6.121094 L 7.578125 8.304688 L 9.71875 8.304688 Z M 28.628906 12.128906 L 28.628906 15.40625 C 28.628906 15.625 28.585938 15.832031 28.503906 16.035156 C 28.421875 16.234375 28.300781 16.414062 28.148438 16.566406 C 27.996094 16.71875 27.816406 16.835938 27.617188 16.921875 C 27.417969 17.003906 27.207031 17.046875 26.988281 17.046875 L 24.257812 17.046875 C 23.4375 17.039062 22.675781 16.824219 21.972656 16.40625 C 21.882812 16.601562 21.75 16.753906 21.570312 16.871094 C 21.390625 16.988281 21.195312 17.046875 20.980469 17.046875 L 19.886719 17.046875 C 19.742188 17.046875 19.601562 17.019531 19.46875 16.960938 C 19.335938 16.90625 19.21875 16.828125 19.113281 16.726562 C 19.011719 16.625 18.933594 16.503906 18.878906 16.371094 C 18.824219 16.238281 18.792969 16.097656 18.792969 15.953125 L 18.792969 11.035156 C 18.792969 10.890625 18.824219 10.753906 18.878906 10.617188 C 18.933594 10.484375 19.011719 10.367188 19.113281 10.265625 C 19.21875 10.160156 19.335938 10.082031 19.46875 10.027344 C 19.601562 9.972656 19.742188 9.945312 19.886719 9.945312 L 20.980469 9.945312 C 21.242188 9.945312 21.472656 10.027344 21.671875 10.191406 C 21.875 10.359375 22 10.570312 22.050781 10.824219 C 22.183594 10.734375 22.300781 10.632812 22.410156 10.519531 C 22.867188 10.066406 23.117188 9.519531 23.167969 8.882812 C 23.136719 8.425781 23.273438 8.03125 23.582031 7.695312 C 23.917969 7.351562 24.324219 7.191406 24.804688 7.210938 C 25.324219 7.226562 25.710938 7.457031 25.96875 7.90625 C 26.40625 8.742188 26.46875 9.601562 26.148438 10.488281 L 26.988281 10.488281 C 27.207031 10.492188 27.417969 10.53125 27.617188 10.617188 C 27.816406 10.699219 27.996094 10.816406 28.148438 10.96875 C 28.300781 11.125 28.421875 11.300781 28.503906 11.503906 C 28.585938 11.703125 28.628906 11.910156 28.628906 12.128906 Z M 20.980469 15.953125 L 20.980469 11.035156 L 19.886719 11.035156 L 19.886719 15.953125 Z M 27.535156 12.128906 C 27.535156 11.976562 27.484375 11.847656 27.375 11.742188 C 27.269531 11.636719 27.140625 11.582031 26.988281 11.582031 L 25.351562 11.582031 C 25.257812 11.582031 25.167969 11.558594 25.085938 11.515625 C 25.003906 11.46875 24.9375 11.40625 24.886719 11.328125 C 24.839844 11.246094 24.8125 11.160156 24.804688 11.066406 C 24.800781 10.972656 24.816406 10.882812 24.859375 10.800781 C 25.347656 9.777344 25.304688 8.902344 25.042969 8.488281 C 25 8.417969 24.910156 8.304688 24.804688 8.304688 C 24.640625 8.289062 24.5 8.335938 24.378906 8.445312 C 24.285156 8.554688 24.246094 8.679688 24.257812 8.820312 C 24.234375 9.777344 23.882812 10.59375 23.203125 11.269531 C 22.890625 11.617188 22.511719 11.867188 22.074219 12.023438 L 22.074219 15.15625 C 22.710938 15.667969 23.441406 15.933594 24.257812 15.953125 L 26.988281 15.953125 C 27.140625 15.953125 27.269531 15.898438 27.375 15.792969 C 27.484375 15.6875 27.535156 15.558594 27.535156 15.40625 Z M 15.515625 24.148438 C 15.515625 24.4375 15.460938 24.71875 15.351562 24.984375 C 15.238281 25.253906 15.082031 25.488281 14.875 25.695312 C 14.671875 25.898438 14.433594 26.054688 14.167969 26.167969 C 13.898438 26.277344 13.621094 26.335938 13.332031 26.335938 L 13.332031 30.160156 C 13.332031 30.4375 13.199219 30.613281 12.929688 30.683594 C 12.664062 30.757812 12.457031 30.675781 12.316406 30.441406 C 12.257812 30.347656 10.859375 28.175781 6.773438 27.992188 L 6.773438 30.976562 C 6.773438 31.230469 6.726562 31.476562 6.628906 31.710938 C 6.53125 31.945312 6.394531 32.152344 6.214844 32.332031 C 6.035156 32.511719 5.828125 32.648438 5.59375 32.746094 C 5.359375 32.84375 5.117188 32.890625 4.863281 32.890625 C 4.609375 32.890625 4.363281 32.84375 4.128906 32.746094 C 3.898438 32.648438 3.691406 32.511719 3.511719 32.332031 C 3.332031 32.152344 3.191406 31.945312 3.097656 31.710938 C 3 31.476562 2.949219 31.230469 2.949219 30.976562 L 2.949219 27.8125 C 2.511719 27.679688 2.105469 27.476562 1.738281 27.199219 C 1.375 26.925781 1.066406 26.59375 0.820312 26.207031 C 0.570312 25.816406 0.398438 25.398438 0.304688 24.953125 C 0.207031 24.503906 0.191406 24.050781 0.257812 23.597656 C 0.324219 23.140625 0.46875 22.710938 0.6875 22.308594 C 0.910156 21.90625 1.195312 21.554688 1.542969 21.253906 C 1.890625 20.957031 2.277344 20.726562 2.707031 20.566406 C 3.140625 20.40625 3.582031 20.324219 4.042969 20.324219 L 6.226562 20.324219 C 10.738281 20.324219 12.257812 17.957031 12.316406 17.855469 C 12.464844 17.621094 12.667969 17.542969 12.933594 17.613281 C 13.199219 17.6875 13.332031 17.863281 13.332031 18.140625 L 13.332031 21.964844 C 13.621094 21.964844 13.898438 22.019531 14.167969 22.128906 C 14.433594 22.242188 14.671875 22.398438 14.875 22.605469 C 15.082031 22.808594 15.238281 23.046875 15.351562 23.3125 C 15.460938 23.582031 15.515625 23.859375 15.515625 24.148438 Z M 4.042969 26.878906 L 5.683594 26.878906 L 5.683594 21.417969 L 4.042969 21.417969 C 3.679688 21.417969 3.332031 21.488281 2.996094 21.625 C 2.664062 21.765625 2.367188 21.960938 2.113281 22.21875 C 1.855469 22.472656 1.65625 22.769531 1.519531 23.105469 C 1.378906 23.4375 1.3125 23.785156 1.3125 24.148438 C 1.3125 24.511719 1.378906 24.859375 1.519531 25.195312 C 1.65625 25.527344 1.855469 25.824219 2.113281 26.082031 C 2.367188 26.335938 2.664062 26.535156 2.996094 26.671875 C 3.332031 26.8125 3.679688 26.878906 4.042969 26.878906 Z M 5.683594 30.976562 L 5.683594 27.972656 L 4.042969 27.972656 L 4.042969 30.976562 C 4.042969 31.203125 4.125 31.398438 4.28125 31.558594 C 4.441406 31.71875 4.636719 31.796875 4.863281 31.796875 C 5.089844 31.796875 5.28125 31.71875 5.441406 31.558594 C 5.601562 31.398438 5.683594 31.203125 5.683594 30.976562 Z M 12.238281 19.527344 C 11.277344 20.328125 9.546875 21.277344 6.773438 21.394531 L 6.773438 26.902344 C 9.546875 27.019531 11.277344 27.96875 12.238281 28.769531 Z M 14.425781 24.148438 C 14.421875 24.003906 14.394531 23.863281 14.339844 23.730469 C 14.285156 23.597656 14.207031 23.480469 14.101562 23.375 C 14 23.273438 13.882812 23.195312 13.75 23.140625 C 13.617188 23.085938 13.476562 23.054688 13.332031 23.054688 L 13.332031 25.242188 C 13.476562 25.242188 13.617188 25.214844 13.75 25.15625 C 13.882812 25.101562 14 25.023438 14.101562 24.921875 C 14.207031 24.820312 14.285156 24.699219 14.339844 24.566406 C 14.394531 24.433594 14.421875 24.292969 14.425781 24.148438 Z M 18.792969 23.601562 L 17.15625 23.601562 C 17.003906 23.601562 16.875 23.65625 16.769531 23.761719 C 16.664062 23.871094 16.609375 24 16.609375 24.148438 C 16.609375 24.300781 16.664062 24.429688 16.769531 24.535156 C 16.875 24.640625 17.003906 24.695312 17.15625 24.695312 L 18.792969 24.695312 C 18.945312 24.695312 19.074219 24.640625 19.179688 24.535156 C 19.289062 24.429688 19.339844 24.300781 19.339844 24.148438 C 19.339844 24 19.289062 23.871094 19.179688 23.761719 C 19.074219 23.65625 18.945312 23.601562 18.792969 23.601562 Z M 18.96875 26.363281 L 17.328125 25.816406 C 17.183594 25.769531 17.046875 25.777344 16.910156 25.84375 C 16.777344 25.914062 16.683594 26.019531 16.636719 26.160156 C 16.589844 26.304688 16.597656 26.445312 16.667969 26.578125 C 16.734375 26.714844 16.839844 26.804688 16.984375 26.851562 L 18.621094 27.398438 C 18.765625 27.445312 18.902344 27.4375 19.039062 27.367188 C 19.171875 27.300781 19.265625 27.195312 19.3125 27.054688 C 19.359375 26.910156 19.347656 26.773438 19.28125 26.636719 C 19.214844 26.503906 19.109375 26.410156 18.96875 26.363281 Z M 17.15625 22.511719 C 17.214844 22.511719 17.273438 22.5 17.328125 22.480469 L 18.96875 21.933594 C 19.109375 21.886719 19.214844 21.796875 19.285156 21.660156 C 19.351562 21.527344 19.363281 21.386719 19.3125 21.242188 C 19.265625 21.101562 19.175781 20.996094 19.039062 20.929688 C 18.902344 20.859375 18.765625 20.851562 18.621094 20.898438 L 16.984375 21.445312 C 16.855469 21.488281 16.757812 21.566406 16.6875 21.679688 C 16.617188 21.796875 16.59375 21.917969 16.617188 22.050781 C 16.636719 22.183594 16.699219 22.292969 16.800781 22.378906 C 16.902344 22.464844 17.023438 22.511719 17.15625 22.511719 Z M 17.15625 22.511719 " fill-opacity="1" fill-rule="nonzero"/></svg>