<svg xmlns="http://www.w3.org/2000/svg" xmlns:xlink="http://www.w3.org/1999/xlink" width="44" zoomAndPan="magnify" viewBox="0 0 33 32.999998" height="44" preserveAspectRatio="xMidYMid meet" version="1.0"><path fill="#1007aa" d="M 30.527344 16.539062 C 30.785156 16.539062 30.996094 16.332031 30.996094 16.074219 L 30.996094 14.539062 L 31.683594 14.539062 C 32.410156 14.539062 33 13.949219 33 13.222656 L 33 11.574219 C 33 10.847656 32.410156 10.257812 31.683594 10.257812 L 29.433594 10.257812 L 16.96875 4.855469 L 16.96875 3.886719 L 21.175781 3.886719 C 21.433594 3.886719 21.644531 3.679688 21.644531 3.421875 L 21.644531 0.46875 C 21.644531 0.210938 21.433594 0 21.175781 0 L 16.5 0 C 16.375 0 16.257812 0.0507812 16.167969 0.136719 C 16.082031 0.226562 16.03125 0.34375 16.03125 0.46875 L 16.03125 4.855469 L 3.566406 10.257812 L 1.316406 10.257812 C 0.589844 10.257812 0 10.847656 0 11.574219 L 0 13.222656 C 0 13.949219 0.589844 14.539062 1.316406 14.539062 L 2.003906 14.539062 L 2.003906 16.074219 C 2.003906 16.332031 2.214844 16.539062 2.472656 16.539062 L 3.097656 16.539062 L 3.097656 26.695312 L 2.472656 26.695312 C 2.214844 26.695312 2.003906 26.902344 2.003906 27.164062 L 2.003906 28.695312 L 1.445312 28.695312 C 0.648438 28.695312 0 29.34375 0 30.140625 L 0 31.554688 C 0 32.351562 0.648438 33 1.445312 33 L 31.554688 33 C 32.351562 33 33 32.351562 33 31.554688 L 33 30.140625 C 33 29.34375 32.351562 28.695312 31.554688 28.695312 L 30.996094 28.695312 L 30.996094 27.164062 C 30.996094 26.902344 30.785156 26.695312 30.527344 26.695312 L 29.902344 26.695312 L 29.902344 16.539062 Z M 30.0625 15.605469 L 26.285156 15.605469 L 26.285156 14.539062 L 30.0625 14.539062 Z M 25.816406 26.695312 C 25.558594 26.695312 25.347656 26.902344 25.347656 27.164062 L 25.347656 28.695312 L 23.214844 28.695312 L 23.214844 27.164062 C 23.214844 26.902344 23.003906 26.695312 22.746094 26.695312 L 22.121094 26.695312 L 22.121094 16.539062 L 22.746094 16.539062 C 23.003906 16.539062 23.214844 16.332031 23.214844 16.074219 L 23.214844 14.539062 L 25.347656 14.539062 L 25.347656 16.074219 C 25.347656 16.332031 25.558594 16.539062 25.816406 16.539062 L 26.441406 16.539062 L 26.441406 26.695312 Z M 7.183594 26.695312 L 6.558594 26.695312 L 6.558594 16.539062 L 7.183594 16.539062 C 7.441406 16.539062 7.652344 16.332031 7.652344 16.074219 L 7.652344 14.539062 L 9.785156 14.539062 L 9.785156 16.074219 C 9.785156 16.332031 9.996094 16.539062 10.253906 16.539062 L 10.878906 16.539062 L 10.878906 26.695312 L 10.253906 26.695312 C 9.996094 26.695312 9.785156 26.902344 9.785156 27.164062 L 9.785156 28.695312 L 7.652344 28.695312 L 7.652344 27.164062 C 7.652344 26.902344 7.441406 26.695312 7.183594 26.695312 Z M 11.8125 26.695312 L 11.8125 16.539062 L 13.40625 16.539062 L 13.40625 26.695312 Z M 10.722656 15.605469 L 10.722656 14.539062 L 14.496094 14.539062 L 14.496094 15.605469 Z M 10.722656 27.628906 L 14.496094 27.628906 L 14.496094 28.695312 L 10.722656 28.695312 Z M 14.964844 26.695312 L 14.339844 26.695312 L 14.339844 16.539062 L 14.964844 16.539062 C 15.222656 16.539062 15.433594 16.332031 15.433594 16.074219 L 15.433594 14.539062 L 17.566406 14.539062 L 17.566406 16.074219 C 17.566406 16.332031 17.777344 16.539062 18.035156 16.539062 L 18.660156 16.539062 L 18.660156 26.695312 L 18.035156 26.695312 C 17.777344 26.695312 17.566406 26.902344 17.566406 27.164062 L 17.566406 28.695312 L 15.433594 28.695312 L 15.433594 27.164062 C 15.433594 26.902344 15.222656 26.695312 14.964844 26.695312 Z M 19.59375 26.695312 L 19.59375 16.539062 L 21.1875 16.539062 L 21.1875 26.695312 Z M 18.503906 15.605469 L 18.503906 14.539062 L 22.277344 14.539062 L 22.277344 15.605469 Z M 18.503906 27.628906 L 22.277344 27.628906 L 22.277344 28.695312 L 18.503906 28.695312 Z M 16.96875 0.933594 L 20.707031 0.933594 L 20.707031 2.953125 L 16.96875 2.953125 Z M 16.5 5.671875 L 27.082031 10.257812 L 5.917969 10.257812 Z M 0.933594 13.222656 L 0.933594 11.570312 C 0.933594 11.363281 1.105469 11.191406 1.316406 11.191406 L 31.683594 11.191406 C 31.894531 11.191406 32.066406 11.363281 32.066406 11.570312 L 32.066406 13.222656 C 32.066406 13.433594 31.894531 13.601562 31.683594 13.601562 L 1.316406 13.601562 C 1.105469 13.601562 0.933594 13.433594 0.933594 13.222656 Z M 2.9375 14.539062 L 6.714844 14.539062 L 6.714844 15.605469 L 2.9375 15.605469 Z M 4.03125 16.539062 L 5.625 16.539062 L 5.625 26.695312 L 4.03125 26.695312 Z M 2.9375 27.628906 L 6.714844 27.628906 L 6.714844 28.695312 L 2.9375 28.695312 Z M 32.066406 30.140625 L 32.066406 31.554688 C 32.066406 31.835938 31.835938 32.066406 31.554688 32.066406 L 1.445312 32.066406 C 1.164062 32.066406 0.933594 31.835938 0.933594 31.554688 L 0.933594 30.140625 C 0.933594 29.859375 1.164062 29.632812 1.445312 29.632812 L 31.554688 29.632812 C 31.835938 29.632812 32.066406 29.859375 32.066406 30.140625 Z M 30.0625 28.695312 L 26.285156 28.695312 L 26.285156 27.628906 L 30.0625 27.628906 Z M 28.96875 26.695312 L 27.375 26.695312 L 27.375 16.539062 L 28.96875 16.539062 Z M 28.96875 26.695312 " fill-opacity="1" fill-rule="nonzero"/></svg>