<svg xmlns="http://www.w3.org/2000/svg" xmlns:xlink="http://www.w3.org/1999/xlink" width="44" zoomAndPan="magnify" viewBox="0 0 33 32.999998" height="44" preserveAspectRatio="xMidYMid meet" version="1.0"><defs><clipPath id="12c663bcaa"><path d="M 0 6.601562 L 33 6.601562 L 33 26.101562 L 0 26.101562 Z M 0 6.601562 " clip-rule="nonzero"/></clipPath></defs><g clip-path="url(#12c663bcaa)"><path fill="#1007aa" d="M 30.167969 6.601562 L 2.832031 6.601562 C 1.273438 6.601562 0.0078125 7.867188 0.0078125 9.425781 L 0.0078125 23.566406 C 0.0078125 25.125 1.273438 26.394531 2.832031 26.394531 L 30.164062 26.394531 C 31.726562 26.394531 32.992188 25.125 32.992188 23.566406 L 32.992188 9.425781 C 32.992188 7.867188 31.726562 6.601562 30.167969 6.601562 Z M 2.832031 7.699219 L 30.164062 7.699219 C 31.121094 7.699219 31.894531 8.476562 31.894531 9.425781 L 31.894531 22.5625 L 1.105469 22.5625 L 1.105469 9.425781 C 1.105469 8.476562 1.878906 7.699219 2.832031 7.699219 Z M 30.167969 25.292969 L 2.832031 25.292969 C 1.914062 25.292969 1.167969 24.570312 1.117188 23.664062 L 31.882812 23.664062 C 31.832031 24.570312 31.085938 25.292969 30.167969 25.292969 Z M 30.167969 25.292969 " fill-opacity="1" fill-rule="nonzero"/></g><path fill="#1007aa" d="M 3.882812 20.542969 L 10.832031 20.542969 C 11.769531 20.542969 12.53125 19.78125 12.53125 18.84375 L 12.53125 11.890625 C 12.53125 10.957031 11.769531 10.195312 10.832031 10.195312 L 3.882812 10.195312 C 2.949219 10.195312 2.183594 10.957031 2.183594 11.890625 L 2.183594 18.84375 C 2.183594 19.78125 2.949219 20.542969 3.882812 20.542969 Z M 5.148438 19.441406 L 5.148438 17.847656 C 5.148438 16.628906 6.140625 15.636719 7.359375 15.636719 C 8.578125 15.636719 9.570312 16.628906 9.570312 17.847656 L 9.570312 19.441406 Z M 6.453125 13.628906 C 6.453125 13.128906 6.859375 12.722656 7.359375 12.722656 C 7.859375 12.722656 8.269531 13.128906 8.269531 13.628906 C 8.269531 14.128906 7.859375 14.539062 7.359375 14.539062 C 6.859375 14.539062 6.453125 14.128906 6.453125 13.628906 Z M 3.285156 11.890625 C 3.285156 11.5625 3.554688 11.292969 3.882812 11.292969 L 10.835938 11.292969 C 11.164062 11.292969 11.433594 11.5625 11.433594 11.890625 L 11.433594 18.84375 C 11.433594 19.171875 11.164062 19.441406 10.835938 19.441406 L 10.671875 19.441406 L 10.671875 17.847656 C 10.671875 16.574219 9.9375 15.476562 8.878906 14.925781 C 9.179688 14.574219 9.367188 14.125 9.367188 13.628906 C 9.367188 12.523438 8.46875 11.621094 7.359375 11.621094 C 6.253906 11.621094 5.351562 12.523438 5.351562 13.628906 C 5.351562 14.125 5.539062 14.574219 5.839844 14.925781 C 4.78125 15.476562 4.050781 16.574219 4.050781 17.847656 L 4.050781 19.441406 L 3.882812 19.441406 C 3.554688 19.441406 3.285156 19.171875 3.285156 18.84375 Z M 3.285156 11.890625 " fill-opacity="1" fill-rule="nonzero"/><path fill="#1007aa" d="M 14.988281 17.046875 L 29.714844 17.046875 C 30.019531 17.046875 30.265625 16.800781 30.265625 16.496094 C 30.265625 16.191406 30.019531 15.945312 29.714844 15.945312 L 14.988281 15.945312 C 14.683594 15.945312 14.4375 16.191406 14.4375 16.496094 C 14.4375 16.800781 14.683594 17.046875 14.988281 17.046875 Z M 14.988281 17.046875 " fill-opacity="1" fill-rule="nonzero"/><path fill="#1007aa" d="M 14.988281 19.835938 L 24.765625 19.835938 C 25.070312 19.835938 25.316406 19.589844 25.316406 19.285156 C 25.316406 18.980469 25.070312 18.734375 24.765625 18.734375 L 14.988281 18.734375 C 14.683594 18.734375 14.4375 18.980469 14.4375 19.285156 C 14.4375 19.589844 14.683594 19.835938 14.988281 19.835938 Z M 14.988281 19.835938 " fill-opacity="1" fill-rule="nonzero"/><path fill="#1007aa" d="M 14.988281 14.257812 L 24.765625 14.257812 C 25.070312 14.257812 25.316406 14.011719 25.316406 13.707031 C 25.316406 13.40625 25.070312 13.15625 24.765625 13.15625 L 14.988281 13.15625 C 14.683594 13.15625 14.4375 13.40625 14.4375 13.707031 C 14.4375 14.011719 14.683594 14.257812 14.988281 14.257812 Z M 14.988281 14.257812 " fill-opacity="1" fill-rule="nonzero"/><path fill="#1007aa" d="M 14.988281 11.46875 L 26.945312 11.46875 C 27.25 11.46875 27.496094 11.222656 27.496094 10.921875 C 27.496094 10.617188 27.25 10.371094 26.945312 10.371094 L 14.988281 10.371094 C 14.683594 10.371094 14.4375 10.617188 14.4375 10.921875 C 14.4375 11.222656 14.683594 11.46875 14.988281 11.46875 Z M 14.988281 11.46875 " fill-opacity="1" fill-rule="nonzero"/></svg>