<svg width="230" height="60" viewBox="0 0 230 60" fill="none" xmlns="http://www.w3.org/2000/svg">
<path d="M58.1382 47.91C58.8483 47.91 59.5584 47.9268 60.2685 47.9606V46.3418C60.2685 43.7114 58.7976 42.3962 55.8558 42.3962C54.5371 42.3962 53.5735 42.5143 52.9648 42.7503C51.8828 43.155 51.1051 43.5091 50.6317 43.8126C50.1584 44.0824 49.7864 44.2173 49.5159 44.2173C49.2454 44.2173 48.9918 44.1161 48.7551 43.9138C48.5184 43.7114 48.4001 43.4417 48.4001 43.1044C48.4001 42.8346 48.5522 42.5649 48.8565 42.2951C50.4458 40.7775 52.7958 40.0188 55.9066 40.0188C59.4908 40.0188 61.79 41.2159 62.8044 43.6103C63.1426 44.4533 63.3116 45.4313 63.3116 46.5442L63.2102 58.2293C63.2102 58.6677 63.058 59.0049 62.7537 59.241C62.4494 59.477 62.1113 59.5951 61.7393 59.5951C61.3674 59.5951 61.0292 59.4939 60.7249 59.2915C60.4206 59.0892 60.2685 58.752 60.2685 58.2799V56.4588C59.4569 58.2124 58.003 59.3084 55.9066 59.7468C55.2641 59.9154 54.5371 59.9997 53.7256 59.9997C52.9141 59.9997 52.1026 59.8817 51.2911 59.6456C50.5134 59.4096 49.8202 59.0386 49.2116 58.5328C47.9605 57.4874 47.335 56.071 47.335 54.2837C47.335 50.0345 50.9361 47.91 58.1382 47.91ZM60.2685 50.1863C59.7274 50.2537 59.1019 50.2875 58.3918 50.2875C57.6818 50.2875 56.9548 50.3043 56.2109 50.338C55.467 50.338 54.7569 50.4224 54.0807 50.591C53.4044 50.7259 52.7958 50.9451 52.2548 51.2486C51.1051 51.8556 50.4965 52.8504 50.4289 54.2331C50.4289 55.3122 50.8684 56.1553 51.7476 56.7623C52.4238 57.3019 53.3875 57.5885 54.6386 57.6223C56.1602 57.6223 57.4789 57.1333 58.5947 56.1553C59.6091 55.211 60.167 53.7947 60.2685 51.9062V50.1863Z" fill="white"/>
<path d="M69.1326 33.5945C69.1326 33.0549 69.3017 32.6671 69.6398 32.431C69.9779 32.195 70.2822 32.0769 70.5527 32.0769C70.8232 32.0769 71.043 32.0938 71.2121 32.1275C71.3812 32.1612 71.5502 32.2624 71.7193 32.431C72.0912 32.6671 72.2772 33.0549 72.2772 33.5945V58.0775C72.2772 58.5834 72.1081 58.9712 71.77 59.241C71.4319 59.477 71.0599 59.5951 70.6542 59.5951C70.2484 59.5951 69.8934 59.477 69.5891 59.241C69.2847 58.9712 69.1326 58.5834 69.1326 58.0775V33.5945Z" fill="white"/>
<path d="M81.9199 33.6957C81.9199 34.2352 81.7339 34.6736 81.3619 35.0109C80.99 35.3481 80.4659 35.5167 79.7896 35.5167C79.1134 35.5167 78.5893 35.3481 78.2173 35.0109C77.8454 34.6736 77.6594 34.2352 77.6594 33.6957C77.6594 33.2235 77.8454 32.8189 78.2173 32.4816C78.5893 32.1444 79.1134 31.9758 79.7896 31.9758C80.4997 31.9758 81.0238 32.1444 81.3619 32.4816C81.7339 32.8189 81.9199 33.2235 81.9199 33.6957ZM78.2681 41.9916C78.2681 41.4857 78.4371 41.0979 78.7752 40.8281C79.1134 40.5246 79.4177 40.3728 79.6882 40.3728C79.9587 40.3728 80.1785 40.4234 80.3476 40.5246C80.5166 40.592 80.6857 40.7101 80.8548 40.8787C81.2267 41.1148 81.4127 41.4857 81.4127 41.9916V58.0775C81.4127 58.5834 81.2436 58.9712 80.9055 59.241C80.5673 59.477 80.1954 59.5951 79.7896 59.5951C79.3839 59.5951 79.0288 59.477 78.7245 59.241C78.4202 58.9712 78.2681 58.5834 78.2681 58.0775V41.9916Z" fill="white"/>
<path d="M96.533 47.91C97.2431 47.91 97.9532 47.9268 98.6633 47.9606V46.3418C98.6633 43.7114 97.1924 42.3962 94.2507 42.3962C92.932 42.3962 91.9683 42.5143 91.3596 42.7503C90.2776 43.155 89.4999 43.5091 89.0265 43.8126C88.5532 44.0824 88.1812 44.2173 87.9107 44.2173C87.6402 44.2173 87.3866 44.1161 87.1499 43.9138C86.9132 43.7114 86.7949 43.4417 86.7949 43.1044C86.7949 42.8346 86.947 42.5649 87.2514 42.2951C88.8406 40.7775 91.1906 40.0188 94.3014 40.0188C97.8856 40.0188 100.185 41.2159 101.199 43.6103C101.537 44.4533 101.706 45.4313 101.706 46.5442L101.605 58.2293C101.605 58.6677 101.453 59.0049 101.149 59.241C100.844 59.477 100.506 59.5951 100.134 59.5951C99.7622 59.5951 99.4241 59.4939 99.1197 59.2915C98.8154 59.0892 98.6633 58.752 98.6633 58.2799V56.4588C97.8518 58.2124 96.3978 59.3084 94.3014 59.7468C93.6589 59.9154 92.932 59.9997 92.1204 59.9997C91.3089 59.9997 90.4974 59.8817 89.6859 59.6456C88.9082 59.4096 88.215 59.0386 87.6064 58.5328C86.3553 57.4874 85.7298 56.071 85.7298 54.2837C85.7298 50.0345 89.3309 47.91 96.533 47.91ZM98.6633 50.1863C98.1223 50.2537 97.4967 50.2875 96.7866 50.2875C96.0766 50.2875 95.3496 50.3043 94.6057 50.338C93.8618 50.338 93.1517 50.4224 92.4755 50.591C91.7992 50.7259 91.1906 50.9451 90.6496 51.2486C89.4999 51.8556 88.8913 52.8504 88.8237 54.2331C88.8237 55.3122 89.2632 56.1553 90.1424 56.7623C90.8186 57.3019 91.7823 57.5885 93.0334 57.6223C94.555 57.6223 95.8737 57.1333 96.9895 56.1553C98.0039 55.211 98.5618 53.7947 98.6633 51.9062V50.1863Z" fill="white"/>
<path d="M107.527 41.8398C107.527 41.4014 107.696 41.0473 108.035 40.7775C108.373 40.5077 108.711 40.3728 109.049 40.3728C109.759 40.3728 110.216 40.6426 110.418 41.1822C110.621 41.7218 110.672 42.5311 110.571 43.6103C110.976 42.5986 111.855 41.7218 113.208 40.9799C114.391 40.3391 115.558 40.0188 116.708 40.0188C117.891 40.0188 118.889 40.1705 119.7 40.474C120.512 40.7438 121.255 41.1822 121.932 41.7892C123.284 43.0707 123.961 44.9592 123.961 47.4547V58.1787C123.961 58.6508 123.775 59.0049 123.403 59.241C123.064 59.477 122.709 59.5951 122.338 59.5951C121.932 59.5951 121.577 59.477 121.272 59.241C120.968 58.9712 120.816 58.6171 120.816 58.1787V47.2524C120.816 45.6674 120.376 44.4533 119.497 43.6103C118.686 42.8009 117.671 42.3962 116.454 42.3962C114.831 42.3962 113.445 42.8684 112.295 43.8126C111.145 44.8243 110.571 46.3756 110.571 48.4664V58.1787C110.571 58.6508 110.402 59.0049 110.063 59.241C109.725 59.477 109.353 59.5951 108.948 59.5951C108.542 59.5951 108.204 59.477 107.933 59.241C107.663 58.9712 107.527 58.6171 107.527 58.1787V41.8398Z" fill="white"/>
<path d="M140.036 58.4822C140.036 59.4939 138.836 59.9997 136.435 59.9997C134.643 59.9997 133.375 59.5108 132.631 58.5328C131.819 57.4874 131.38 55.7675 131.312 53.3731V42.7503H129.081C128.675 42.7503 128.354 42.6323 128.117 42.3962C127.88 42.1264 127.762 41.8567 127.762 41.5869C127.762 41.3171 127.863 41.0473 128.066 40.7775C128.269 40.5077 128.607 40.3728 129.081 40.3728H131.515L131.718 34.9097C131.786 34.505 131.972 34.2015 132.276 33.9992C132.58 33.7631 132.901 33.6451 133.24 33.6451C133.578 33.6451 133.865 33.7462 134.102 33.9486C134.338 34.1509 134.457 34.4713 134.457 34.9097V40.3728H137.956C138.362 40.3728 138.667 40.5077 138.869 40.7775C139.106 41.0473 139.224 41.3171 139.224 41.5869C139.224 41.9241 139.106 42.2108 138.869 42.4468C138.667 42.6492 138.362 42.7503 137.956 42.7503H134.457V51.7038C134.457 54.1993 134.541 55.7169 134.71 56.2565C134.879 56.7623 135.15 57.1164 135.522 57.3187C135.894 57.5211 136.35 57.6223 136.891 57.6223L138.869 57.4705C139.241 57.4705 139.529 57.5885 139.732 57.8246C139.935 58.0607 140.036 58.2799 140.036 58.4822Z" fill="white"/>
<path d="M153.61 58.4822C153.61 59.4939 152.41 59.9997 150.009 59.9997C148.217 59.9997 146.949 59.5108 146.205 58.5328C145.393 57.4874 144.954 55.7675 144.886 53.3731V42.7503H142.654C142.249 42.7503 141.927 42.6323 141.691 42.3962C141.454 42.1264 141.336 41.8567 141.336 41.5869C141.336 41.3171 141.437 41.0473 141.64 40.7775C141.843 40.5077 142.181 40.3728 142.654 40.3728H145.089L145.292 34.9097C145.36 34.505 145.545 34.2015 145.85 33.9992C146.154 33.7631 146.475 33.6451 146.813 33.6451C147.152 33.6451 147.439 33.7462 147.676 33.9486C147.912 34.1509 148.031 34.4713 148.031 34.9097V40.3728H151.53C151.936 40.3728 152.24 40.5077 152.443 40.7775C152.68 41.0473 152.798 41.3171 152.798 41.5869C152.798 41.9241 152.68 42.2108 152.443 42.4468C152.24 42.6492 151.936 42.7503 151.53 42.7503H148.031V51.7038C148.031 54.1993 148.115 55.7169 148.284 56.2565C148.453 56.7623 148.724 57.1164 149.096 57.3187C149.468 57.5211 149.924 57.6223 150.465 57.6223L152.443 57.4705C152.815 57.4705 153.103 57.5885 153.306 57.8246C153.508 58.0607 153.61 58.2799 153.61 58.4822Z" fill="white"/>
<path d="M170.904 33.6957C170.904 34.2352 170.719 34.6736 170.347 35.0109C169.975 35.3481 169.451 35.5167 168.774 35.5167C168.098 35.5167 167.574 35.3481 167.202 35.0109C166.83 34.6736 166.644 34.2352 166.644 33.6957C166.644 33.2235 166.83 32.8189 167.202 32.4816C167.574 32.1444 168.098 31.9758 168.774 31.9758C169.484 31.9758 170.008 32.1444 170.347 32.4816C170.719 32.8189 170.904 33.2235 170.904 33.6957ZM167.253 41.9916C167.253 41.4857 167.422 41.0979 167.76 40.8281C168.098 40.5246 168.402 40.3728 168.673 40.3728C168.943 40.3728 169.163 40.4234 169.332 40.5246C169.501 40.592 169.67 40.7101 169.839 40.8787C170.211 41.1148 170.397 41.4857 170.397 41.9916V58.0775C170.397 58.5834 170.228 58.9712 169.89 59.241C169.552 59.477 169.18 59.5951 168.774 59.5951C168.368 59.5951 168.013 59.477 167.709 59.241C167.405 58.9712 167.253 58.5834 167.253 58.0775V41.9916Z" fill="white"/>
<path d="M176.388 41.8398C176.388 41.4014 176.557 41.0473 176.895 40.7775C177.233 40.5077 177.572 40.3728 177.91 40.3728C178.62 40.3728 179.076 40.6426 179.279 41.1822C179.482 41.7218 179.533 42.5311 179.431 43.6103C179.837 42.5986 180.716 41.7218 182.069 40.9799C183.252 40.3391 184.419 40.0188 185.568 40.0188C186.752 40.0188 187.749 40.1705 188.561 40.474C189.372 40.7438 190.116 41.1822 190.792 41.7892C192.145 43.0707 192.821 44.9592 192.821 47.4547V58.1787C192.821 58.6508 192.635 59.0049 192.263 59.241C191.925 59.477 191.57 59.5951 191.198 59.5951C190.792 59.5951 190.437 59.477 190.133 59.241C189.829 58.9712 189.677 58.6171 189.677 58.1787V47.2524C189.677 45.6674 189.237 44.4533 188.358 43.6103C187.546 42.8009 186.532 42.3962 185.315 42.3962C183.692 42.3962 182.305 42.8684 181.156 43.8126C180.006 44.8243 179.431 46.3756 179.431 48.4664V58.1787C179.431 58.6508 179.262 59.0049 178.924 59.241C178.586 59.477 178.214 59.5951 177.808 59.5951C177.403 59.5951 177.064 59.477 176.794 59.241C176.523 58.9712 176.388 58.6171 176.388 58.1787V41.8398Z" fill="white"/>
<path d="M203.52 42.6997V58.0775C203.52 58.5834 203.351 58.9712 203.013 59.241C202.709 59.477 202.405 59.5951 202.1 59.5951C201.796 59.5951 201.542 59.5782 201.339 59.5445C201.17 59.477 201.018 59.359 200.883 59.1904C200.545 58.9543 200.393 58.5834 200.427 58.0775V42.6997H197.738C197.333 42.6997 197.028 42.5817 196.825 42.3456C196.623 42.1096 196.521 41.8398 196.521 41.5363C196.521 41.3002 196.623 41.0473 196.825 40.7775C197.028 40.5077 197.333 40.3728 197.738 40.3728H200.427V38.2483C200.427 34.7748 201.356 32.6502 203.216 31.8746C203.825 31.6385 204.433 31.5205 205.042 31.5205C206.124 31.5205 207.223 31.706 208.339 32.0769C208.846 32.2793 209.1 32.6165 209.1 33.0886C209.1 33.3584 209.015 33.6282 208.846 33.898C208.677 34.1341 208.44 34.2521 208.136 34.2521C207.865 34.2521 207.646 34.2521 207.477 34.2521C207.341 34.2184 207.206 34.1678 207.071 34.1003C206.699 34.0329 206.276 33.9992 205.803 33.9992C205.363 33.9992 204.991 34.1003 204.687 34.3027C204.383 34.4713 204.129 34.7579 203.926 35.1626C203.656 35.8034 203.52 37.3378 203.52 39.7658V40.3728H206.817C207.223 40.3728 207.527 40.4909 207.73 40.7269C207.967 40.963 208.085 41.2328 208.085 41.5363C208.085 41.8398 207.967 42.1096 207.73 42.3456C207.527 42.5817 207.223 42.6997 206.817 42.6997H203.52Z" fill="white"/>
<path d="M210.828 50.0345C210.828 48.8205 211.014 47.6065 211.386 46.3924C211.792 45.1784 212.4 44.0824 213.212 43.1044C214.902 41.0473 217.303 40.0188 220.414 40.0188C223.525 40.0188 225.926 41.0473 227.616 43.1044C229.205 45.0604 230 47.3535 230 49.984C230 52.6481 229.205 54.9413 227.616 56.8635C225.926 58.9543 223.525 59.9997 220.414 59.9997C217.303 59.9997 214.902 58.9543 213.212 56.8635C211.623 54.975 210.828 52.6987 210.828 50.0345ZM214.125 50.0345C214.125 50.8439 214.226 51.7038 214.429 52.6144C214.666 53.5249 215.072 54.368 215.646 55.1436C216.796 56.796 218.385 57.6223 220.414 57.6223C222.544 57.6223 224.133 56.796 225.182 55.1436C226.162 53.5923 226.653 51.8724 226.653 49.984C226.653 48.028 226.162 46.3418 225.182 44.9255C224.1 43.2393 222.51 42.3962 220.414 42.3962C218.385 42.3962 216.796 43.2393 215.646 44.9255C214.632 46.3081 214.125 48.0111 214.125 50.0345Z" fill="white"/>
<path d="M19.1525 18.9207L33.0042 42.2795L28.3033 50.3069L0 0H47.121L32.1533 28.2698L26.5038 18.9207H19.1525Z" fill="white"/>
<path d="M64.2662 0L33.2846 59.1551L28.3047 50.3069L33.0056 42.2795L55.0317 0H64.2662Z" fill="white"/>
<path d="M33.0042 42.2795L28.3033 50.3069L0 0H7.97904L19.1525 18.9207L33.0042 42.2795Z" fill="white"/>
</svg>
