<svg width="162" height="42" viewBox="0 0 162 42" fill="none" xmlns="http://www.w3.org/2000/svg">
<path d="M41.431 31.9352C41.9291 31.9352 42.4273 31.9469 42.9254 31.9703V30.8484C42.9254 29.0252 41.8936 28.1137 39.8298 28.1137C38.9047 28.1137 38.2286 28.1955 37.8016 28.3591C37.0425 28.6396 36.4969 28.885 36.1648 29.0954C35.8327 29.2824 35.5718 29.3758 35.382 29.3758C35.1923 29.3758 35.0144 29.3057 34.8483 29.1655C34.6823 29.0252 34.5992 28.8383 34.5992 28.6045C34.5992 28.4175 34.706 28.2306 34.9195 28.0436C36.0344 26.9918 37.683 26.4659 39.8654 26.4659C42.3799 26.4659 43.9929 27.2956 44.7046 28.9551C44.9418 29.5395 45.0604 30.2173 45.0604 30.9886L44.9892 39.0875C44.9892 39.3913 44.8825 39.625 44.669 39.7887C44.4555 39.9523 44.2183 40.0341 43.9573 40.0341C43.6964 40.0341 43.4592 39.964 43.2457 39.8237C43.0322 39.6835 42.9254 39.4497 42.9254 39.1225V37.8604C42.3561 39.0758 41.3361 39.8354 39.8654 40.1393C39.4147 40.2561 38.9047 40.3146 38.3354 40.3146C37.766 40.3146 37.1967 40.2328 36.6274 40.0691C36.0818 39.9055 35.5955 39.6484 35.1685 39.2978C34.2909 38.5732 33.852 37.5916 33.852 36.3528C33.852 33.4077 36.3783 31.9352 41.431 31.9352ZM42.9254 33.5129C42.5459 33.5597 42.1071 33.583 41.6089 33.583C41.1108 33.583 40.6008 33.5947 40.0789 33.6181C39.557 33.6181 39.0589 33.6765 38.5844 33.7934C38.11 33.8869 37.683 34.0388 37.3035 34.2492C36.4969 34.6699 36.07 35.3594 36.0225 36.3177C36.0225 37.0657 36.3309 37.65 36.9477 38.0707C37.4221 38.4447 38.0981 38.6434 38.9758 38.6667C40.0433 38.6667 40.9684 38.3278 41.7512 37.65C42.4629 36.9955 42.8543 36.0139 42.9254 34.705V33.5129Z" fill="#001979"/>
<path d="M49.1441 22.0133C49.1441 21.6393 49.2627 21.3705 49.4999 21.2069C49.7371 21.0433 49.9506 20.9615 50.1403 20.9615C50.3301 20.9615 50.4843 20.9731 50.6029 20.9965C50.7215 21.0199 50.8401 21.09 50.9587 21.2069C51.2197 21.3705 51.3501 21.6393 51.3501 22.0133V38.9823C51.3501 39.3329 51.2315 39.6017 50.9943 39.7887C50.7571 39.9523 50.4962 40.0341 50.2115 40.0341C49.9269 40.0341 49.6778 39.9523 49.4643 39.7887C49.2508 39.6017 49.1441 39.3329 49.1441 38.9823V22.0133Z" fill="#001979"/>
<path d="M58.1149 22.0834C58.1149 22.4573 57.9844 22.7612 57.7235 22.9949C57.4626 23.2287 57.0949 23.3455 56.6205 23.3455C56.146 23.3455 55.7784 23.2287 55.5174 22.9949C55.2565 22.7612 55.126 22.4573 55.126 22.0834C55.126 21.7561 55.2565 21.4757 55.5174 21.2419C55.7784 21.0082 56.146 20.8913 56.6205 20.8913C57.1186 20.8913 57.4863 21.0082 57.7235 21.2419C57.9844 21.4757 58.1149 21.7561 58.1149 22.0834ZM55.553 27.8332C55.553 27.4826 55.6716 27.2138 55.9088 27.0268C56.146 26.8165 56.3595 26.7113 56.5493 26.7113C56.7391 26.7113 56.8933 26.7463 57.0119 26.8165C57.1305 26.8632 57.2491 26.945 57.3677 27.0619C57.6286 27.2255 57.7591 27.4826 57.7591 27.8332V38.9823C57.7591 39.3329 57.6405 39.6017 57.4033 39.7887C57.1661 39.9523 56.9051 40.0341 56.6205 40.0341C56.3358 40.0341 56.0867 39.9523 55.8732 39.7887C55.6598 39.6017 55.553 39.3329 55.553 38.9823V27.8332Z" fill="#001979"/>
<path d="M68.3667 31.9352C68.8649 31.9352 69.363 31.9469 69.8612 31.9703V30.8484C69.8612 29.0252 68.8293 28.1137 66.7655 28.1137C65.8404 28.1137 65.1643 28.1955 64.7374 28.3591C63.9783 28.6396 63.4327 28.885 63.1006 29.0954C62.7685 29.2824 62.5075 29.3758 62.3178 29.3758C62.128 29.3758 61.9501 29.3057 61.784 29.1655C61.618 29.0252 61.535 28.8383 61.535 28.6045C61.535 28.4175 61.6417 28.2306 61.8552 28.0436C62.9701 26.9918 64.6188 26.4659 66.8011 26.4659C69.3156 26.4659 70.9287 27.2956 71.6403 28.9551C71.8775 29.5395 71.9961 30.2173 71.9961 30.9886L71.925 39.0875C71.925 39.3913 71.8182 39.625 71.6047 39.7887C71.3912 39.9523 71.154 40.0341 70.8931 40.0341C70.6321 40.0341 70.3949 39.964 70.1814 39.8237C69.9679 39.6835 69.8612 39.4497 69.8612 39.1225V37.8604C69.2919 39.0758 68.2719 39.8354 66.8011 40.1393C66.3504 40.2561 65.8404 40.3146 65.2711 40.3146C64.7018 40.3146 64.1325 40.2328 63.5632 40.0691C63.0176 39.9055 62.5313 39.6484 62.1043 39.2978C61.2266 38.5732 60.7877 37.5916 60.7877 36.3528C60.7877 33.4077 63.3141 31.9352 68.3667 31.9352ZM69.8612 33.5129C69.4816 33.5597 69.0428 33.583 68.5447 33.583C68.0465 33.583 67.5365 33.5947 67.0146 33.6181C66.4927 33.6181 65.9946 33.6765 65.5202 33.7934C65.0457 33.8869 64.6188 34.0388 64.2392 34.2492C63.4327 34.6699 63.0057 35.3594 62.9583 36.3177C62.9583 37.0657 63.2666 37.65 63.8834 38.0707C64.3578 38.4447 65.0339 38.6434 65.9116 38.6667C66.979 38.6667 67.9042 38.3278 68.687 37.65C69.3986 36.9955 69.79 36.0139 69.8612 34.705V33.5129Z" fill="#001979"/>
<path d="M76.0798 27.728C76.0798 27.4242 76.1984 27.1788 76.4356 26.9918C76.6728 26.8048 76.91 26.7113 77.1473 26.7113C77.6454 26.7113 77.9656 26.8983 78.108 27.2723C78.2503 27.6462 78.2859 28.2072 78.2147 28.9551C78.4994 28.2539 79.1161 27.6462 80.065 27.132C80.8952 26.6879 81.7136 26.4659 82.5202 26.4659C83.3504 26.4659 84.0502 26.571 84.6195 26.7814C85.1888 26.9684 85.7107 27.2722 86.1851 27.693C87.134 28.5812 87.6084 29.8901 87.6084 31.6197V39.0524C87.6084 39.3796 87.4779 39.625 87.217 39.7887C86.9798 39.9523 86.7307 40.0341 86.4698 40.0341C86.1851 40.0341 85.936 39.9523 85.7225 39.7887C85.5091 39.6017 85.4023 39.3563 85.4023 39.0524V31.4794C85.4023 30.3809 85.0939 29.5395 84.4772 28.9551C83.9079 28.3942 83.1962 28.1137 82.3422 28.1137C81.2036 28.1137 80.231 28.4409 79.4245 29.0954C78.618 29.7966 78.2147 30.8717 78.2147 32.3209V39.0524C78.2147 39.3796 78.0961 39.625 77.8589 39.7887C77.6217 39.9523 77.3607 40.0341 77.0761 40.0341C76.7914 40.0341 76.5542 39.9523 76.3644 39.7887C76.1747 39.6017 76.0798 39.3563 76.0798 39.0524V27.728Z" fill="#001979"/>
<path d="M98.8861 39.2628C98.8861 39.964 98.0439 40.3146 96.3597 40.3146C95.1025 40.3146 94.2129 39.9756 93.6911 39.2978C93.1218 38.5732 92.8134 37.3812 92.7659 35.7217V28.3591H91.2003C90.9157 28.3591 90.6903 28.2773 90.5243 28.1137C90.3582 27.9267 90.2752 27.7397 90.2752 27.5527C90.2752 27.3657 90.3463 27.1788 90.4887 26.9918C90.631 26.8048 90.8682 26.7113 91.2003 26.7113H92.9083L93.0506 22.9248C93.098 22.6443 93.2285 22.434 93.442 22.2937C93.6555 22.1301 93.8808 22.0483 94.1181 22.0483C94.3553 22.0483 94.5569 22.1184 94.7229 22.2587C94.889 22.3989 94.972 22.621 94.972 22.9248V26.7113H97.4272C97.7119 26.7113 97.9253 26.8048 98.0677 26.9918C98.2337 27.1788 98.3167 27.3657 98.3167 27.5527C98.3167 27.7865 98.2337 27.9851 98.0677 28.1487C97.9253 28.289 97.7119 28.3591 97.4272 28.3591H94.972V34.5647C94.972 36.2943 95.0313 37.3461 95.1499 37.7201C95.2685 38.0707 95.4583 38.3161 95.7192 38.4564C95.9802 38.5966 96.3004 38.6667 96.68 38.6667L98.0677 38.5616C98.3286 38.5616 98.5302 38.6434 98.6726 38.807C98.8149 38.9706 98.8861 39.1225 98.8861 39.2628Z" fill="#001979"/>
<path d="M108.409 39.2628C108.409 39.964 107.567 40.3146 105.882 40.3146C104.625 40.3146 103.736 39.9756 103.214 39.2978C102.644 38.5732 102.336 37.3812 102.289 35.7217V28.3591H100.723C100.438 28.3591 100.213 28.2773 100.047 28.1137C99.8809 27.9267 99.7979 27.7397 99.7979 27.5527C99.7979 27.3657 99.8691 27.1788 100.011 26.9918C100.154 26.8048 100.391 26.7113 100.723 26.7113H102.431L102.573 22.9248C102.621 22.6443 102.751 22.434 102.965 22.2937C103.178 22.1301 103.404 22.0483 103.641 22.0483C103.878 22.0483 104.08 22.1184 104.246 22.2587C104.412 22.3989 104.495 22.621 104.495 22.9248V26.7113H106.95C107.235 26.7113 107.448 26.8048 107.59 26.9918C107.756 27.1788 107.839 27.3657 107.839 27.5527C107.839 27.7865 107.756 27.9851 107.59 28.1487C107.448 28.289 107.235 28.3591 106.95 28.3591H104.495V34.5647C104.495 36.2943 104.554 37.3461 104.673 37.7201C104.791 38.0707 104.981 38.3161 105.242 38.4564C105.503 38.5966 105.823 38.6667 106.203 38.6667L107.59 38.5616C107.851 38.5616 108.053 38.6434 108.195 38.807C108.338 38.9706 108.409 39.1225 108.409 39.2628Z" fill="#001979"/>
<path d="M120.542 22.0834C120.542 22.4573 120.411 22.7612 120.15 22.9949C119.889 23.2287 119.522 23.3455 119.047 23.3455C118.573 23.3455 118.205 23.2287 117.944 22.9949C117.683 22.7612 117.553 22.4573 117.553 22.0834C117.553 21.7561 117.683 21.4757 117.944 21.2419C118.205 21.0082 118.573 20.8913 119.047 20.8913C119.545 20.8913 119.913 21.0082 120.15 21.2419C120.411 21.4757 120.542 21.7561 120.542 22.0834ZM117.98 27.8332C117.98 27.4826 118.098 27.2138 118.336 27.0268C118.573 26.8165 118.786 26.7113 118.976 26.7113C119.166 26.7113 119.32 26.7463 119.439 26.8165C119.557 26.8632 119.676 26.945 119.795 27.0619C120.055 27.2255 120.186 27.4826 120.186 27.8332V38.9823C120.186 39.3329 120.067 39.6017 119.83 39.7887C119.593 39.9523 119.332 40.0341 119.047 40.0341C118.763 40.0341 118.514 39.9523 118.3 39.7887C118.087 39.6017 117.98 39.3329 117.98 38.9823V27.8332Z" fill="#001979"/>
<path d="M124.389 27.728C124.389 27.4242 124.507 27.1788 124.745 26.9918C124.982 26.8048 125.219 26.7113 125.456 26.7113C125.954 26.7113 126.275 26.8983 126.417 27.2723C126.559 27.6462 126.595 28.2072 126.524 28.9551C126.808 28.2539 127.425 27.6462 128.374 27.132C129.204 26.6879 130.023 26.4659 130.829 26.4659C131.659 26.4659 132.359 26.571 132.928 26.7814C133.498 26.9684 134.02 27.2722 134.494 27.693C135.443 28.5812 135.917 29.8901 135.917 31.6197V39.0524C135.917 39.3796 135.787 39.625 135.526 39.7887C135.289 39.9523 135.04 40.0341 134.779 40.0341C134.494 40.0341 134.245 39.9523 134.032 39.7887C133.818 39.6017 133.711 39.3563 133.711 39.0524V31.4794C133.711 30.3809 133.403 29.5395 132.786 28.9551C132.217 28.3942 131.505 28.1137 130.651 28.1137C129.513 28.1137 128.54 28.4409 127.734 29.0954C126.927 29.7966 126.524 30.8717 126.524 32.3209V39.0524C126.524 39.3796 126.405 39.625 126.168 39.7887C125.931 39.9523 125.67 40.0341 125.385 40.0341C125.1 40.0341 124.863 39.9523 124.673 39.7887C124.484 39.6017 124.389 39.3563 124.389 39.0524V27.728Z" fill="#001979"/>
<path d="M143.423 28.324V38.9823C143.423 39.3329 143.305 39.6017 143.068 39.7887C142.854 39.9523 142.641 40.0341 142.427 40.0341C142.214 40.0341 142.036 40.0224 141.893 39.999C141.775 39.9523 141.668 39.8705 141.573 39.7536C141.336 39.59 141.229 39.3329 141.253 38.9823V28.324H139.367C139.082 28.324 138.869 28.2422 138.727 28.0786C138.584 27.915 138.513 27.728 138.513 27.5177C138.513 27.3541 138.584 27.1788 138.727 26.9918C138.869 26.8048 139.082 26.7113 139.367 26.7113H141.253V25.2388C141.253 22.8313 141.905 21.3588 143.21 20.8212C143.637 20.6576 144.064 20.5758 144.491 20.5758C145.25 20.5758 146.021 20.7043 146.804 20.9615C147.159 21.1017 147.337 21.3354 147.337 21.6627C147.337 21.8496 147.278 22.0366 147.159 22.2236C147.041 22.3872 146.875 22.469 146.661 22.469C146.472 22.469 146.317 22.469 146.199 22.469C146.104 22.4457 146.009 22.4106 145.914 22.3639C145.653 22.3171 145.357 22.2937 145.025 22.2937C144.716 22.2937 144.455 22.3639 144.242 22.5041C144.028 22.621 143.85 22.8196 143.708 23.1001C143.518 23.5442 143.423 24.6077 143.423 26.2906V26.7113H145.736C146.021 26.7113 146.234 26.7931 146.377 26.9567C146.543 27.1203 146.626 27.3073 146.626 27.5177C146.626 27.728 146.543 27.915 146.377 28.0786C146.234 28.2422 146.021 28.324 145.736 28.324H143.423Z" fill="#001979"/>
<path d="M148.55 33.4077C148.55 32.5663 148.68 31.7249 148.941 30.8834C149.226 30.042 149.653 29.2824 150.222 28.6045C151.408 27.1788 153.093 26.4659 155.275 26.4659C157.457 26.4659 159.142 27.1788 160.328 28.6045C161.443 29.9602 162 31.5496 162 33.3727C162 35.2192 161.443 36.8086 160.328 38.1408C159.142 39.59 157.457 40.3146 155.275 40.3146C153.093 40.3146 151.408 39.59 150.222 38.1408C149.107 36.8319 148.55 35.2542 148.55 33.4077ZM150.863 33.4077C150.863 33.9687 150.934 34.5647 151.076 35.1958C151.242 35.8269 151.527 36.4112 151.93 36.9488C152.737 38.0941 153.852 38.6667 155.275 38.6667C156.769 38.6667 157.884 38.0941 158.62 36.9488C159.308 35.8736 159.652 34.6816 159.652 33.3727C159.652 32.017 159.308 30.8484 158.62 29.8667C157.861 28.698 156.746 28.1137 155.275 28.1137C153.852 28.1137 152.737 28.698 151.93 29.8667C151.219 30.825 150.863 32.0053 150.863 33.4077Z" fill="#001979"/>
<path d="M13.4364 13.1138L23.154 29.3036L19.8561 34.8674L0 0H33.0576L22.557 19.5936L18.5937 13.1138H13.4364Z" fill="url(#paint0_linear_13404_48294)"/>
<path d="M45.0847 0L23.3497 41L19.8561 34.8674L23.154 29.3036L38.6063 0H45.0847Z" fill="url(#paint1_linear_13404_48294)"/>
<path d="M23.154 29.3036L19.8561 34.8674L0 0H5.59767L13.4364 13.1138L23.154 29.3036Z" fill="url(#paint2_linear_13404_48294)"/>
<defs>
<linearGradient id="paint0_linear_13404_48294" x1="1480.21" y1="-1.31797" x2="1474.87" y2="101.887" gradientUnits="userSpaceOnUse">
<stop stop-color="#08A6E0"/>
<stop offset="0.34" stop-color="#0990DF"/>
<stop offset="0.61" stop-color="#0149D6"/>
<stop offset="1" stop-color="#1B1464"/>
</linearGradient>
<linearGradient id="paint1_linear_13404_48294" x1="191.032" y1="34.9156" x2="191.369" y2="-16.6865" gradientUnits="userSpaceOnUse">
<stop stop-color="#08A6E0"/>
<stop offset="0.49" stop-color="#0990DF"/>
<stop offset="0.69" stop-color="#0149D6"/>
<stop offset="0.99" stop-color="#1B1464"/>
</linearGradient>
<linearGradient id="paint2_linear_13404_48294" x1="0" y1="19.8636" x2="275.02" y2="19.8636" gradientUnits="userSpaceOnUse">
<stop stop-color="#08A6E0"/>
<stop offset="0.49" stop-color="#0990DF"/>
<stop offset="0.82" stop-color="#0149D6"/>
<stop offset="1" stop-color="#1B1464"/>
</linearGradient>
</defs>
</svg>
