<svg xmlns="http://www.w3.org/2000/svg" xmlns:xlink="http://www.w3.org/1999/xlink" width="70" zoomAndPan="magnify" viewBox="0 0 52.5 52.499999" height="70" preserveAspectRatio="xMidYMid meet" version="1.0"><defs><clipPath id="89b48f6b95"><path d="M 0 0 L 52.003906 0 L 52.003906 52.003906 L 0 52.003906 Z M 0 0 " clip-rule="nonzero"/></clipPath><clipPath id="10f1340f5a"><path d="M 0.890625 43 L 3 43 L 3 45 L 0.890625 45 Z M 0.890625 43 " clip-rule="nonzero"/></clipPath><clipPath id="cc3d92e2df"><path d="M 50 43 L 51.410156 43 L 51.410156 45 L 50 45 Z M 50 43 " clip-rule="nonzero"/></clipPath><clipPath id="b9397ce1f0"><path d="M 0.890625 43 L 3 43 L 3 45 L 0.890625 45 Z M 0.890625 43 " clip-rule="nonzero"/></clipPath><clipPath id="069f000a58"><path d="M 50 43 L 51.410156 43 L 51.410156 45 L 50 45 Z M 50 43 " clip-rule="nonzero"/></clipPath><clipPath id="7faec50277"><path d="M 0.890625 43 L 3 43 L 3 45 L 0.890625 45 Z M 0.890625 43 " clip-rule="nonzero"/></clipPath><clipPath id="c820d1467a"><path d="M 49 43 L 51.410156 43 L 51.410156 45 L 49 45 Z M 49 43 " clip-rule="nonzero"/></clipPath><clipPath id="8bd67189fa"><path d="M 26.003906 14.710938 L 36.402344 14.710938 L 36.402344 25 L 26.003906 25 Z M 26.003906 14.710938 " clip-rule="nonzero"/></clipPath></defs><g clip-path="url(#89b48f6b95)"><path fill="#ffffff" d="M 0 0 L 52.003906 0 L 52.003906 52.003906 L 0 52.003906 Z M 0 0 " fill-opacity="1" fill-rule="nonzero"/><path fill="#ffffff" d="M 0 0 L 52.003906 0 L 52.003906 52.003906 L 0 52.003906 Z M 0 0 " fill-opacity="1" fill-rule="nonzero"/></g><path fill="#2d4356" d="M 17.128906 12.007812 C 17.128906 11.847656 17.160156 11.695312 17.222656 11.546875 C 17.28125 11.398438 17.371094 11.269531 17.480469 11.15625 C 17.59375 11.042969 17.726562 10.957031 17.871094 10.894531 C 18.019531 10.835938 18.171875 10.804688 18.332031 10.804688 L 42.992188 10.804688 C 43.148438 10.804688 43.304688 10.835938 43.449219 10.894531 C 43.597656 10.957031 43.726562 11.042969 43.839844 11.15625 C 43.953125 11.269531 44.039062 11.398438 44.101562 11.546875 C 44.164062 11.695312 44.191406 11.847656 44.195312 12.007812 L 44.195312 30.050781 C 44.191406 30.207031 44.164062 30.363281 44.101562 30.507812 C 44.039062 30.65625 43.953125 30.785156 43.839844 30.898438 C 43.726562 31.011719 43.597656 31.097656 43.449219 31.160156 C 43.304688 31.222656 43.148438 31.253906 42.992188 31.253906 L 35.726562 31.253906 C 35.789062 31.65625 35.78125 32.054688 35.707031 32.457031 L 42.992188 32.457031 C 43.308594 32.453125 43.617188 32.394531 43.910156 32.269531 C 44.203125 32.148438 44.464844 31.972656 44.691406 31.75 C 44.914062 31.523438 45.089844 31.261719 45.210938 30.96875 C 45.332031 30.675781 45.394531 30.367188 45.394531 30.050781 L 45.394531 12.007812 C 45.394531 11.6875 45.332031 11.382812 45.210938 11.085938 C 45.089844 10.792969 44.914062 10.535156 44.691406 10.308594 C 44.464844 10.082031 44.203125 9.910156 43.910156 9.785156 C 43.617188 9.664062 43.308594 9.601562 42.992188 9.601562 L 18.332031 9.601562 C 18.015625 9.601562 17.707031 9.664062 17.414062 9.785156 C 17.117188 9.910156 16.859375 10.082031 16.632812 10.308594 C 16.40625 10.535156 16.234375 10.792969 16.113281 11.085938 C 15.988281 11.382812 15.929688 11.6875 15.925781 12.007812 L 15.925781 18.757812 C 16.304688 18.535156 16.707031 18.363281 17.128906 18.242188 Z M 17.128906 12.007812 " fill-opacity="1" fill-rule="nonzero"/><path fill="#2d4356" d="M 18.644531 27.644531 C 18.917969 27.644531 19.191406 27.617188 19.464844 27.5625 C 19.734375 27.507812 20 27.429688 20.253906 27.324219 C 20.507812 27.21875 20.75 27.089844 20.980469 26.933594 C 21.210938 26.78125 21.425781 26.605469 21.621094 26.410156 C 21.816406 26.214844 21.988281 26.003906 22.144531 25.773438 C 22.296875 25.542969 22.425781 25.300781 22.53125 25.046875 C 22.636719 24.789062 22.71875 24.527344 22.773438 24.253906 C 22.824219 23.984375 22.851562 23.710938 22.851562 23.433594 C 22.851562 23.15625 22.824219 22.882812 22.773438 22.613281 C 22.71875 22.339844 22.636719 22.078125 22.53125 21.824219 C 22.425781 21.566406 22.296875 21.324219 22.144531 21.09375 C 21.988281 20.867188 21.816406 20.652344 21.621094 20.457031 C 21.425781 20.261719 21.210938 20.085938 20.980469 19.933594 C 20.753906 19.78125 20.507812 19.652344 20.253906 19.542969 C 20 19.4375 19.734375 19.359375 19.464844 19.304688 C 19.191406 19.25 18.917969 19.222656 18.644531 19.222656 C 18.367188 19.222656 18.09375 19.25 17.820312 19.304688 C 17.550781 19.359375 17.289062 19.4375 17.03125 19.542969 C 16.777344 19.648438 16.535156 19.78125 16.304688 19.933594 C 16.074219 20.085938 15.863281 20.261719 15.667969 20.457031 C 15.46875 20.652344 15.296875 20.863281 15.140625 21.09375 C 14.988281 21.324219 14.859375 21.566406 14.753906 21.824219 C 14.648438 22.078125 14.566406 22.339844 14.515625 22.613281 C 14.460938 22.882812 14.433594 23.15625 14.433594 23.433594 C 14.433594 23.710938 14.460938 23.984375 14.511719 24.253906 C 14.566406 24.527344 14.648438 24.789062 14.753906 25.042969 C 14.859375 25.300781 14.988281 25.542969 15.140625 25.773438 C 15.296875 26.003906 15.46875 26.214844 15.664062 26.410156 C 15.859375 26.605469 16.074219 26.78125 16.304688 26.933594 C 16.535156 27.089844 16.777344 27.21875 17.03125 27.324219 C 17.285156 27.429688 17.550781 27.507812 17.820312 27.5625 C 18.09375 27.617188 18.367188 27.644531 18.644531 27.644531 Z M 18.644531 20.425781 C 19.042969 20.425781 19.425781 20.503906 19.792969 20.65625 C 20.160156 20.808594 20.488281 21.027344 20.769531 21.308594 C 21.050781 21.589844 21.269531 21.914062 21.421875 22.285156 C 21.574219 22.652344 21.648438 23.035156 21.648438 23.433594 C 21.648438 23.832031 21.574219 24.214844 21.421875 24.585938 C 21.269531 24.953125 21.050781 25.277344 20.769531 25.558594 C 20.488281 25.84375 20.160156 26.058594 19.792969 26.210938 C 19.425781 26.363281 19.039062 26.441406 18.640625 26.441406 C 18.242188 26.441406 17.859375 26.363281 17.492188 26.210938 C 17.125 26.058594 16.796875 25.84375 16.515625 25.558594 C 16.234375 25.277344 16.015625 24.953125 15.863281 24.585938 C 15.710938 24.214844 15.636719 23.832031 15.636719 23.433594 C 15.636719 23.035156 15.710938 22.652344 15.867188 22.285156 C 16.019531 21.914062 16.234375 21.589844 16.515625 21.308594 C 16.800781 21.027344 17.125 20.808594 17.492188 20.65625 C 17.859375 20.503906 18.242188 20.425781 18.644531 20.425781 Z M 47.5 6.894531 C 47.75 6.894531 47.964844 6.808594 48.140625 6.628906 C 48.316406 6.453125 48.402344 6.242188 48.402344 5.992188 C 48.402344 5.742188 48.316406 5.53125 48.140625 5.355469 C 47.964844 5.179688 47.75 5.089844 47.5 5.089844 C 47.253906 5.089844 47.039062 5.179688 46.863281 5.355469 C 46.6875 5.53125 46.597656 5.742188 46.597656 5.992188 C 46.597656 6.242188 46.6875 6.453125 46.863281 6.628906 C 47.039062 6.804688 47.253906 6.894531 47.5 6.894531 Z M 47.5 5.542969 C 47.625 5.542969 47.730469 5.585938 47.820312 5.675781 C 47.90625 5.761719 47.953125 5.867188 47.953125 5.992188 C 47.953125 6.117188 47.90625 6.222656 47.820312 6.3125 C 47.730469 6.398438 47.625 6.445312 47.5 6.445312 C 47.375 6.445312 47.269531 6.398438 47.183594 6.3125 C 47.09375 6.222656 47.050781 6.117188 47.050781 5.992188 C 47.050781 5.867188 47.09375 5.761719 47.183594 5.675781 C 47.269531 5.585938 47.375 5.542969 47.5 5.542969 Z M 21.339844 4.1875 C 21.589844 4.1875 21.800781 4.101562 21.976562 3.925781 C 22.152344 3.75 22.242188 3.535156 22.242188 3.285156 C 22.242188 3.039062 22.152344 2.824219 21.976562 2.648438 C 21.800781 2.472656 21.589844 2.382812 21.339844 2.382812 C 21.089844 2.382812 20.878906 2.472656 20.703125 2.648438 C 20.527344 2.824219 20.4375 3.039062 20.4375 3.285156 C 20.4375 3.535156 20.527344 3.75 20.703125 3.925781 C 20.878906 4.101562 21.089844 4.1875 21.339844 4.1875 Z M 21.339844 2.835938 C 21.464844 2.835938 21.570312 2.878906 21.660156 2.96875 C 21.746094 3.054688 21.789062 3.160156 21.789062 3.285156 C 21.789062 3.410156 21.746094 3.515625 21.660156 3.605469 C 21.570312 3.695312 21.464844 3.738281 21.339844 3.738281 C 21.214844 3.738281 21.109375 3.695312 21.019531 3.605469 C 20.933594 3.515625 20.886719 3.410156 20.886719 3.285156 C 20.890625 3.160156 20.933594 3.054688 21.019531 2.96875 C 21.109375 2.878906 21.214844 2.835938 21.339844 2.835938 Z M 42.089844 8.398438 C 42.253906 8.398438 42.394531 8.339844 42.515625 8.222656 C 42.632812 8.105469 42.691406 7.964844 42.691406 7.796875 C 42.691406 7.632812 42.632812 7.488281 42.515625 7.371094 C 42.394531 7.253906 42.253906 7.195312 42.089844 7.195312 C 41.921875 7.195312 41.78125 7.253906 41.664062 7.371094 C 41.546875 7.488281 41.488281 7.632812 41.488281 7.796875 C 41.488281 7.964844 41.546875 8.105469 41.664062 8.222656 C 41.78125 8.339844 41.921875 8.398438 42.089844 8.398438 Z M 42.089844 7.496094 C 42.171875 7.496094 42.242188 7.527344 42.300781 7.585938 C 42.359375 7.644531 42.390625 7.714844 42.390625 7.796875 C 42.390625 7.878906 42.359375 7.949219 42.300781 8.011719 C 42.242188 8.070312 42.171875 8.097656 42.089844 8.097656 C 42.003906 8.097656 41.933594 8.070312 41.875 8.011719 C 41.816406 7.949219 41.789062 7.878906 41.789062 7.796875 C 41.789062 7.714844 41.816406 7.644531 41.875 7.585938 C 41.933594 7.527344 42.003906 7.496094 42.089844 7.496094 Z M 14.722656 9.300781 C 14.890625 9.300781 15.03125 9.242188 15.148438 9.125 C 15.265625 9.007812 15.324219 8.867188 15.324219 8.699219 C 15.324219 8.535156 15.265625 8.390625 15.148438 8.273438 C 15.03125 8.15625 14.890625 8.097656 14.722656 8.097656 C 14.558594 8.097656 14.417969 8.15625 14.296875 8.273438 C 14.179688 8.390625 14.121094 8.535156 14.121094 8.699219 C 14.121094 8.867188 14.179688 9.007812 14.300781 9.125 C 14.417969 9.242188 14.558594 9.300781 14.722656 9.300781 Z M 14.722656 8.398438 C 14.808594 8.398438 14.878906 8.429688 14.9375 8.488281 C 14.996094 8.546875 15.023438 8.617188 15.023438 8.699219 C 15.023438 8.78125 14.996094 8.851562 14.9375 8.910156 C 14.878906 8.96875 14.808594 9 14.722656 9 C 14.640625 9 14.570312 8.96875 14.511719 8.910156 C 14.453125 8.851562 14.421875 8.78125 14.421875 8.699219 C 14.421875 8.617188 14.453125 8.546875 14.511719 8.488281 C 14.570312 8.429688 14.640625 8.398438 14.722656 8.398438 Z M 4.199219 4.488281 C 4.035156 4.488281 3.890625 4.546875 3.773438 4.664062 C 3.65625 4.78125 3.597656 4.925781 3.597656 5.089844 C 3.597656 5.257812 3.65625 5.398438 3.773438 5.515625 C 3.890625 5.632812 4.035156 5.691406 4.199219 5.691406 C 4.367188 5.691406 4.507812 5.632812 4.625 5.515625 C 4.742188 5.398438 4.800781 5.257812 4.800781 5.089844 C 4.800781 4.925781 4.742188 4.78125 4.625 4.664062 C 4.507812 4.546875 4.367188 4.488281 4.199219 4.488281 Z M 4.199219 5.390625 C 4.117188 5.390625 4.046875 5.363281 3.988281 5.304688 C 3.929688 5.246094 3.898438 5.175781 3.898438 5.089844 C 3.898438 5.007812 3.929688 4.9375 3.988281 4.878906 C 4.046875 4.820312 4.117188 4.789062 4.199219 4.789062 C 4.28125 4.789062 4.351562 4.820312 4.410156 4.878906 C 4.46875 4.9375 4.5 5.007812 4.5 5.089844 C 4.5 5.171875 4.46875 5.246094 4.410156 5.304688 C 4.351562 5.363281 4.28125 5.390625 4.199219 5.390625 Z M 4.199219 5.390625 " fill-opacity="1" fill-rule="nonzero"/><g clip-path="url(#10f1340f5a)"><path fill="#2d4356" d="M 2.09375 43.882812 C 2.09375 44.046875 2.035156 44.191406 1.917969 44.308594 C 1.800781 44.425781 1.660156 44.484375 1.492188 44.484375 C 1.328125 44.484375 1.183594 44.425781 1.066406 44.308594 C 0.949219 44.191406 0.890625 44.046875 0.890625 43.882812 C 0.890625 43.714844 0.949219 43.574219 1.066406 43.457031 C 1.183594 43.339844 1.328125 43.28125 1.492188 43.28125 C 1.660156 43.28125 1.800781 43.339844 1.917969 43.457031 C 2.035156 43.574219 2.09375 43.714844 2.09375 43.882812 Z M 2.09375 43.882812 " fill-opacity="1" fill-rule="nonzero"/></g><path fill="#2d4356" d="M 4.199219 43.28125 L 3.296875 43.28125 C 3.132812 43.28125 2.988281 43.339844 2.871094 43.457031 C 2.753906 43.574219 2.695312 43.714844 2.695312 43.882812 C 2.695312 44.046875 2.753906 44.191406 2.871094 44.308594 C 2.988281 44.425781 3.132812 44.484375 3.296875 44.484375 L 4.199219 44.484375 C 4.367188 44.484375 4.507812 44.425781 4.625 44.308594 C 4.742188 44.191406 4.800781 44.046875 4.800781 43.882812 C 4.800781 43.714844 4.742188 43.574219 4.625 43.457031 C 4.507812 43.339844 4.367188 43.28125 4.199219 43.28125 Z M 49.003906 43.28125 L 48.101562 43.28125 C 47.9375 43.28125 47.792969 43.339844 47.675781 43.457031 C 47.558594 43.574219 47.5 43.714844 47.5 43.882812 C 47.5 44.046875 47.558594 44.191406 47.675781 44.308594 C 47.792969 44.425781 47.9375 44.484375 48.101562 44.484375 L 49.003906 44.484375 C 49.171875 44.484375 49.3125 44.425781 49.429688 44.308594 C 49.546875 44.191406 49.605469 44.046875 49.605469 43.882812 C 49.605469 43.714844 49.546875 43.574219 49.429688 43.457031 C 49.3125 43.339844 49.171875 43.28125 49.003906 43.28125 Z M 49.003906 43.28125 " fill-opacity="1" fill-rule="nonzero"/><g clip-path="url(#cc3d92e2df)"><path fill="#2d4356" d="M 51.410156 43.882812 C 51.410156 44.046875 51.351562 44.191406 51.234375 44.308594 C 51.117188 44.425781 50.976562 44.484375 50.808594 44.484375 C 50.644531 44.484375 50.5 44.425781 50.382812 44.308594 C 50.265625 44.191406 50.207031 44.046875 50.207031 43.882812 C 50.207031 43.714844 50.265625 43.574219 50.382812 43.457031 C 50.5 43.339844 50.644531 43.28125 50.808594 43.28125 C 50.976562 43.28125 51.117188 43.339844 51.234375 43.457031 C 51.351562 43.574219 51.410156 43.714844 51.410156 43.882812 Z M 51.410156 43.882812 " fill-opacity="1" fill-rule="nonzero"/></g><path fill="#2d4356" d="M 46.214844 43.28125 L 24.660156 43.28125 C 24.921875 42.863281 25.050781 42.410156 25.050781 41.921875 L 25.050781 37.035156 L 26.417969 39.34375 C 26.820312 39.757812 27.316406 39.964844 27.894531 39.96875 C 28.648438 39.953125 29.253906 39.644531 29.707031 39.035156 L 33.933594 33.484375 C 34.855469 32.414062 34.710938 30.949219 33.921875 30.207031 C 33.523438 29.839844 33.054688 29.65625 32.511719 29.660156 C 31.820312 29.664062 31.257812 29.9375 30.820312 30.46875 L 28.394531 33.589844 C 28.113281 33.128906 25.996094 29.265625 24.695312 28.234375 C 24.050781 27.753906 23.347656 27.386719 22.582031 27.132812 C 22.25 27.484375 21.878906 27.789062 21.464844 28.042969 C 22.367188 28.261719 23.191406 28.640625 23.949219 29.179688 C 24.386719 29.523438 28.269531 35.710938 28.269531 35.710938 L 29.34375 34.328125 L 31.746094 31.234375 C 31.941406 30.992188 32.199219 30.867188 32.511719 30.859375 C 32.738281 30.859375 32.933594 30.933594 33.097656 31.085938 C 33.292969 31.324219 33.382812 31.597656 33.367188 31.90625 C 33.351562 32.214844 33.238281 32.480469 33.023438 32.699219 L 32.976562 32.753906 L 28.753906 38.300781 C 28.542969 38.59375 28.253906 38.75 27.894531 38.765625 C 27.695312 38.765625 27.515625 38.703125 27.359375 38.574219 L 23.847656 32.632812 L 23.847656 41.921875 C 23.851562 42.101562 23.816406 42.273438 23.75 42.4375 C 23.679688 42.605469 23.585938 42.75 23.460938 42.878906 C 23.332031 43.003906 23.1875 43.105469 23.023438 43.175781 C 22.859375 43.242188 22.6875 43.277344 22.507812 43.28125 L 14.710938 43.28125 C 14.335938 43.285156 14.015625 43.152344 13.753906 42.886719 C 13.511719 42.644531 13.394531 42.351562 13.398438 42.011719 L 13.429688 32.292969 L 10.09375 40.25 C 10 40.496094 9.847656 40.703125 9.640625 40.863281 C 9.429688 41.023438 9.195312 41.117188 8.929688 41.144531 C 8.832031 41.144531 8.738281 41.125 8.648438 41.085938 C 8.152344 40.867188 7.960938 40.066406 8.238281 39.371094 L 9.152344 37.074219 C 10.082031 34.734375 11.128906 32.097656 11.269531 31.738281 C 11.695312 30.8125 12.296875 30.019531 13.078125 29.363281 C 13.859375 28.707031 14.738281 28.246094 15.726562 27.984375 C 15.328125 27.730469 14.96875 27.425781 14.652344 27.078125 C 13.660156 27.449219 12.777344 27.996094 12 28.71875 C 11.222656 29.441406 10.613281 30.285156 10.171875 31.246094 C 10.167969 31.257812 8.300781 35.953125 7.121094 38.925781 C 6.597656 40.238281 7.0625 41.699219 8.164062 42.1875 C 8.40625 42.292969 8.664062 42.347656 8.929688 42.347656 C 9.433594 42.320312 9.890625 42.160156 10.300781 41.871094 C 10.710938 41.578125 11.007812 41.199219 11.199219 40.730469 L 12.207031 38.320312 L 12.195312 42.007812 C 12.191406 42.464844 12.308594 42.890625 12.546875 43.28125 L 6.085938 43.28125 C 5.90625 43.257812 5.746094 43.304688 5.609375 43.425781 C 5.472656 43.546875 5.402344 43.699219 5.402344 43.882812 C 5.402344 44.066406 5.472656 44.21875 5.609375 44.335938 C 5.746094 44.457031 5.90625 44.507812 6.085938 44.484375 L 46.214844 44.484375 C 46.394531 44.507812 46.554688 44.457031 46.691406 44.335938 C 46.832031 44.21875 46.898438 44.066406 46.898438 43.882812 C 46.898438 43.699219 46.832031 43.546875 46.691406 43.425781 C 46.554688 43.304688 46.394531 43.257812 46.214844 43.28125 Z M 46.214844 43.28125 " fill-opacity="1" fill-rule="nonzero"/><path fill="#0bceb2" d="M 9.1875 14.117188 L 9.632812 13.527344 L 9.351562 13.367188 L 9.0625 14.027344 L 9.054688 14.027344 L 8.761719 13.371094 L 8.476562 13.535156 L 8.917969 14.109375 L 8.917969 14.121094 L 8.226562 14.03125 L 8.226562 14.351562 L 8.921875 14.261719 L 8.921875 14.269531 L 8.476562 14.84375 L 8.742188 15.015625 L 9.050781 14.351562 L 9.058594 14.351562 L 9.339844 15.007812 L 9.636719 14.839844 L 9.1875 14.273438 L 9.1875 14.265625 L 9.894531 14.351562 L 9.894531 14.03125 L 9.1875 14.125 Z M 9.1875 14.117188 " fill-opacity="1" fill-rule="nonzero"/><path fill="#0bceb2" d="M 27.285156 6.914062 L 27.027344 7.246094 L 27.183594 7.34375 L 27.359375 6.960938 L 27.363281 6.960938 L 27.527344 7.339844 L 27.699219 7.242188 L 27.4375 6.917969 L 27.4375 6.914062 L 27.847656 6.960938 L 27.847656 6.777344 L 27.4375 6.832031 L 27.4375 6.824219 L 27.695312 6.488281 L 27.535156 6.394531 L 27.367188 6.773438 L 27.363281 6.773438 L 27.195312 6.398438 L 27.027344 6.492188 L 27.285156 6.824219 L 27.285156 6.828125 L 26.886719 6.777344 L 26.886719 6.960938 L 27.285156 6.910156 Z M 27.285156 6.914062 " fill-opacity="1" fill-rule="nonzero"/><path fill="#0bceb2" d="M 48.703125 12.222656 L 48.703125 11.90625 L 48.007812 12 L 48.007812 11.992188 L 48.445312 11.414062 L 48.167969 11.257812 L 47.886719 11.902344 L 47.878906 11.902344 L 47.59375 11.261719 L 47.308594 11.421875 L 47.746094 11.984375 L 47.746094 11.996094 L 47.066406 11.90625 L 47.066406 12.222656 L 47.75 12.132812 L 47.75 12.144531 L 47.308594 12.707031 L 47.574219 12.871094 L 47.875 12.222656 L 47.882812 12.222656 L 48.160156 12.867188 L 48.449219 12.703125 L 48.007812 12.148438 L 48.007812 12.136719 Z M 48.703125 12.222656 " fill-opacity="1" fill-rule="nonzero"/><path fill="#0bceb2" d="M 34.796875 4.285156 L 35.386719 4.191406 L 35.386719 4.199219 L 35.023438 4.695312 L 35.253906 4.832031 L 35.496094 4.261719 L 35.503906 4.261719 L 35.757812 4.8125 L 36.003906 4.660156 L 35.609375 4.195312 L 35.609375 4.1875 L 36.210938 4.242188 L 36.203125 3.96875 L 35.605469 4.070312 L 35.605469 4.0625 L 35.96875 3.550781 L 35.722656 3.425781 L 35.5 3.988281 L 35.492188 3.988281 L 35.226562 3.441406 L 34.988281 3.589844 L 35.378906 4.0625 L 35.378906 4.070312 L 34.789062 4.015625 Z M 34.796875 4.285156 " fill-opacity="1" fill-rule="nonzero"/><path fill="#0bceb2" d="M 36.421875 45.988281 L 33.921875 45.988281 C 33.765625 46 33.632812 46.0625 33.527344 46.179688 C 33.421875 46.292969 33.367188 46.429688 33.367188 46.589844 C 33.367188 46.746094 33.421875 46.882812 33.527344 46.996094 C 33.632812 47.113281 33.765625 47.175781 33.921875 47.191406 L 36.421875 47.191406 C 36.578125 47.175781 36.710938 47.113281 36.816406 46.996094 C 36.921875 46.882812 36.976562 46.746094 36.976562 46.589844 C 36.976562 46.429688 36.921875 46.292969 36.816406 46.179688 C 36.710938 46.0625 36.578125 46 36.421875 45.988281 Z M 18.378906 45.988281 L 15.878906 45.988281 C 15.722656 46 15.59375 46.0625 15.484375 46.179688 C 15.378906 46.292969 15.324219 46.429688 15.324219 46.589844 C 15.324219 46.746094 15.378906 46.882812 15.484375 46.996094 C 15.59375 47.113281 15.722656 47.175781 15.878906 47.191406 L 18.378906 47.191406 C 18.535156 47.175781 18.667969 47.113281 18.773438 46.996094 C 18.878906 46.882812 18.933594 46.746094 18.933594 46.589844 C 18.933594 46.429688 18.878906 46.292969 18.773438 46.179688 C 18.667969 46.0625 18.535156 46 18.378906 45.988281 Z M 32.164062 45.988281 L 20.136719 45.988281 C 19.972656 45.988281 19.828125 46.046875 19.710938 46.164062 C 19.59375 46.28125 19.535156 46.421875 19.535156 46.589844 C 19.535156 46.753906 19.59375 46.894531 19.710938 47.015625 C 19.828125 47.132812 19.972656 47.191406 20.136719 47.191406 L 24.929688 47.191406 L 24.929688 47.792969 L 22.542969 47.792969 C 22.375 47.792969 22.234375 47.851562 22.117188 47.96875 C 22 48.085938 21.941406 48.226562 21.941406 48.394531 C 21.941406 48.558594 22 48.699219 22.117188 48.816406 C 22.234375 48.933594 22.375 48.992188 22.542969 48.992188 L 30.058594 48.992188 C 30.226562 48.992188 30.367188 48.933594 30.484375 48.816406 C 30.601562 48.699219 30.660156 48.558594 30.660156 48.394531 C 30.660156 48.226562 30.601562 48.085938 30.484375 47.96875 C 30.367188 47.851562 30.226562 47.792969 30.058594 47.792969 L 27.371094 47.792969 L 27.371094 47.191406 L 32.164062 47.191406 C 32.332031 47.191406 32.472656 47.132812 32.589844 47.015625 C 32.707031 46.894531 32.765625 46.753906 32.765625 46.589844 C 32.765625 46.421875 32.707031 46.28125 32.589844 46.164062 C 32.472656 46.046875 32.332031 45.988281 32.164062 45.988281 Z M 32.164062 45.988281 " fill-opacity="1" fill-rule="nonzero"/><path fill="#2d4356" d="M 17.128906 12.007812 C 17.128906 11.847656 17.160156 11.695312 17.222656 11.546875 C 17.28125 11.398438 17.371094 11.269531 17.480469 11.15625 C 17.59375 11.042969 17.726562 10.957031 17.871094 10.894531 C 18.019531 10.835938 18.171875 10.804688 18.332031 10.804688 L 42.992188 10.804688 C 43.148438 10.804688 43.304688 10.835938 43.449219 10.894531 C 43.597656 10.957031 43.726562 11.042969 43.839844 11.15625 C 43.953125 11.269531 44.039062 11.398438 44.101562 11.546875 C 44.164062 11.695312 44.191406 11.847656 44.195312 12.007812 L 44.195312 30.050781 C 44.191406 30.207031 44.164062 30.363281 44.101562 30.507812 C 44.039062 30.65625 43.953125 30.785156 43.839844 30.898438 C 43.726562 31.011719 43.597656 31.097656 43.449219 31.160156 C 43.304688 31.222656 43.148438 31.253906 42.992188 31.253906 L 35.726562 31.253906 C 35.789062 31.65625 35.78125 32.054688 35.707031 32.457031 L 42.992188 32.457031 C 43.308594 32.453125 43.617188 32.394531 43.910156 32.269531 C 44.203125 32.148438 44.464844 31.972656 44.691406 31.75 C 44.914062 31.523438 45.089844 31.261719 45.210938 30.96875 C 45.332031 30.675781 45.394531 30.367188 45.394531 30.050781 L 45.394531 12.007812 C 45.394531 11.6875 45.332031 11.382812 45.210938 11.085938 C 45.089844 10.792969 44.914062 10.535156 44.691406 10.308594 C 44.464844 10.082031 44.203125 9.910156 43.910156 9.785156 C 43.617188 9.664062 43.308594 9.601562 42.992188 9.601562 L 18.332031 9.601562 C 18.015625 9.601562 17.707031 9.664062 17.414062 9.785156 C 17.117188 9.910156 16.859375 10.082031 16.632812 10.308594 C 16.40625 10.535156 16.234375 10.792969 16.113281 11.085938 C 15.988281 11.382812 15.929688 11.6875 15.925781 12.007812 L 15.925781 18.757812 C 16.304688 18.535156 16.707031 18.363281 17.128906 18.242188 Z M 17.128906 12.007812 " fill-opacity="1" fill-rule="nonzero"/><path fill="#2d4356" d="M 18.644531 27.644531 C 18.917969 27.644531 19.191406 27.617188 19.464844 27.5625 C 19.734375 27.507812 20 27.429688 20.253906 27.324219 C 20.507812 27.21875 20.75 27.089844 20.980469 26.933594 C 21.210938 26.78125 21.425781 26.605469 21.621094 26.410156 C 21.816406 26.214844 21.988281 26.003906 22.144531 25.773438 C 22.296875 25.542969 22.425781 25.300781 22.53125 25.046875 C 22.636719 24.789062 22.71875 24.527344 22.773438 24.253906 C 22.824219 23.984375 22.851562 23.710938 22.851562 23.433594 C 22.851562 23.15625 22.824219 22.882812 22.773438 22.613281 C 22.71875 22.339844 22.636719 22.078125 22.53125 21.824219 C 22.425781 21.566406 22.296875 21.324219 22.144531 21.09375 C 21.988281 20.867188 21.816406 20.652344 21.621094 20.457031 C 21.425781 20.261719 21.210938 20.085938 20.980469 19.933594 C 20.753906 19.78125 20.507812 19.652344 20.253906 19.542969 C 20 19.4375 19.734375 19.359375 19.464844 19.304688 C 19.191406 19.25 18.917969 19.222656 18.644531 19.222656 C 18.367188 19.222656 18.09375 19.25 17.820312 19.304688 C 17.550781 19.359375 17.289062 19.4375 17.03125 19.542969 C 16.777344 19.648438 16.535156 19.78125 16.304688 19.933594 C 16.074219 20.085938 15.863281 20.261719 15.667969 20.457031 C 15.46875 20.652344 15.296875 20.863281 15.140625 21.09375 C 14.988281 21.324219 14.859375 21.566406 14.753906 21.824219 C 14.648438 22.078125 14.566406 22.339844 14.515625 22.613281 C 14.460938 22.882812 14.433594 23.15625 14.433594 23.433594 C 14.433594 23.710938 14.460938 23.984375 14.511719 24.253906 C 14.566406 24.527344 14.648438 24.789062 14.753906 25.042969 C 14.859375 25.300781 14.988281 25.542969 15.140625 25.773438 C 15.296875 26.003906 15.46875 26.214844 15.664062 26.410156 C 15.859375 26.605469 16.074219 26.78125 16.304688 26.933594 C 16.535156 27.089844 16.777344 27.21875 17.03125 27.324219 C 17.285156 27.429688 17.550781 27.507812 17.820312 27.5625 C 18.09375 27.617188 18.367188 27.644531 18.644531 27.644531 Z M 18.644531 20.425781 C 19.042969 20.425781 19.425781 20.503906 19.792969 20.65625 C 20.160156 20.808594 20.488281 21.027344 20.769531 21.308594 C 21.050781 21.589844 21.269531 21.914062 21.421875 22.285156 C 21.574219 22.652344 21.648438 23.035156 21.648438 23.433594 C 21.648438 23.832031 21.574219 24.214844 21.421875 24.585938 C 21.269531 24.953125 21.050781 25.277344 20.769531 25.558594 C 20.488281 25.84375 20.160156 26.058594 19.792969 26.210938 C 19.425781 26.363281 19.039062 26.441406 18.640625 26.441406 C 18.242188 26.441406 17.859375 26.363281 17.492188 26.210938 C 17.125 26.058594 16.796875 25.84375 16.515625 25.558594 C 16.234375 25.277344 16.015625 24.953125 15.863281 24.585938 C 15.710938 24.214844 15.636719 23.832031 15.636719 23.433594 C 15.636719 23.035156 15.710938 22.652344 15.867188 22.285156 C 16.019531 21.914062 16.234375 21.589844 16.515625 21.308594 C 16.800781 21.027344 17.125 20.808594 17.492188 20.65625 C 17.859375 20.503906 18.242188 20.425781 18.644531 20.425781 Z M 47.5 6.894531 C 47.75 6.894531 47.964844 6.808594 48.140625 6.628906 C 48.316406 6.453125 48.402344 6.242188 48.402344 5.992188 C 48.402344 5.742188 48.316406 5.53125 48.140625 5.355469 C 47.964844 5.179688 47.75 5.089844 47.5 5.089844 C 47.253906 5.089844 47.039062 5.179688 46.863281 5.355469 C 46.6875 5.53125 46.597656 5.742188 46.597656 5.992188 C 46.597656 6.242188 46.6875 6.453125 46.863281 6.628906 C 47.039062 6.804688 47.253906 6.894531 47.5 6.894531 Z M 47.5 5.542969 C 47.625 5.542969 47.730469 5.585938 47.820312 5.675781 C 47.90625 5.761719 47.953125 5.867188 47.953125 5.992188 C 47.953125 6.117188 47.90625 6.222656 47.820312 6.3125 C 47.730469 6.398438 47.625 6.445312 47.5 6.445312 C 47.375 6.445312 47.269531 6.398438 47.183594 6.3125 C 47.09375 6.222656 47.050781 6.117188 47.050781 5.992188 C 47.050781 5.867188 47.09375 5.761719 47.183594 5.675781 C 47.269531 5.585938 47.375 5.542969 47.5 5.542969 Z M 21.339844 4.1875 C 21.589844 4.1875 21.800781 4.101562 21.976562 3.925781 C 22.152344 3.75 22.242188 3.535156 22.242188 3.285156 C 22.242188 3.039062 22.152344 2.824219 21.976562 2.648438 C 21.800781 2.472656 21.589844 2.382812 21.339844 2.382812 C 21.089844 2.382812 20.878906 2.472656 20.703125 2.648438 C 20.527344 2.824219 20.4375 3.039062 20.4375 3.285156 C 20.4375 3.535156 20.527344 3.75 20.703125 3.925781 C 20.878906 4.101562 21.089844 4.1875 21.339844 4.1875 Z M 21.339844 2.835938 C 21.464844 2.835938 21.570312 2.878906 21.660156 2.96875 C 21.746094 3.054688 21.789062 3.160156 21.789062 3.285156 C 21.789062 3.410156 21.746094 3.515625 21.660156 3.605469 C 21.570312 3.695312 21.464844 3.738281 21.339844 3.738281 C 21.214844 3.738281 21.109375 3.695312 21.019531 3.605469 C 20.933594 3.515625 20.886719 3.410156 20.886719 3.285156 C 20.890625 3.160156 20.933594 3.054688 21.019531 2.96875 C 21.109375 2.878906 21.214844 2.835938 21.339844 2.835938 Z M 42.089844 8.398438 C 42.253906 8.398438 42.394531 8.339844 42.515625 8.222656 C 42.632812 8.105469 42.691406 7.964844 42.691406 7.796875 C 42.691406 7.632812 42.632812 7.488281 42.515625 7.371094 C 42.394531 7.253906 42.253906 7.195312 42.089844 7.195312 C 41.921875 7.195312 41.78125 7.253906 41.664062 7.371094 C 41.546875 7.488281 41.488281 7.632812 41.488281 7.796875 C 41.488281 7.964844 41.546875 8.105469 41.664062 8.222656 C 41.78125 8.339844 41.921875 8.398438 42.089844 8.398438 Z M 42.089844 7.496094 C 42.171875 7.496094 42.242188 7.527344 42.300781 7.585938 C 42.359375 7.644531 42.390625 7.714844 42.390625 7.796875 C 42.390625 7.878906 42.359375 7.949219 42.300781 8.011719 C 42.242188 8.070312 42.171875 8.097656 42.089844 8.097656 C 42.003906 8.097656 41.933594 8.070312 41.875 8.011719 C 41.816406 7.949219 41.789062 7.878906 41.789062 7.796875 C 41.789062 7.714844 41.816406 7.644531 41.875 7.585938 C 41.933594 7.527344 42.003906 7.496094 42.089844 7.496094 Z M 14.722656 9.300781 C 14.890625 9.300781 15.03125 9.242188 15.148438 9.125 C 15.265625 9.007812 15.324219 8.867188 15.324219 8.699219 C 15.324219 8.535156 15.265625 8.390625 15.148438 8.273438 C 15.03125 8.15625 14.890625 8.097656 14.722656 8.097656 C 14.558594 8.097656 14.417969 8.15625 14.296875 8.273438 C 14.179688 8.390625 14.121094 8.535156 14.121094 8.699219 C 14.121094 8.867188 14.179688 9.007812 14.300781 9.125 C 14.417969 9.242188 14.558594 9.300781 14.722656 9.300781 Z M 14.722656 8.398438 C 14.808594 8.398438 14.878906 8.429688 14.9375 8.488281 C 14.996094 8.546875 15.023438 8.617188 15.023438 8.699219 C 15.023438 8.78125 14.996094 8.851562 14.9375 8.910156 C 14.878906 8.96875 14.808594 9 14.722656 9 C 14.640625 9 14.570312 8.96875 14.511719 8.910156 C 14.453125 8.851562 14.421875 8.78125 14.421875 8.699219 C 14.421875 8.617188 14.453125 8.546875 14.511719 8.488281 C 14.570312 8.429688 14.640625 8.398438 14.722656 8.398438 Z M 4.199219 4.488281 C 4.035156 4.488281 3.890625 4.546875 3.773438 4.664062 C 3.65625 4.78125 3.597656 4.925781 3.597656 5.089844 C 3.597656 5.257812 3.65625 5.398438 3.773438 5.515625 C 3.890625 5.632812 4.035156 5.691406 4.199219 5.691406 C 4.367188 5.691406 4.507812 5.632812 4.625 5.515625 C 4.742188 5.398438 4.800781 5.257812 4.800781 5.089844 C 4.800781 4.925781 4.742188 4.78125 4.625 4.664062 C 4.507812 4.546875 4.367188 4.488281 4.199219 4.488281 Z M 4.199219 5.390625 C 4.117188 5.390625 4.046875 5.363281 3.988281 5.304688 C 3.929688 5.246094 3.898438 5.175781 3.898438 5.089844 C 3.898438 5.007812 3.929688 4.9375 3.988281 4.878906 C 4.046875 4.820312 4.117188 4.789062 4.199219 4.789062 C 4.28125 4.789062 4.351562 4.820312 4.410156 4.878906 C 4.46875 4.9375 4.5 5.007812 4.5 5.089844 C 4.5 5.171875 4.46875 5.246094 4.410156 5.304688 C 4.351562 5.363281 4.28125 5.390625 4.199219 5.390625 Z M 4.199219 5.390625 " fill-opacity="1" fill-rule="nonzero"/><g clip-path="url(#b9397ce1f0)"><path fill="#2d4356" d="M 2.09375 43.882812 C 2.09375 44.046875 2.035156 44.191406 1.917969 44.308594 C 1.800781 44.425781 1.660156 44.484375 1.492188 44.484375 C 1.328125 44.484375 1.183594 44.425781 1.066406 44.308594 C 0.949219 44.191406 0.890625 44.046875 0.890625 43.882812 C 0.890625 43.714844 0.949219 43.574219 1.066406 43.457031 C 1.183594 43.339844 1.328125 43.28125 1.492188 43.28125 C 1.660156 43.28125 1.800781 43.339844 1.917969 43.457031 C 2.035156 43.574219 2.09375 43.714844 2.09375 43.882812 Z M 2.09375 43.882812 " fill-opacity="1" fill-rule="nonzero"/></g><path fill="#2d4356" d="M 4.199219 43.28125 L 3.296875 43.28125 C 3.132812 43.28125 2.988281 43.339844 2.871094 43.457031 C 2.753906 43.574219 2.695312 43.714844 2.695312 43.882812 C 2.695312 44.046875 2.753906 44.191406 2.871094 44.308594 C 2.988281 44.425781 3.132812 44.484375 3.296875 44.484375 L 4.199219 44.484375 C 4.367188 44.484375 4.507812 44.425781 4.625 44.308594 C 4.742188 44.191406 4.800781 44.046875 4.800781 43.882812 C 4.800781 43.714844 4.742188 43.574219 4.625 43.457031 C 4.507812 43.339844 4.367188 43.28125 4.199219 43.28125 Z M 49.003906 43.28125 L 48.101562 43.28125 C 47.9375 43.28125 47.792969 43.339844 47.675781 43.457031 C 47.558594 43.574219 47.5 43.714844 47.5 43.882812 C 47.5 44.046875 47.558594 44.191406 47.675781 44.308594 C 47.792969 44.425781 47.9375 44.484375 48.101562 44.484375 L 49.003906 44.484375 C 49.171875 44.484375 49.3125 44.425781 49.429688 44.308594 C 49.546875 44.191406 49.605469 44.046875 49.605469 43.882812 C 49.605469 43.714844 49.546875 43.574219 49.429688 43.457031 C 49.3125 43.339844 49.171875 43.28125 49.003906 43.28125 Z M 49.003906 43.28125 " fill-opacity="1" fill-rule="nonzero"/><g clip-path="url(#069f000a58)"><path fill="#2d4356" d="M 51.410156 43.882812 C 51.410156 44.046875 51.351562 44.191406 51.234375 44.308594 C 51.117188 44.425781 50.976562 44.484375 50.808594 44.484375 C 50.644531 44.484375 50.5 44.425781 50.382812 44.308594 C 50.265625 44.191406 50.207031 44.046875 50.207031 43.882812 C 50.207031 43.714844 50.265625 43.574219 50.382812 43.457031 C 50.5 43.339844 50.644531 43.28125 50.808594 43.28125 C 50.976562 43.28125 51.117188 43.339844 51.234375 43.457031 C 51.351562 43.574219 51.410156 43.714844 51.410156 43.882812 Z M 51.410156 43.882812 " fill-opacity="1" fill-rule="nonzero"/></g><path fill="#2d4356" d="M 46.214844 43.28125 L 24.660156 43.28125 C 24.921875 42.863281 25.050781 42.410156 25.050781 41.921875 L 25.050781 37.035156 L 26.417969 39.34375 C 26.820312 39.757812 27.316406 39.964844 27.894531 39.96875 C 28.648438 39.953125 29.253906 39.644531 29.707031 39.035156 L 33.933594 33.484375 C 34.855469 32.414062 34.710938 30.949219 33.921875 30.207031 C 33.523438 29.839844 33.054688 29.65625 32.511719 29.660156 C 31.820312 29.664062 31.257812 29.9375 30.820312 30.46875 L 28.394531 33.589844 C 28.113281 33.128906 25.996094 29.265625 24.695312 28.234375 C 24.050781 27.753906 23.347656 27.386719 22.582031 27.132812 C 22.25 27.484375 21.878906 27.789062 21.464844 28.042969 C 22.367188 28.261719 23.191406 28.640625 23.949219 29.179688 C 24.386719 29.523438 28.269531 35.710938 28.269531 35.710938 L 29.34375 34.328125 L 31.746094 31.234375 C 31.941406 30.992188 32.199219 30.867188 32.511719 30.859375 C 32.738281 30.859375 32.933594 30.933594 33.097656 31.085938 C 33.292969 31.324219 33.382812 31.597656 33.367188 31.90625 C 33.351562 32.214844 33.238281 32.480469 33.023438 32.699219 L 32.976562 32.753906 L 28.753906 38.300781 C 28.542969 38.59375 28.253906 38.75 27.894531 38.765625 C 27.695312 38.765625 27.515625 38.703125 27.359375 38.574219 L 23.847656 32.632812 L 23.847656 41.921875 C 23.851562 42.101562 23.816406 42.273438 23.75 42.4375 C 23.679688 42.605469 23.585938 42.75 23.460938 42.878906 C 23.332031 43.003906 23.1875 43.105469 23.023438 43.175781 C 22.859375 43.242188 22.6875 43.277344 22.507812 43.28125 L 14.710938 43.28125 C 14.335938 43.285156 14.015625 43.152344 13.753906 42.886719 C 13.511719 42.644531 13.394531 42.351562 13.398438 42.011719 L 13.429688 32.292969 L 10.09375 40.25 C 10 40.496094 9.847656 40.703125 9.640625 40.863281 C 9.429688 41.023438 9.195312 41.117188 8.929688 41.144531 C 8.832031 41.144531 8.738281 41.125 8.648438 41.085938 C 8.152344 40.867188 7.960938 40.066406 8.238281 39.371094 L 9.152344 37.074219 C 10.082031 34.734375 11.128906 32.097656 11.269531 31.738281 C 11.695312 30.8125 12.296875 30.019531 13.078125 29.363281 C 13.859375 28.707031 14.738281 28.246094 15.726562 27.984375 C 15.328125 27.730469 14.96875 27.425781 14.652344 27.078125 C 13.660156 27.449219 12.777344 27.996094 12 28.71875 C 11.222656 29.441406 10.613281 30.285156 10.171875 31.246094 C 10.167969 31.257812 8.300781 35.953125 7.121094 38.925781 C 6.597656 40.238281 7.0625 41.699219 8.164062 42.1875 C 8.40625 42.292969 8.664062 42.347656 8.929688 42.347656 C 9.433594 42.320312 9.890625 42.160156 10.300781 41.871094 C 10.710938 41.578125 11.007812 41.199219 11.199219 40.730469 L 12.207031 38.320312 L 12.195312 42.007812 C 12.191406 42.464844 12.308594 42.890625 12.546875 43.28125 L 6.085938 43.28125 C 5.90625 43.257812 5.746094 43.304688 5.609375 43.425781 C 5.472656 43.546875 5.402344 43.699219 5.402344 43.882812 C 5.402344 44.066406 5.472656 44.21875 5.609375 44.335938 C 5.746094 44.457031 5.90625 44.507812 6.085938 44.484375 L 46.214844 44.484375 C 46.394531 44.507812 46.554688 44.457031 46.691406 44.335938 C 46.832031 44.21875 46.898438 44.066406 46.898438 43.882812 C 46.898438 43.699219 46.832031 43.546875 46.691406 43.425781 C 46.554688 43.304688 46.394531 43.257812 46.214844 43.28125 Z M 46.214844 43.28125 " fill-opacity="1" fill-rule="nonzero"/><path fill="#0bceb2" d="M 9.1875 14.117188 L 9.632812 13.527344 L 9.351562 13.367188 L 9.0625 14.027344 L 9.054688 14.027344 L 8.761719 13.371094 L 8.476562 13.535156 L 8.917969 14.109375 L 8.917969 14.121094 L 8.226562 14.03125 L 8.226562 14.351562 L 8.921875 14.261719 L 8.921875 14.269531 L 8.476562 14.84375 L 8.742188 15.015625 L 9.050781 14.351562 L 9.058594 14.351562 L 9.339844 15.007812 L 9.636719 14.839844 L 9.1875 14.273438 L 9.1875 14.265625 L 9.894531 14.351562 L 9.894531 14.03125 L 9.1875 14.125 Z M 9.1875 14.117188 " fill-opacity="1" fill-rule="nonzero"/><path fill="#0bceb2" d="M 27.285156 6.914062 L 27.027344 7.246094 L 27.183594 7.34375 L 27.359375 6.960938 L 27.363281 6.960938 L 27.527344 7.339844 L 27.699219 7.242188 L 27.4375 6.917969 L 27.4375 6.914062 L 27.847656 6.960938 L 27.847656 6.777344 L 27.4375 6.832031 L 27.4375 6.824219 L 27.695312 6.488281 L 27.535156 6.394531 L 27.367188 6.773438 L 27.363281 6.773438 L 27.195312 6.398438 L 27.027344 6.492188 L 27.285156 6.824219 L 27.285156 6.828125 L 26.886719 6.777344 L 26.886719 6.960938 L 27.285156 6.910156 Z M 27.285156 6.914062 " fill-opacity="1" fill-rule="nonzero"/><path fill="#0bceb2" d="M 48.703125 12.222656 L 48.703125 11.90625 L 48.007812 12 L 48.007812 11.992188 L 48.445312 11.414062 L 48.167969 11.257812 L 47.886719 11.902344 L 47.878906 11.902344 L 47.59375 11.261719 L 47.308594 11.421875 L 47.746094 11.984375 L 47.746094 11.996094 L 47.066406 11.90625 L 47.066406 12.222656 L 47.75 12.132812 L 47.75 12.144531 L 47.308594 12.707031 L 47.574219 12.871094 L 47.875 12.222656 L 47.882812 12.222656 L 48.160156 12.867188 L 48.449219 12.703125 L 48.007812 12.148438 L 48.007812 12.136719 Z M 48.703125 12.222656 " fill-opacity="1" fill-rule="nonzero"/><path fill="#0bceb2" d="M 34.796875 4.285156 L 35.386719 4.191406 L 35.386719 4.199219 L 35.023438 4.695312 L 35.253906 4.832031 L 35.496094 4.261719 L 35.503906 4.261719 L 35.757812 4.8125 L 36.003906 4.660156 L 35.609375 4.195312 L 35.609375 4.1875 L 36.210938 4.242188 L 36.203125 3.96875 L 35.605469 4.070312 L 35.605469 4.0625 L 35.96875 3.550781 L 35.722656 3.425781 L 35.5 3.988281 L 35.492188 3.988281 L 35.226562 3.441406 L 34.988281 3.589844 L 35.378906 4.0625 L 35.378906 4.070312 L 34.789062 4.015625 Z M 34.796875 4.285156 " fill-opacity="1" fill-rule="nonzero"/><path fill="#0bceb2" d="M 36.421875 45.988281 L 33.921875 45.988281 C 33.765625 46 33.632812 46.0625 33.527344 46.179688 C 33.421875 46.292969 33.367188 46.429688 33.367188 46.589844 C 33.367188 46.746094 33.421875 46.882812 33.527344 46.996094 C 33.632812 47.113281 33.765625 47.175781 33.921875 47.191406 L 36.421875 47.191406 C 36.578125 47.175781 36.710938 47.113281 36.816406 46.996094 C 36.921875 46.882812 36.976562 46.746094 36.976562 46.589844 C 36.976562 46.429688 36.921875 46.292969 36.816406 46.179688 C 36.710938 46.0625 36.578125 46 36.421875 45.988281 Z M 18.378906 45.988281 L 15.878906 45.988281 C 15.722656 46 15.59375 46.0625 15.484375 46.179688 C 15.378906 46.292969 15.324219 46.429688 15.324219 46.589844 C 15.324219 46.746094 15.378906 46.882812 15.484375 46.996094 C 15.59375 47.113281 15.722656 47.175781 15.878906 47.191406 L 18.378906 47.191406 C 18.535156 47.175781 18.667969 47.113281 18.773438 46.996094 C 18.878906 46.882812 18.933594 46.746094 18.933594 46.589844 C 18.933594 46.429688 18.878906 46.292969 18.773438 46.179688 C 18.667969 46.0625 18.535156 46 18.378906 45.988281 Z M 32.164062 45.988281 L 20.136719 45.988281 C 19.972656 45.988281 19.828125 46.046875 19.710938 46.164062 C 19.59375 46.28125 19.535156 46.421875 19.535156 46.589844 C 19.535156 46.753906 19.59375 46.894531 19.710938 47.015625 C 19.828125 47.132812 19.972656 47.191406 20.136719 47.191406 L 24.929688 47.191406 L 24.929688 47.792969 L 22.542969 47.792969 C 22.375 47.792969 22.234375 47.851562 22.117188 47.96875 C 22 48.085938 21.941406 48.226562 21.941406 48.394531 C 21.941406 48.558594 22 48.699219 22.117188 48.816406 C 22.234375 48.933594 22.375 48.992188 22.542969 48.992188 L 30.058594 48.992188 C 30.226562 48.992188 30.367188 48.933594 30.484375 48.816406 C 30.601562 48.699219 30.660156 48.558594 30.660156 48.394531 C 30.660156 48.226562 30.601562 48.085938 30.484375 47.96875 C 30.367188 47.851562 30.226562 47.792969 30.058594 47.792969 L 27.371094 47.792969 L 27.371094 47.191406 L 32.164062 47.191406 C 32.332031 47.191406 32.472656 47.132812 32.589844 47.015625 C 32.707031 46.894531 32.765625 46.753906 32.765625 46.589844 C 32.765625 46.421875 32.707031 46.28125 32.589844 46.164062 C 32.472656 46.046875 32.332031 45.988281 32.164062 45.988281 Z M 32.164062 45.988281 " fill-opacity="1" fill-rule="nonzero"/><path fill="#2d8de9" d="M 17.03125 11.945312 C 17.03125 11.789062 17.0625 11.636719 17.125 11.488281 C 17.183594 11.34375 17.269531 11.214844 17.382812 11.101562 C 17.496094 10.988281 17.625 10.902344 17.769531 10.839844 C 17.917969 10.78125 18.070312 10.75 18.226562 10.75 L 42.738281 10.75 C 42.898438 10.75 43.050781 10.78125 43.195312 10.839844 C 43.34375 10.902344 43.472656 10.988281 43.585938 11.101562 C 43.695312 11.214844 43.78125 11.34375 43.84375 11.488281 C 43.902344 11.636719 43.933594 11.789062 43.933594 11.945312 L 43.933594 29.878906 C 43.933594 30.039062 43.902344 30.191406 43.84375 30.339844 C 43.78125 30.484375 43.695312 30.613281 43.585938 30.726562 C 43.472656 30.835938 43.34375 30.925781 43.195312 30.984375 C 43.050781 31.046875 42.898438 31.074219 42.738281 31.078125 L 35.519531 31.078125 C 35.578125 31.476562 35.574219 31.875 35.5 32.273438 L 42.738281 32.273438 C 43.054688 32.269531 43.359375 32.210938 43.652344 32.089844 C 43.945312 31.964844 44.203125 31.792969 44.429688 31.570312 C 44.652344 31.34375 44.824219 31.085938 44.945312 30.792969 C 45.066406 30.503906 45.128906 30.199219 45.128906 29.878906 L 45.128906 11.945312 C 45.128906 11.628906 45.066406 11.324219 44.945312 11.03125 C 44.824219 10.738281 44.652344 10.480469 44.429688 10.257812 C 44.203125 10.03125 43.945312 9.859375 43.652344 9.738281 C 43.359375 9.617188 43.054688 9.554688 42.738281 9.554688 L 18.226562 9.554688 C 17.910156 9.554688 17.605469 9.617188 17.3125 9.738281 C 17.023438 9.859375 16.761719 10.03125 16.539062 10.257812 C 16.316406 10.480469 16.144531 10.738281 16.019531 11.03125 C 15.898438 11.324219 15.839844 11.628906 15.835938 11.945312 L 15.835938 18.65625 C 16.214844 18.4375 16.613281 18.265625 17.03125 18.140625 Z M 17.03125 11.945312 " fill-opacity="1" fill-rule="nonzero"/><path fill="#2d8de9" d="M 18.535156 27.488281 C 18.8125 27.488281 19.082031 27.460938 19.351562 27.410156 C 19.621094 27.355469 19.882812 27.277344 20.136719 27.171875 C 20.390625 27.066406 20.632812 26.9375 20.863281 26.785156 C 21.089844 26.632812 21.300781 26.457031 21.496094 26.265625 C 21.691406 26.070312 21.863281 25.859375 22.015625 25.628906 C 22.167969 25.402344 22.296875 25.160156 22.402344 24.90625 C 22.507812 24.652344 22.585938 24.390625 22.640625 24.121094 C 22.695312 23.851562 22.722656 23.578125 22.722656 23.304688 C 22.722656 23.03125 22.695312 22.757812 22.640625 22.488281 C 22.585938 22.21875 22.507812 21.957031 22.402344 21.703125 C 22.296875 21.449219 22.167969 21.207031 22.015625 20.980469 C 21.863281 20.75 21.691406 20.539062 21.496094 20.347656 C 21.300781 20.152344 21.089844 19.976562 20.863281 19.824219 C 20.632812 19.671875 20.390625 19.542969 20.136719 19.4375 C 19.882812 19.332031 19.621094 19.253906 19.351562 19.199219 C 19.082031 19.148438 18.8125 19.121094 18.535156 19.121094 C 18.261719 19.121094 17.988281 19.148438 17.71875 19.199219 C 17.449219 19.253906 17.1875 19.332031 16.9375 19.4375 C 16.683594 19.542969 16.441406 19.671875 16.210938 19.824219 C 15.984375 19.976562 15.773438 20.152344 15.578125 20.34375 C 15.382812 20.539062 15.210938 20.75 15.058594 20.980469 C 14.90625 21.207031 14.777344 21.449219 14.671875 21.703125 C 14.566406 21.957031 14.484375 22.21875 14.433594 22.488281 C 14.378906 22.757812 14.351562 23.027344 14.351562 23.304688 C 14.351562 23.578125 14.378906 23.851562 14.433594 24.121094 C 14.484375 24.390625 14.566406 24.652344 14.671875 24.90625 C 14.773438 25.160156 14.902344 25.402344 15.058594 25.628906 C 15.210938 25.859375 15.382812 26.070312 15.578125 26.261719 C 15.773438 26.457031 15.984375 26.632812 16.210938 26.785156 C 16.441406 26.9375 16.679688 27.066406 16.933594 27.171875 C 17.1875 27.277344 17.449219 27.355469 17.71875 27.410156 C 17.988281 27.460938 18.261719 27.488281 18.535156 27.488281 Z M 18.535156 20.316406 C 18.933594 20.316406 19.3125 20.390625 19.679688 20.542969 C 20.046875 20.695312 20.371094 20.910156 20.648438 21.191406 C 20.929688 21.472656 21.148438 21.792969 21.296875 22.160156 C 21.449219 22.527344 21.527344 22.910156 21.527344 23.304688 C 21.527344 23.703125 21.449219 24.082031 21.296875 24.449219 C 21.144531 24.816406 20.929688 25.136719 20.648438 25.417969 C 20.371094 25.699219 20.046875 25.914062 19.679688 26.066406 C 19.3125 26.21875 18.933594 26.292969 18.535156 26.292969 C 18.140625 26.292969 17.757812 26.21875 17.390625 26.066406 C 17.027344 25.914062 16.703125 25.699219 16.421875 25.417969 C 16.140625 25.136719 15.925781 24.8125 15.773438 24.449219 C 15.625 24.082031 15.546875 23.699219 15.546875 23.304688 C 15.546875 22.90625 15.625 22.527344 15.777344 22.160156 C 15.929688 21.792969 16.144531 21.472656 16.425781 21.191406 C 16.703125 20.910156 17.027344 20.695312 17.394531 20.542969 C 17.757812 20.390625 18.140625 20.316406 18.535156 20.316406 Z M 47.222656 6.863281 C 47.46875 6.863281 47.683594 6.777344 47.855469 6.601562 C 48.03125 6.425781 48.121094 6.214844 48.121094 5.96875 C 48.121094 5.71875 48.03125 5.507812 47.855469 5.332031 C 47.683594 5.160156 47.46875 5.070312 47.222656 5.070312 C 46.976562 5.070312 46.765625 5.160156 46.589844 5.332031 C 46.414062 5.507812 46.324219 5.71875 46.324219 5.96875 C 46.328125 6.214844 46.414062 6.425781 46.589844 6.601562 C 46.765625 6.777344 46.976562 6.863281 47.222656 6.863281 Z M 47.222656 5.519531 C 47.347656 5.519531 47.453125 5.5625 47.539062 5.652344 C 47.628906 5.738281 47.671875 5.84375 47.671875 5.96875 C 47.671875 6.089844 47.628906 6.199219 47.539062 6.285156 C 47.453125 6.371094 47.347656 6.417969 47.222656 6.417969 C 47.097656 6.417969 46.992188 6.371094 46.90625 6.285156 C 46.816406 6.199219 46.773438 6.089844 46.773438 5.96875 C 46.773438 5.84375 46.816406 5.738281 46.90625 5.652344 C 46.992188 5.5625 47.097656 5.519531 47.222656 5.519531 Z M 21.21875 4.175781 C 21.464844 4.175781 21.675781 4.085938 21.851562 3.910156 C 22.027344 3.738281 22.113281 3.523438 22.113281 3.277344 C 22.113281 3.03125 22.027344 2.820312 21.851562 2.644531 C 21.675781 2.46875 21.464844 2.378906 21.21875 2.378906 C 20.96875 2.378906 20.757812 2.46875 20.582031 2.644531 C 20.410156 2.820312 20.320312 3.03125 20.320312 3.277344 C 20.320312 3.523438 20.410156 3.738281 20.582031 3.910156 C 20.757812 4.085938 20.96875 4.175781 21.21875 4.175781 Z M 21.21875 2.828125 C 21.339844 2.828125 21.445312 2.871094 21.535156 2.960938 C 21.621094 3.046875 21.664062 3.152344 21.664062 3.277344 C 21.664062 3.402344 21.621094 3.507812 21.535156 3.59375 C 21.445312 3.683594 21.339844 3.726562 21.21875 3.726562 C 21.09375 3.726562 20.988281 3.683594 20.902344 3.59375 C 20.8125 3.507812 20.769531 3.402344 20.769531 3.277344 C 20.769531 3.152344 20.8125 3.046875 20.902344 2.960938 C 20.988281 2.875 21.09375 2.828125 21.21875 2.828125 Z M 41.84375 8.359375 C 42.007812 8.359375 42.148438 8.300781 42.265625 8.183594 C 42.382812 8.066406 42.441406 7.925781 42.441406 7.761719 C 42.441406 7.597656 42.382812 7.457031 42.265625 7.339844 C 42.148438 7.222656 42.007812 7.164062 41.84375 7.164062 C 41.675781 7.164062 41.535156 7.222656 41.417969 7.339844 C 41.304688 7.457031 41.246094 7.597656 41.246094 7.761719 C 41.246094 7.925781 41.304688 8.066406 41.417969 8.183594 C 41.535156 8.300781 41.675781 8.359375 41.84375 8.359375 Z M 41.84375 7.460938 C 41.925781 7.460938 41.996094 7.492188 42.054688 7.550781 C 42.113281 7.609375 42.140625 7.679688 42.140625 7.761719 C 42.140625 7.84375 42.113281 7.914062 42.054688 7.972656 C 41.996094 8.03125 41.925781 8.058594 41.84375 8.058594 C 41.761719 8.058594 41.6875 8.03125 41.632812 7.972656 C 41.574219 7.914062 41.542969 7.84375 41.542969 7.761719 C 41.542969 7.679688 41.574219 7.609375 41.632812 7.550781 C 41.6875 7.492188 41.761719 7.460938 41.84375 7.460938 Z M 14.640625 9.253906 C 14.804688 9.253906 14.949219 9.199219 15.0625 9.082031 C 15.179688 8.964844 15.238281 8.824219 15.238281 8.65625 C 15.238281 8.492188 15.179688 8.351562 15.0625 8.234375 C 14.949219 8.117188 14.804688 8.058594 14.640625 8.058594 C 14.476562 8.058594 14.335938 8.117188 14.21875 8.234375 C 14.101562 8.351562 14.042969 8.492188 14.042969 8.65625 C 14.042969 8.824219 14.101562 8.964844 14.21875 9.082031 C 14.335938 9.195312 14.476562 9.253906 14.640625 9.253906 Z M 14.640625 8.359375 C 14.722656 8.359375 14.792969 8.386719 14.851562 8.445312 C 14.910156 8.503906 14.941406 8.574219 14.941406 8.65625 C 14.941406 8.742188 14.910156 8.8125 14.851562 8.871094 C 14.792969 8.925781 14.722656 8.957031 14.640625 8.957031 C 14.558594 8.957031 14.488281 8.925781 14.429688 8.871094 C 14.371094 8.8125 14.34375 8.742188 14.34375 8.65625 C 14.34375 8.574219 14.371094 8.503906 14.429688 8.445312 C 14.488281 8.386719 14.558594 8.359375 14.640625 8.359375 Z M 4.179688 4.472656 C 4.015625 4.472656 3.875 4.53125 3.757812 4.648438 C 3.640625 4.765625 3.582031 4.90625 3.582031 5.070312 C 3.582031 5.234375 3.640625 5.378906 3.757812 5.492188 C 3.875 5.609375 4.015625 5.667969 4.179688 5.667969 C 4.34375 5.667969 4.484375 5.609375 4.601562 5.492188 C 4.71875 5.378906 4.777344 5.234375 4.777344 5.070312 C 4.777344 4.90625 4.71875 4.765625 4.601562 4.648438 C 4.484375 4.53125 4.34375 4.472656 4.179688 4.472656 Z M 4.179688 5.371094 C 4.097656 5.371094 4.027344 5.339844 3.96875 5.28125 C 3.910156 5.222656 3.878906 5.152344 3.878906 5.070312 C 3.878906 4.988281 3.910156 4.917969 3.96875 4.859375 C 4.027344 4.800781 4.097656 4.773438 4.179688 4.773438 C 4.261719 4.773438 4.332031 4.800781 4.390625 4.859375 C 4.449219 4.917969 4.476562 4.988281 4.476562 5.070312 C 4.476562 5.152344 4.449219 5.222656 4.390625 5.28125 C 4.332031 5.339844 4.261719 5.371094 4.179688 5.371094 Z M 4.179688 5.371094 " fill-opacity="1" fill-rule="nonzero"/><g clip-path="url(#7faec50277)"><path fill="#2d8de9" d="M 2.085938 43.628906 C 2.085938 43.796875 2.027344 43.9375 1.910156 44.054688 C 1.796875 44.171875 1.65625 44.226562 1.488281 44.226562 C 1.324219 44.226562 1.183594 44.171875 1.066406 44.054688 C 0.949219 43.9375 0.890625 43.796875 0.890625 43.628906 C 0.890625 43.464844 0.949219 43.324219 1.066406 43.207031 C 1.183594 43.089844 1.324219 43.03125 1.488281 43.03125 C 1.65625 43.03125 1.796875 43.089844 1.910156 43.207031 C 2.027344 43.324219 2.085938 43.464844 2.085938 43.628906 Z M 2.085938 43.628906 " fill-opacity="1" fill-rule="nonzero"/></g><path fill="#2d8de9" d="M 4.179688 43.03125 L 3.28125 43.03125 C 3.117188 43.03125 2.976562 43.089844 2.859375 43.207031 C 2.742188 43.324219 2.683594 43.464844 2.683594 43.628906 C 2.683594 43.796875 2.742188 43.9375 2.859375 44.054688 C 2.976562 44.171875 3.117188 44.226562 3.28125 44.226562 L 4.179688 44.226562 C 4.34375 44.226562 4.484375 44.171875 4.601562 44.054688 C 4.71875 43.9375 4.777344 43.796875 4.777344 43.628906 C 4.777344 43.464844 4.71875 43.324219 4.601562 43.207031 C 4.484375 43.089844 4.34375 43.03125 4.179688 43.03125 Z M 48.71875 43.03125 L 47.820312 43.03125 C 47.65625 43.03125 47.515625 43.089844 47.398438 43.207031 C 47.28125 43.324219 47.222656 43.464844 47.222656 43.628906 C 47.222656 43.796875 47.28125 43.9375 47.398438 44.054688 C 47.515625 44.171875 47.65625 44.226562 47.820312 44.226562 L 48.71875 44.226562 C 48.882812 44.226562 49.023438 44.171875 49.140625 44.054688 C 49.257812 43.9375 49.316406 43.796875 49.316406 43.628906 C 49.316406 43.464844 49.257812 43.324219 49.140625 43.207031 C 49.023438 43.089844 48.882812 43.03125 48.71875 43.03125 Z M 48.71875 43.03125 " fill-opacity="1" fill-rule="nonzero"/><g clip-path="url(#c820d1467a)"><path fill="#2d8de9" d="M 51.109375 43.628906 C 51.109375 43.796875 51.050781 43.9375 50.933594 44.054688 C 50.816406 44.171875 50.675781 44.226562 50.511719 44.226562 C 50.34375 44.226562 50.203125 44.171875 50.089844 44.054688 C 49.972656 43.9375 49.914062 43.796875 49.914062 43.628906 C 49.914062 43.464844 49.972656 43.324219 50.089844 43.207031 C 50.203125 43.089844 50.34375 43.03125 50.511719 43.03125 C 50.675781 43.03125 50.816406 43.089844 50.933594 43.207031 C 51.050781 43.324219 51.109375 43.464844 51.109375 43.628906 Z M 51.109375 43.628906 " fill-opacity="1" fill-rule="nonzero"/></g><path fill="#2d8de9" d="M 45.945312 43.03125 L 24.519531 43.03125 C 24.777344 42.621094 24.90625 42.167969 24.90625 41.679688 L 24.90625 36.824219 L 26.265625 39.121094 C 26.667969 39.53125 27.15625 39.738281 27.734375 39.742188 C 28.484375 39.726562 29.085938 39.417969 29.535156 38.8125 L 33.738281 33.292969 C 34.652344 32.230469 34.507812 30.773438 33.722656 30.039062 C 33.328125 29.671875 32.859375 29.488281 32.324219 29.492188 C 31.636719 29.5 31.078125 29.765625 30.640625 30.296875 L 28.230469 33.402344 C 27.949219 32.941406 25.847656 29.101562 24.550781 28.078125 C 23.910156 27.597656 23.210938 27.234375 22.453125 26.980469 C 22.125 27.332031 21.753906 27.636719 21.339844 27.886719 C 22.238281 28.101562 23.058594 28.480469 23.808594 29.015625 C 24.246094 29.359375 28.105469 35.507812 28.105469 35.507812 L 29.171875 34.132812 L 31.5625 31.058594 C 31.757812 30.816406 32.011719 30.695312 32.324219 30.6875 C 32.546875 30.6875 32.742188 30.761719 32.90625 30.910156 C 33.097656 31.148438 33.1875 31.421875 33.171875 31.726562 C 33.160156 32.03125 33.042969 32.296875 32.832031 32.515625 L 32.785156 32.570312 L 28.589844 38.082031 C 28.378906 38.375 28.09375 38.527344 27.734375 38.546875 C 27.535156 38.542969 27.355469 38.480469 27.199219 38.355469 L 23.710938 32.449219 L 23.710938 41.679688 C 23.714844 41.859375 23.679688 42.03125 23.613281 42.195312 C 23.546875 42.359375 23.449219 42.507812 23.324219 42.632812 C 23.199219 42.757812 23.054688 42.859375 22.890625 42.925781 C 22.726562 42.996094 22.554688 43.03125 22.378906 43.03125 L 14.628906 43.03125 C 14.257812 43.035156 13.9375 42.90625 13.675781 42.644531 C 13.433594 42.402344 13.316406 42.109375 13.324219 41.769531 L 13.351562 32.109375 L 10.039062 40.019531 C 9.945312 40.265625 9.792969 40.46875 9.585938 40.628906 C 9.378906 40.789062 9.144531 40.882812 8.882812 40.910156 C 8.785156 40.910156 8.691406 40.890625 8.601562 40.851562 C 8.109375 40.632812 7.917969 39.835938 8.195312 39.144531 L 9.101562 36.863281 C 10.023438 34.535156 11.066406 31.917969 11.207031 31.558594 C 11.632812 30.636719 12.230469 29.851562 13.003906 29.199219 C 13.78125 28.546875 14.65625 28.089844 15.636719 27.828125 C 15.242188 27.574219 14.886719 27.273438 14.570312 26.925781 C 13.582031 27.296875 12.703125 27.839844 11.933594 28.558594 C 11.164062 29.277344 10.554688 30.113281 10.117188 31.070312 C 10.113281 31.082031 8.257812 35.75 7.082031 38.703125 C 6.5625 40.011719 7.027344 41.460938 8.117188 41.945312 C 8.363281 42.050781 8.617188 42.105469 8.882812 42.105469 C 9.382812 42.078125 9.835938 41.921875 10.242188 41.628906 C 10.652344 41.339844 10.949219 40.960938 11.136719 40.5 L 12.140625 38.101562 L 12.128906 41.765625 C 12.125 42.222656 12.238281 42.644531 12.476562 43.03125 L 6.054688 43.03125 C 5.875 43.007812 5.71875 43.058594 5.582031 43.175781 C 5.445312 43.296875 5.375 43.449219 5.375 43.628906 C 5.375 43.8125 5.445312 43.964844 5.582031 44.082031 C 5.71875 44.203125 5.875 44.253906 6.054688 44.226562 L 45.945312 44.226562 C 46.125 44.253906 46.28125 44.203125 46.417969 44.082031 C 46.554688 43.964844 46.625 43.8125 46.625 43.628906 C 46.625 43.449219 46.554688 43.296875 46.417969 43.175781 C 46.28125 43.058594 46.125 43.007812 45.945312 43.03125 Z M 45.945312 43.03125 " fill-opacity="1" fill-rule="nonzero"/><path fill="#2d8de9" d="M 9.136719 14.042969 L 9.582031 13.457031 L 9.300781 13.296875 L 9.015625 13.953125 L 9.003906 13.953125 L 8.714844 13.304688 L 8.429688 13.464844 L 8.871094 14.039062 L 8.871094 14.046875 L 8.183594 13.957031 L 8.183594 14.277344 L 8.875 14.1875 L 8.875 14.195312 L 8.429688 14.765625 L 8.695312 14.933594 L 9 14.277344 L 9.011719 14.277344 L 9.289062 14.929688 L 9.585938 14.761719 L 9.136719 14.199219 L 9.136719 14.191406 L 9.84375 14.277344 L 9.84375 13.957031 L 9.136719 14.050781 Z M 9.136719 14.042969 " fill-opacity="1" fill-rule="nonzero"/><path fill="#2d8de9" d="M 27.128906 6.882812 L 26.871094 7.214844 L 27.027344 7.308594 L 27.203125 6.929688 L 27.207031 6.929688 L 27.367188 7.308594 L 27.539062 7.210938 L 27.28125 6.886719 L 27.28125 6.882812 L 27.6875 6.929688 L 27.6875 6.746094 L 27.28125 6.800781 L 27.28125 6.796875 L 27.535156 6.457031 L 27.375 6.367188 L 27.210938 6.746094 L 27.203125 6.746094 L 27.039062 6.371094 L 26.871094 6.464844 L 27.125 6.792969 L 27.125 6.796875 L 26.730469 6.746094 L 26.730469 6.929688 L 27.128906 6.878906 Z M 27.128906 6.882812 " fill-opacity="1" fill-rule="nonzero"/><path fill="#2d8de9" d="M 48.417969 12.160156 L 48.417969 11.847656 L 47.726562 11.9375 L 47.726562 11.929688 L 48.160156 11.355469 L 47.886719 11.199219 L 47.605469 11.84375 L 47.597656 11.84375 L 47.3125 11.203125 L 47.03125 11.367188 L 47.464844 11.925781 L 47.464844 11.933594 L 46.789062 11.847656 L 46.789062 12.160156 L 47.46875 12.070312 L 47.46875 12.082031 L 47.03125 12.640625 L 47.292969 12.804688 L 47.59375 12.160156 L 47.601562 12.160156 L 47.878906 12.800781 L 48.167969 12.636719 L 47.726562 12.085938 L 47.726562 12.078125 Z M 48.417969 12.160156 " fill-opacity="1" fill-rule="nonzero"/><path fill="#2d8de9" d="M 34.597656 4.269531 L 35.179688 4.175781 L 35.179688 4.183594 L 34.816406 4.679688 L 35.046875 4.8125 L 35.289062 4.25 L 35.296875 4.25 L 35.550781 4.792969 L 35.796875 4.644531 L 35.402344 4.183594 L 35.402344 4.171875 L 36 4.226562 L 35.992188 3.957031 L 35.398438 4.054688 L 35.398438 4.046875 L 35.757812 3.542969 L 35.515625 3.414062 L 35.292969 3.976562 L 35.285156 3.976562 L 35.019531 3.433594 L 34.785156 3.578125 L 35.171875 4.050781 L 35.171875 4.058594 L 34.585938 4 Z M 34.597656 4.269531 " fill-opacity="1" fill-rule="nonzero"/><path fill="#2d8de9" d="M 36.210938 45.722656 L 33.726562 45.722656 C 33.570312 45.734375 33.4375 45.800781 33.332031 45.914062 C 33.226562 46.027344 33.175781 46.164062 33.175781 46.320312 C 33.175781 46.476562 33.226562 46.613281 33.332031 46.726562 C 33.4375 46.84375 33.570312 46.90625 33.726562 46.917969 L 36.210938 46.917969 C 36.363281 46.90625 36.496094 46.84375 36.601562 46.726562 C 36.707031 46.613281 36.761719 46.476562 36.761719 46.320312 C 36.761719 46.164062 36.707031 46.027344 36.601562 45.914062 C 36.496094 45.800781 36.363281 45.734375 36.210938 45.722656 Z M 18.273438 45.722656 L 15.792969 45.722656 C 15.636719 45.734375 15.503906 45.800781 15.398438 45.914062 C 15.292969 46.027344 15.238281 46.164062 15.238281 46.320312 C 15.238281 46.476562 15.292969 46.613281 15.398438 46.726562 C 15.503906 46.84375 15.636719 46.90625 15.792969 46.917969 L 18.273438 46.917969 C 18.429688 46.90625 18.5625 46.84375 18.667969 46.726562 C 18.773438 46.613281 18.828125 46.476562 18.828125 46.320312 C 18.828125 46.164062 18.773438 46.027344 18.667969 45.914062 C 18.5625 45.800781 18.429688 45.734375 18.273438 45.722656 Z M 31.976562 45.722656 L 20.023438 45.722656 C 19.855469 45.722656 19.714844 45.78125 19.597656 45.898438 C 19.480469 46.015625 19.425781 46.15625 19.425781 46.320312 C 19.425781 46.484375 19.480469 46.625 19.597656 46.742188 C 19.714844 46.859375 19.855469 46.917969 20.023438 46.917969 L 24.785156 46.917969 L 24.785156 47.515625 L 22.414062 47.515625 C 22.246094 47.515625 22.105469 47.574219 21.992188 47.691406 C 21.875 47.808594 21.816406 47.949219 21.816406 48.113281 C 21.816406 48.28125 21.875 48.421875 21.992188 48.535156 C 22.105469 48.652344 22.246094 48.710938 22.414062 48.710938 L 29.886719 48.710938 C 30.050781 48.710938 30.191406 48.652344 30.308594 48.535156 C 30.425781 48.421875 30.484375 48.28125 30.484375 48.113281 C 30.484375 47.949219 30.425781 47.808594 30.308594 47.691406 C 30.191406 47.574219 30.050781 47.515625 29.886719 47.515625 L 27.214844 47.515625 L 27.214844 46.917969 L 31.976562 46.917969 C 32.144531 46.917969 32.285156 46.859375 32.402344 46.742188 C 32.519531 46.625 32.574219 46.484375 32.574219 46.320312 C 32.574219 46.15625 32.519531 46.015625 32.402344 45.898438 C 32.285156 45.78125 32.144531 45.722656 31.976562 45.722656 Z M 31.976562 45.722656 " fill-opacity="1" fill-rule="nonzero"/><g clip-path="url(#8bd67189fa)"><path fill="#2d8de9" d="M 31.128906 14.710938 C 30.789062 14.710938 30.457031 14.742188 30.128906 14.808594 C 29.796875 14.875 29.476562 14.972656 29.167969 15.101562 C 28.855469 15.230469 28.558594 15.386719 28.28125 15.574219 C 28 15.761719 27.742188 15.972656 27.503906 16.210938 C 27.265625 16.449219 27.054688 16.707031 26.867188 16.988281 C 26.679688 17.265625 26.519531 17.5625 26.390625 17.875 C 26.265625 18.183594 26.167969 18.503906 26.101562 18.835938 C 26.035156 19.164062 26.003906 19.5 26.003906 19.835938 C 26.003906 20.171875 26.035156 20.503906 26.101562 20.835938 C 26.167969 21.164062 26.265625 21.484375 26.390625 21.796875 C 26.519531 22.105469 26.679688 22.402344 26.867188 22.683594 C 27.054688 22.960938 27.265625 23.222656 27.503906 23.457031 C 27.742188 23.695312 28 23.910156 28.28125 24.097656 C 28.558594 24.28125 28.855469 24.441406 29.167969 24.570312 C 29.476562 24.699219 29.796875 24.796875 30.128906 24.863281 C 30.457031 24.925781 30.789062 24.960938 31.128906 24.960938 C 31.464844 24.960938 31.796875 24.925781 32.128906 24.863281 C 32.457031 24.796875 32.777344 24.699219 33.089844 24.570312 C 33.398438 24.441406 33.695312 24.28125 33.976562 24.097656 C 34.253906 23.910156 34.511719 23.695312 34.75 23.457031 C 34.988281 23.222656 35.203125 22.960938 35.386719 22.683594 C 35.574219 22.402344 35.734375 22.105469 35.863281 21.796875 C 35.992188 21.484375 36.089844 21.164062 36.152344 20.835938 C 36.21875 20.503906 36.253906 20.171875 36.253906 19.835938 C 36.253906 19.5 36.21875 19.164062 36.152344 18.835938 C 36.085938 18.503906 35.988281 18.183594 35.859375 17.875 C 35.730469 17.5625 35.574219 17.269531 35.386719 16.988281 C 35.199219 16.710938 34.988281 16.449219 34.75 16.210938 C 34.511719 15.972656 34.253906 15.761719 33.972656 15.574219 C 33.695312 15.386719 33.398438 15.230469 33.085938 15.101562 C 32.777344 14.972656 32.457031 14.875 32.125 14.808594 C 31.796875 14.742188 31.464844 14.710938 31.128906 14.710938 Z M 33.679688 20.050781 L 29.773438 22.105469 C 29.738281 22.121094 29.703125 22.128906 29.664062 22.128906 C 29.617188 22.128906 29.574219 22.117188 29.535156 22.09375 C 29.457031 22.046875 29.417969 21.976562 29.417969 21.886719 L 29.417969 17.785156 C 29.417969 17.691406 29.457031 17.621094 29.535156 17.574219 C 29.617188 17.53125 29.695312 17.53125 29.773438 17.574219 L 33.679688 19.628906 C 33.769531 19.671875 33.8125 19.746094 33.8125 19.84375 C 33.8125 19.945312 33.769531 20.015625 33.679688 20.058594 Z M 33.679688 20.050781 " fill-opacity="1" fill-rule="nonzero"/></g></svg>