<svg xmlns="http://www.w3.org/2000/svg" xmlns:xlink="http://www.w3.org/1999/xlink" width="70" zoomAndPan="magnify" viewBox="0 0 52.5 52.499999" height="70" preserveAspectRatio="xMidYMid meet" version="1.0"><defs><clipPath id="1dded6e2e7"><path d="M 0 0 L 52.003906 0 L 52.003906 52.003906 L 0 52.003906 Z M 0 0 " clip-rule="nonzero"/></clipPath><clipPath id="1742e977c5"><path d="M 1.953125 16 L 14 16 L 14 19 L 1.953125 19 Z M 1.953125 16 " clip-rule="nonzero"/></clipPath><clipPath id="17b7fa7a0d"><path d="M 9.167969 5.203125 L 50.046875 5.203125 L 50.046875 45.292969 L 9.167969 45.292969 Z M 9.167969 5.203125 " clip-rule="nonzero"/></clipPath></defs><g clip-path="url(#1dded6e2e7)"><path fill="#ffffff" d="M 0 0 L 52.003906 0 L 52.003906 52.003906 L 0 52.003906 Z M 0 0 " fill-opacity="1" fill-rule="nonzero"/><path fill="#ffffff" d="M 0 0 L 52.003906 0 L 52.003906 52.003906 L 0 52.003906 Z M 0 0 " fill-opacity="1" fill-rule="nonzero"/></g><path fill="#2d8de9" d="M 12.042969 27.84375 L 5.078125 27.84375 C 4.355469 27.84375 3.773438 28.421875 3.773438 29.140625 C 3.773438 29.863281 4.355469 30.441406 5.078125 30.441406 L 12.042969 30.441406 C 12.765625 30.441406 13.347656 29.863281 13.347656 29.140625 C 13.347656 28.421875 12.765625 27.84375 12.042969 27.84375 " fill-opacity="1" fill-rule="nonzero"/><path fill="#2d8de9" d="M 15.296875 22.074219 L 3.585938 22.074219 C 2.863281 22.074219 2.277344 22.648438 2.277344 23.371094 C 2.277344 24.089844 2.863281 24.667969 3.585938 24.667969 L 15.296875 24.667969 C 16.019531 24.667969 16.601562 24.089844 16.601562 23.371094 C 16.601562 22.648438 16.019531 22.074219 15.296875 22.074219 " fill-opacity="1" fill-rule="nonzero"/><g clip-path="url(#1742e977c5)"><path fill="#2d8de9" d="M 3.257812 18.898438 L 12.042969 18.898438 C 12.765625 18.898438 13.347656 18.273438 13.347656 17.550781 C 13.347656 16.832031 12.765625 16.207031 12.042969 16.207031 L 3.257812 16.207031 C 2.539062 16.207031 1.953125 16.832031 1.953125 17.550781 C 1.953125 18.273438 2.539062 18.898438 3.257812 18.898438 " fill-opacity="1" fill-rule="nonzero"/></g><path fill="#2d8de9" d="M 36.339844 41.984375 C 37.027344 41.984375 37.582031 41.429688 37.582031 40.742188 C 37.582031 40.058594 37.027344 39.5 36.339844 39.5 C 35.652344 39.5 35.097656 40.058594 35.097656 40.742188 C 35.097656 41.429688 35.652344 41.984375 36.339844 41.984375 " fill-opacity="1" fill-rule="nonzero"/><path fill="#2d8de9" d="M 20.105469 40.742188 C 20.105469 41.429688 20.660156 41.984375 21.347656 41.984375 C 22.035156 41.984375 22.589844 41.429688 22.589844 40.742188 C 22.589844 40.058594 22.035156 39.5 21.347656 39.5 C 20.660156 39.5 20.105469 40.058594 20.105469 40.742188 " fill-opacity="1" fill-rule="nonzero"/><g clip-path="url(#17b7fa7a0d)"><path fill="#2d8de9" d="M 23.726562 40.742188 C 23.726562 42.054688 22.65625 43.121094 21.347656 43.121094 C 20.035156 43.121094 18.96875 42.054688 18.96875 40.742188 C 18.96875 39.433594 20.035156 38.367188 21.347656 38.367188 C 22.65625 38.367188 23.726562 39.433594 23.726562 40.742188 Z M 36.339844 38.367188 C 37.652344 38.367188 38.71875 39.433594 38.71875 40.742188 C 38.71875 42.054688 37.652344 43.121094 36.339844 43.121094 C 35.027344 43.121094 33.960938 42.054688 33.960938 40.742188 C 33.960938 39.433594 35.027344 38.367188 36.339844 38.367188 Z M 46.8125 13.898438 L 19.726562 13.898438 L 19.722656 13.855469 L 19.023438 9.699219 C 18.621094 7.304688 16.648438 5.535156 14.222656 5.402344 L 10.664062 5.203125 C 9.921875 5.164062 9.277344 5.734375 9.238281 6.484375 C 9.195312 7.230469 9.769531 7.871094 10.515625 7.910156 L 14.074219 8.105469 C 15.222656 8.167969 16.160156 9.003906 16.351562 10.140625 L 19.171875 26.929688 C 19.28125 27.59375 19.855469 28.0625 20.507812 28.0625 C 20.582031 28.0625 20.65625 28.054688 20.734375 28.042969 C 21.472656 27.917969 21.96875 27.226562 21.84375 26.488281 L 20.179688 16.589844 L 46.8125 16.589844 C 47.035156 16.589844 47.167969 16.695312 47.226562 16.773438 C 47.28125 16.847656 47.371094 16.996094 47.3125 17.210938 L 43.875 29.992188 C 43.589844 31.050781 42.628906 31.789062 41.535156 31.789062 L 23.851562 31.789062 C 21.691406 31.789062 19.941406 33.535156 19.941406 35.691406 L 19.941406 36.421875 C 20.324219 36.273438 20.84375 36.210938 21.335938 36.210938 C 21.339844 36.210938 21.339844 36.210938 21.34375 36.210938 C 20.851562 36.210938 20.382812 36.285156 19.9375 36.429688 C 18.117188 37.023438 16.800781 38.730469 16.800781 40.746094 C 16.800781 43.253906 18.839844 45.292969 21.347656 45.292969 C 23.515625 45.292969 25.332031 43.765625 25.785156 41.734375 C 25.855469 41.414062 25.894531 41.085938 25.894531 40.75 C 25.894531 40.75 25.894531 40.726562 25.894531 40.730469 C 25.894531 41.070312 25.855469 41.40625 25.785156 41.695312 L 31.902344 41.695312 C 31.832031 41.40625 31.792969 41.070312 31.792969 40.730469 C 31.792969 40.726562 31.792969 40.738281 31.792969 40.734375 C 31.792969 41.074219 31.832031 41.410156 31.902344 41.726562 C 32.355469 43.757812 34.171875 45.289062 36.339844 45.289062 C 38.847656 45.289062 40.886719 43.25 40.886719 40.742188 C 40.886719 38.234375 38.847656 36.195312 36.339844 36.195312 C 34.441406 36.195312 32.8125 37.351562 32.132812 39.003906 C 32.132812 39.007812 32.128906 39 32.128906 39 L 25.558594 39 C 25.558594 39 25.554688 39.007812 25.554688 39.003906 C 25.035156 37.746094 23.964844 36.773438 22.648438 36.378906 C 22.644531 36.378906 22.632812 36.386719 22.632812 36.382812 L 22.632812 35.691406 C 22.632812 35.03125 23.1875 34.480469 23.851562 34.480469 L 41.535156 34.480469 C 43.851562 34.480469 45.890625 32.921875 46.496094 30.683594 L 49.933594 17.902344 C 50.195312 16.925781 49.992188 15.933594 49.378906 15.128906 C 48.761719 14.324219 47.828125 13.898438 46.8125 13.898438 " fill-opacity="1" fill-rule="nonzero"/></g></svg>