<?xml version="1.0" standalone="no"?>
<!DOCTYPE svg PUBLIC "-//W3C//DTD SVG 20010904//EN"
 "http://www.w3.org/TR/2001/REC-SVG-20010904/DTD/svg10.dtd">
<svg version="1.0" xmlns="http://www.w3.org/2000/svg"
 width="1920.000000pt" height="1080.000000pt" viewBox="0 0 1920.000000 1080.000000"
 preserveAspectRatio="xMidYMid meet">

<g transform="translate(0.000000,1080.000000) scale(0.100000,-0.100000)"
fill="#000000" stroke="none">
<path d="M0 5400 l0 -5400 9600 0 9600 0 0 5400 0 5400 -9600 0 -9600 0 0
-5400z m9695 996 c174 -11 282 -46 399 -130 145 -105 240 -245 276 -406 6 -30
17 -66 24 -80 l12 -25 139 3 c118 3 150 0 202 -16 65 -21 153 -73 189 -114 61
-66 100 -163 106 -257 5 -74 15 -85 86 -96 70 -10 144 -41 199 -83 68 -52 88
-77 131 -162 36 -74 37 -77 37 -190 0 -112 -1 -117 -37 -193 -45 -95 -119
-171 -204 -211 -63 -30 -179 -56 -250 -56 l-44 0 0 -161 c0 -129 3 -163 15
-175 20 -20 19 -70 -1 -78 -48 -18 -93 18 -72 58 6 12 15 24 21 27 8 6 12 317
4 326 -2 1 -51 5 -110 9 l-107 6 -1 -134 c0 -73 -2 -205 -4 -293 -1 -97 1
-165 7 -172 6 -7 20 -13 33 -13 25 0 57 -31 53 -51 -13 -61 -98 -51 -98 11 0
15 -4 30 -9 32 -5 2 -11 137 -14 300 -3 163 -8 302 -12 307 -9 16 -194 14
-200 -1 -3 -7 -6 -240 -7 -518 -2 -400 0 -504 10 -502 6 1 12 -2 12 -7 0 -6 8
-8 18 -6 23 4 36 -4 50 -32 9 -17 9 -22 -4 -27 -8 -3 -13 -10 -10 -14 9 -15
-52 -11 -65 4 -6 8 -9 14 -5 14 3 0 1 12 -4 26 -8 19 -7 24 3 19 6 -4 2 2 -10
12 l-22 18 -2 425 c0 234 -2 445 -3 470 -1 25 -3 64 -4 88 l-2 43 -152 -3
-153 -3 -3 -48 c-3 -45 -1 -50 53 -106 l56 -59 -3 -493 c-2 -314 -7 -497 -13
-501 -6 -5 -5 -8 4 -8 11 0 11 -3 0 -17 -8 -10 -9 -14 -2 -10 8 5 11 0 10 -13
-1 -11 -6 -20 -12 -20 -5 0 -3 -5 5 -10 11 -7 11 -10 2 -10 -8 0 -4 -9 10 -24
13 -13 27 -21 32 -18 5 3 6 -1 1 -8 -4 -7 -2 -16 5 -20 16 -10 24 -50 10 -50
-6 0 -10 8 -10 19 0 10 -15 33 -32 50 -39 38 -35 -30 -37 618 l-2 502 -55 53
-54 52 0 64 0 63 -37 -3 -38 -3 -3 -131 -3 -130 -59 -59 -60 -59 0 -352 0
-352 26 -31 c14 -17 36 -31 48 -31 31 0 66 -28 63 -49 -4 -29 -27 -51 -52 -51
-27 0 -44 19 -51 57 -3 15 -21 43 -40 60 l-34 33 0 363 0 363 60 59 60 59 0
128 0 128 -154 0 c-113 0 -157 -3 -163 -12 -4 -7 -9 -34 -11 -59 -2 -38 2 -52
22 -76 l25 -30 1 -511 c1 -282 5 -512 10 -512 5 0 7 -9 5 -20 -3 -14 2 -20 15
-20 10 0 21 -7 24 -16 3 -8 11 -12 17 -8 8 4 9 3 5 -4 -4 -7 -3 -12 3 -12 5 0
13 -10 17 -22 4 -13 11 -26 16 -29 12 -8 0 -69 -12 -69 -5 0 -7 -7 -4 -15 8
-20 -43 -68 -66 -62 -11 3 -18 0 -17 -6 2 -14 -56 -10 -61 4 -2 5 -8 7 -12 4
-12 -7 -51 26 -44 37 3 4 -1 5 -8 3 -9 -4 -14 3 -15 16 -1 12 -6 25 -11 28 -5
3 -8 16 -7 29 1 12 -2 22 -7 22 -5 0 -6 9 -3 21 5 14 0 28 -15 44 -13 14 -19
29 -14 36 5 9 2 10 -9 6 -20 -8 -107 28 -107 44 0 6 -7 9 -15 5 -20 -7 -19 4
3 20 15 12 14 13 -11 4 -26 -9 -27 -9 -16 11 8 15 8 19 0 15 -6 -4 -11 -4 -12
1 0 4 -2 18 -5 31 -2 12 0 22 5 22 5 0 8 8 7 18 -5 31 51 101 82 102 6 0 12 3
13 8 6 45 8 83 11 174 l3 107 -42 43 -43 43 -2 290 -3 290 -95 0 -95 0 -3
-124 -3 -123 51 -54 50 -53 0 -230 0 -231 -111 -112 -111 -112 0 -80 c-1 -158
5 -256 15 -263 6 -4 7 -1 2 7 -5 8 -3 11 6 8 8 -3 13 -11 11 -18 -2 -8 3 -10
14 -6 23 9 43 -10 37 -34 -3 -12 1 -22 9 -25 19 -7 15 -91 -6 -130 -9 -16 -16
-25 -16 -20 0 6 -4 4 -9 -4 -5 -8 -15 -16 -23 -17 -7 -1 -23 -4 -35 -6 -12 -2
-26 -7 -29 -11 -14 -14 -36 -7 -30 9 3 8 2 12 -4 9 -15 -10 -50 5 -50 20 0 8
-8 19 -17 24 -10 6 -15 11 -10 11 4 0 2 12 -6 28 -18 38 -11 86 11 77 13 -5
14 -3 5 6 -12 12 -10 15 25 54 7 8 23 21 35 30 21 15 22 23 25 183 l3 169 110
109 109 109 0 217 0 218 -50 52 -49 52 -3 130 -3 131 -95 0 c-87 0 -95 -2 -98
-20 -2 -11 -30 -47 -63 -80 l-59 -61 2 -452 c3 -444 3 -452 23 -453 17 -1 17
-2 3 -6 -19 -5 -25 -23 -8 -23 6 0 8 -15 6 -35 -3 -19 0 -35 5 -35 6 0 4 -7
-5 -15 -8 -8 -18 -24 -21 -35 -3 -11 -13 -20 -21 -20 -8 0 -12 -4 -9 -10 3 -5
-3 -10 -14 -10 -12 0 -21 -5 -21 -12 0 -6 -3 -8 -7 -5 -3 4 -12 2 -20 -4 -10
-9 -13 -8 -13 1 0 8 -12 11 -35 8 -27 -3 -36 0 -40 14 -4 9 -14 19 -23 22 -21
7 -42 50 -37 77 3 12 -2 19 -12 19 -13 0 -13 2 -2 16 7 9 14 27 15 40 1 28 21
54 41 54 8 0 12 4 8 9 -8 14 22 20 85 18 l55 -1 2 132 c1 72 -2 132 -7 132 -4
0 -6 10 -3 23 3 15 -1 12 -12 -10 -10 -18 -21 -30 -26 -27 -5 3 -9 -2 -9 -10
0 -8 -5 -18 -12 -22 -6 -4 -8 -3 -4 4 3 6 2 13 -4 17 -5 3 -10 -1 -10 -10 0
-12 -4 -14 -19 -6 -10 6 -21 7 -25 4 -3 -3 -18 -7 -33 -9 -16 -1 -22 0 -15 3
15 6 -30 33 -55 33 -8 0 -12 4 -8 9 3 5 1 12 -5 16 -6 4 -8 11 -5 16 4 5 -1
12 -10 15 -13 6 -14 8 -3 15 9 6 10 9 1 9 -7 0 -10 7 -7 15 4 8 1 15 -5 15 -6
0 -11 5 -11 11 0 5 6 7 13 3 6 -4 4 2 -6 13 -12 14 -15 23 -8 28 6 3 11 1 11
-5 0 -6 5 -8 10 -5 12 7 13 45 2 45 -10 0 -14 23 -11 65 1 17 3 131 3 255 l1
225 -80 0 -80 0 -3 -110 c-3 -112 4 -195 16 -194 31 5 100 -40 85 -55 -4 -4
-1 -11 7 -16 9 -6 15 -27 16 -55 1 -38 -3 -49 -25 -67 -23 -18 -23 -20 -5 -16
13 3 21 0 21 -8 0 -8 -3 -12 -5 -9 -3 3 -12 -1 -20 -8 -13 -10 -14 -9 -7 2 6
10 4 12 -5 6 -26 -16 -114 -13 -128 4 -11 13 -12 13 -6 1 5 -9 -1 -8 -15 5
-68 59 -68 165 -1 203 l30 17 -2 149 -3 150 -55 3 c-108 6 -214 25 -265 47
-70 31 -174 131 -207 198 -40 82 -51 139 -46 236 4 70 12 100 37 153 57 121
163 214 275 243 31 8 61 18 66 21 6 3 10 41 10 83 0 258 168 480 421 557 68
20 264 30 344 17 69 -12 98 0 109 43 26 104 209 288 347 349 60 26 181 56 228
56 17 0 31 5 31 11 0 5 3 8 8 6 4 -3 57 -8 117 -11z m-1228 -2548 c-3 -8 -6
-5 -6 6 -1 11 2 17 5 13 3 -3 4 -12 1 -19z m917 -684 c3 -8 2 -12 -4 -9 -6 3
-10 10 -10 16 0 14 7 11 14 -7z m116 -69 c0 -8 -2 -15 -4 -15 -2 0 -6 7 -10
15 -3 8 -1 15 4 15 6 0 10 -7 10 -15z m809 -81 c14 9 32 -11 35 -37 2 -15 -1
-24 -5 -21 -5 3 -12 -2 -15 -11 -6 -13 -8 -14 -15 -3 -7 11 -11 11 -17 0 -7
-10 -11 -10 -21 1 -9 12 -8 16 4 21 10 3 14 14 11 30 -4 25 6 46 12 27 2 -6 7
-9 11 -7z"/>
<path d="M10197 5744 c-16 -9 -26 -18 -23 -22 4 -3 12 0 18 6 7 7 29 12 50 12
21 0 38 5 38 10 0 15 -51 11 -83 -6z"/>
<path d="M10307 5734 c7 -3 9 -13 6 -22 -5 -13 -3 -14 7 -5 14 13 5 33 -13 32
-9 0 -9 -2 0 -5z"/>
<path d="M10121 5683 c-20 -22 -26 -112 -11 -157 10 -32 15 -36 48 -37 24 -1
29 -3 15 -6 -22 -4 -23 -9 -25 -101 l-2 -97 -5 94 c-4 60 -10 96 -18 98 -17 6
-27 -56 -27 -184 -1 -62 -4 -113 -9 -113 -4 0 -20 21 -35 46 -15 25 -35 55
-44 66 -10 12 -18 27 -18 35 0 7 -4 13 -8 13 -5 0 -19 19 -32 43 -31 54 -50
75 -50 53 0 -9 -11 -18 -25 -22 -13 -3 -27 -14 -30 -24 -4 -11 -12 -17 -21
-13 -17 6 -19 -8 -2 -25 8 -8 9 -12 1 -12 -6 0 -13 6 -16 13 -3 9 -7 9 -17 0
-16 -14 -4 -34 15 -26 11 4 14 -1 11 -18 -2 -16 -9 -23 -20 -21 -9 2 -15 -2
-14 -9 4 -15 -30 -21 -39 -7 -3 6 -1 8 5 4 6 -3 13 3 17 14 4 11 10 18 15 15
4 -3 3 6 -3 20 -8 17 -13 20 -15 10 -2 -8 -8 -12 -14 -9 -7 4 -8 2 -4 -5 4 -6
12 -8 18 -5 6 4 8 2 5 -3 -4 -6 -21 -9 -38 -7 -26 3 -29 1 -20 -10 9 -11 9
-16 0 -22 -8 -4 -9 -3 -5 4 4 7 1 12 -8 12 -12 0 -16 10 -16 40 0 22 5 40 10
40 6 0 10 -11 10 -24 0 -13 7 -27 16 -30 10 -4 14 -1 11 6 -2 7 5 26 16 41 11
16 21 43 22 60 3 31 5 32 45 32 24 0 45 5 47 10 2 7 -30 11 -92 10 l-95 0 0
-127 c0 -107 -2 -128 -15 -128 -8 0 -15 8 -15 18 0 14 2 15 10 2 7 -10 10 25
10 109 0 68 -2 122 -4 120 -6 -6 -15 -89 -16 -154 -1 -33 -4 -53 -7 -45 -3 8
-21 36 -40 62 -36 50 -63 55 -63 12 0 -20 4 -24 25 -20 28 5 45 -11 21 -20 -9
-3 -16 -12 -16 -20 0 -8 -5 -14 -11 -14 -5 0 -7 -5 -4 -10 4 -6 3 -10 -2 -9
-4 1 -15 1 -22 0 -12 -1 -12 -3 -2 -13 6 -7 17 -13 24 -13 7 0 11 -9 10 -19
-1 -11 3 -30 8 -43 6 -16 5 -22 -1 -18 -6 3 -10 2 -10 -2 0 -5 10 -14 22 -22
21 -13 21 -14 3 -27 -25 -19 -62 -18 -62 1 0 8 7 14 15 13 10 -2 15 6 16 24 1
14 -1 25 -4 23 -16 -9 -43 14 -44 37 -1 15 2 24 6 22 15 -10 8 24 -9 43 -10
10 -15 14 -10 9 20 -26 -8 -46 -30 -21 -5 4 -1 5 7 0 21 -12 4 6 -19 19 -10 6
-30 19 -44 29 -34 24 -124 33 -172 17 l-37 -12 -60 58 c-46 46 -56 52 -44 29
9 -16 16 -35 16 -42 0 -6 11 -25 25 -41 l25 -30 -35 -52 c-23 -34 -33 -59 -30
-71 4 -11 2 -19 -4 -19 -6 0 -11 -8 -11 -17 0 -16 2 -16 11 -3 7 11 8 6 4 -19
-6 -25 -4 -32 5 -26 10 6 11 1 6 -21 -4 -18 -3 -24 2 -16 7 10 16 6 36 -19 26
-30 26 -33 9 -43 -10 -6 -21 -11 -25 -11 -5 0 -9 -4 -10 -10 -4 -13 -43 -55
-52 -55 -4 0 -4 6 0 13 5 8 2 7 -10 -2 -13 -11 -14 -16 -4 -22 9 -6 8 -10 -5
-15 -13 -5 -23 1 -35 17 -21 28 -49 78 -58 101 -3 9 -11 19 -18 21 -9 4 -12
-23 -12 -110 0 -85 -3 -116 -13 -122 -11 -7 -11 -9 0 -14 8 -3 -36 -6 -98 -6
-106 -1 -113 0 -124 21 -6 12 -16 27 -21 32 -5 6 -31 45 -58 86 -27 41 -54 82
-60 90 -6 8 -40 62 -77 120 -37 58 -70 107 -73 110 -3 3 -17 23 -30 45 -13 22
-29 45 -35 51 -5 6 -19 27 -30 47 -11 20 -23 37 -27 37 -8 0 11 -40 23 -50 4
-3 9 -14 13 -25 3 -11 17 -32 30 -46 14 -15 22 -30 19 -33 -4 -3 -1 -6 5 -6 7
0 12 -6 12 -14 0 -7 11 -25 24 -39 13 -14 21 -28 18 -31 -3 -3 0 -6 6 -6 7 0
12 -7 12 -15 0 -8 5 -15 10 -15 6 0 10 -4 10 -9 0 -12 81 -135 92 -139 4 -2 8
-10 8 -18 0 -8 5 -14 12 -14 6 0 9 -3 5 -6 -3 -4 -1 -12 6 -20 29 -33 37 -44
37 -54 0 -5 5 -10 11 -10 5 0 7 -4 4 -10 -3 -5 -1 -10 4 -10 6 0 11 -6 11 -14
0 -20 93 -114 108 -109 6 3 12 1 12 -4 0 -5 39 -7 86 -6 94 2 118 16 111 60
-2 12 -1 20 3 18 4 -3 8 7 9 20 3 49 4 55 14 55 6 0 19 -7 29 -17 10 -9 26
-21 37 -27 19 -11 93 -66 123 -91 9 -8 25 -14 35 -14 10 1 32 -2 48 -6 41 -9
115 -11 115 -4 0 4 13 9 29 12 57 12 121 49 175 103 60 60 60 60 69 -21 7 -71
42 -91 151 -87 71 3 109 32 106 79 -1 15 -2 60 -1 99 2 110 17 106 106 -29 44
-66 88 -120 106 -131 43 -25 186 -27 204 -3 7 10 16 17 21 17 30 0 34 44 34
343 0 166 -3 328 -7 360 l-6 57 -36 1 c-20 1 -28 3 -18 6 10 3 20 18 24 34 3
16 9 29 13 29 4 0 12 19 19 41 10 33 10 44 0 53 -9 8 -10 8 -4 -3 5 -9 4 -12
-3 -7 -9 5 -9 13 -1 28 9 17 9 20 -4 15 -8 -3 -19 -1 -24 4 -6 6 -10 4 -10 -5
0 -8 5 -12 10 -9 6 4 8 0 4 -10 -3 -8 1 -21 9 -27 16 -14 19 -36 5 -44 -5 -4
-7 2 -4 13 3 10 0 22 -6 25 -7 4 -8 1 -5 -8 5 -12 0 -16 -17 -15 -19 0 -20 2
-7 7 12 5 14 11 9 21 -5 8 -16 11 -25 8 -15 -6 -21 4 -17 26 1 5 -4 5 -10 1
-9 -5 -10 -2 -6 12 7 19 7 19 -8 0 -8 -11 -12 -29 -9 -43 5 -16 2 -23 -9 -23
-8 0 -23 -3 -33 -7 -13 -5 -15 -3 -9 7 5 8 4 11 -3 6 -5 -3 -13 0 -15 6 -3 8
-6 9 -6 2 -2 -19 40 -65 51 -58 7 4 8 2 4 -4 -4 -8 5 -10 29 -8 37 3 59 -10
28 -16 -35 -8 -88 11 -110 39 -20 24 -29 68 -24 111 2 16 -1 15 -18 -5z m199
-123 c0 -5 -5 -10 -11 -10 -5 0 -7 5 -4 10 3 6 8 10 11 10 2 0 4 -4 4 -10z
m-45 -80 c-3 -5 -10 -10 -16 -10 -5 0 -9 5 -9 10 0 6 7 10 16 10 8 0 12 -4 9
-10z m-555 -25 c0 -2 -8 -9 -18 -14 -14 -7 -19 -6 -19 3 0 6 9 13 19 13 10 1
18 0 18 -2z m195 -85 c3 -5 1 -10 -4 -10 -6 0 -11 5 -11 10 0 6 2 10 4 10 3 0
8 -4 11 -10z m-345 -32 c0 -6 -6 -5 -15 2 -8 7 -15 14 -15 16 0 2 7 1 15 -2 8
-4 15 -11 15 -16z m40 -68 c0 -5 -4 -10 -10 -10 -5 0 -10 5 -10 10 0 6 5 10
10 10 6 0 10 -4 10 -10z m537 -22 c-3 -7 -5 -2 -5 12 0 14 2 19 5 13 2 -7 2
-19 0 -25z m-274 7 c-3 -9 -8 -14 -10 -11 -3 3 -2 9 2 15 9 16 15 13 8 -4z
m-26 -10 c0 -8 -4 -12 -9 -9 -5 3 -6 10 -3 15 9 13 12 11 12 -6z m-592 -25
c37 20 119 6 158 -26 39 -33 67 -77 67 -107 0 -18 2 -19 10 -7 8 12 10 11 10
-6 0 -12 -15 -44 -33 -70 -56 -81 -147 -115 -237 -88 -22 7 -23 6 -12 -9 8 -9
19 -14 26 -11 13 5 31 -24 21 -34 -3 -3 -5 0 -5 6 0 6 -7 9 -15 6 -8 -4 -15
-10 -15 -16 0 -5 4 -7 9 -3 5 3 12 1 16 -5 3 -5 2 -10 -3 -10 -5 0 -9 -7 -9
-15 0 -20 5 -19 33 8 13 12 24 30 24 40 0 9 5 17 11 17 6 0 8 -7 5 -16 -4 -10
-2 -13 6 -8 7 5 9 2 6 -7 -3 -8 -2 -23 3 -34 7 -19 8 -18 8 3 1 13 8 31 17 39
13 13 13 18 2 24 -9 6 -6 8 9 6 12 -2 26 -7 30 -12 5 -4 2 -5 -4 -1 -8 4 -13
2 -13 -5 0 -6 -8 -18 -17 -25 -16 -12 -16 -15 -3 -24 13 -9 13 -11 0 -20 -12
-8 -12 -10 -1 -10 8 0 4 -7 -10 -17 -38 -28 -72 -46 -64 -34 3 6 0 11 -9 11
-8 0 -16 -5 -18 -12 -7 -19 -182 43 -191 67 -2 6 5 18 15 28 15 14 20 15 24 4
3 -9 19 1 50 31 24 25 42 47 40 50 -3 2 -16 -8 -30 -23 -19 -20 -26 -23 -26
-12 0 9 5 19 11 23 6 3 9 15 6 25 -3 11 -1 17 4 13 5 -3 9 0 9 7 0 9 4 9 15
-1 8 -6 20 -8 26 -4 8 4 9 3 5 -4 -4 -7 -2 -12 3 -12 6 0 11 5 11 11 0 5 5 7
10 4 6 -4 9 -3 8 2 -1 4 5 20 15 34 9 14 21 46 25 70 l9 45 -57 58 c-48 48
-58 54 -64 40 -7 -19 15 -39 25 -23 6 11 24 -18 21 -33 -1 -5 4 -8 11 -8 8 0
21 -8 31 -18 15 -18 15 -20 -4 -37 -19 -18 -20 -17 -20 1 0 15 -2 16 -9 4 -6
-8 -7 -18 -4 -23 3 -5 -5 -19 -17 -32 l-23 -24 -17 22 c-23 30 -33 107 -20
156 12 46 26 54 58 33 19 -12 27 -13 47 -2z m372 5 c0 -8 -6 -16 -14 -19 -11
-4 -11 -1 -3 14 13 24 17 25 17 5z m12 -38 c8 -10 7 -14 -2 -14 -8 0 -14 6
-14 14 0 7 1 13 2 13 2 0 8 -6 14 -13z m121 -27 c0 -5 -4 -10 -10 -10 -5 0
-10 5 -10 10 0 6 5 10 10 10 6 0 10 -4 10 -10z m375 -30 c3 -6 -1 -7 -9 -4
-18 7 -21 14 -7 14 6 0 13 -4 16 -10z m-485 -120 c-12 -23 -16 -24 -26 -8 -4
6 -3 8 3 5 6 -4 13 0 17 8 3 8 8 15 11 15 3 0 1 -9 -5 -20z m-130 -25 c-8 -22
-7 -23 21 -15 22 7 29 5 29 -5 0 -23 -18 -27 -55 -14 -38 14 -41 20 -23 48 17
27 39 16 28 -14z m84 -20 c-9 -14 -17 -25 -18 -25 -2 0 1 40 3 48 1 1 8 2 16
2 14 0 13 -3 -1 -25z m63 -7 c-3 -8 -6 -5 -6 6 -1 11 2 17 5 13 3 -3 4 -12 1
-19z m43 -18 c0 -5 -7 -7 -15 -4 -8 4 -15 8 -15 10 0 2 7 4 15 4 8 0 15 -4 15
-10z m-576 -59 c3 -5 -1 -11 -9 -14 -9 -4 -12 -1 -8 9 6 16 10 17 17 5z m436
-14 c0 -2 -12 -14 -27 -28 l-28 -24 24 28 c23 25 31 32 31 24z m-200 -108 c13
-9 13 -10 -1 -6 -9 3 -22 0 -28 -6 -9 -9 -11 -8 -6 6 8 20 14 21 35 6z"/>
<path d="M9150 5160 c0 -5 5 -10 11 -10 5 0 7 5 4 10 -3 6 -8 10 -11 10 -2 0
-4 -4 -4 -10z"/>
<path d="M9184 5143 c4 -7 2 -13 -4 -13 -6 0 -8 -5 -4 -11 4 -8 9 -8 17 0 8 8
7 14 -2 24 -11 10 -13 10 -7 0z"/>
<path d="M9206 5115 c-3 -8 -1 -15 4 -15 6 0 10 7 10 15 0 8 -2 15 -4 15 -2 0
-6 -7 -10 -15z"/>
<path d="M9174 5053 c19 -23 37 -22 35 0 0 8 -2 8 -6 -1 -4 -10 -10 -9 -27 5
l-21 18 19 -22z"/>
<path d="M9086 4823 c-6 -14 -5 -15 5 -6 7 7 10 15 7 18 -3 3 -9 -2 -12 -12z"/>
<path d="M9147 4788 c6 -11 35 -10 53 2 10 6 4 9 -22 7 -20 -1 -34 -5 -31 -9z"/>
<path d="M9258 5483 c6 -2 18 -2 25 0 6 3 1 5 -13 5 -14 0 -19 -2 -12 -5z"/>
<path d="M8928 5440 c-11 -36 -10 -190 1 -190 16 0 35 99 23 123 -6 12 -13 38
-14 57 -3 32 -4 33 -10 10z"/>
<path d="M9506 5406 c6 -15 34 -30 34 -18 0 4 -9 13 -20 19 -16 11 -18 10 -14
-1z"/>
<path d="M9796 5403 c-8 -20 -3 -25 18 -17 20 8 21 20 2 27 -8 3 -17 -1 -20
-10z"/>
<path d="M9497 5335 c-10 -14 -13 -25 -7 -25 5 0 10 5 10 11 0 5 4 8 8 5 4 -2
9 4 9 15 2 24 2 24 -20 -6z"/>
<path d="M8596 5273 c6 -4 14 -15 17 -23 5 -11 6 -9 4 4 -1 11 -9 21 -17 23
-10 3 -11 2 -4 -4z"/>
<path d="M8637 5211 c3 -11 9 -21 14 -21 5 0 14 -12 19 -26 6 -14 15 -22 21
-19 7 5 0 19 -18 39 -15 17 -31 35 -35 40 -4 5 -4 -1 -1 -13z"/>
<path d="M8913 5035 c0 -8 4 -15 9 -15 4 0 8 4 8 9 0 6 -4 12 -8 15 -5 3 -9
-1 -9 -9z"/>
<path d="M9041 4978 c-11 -18 -10 -18 11 -7 31 16 31 16 15 22 -7 3 -19 -4
-26 -15z"/>
<path d="M9120 4980 c0 -5 5 -10 11 -10 5 0 7 5 4 10 -3 6 -8 10 -11 10 -2 0
-4 -4 -4 -10z"/>
<path d="M9051 4934 c0 -11 3 -14 6 -6 3 7 2 16 -1 19 -3 4 -6 -2 -5 -13z"/>
<path d="M8992 4910 c7 -11 17 -20 22 -20 5 0 1 9 -9 20 -10 11 -20 20 -22 20
-2 0 2 -9 9 -20z"/>
<path d="M10195 4600 c-33 -12 -48 -37 -41 -65 11 -44 75 -52 99 -13 24 37
-19 92 -58 78z m35 -50 c0 -24 -29 -38 -40 -20 -12 19 -1 40 21 40 12 0 19 -7
19 -20z"/>
<path d="M10278 4599 c-10 -7 -10 -11 0 -21 6 -6 12 -27 12 -45 0 -23 5 -33
15 -33 11 0 15 11 15 35 0 22 6 38 15 41 8 4 15 10 15 14 0 11 -57 18 -72 9z"/>
<path d="M9654 4585 c-8 -19 4 -35 24 -34 15 1 15 2 0 6 -29 7 -22 36 7 31 13
-3 22 -1 19 3 -9 14 -44 10 -50 -6z"/>
<path d="M9738 4594 c-6 -11 -2 -83 5 -90 9 -10 18 67 9 82 -5 9 -11 13 -14 8z"/>
<path d="M9887 4593 c-4 -3 3 -19 14 -34 l20 -29 -20 0 c-15 0 -21 7 -22 23
-1 21 -1 21 -9 -3 -4 -14 -8 -32 -9 -40 -1 -12 1 -13 8 -1 6 9 18 11 35 7 19
-5 26 -3 26 8 0 8 -4 18 -10 21 -5 3 -10 15 -10 25 0 20 -13 33 -23 23z"/>
<path d="M9983 4593 c35 -5 34 -38 -1 -37 -12 0 -22 -3 -22 -8 0 -20 2 -23 16
-20 8 2 17 -4 20 -13 3 -8 11 -15 17 -15 8 0 8 3 0 11 -8 8 -8 18 -1 35 15 33
4 54 -29 53 l-28 -2 28 -4z"/>
<path d="M10053 4588 c9 -7 18 -26 20 -43 3 -22 4 -20 3 7 -1 21 3 40 9 42 5
2 -3 5 -19 5 -26 1 -28 -1 -13 -11z"/>
<path d="M10117 4593 c-4 -3 -7 -26 -7 -50 0 -32 4 -43 15 -43 11 0 15 12 15
50 0 46 -7 60 -23 43z"/>
<path d="M9816 4582 c-3 -5 1 -26 9 -48 l14 -39 1 48 c0 42 -11 60 -24 39z"/>
<path d="M9801 4538 c-1 -21 -17 -24 -24 -5 -3 7 -6 6 -6 -5 -1 -9 3 -19 8
-22 12 -8 34 21 28 36 -4 8 -6 7 -6 -4z"/>
<path d="M9700 4525 c7 -9 15 -13 17 -11 7 7 -7 26 -19 26 -6 0 -6 -6 2 -15z"/>
<path d="M8540 4380 c-8 -5 -11 -73 -9 -216 2 -228 6 -284 21 -284 5 0 6 6 2
13 -5 8 -2 8 9 -2 12 -9 17 -10 17 -2 0 7 5 9 13 4 17 -11 37 -13 37 -3 0 5
18 -1 39 -13 22 -12 37 -26 34 -31 -4 -5 3 -7 14 -4 14 4 19 0 19 -15 -1 -11
4 -22 10 -24 9 -3 12 55 13 214 l2 218 59 60 c65 66 72 82 38 89 -35 7 -306 4
-318 -4z"/>
<path d="M9404 4375 c-4 -8 -7 -136 -8 -285 l-1 -269 43 -43 42 -44 0 -114 c0
-134 12 -190 40 -190 26 0 80 -48 73 -65 -3 -8 -1 -15 4 -15 10 0 13 -16 13
-59 0 -13 6 -31 12 -39 11 -13 10 -15 -4 -9 -12 4 -18 2 -18 -8 0 -7 6 -15 13
-18 6 -2 2 -2 -11 0 -14 2 -25 -2 -28 -12 -3 -8 -10 -13 -14 -10 -4 3 -13 -2
-20 -10 -7 -8 -17 -12 -24 -8 -6 3 -7 2 -3 -3 11 -12 56 -13 54 -1 -1 5 11 11
27 13 16 1 33 9 37 16 8 13 12 267 10 762 0 226 -1 240 -21 261 -16 17 -20 35
-20 93 l0 72 -95 0 c-76 0 -97 -3 -101 -15z m191 -1175 c3 -5 1 -10 -4 -10 -6
0 -11 5 -11 10 0 6 2 10 4 10 3 0 8 -4 11 -10z"/>
<path d="M10510 3316 c0 -2 8 -10 18 -17 15 -13 16 -12 3 4 -13 16 -21 21 -21
13z"/>
<path d="M10317 2994 c6 -17 5 -18 -13 -4 -18 14 -18 14 -1 -6 9 -11 14 -24
10 -29 -5 -4 -2 -5 5 -1 7 4 10 11 7 16 -3 4 0 10 6 12 7 2 5 9 -5 17 -14 12
-16 11 -9 -5z"/>
</g>
</svg>
