<svg width="65" height="65" viewBox="0 0 65 65" fill="none" xmlns="http://www.w3.org/2000/svg">
<path fill-rule="evenodd" clip-rule="evenodd" d="M47.7355 14.9813C48.2489 15.1132 48.741 15.3179 49.1967 15.5893L51.0257 14.2604L52.4892 15.729L51.1649 17.5644C51.4354 18.0218 51.6394 18.5155 51.7708 19.0307L53.9998 19.3887V21.4656L51.7709 21.8236C51.6395 22.3388 51.4355 22.8326 51.1649 23.2899L52.4892 25.1253L51.0257 26.5939L49.1967 25.265C48.741 25.5363 48.249 25.7411 47.7356 25.873L47.3788 28.1098H45.3091L44.9523 25.8731C44.4388 25.7412 43.9468 25.5365 43.491 25.265L41.6621 26.5939L40.1986 25.1253L41.5228 23.2899C41.2524 22.8325 41.0484 22.3388 40.9171 21.8236L38.688 21.4656V19.3887L40.9171 19.0306C41.0484 18.5154 41.2524 18.0216 41.5228 17.5643L40.1986 15.7289L41.6621 14.2603L43.4909 15.5891C43.9467 15.3177 44.4388 15.1129 44.9522 14.9811L45.309 12.7444H47.3787L47.7355 14.9813ZM25.1915 11.795H35.6843C35.9017 11.795 36.1102 11.8817 36.2639 12.036C36.4176 12.1902 36.504 12.3994 36.504 12.6176C36.504 12.8358 36.4176 13.045 36.2639 13.1993C36.1102 13.3535 35.9017 13.4402 35.6843 13.4402H25.1915C24.9741 13.4402 24.7656 13.3535 24.6119 13.1993C24.4581 13.045 24.3718 12.8358 24.3718 12.6176C24.3718 12.3994 24.4581 12.1902 24.6119 12.036C24.7656 11.8817 24.9741 11.795 25.1915 11.795ZM41.4913 28.7493L38.051 25.297L39.5169 23.2651L37.0486 22.8686V17.9862L39.5169 17.5896L38.0509 15.5577L41.4912 12.1053L43.5159 13.5764L43.7932 11.8379H40.8468C40.6294 11.8379 40.4209 11.7512 40.2672 11.597C40.1134 11.4427 40.0271 11.2335 40.0271 11.0153V7H20.1517V39.1211H44.8482V29.7553H43.9111L43.516 27.2783L41.4913 28.7493ZM35.3534 24.7633C35.5708 24.7633 35.7793 24.85 35.933 25.0042C36.0867 25.1585 36.1731 25.3677 36.1731 25.5859C36.1731 25.8041 36.0867 26.0133 35.933 26.1676C35.7793 26.3218 35.5708 26.4085 35.3534 26.4085H25.1915C24.9741 26.4085 24.7656 26.3218 24.6119 26.1676C24.4581 26.0133 24.3718 25.8041 24.3718 25.5859C24.3718 25.3677 24.4581 25.1585 24.6119 25.0042C24.7656 24.85 24.9741 24.7633 25.1915 24.7633H35.3534ZM35.3534 20.4405C35.5708 20.4405 35.7793 20.5271 35.933 20.6814C36.0867 20.8356 36.1731 21.0449 36.1731 21.263C36.1731 21.4812 36.0867 21.6904 35.933 21.8447C35.7793 21.999 35.5708 22.0856 35.3534 22.0856H25.1915C24.9741 22.0856 24.7656 21.999 24.6119 21.8447C24.4581 21.6904 24.3718 21.4812 24.3718 21.263C24.3718 21.0449 24.4581 20.8356 24.6119 20.6814C24.7656 20.5271 24.9741 20.4405 25.1915 20.4405H35.3534ZM25.1915 16.1178H35.6843C35.9017 16.1178 36.1102 16.2045 36.2639 16.3587C36.4176 16.513 36.504 16.7222 36.504 16.9404C36.504 17.1585 36.4176 17.3678 36.2639 17.522C36.1102 17.6763 35.9017 17.763 35.6843 17.763H25.1915C24.9741 17.763 24.7656 17.6763 24.6119 17.522C24.4581 17.3678 24.3718 17.1585 24.3718 16.9404C24.3718 16.7222 24.4581 16.513 24.6119 16.3587C24.7656 16.2045 24.9741 16.1178 25.1915 16.1178ZM25.1915 29.086H39.8084C40.0258 29.086 40.2343 29.1726 40.388 29.3269C40.5418 29.4812 40.6281 29.6904 40.6281 29.9086C40.6281 30.1267 40.5418 30.336 40.388 30.4902C40.2343 30.6445 40.0258 30.7311 39.8084 30.7311H25.1915C24.9741 30.7311 24.7656 30.6445 24.6119 30.4902C24.4581 30.336 24.3718 30.1267 24.3718 29.9086C24.3718 29.6904 24.4581 29.4812 24.6119 29.3269C24.7656 29.1726 24.9741 29.086 25.1915 29.086ZM24.3718 34.2313C24.3718 34.0132 24.4581 33.8039 24.6119 33.6497C24.7656 33.4954 24.9741 33.4087 25.1915 33.4087H39.8084C40.0258 33.4087 40.2343 33.4954 40.388 33.6497C40.5418 33.8039 40.6281 34.0132 40.6281 34.2313C40.6281 34.4495 40.5418 34.6587 40.388 34.813C40.2343 34.9672 40.0258 35.0539 39.8084 35.0539H25.1915C24.9741 35.0539 24.7656 34.9672 24.6119 34.813C24.4581 34.6587 24.3718 34.4495 24.3718 34.2313ZM25.7428 53.4795H20.7112C19.1607 53.4795 17.8922 54.4965 17.8922 55.7398V58H47.1078V55.7398C47.1078 54.4966 45.8393 53.4795 44.2888 53.4795H39.2572V48.2091H50.6943C52.5124 48.2091 54 46.7164 54 44.8919V25.9362L51.2357 28.7102V42.6212H13.7643V21.9876C13.7646 21.8657 13.813 21.7489 13.8989 21.6627C13.9848 21.5765 14.1012 21.5279 14.2227 21.5276H18.5122V18.7536H14.3057C12.4876 18.7536 11 20.2464 11 22.0709V44.8919C11 46.7164 12.4876 48.2091 14.3057 48.2091H25.7428V53.4795ZM41.6665 7.82258L44.0284 10.1927H41.6665V7.82258ZM46.3438 17.3584C44.6549 17.3584 43.2857 18.7325 43.2857 20.4273C43.2857 22.1222 44.6548 23.4961 46.3438 23.4961C48.0327 23.4961 49.402 22.1221 49.402 20.4273C49.402 18.7325 48.0327 17.3584 46.3438 17.3584Z" fill="#622DFA"/>
</svg>
