<svg width="65" height="65" viewBox="0 0 65 65" fill="none" xmlns="http://www.w3.org/2000/svg">
<g clip-path="url(#clip0_273_51)">
<path d="M64.5 9.78661C64.5 6.87238 62.1209 4.5 59.1985 4.5H5.80152C2.87907 4.5 0.5 6.87238 0.5 9.78661V55.228C0.5 58.1423 2.87907 60.5146 5.80152 60.5146H59.1985C62.1209 60.5146 64.5 58.1423 64.5 55.228V9.78661ZM5.80152 8.48326H59.1985C59.9181 8.48326 60.5055 9.06904 60.5055 9.78661V14.0481H4.49449V9.78661C4.49449 9.06904 5.08192 8.48326 5.80152 8.48326ZM59.1985 56.5167H5.80152C5.08192 56.5167 4.49449 55.931 4.49449 55.2134V17.0356H60.4908V55.2134C60.5055 55.931 59.9181 56.5167 59.1985 56.5167Z" fill="#622DFA"/>
<path d="M6.82903 13.0514C7.22554 13.0514 7.60737 12.8903 7.88639 12.6121C8.16542 12.3338 8.32696 11.9384 8.32696 11.5577C8.32696 11.1623 8.16542 10.7815 7.88639 10.5033C7.32834 9.94682 6.32972 9.94682 5.75698 10.5033C5.47795 10.7815 5.31641 11.1623 5.31641 11.5577C5.31641 11.9531 5.47795 12.3338 5.75698 12.6121C6.036 12.8903 6.43252 13.0514 6.82903 13.0514ZM11.69 13.0514C12.0865 13.0514 12.4683 12.8903 12.7473 12.6121C13.0264 12.3338 13.1879 11.9384 13.1879 11.5577C13.1879 11.1623 13.0264 10.7815 12.7473 10.5033C12.1893 9.94682 11.1907 9.94682 10.6326 10.5033C10.3536 10.7669 10.192 11.1623 10.192 11.5577C10.192 11.9531 10.3536 12.3338 10.6326 12.6121C10.9116 12.8903 11.3081 13.0514 11.69 13.0514ZM16.6831 13.0514C17.0796 13.0514 17.4614 12.8903 17.7405 12.6121C18.0195 12.3338 18.181 11.9384 18.181 11.5577C18.181 11.1623 18.0195 10.7669 17.7405 10.5033C17.1824 9.94682 16.1838 9.94682 15.6257 10.5033C15.3467 10.7669 15.1852 11.1623 15.1852 11.5577C15.1852 11.9531 15.3467 12.3338 15.6257 12.6121C15.9047 12.8903 16.2866 13.0514 16.6831 13.0514ZM32.5142 31.2836C31.9708 30.7272 30.9575 30.7272 30.3995 31.2836C30.1204 31.5619 29.9589 31.9573 29.9589 32.338C29.9589 32.7334 30.1204 33.1142 30.3995 33.3924C30.6785 33.6707 31.075 33.8318 31.4568 33.8318C31.8534 33.8318 32.2499 33.6707 32.5142 33.3924C32.7932 33.1142 32.9548 32.7188 32.9548 32.338C32.9548 31.9426 32.7932 31.5619 32.5142 31.2836ZM26.7281 44.3757C26.4637 44.6539 26.3022 45.0347 26.3022 45.4301C26.3022 45.8255 26.4637 46.2062 26.7281 46.4845C27.0218 46.7627 27.4036 46.9238 27.8001 46.9238C28.1966 46.9238 28.5785 46.7627 28.8575 46.4845C29.1365 46.2062 29.298 45.8108 29.298 45.4301C29.298 45.0347 29.1365 44.6539 28.8575 44.361C28.2994 43.8192 27.3008 43.8192 26.7281 44.3757ZM34.8786 44.7857C33.7772 44.7857 32.8813 45.679 32.8813 46.7774C32.8813 47.8757 33.7772 48.769 34.8786 48.769C35.98 48.769 36.8758 47.8757 36.8758 46.7774C36.8758 45.679 35.98 44.7857 34.8786 44.7857Z" fill="#622DFA"/>
<path d="M38.7563 36.5696V23.9755H39.1235C40.2249 23.9755 41.1207 23.0821 41.1207 21.9838C41.1207 20.8855 40.2249 19.9922 39.1235 19.9922H25.1427C24.0413 19.9922 23.1455 20.8855 23.1455 21.9838C23.1455 23.0821 24.0413 23.9755 25.1427 23.9755H25.5099V36.5696L17.888 47.6407C17.0069 48.9148 16.9188 50.5696 17.6384 51.9462C18.358 53.3227 19.7825 54.1721 21.3392 54.1721H42.927C44.4837 54.1721 45.8935 53.3227 46.6278 51.9462C47.3621 50.5696 47.2593 48.9294 46.3782 47.6407L38.7563 36.5696ZM43.0886 50.0863C43.0298 50.1888 42.9564 50.1888 42.927 50.1888H21.3245C21.2804 50.1888 21.207 50.1888 21.1629 50.0863C21.1042 49.9838 21.1482 49.9252 21.1776 49.896L29.1372 38.3123C29.3722 37.9755 29.4897 37.5947 29.4897 37.1847V23.9755H34.7618V37.1847C34.7618 37.5801 34.8793 37.9755 35.1143 38.3123L43.0739 49.896C43.1033 49.9252 43.1473 49.9838 43.0886 50.0863Z" fill="#622DFA"/>
</g>
<defs>
<clipPath id="clip0_273_51">
<rect width="64" height="56" fill="white" transform="translate(0.5 4.5)"/>
</clipPath>
</defs>
</svg>
