<svg width="65" height="65" viewBox="0 0 65 65" fill="none" xmlns="http://www.w3.org/2000/svg">
<path d="M38.5938 28.4375H34.5312V24.375C34.5312 23.8363 34.3172 23.3196 33.9363 22.9387C33.5554 22.5578 33.0387 22.3438 32.5 22.3438C31.9613 22.3438 31.4446 22.5578 31.0637 22.9387C30.6828 23.3196 30.4688 23.8363 30.4688 24.375V28.4375H26.4062C25.8675 28.4375 25.3509 28.6515 24.9699 29.0324C24.589 29.4134 24.375 29.93 24.375 30.4688C24.375 31.0075 24.589 31.5241 24.9699 31.9051C25.3509 32.286 25.8675 32.5 26.4062 32.5H30.4688V36.5625C30.4688 37.1012 30.6828 37.6179 31.0637 37.9988C31.4446 38.3797 31.9613 38.5938 32.5 38.5938C33.0387 38.5938 33.5554 38.3797 33.9363 37.9988C34.3172 37.6179 34.5312 37.1012 34.5312 36.5625V32.5H38.5938C39.1325 32.5 39.6491 32.286 40.0301 31.9051C40.411 31.5241 40.625 31.0075 40.625 30.4688C40.625 29.93 40.411 29.4134 40.0301 29.0324C39.6491 28.6515 39.1325 28.4375 38.5938 28.4375Z" fill="#622DFA"/>
<path d="M55.5749 13.5499C52.5975 10.5454 48.6703 8.6663 44.4626 8.23294C40.255 7.79958 36.0272 8.83874 32.4999 11.1733C28.9763 8.84936 24.7571 7.8163 20.5584 8.24949C16.3598 8.68269 12.4404 10.5554 9.46552 13.5499C6.64968 16.4146 4.8249 20.1056 4.25835 24.0823C3.69181 28.0591 4.41326 32.1128 6.31708 35.6499C7.0823 37.0125 8.04008 38.2576 9.16083 39.3468L22.3436 52.6514C23.6651 53.9811 25.2364 55.0363 26.9673 55.7563C28.6981 56.4764 30.5542 56.8471 32.4288 56.8471C34.3034 56.8471 36.1595 56.4764 37.8903 55.7563C39.6212 55.0363 41.1925 53.9811 42.514 52.6514L55.7983 39.2452C56.9055 38.1642 57.8559 36.9335 58.6218 35.5889C60.5495 32.0757 61.2942 28.0349 60.7454 24.0652C60.1966 20.0956 58.3835 16.4083 55.5749 13.5499ZM55.0671 33.6186C54.4827 34.636 53.7578 35.566 52.914 36.3811L39.6296 49.8077C38.6858 50.7566 37.5638 51.5095 36.328 52.0234C35.0922 52.5372 33.7671 52.8017 32.4288 52.8017C31.0905 52.8017 29.7654 52.5372 28.5296 52.0234C27.2938 51.5095 26.1718 50.7566 25.228 49.8077L12.0452 36.5639C11.1993 35.7203 10.4746 34.7633 9.89208 33.7202C8.39498 30.949 7.82582 27.7708 8.26819 24.6522C8.71056 21.5337 10.1412 18.6392 12.3499 16.3936C14.8019 13.9294 18.0717 12.4488 21.5412 12.2317C25.0107 12.0146 28.4396 13.0761 31.1796 15.2155C31.4768 15.434 31.8279 15.5674 32.1952 15.6014C32.4873 15.6652 32.7899 15.6636 33.0813 15.5969C33.3727 15.5302 33.6458 15.3999 33.8811 15.2155C36.6197 13.0818 40.0442 12.0237 43.5091 12.2407C46.9739 12.4577 50.2396 13.9349 52.6905 16.3936C54.8892 18.6257 56.3082 21.5082 56.7364 24.6119C57.1646 27.7156 56.5791 30.8746 55.0671 33.6186Z" fill="#622DFA"/>
</svg>
