<svg width="65" height="65" viewBox="0 0 65 65" fill="none" xmlns="http://www.w3.org/2000/svg">
<path d="M39 51H6V54H39V51Z" fill="#622DFA"/>
<path d="M37 49.0811C37 47.3784 35.7449 46 34.176 46H10.824C9.26338 46 8 47.3694 8 49.0811V50H37V49.0811Z" fill="#622DFA"/>
<path d="M28.001 32.8966L28.0093 32.9052L28.1762 33L31.9401 25.8142V25.8056H31.9485L33 23.7894L32.8247 23.6861H32.8081L21.0074 17.1034L20.8154 17L16 26.2019L22.0923 29.6053L28.001 32.8966Z" fill="#622DFA"/>
<path d="M57.8111 40.659L32.3227 26.618L30.1725 30.6743L55.6609 44.7153C56.1984 45.0189 56.7939 45.0779 57.381 44.9008C57.9682 44.7237 58.4479 44.3274 58.7208 43.7792C59.0102 43.2395 59.0764 42.6155 58.911 42.0167C58.7373 41.4348 58.3486 40.9542 57.8111 40.659ZM33.0257 22.4858C33.2573 22.6039 33.5384 22.6713 33.7948 22.6713C34.4233 22.6713 34.994 22.3256 35.2834 21.7774L36.2345 19.9981C36.6893 19.1548 36.3668 18.1006 35.5563 17.6537L23.8459 11.2024C23.6061 11.0759 23.3249 11 23.0355 11C22.4235 11 21.8363 11.3458 21.5468 11.9023L20.6123 13.6733C20.389 14.0865 20.3394 14.5587 20.4717 15.0057C20.6206 15.4442 20.8935 15.8068 21.2905 16.0261L33.0257 22.4858ZM24.5902 38.3399C24.8301 38.4833 25.1112 38.5507 25.3842 38.5507C26.0127 38.5507 26.5916 38.205 26.9058 37.64L27.8404 35.869C28.0471 35.4643 28.0967 34.992 27.9727 34.5535C27.8486 34.115 27.5509 33.7439 27.1457 33.5247L15.427 27.0734C15.1872 26.9384 14.9143 26.871 14.6413 26.871C14.0128 26.871 13.4422 27.2167 13.1362 27.7733L12.2017 29.5527C11.9866 29.9575 11.9453 30.4297 12.0693 30.8598C12.2017 31.3068 12.4911 31.6778 12.8964 31.8886L24.5902 38.3399Z" fill="#622DFA"/>
</svg>
