<?xml version="1.0" standalone="no"?>
<!DOCTYPE svg PUBLIC "-//W3C//DTD SVG 20010904//EN"
 "http://www.w3.org/TR/2001/REC-SVG-20010904/DTD/svg10.dtd">
<svg version="1.0" xmlns="http://www.w3.org/2000/svg"
 width="1920.000000pt" height="600.000000pt" viewBox="0 0 1920.000000 600.000000"
 preserveAspectRatio="xMidYMid meet">

<g transform="translate(0.000000,600.000000) scale(0.100000,-0.100000)"
fill="#000000" stroke="none">
<path d="M7770 5540 l0 -120 1605 0 1605 0 0 120 0 120 -1605 0 -1605 0 0
-120z m1607 -22 c-2 -18 -4 -4 -4 32 0 36 2 50 4 33 2 -18 2 -48 0 -65z m798
82 c3 -5 1 -10 -4 -10 -6 0 -11 5 -11 10 0 6 2 10 4 10 3 0 8 -4 11 -10z m65
1 c0 -5 -6 -12 -12 -14 -10 -4 -9 -8 2 -16 10 -7 11 -11 3 -11 -8 0 -13 -14
-13 -35 0 -19 -4 -35 -10 -35 -9 0 -15 54 -10 90 3 23 40 42 40 21z m440 -57
c0 -30 -4 -54 -10 -54 -6 0 -10 27 -10 61 0 37 4 58 10 54 6 -3 10 -31 10 -61z
m-2608 39 c22 -20 23 -56 2 -77 -23 -24 -70 -20 -88 6 -21 30 -20 44 4 68 24
24 57 26 82 3z m322 -5 c15 -25 -3 -52 -38 -56 -14 -2 -26 -10 -26 -18 0 -8
-4 -14 -10 -14 -11 0 -14 93 -3 104 13 13 66 1 77 -16z m266 -34 l0 -55 -36 3
c-65 5 -73 69 -10 76 14 2 26 10 26 18 0 8 5 14 10 14 6 0 10 -25 10 -56z
m398 40 c26 -18 29 -56 6 -78 -9 -9 -32 -16 -55 -16 l-39 0 0 48 c0 27 3 52 7
55 12 12 58 7 81 -9z m1032 -33 c0 -49 1 -50 33 -54 28 -3 26 -4 -10 -5 l-43
-2 0 55 c0 30 5 55 10 55 6 0 10 -22 10 -49z m377 33 c2 -7 -6 -10 -22 -7 -27
6 -55 -11 -55 -33 0 -24 32 -46 57 -39 16 4 22 2 18 -5 -9 -14 -58 -13 -73 2
-17 17 -15 64 4 83 18 18 65 17 71 -1z m-1571 -9 c9 -8 11 -15 5 -15 -19 0
-13 -58 7 -63 13 -4 12 -5 -5 -6 -22 -1 -29 12 -34 59 -4 42 3 49 27 25z
m1104 -8 c12 -4 11 -6 -2 -6 -12 -1 -18 -9 -18 -26 0 -13 8 -29 18 -34 15 -9
15 -10 -5 -11 -20 0 -23 5 -23 35 0 19 -5 35 -10 35 -6 0 -5 6 2 14 7 8 15 10
18 6 3 -4 12 -10 20 -13z m-1870 -33 c0 -28 3 -35 18 -32 11 2 18 14 20 36 5
46 22 40 22 -9 l0 -40 -37 3 c-36 3 -38 5 -41 41 -2 21 1 37 7 37 6 0 11 -16
11 -36z m118 25 c-11 -6 -18 -22 -18 -39 0 -17 -4 -30 -10 -30 -5 0 -10 18
-10 40 0 37 2 40 28 40 23 -1 24 -2 10 -11z m210 0 c-11 -6 -18 -22 -18 -39 0
-17 -4 -30 -10 -30 -5 0 -10 18 -10 40 0 37 2 40 28 40 23 -1 24 -2 10 -11z
m97 -29 c0 -33 -2 -35 -35 -35 -29 0 -36 4 -38 23 -6 40 5 54 40 50 30 -3 33
-6 33 -38z m147 8 c2 -21 8 -33 18 -33 10 0 16 12 18 33 5 46 22 40 22 -8 0
-39 -1 -40 -34 -40 -36 0 -46 12 -46 56 0 36 18 29 22 -8z m148 21 c0 -6 -8
-8 -19 -4 -26 8 -48 -20 -31 -40 7 -9 21 -13 31 -10 11 4 19 2 19 -5 0 -7 -13
-10 -32 -8 -26 2 -34 8 -36 26 -2 13 -1 30 2 38 6 16 66 19 66 3z m318 -16 c3
-20 -1 -23 -28 -23 -20 0 -29 -4 -24 -11 3 -6 17 -8 31 -4 16 4 22 2 18 -5
-16 -26 -75 -3 -75 30 0 43 72 55 78 13z m38 2 c8 -32 18 -32 33 1 6 15 14 24
17 21 7 -7 -23 -77 -34 -77 -4 0 -16 16 -25 35 -20 41 -20 45 -7 45 5 0 12
-11 16 -25z m132 13 c22 -22 13 -38 -19 -38 -19 0 -28 -4 -23 -11 3 -6 15 -9
25 -6 11 3 19 1 19 -5 0 -5 -15 -8 -32 -6 -26 2 -34 8 -36 26 -2 13 -1 30 2
38 7 17 47 19 64 2z m142 -8 c8 -14 8 -26 0 -40 -19 -35 -80 -20 -80 20 0 40
61 55 80 20z m104 -2 c15 -25 -3 -52 -38 -56 -14 -2 -26 -10 -26 -18 0 -8 -4
-14 -10 -14 -5 0 -10 25 -10 56 l0 55 36 -3 c22 -2 42 -10 48 -20z m156 1 c13
-23 13 -59 1 -59 -6 0 -11 15 -13 33 -4 43 -30 42 -45 -3 l-12 -35 0 32 c-1
17 -6 35 -11 38 -16 10 -38 -13 -43 -43 -3 -18 -4 -14 -6 15 l-1 42 60 -1 c48
-1 63 -5 70 -19z m98 -6 c3 -20 -1 -23 -28 -23 -20 0 -29 -4 -24 -11 3 -6 17
-8 31 -4 16 4 22 2 18 -5 -16 -26 -75 -3 -75 30 0 43 72 55 78 13z m99 -18 c2
-40 2 -40 -6 -7 -11 40 -16 46 -36 39 -9 -4 -15 -19 -15 -37 0 -16 -4 -30 -10
-30 -5 0 -10 18 -10 41 l0 40 38 -3 c36 -3 37 -4 39 -43z m230 -17 c-2 -13 -4
-3 -4 22 0 25 2 35 4 23 2 -13 2 -33 0 -45z m151 35 c3 -20 -1 -23 -28 -23
-20 0 -29 -4 -24 -11 3 -6 17 -8 31 -4 16 4 22 2 18 -5 -16 -26 -75 -3 -75 30
0 43 72 55 78 13z m188 2 c8 -32 18 -32 33 1 6 15 14 24 18 21 10 -11 -41
-102 -59 -105 -10 -2 -18 2 -18 8 0 6 5 8 10 5 18 -11 22 23 6 54 -19 35 -19
41 -6 41 5 0 12 -11 16 -25z m134 14 c0 -6 -8 -8 -19 -4 -10 3 -24 -1 -31 -10
-17 -20 5 -48 31 -40 11 4 19 2 19 -5 0 -7 -13 -10 -32 -8 -26 2 -34 8 -36 26
-2 13 -1 30 2 38 6 16 66 19 66 3z m130 -4 c17 -21 4 -35 -33 -35 -24 0 -28
-3 -17 -10 8 -5 23 -7 33 -4 9 3 17 1 17 -5 0 -20 -59 -12 -70 9 -23 44 38 84
70 45z"/>
<path d="M7997 5574 c-16 -17 -6 -55 18 -66 32 -14 57 5 53 41 -2 21 -9 27
-33 29 -17 2 -34 0 -38 -4z"/>
<path d="M8330 5560 c0 -17 5 -21 28 -18 16 2 27 9 27 18 0 9 -11 16 -27 18
-23 3 -28 -1 -28 -18z"/>
<path d="M8594 5546 c-9 -24 4 -48 23 -44 12 2 18 12 18 28 0 29 -32 41 -41
16z"/>
<path d="M8990 5541 c0 -36 3 -41 24 -41 30 0 49 22 44 52 -2 18 -10 24 -35
26 -32 3 -33 2 -33 -37z"/>
<path d="M8500 5544 c-11 -12 -10 -18 3 -32 16 -15 18 -15 34 0 13 14 14 20 3
32 -7 9 -16 16 -20 16 -4 0 -13 -7 -20 -16z"/>
<path d="M9115 5550 c-4 -6 5 -10 20 -10 15 0 24 4 20 10 -3 6 -12 10 -20 10
-8 0 -17 -4 -20 -10z"/>
<path d="M9295 5550 c-3 -5 3 -10 15 -10 12 0 18 5 15 10 -3 6 -10 10 -15 10
-5 0 -12 -4 -15 -10z"/>
<path d="M9424 5546 c-9 -24 4 -48 23 -44 12 2 18 12 18 28 0 29 -32 41 -41
16z"/>
<path d="M9524 5546 c-9 -24 4 -48 23 -44 12 2 18 12 18 28 0 29 -32 41 -41
16z"/>
<path d="M9785 5550 c-4 -6 5 -10 20 -10 15 0 24 4 20 10 -3 6 -12 10 -20 10
-8 0 -17 -4 -20 -10z"/>
<path d="M10265 5550 c-4 -6 5 -10 20 -10 15 0 24 4 20 10 -3 6 -12 10 -20 10
-8 0 -17 -4 -20 -10z"/>
<path d="M10715 5550 c-4 -6 5 -10 20 -10 15 0 24 4 20 10 -3 6 -12 10 -20 10
-8 0 -17 -4 -20 -10z"/>
<path d="M8540 5240 l0 -60 378 -2 c207 -2 554 -2 770 0 l392 2 0 60 0 60
-770 0 -770 0 0 -60z m888 -3 c-9 -31 -14 -35 -30 -26 -10 5 -18 19 -18 29 0
27 18 25 23 -2 3 -21 5 -20 17 10 16 43 22 36 8 -11z m-778 23 c0 -5 6 -10 14
-10 10 0 12 -7 8 -22 -5 -18 -7 -19 -10 -6 -3 18 -30 14 -44 -6 -4 -6 -8 4 -8
22 0 25 4 32 20 32 11 0 20 -4 20 -10z m126 -10 c8 0 14 -9 14 -20 0 -13 -7
-20 -20 -20 -16 0 -20 6 -19 33 0 17 3 26 6 20 2 -7 11 -13 19 -13z m31 -27
c-3 -10 -5 -2 -5 17 0 19 2 27 5 18 2 -10 2 -26 0 -35z m198 37 c-18 -7 -19
-8 -2 -15 25 -10 21 -35 -5 -34 -19 1 -19 2 -5 6 17 4 17 5 1 17 -20 15 -11
36 14 35 14 0 13 -2 -3 -9z m501 -22 c1 -22 -2 -26 -12 -17 -10 9 -14 9 -14 0
0 -6 -4 -11 -10 -11 -5 0 -10 14 -10 31 0 26 3 30 23 27 16 -2 22 -10 23 -30z
m-770 -17 c-9 -14 -33 -14 -41 -1 -4 6 -1 18 6 26 11 13 14 13 27 0 8 -8 11
-19 8 -25z m142 28 c7 4 26 6 42 3 23 -3 30 -9 29 -26 -1 -17 -2 -17 -6 -3 -5
21 -23 23 -23 2 0 -8 -4 -15 -10 -15 -5 0 -10 7 -10 15 0 21 -20 19 -21 -2 0
-11 -3 -13 -6 -5 -2 6 -14 12 -26 11 -21 0 -21 -1 -2 -9 18 -8 18 -9 2 -9 -10
-1 -20 6 -24 15 -7 19 17 37 32 24 6 -5 16 -5 23 -1z m167 -8 c-4 -15 0 -18
21 -18 23 0 25 1 9 9 -14 8 -15 12 -4 19 17 10 29 2 29 -22 0 -15 -7 -19 -35
-19 -31 0 -35 3 -35 25 0 14 5 25 11 25 6 0 8 -8 4 -19z m80 -1 c-4 -11 -2
-20 4 -20 6 0 11 6 11 14 0 17 27 29 35 15 4 -5 13 -6 22 0 9 4 31 5 49 1 19
-4 36 -4 39 1 7 10 35 0 35 -12 0 -5 -8 -9 -17 -9 -15 0 -16 -2 -3 -10 11 -8
9 -9 -12 -8 -16 1 -28 8 -28 15 0 7 -4 13 -10 13 -5 0 -10 -7 -10 -15 0 -8 -4
-15 -10 -15 -5 0 -10 7 -10 15 0 21 -20 19 -21 -2 0 -11 -3 -13 -6 -5 -2 6
-14 12 -26 11 -21 0 -21 -1 -2 -8 15 -7 11 -9 -17 -9 -33 0 -38 3 -38 24 0 13
5 24 11 24 6 0 8 -9 4 -20z m244 -13 c-1 -17 -2 -18 -6 -4 -2 9 -8 17 -13 17
-5 0 -11 -8 -13 -17 -4 -14 -5 -13 -6 4 -1 21 16 35 32 26 4 -2 6 -14 6 -26z
m219 22 c18 2 22 -2 22 -22 0 -20 -4 -24 -20 -20 -11 3 -20 9 -20 14 0 5 -10
9 -22 8 -22 0 -22 -1 -3 -9 18 -8 18 -9 2 -9 -10 -1 -20 6 -24 15 -7 18 15 36
32 26 5 -3 20 -5 33 -3z m200 0 c7 4 26 6 42 3 23 -3 30 -9 29 -26 -1 -17 -2
-17 -6 -3 -5 21 -23 23 -23 2 0 -8 -4 -15 -10 -15 -5 0 -10 7 -10 15 0 21 -20
19 -21 -2 0 -11 -3 -13 -6 -5 -2 6 -14 12 -26 11 -21 0 -21 -1 -2 -9 16 -7 17
-9 3 -9 -23 -1 -32 17 -18 35 9 9 17 11 24 5 6 -6 17 -6 24 -2z m171 -22 c-1
-17 -2 -18 -6 -4 -2 9 -8 17 -13 17 -5 0 -11 -8 -13 -17 -4 -14 -5 -13 -6 4
-1 21 16 35 32 26 4 -2 6 -14 6 -26z m34 8 c3 -16 0 -24 -7 -22 -14 4 -21 47
-8 47 5 0 12 -11 15 -25z m-353 0 c0 -21 18 -19 23 3 4 13 5 11 6 -5 1 -17 -5
-23 -19 -23 -11 0 -20 2 -20 4 0 2 -3 11 -6 20 -3 9 -1 16 5 16 6 0 11 -7 11
-15z m47 -17 c-3 -7 -5 -2 -5 12 0 14 2 19 5 13 2 -7 2 -19 0 -25z m26 12 c-3
-11 -7 -20 -9 -20 -2 0 -4 9 -4 20 0 11 4 20 9 20 5 0 7 -9 4 -20z m197 10 c0
-5 -8 -10 -17 -11 -15 0 -15 -2 2 -9 19 -8 19 -9 -2 -9 -17 -1 -23 5 -23 19 0
13 7 20 20 20 11 0 20 -4 20 -10z"/>
<path d="M8620 5250 c0 -5 5 -10 10 -10 6 0 10 5 10 10 0 6 -4 10 -10 10 -5 0
-10 -4 -10 -10z"/>
<path d="M8760 5230 c0 -5 5 -10 10 -10 6 0 10 5 10 10 0 6 -4 10 -10 10 -5 0
-10 -4 -10 -10z"/>
<path d="M9480 5250 c0 -5 5 -10 10 -10 6 0 10 5 10 10 0 6 -4 10 -10 10 -5 0
-10 -4 -10 -10z"/>
<path d="M8700 5230 c0 -5 7 -10 15 -10 8 0 15 5 15 10 0 6 -7 10 -15 10 -8 0
-15 -4 -15 -10z"/>
<path d="M9580 5230 c0 -5 5 -10 10 -10 6 0 10 5 10 10 0 6 -4 10 -10 10 -5 0
-10 -4 -10 -10z"/>
<path d="M9301 5054 c0 -11 3 -14 6 -6 3 7 2 16 -1 19 -3 4 -6 -2 -5 -13z"/>
<path d="M8640 4920 l0 -60 660 0 660 0 0 60 0 60 -660 0 -660 0 0 -60z m92
27 c7 -8 20 -12 30 -9 10 2 18 -1 18 -7 0 -6 -8 -11 -17 -12 -15 0 -15 -2 2
-9 14 -5 6 -7 -27 -6 -41 1 -48 4 -48 22 0 35 20 44 42 21z m284 -7 c8 0 14
-9 13 -22 -1 -17 -2 -19 -6 -5 -2 9 -8 17 -13 17 -5 0 -11 -8 -13 -17 -3 -10
-5 -2 -5 17 0 19 2 29 5 23 2 -7 11 -13 19 -13z m69 -17 c-20 -15 -20 -15 3
-8 13 4 22 2 22 -4 0 -6 -11 -11 -25 -11 -29 0 -28 0 -15 36 9 21 13 25 23 15
9 -10 8 -16 -8 -28z m93 24 c6 -7 25 -12 42 -11 16 1 30 -2 30 -8 0 -5 6 -6
13 -1 20 12 57 15 57 3 0 -5 -8 -10 -17 -11 -15 0 -15 -2 2 -9 16 -7 17 -9 3
-9 -9 -1 -22 7 -27 17 -10 16 -10 16 -11 0 0 -10 -4 -18 -10 -18 -5 0 -10 5
-10 10 0 6 -10 10 -22 10 -16 0 -19 -3 -10 -9 8 -5 -4 -8 -32 -9 -44 0 -46 1
-46 29 0 31 19 39 38 16z m159 -34 c-3 -10 -5 -2 -5 17 0 19 2 27 5 18 2 -10
2 -26 0 -35z m400 39 c7 -4 11 -16 11 -27 -3 -29 -48 -28 -48 1 0 32 13 41 37
26z m63 -27 c-11 -13 -10 -14 4 -9 9 3 16 1 16 -5 0 -12 -36 -15 -43 -3 -3 4
-1 18 4 31 7 18 13 21 21 13 8 -8 8 -15 -2 -27z m88 26 c21 -13 10 -46 -16
-49 -19 -3 -22 1 -22 27 0 31 13 39 38 22z m29 -43 c-2 -13 -4 -5 -4 17 -1 22
1 32 4 23 2 -10 2 -28 0 -40z m-272 12 c1 -11 -2 -20 -7 -20 -4 0 -8 8 -9 18
0 14 -2 14 -9 -3 -7 -17 -9 -17 -9 -2 -1 21 -21 23 -21 2 0 -8 -4 -15 -10 -15
-5 0 -10 5 -10 10 0 6 -8 10 -17 10 -15 0 -16 -2 -3 -10 13 -8 12 -10 -2 -10
-11 0 -18 8 -18 20 0 17 6 19 46 17 25 -2 48 1 51 6 7 12 16 0 18 -23z m42
-17 c-3 -10 -5 -2 -5 17 0 19 2 27 5 18 2 -10 2 -26 0 -35z m-870 17 c1 -11
-4 -20 -10 -20 -7 0 -13 9 -14 20 -1 11 4 20 10 20 7 0 13 -9 14 -20z m48 10
c3 -5 -2 -10 -12 -10 -15 0 -16 -2 -3 -10 13 -8 12 -10 -2 -10 -11 0 -18 8
-18 20 0 21 24 28 35 10z m45 -10 c0 -13 -7 -20 -20 -20 -11 0 -20 5 -20 11 0
6 7 8 16 5 14 -5 15 -4 4 9 -10 12 -10 15 4 15 9 0 16 -8 16 -20z m23 0 c-3
-11 -7 -20 -9 -20 -2 0 -4 9 -4 20 0 11 4 20 9 20 5 0 7 -9 4 -20z m37 10
c-13 -9 -13 -11 0 -20 13 -8 12 -10 -2 -10 -11 0 -18 8 -18 20 0 12 7 20 18
20 14 0 15 -2 2 -10z m420 -10 c0 -13 -7 -20 -20 -20 -13 0 -20 7 -20 20 0 13
7 20 20 20 13 0 20 -7 20 -20z m50 0 c0 -11 -6 -20 -14 -20 -8 0 -17 -6 -19
-12 -3 -7 -6 2 -6 20 -1 26 3 32 19 32 13 0 20 -7 20 -20z m79 -2 c-1 -17 -2
-19 -6 -5 -2 9 -9 17 -14 17 -5 0 -10 -8 -10 -17 -1 -17 -2 -17 -6 0 -2 9 -8
17 -13 17 -5 0 -11 -8 -13 -17 -4 -14 -5 -12 -6 5 -1 19 4 22 34 22 30 0 35
-3 34 -22z"/>
<path d="M8706 4941 c-4 -5 -2 -12 3 -15 5 -4 12 -2 15 3 4 5 2 12 -3 15 -5 4
-12 2 -15 -3z"/>
<path d="M9150 4930 c0 -11 7 -20 15 -20 8 0 15 6 15 14 0 8 -7 16 -15 20 -10
4 -15 -1 -15 -14z"/>
<path d="M9716 4941 c-4 -5 -2 -12 3 -15 5 -4 12 -2 15 3 4 5 2 12 -3 15 -5 4
-12 2 -15 -3z"/>
<path d="M9860 4930 c0 -11 7 -20 15 -20 8 0 15 6 15 14 0 8 -7 16 -15 20 -10
4 -15 -1 -15 -14z"/>
<path d="M9360 4920 c0 -5 5 -10 10 -10 6 0 10 5 10 10 0 6 -4 10 -10 10 -5 0
-10 -4 -10 -10z"/>
<path d="M9410 4920 c0 -5 5 -10 10 -10 6 0 10 5 10 10 0 6 -4 10 -10 10 -5 0
-10 -4 -10 -10z"/>
<path d="M10282 4735 c0 -16 2 -22 5 -12 2 9 2 23 0 30 -3 6 -5 -1 -5 -18z"/>
<path d="M10411 4724 c0 -11 3 -14 6 -6 3 7 2 16 -1 19 -3 4 -6 -2 -5 -13z"/>
<path d="M9300 4711 c0 -17 18 -21 24 -6 3 9 0 15 -9 15 -8 0 -15 -4 -15 -9z"/>
<path d="M8970 4565 l0 -65 355 0 355 0 0 65 0 65 -355 0 -355 0 0 -65z m236
23 c4 -7 3 -8 -4 -4 -7 4 -12 3 -12 -2 0 -15 28 -23 36 -11 3 6 15 9 25 6 11
-3 20 1 22 12 3 9 5 2 6 -14 1 -31 0 -31 -51 -32 -36 0 -47 2 -33 8 17 6 17 8
3 8 -18 1 -24 21 -11 34 9 9 11 9 19 -5z m221 -10 c48 0 53 -1 52 -21 -1 -17
-2 -18 -6 -4 -5 20 -23 23 -23 4 0 -8 -17 -13 -49 -14 -40 -2 -50 1 -54 17 -6
22 1 32 16 23 6 -4 35 -6 64 -5z m-117 -28 c5 0 11 8 13 18 3 12 5 11 6 -6 1
-17 -4 -23 -16 -20 -10 2 -18 10 -19 18 0 9 1 10 3 3 3 -7 8 -13 13 -13z"/>
<path d="M9230 4560 c0 -5 5 -10 10 -10 6 0 10 5 10 10 0 6 -4 10 -10 10 -5 0
-10 -4 -10 -10z"/>
<path d="M9400 4560 c0 -5 5 -10 10 -10 6 0 10 5 10 10 0 6 -4 10 -10 10 -5 0
-10 -4 -10 -10z"/>
<path d="M9306 4345 c4 -8 10 -12 15 -9 14 8 10 24 -6 24 -9 0 -12 -6 -9 -15z"/>
<path d="M10080 4230 l0 -60 180 0 180 0 0 60 0 60 -180 0 -180 0 0 -60z m138
8 c2 -9 -6 -22 -17 -28 -19 -10 -21 -8 -21 20 0 25 4 31 17 28 10 -2 19 -11
21 -20z m64 5 c10 -9 18 -11 18 -6 0 15 28 24 35 12 4 -5 1 -8 -6 -7 -20 5
-22 -30 -2 -35 14 -4 13 -5 -4 -6 -13 0 -23 4 -23 11 0 9 -3 9 -12 0 -30 -30
-74 1 -48 33 16 19 19 19 42 -2z"/>
<path d="M10190 4234 c0 -8 5 -12 10 -9 6 4 8 11 5 16 -9 14 -15 11 -15 -7z"/>
<path d="M10240 4224 c0 -9 7 -14 17 -12 25 5 28 28 4 28 -12 0 -21 -6 -21
-16z"/>
<path d="M8980 4220 l0 -60 355 0 355 0 0 30 0 30 170 0 c119 0 170 -3 170
-11 0 -8 5 -8 15 1 12 10 13 16 3 27 -8 10 -14 11 -16 4 -2 -7 -58 -11 -173
-11 l-169 0 0 25 0 25 -355 0 -355 0 0 -60z m265 26 c10 -7 27 -11 37 -8 10 2
18 -1 18 -7 0 -6 -8 -11 -17 -12 -16 0 -16 -1 1 -8 13 -5 2 -8 -32 -9 -48 -1
-52 1 -52 22 0 37 14 45 45 22z m95 -10 c0 -2 -7 -6 -15 -10 -8 -3 -15 -1 -15
4 0 6 7 10 15 10 8 0 15 -2 15 -4z m68 -23 c-3 -30 -38 -47 -38 -18 0 9 -4 13
-10 10 -5 -3 -10 2 -10 12 0 14 8 19 31 21 28 2 30 0 27 -25z m51 5 c-1 -17
-2 -19 -6 -5 -2 9 -8 17 -13 17 -5 0 -11 -8 -13 -17 -4 -14 -5 -12 -6 5 -1 16
5 22 19 22 14 0 20 -6 19 -22z m-119 -8 c0 -5 -7 -10 -16 -10 -8 0 -12 5 -9
10 3 6 10 10 16 10 5 0 9 -4 9 -10z"/>
<path d="M9213 4234 c-7 -19 2 -28 22 -21 19 8 19 23 0 31 -9 3 -18 -1 -22
-10z"/>
<path d="M9380 4220 c0 -5 5 -10 10 -10 6 0 10 5 10 10 0 6 -4 10 -10 10 -5 0
-10 -4 -10 -10z"/>
<path d="M9306 4015 c5 -13 -53 -15 -467 -18 -261 -1 -31 -2 511 -2 542 0 757
1 478 2 -442 3 -508 5 -508 18 0 8 -4 15 -10 15 -5 0 -7 -7 -4 -15z"/>
<path d="M10320 3814 c0 -8 5 -12 10 -9 6 4 8 11 5 16 -9 14 -15 11 -15 -7z"/>
<path d="M8360 3810 c0 -5 5 -10 10 -10 6 0 10 5 10 10 0 6 -4 10 -10 10 -5 0
-10 -4 -10 -10z"/>
<path d="M8020 3660 l0 -60 355 0 355 0 0 60 0 60 -355 0 -355 0 0 -60z m160
-20 c0 -3 -11 -5 -25 -5 -14 0 -25 1 -25 2 0 1 5 14 12 28 l12 26 13 -23 c7
-13 12 -25 13 -28z m106 30 c8 0 14 -9 13 -22 -1 -17 -2 -19 -6 -5 -2 9 -8 17
-13 17 -5 0 -11 -8 -13 -17 -3 -10 -5 -2 -5 17 0 19 2 29 5 23 2 -7 11 -13 19
-13z m331 -27 c-3 -10 -5 -2 -5 17 0 19 2 27 5 18 2 -10 2 -26 0 -35z m-274
12 c-3 -8 0 -15 6 -15 6 0 11 7 11 15 0 8 9 15 20 15 25 0 27 -20 3 -21 -16 0
-15 -2 2 -9 16 -8 13 -9 -15 -7 -28 2 -36 6 -38 26 -2 14 0 21 7 17 5 -4 8
-13 4 -21z m120 0 c-3 -8 0 -15 6 -15 6 0 12 8 12 18 1 16 2 16 6 0 2 -10 8
-18 13 -18 5 0 11 8 13 18 4 13 5 12 6 -5 1 -18 -4 -22 -30 -21 -17 1 -33 7
-36 15 -6 15 -33 18 -33 4 0 -5 6 -12 13 -14 7 -3 5 -6 -5 -6 -27 -1 -23 37 5
41 29 5 37 1 30 -17z m-260 -5 c-3 -11 -7 -20 -9 -20 -2 0 -4 9 -4 20 0 11 4
20 9 20 5 0 7 -9 4 -20z m37 10 c-13 -9 -13 -11 0 -20 13 -8 13 -10 -2 -10 -9
0 -20 5 -23 10 -9 14 3 30 23 30 15 0 15 -2 2 -10z m77 -22 c-3 -7 -5 -2 -5
12 0 14 2 19 5 13 2 -7 2 -19 0 -25z m237 24 c-6 -4 -14 -14 -17 -22 -4 -10
-6 -8 -6 8 -1 15 5 22 17 22 10 0 13 -3 6 -8z m46 -12 c0 -13 -7 -20 -20 -20
-11 0 -20 5 -20 11 0 6 7 8 16 5 14 -5 15 -4 4 9 -10 12 -10 15 4 15 9 0 16
-8 16 -20z"/>
<path d="M9970 3660 l0 -60 355 0 355 0 0 60 0 60 -355 0 -355 0 0 -60z m220
-13 c0 -27 -83 -20 -88 7 -5 27 14 34 53 22 23 -7 35 -17 35 -29z m370 8 c0
-21 -5 -25 -30 -25 -16 0 -30 4 -30 10 0 5 8 7 18 3 14 -5 14 -3 -3 11 -20 17
-20 17 3 13 12 -3 22 -1 22 4 0 5 5 9 10 9 6 0 10 -11 10 -25z m-291 -7 c-1
-17 -2 -19 -6 -5 -2 9 -9 17 -14 17 -5 0 -10 -8 -10 -17 -1 -17 -2 -17 -6 0
-2 9 -8 17 -13 17 -5 0 -11 -8 -13 -17 -4 -14 -5 -12 -6 5 -1 19 4 22 34 22
30 0 35 -3 34 -22z m80 0 c-1 -17 -2 -19 -6 -5 -2 9 -9 17 -14 17 -5 0 -10 -8
-10 -17 -1 -17 -2 -17 -6 0 -2 9 -8 17 -13 17 -5 0 -11 -8 -13 -17 -4 -14 -5
-12 -6 5 -1 19 4 22 34 22 30 0 35 -3 34 -22z m51 12 c0 -5 -8 -10 -17 -11
-15 0 -15 -2 2 -9 19 -8 19 -9 -2 -9 -17 -1 -23 5 -23 19 0 13 7 20 20 20 11
0 20 -4 20 -10z m23 -10 c-3 -11 -7 -20 -9 -20 -2 0 -4 9 -4 20 0 11 4 20 9
20 5 0 7 -9 4 -20z m37 10 c-13 -9 -13 -11 0 -20 13 -8 13 -10 -2 -10 -20 0
-32 16 -23 30 3 6 14 10 23 10 15 0 15 -2 2 -10z m27 -22 c-3 -7 -5 -2 -5 12
0 14 2 19 5 13 2 -7 2 -19 0 -25z"/>
<path d="M10116 3673 c-13 -14 -5 -33 14 -33 11 0 20 6 20 14 0 15 -24 28 -34
19z"/>
<path d="M10160 3650 c0 -5 5 -10 10 -10 6 0 10 5 10 10 0 6 -4 10 -10 10 -5
0 -10 -4 -10 -10z"/>
<path d="M8418 3393 c29 -2 74 -2 100 0 26 2 2 3 -53 3 -55 0 -76 -1 -47 -3z"/>
<path d="M9310 3302 c-3 -57 -2 -106 2 -108 12 -8 13 9 8 111 l-5 100 -5 -103z"/>
<path d="M10282 3105 c0 -16 2 -22 5 -12 2 9 2 23 0 30 -3 6 -5 -1 -5 -18z"/>
<path d="M10542 3105 c0 -16 2 -22 5 -12 2 9 2 23 0 30 -3 6 -5 -1 -5 -18z"/>
<path d="M8970 3040 l0 -60 355 0 355 0 0 60 0 60 -355 0 -355 0 0 -60z m138
31 c21 -13 10 -46 -16 -49 -19 -3 -22 1 -22 27 0 31 13 39 38 22z m177 -21 c3
-11 11 -20 16 -20 13 0 11 18 -3 23 -7 2 24 4 70 5 79 1 82 0 81 -21 -1 -17
-2 -18 -6 -4 -2 9 -9 17 -14 17 -5 0 -10 -8 -10 -17 -1 -17 -2 -17 -6 0 -5 20
-23 23 -23 4 0 -7 -10 -13 -22 -14 -11 -1 -25 -8 -29 -15 -7 -10 -9 -9 -9 3 0
11 -9 15 -35 13 -19 -2 -35 1 -35 6 0 6 -8 10 -17 10 -15 0 -16 -2 -3 -10 11
-7 6 -9 -20 -6 -19 2 -36 8 -38 14 -1 5 -12 7 -23 5 -16 -5 -18 -8 -7 -14 10
-7 9 -9 -4 -9 -11 0 -18 8 -18 20 0 16 6 20 23 18 12 -2 28 -7 35 -11 6 -5 12
-4 12 1 0 6 14 9 30 8 17 -1 30 1 30 6 0 16 19 7 25 -12z m290 -10 c1 -11 -2
-20 -7 -20 -4 0 -8 12 -8 27 0 30 13 24 15 -7z m-75 10 c0 -5 -8 -10 -17 -11
-15 0 -15 -2 2 -9 19 -8 19 -9 -2 -9 -17 -1 -23 5 -23 19 0 13 7 20 20 20 11
0 20 -4 20 -10z m49 -12 c-1 -17 -2 -19 -6 -5 -2 9 -8 17 -13 17 -5 0 -11 -8
-13 -17 -4 -14 -5 -12 -6 5 -1 16 5 22 19 22 14 0 20 -6 19 -22z"/>
<path d="M9080 3050 c0 -11 7 -20 15 -20 8 0 15 6 15 14 0 8 -7 16 -15 20 -10
4 -15 -1 -15 -14z"/>
<path d="M9340 3040 c0 -5 7 -10 15 -10 8 0 15 5 15 10 0 6 -7 10 -15 10 -8 0
-15 -4 -15 -10z"/>
<path d="M9306 2835 c4 -8 8 -15 10 -15 2 0 4 7 4 15 0 8 -4 15 -10 15 -5 0
-7 -7 -4 -15z"/>
<path d="M8970 2680 l0 -60 168 -2 c92 -2 251 -2 355 0 l187 3 0 59 0 60 -355
0 -355 0 0 -60z m171 20 c25 -14 89 -19 89 -8 0 5 4 7 10 3 5 -3 7 -12 3 -20
-3 -8 -1 -15 5 -15 5 0 13 7 16 16 4 10 14 14 26 11 11 -3 20 -1 20 3 0 4 9 6
20 3 11 -3 20 -9 20 -14 0 -5 -7 -6 -15 -3 -8 4 -15 2 -15 -4 0 -6 6 -12 12
-14 7 -3 -22 -4 -65 -4 -58 1 -80 5 -87 16 -8 13 -10 12 -10 -2 0 -20 -16 -24
-22 -7 -3 9 -10 9 -26 0 -20 -11 -22 -9 -22 12 0 37 10 43 41 27z m407 -39
c-3 -29 -38 -44 -38 -16 0 9 -4 13 -10 10 -5 -3 -10 1 -10 9 0 9 -4 16 -10 16
-5 0 -10 -7 -10 -15 0 -10 -9 -15 -27 -14 -16 1 -36 -2 -45 -6 -14 -6 -18 -2
-19 16 0 24 0 24 -9 3 -11 -27 -33 -43 -23 -17 13 38 23 42 114 41 l90 -1 -3
-26z"/>
<path d="M9116 2691 c-4 -5 -2 -12 3 -15 5 -4 12 -2 15 3 4 5 2 12 -3 15 -5 4
-12 2 -15 -3z"/>
<path d="M9190 2670 c0 -5 5 -10 10 -10 6 0 10 5 10 10 0 6 -4 10 -10 10 -5 0
-10 -4 -10 -10z"/>
<path d="M9270 2670 c0 -5 5 -10 10 -10 6 0 10 5 10 10 0 6 -4 10 -10 10 -5 0
-10 -4 -10 -10z"/>
<path d="M9400 2670 c0 -5 5 -10 10 -10 6 0 10 5 10 10 0 6 -4 10 -10 10 -5 0
-10 -4 -10 -10z"/>
<path d="M9520 2670 c0 -5 5 -10 10 -10 6 0 10 5 10 10 0 6 -4 10 -10 10 -5 0
-10 -4 -10 -10z"/>
<path d="M10070 2680 l0 -60 275 0 275 0 0 60 0 60 -275 0 -275 0 0 -60z m88
18 c2 -9 -6 -22 -17 -28 -19 -10 -21 -8 -21 20 0 25 4 31 17 28 10 -2 19 -11
21 -20z m107 -18 c1 -11 -2 -20 -7 -20 -4 0 -8 12 -8 27 0 30 13 24 15 -7z
m105 7 c0 -7 4 -7 12 1 20 20 58 15 58 -8 0 -11 -6 -20 -14 -20 -8 0 -17 -6
-19 -12 -3 -7 -6 1 -7 17 l-1 30 -15 -27 c-8 -16 -20 -28 -27 -28 -9 0 -9 2 1
8 14 9 6 42 -10 42 -6 0 -8 -7 -4 -15 3 -8 1 -15 -4 -15 -6 0 -10 11 -10 24 0
19 4 23 20 19 11 -3 20 -10 20 -16z m-130 -7 c0 -13 -7 -20 -20 -20 -11 0 -20
7 -20 15 0 21 -18 19 -23 -2 -4 -14 -5 -12 -6 5 -1 19 4 22 34 22 28 0 35 -4
35 -20z m80 0 c0 -13 -7 -20 -20 -20 -13 0 -20 7 -20 20 0 13 7 20 20 20 13 0
20 -7 20 -20z m137 -12 c-3 -7 -5 -2 -5 12 0 14 2 19 5 13 2 -7 2 -19 0 -25z
m52 10 c-1 -17 -2 -19 -6 -5 -2 9 -8 17 -13 17 -5 0 -11 -8 -13 -17 -4 -14 -5
-12 -6 5 -1 16 5 22 19 22 14 0 20 -6 19 -22z m59 -5 c-2 -19 -9 -29 -23 -30
-11 -2 -14 0 -7 3 10 5 9 9 -4 18 -21 16 -11 36 17 36 16 0 20 -6 17 -27z"/>
<path d="M10130 2694 c0 -8 5 -12 10 -9 6 4 8 11 5 16 -9 14 -15 11 -15 -7z"/>
<path d="M10410 2680 c0 -5 5 -10 10 -10 6 0 10 5 10 10 0 6 -4 10 -10 10 -5
0 -10 -4 -10 -10z"/>
<path d="M10210 2680 c0 -5 5 -10 10 -10 6 0 10 5 10 10 0 6 -4 10 -10 10 -5
0 -10 -4 -10 -10z"/>
<path d="M10290 2680 c0 -5 5 -10 10 -10 6 0 10 5 10 10 0 6 -4 10 -10 10 -5
0 -10 -4 -10 -10z"/>
<path d="M10530 2680 c0 -5 4 -10 9 -10 6 0 13 5 16 10 3 6 -1 10 -9 10 -9 0
-16 -4 -16 -10z"/>
<path d="M10010 2680 c0 -19 3 -21 12 -12 9 9 9 15 0 24 -9 9 -12 7 -12 -12z"/>
<path d="M8632 2503 l-2 -193 130 0 c72 0 132 0 135 0 3 0 4 3 3 6 -2 3 -60 5
-130 5 l-128 -2 -3 188 -2 188 -3 -192z"/>
<path d="M9310 2468 c0 -5 233 -7 518 -6 284 2 434 4 332 5 -476 7 -850 7
-850 1z"/>
<path d="M8970 2310 l0 -60 355 0 355 0 0 60 0 60 -355 0 -355 0 0 -60z m268
-1 c-2 -32 -18 -37 -42 -13 -20 19 -20 19 -1 38 23 22 46 9 43 -25z m77 17
c17 36 19 28 4 -15 -9 -25 -14 -29 -25 -20 -8 6 -21 9 -29 5 -18 -7 -18 -4 -3
29 l12 26 14 -27 15 -28 12 30z m83 12 c8 -8 15 -8 27 2 12 10 19 10 27 2 9
-9 7 -12 -10 -12 -29 0 -28 -18 1 -31 19 -8 17 -9 -11 -4 -20 3 -31 1 -27 -5
8 -13 -11 -13 -36 0 -22 12 -25 30 -7 48 15 15 21 15 36 0z"/>
<path d="M9206 2333 c-12 -12 -6 -33 9 -33 8 0 15 6 15 14 0 17 -14 28 -24 19z"/>
<path d="M9360 2314 c0 -9 7 -14 17 -12 25 5 28 28 4 28 -12 0 -21 -6 -21 -16z"/>
<path d="M9306 2125 c4 -8 8 -15 10 -15 2 0 4 7 4 15 0 8 -4 15 -10 15 -5 0
-7 -7 -4 -15z"/>
<path d="M8970 1970 l0 -60 355 0 355 0 0 60 0 60 -355 0 -355 0 0 -60z m165
20 c4 -6 1 -9 -6 -8 -20 5 -22 -30 -2 -35 15 -4 14 -5 -3 -6 -28 -1 -38 24
-18 44 18 18 21 18 29 5z m165 0 c-16 -10 -5 -13 45 -12 17 1 17 0 3 -4 -10
-3 -18 -9 -18 -14 0 -5 8 -10 18 -13 9 -2 2 -4 -15 -4 -23 0 -33 5 -34 16 0
12 -3 11 -9 -4 -8 -18 -9 -18 -9 6 -1 28 6 39 23 39 6 0 4 -5 -4 -10z m-55
-30 c1 -11 -2 -20 -7 -20 -4 0 -8 7 -8 15 0 21 -18 19 -23 -2 -4 -14 -5 -13
-6 4 -1 13 6 23 17 25 22 5 25 2 27 -22z m178 5 c-3 -8 0 -15 5 -15 6 0 13 8
15 18 3 12 5 11 6 -6 1 -32 -33 -25 -37 7 -2 14 0 21 7 17 5 -4 8 -13 4 -21z
m-233 5 c0 -5 -8 -10 -17 -11 -15 0 -15 -2 2 -9 19 -8 19 -9 -2 -9 -17 -1 -23
5 -23 19 0 13 7 20 20 20 11 0 20 -4 20 -10z m77 -22 c-3 -7 -5 -2 -5 12 0 14
2 19 5 13 2 -7 2 -19 0 -25z m133 12 c0 -11 -7 -20 -15 -20 -8 0 -15 5 -15 11
0 5 6 7 13 3 8 -5 8 -2 -2 9 -12 15 -11 17 3 17 9 0 16 -8 16 -20z m149 -3
c-1 -17 -2 -18 -6 -4 -5 20 -23 23 -23 4 0 -15 -46 -21 -55 -7 -11 18 4 28 45
28 35 1 40 -2 39 -21z"/>
<path d="M9470 1960 c0 -5 5 -10 10 -10 6 0 10 5 10 10 0 6 -4 10 -10 10 -5 0
-10 -4 -10 -10z"/>
<path d="M9310 1759 c0 -5 5 -7 10 -4 6 3 10 8 10 11 0 2 -4 4 -10 4 -5 0 -10
-5 -10 -11z"/>
<path d="M8840 1600 l0 -60 490 0 490 0 0 60 0 60 -490 0 -490 0 0 -60z m94
34 c24 -9 19 -29 -9 -42 -23 -11 -25 -9 -25 12 0 33 8 40 34 30z m146 -24 c0
-28 -1 -29 -47 -27 -35 1 -48 6 -48 17 0 11 12 15 40 16 21 1 41 6 43 13 7 20
12 12 12 -19z m309 16 c7 -8 21 -12 31 -9 11 3 20 0 20 -6 0 -6 -8 -11 -17
-12 -15 0 -15 -2 2 -9 14 -6 6 -8 -27 -6 -41 1 -48 4 -48 22 0 35 19 44 39 20z
m182 -15 c7 11 9 11 9 1 0 -20 -19 -52 -32 -52 -7 0 -7 4 0 13 7 8 7 18 2 27
-8 13 -10 12 -10 -2 0 -13 -10 -16 -45 -16 -25 0 -45 4 -45 9 0 6 6 7 13 3 9
-6 9 -4 -1 8 -11 14 -8 16 24 15 22 -1 39 4 42 12 3 8 9 5 19 -9 12 -17 17
-19 24 -9z m-376 -11 c1 -11 -2 -20 -7 -20 -4 0 -8 12 -8 27 0 30 13 24 15 -7z
m436 -10 c5 0 14 10 19 23 10 22 10 22 7 -3 -1 -17 -9 -26 -24 -28 -20 -3 -23
1 -22 25 2 23 2 24 6 6 2 -13 9 -23 14 -23z m124 10 c1 -11 -2 -20 -7 -20 -4
0 -8 12 -8 27 0 30 13 24 15 -7z m-782 0 c-3 -11 -7 -20 -9 -20 -2 0 -4 9 -4
20 0 11 4 20 9 20 5 0 7 -9 4 -20z m138 -10 c5 0 9 6 9 13 0 7 12 14 28 15 21
1 24 0 12 -8 -12 -8 -13 -11 -1 -19 9 -6 0 -9 -28 -9 -36 -1 -41 2 -40 21 1
17 2 18 6 5 2 -10 9 -18 14 -18z m106 -2 c-3 -7 -5 -2 -5 12 0 14 2 19 5 13 2
-7 2 -19 0 -25z m53 12 c0 -13 -7 -20 -20 -20 -13 0 -20 7 -20 20 0 13 7 20
20 20 13 0 20 -7 20 -20z m49 -2 c-1 -17 -2 -19 -6 -5 -2 9 -8 17 -13 17 -5 0
-11 -8 -13 -17 -4 -14 -5 -12 -6 5 -1 16 5 22 19 22 14 0 20 -6 19 -22z m390
0 c-1 -17 -2 -19 -6 -5 -2 9 -8 17 -13 17 -5 0 -11 -8 -13 -17 -4 -14 -5 -12
-6 5 -1 16 5 22 19 22 14 0 20 -6 19 -22z m18 -10 c-3 -7 -5 -2 -5 12 0 14 2
19 5 13 2 -7 2 -19 0 -25z"/>
<path d="M8916 1621 c-4 -5 -2 -12 3 -15 5 -4 12 -2 15 3 4 5 2 12 -3 15 -5 4
-12 2 -15 -3z"/>
<path d="M9000 1600 c0 -5 5 -10 10 -10 6 0 10 5 10 10 0 6 -4 10 -10 10 -5 0
-10 -4 -10 -10z"/>
<path d="M9040 1600 c0 -5 5 -10 10 -10 6 0 10 5 10 10 0 6 -4 10 -10 10 -5 0
-10 -4 -10 -10z"/>
<path d="M9360 1614 c0 -10 6 -14 15 -10 8 3 15 0 15 -6 0 -6 3 -8 6 -5 8 8
-14 37 -27 37 -5 0 -9 -7 -9 -16z"/>
<path d="M9500 1600 c0 -5 5 -10 10 -10 6 0 10 5 10 10 0 6 -4 10 -10 10 -5 0
-10 -4 -10 -10z"/>
<path d="M9240 1600 c0 -5 5 -10 10 -10 6 0 10 5 10 10 0 6 -4 10 -10 10 -5 0
-10 -4 -10 -10z"/>
<path d="M9310 1400 c0 -5 5 -10 10 -10 6 0 10 5 10 10 0 6 -4 10 -10 10 -5 0
-10 -4 -10 -10z"/>
<path d="M8950 1240 l0 -60 385 0 385 0 0 60 0 60 -385 0 -385 0 0 -60z m314
24 c24 -9 19 -29 -9 -42 -23 -11 -25 -9 -25 12 0 33 8 40 34 30z m146 -24 c0
-28 -1 -29 -47 -27 -35 1 -48 6 -48 17 0 11 12 15 40 16 21 1 41 6 43 13 7 20
12 12 12 -19z m-371 13 c0 -5 -4 -17 -9 -28 -8 -18 -9 -17 -9 8 -1 15 4 27 9
27 6 0 10 -3 9 -7z m41 -20 c-1 -24 -2 -26 -11 -10 -5 9 -7 22 -4 27 10 17 15
11 15 -17z m445 -3 c1 -11 -2 -20 -7 -20 -4 0 -8 12 -8 27 0 30 13 24 15 -7z
m-330 9 c-4 -5 -14 -7 -23 -5 -10 3 -24 1 -32 -4 -10 -6 -1 -8 28 -5 23 2 42
-1 42 -6 0 -5 -27 -9 -60 -9 -37 0 -60 4 -60 11 0 6 7 8 16 5 14 -5 15 -4 5 7
-9 12 -3 15 39 16 33 0 49 -3 45 -10z m108 -9 c-3 -11 -7 -20 -9 -20 -2 0 -4
9 -4 20 0 11 4 20 9 20 5 0 7 -9 4 -20z m138 -10 c5 0 9 6 9 13 0 7 12 14 28
15 21 1 24 0 12 -8 -12 -8 -13 -11 -1 -19 9 -6 0 -9 -28 -9 -36 -1 -41 2 -40
21 1 17 2 18 6 5 2 -10 9 -18 14 -18z m106 -2 c-3 -7 -5 -2 -5 12 0 14 2 19 5
13 2 -7 2 -19 0 -25z m53 12 c0 -13 -7 -20 -20 -20 -13 0 -20 7 -20 20 0 13 7
20 20 20 13 0 20 -7 20 -20z m49 -2 c-1 -17 -2 -19 -6 -5 -2 9 -8 17 -13 17
-5 0 -11 -8 -13 -17 -4 -14 -5 -12 -6 5 -1 16 5 22 19 22 14 0 20 -6 19 -22z
m-594 2 c3 -5 1 -10 -4 -10 -6 0 -11 5 -11 10 0 6 2 10 4 10 3 0 8 -4 11 -10z"/>
<path d="M9246 1251 c-4 -5 -2 -12 3 -15 5 -4 12 -2 15 3 4 5 2 12 -3 15 -5 4
-12 2 -15 -3z"/>
<path d="M9330 1230 c0 -5 5 -10 10 -10 6 0 10 5 10 10 0 6 -4 10 -10 10 -5 0
-10 -4 -10 -10z"/>
<path d="M9370 1230 c0 -5 5 -10 10 -10 6 0 10 5 10 10 0 6 -4 10 -10 10 -5 0
-10 -4 -10 -10z"/>
<path d="M9570 1230 c0 -5 5 -10 10 -10 6 0 10 5 10 10 0 6 -4 10 -10 10 -5 0
-10 -4 -10 -10z"/>
<path d="M9310 1040 c0 -5 5 -10 10 -10 6 0 10 5 10 10 0 6 -4 10 -10 10 -5 0
-10 -4 -10 -10z"/>
<path d="M8980 875 l0 -65 353 2 352 3 3 63 3 62 -356 0 -355 0 0 -65z m98 23
c17 -17 56 -16 64 2 4 9 7 0 7 -20 -1 -19 -3 -29 -6 -22 -2 6 -12 12 -21 12
-13 0 -14 -2 -4 -9 8 -5 -4 -8 -32 -9 -44 0 -46 1 -46 29 0 31 17 38 38 17z
m280 -15 c-17 -39 -28 -50 -22 -22 5 22 4 22 -11 -3 -8 -16 -21 -28 -28 -28
-9 0 -9 2 1 8 7 5 10 16 6 25 -8 22 -21 22 -27 0 -4 -14 -5 -12 -6 5 -1 16 5
22 19 22 11 0 20 -5 20 -11 0 -8 4 -9 13 0 8 6 17 8 20 4 4 -3 7 1 7 10 0 10
4 17 10 17 6 0 5 -11 -2 -27z m60 20 c-21 -5 -24 -23 -5 -23 8 0 7 -4 -3 -10
-12 -8 -11 -10 8 -10 12 0 22 6 22 13 0 8 6 14 13 14 7 0 13 -8 13 -17 0 -12
-11 -17 -38 -19 -36 -2 -38 0 -38 29 0 25 4 30 23 29 16 -1 18 -2 5 -6z m207
-33 c1 -11 -2 -20 -7 -20 -4 0 -8 7 -8 15 0 21 -18 19 -23 -2 -4 -14 -5 -13
-6 4 -1 13 6 23 17 25 22 5 25 2 27 -22z m-458 -12 c-3 -7 -5 -2 -5 12 0 14 2
19 5 13 2 -7 2 -19 0 -25z m36 19 c20 12 57 14 57 3 0 -5 -8 -10 -17 -11 -15
0 -15 -2 2 -9 16 -7 17 -9 3 -9 -9 -1 -22 7 -27 17 -10 16 -10 16 -11 0 0 -10
-4 -18 -10 -18 -5 0 -10 2 -10 4 0 2 -2 10 -3 18 -2 7 -2 10 0 5 3 -4 10 -4
16 0z m317 -7 c0 -11 -6 -20 -14 -20 -8 0 -17 -6 -19 -12 -3 -7 -6 2 -6 20 -1
26 3 32 19 32 13 0 20 -7 20 -20z m50 0 c0 -13 -7 -20 -20 -20 -13 0 -20 7
-20 20 0 13 7 20 20 20 13 0 20 -7 20 -20z"/>
<path d="M9050 880 c0 -11 7 -20 15 -20 8 0 15 6 15 14 0 8 -7 16 -15 20 -10
4 -15 -1 -15 -14z"/>
<path d="M9490 870 c0 -5 5 -10 10 -10 6 0 10 5 10 10 0 6 -4 10 -10 10 -5 0
-10 -4 -10 -10z"/>
<path d="M9540 870 c0 -5 5 -10 10 -10 6 0 10 5 10 10 0 6 -4 10 -10 10 -5 0
-10 -4 -10 -10z"/>
<path d="M8837 763 l472 -3 4 -53 3 -52 2 52 2 53 508 3 c279 1 64 2 -478 2
-542 0 -773 -1 -513 -2z"/>
<path d="M9305 539 c-10 -15 3 -25 16 -12 7 7 7 13 1 17 -6 3 -14 1 -17 -5z"/>
<path d="M10315 541 c-7 -12 12 -24 25 -16 11 7 4 25 -10 25 -5 0 -11 -4 -15
-9z"/>
<path d="M8360 531 c0 -6 5 -13 10 -16 6 -3 10 1 10 9 0 9 -4 16 -10 16 -5 0
-10 -4 -10 -9z"/>
<path d="M10040 385 l0 -65 285 0 285 0 0 65 0 65 -285 0 -285 0 0 -65z m202
18 c-6 -2 -10 -9 -6 -14 3 -5 1 -9 -5 -9 -13 0 -22 15 -14 24 3 3 13 6 22 5
11 0 12 -2 3 -6z m88 -14 c3 -1 8 -1 12 0 4 0 4 -7 1 -16 -6 -14 -7 -14 -19 2
-11 15 -14 15 -19 4 -3 -9 -21 -15 -45 -16 l-41 -2 23 18 c18 15 61 20 88 10z
m66 -1 c4 -7 3 -8 -4 -4 -7 4 -12 3 -12 -3 0 -5 6 -12 13 -14 6 -3 2 -6 -10
-6 -24 -1 -32 24 -10 32 6 3 13 6 14 6 1 1 5 -4 9 -11z m44 -14 c0 -8 -7 -14
-15 -14 -15 0 -21 21 -9 33 10 9 24 -2 24 -19z"/>
<path d="M8110 380 l0 -60 285 0 285 0 0 60 0 60 -285 0 -285 0 0 -60z m127
21 c-10 -4 -18 -10 -18 -14 2 -20 0 -27 -9 -27 -11 0 -14 33 -3 43 3 4 16 7
27 6 19 0 19 -1 3 -8z m110 -28 c-3 -10 -5 -4 -5 12 0 17 2 24 5 18 2 -7 2
-21 0 -30z m67 30 c4 -4 22 -8 39 -8 18 -1 38 -4 44 -8 6 -4 14 -3 18 3 8 13
25 3 25 -15 0 -9 -11 -13 -29 -13 -15 1 -33 -2 -40 -6 -6 -4 -11 -3 -11 1 0 5
-18 8 -40 7 -36 -1 -40 1 -40 22 0 23 19 32 34 17z m-119 -13 c3 -5 11 -10 16
-10 6 0 7 5 4 10 -3 6 -1 10 4 10 6 0 11 -9 11 -20 0 -13 -7 -20 -20 -20 -11
0 -20 7 -20 15 0 8 -4 15 -10 15 -5 0 -10 -7 -10 -17 0 -9 -3 -14 -6 -10 -9 8
3 37 15 37 5 0 13 -4 16 -10z m291 -11 c0 -19 -1 -19 -13 -3 -12 17 -13 17
-13 -1 0 -10 -3 -16 -6 -12 -10 10 4 37 19 37 7 0 13 -9 13 -21z m-339 -11
c-3 -8 -6 -5 -6 6 -1 11 2 17 5 13 3 -3 4 -12 1 -19z"/>
<path d="M8390 391 c0 -5 7 -11 14 -14 10 -4 13 -1 9 9 -6 15 -23 19 -23 5z"/>
<path d="M8475 380 c-3 -5 -1 -10 4 -10 6 0 11 5 11 10 0 6 -2 10 -4 10 -3 0
-8 -4 -11 -10z"/>
<path d="M8515 380 c-3 -5 -1 -10 4 -10 6 0 11 5 11 10 0 6 -2 10 -4 10 -3 0
-8 -4 -11 -10z"/>
<path d="M9040 380 l0 -60 285 0 285 0 0 60 0 60 -285 0 -285 0 0 -60z m181
21 c-9 -6 -10 -11 -2 -15 17 -11 13 -26 -6 -26 -14 0 -15 2 -5 9 11 7 10 9 -3
15 -20 7 -10 26 13 26 13 0 14 -2 3 -9z m137 -25 c2 -9 -2 -16 -10 -17 -7 0
-25 -2 -40 -3 -20 -1 -28 3 -28 15 0 23 7 27 43 24 20 -1 33 -8 35 -19z m42
-2 c0 -8 -7 -14 -15 -14 -15 0 -21 21 -9 33 10 9 24 -2 24 -19z m46 5 c0 -19
-1 -19 -13 -3 -12 17 -13 17 -13 -1 0 -10 -3 -16 -6 -12 -10 10 4 37 19 37 7
0 13 -9 13 -21z m-185 2 c7 11 9 10 9 -3 0 -10 -7 -18 -15 -18 -8 0 -15 8 -14
18 0 12 2 13 6 3 5 -11 7 -11 14 0z"/>
<path d="M9290 380 c0 -5 5 -10 10 -10 6 0 10 5 10 10 0 6 -4 10 -10 10 -5 0
-10 -4 -10 -10z"/>
<path d="M9335 380 c-3 -5 -1 -10 4 -10 6 0 11 5 11 10 0 6 -2 10 -4 10 -3 0
-8 -4 -11 -10z"/>
</g>
</svg>
