<svg xmlns="http://www.w3.org/2000/svg" xmlns:xlink="http://www.w3.org/1999/xlink" width="150" zoomAndPan="magnify" viewBox="0 0 112.5 89.999999" height="120" preserveAspectRatio="xMidYMid meet" version="1.0"><defs><clipPath id="e6452d32ee"><path d="M 0 0.199219 L 112.003906 0.199219 L 112.003906 89.800781 L 0 89.800781 Z M 0 0.199219 " clip-rule="nonzero"/></clipPath><clipPath id="c5e3110c72"><path d="M 51.742188 39.203125 L 88.492188 39.203125 L 88.492188 75.195312 L 51.742188 75.195312 Z M 51.742188 39.203125 " clip-rule="nonzero"/></clipPath><clipPath id="4e46fbb544"><path d="M 80.253906 64.058594 C 80.253906 63.707031 79.972656 63.421875 79.621094 63.421875 C 79.273438 63.421875 78.988281 63.707031 78.988281 64.058594 L 78.988281 64.695312 L 80.253906 64.695312 Z M 87.226562 45.578125 L 72.019531 45.578125 L 72.019531 46.851562 L 87.226562 46.851562 Z M 87.226562 48.125 L 72.019531 48.125 L 72.019531 49.402344 L 87.226562 49.402344 Z M 83.871094 54.683594 L 80.070312 50.863281 C 79.824219 50.613281 79.421875 50.613281 79.175781 50.863281 L 75.371094 54.683594 C 75.191406 54.867188 75.136719 55.140625 75.234375 55.378906 C 75.332031 55.617188 75.5625 55.773438 75.820312 55.773438 L 77.722656 55.773438 L 77.722656 57.683594 C 77.722656 58.035156 78.003906 58.324219 78.355469 58.324219 L 80.890625 58.324219 C 81.238281 58.324219 81.523438 58.035156 81.523438 57.683594 L 81.523438 55.773438 L 83.421875 55.773438 C 83.679688 55.773438 83.910156 55.617188 84.007812 55.378906 C 84.105469 55.140625 84.054688 54.867188 83.871094 54.683594 Z M 72.019531 44.300781 L 82.15625 44.300781 L 82.15625 43.027344 L 72.019531 43.027344 Z M 72.019531 41.753906 L 82.15625 41.753906 L 82.15625 40.480469 L 72.019531 40.480469 Z M 88.492188 44.300781 L 88.492188 63.421875 L 86.558594 63.421875 C 85.09375 61.121094 82.53125 59.597656 79.621094 59.597656 C 76.710938 59.597656 74.148438 61.121094 72.683594 63.421875 L 70.75 63.421875 L 70.75 39.203125 L 83.421875 39.203125 L 83.421875 43.664062 C 83.421875 44.015625 83.707031 44.300781 84.058594 44.300781 Z M 84.691406 40.105469 L 84.691406 43.027344 L 87.597656 43.027344 Z M 79.621094 67.242188 C 79.972656 67.242188 80.253906 66.957031 80.253906 66.605469 L 80.253906 65.96875 L 78.988281 65.96875 L 78.988281 66.605469 C 78.988281 66.957031 79.273438 67.242188 79.621094 67.242188 Z M 84.058594 65.96875 L 82.789062 65.96875 L 82.789062 66.605469 C 82.789062 68.363281 81.367188 69.792969 79.621094 69.792969 C 77.875 69.792969 76.453125 68.363281 76.453125 66.605469 L 76.453125 65.96875 L 75.1875 65.96875 L 75.1875 66.605469 C 75.1875 68.851562 76.84375 70.710938 78.988281 71.019531 L 78.988281 71.703125 L 76.453125 71.703125 L 76.453125 72.980469 L 82.789062 72.980469 L 82.789062 71.703125 L 80.253906 71.703125 L 80.253906 71.019531 C 82.402344 70.710938 84.058594 68.851562 84.058594 66.605469 Z M 77.722656 66.605469 C 77.722656 67.660156 78.574219 68.519531 79.621094 68.519531 C 80.671875 68.519531 81.523438 67.660156 81.523438 66.605469 L 81.523438 64.058594 C 81.523438 63.003906 80.671875 62.144531 79.621094 62.144531 C 78.574219 62.144531 77.722656 63.003906 77.722656 64.058594 Z M 86.59375 67.882812 C 86.59375 71.746094 83.464844 74.890625 79.621094 74.890625 C 75.777344 74.890625 72.652344 71.746094 72.652344 67.882812 C 72.652344 64.015625 75.777344 60.871094 79.621094 60.871094 C 83.464844 60.871094 86.59375 64.015625 86.59375 67.882812 Z M 77.351562 54.5 L 78.355469 54.5 C 78.703125 54.5 78.988281 54.785156 78.988281 55.136719 L 78.988281 57.046875 L 80.253906 57.046875 L 80.253906 55.136719 C 80.253906 54.785156 80.539062 54.5 80.890625 54.5 L 81.894531 54.5 L 79.621094 52.214844 Z M 57.757812 64.695312 L 56.226562 61.035156 C 56.195312 60.957031 56.179688 60.875 56.179688 60.789062 L 56.179688 58.960938 C 56.179688 56.5 54.1875 54.5 51.742188 54.5 L 51.742188 70.429688 L 56.179688 70.429688 C 56.527344 70.429688 56.8125 70.144531 56.8125 69.792969 L 56.8125 68.914062 L 55.894531 68.453125 C 55.679688 68.34375 55.542969 68.121094 55.542969 67.882812 C 55.542969 67.640625 55.679688 67.417969 55.894531 67.3125 L 56.8125 66.851562 L 56.8125 65.332031 C 56.8125 64.980469 57.09375 64.695312 57.445312 64.695312 Z M 65.125 61.175781 C 67.402344 65.375 67.402344 70.386719 65.125 74.585938 L 66.238281 75.195312 C 67.453125 72.957031 68.09375 70.429688 68.09375 67.882812 C 68.09375 65.332031 67.453125 62.804688 66.238281 60.566406 Z M 63.703125 61.835938 L 62.59375 62.457031 C 63.507812 64.109375 63.992188 65.988281 63.992188 67.882812 C 63.992188 69.773438 63.507812 71.652344 62.59375 73.308594 L 63.703125 73.925781 C 64.71875 72.082031 65.257812 69.992188 65.257812 67.882812 C 65.257812 65.769531 64.71875 63.679688 63.703125 61.835938 Z M 61.164062 63.105469 C 62.835938 66.050781 62.835938 69.710938 61.164062 72.65625 L 60.0625 72.027344 C 61.515625 69.46875 61.515625 66.292969 60.0625 63.738281 Z M 61.164062 63.105469 " clip-rule="nonzero"/></clipPath><clipPath id="418eaf49e2"><path d="M 80.253906 64.058594 C 80.253906 63.707031 79.972656 63.421875 79.621094 63.421875 C 79.273438 63.421875 78.988281 63.707031 78.988281 64.058594 L 78.988281 64.695312 L 80.253906 64.695312 Z M 87.226562 45.578125 L 72.019531 45.578125 L 72.019531 46.851562 L 87.226562 46.851562 Z M 87.226562 48.125 L 72.019531 48.125 L 72.019531 49.402344 L 87.226562 49.402344 Z M 83.871094 54.683594 L 80.070312 50.863281 C 79.824219 50.613281 79.421875 50.613281 79.175781 50.863281 L 75.371094 54.683594 C 75.191406 54.867188 75.136719 55.140625 75.234375 55.378906 C 75.332031 55.617188 75.5625 55.773438 75.820312 55.773438 L 77.722656 55.773438 L 77.722656 57.683594 C 77.722656 58.035156 78.003906 58.324219 78.355469 58.324219 L 80.890625 58.324219 C 81.238281 58.324219 81.523438 58.035156 81.523438 57.683594 L 81.523438 55.773438 L 83.421875 55.773438 C 83.679688 55.773438 83.910156 55.617188 84.007812 55.378906 C 84.105469 55.140625 84.054688 54.867188 83.871094 54.683594 Z M 72.019531 44.300781 L 82.15625 44.300781 L 82.15625 43.027344 L 72.019531 43.027344 Z M 72.019531 41.753906 L 82.15625 41.753906 L 82.15625 40.480469 L 72.019531 40.480469 Z M 88.492188 44.300781 L 88.492188 63.421875 L 86.558594 63.421875 C 85.09375 61.121094 82.53125 59.597656 79.621094 59.597656 C 76.710938 59.597656 74.148438 61.121094 72.683594 63.421875 L 70.75 63.421875 L 70.75 39.203125 L 83.421875 39.203125 L 83.421875 43.664062 C 83.421875 44.015625 83.707031 44.300781 84.058594 44.300781 Z M 84.691406 40.105469 L 84.691406 43.027344 L 87.597656 43.027344 Z M 79.621094 67.242188 C 79.972656 67.242188 80.253906 66.957031 80.253906 66.605469 L 80.253906 65.96875 L 78.988281 65.96875 L 78.988281 66.605469 C 78.988281 66.957031 79.273438 67.242188 79.621094 67.242188 Z M 84.058594 65.96875 L 82.789062 65.96875 L 82.789062 66.605469 C 82.789062 68.363281 81.367188 69.792969 79.621094 69.792969 C 77.875 69.792969 76.453125 68.363281 76.453125 66.605469 L 76.453125 65.96875 L 75.1875 65.96875 L 75.1875 66.605469 C 75.1875 68.851562 76.84375 70.710938 78.988281 71.019531 L 78.988281 71.703125 L 76.453125 71.703125 L 76.453125 72.980469 L 82.789062 72.980469 L 82.789062 71.703125 L 80.253906 71.703125 L 80.253906 71.019531 C 82.402344 70.710938 84.058594 68.851562 84.058594 66.605469 Z M 77.722656 66.605469 C 77.722656 67.660156 78.574219 68.519531 79.621094 68.519531 C 80.671875 68.519531 81.523438 67.660156 81.523438 66.605469 L 81.523438 64.058594 C 81.523438 63.003906 80.671875 62.144531 79.621094 62.144531 C 78.574219 62.144531 77.722656 63.003906 77.722656 64.058594 Z M 86.59375 67.882812 C 86.59375 71.746094 83.464844 74.890625 79.621094 74.890625 C 75.777344 74.890625 72.652344 71.746094 72.652344 67.882812 C 72.652344 64.015625 75.777344 60.871094 79.621094 60.871094 C 83.464844 60.871094 86.59375 64.015625 86.59375 67.882812 Z M 77.351562 54.5 L 78.355469 54.5 C 78.703125 54.5 78.988281 54.785156 78.988281 55.136719 L 78.988281 57.046875 L 80.253906 57.046875 L 80.253906 55.136719 C 80.253906 54.785156 80.539062 54.5 80.890625 54.5 L 81.894531 54.5 L 79.621094 52.214844 Z M 57.757812 64.695312 L 56.226562 61.035156 C 56.195312 60.957031 56.179688 60.875 56.179688 60.789062 L 56.179688 58.960938 C 56.179688 56.5 54.1875 54.5 51.742188 54.5 L 51.742188 70.429688 L 56.179688 70.429688 C 56.527344 70.429688 56.8125 70.144531 56.8125 69.792969 L 56.8125 68.914062 L 55.894531 68.453125 C 55.679688 68.34375 55.542969 68.121094 55.542969 67.882812 C 55.542969 67.640625 55.679688 67.417969 55.894531 67.3125 L 56.8125 66.851562 L 56.8125 65.332031 C 56.8125 64.980469 57.09375 64.695312 57.445312 64.695312 Z M 65.125 61.175781 C 67.402344 65.375 67.402344 70.386719 65.125 74.585938 L 66.238281 75.195312 C 67.453125 72.957031 68.09375 70.429688 68.09375 67.882812 C 68.09375 65.332031 67.453125 62.804688 66.238281 60.566406 Z M 63.703125 61.835938 L 62.59375 62.457031 C 63.507812 64.109375 63.992188 65.988281 63.992188 67.882812 C 63.992188 69.773438 63.507812 71.652344 62.59375 73.308594 L 63.703125 73.925781 C 64.71875 72.082031 65.257812 69.992188 65.257812 67.882812 C 65.257812 65.769531 64.71875 63.679688 63.703125 61.835938 Z M 61.164062 63.105469 C 62.835938 66.050781 62.835938 69.710938 61.164062 72.65625 L 60.0625 72.027344 C 61.515625 69.46875 61.515625 66.292969 60.0625 63.738281 L 61.164062 63.105469 " clip-rule="nonzero"/></clipPath><linearGradient x1="-0.0000000396235" gradientTransform="matrix(0.000000000000002191, 35.991587, -35.786182, 0.000000000000002204, 70.117741, 39.204554)" y1="0" x2="1.000002" gradientUnits="userSpaceOnUse" y2="0" id="1d2ac0b5d0"><stop stop-opacity="1" stop-color="rgb(98.799133%, 0%, 100%)" offset="0"/><stop stop-opacity="1" stop-color="rgb(98.408508%, 0.389099%, 100%)" offset="0.00390625"/><stop stop-opacity="1" stop-color="rgb(98.017883%, 0.779724%, 100%)" offset="0.0078125"/><stop stop-opacity="1" stop-color="rgb(97.671509%, 0.98877%, 99.81842%)" offset="0.0117188"/><stop stop-opacity="1" stop-color="rgb(97.32666%, 1.199341%, 99.636841%)" offset="0.015625"/><stop stop-opacity="1" stop-color="rgb(96.890259%, 1.620483%, 99.617004%)" offset="0.0195312"/><stop stop-opacity="1" stop-color="rgb(96.455383%, 2.043152%, 99.598694%)" offset="0.0234375"/><stop stop-opacity="1" stop-color="rgb(96.064758%, 2.383423%, 99.598694%)" offset="0.0273438"/><stop stop-opacity="1" stop-color="rgb(95.674133%, 2.723694%, 99.598694%)" offset="0.03125"/><stop stop-opacity="1" stop-color="rgb(95.283508%, 3.111267%, 99.598694%)" offset="0.0351562"/><stop stop-opacity="1" stop-color="rgb(94.892883%, 3.49884%, 99.598694%)" offset="0.0390625"/><stop stop-opacity="1" stop-color="rgb(94.502258%, 3.692627%, 99.404907%)" offset="0.0429687"/><stop stop-opacity="1" stop-color="rgb(94.111633%, 3.886414%, 99.211121%)" offset="0.046875"/><stop stop-opacity="1" stop-color="rgb(93.721008%, 4.277039%, 99.205017%)" offset="0.0507812"/><stop stop-opacity="1" stop-color="rgb(93.330383%, 4.667664%, 99.198914%)" offset="0.0546875"/><stop stop-opacity="1" stop-color="rgb(92.939758%, 5.058289%, 99.198914%)" offset="0.0585938"/><stop stop-opacity="1" stop-color="rgb(92.549133%, 5.448914%, 99.198914%)" offset="0.0625"/><stop stop-opacity="1" stop-color="rgb(92.158508%, 5.690002%, 99.198914%)" offset="0.0664062"/><stop stop-opacity="1" stop-color="rgb(91.767883%, 5.931091%, 99.198914%)" offset="0.0703125"/><stop stop-opacity="1" stop-color="rgb(91.377258%, 6.321716%, 98.999023%)" offset="0.0742187"/><stop stop-opacity="1" stop-color="rgb(90.986633%, 6.712341%, 98.799133%)" offset="0.078125"/><stop stop-opacity="1" stop-color="rgb(90.596008%, 7.102966%, 98.799133%)" offset="0.0820312"/><stop stop-opacity="1" stop-color="rgb(90.205383%, 7.493591%, 98.799133%)" offset="0.0859375"/><stop stop-opacity="1" stop-color="rgb(89.814758%, 7.833862%, 98.799133%)" offset="0.0898437"/><stop stop-opacity="1" stop-color="rgb(89.424133%, 8.174133%, 98.799133%)" offset="0.09375"/><stop stop-opacity="1" stop-color="rgb(89.033508%, 8.38623%, 98.799133%)" offset="0.0976562"/><stop stop-opacity="1" stop-color="rgb(88.642883%, 8.599854%, 98.799133%)" offset="0.101562"/><stop stop-opacity="1" stop-color="rgb(88.206482%, 9.017944%, 98.599243%)" offset="0.105469"/><stop stop-opacity="1" stop-color="rgb(87.771606%, 9.436035%, 98.399353%)" offset="0.109375"/><stop stop-opacity="1" stop-color="rgb(87.425232%, 9.82666%, 98.399353%)" offset="0.113281"/><stop stop-opacity="1" stop-color="rgb(87.080383%, 10.217285%, 98.399353%)" offset="0.117188"/><stop stop-opacity="1" stop-color="rgb(86.689758%, 10.60791%, 98.399353%)" offset="0.121094"/><stop stop-opacity="1" stop-color="rgb(86.299133%, 10.998535%, 98.399353%)" offset="0.125"/><stop stop-opacity="1" stop-color="rgb(85.908508%, 11.18927%, 98.399353%)" offset="0.128906"/><stop stop-opacity="1" stop-color="rgb(85.517883%, 11.380005%, 98.399353%)" offset="0.132812"/><stop stop-opacity="1" stop-color="rgb(85.127258%, 11.77063%, 98.199463%)" offset="0.136719"/><stop stop-opacity="1" stop-color="rgb(84.736633%, 12.161255%, 97.999573%)" offset="0.140625"/><stop stop-opacity="1" stop-color="rgb(84.295654%, 12.55188%, 97.999573%)" offset="0.144531"/><stop stop-opacity="1" stop-color="rgb(83.856201%, 12.942505%, 97.999573%)" offset="0.148437"/><stop stop-opacity="1" stop-color="rgb(83.465576%, 13.13324%, 97.999573%)" offset="0.152344"/><stop stop-opacity="1" stop-color="rgb(83.074951%, 13.323975%, 97.999573%)" offset="0.15625"/><stop stop-opacity="1" stop-color="rgb(82.733154%, 13.7146%, 97.996521%)" offset="0.160156"/><stop stop-opacity="1" stop-color="rgb(82.392883%, 14.105225%, 97.993469%)" offset="0.164062"/><stop stop-opacity="1" stop-color="rgb(82.002258%, 14.49585%, 97.796631%)" offset="0.167969"/><stop stop-opacity="1" stop-color="rgb(81.611633%, 14.886475%, 97.599792%)" offset="0.171875"/><stop stop-opacity="1" stop-color="rgb(81.221008%, 15.2771%, 97.599792%)" offset="0.175781"/><stop stop-opacity="1" stop-color="rgb(80.830383%, 15.667725%, 97.599792%)" offset="0.179687"/><stop stop-opacity="1" stop-color="rgb(80.439758%, 15.858459%, 97.599792%)" offset="0.183594"/><stop stop-opacity="1" stop-color="rgb(80.049133%, 16.049194%, 97.599792%)" offset="0.1875"/><stop stop-opacity="1" stop-color="rgb(79.808044%, 16.490173%, 97.587585%)" offset="0.191406"/><stop stop-opacity="1" stop-color="rgb(79.568481%, 16.931152%, 97.575378%)" offset="0.195312"/><stop stop-opacity="1" stop-color="rgb(79.177856%, 17.271423%, 97.436523%)" offset="0.199219"/><stop stop-opacity="1" stop-color="rgb(78.787231%, 17.611694%, 97.299194%)" offset="0.203125"/><stop stop-opacity="1" stop-color="rgb(78.396606%, 17.805481%, 97.299194%)" offset="0.207031"/><stop stop-opacity="1" stop-color="rgb(78.005981%, 17.999268%, 97.299194%)" offset="0.210938"/><stop stop-opacity="1" stop-color="rgb(77.661133%, 18.386841%, 97.299194%)" offset="0.214844"/><stop stop-opacity="1" stop-color="rgb(77.31781%, 18.774414%, 97.299194%)" offset="0.21875"/><stop stop-opacity="1" stop-color="rgb(76.930237%, 19.165039%, 97.120667%)" offset="0.222656"/><stop stop-opacity="1" stop-color="rgb(76.542664%, 19.555664%, 96.943665%)" offset="0.226562"/><stop stop-opacity="1" stop-color="rgb(76.101685%, 19.976807%, 96.920776%)" offset="0.230469"/><stop stop-opacity="1" stop-color="rgb(75.662231%, 20.399475%, 96.899414%)" offset="0.234375"/><stop stop-opacity="1" stop-color="rgb(75.271606%, 20.608521%, 96.899414%)" offset="0.238281"/><stop stop-opacity="1" stop-color="rgb(74.880981%, 20.817566%, 96.899414%)" offset="0.242188"/><stop stop-opacity="1" stop-color="rgb(74.490356%, 21.208191%, 96.899414%)" offset="0.246094"/><stop stop-opacity="1" stop-color="rgb(74.099731%, 21.598816%, 96.899414%)" offset="0.25"/><stop stop-opacity="1" stop-color="rgb(73.709106%, 21.989441%, 96.708679%)" offset="0.253906"/><stop stop-opacity="1" stop-color="rgb(73.318481%, 22.380066%, 96.517944%)" offset="0.257812"/><stop stop-opacity="1" stop-color="rgb(72.927856%, 22.538757%, 96.508789%)" offset="0.261719"/><stop stop-opacity="1" stop-color="rgb(72.537231%, 22.698975%, 96.499634%)" offset="0.265625"/><stop stop-opacity="1" stop-color="rgb(72.146606%, 23.120117%, 96.499634%)" offset="0.269531"/><stop stop-opacity="1" stop-color="rgb(71.755981%, 23.542786%, 96.499634%)" offset="0.273438"/><stop stop-opacity="1" stop-color="rgb(71.365356%, 23.933411%, 96.499634%)" offset="0.277344"/><stop stop-opacity="1" stop-color="rgb(70.974731%, 24.324036%, 96.499634%)" offset="0.28125"/><stop stop-opacity="1" stop-color="rgb(70.584106%, 24.714661%, 96.299744%)" offset="0.285156"/><stop stop-opacity="1" stop-color="rgb(70.193481%, 25.105286%, 96.099854%)" offset="0.289062"/><stop stop-opacity="1" stop-color="rgb(69.802856%, 25.302124%, 96.099854%)" offset="0.292969"/><stop stop-opacity="1" stop-color="rgb(69.412231%, 25.498962%, 96.099854%)" offset="0.296875"/><stop stop-opacity="1" stop-color="rgb(69.021606%, 25.883484%, 96.099854%)" offset="0.300781"/><stop stop-opacity="1" stop-color="rgb(68.630981%, 26.268005%, 96.099854%)" offset="0.304687"/><stop stop-opacity="1" stop-color="rgb(68.240356%, 26.65863%, 96.099854%)" offset="0.308594"/><stop stop-opacity="1" stop-color="rgb(67.849731%, 27.049255%, 96.099854%)" offset="0.3125"/><stop stop-opacity="1" stop-color="rgb(67.459106%, 27.424622%, 95.898438%)" offset="0.316406"/><stop stop-opacity="1" stop-color="rgb(67.068481%, 27.799988%, 95.698547%)" offset="0.320312"/><stop stop-opacity="1" stop-color="rgb(66.677856%, 28.005981%, 95.698547%)" offset="0.324219"/><stop stop-opacity="1" stop-color="rgb(66.287231%, 28.211975%, 95.698547%)" offset="0.328125"/><stop stop-opacity="1" stop-color="rgb(65.896606%, 28.6026%, 95.698547%)" offset="0.332031"/><stop stop-opacity="1" stop-color="rgb(65.505981%, 28.993225%, 95.698547%)" offset="0.335937"/><stop stop-opacity="1" stop-color="rgb(65.115356%, 29.38385%, 95.698547%)" offset="0.339844"/><stop stop-opacity="1" stop-color="rgb(64.724731%, 29.774475%, 95.698547%)" offset="0.34375"/><stop stop-opacity="1" stop-color="rgb(64.334106%, 29.986572%, 95.498657%)" offset="0.347656"/><stop stop-opacity="1" stop-color="rgb(63.943481%, 30.198669%, 95.298767%)" offset="0.351562"/><stop stop-opacity="1" stop-color="rgb(63.502502%, 30.61676%, 95.298767%)" offset="0.355469"/><stop stop-opacity="1" stop-color="rgb(63.061523%, 31.036377%, 95.298767%)" offset="0.359375"/><stop stop-opacity="1" stop-color="rgb(62.721252%, 31.427002%, 95.298767%)" offset="0.363281"/><stop stop-opacity="1" stop-color="rgb(62.380981%, 31.817627%, 95.298767%)" offset="0.367187"/><stop stop-opacity="1" stop-color="rgb(61.990356%, 32.157898%, 95.298767%)" offset="0.371094"/><stop stop-opacity="1" stop-color="rgb(61.599731%, 32.499695%, 95.298767%)" offset="0.375"/><stop stop-opacity="1" stop-color="rgb(61.209106%, 32.69043%, 95.098877%)" offset="0.378906"/><stop stop-opacity="1" stop-color="rgb(60.818481%, 32.881165%, 94.898987%)" offset="0.382812"/><stop stop-opacity="1" stop-color="rgb(60.427856%, 33.27179%, 94.898987%)" offset="0.386719"/><stop stop-opacity="1" stop-color="rgb(60.037231%, 33.662415%, 94.898987%)" offset="0.390625"/><stop stop-opacity="1" stop-color="rgb(59.596252%, 34.101868%, 94.898987%)" offset="0.394531"/><stop stop-opacity="1" stop-color="rgb(59.155273%, 34.542847%, 94.898987%)" offset="0.398437"/><stop stop-opacity="1" stop-color="rgb(58.764648%, 34.733582%, 94.88678%)" offset="0.402344"/><stop stop-opacity="1" stop-color="rgb(58.374023%, 34.924316%, 94.874573%)" offset="0.40625"/><stop stop-opacity="1" stop-color="rgb(57.983398%, 35.314941%, 94.68689%)" offset="0.410156"/><stop stop-opacity="1" stop-color="rgb(57.594299%, 35.705566%, 94.499207%)" offset="0.414062"/><stop stop-opacity="1" stop-color="rgb(57.252502%, 36.096191%, 94.499207%)" offset="0.417969"/><stop stop-opacity="1" stop-color="rgb(56.912231%, 36.486816%, 94.499207%)" offset="0.421875"/><stop stop-opacity="1" stop-color="rgb(56.521606%, 36.877441%, 94.499207%)" offset="0.425781"/><stop stop-opacity="1" stop-color="rgb(56.130981%, 37.268066%, 94.499207%)" offset="0.429687"/><stop stop-opacity="1" stop-color="rgb(55.740356%, 37.414551%, 94.32373%)" offset="0.433594"/><stop stop-opacity="1" stop-color="rgb(55.349731%, 37.562561%, 94.14978%)" offset="0.4375"/><stop stop-opacity="1" stop-color="rgb(54.908752%, 37.995911%, 94.12384%)" offset="0.441406"/><stop stop-opacity="1" stop-color="rgb(54.467773%, 38.430786%, 94.099426%)" offset="0.445312"/><stop stop-opacity="1" stop-color="rgb(54.077148%, 38.821411%, 94.099426%)" offset="0.449219"/><stop stop-opacity="1" stop-color="rgb(53.686523%, 39.212036%, 94.099426%)" offset="0.453125"/><stop stop-opacity="1" stop-color="rgb(53.295898%, 39.602661%, 94.099426%)" offset="0.457031"/><stop stop-opacity="1" stop-color="rgb(52.905273%, 39.993286%, 94.099426%)" offset="0.460937"/><stop stop-opacity="1" stop-color="rgb(52.561951%, 40.184021%, 93.911743%)" offset="0.464844"/><stop stop-opacity="1" stop-color="rgb(52.218628%, 40.374756%, 93.72406%)" offset="0.46875"/><stop stop-opacity="1" stop-color="rgb(51.831055%, 40.765381%, 93.711853%)" offset="0.472656"/><stop stop-opacity="1" stop-color="rgb(51.443481%, 41.156006%, 93.699646%)" offset="0.476562"/><stop stop-opacity="1" stop-color="rgb(51.002502%, 41.595459%, 93.699646%)" offset="0.480469"/><stop stop-opacity="1" stop-color="rgb(50.561523%, 42.036438%, 93.699646%)" offset="0.484375"/><stop stop-opacity="1" stop-color="rgb(50.170898%, 42.224121%, 93.699646%)" offset="0.488281"/><stop stop-opacity="1" stop-color="rgb(49.780273%, 42.41333%, 93.699646%)" offset="0.492187"/><stop stop-opacity="1" stop-color="rgb(49.389648%, 42.756653%, 93.499756%)" offset="0.496094"/><stop stop-opacity="1" stop-color="rgb(48.999023%, 43.099976%, 93.299866%)" offset="0.5"/><stop stop-opacity="1" stop-color="rgb(48.608398%, 43.490601%, 93.299866%)" offset="0.503906"/><stop stop-opacity="1" stop-color="rgb(48.217773%, 43.881226%, 93.299866%)" offset="0.507812"/><stop stop-opacity="1" stop-color="rgb(47.871399%, 44.271851%, 93.299866%)" offset="0.511719"/><stop stop-opacity="1" stop-color="rgb(47.52655%, 44.662476%, 93.299866%)" offset="0.515625"/><stop stop-opacity="1" stop-color="rgb(47.090149%, 44.902039%, 93.276978%)" offset="0.519531"/><stop stop-opacity="1" stop-color="rgb(46.655273%, 45.143127%, 93.255615%)" offset="0.523438"/><stop stop-opacity="1" stop-color="rgb(46.264648%, 45.533752%, 93.077087%)" offset="0.527344"/><stop stop-opacity="1" stop-color="rgb(45.874023%, 45.924377%, 92.89856%)" offset="0.53125"/><stop stop-opacity="1" stop-color="rgb(45.483398%, 46.315002%, 92.89856%)" offset="0.535156"/><stop stop-opacity="1" stop-color="rgb(45.092773%, 46.705627%, 92.89856%)" offset="0.539062"/><stop stop-opacity="1" stop-color="rgb(44.702148%, 46.902466%, 92.89856%)" offset="0.542969"/><stop stop-opacity="1" stop-color="rgb(44.311523%, 47.099304%, 92.89856%)" offset="0.546875"/><stop stop-opacity="1" stop-color="rgb(43.920898%, 47.436523%, 92.89856%)" offset="0.550781"/><stop stop-opacity="1" stop-color="rgb(43.530273%, 47.775269%, 92.89856%)" offset="0.554688"/><stop stop-opacity="1" stop-color="rgb(43.139648%, 48.161316%, 92.698669%)" offset="0.558594"/><stop stop-opacity="1" stop-color="rgb(42.749023%, 48.548889%, 92.498779%)" offset="0.5625"/><stop stop-opacity="1" stop-color="rgb(42.358398%, 48.973083%, 92.498779%)" offset="0.566406"/><stop stop-opacity="1" stop-color="rgb(41.967773%, 49.398804%, 92.498779%)" offset="0.570312"/><stop stop-opacity="1" stop-color="rgb(41.577148%, 49.604797%, 92.498779%)" offset="0.574219"/><stop stop-opacity="1" stop-color="rgb(41.186523%, 49.812317%, 92.498779%)" offset="0.578125"/><stop stop-opacity="1" stop-color="rgb(40.992737%, 50.202942%, 92.498779%)" offset="0.582031"/><stop stop-opacity="1" stop-color="rgb(40.79895%, 50.593567%, 92.498779%)" offset="0.585937"/><stop stop-opacity="1" stop-color="rgb(40.411377%, 50.984192%, 92.349243%)" offset="0.589844"/><stop stop-opacity="1" stop-color="rgb(40.023804%, 51.374817%, 92.199707%)" offset="0.59375"/><stop stop-opacity="1" stop-color="rgb(39.633179%, 51.586914%, 92.199707%)" offset="0.597656"/><stop stop-opacity="1" stop-color="rgb(39.242554%, 51.799011%, 92.199707%)" offset="0.601562"/><stop stop-opacity="1" stop-color="rgb(38.801575%, 52.168274%, 92.199707%)" offset="0.605469"/><stop stop-opacity="1" stop-color="rgb(38.362122%, 52.537537%, 92.199707%)" offset="0.609375"/><stop stop-opacity="1" stop-color="rgb(37.973022%, 52.928162%, 92.189026%)" offset="0.613281"/><stop stop-opacity="1" stop-color="rgb(37.585449%, 53.318787%, 92.179871%)" offset="0.617187"/><stop stop-opacity="1" stop-color="rgb(37.242126%, 53.709412%, 91.989136%)" offset="0.621094"/><stop stop-opacity="1" stop-color="rgb(36.898804%, 54.100037%, 91.799927%)" offset="0.625"/><stop stop-opacity="1" stop-color="rgb(36.508179%, 54.299927%, 91.799927%)" offset="0.628906"/><stop stop-opacity="1" stop-color="rgb(36.117554%, 54.499817%, 91.799927%)" offset="0.632812"/><stop stop-opacity="1" stop-color="rgb(35.726929%, 54.879761%, 91.799927%)" offset="0.636719"/><stop stop-opacity="1" stop-color="rgb(35.336304%, 55.26123%, 91.799927%)" offset="0.640625"/><stop stop-opacity="1" stop-color="rgb(34.895325%, 55.702209%, 91.598511%)" offset="0.644531"/><stop stop-opacity="1" stop-color="rgb(34.455872%, 56.143188%, 91.398621%)" offset="0.648437"/><stop stop-opacity="1" stop-color="rgb(34.065247%, 56.520081%, 91.398621%)" offset="0.652344"/><stop stop-opacity="1" stop-color="rgb(33.674622%, 56.898499%, 91.398621%)" offset="0.65625"/><stop stop-opacity="1" stop-color="rgb(33.283997%, 57.10144%, 91.398621%)" offset="0.660156"/><stop stop-opacity="1" stop-color="rgb(32.893372%, 57.304382%, 91.398621%)" offset="0.664062"/><stop stop-opacity="1" stop-color="rgb(32.550049%, 57.644653%, 91.398621%)" offset="0.667969"/><stop stop-opacity="1" stop-color="rgb(32.208252%, 57.98645%, 91.398621%)" offset="0.671875"/><stop stop-opacity="1" stop-color="rgb(31.819153%, 58.377075%, 91.213989%)" offset="0.675781"/><stop stop-opacity="1" stop-color="rgb(31.430054%, 58.7677%, 91.030884%)" offset="0.679687"/><stop stop-opacity="1" stop-color="rgb(31.039429%, 58.982849%, 91.014099%)" offset="0.683594"/><stop stop-opacity="1" stop-color="rgb(30.648804%, 59.199524%, 90.99884%)" offset="0.6875"/><stop stop-opacity="1" stop-color="rgb(30.207825%, 59.614563%, 90.99884%)" offset="0.691406"/><stop stop-opacity="1" stop-color="rgb(29.768372%, 60.031128%, 90.99884%)" offset="0.695312"/><stop stop-opacity="1" stop-color="rgb(29.377747%, 60.421753%, 90.99884%)" offset="0.699219"/><stop stop-opacity="1" stop-color="rgb(28.987122%, 60.812378%, 90.99884%)" offset="0.703125"/><stop stop-opacity="1" stop-color="rgb(28.596497%, 61.203003%, 90.802002%)" offset="0.707031"/><stop stop-opacity="1" stop-color="rgb(28.205872%, 61.593628%, 90.605164%)" offset="0.710937"/><stop stop-opacity="1" stop-color="rgb(27.861023%, 61.784363%, 90.602112%)" offset="0.714844"/><stop stop-opacity="1" stop-color="rgb(27.5177%, 61.975098%, 90.59906%)" offset="0.71875"/><stop stop-opacity="1" stop-color="rgb(27.130127%, 62.319946%, 90.59906%)" offset="0.722656"/><stop stop-opacity="1" stop-color="rgb(26.742554%, 62.666321%, 90.59906%)" offset="0.726562"/><stop stop-opacity="1" stop-color="rgb(26.301575%, 63.101196%, 90.579224%)" offset="0.730469"/><stop stop-opacity="1" stop-color="rgb(25.862122%, 63.537598%, 90.560913%)" offset="0.734375"/><stop stop-opacity="1" stop-color="rgb(25.471497%, 63.726807%, 90.379333%)" offset="0.738281"/><stop stop-opacity="1" stop-color="rgb(25.080872%, 63.917542%, 90.19928%)" offset="0.742187"/><stop stop-opacity="1" stop-color="rgb(24.690247%, 64.308167%, 90.19928%)" offset="0.746094"/><stop stop-opacity="1" stop-color="rgb(24.299622%, 64.698792%, 90.19928%)" offset="0.75"/><stop stop-opacity="1" stop-color="rgb(23.908997%, 65.089417%, 90.19928%)" offset="0.753906"/><stop stop-opacity="1" stop-color="rgb(23.518372%, 65.480042%, 90.19928%)" offset="0.757812"/><stop stop-opacity="1" stop-color="rgb(23.127747%, 65.870667%, 90.19928%)" offset="0.761719"/><stop stop-opacity="1" stop-color="rgb(22.737122%, 66.261292%, 90.19928%)" offset="0.765625"/><stop stop-opacity="1" stop-color="rgb(22.346497%, 66.50238%, 89.99939%)" offset="0.769531"/><stop stop-opacity="1" stop-color="rgb(21.955872%, 66.743469%, 89.7995%)" offset="0.773437"/><stop stop-opacity="1" stop-color="rgb(21.565247%, 67.131042%, 89.7995%)" offset="0.777344"/><stop stop-opacity="1" stop-color="rgb(21.174622%, 67.518616%, 89.7995%)" offset="0.78125"/><stop stop-opacity="1" stop-color="rgb(20.783997%, 67.861938%, 89.7995%)" offset="0.785156"/><stop stop-opacity="1" stop-color="rgb(20.393372%, 68.205261%, 89.7995%)" offset="0.789062"/><stop stop-opacity="1" stop-color="rgb(20.002747%, 68.4021%, 89.7995%)" offset="0.792969"/><stop stop-opacity="1" stop-color="rgb(19.612122%, 68.598938%, 89.7995%)" offset="0.796875"/><stop stop-opacity="1" stop-color="rgb(19.221497%, 68.983459%, 89.599609%)" offset="0.800781"/><stop stop-opacity="1" stop-color="rgb(18.830872%, 69.367981%, 89.399719%)" offset="0.804687"/><stop stop-opacity="1" stop-color="rgb(18.440247%, 69.758606%, 89.399719%)" offset="0.808594"/><stop stop-opacity="1" stop-color="rgb(18.049622%, 70.149231%, 89.399719%)" offset="0.8125"/><stop stop-opacity="1" stop-color="rgb(17.658997%, 70.59021%, 89.399719%)" offset="0.816406"/><stop stop-opacity="1" stop-color="rgb(17.268372%, 71.031189%, 89.399719%)" offset="0.820312"/><stop stop-opacity="1" stop-color="rgb(16.877747%, 71.221924%, 89.39209%)" offset="0.824219"/><stop stop-opacity="1" stop-color="rgb(16.487122%, 71.412659%, 89.385986%)" offset="0.828125"/><stop stop-opacity="1" stop-color="rgb(16.096497%, 71.803284%, 89.1922%)" offset="0.832031"/><stop stop-opacity="1" stop-color="rgb(15.705872%, 72.193909%, 88.999939%)" offset="0.835937"/><stop stop-opacity="1" stop-color="rgb(15.315247%, 72.53418%, 88.999939%)" offset="0.839844"/><stop stop-opacity="1" stop-color="rgb(14.924622%, 72.874451%, 88.999939%)" offset="0.84375"/><stop stop-opacity="1" stop-color="rgb(14.533997%, 73.265076%, 88.999939%)" offset="0.847656"/><stop stop-opacity="1" stop-color="rgb(14.143372%, 73.655701%, 88.999939%)" offset="0.851562"/><stop stop-opacity="1" stop-color="rgb(13.702393%, 73.895264%, 88.798523%)" offset="0.855469"/><stop stop-opacity="1" stop-color="rgb(13.261414%, 74.136353%, 88.598633%)" offset="0.859375"/><stop stop-opacity="1" stop-color="rgb(12.872314%, 74.526978%, 88.598633%)" offset="0.863281"/><stop stop-opacity="1" stop-color="rgb(12.484741%, 74.917603%, 88.598633%)" offset="0.867187"/><stop stop-opacity="1" stop-color="rgb(12.141418%, 75.308228%, 88.598633%)" offset="0.871094"/><stop stop-opacity="1" stop-color="rgb(11.799622%, 75.698853%, 88.598633%)" offset="0.875"/><stop stop-opacity="1" stop-color="rgb(11.408997%, 75.898743%, 88.598633%)" offset="0.878906"/><stop stop-opacity="1" stop-color="rgb(11.018372%, 76.098633%, 88.598633%)" offset="0.882812"/><stop stop-opacity="1" stop-color="rgb(10.627747%, 76.480103%, 88.417053%)" offset="0.886719"/><stop stop-opacity="1" stop-color="rgb(10.237122%, 76.861572%, 88.237%)" offset="0.890625"/><stop stop-opacity="1" stop-color="rgb(9.796143%, 77.252197%, 88.217163%)" offset="0.894531"/><stop stop-opacity="1" stop-color="rgb(9.355164%, 77.642822%, 88.198853%)" offset="0.898438"/><stop stop-opacity="1" stop-color="rgb(8.964539%, 78.02124%, 88.198853%)" offset="0.902344"/><stop stop-opacity="1" stop-color="rgb(8.573914%, 78.399658%, 88.198853%)" offset="0.90625"/><stop stop-opacity="1" stop-color="rgb(8.183289%, 78.6026%, 88.198853%)" offset="0.910156"/><stop stop-opacity="1" stop-color="rgb(7.794189%, 78.805542%, 88.198853%)" offset="0.914062"/><stop stop-opacity="1" stop-color="rgb(7.452393%, 79.196167%, 88.005066%)" offset="0.917969"/><stop stop-opacity="1" stop-color="rgb(7.112122%, 79.586792%, 87.811279%)" offset="0.921875"/><stop stop-opacity="1" stop-color="rgb(6.721497%, 79.977417%, 87.805176%)" offset="0.925781"/><stop stop-opacity="1" stop-color="rgb(6.330872%, 80.368042%, 87.799072%)" offset="0.929688"/><stop stop-opacity="1" stop-color="rgb(5.940247%, 80.583191%, 87.799072%)" offset="0.933594"/><stop stop-opacity="1" stop-color="rgb(5.549622%, 80.799866%, 87.799072%)" offset="0.9375"/><stop stop-opacity="1" stop-color="rgb(5.108643%, 81.214905%, 87.786865%)" offset="0.941406"/><stop stop-opacity="1" stop-color="rgb(4.667664%, 81.629944%, 87.776184%)" offset="0.945312"/><stop stop-opacity="1" stop-color="rgb(4.277039%, 82.019043%, 87.637329%)" offset="0.949219"/><stop stop-opacity="1" stop-color="rgb(3.886414%, 82.408142%, 87.5%)" offset="0.953125"/><stop stop-opacity="1" stop-color="rgb(3.495789%, 82.749939%, 87.5%)" offset="0.957031"/><stop stop-opacity="1" stop-color="rgb(3.105164%, 83.093262%, 87.5%)" offset="0.960938"/><stop stop-opacity="1" stop-color="rgb(2.761841%, 83.283997%, 87.5%)" offset="0.964844"/><stop stop-opacity="1" stop-color="rgb(2.418518%, 83.474731%, 87.5%)" offset="0.96875"/><stop stop-opacity="1" stop-color="rgb(2.230835%, 83.865356%, 87.5%)" offset="0.972656"/><stop stop-opacity="1" stop-color="rgb(2.043152%, 84.255981%, 87.5%)" offset="0.976562"/><stop stop-opacity="1" stop-color="rgb(1.602173%, 84.695435%, 87.298584%)" offset="0.980469"/><stop stop-opacity="1" stop-color="rgb(1.161194%, 85.136414%, 87.098694%)" offset="0.984375"/><stop stop-opacity="1" stop-color="rgb(0.775146%, 85.517883%, 87.098694%)" offset="0.988281"/><stop stop-opacity="1" stop-color="rgb(0.389099%, 85.899353%, 87.098694%)" offset="0.992188"/><stop stop-opacity="1" stop-color="rgb(0.193787%, 85.899353%, 87.098694%)" offset="1"/></linearGradient></defs><g clip-path="url(#e6452d32ee)"><path fill="#ffffff" d="M 0 0.199219 L 112.5 0.199219 L 112.5 97.699219 L 0 97.699219 Z M 0 0.199219 " fill-opacity="1" fill-rule="nonzero"/><path fill="#ffffff" d="M 0 0.199219 L 112.5 0.199219 L 112.5 90.199219 L 0 90.199219 Z M 0 0.199219 " fill-opacity="1" fill-rule="nonzero"/><path fill="#ffffff" d="M 0 0.199219 L 112.5 0.199219 L 112.5 90.199219 L 0 90.199219 Z M 0 0.199219 " fill-opacity="1" fill-rule="nonzero"/></g><g clip-path="url(#c5e3110c72)"><g clip-path="url(#4e46fbb544)"><g clip-path="url(#418eaf49e2)"><path fill="url(#1d2ac0b5d0)" d="M 88.492188 39.203125 L 51.742188 39.203125 L 51.742188 75.195312 L 88.492188 75.195312 Z M 88.492188 39.203125 " fill-rule="nonzero"/></g></g></g></svg>