<svg width="65" height="65" viewBox="0 0 65 65" fill="none" xmlns="http://www.w3.org/2000/svg">
<g clip-path="url(#clip0_156_20)">
<path d="M37.9167 32.5C37.9167 29.5073 35.4927 27.0833 32.5 27.0833C29.5073 27.0833 27.0833 29.5073 27.0833 32.5C27.0833 35.4927 29.5073 37.9167 32.5 37.9167C35.4927 37.9167 37.9167 35.4927 37.9167 32.5ZM32.5 8.125C19.0396 8.125 8.125 19.0396 8.125 32.5H0L10.8333 43.3333L21.6667 32.5H13.5417C13.5417 22.0323 22.0323 13.5417 32.5 13.5417C42.9677 13.5417 51.4583 22.0323 51.4583 32.5C51.4583 42.9677 42.9677 51.4583 32.5 51.4583C28.3969 51.4583 24.6187 50.1448 21.5042 47.924L17.6719 51.8104C21.7885 54.9792 26.9208 56.875 32.5 56.875C45.9604 56.875 56.875 45.9604 56.875 32.5C56.875 19.0396 45.9604 8.125 32.5 8.125Z" fill="#622DFA"/>
</g>
<defs>
<clipPath id="clip0_156_20">
<rect width="65" height="65" fill="white"/>
</clipPath>
</defs>
</svg>
