<svg width="65" height="65" viewBox="0 0 65 65" fill="none" xmlns="http://www.w3.org/2000/svg">
<path fill-rule="evenodd" clip-rule="evenodd" d="M46.899 10.7428L51.7536 7.22795L57.7722 13.2465L54.2572 18.101C56.0781 20.8462 57.3932 23.9559 58.0698 27.2975L63.9844 28.2442V36.7557L58.0699 37.7024C57.3936 41.0441 56.0779 44.1533 54.2574 46.8989L57.7722 51.7535L51.7536 57.7721L46.899 54.2572C44.1538 56.0781 41.0441 57.3932 37.7025 58.0698L36.7557 63.9844H28.2442L27.2975 58.0699C23.9558 57.3936 20.8466 56.0779 18.101 54.2574L13.2464 57.7722L7.22782 51.7536L10.7428 46.899C8.92189 44.1538 7.60678 41.0441 6.93024 37.7025L1.01562 36.7557V28.2442L6.93012 27.2973C7.6064 23.9557 8.92214 20.8465 10.7428 18.1008L7.22795 13.2463L13.2465 7.2277L18.101 10.7428C20.8462 8.92201 23.9561 7.60678 27.2975 6.93024L28.2442 1.01562H36.7557L37.7024 6.93012C41.0439 7.60678 44.1534 8.92214 46.899 10.7428ZM32.5 12.5006C21.4546 12.5006 12.5006 21.4547 12.5006 32.5C12.5006 43.5453 21.4546 52.4994 32.5 52.4994C43.5454 52.4994 52.4994 43.5454 52.4994 32.5C52.4994 21.4546 43.5453 12.5006 32.5 12.5006ZM22.7073 19.7609V45.2391H42.365V26.3683H36.7732C36.5039 26.3683 36.2456 26.2613 36.0551 26.0708C35.8646 25.8804 35.7576 25.622 35.7576 25.3527V19.761H22.7073V19.7609ZM37.7889 20.7765V24.3369H41.3494L37.7889 20.7765ZM27.5322 41.1371H37.5399C37.8093 41.1371 38.0676 41.0301 38.2581 40.8397C38.4485 40.6492 38.5555 40.3909 38.5555 40.1215C38.5555 39.8521 38.4485 39.5938 38.2581 39.4033C38.0676 39.2129 37.8093 39.1059 37.5399 39.1059H27.5322C27.2628 39.1059 27.0045 39.2129 26.814 39.4033C26.6236 39.5938 26.5166 39.8521 26.5166 40.1215C26.5166 40.3909 26.6236 40.6492 26.814 40.8397C27.0045 41.0301 27.2628 41.1371 27.5322 41.1371ZM27.5322 25.735H32.4995C32.7689 25.735 33.0272 25.628 33.2176 25.4376C33.4081 25.2471 33.5151 24.9888 33.5151 24.7194C33.5151 24.4501 33.4081 24.1917 33.2176 24.0013C33.0272 23.8108 32.7689 23.7038 32.4995 23.7038H27.5322C27.2628 23.7038 27.0045 23.8108 26.814 24.0013C26.6236 24.1917 26.5166 24.4501 26.5166 24.7194C26.5166 24.9888 26.6236 25.2471 26.814 25.4376C27.0045 25.628 27.2628 25.735 27.5322 25.735ZM27.5322 36.0031H37.5399C37.8093 36.0031 38.0676 35.8961 38.2581 35.7057C38.4485 35.5152 38.5555 35.2569 38.5555 34.9875C38.5555 34.7182 38.4485 34.4598 38.2581 34.2694C38.0676 34.0789 37.8093 33.9719 37.5399 33.9719H27.5322C27.2628 33.9719 27.0045 34.0789 26.814 34.2694C26.6236 34.4598 26.5166 34.7182 26.5166 34.9875C26.5166 35.2569 26.6236 35.5152 26.814 35.7057C27.0045 35.8961 27.2628 36.0031 27.5322 36.0031ZM27.5322 30.8692H37.5399C37.8093 30.8692 38.0676 30.7622 38.2581 30.5717C38.4485 30.3812 38.5555 30.1229 38.5555 29.8535C38.5555 29.5842 38.4485 29.3258 38.2581 29.1354C38.0676 28.9449 37.8093 28.8379 37.5399 28.8379H27.5322C27.2628 28.8379 27.0045 28.9449 26.814 29.1354C26.6236 29.3258 26.5166 29.5842 26.5166 29.8535C26.5166 30.1229 26.6236 30.3812 26.814 30.5717C27.0045 30.7622 27.2628 30.8692 27.5322 30.8692Z" fill="#622DFA"/>
</svg>
