<svg width="65" height="65" viewBox="0 0 65 65" fill="none" xmlns="http://www.w3.org/2000/svg">
<path d="M63.4151 48.3153H39.6581ZM61.6291 12.8483V46.3183H54.8791V14.0983H10.1191V46.3183H3.36914V12.8483C3.36914 10.1683 5.54914 7.98828 8.22914 7.98828H56.7691C59.4491 7.98828 61.6291 10.1683 61.6291 12.8483Z" fill="#622DFA"/>
<path d="M48.27 34.0098L41.09 42.8998C40.9 43.1398 40.62 43.2698 40.31 43.2698C40.01 43.2698 39.73 43.1398 39.54 42.8998L32.34 34.0098C32.2215 33.8627 32.1474 33.6849 32.1261 33.4973C32.1049 33.3096 32.1374 33.1197 32.22 32.9498C32.38 32.5998 32.73 32.3798 33.12 32.3798H35.74V19.3298C35.74 18.7798 36.19 18.3298 36.74 18.3298H43.87C44.43 18.3298 44.87 18.7798 44.87 19.3298V32.3798H47.5C47.6887 32.3803 47.8734 32.4342 48.0327 32.5354C48.192 32.6366 48.3194 32.7809 48.4 32.9516C48.4806 33.1222 48.5112 33.3122 48.4882 33.4995C48.4651 33.6868 48.3895 33.8638 48.27 34.0098ZM31.88 27.9798H29.26V41.0298C29.26 41.5898 28.81 42.0298 28.26 42.0298H21.13C20.57 42.0298 20.13 41.5898 20.13 41.0298V27.9798H17.5C17.12 27.9798 16.77 27.7598 16.6 27.4098C16.5193 27.2389 16.4886 27.0486 16.5116 26.861C16.5346 26.6734 16.6104 26.4962 16.73 26.3498L23.91 17.4598C24.1 17.2198 24.38 17.0898 24.69 17.0898C24.99 17.0898 25.27 17.2198 25.46 17.4598L32.66 26.3498C32.9 26.6498 32.95 27.0598 32.78 27.4098C32.62 27.7598 32.26 27.9798 31.88 27.9798ZM39.66 48.3168L38.683 50.9158H26.317L25.341 48.3168H1.58398V52.1818C1.58451 53.4627 2.09356 54.6909 2.99924 55.5966C3.90493 56.5023 5.13315 57.0113 6.41398 57.0118H58.586C59.8668 57.0113 61.095 56.5023 62.0007 55.5966C62.9064 54.6909 63.4155 53.4627 63.416 52.1818V48.3168H39.66ZM9.70298 53.6638H7.70298V51.6638H9.70298V53.6638ZM13.953 53.6638H11.953V51.6638H13.953V53.6638ZM18.203 53.6638H16.203V51.6638H18.203V53.6638Z" fill="#622DFA"/>
</svg>
