<svg width="64" height="64" viewBox="0 0 64 64" fill="none" xmlns="http://www.w3.org/2000/svg">
<path d="M46.2862 23.916V20.462C46.2849 19.8007 46.0216 19.1668 45.554 18.6992C45.0864 18.2316 44.4525 17.9683 43.7912 17.967H39.4392C38.7777 17.9675 38.1434 18.2306 37.6756 18.6984C37.2078 19.1661 36.9447 19.8004 36.9442 20.462V24.354H33.0522C32.3907 24.3545 31.7564 24.6176 31.2886 25.0854C30.8208 25.5531 30.5577 26.1874 30.5572 26.849V31.202C30.5572 31.762 30.7452 32.285 31.0662 32.702C26.5512 28.702 19.0742 21.351 19.0742 16.515C19.0742 10.707 23.7802 6.001 29.5882 6.001C31.3352 6.001 32.9782 6.793 34.4272 7.549C35.8752 6.793 37.5222 6 39.2692 6C45.0782 6 49.7842 10.706 49.7842 16.514C49.7842 18.656 48.3142 21.294 46.2862 23.914V23.916Z" fill="#622DFA"/>
<path d="M50.1765 26.1945H44.4455V20.4635C44.4455 20.2904 44.3767 20.1243 44.2543 20.0018C44.1318 19.8793 43.9657 19.8105 43.7925 19.8105H39.4395C39.2663 19.8105 39.1003 19.8793 38.9778 20.0018C38.8553 20.1243 38.7865 20.2904 38.7865 20.4635V26.1945H33.0555C32.8823 26.1945 32.7162 26.2633 32.5938 26.3858C32.4713 26.5083 32.4025 26.6744 32.4025 26.8475V31.2005C32.4025 31.5605 32.6945 31.8535 33.0555 31.8535H38.7865V37.5835C38.7865 37.9455 39.0785 38.2375 39.4395 38.2375H43.7925C44.1525 38.2375 44.4455 37.9455 44.4455 37.5845V31.8535H50.1765C50.5365 31.8535 50.8295 31.5605 50.8295 31.2005V26.8475C50.8295 26.6744 50.7607 26.5083 50.6383 26.3858C50.5158 26.2633 50.3497 26.1945 50.1765 26.1945ZM61.4435 46.1595C59.2105 48.2245 54.7695 51.6795 48.9615 54.4855C40.8595 58.4045 31.5495 59.1255 23.0695 56.2395C22.4484 56.0212 21.8395 55.7695 21.2455 55.4855C20.4285 55.1075 18.6365 54.5155 16.0855 55.0255C15.9227 55.0503 15.7565 55.0396 15.5982 54.9942C15.4399 54.9488 15.2932 54.8698 15.1683 54.7625C15.0433 54.6552 14.943 54.5222 14.8742 54.3726C14.8054 54.223 14.7697 54.0602 14.7695 53.8955V41.8705C14.7695 41.2705 15.2375 40.7825 15.8375 40.7365C17.1225 40.6365 18.2445 40.3165 19.0995 39.8635C22.4165 38.1035 26.7785 38.5565 29.3265 40.2485C30.7285 41.1785 32.3325 41.7605 33.9885 42.0505C35.0245 42.2335 42.0185 43.1135 42.0185 43.1135C42.7305 43.11 43.4171 43.3777 43.9388 43.8621C44.4605 44.3465 44.7783 45.0114 44.8276 45.7216C44.8769 46.4319 44.6539 47.1342 44.2041 47.686C43.7542 48.2378 43.1111 48.5977 42.4055 48.6925L33.5835 49.1945C32.4915 49.3485 32.4135 50.9015 33.4855 51.1545C33.4855 51.1545 43.0195 52.3645 49.7885 47.7025C50.0715 47.5075 56.6815 43.4795 58.1005 42.3215C58.6105 41.8856 59.2719 41.6686 59.941 41.7178C60.6101 41.7671 61.2327 42.0785 61.6734 42.5844C62.1141 43.0903 62.3371 43.7497 62.2941 44.4193C62.251 45.0888 61.9453 45.7142 61.4435 46.1595Z" fill="#622DFA"/>
<path d="M56.7841 40.7646C55.7191 41.6106 51.2961 44.3546 49.6301 45.3926C49.0571 45.7336 48.6881 45.9796 48.6201 46.0206C48.0201 46.4436 47.3781 46.8126 46.7091 47.1266C46.8181 46.7436 46.8721 46.3346 46.8721 45.9116C46.8721 45.4196 46.8041 44.9416 46.6681 44.5046L54.3951 39.5216C54.6551 39.3576 54.9551 39.2756 55.2421 39.2756C55.7471 39.2756 56.2381 39.5216 56.5391 39.9856C56.6891 40.2316 56.7711 40.4906 56.7841 40.7646ZM51.6101 39.4396L45.9441 43.0846C45.2759 42.1387 44.2858 41.4689 43.1591 41.2006L49.9311 36.8456C50.1911 36.6686 50.4771 36.5996 50.7631 36.5996C51.2691 36.5996 51.7731 36.8456 52.0611 37.2966C52.5251 38.0196 52.3201 38.9756 51.6101 39.4396ZM10.6841 39.5216H2.48414C2.28779 39.5219 2.09957 39.6001 1.96082 39.739C1.82207 39.8779 1.74414 40.0663 1.74414 40.2626V56.1606C1.74414 56.5696 2.07614 56.9006 2.48414 56.9006H10.6841C11.8081 56.9006 12.7181 55.9906 12.7181 54.8676V41.5556C12.7181 40.4326 11.8081 39.5216 10.6841 39.5216Z" fill="#622DFA"/>
</svg>
