<svg width="65" height="65" viewBox="0 0 65 65" fill="none" xmlns="http://www.w3.org/2000/svg">
<path d="M61.3939 52.726L47.625 38.9135C47.235 38.5387 46.7151 38.3294 46.1742 38.3294C45.6334 38.3294 45.1135 38.5387 44.7234 38.9135L43.259 40.3645L36.4156 33.5199L42.164 27.7703C42.3405 28.028 42.5704 28.2447 42.838 28.4057C43.1056 28.5666 43.4048 28.6681 43.7151 28.7031C44.0254 28.7382 44.3396 28.706 44.6364 28.6089C44.9332 28.5117 45.2056 28.3518 45.4351 28.1399L49.9244 23.6361C50.1164 23.4464 50.2689 23.2205 50.3729 22.9714C50.4769 22.7223 50.5305 22.455 50.5305 22.1851C50.5305 21.9151 50.4769 21.6478 50.3729 21.3988C50.2689 21.1497 50.1164 20.9237 49.9244 20.734L32.8023 3.59493C32.4156 3.21371 31.8945 3 31.3515 3C30.8085 3 30.2874 3.21371 29.9007 3.59493L25.3978 8.09873C25.1858 8.32997 25.0267 8.60456 24.9315 8.90345C24.8363 9.20234 24.8072 9.51837 24.8462 9.82962C24.8853 10.1409 24.9916 10.4399 25.1577 10.706C25.3239 10.9721 25.5459 11.1988 25.8084 11.3705L11.3689 25.8128C11.1895 25.5587 10.9585 25.3455 10.6909 25.1872C10.4233 25.0288 10.1252 24.9289 9.81621 24.894C9.50725 24.8591 9.1944 24.89 8.89822 24.9846C8.60204 25.0793 8.32924 25.2355 8.09775 25.4431L3.59482 29.9196C3.21367 30.3063 3 30.8276 3 31.3706C3 31.9137 3.21367 32.4349 3.59482 32.8217L20.7443 49.9471C21.1292 50.3316 21.651 50.5476 22.1951 50.5476C22.7391 50.5476 23.2609 50.3316 23.6459 49.9471L28.1488 45.457C28.3512 45.2282 28.5031 44.9595 28.5948 44.6682C28.6865 44.3769 28.7159 44.0695 28.6811 43.7661C28.6462 43.4627 28.5479 43.17 28.3925 42.907C28.2372 42.6441 28.0282 42.4168 27.7793 42.24L33.5277 36.4904L40.3711 43.3351L38.9203 44.7999C38.7283 44.9896 38.5758 45.2156 38.4718 45.4646C38.3677 45.7137 38.3141 45.981 38.3141 46.251C38.3141 46.5209 38.3677 46.7882 38.4718 47.0373C38.5758 47.2864 38.7283 47.5123 38.9203 47.702L52.7165 61.4051C53.1032 61.7863 53.6243 62 54.1673 62C54.7102 62 55.2314 61.7863 55.6181 61.4051L61.3939 55.6282C61.5859 55.4384 61.7383 55.2125 61.8424 54.9634C61.9464 54.7143 62 54.447 62 54.1771C62 53.9071 61.9464 53.6399 61.8424 53.3908C61.7383 53.1417 61.5859 52.9157 61.3939 52.726Z" fill="#622DFA"/>
</svg>
