<svg width="65" height="65" viewBox="0 0 65 65" fill="none" xmlns="http://www.w3.org/2000/svg">
<g clip-path="url(#clip0_157_50)">
<path fill-rule="evenodd" clip-rule="evenodd" d="M64.9977 9.50461V58.2066C64.9991 58.386 64.9651 58.564 64.8977 58.7303C64.8302 58.8966 64.7307 59.048 64.6046 59.1758C64.4786 59.3036 64.3286 59.4052 64.1633 59.475C63.9979 59.5447 63.8204 59.5812 63.6409 59.5823H1.35801C1.17867 59.5812 1.0013 59.5447 0.836087 59.4749C0.670873 59.4052 0.521065 59.3035 0.39526 59.1756C0.269454 59.0478 0.170128 58.8964 0.102981 58.7301C0.0358339 58.5638 0.0021879 58.3859 0.00397379 58.2066V9.50461C0.00397379 8.74364 0.610582 8.12891 1.36072 8.12891H63.6436C64.3992 8.12891 64.9977 8.74635 64.9977 9.50461ZM62.2896 55.531V13.545H2.71204V55.531C2.7149 55.8882 2.85882 56.2298 3.11244 56.4814C3.36606 56.733 3.70884 56.8742 4.06608 56.8742H60.9356C61.6992 56.8742 62.2896 56.273 62.2896 55.531ZM4.06608 12.191C4.42519 12.191 4.7696 12.0484 5.02353 11.7944C5.27746 11.5405 5.42012 11.1961 5.42012 10.837C5.42012 10.4779 5.27746 10.1335 5.02353 9.87953C4.7696 9.6256 4.42519 9.48294 4.06608 9.48294C3.70697 9.48294 3.36256 9.6256 3.10863 9.87953C2.8547 10.1335 2.71204 10.4779 2.71204 10.837C2.71204 11.1961 2.8547 11.5405 3.10863 11.7944C3.36256 12.0484 3.70697 12.191 4.06608 12.191ZM8.12819 12.191C8.4873 12.191 8.8317 12.0484 9.08563 11.7944C9.33957 11.5405 9.48222 11.1961 9.48222 10.837C9.48222 10.4779 9.33957 10.1335 9.08563 9.87953C8.8317 9.6256 8.4873 9.48294 8.12819 9.48294C7.76907 9.48294 7.42467 9.6256 7.17074 9.87953C6.91681 10.1335 6.77415 10.4779 6.77415 10.837C6.77415 11.1961 6.91681 11.5405 7.17074 11.7944C7.42467 12.0484 7.76907 12.191 8.12819 12.191ZM12.1903 12.191C12.5494 12.191 12.8938 12.0484 13.1477 11.7944C13.4017 11.5405 13.5443 11.1961 13.5443 10.837C13.5443 10.4779 13.4017 10.1335 13.1477 9.87953C12.8938 9.6256 12.5494 9.48294 12.1903 9.48294C11.8312 9.48294 11.4868 9.6256 11.2328 9.87953C10.9789 10.1335 10.8363 10.4779 10.8363 10.837C10.8363 11.1961 10.9789 11.5405 11.2328 11.7944C11.4868 12.0484 11.8312 12.191 12.1903 12.191Z" fill="#622DFA"/>
<path fill-rule="evenodd" clip-rule="evenodd" d="M28.6785 22.7793L29.0577 20.2771C29.1286 19.9102 29.3238 19.5791 29.6104 19.3393C29.897 19.0996 30.2575 18.966 30.6311 18.9609H34.3736C35.1535 18.9609 35.8414 19.5486 35.9497 20.2771L36.3261 22.782C37.1115 23.0258 37.8697 23.3399 38.5874 23.719L40.6238 22.2133C40.9341 22.005 41.3065 21.9096 41.6788 21.9432C42.051 21.9767 42.4004 22.1371 42.6684 22.3975L45.3142 25.0433C45.8667 25.593 45.9371 26.4975 45.4984 27.0879L43.9927 29.1243C44.3718 29.842 44.6886 30.5975 44.9297 31.3856L47.4346 31.7647C47.8015 31.8357 48.1326 32.0309 48.3724 32.3174C48.6121 32.604 48.7457 32.9645 48.7508 33.3381V37.0806C48.7494 37.4555 48.6172 37.8182 48.3769 38.106C48.1366 38.3938 47.8033 38.5886 47.4346 38.6567L44.9297 39.0332C44.6896 39.8149 44.3759 40.572 43.9927 41.2944L45.4984 43.3309C45.7067 43.6411 45.802 44.0136 45.7685 44.3858C45.735 44.758 45.5746 45.1074 45.3142 45.3755L42.6684 48.0212C42.4025 48.2853 42.0526 48.4482 41.6793 48.4819C41.306 48.5155 40.9327 48.4177 40.6238 48.2054L38.5874 46.6997C37.865 47.0829 37.1078 47.3966 36.3261 47.6367L35.947 50.1417C35.8751 50.508 35.6796 50.8386 35.3932 51.0782C35.1069 51.3178 34.7469 51.4517 34.3736 51.4578H30.6311C30.2561 51.4565 29.8935 51.3242 29.6057 51.0839C29.3179 50.8436 29.1231 50.5103 29.055 50.1417L28.6785 47.6367C27.8968 47.3966 27.1397 47.0829 26.4173 46.6997L24.3808 48.2054C24.0705 48.4137 23.6981 48.5091 23.3259 48.4755C22.9537 48.442 22.6043 48.2816 22.3362 48.0212L19.6904 45.3755C19.4264 45.1095 19.2634 44.7597 19.2298 44.3864C19.1962 44.0131 19.294 43.6397 19.5063 43.3309L21.012 41.2944C20.6288 40.572 20.315 39.8149 20.075 39.0332L17.57 38.654C17.2041 38.5822 16.8738 38.3871 16.6343 38.1013C16.3948 37.8155 16.2606 37.4562 16.2539 37.0833V33.3381C16.2539 32.5582 16.8416 31.8703 17.57 31.762L20.075 31.3856C20.3187 30.6002 20.6329 29.842 21.012 29.1243L19.5063 27.0879C19.298 26.7776 19.2026 26.4051 19.2361 26.0329C19.2697 25.6607 19.4301 25.3113 19.6904 25.0433L22.3362 22.3975C22.6022 22.1334 22.952 21.9705 23.3253 21.9369C23.6986 21.9032 24.072 22.001 24.3808 22.2133L26.4173 23.719C27.1397 23.3358 27.8968 23.0221 28.6785 22.782V22.7793ZM32.5023 43.3336C34.657 43.3336 36.7234 42.4776 38.247 40.954C39.7706 39.4305 40.6265 37.364 40.6265 35.2094C40.6265 33.0547 39.7706 30.9883 38.247 29.4647C36.7234 27.9411 34.657 27.0851 32.5023 27.0851C30.3477 27.0851 28.2812 27.9411 26.7576 29.4647C25.2341 30.9883 24.3781 33.0547 24.3781 35.2094C24.3781 37.364 25.2341 39.4305 26.7576 40.954C28.2812 42.4776 30.3477 43.3336 32.5023 43.3336Z" fill="#622DFA"/>
</g>
<defs>
<clipPath id="clip0_157_50">
<rect width="65" height="65" fill="white"/>
</clipPath>
</defs>
</svg>
