<svg width="75" height="75" viewBox="0 0 75 75" fill="none" xmlns="http://www.w3.org/2000/svg">
<g clip-path="url(#clip0_10994_2455)">
<path d="M4.83695 24.5972H4.75098V31.4313H4.83695V24.5972Z" fill="#E8EBF0"/>
<path d="M3.96976 24.5972H3.88379V31.4313H3.96976V24.5972Z" fill="#E8EBF0"/>
<path d="M68.9446 20.7972C68.9446 20.7972 64.4525 25.1643 65.8209 26.7218C67.1893 28.2794 70.9775 29.844 70.502 25.9784C70.0265 22.1128 69.6664 22.481 69.8187 20.9349C69.2993 20.603 68.9437 20.7972 68.9437 20.7972H68.9446Z" fill="#C65827"/>
<path d="M64.5577 19.1777C64.5577 19.1777 63.1104 20.594 63.5439 22.1295C63.9774 23.6658 65.5527 24.3678 66.7079 23.3153C67.8632 22.2619 64.5568 19.1777 64.5568 19.1777H64.5577Z" fill="#95421D"/>
<path d="M66.7056 24.775C66.728 24.3344 66.7056 23.9018 66.6698 23.5354C66.6582 23.4215 66.6465 23.3146 66.6331 23.2149C66.5776 22.7893 66.5149 22.5103 66.5149 22.5103L67.217 22.5518L68.6535 22.6374C68.6535 22.6374 68.623 22.852 68.6186 23.2263C68.615 23.4948 68.6248 23.8444 68.6687 24.2559C68.7063 24.6108 68.7681 25.0108 68.8684 25.4434C68.9329 25.7216 69.0135 26.0121 69.1129 26.3123L66.3555 26.3599C66.5274 26.0015 66.625 25.5856 66.6734 25.1618C66.6877 25.0329 66.6976 24.9031 66.7047 24.7742L66.7056 24.775Z" fill="#FBA284"/>
<path d="M57.3065 38.0015C57.3065 38.0015 56.5336 38.269 56.2542 38.4244C56.1109 38.624 55.9103 39.0522 55.8485 39.1855C55.8387 39.2076 55.8485 39.2341 55.8718 39.2438C55.9515 39.2773 56.0447 39.2535 56.0975 39.1846L56.5847 38.5604L57.208 38.4244L57.3056 38.0015H57.3065Z" fill="#F1A19A"/>
<path d="M57.3064 38.0015C57.3064 38.0015 56.6903 38.269 56.41 38.4244C56.2676 38.624 56.0661 39.0522 56.0052 39.1855C55.9944 39.2076 56.0052 39.2341 56.0284 39.2438C56.1081 39.2773 56.2013 39.2535 56.2541 39.1846L56.7413 38.5604L57.3646 38.4244L57.3055 38.0015H57.3064Z" fill="#FBA284"/>
<path d="M47.7717 55.9288C47.6364 56.1919 47.5039 56.4577 47.3767 56.7252H45.4199C45.5614 56.4083 45.7334 55.9429 45.9223 55.3726C46.1552 55.505 46.8179 55.8361 47.7717 55.9297V55.9288Z" fill="#FBA284"/>
<path d="M45.4189 56.7256C44.9156 57.3075 43.8418 57.6924 43.1218 57.8973C42.6982 58.0182 42.4062 58.3988 42.4062 58.8341H47.8092L47.8235 58.6504C47.8764 57.9785 47.7196 57.3075 47.3766 56.7256H45.4198H45.4189Z" fill="#272C32"/>
<path d="M51.6674 40.3359C50.3492 40.9858 49.399 42.1875 49.0811 43.6055C48.7255 45.1913 48.1094 47.6742 47.4628 50.0855C47.461 50.0908 45.8311 55.3162 45.8311 55.3162C45.8311 55.3162 45.8624 55.3374 45.9233 55.3718C46.1561 55.5043 46.8189 55.8354 47.7726 55.929C47.8658 55.9378 47.9616 55.9448 48.0601 55.9484C50.4029 51.4409 50.8095 50.7071 50.8677 50.6038C52.16 48.4653 53.2015 46.5996 53.3296 45.1189C53.5141 42.9901 51.6692 40.3359 51.6692 40.3359H51.6674Z" fill="#272C32"/>
<path d="M51.6738 40.3362L52.5551 44.1373C52.5551 44.1373 61.7794 45.3302 66.4721 45.2428C66.7498 45.2375 67.0229 45.0591 67.2692 44.8136C67.9427 44.1435 68.2059 43.1713 68.0018 42.2495L67.7653 41.1794C67.4653 39.8241 66.2097 39.1362 61.0226 39.1362C57.6544 39.1362 51.6747 40.3362 51.6747 40.3362H51.6738Z" fill="#272C32"/>
<path d="M68.0847 36.5519C67.8402 37.8596 68.7725 39.5796 68.7528 42.9904L60.8154 38.8503C61.4092 38.46 61.8659 37.8048 62.2161 37.0508C62.3854 36.6879 62.5295 36.3029 62.6522 35.9127C63.1663 34.2818 63.3123 32.5751 63.3418 32.1504C63.3454 32.0903 63.3212 32.0312 63.2738 31.9915C62.1588 31.0449 63.014 29.1351 64.1183 28.1974C66.3545 26.2973 66.5372 25.7216 68.9579 25.7993C70.1212 26.805 70.4078 28.2565 69.5517 31.5773C68.9221 34.0196 68.6462 33.5428 68.0838 36.551L68.0847 36.5519Z" fill="#6278A1"/>
<path d="M52.2969 40.3952L52.9587 44.2246C52.9587 44.2246 61.7746 45.8828 66.5453 45.8828C68.9427 45.8828 71.4503 39.2394 62.1158 39.8213C58.6993 40.0349 52.2969 40.3943 52.2969 40.3943V40.3952Z" fill="#343B43"/>
<path d="M53.3641 55.6093C53.2952 55.9775 53.2298 56.3492 53.1707 56.7254H51.2139C51.2569 56.396 51.2819 55.9554 51.2927 55.4336C51.5685 55.5607 52.3082 55.8239 53.3641 55.6093Z" fill="#FBA284"/>
<path d="M55.2622 44.5193C54.8279 42.4267 52.2961 40.395 52.2961 40.395C51.2187 41.3866 50.6519 42.8037 50.7539 44.2527C50.8659 45.8429 51.0271 48.1006 51.1444 50.2956L51.1713 55.3717C51.1713 55.3717 51.2125 55.3973 51.2913 55.4327C51.5671 55.5598 52.3069 55.8229 53.3627 55.6084C53.6099 55.558 53.8759 55.4821 54.1562 55.3709C54.81 49.7049 54.8753 49.1381 54.8816 49.0816C55.2855 47.2856 55.5148 45.7404 55.2604 44.5184L55.2622 44.5193Z" fill="#343B43"/>
<path d="M51.2148 56.7256C50.7115 57.3075 49.6377 57.6924 48.9177 57.8973C48.4941 58.0182 48.2021 58.3988 48.2021 58.8341H53.6051L53.6194 58.6504C53.6723 57.9785 53.5155 57.3075 53.1725 56.7256H51.2157H51.2148Z" fill="#272C32"/>
<path d="M69.4935 27.6469C69.4935 28.1326 69.2419 29.5912 68.9275 31.2203C68.8317 31.7165 68.7314 32.2277 68.6293 32.7328C68.1789 34.9684 67.7212 37.069 67.7212 37.069L66.6985 36.7732L65.7689 36.5039C65.7689 36.5039 65.7393 34.549 65.8208 32.2674C65.8235 32.1844 65.8271 32.1006 65.8298 32.0167C65.8387 31.7801 65.8504 31.5408 65.862 31.2997C65.9373 29.7713 66.068 28.2005 66.2946 27.0403C66.3 27.013 66.3053 26.9865 66.3116 26.9609C66.6716 25.5031 68.744 25.3919 69.3126 26.7825C69.421 27.0483 69.4926 27.3405 69.4926 27.6469H69.4935Z" fill="#FBA284"/>
<path d="M67.7226 37.0692C67.7226 37.0692 67.4961 38.0748 67.1002 38.4245C66.4088 38.4925 59.024 38.5887 59.024 38.5887L58.793 37.6581C60.0082 37.5036 60.9996 37.3173 61.8388 37.1354C63.6236 36.7478 64.7118 36.3822 65.7685 36.399C65.8187 36.399 65.8688 36.4008 65.919 36.4043C67.0196 36.4608 67.7226 37.0683 67.7226 37.0683V37.0692Z" fill="#FBA284"/>
<path d="M58.7919 37.6582C58.7919 37.6582 57.6196 37.924 57.3061 38.0017C57.179 38.2719 57.3652 38.4246 57.3652 38.4246H58.9826L58.7919 37.6582V37.6582Z" fill="#FBA284"/>
<path d="M71.6339 28.2932C70.9336 28.3126 70.3488 27.7679 70.3291 27.0774L70.012 17.4328C69.9995 16.9931 70.3506 16.6276 70.7957 16.6161L71.4888 16.5967C72.1381 16.5781 72.679 17.0832 72.6969 17.7225L72.9996 26.869C73.022 27.6336 72.4095 28.272 71.6339 28.2941V28.2932Z" fill="#E7D6CC"/>
<path d="M69.6907 58.4383H56.7373C56.7373 53.0125 60.5291 45.043 60.5291 45.043H69.6907V58.4383Z" fill="#4E4E5A"/>
<path d="M69.8266 43.9241L68.7716 43.7837C68.3131 43.7228 67.9907 43.306 68.0525 42.8539L70.2377 26.9016C70.2995 26.4495 70.7222 26.1316 71.1807 26.1925L72.2357 26.3329C72.6942 26.393 73.0166 26.8097 72.9539 27.2627L70.7688 43.2159C70.707 43.668 70.2843 43.985 69.8257 43.9241H69.8266Z" fill="#E7D6CC"/>
<path d="M55.458 44.0758C55.4633 43.3854 56.0356 42.8291 56.7368 42.8335L69.9778 42.868C70.4229 42.8715 70.782 43.23 70.7784 43.6697L70.773 44.3531C70.7676 44.9932 70.2375 45.508 69.5882 45.5027L56.8524 45.4727C56.0759 45.4674 55.4508 44.8414 55.4571 44.075L55.458 44.0758Z" fill="#E7D6CC"/>
<path d="M57.0332 40.2061H69.1574C69.864 40.2061 70.4371 39.641 70.4371 38.9444C70.4371 38.6574 70.2007 38.4243 69.9097 38.4243H57.1783C56.6392 38.4243 56.2021 38.8552 56.2021 39.3867C56.2021 39.8388 56.5747 40.2061 57.0332 40.2061V40.2061Z" fill="#E7D6CC"/>
<path d="M68.9387 32.0017C68.8814 32.022 68.8231 32.0406 68.764 32.0573C67.6616 32.3699 66.2923 32.0414 65.8346 31.9125C65.7343 31.8852 65.6779 31.8657 65.6779 31.8657C65.6779 31.8657 64.888 25.2912 68.1479 25.6515C70.5856 25.9199 69.373 29.7811 68.9378 32.0017H68.9387Z" fill="#8193B4"/>
<path d="M65.679 31.9267C65.6477 31.9267 65.6208 31.9037 65.6172 31.8728C65.5993 31.7262 65.1963 28.2509 66.2799 26.5212C66.2978 26.493 66.3363 26.4841 66.3659 26.5018C66.3946 26.5194 66.4044 26.5574 66.3865 26.5857C65.3253 28.2792 65.7363 31.8234 65.7408 31.8587C65.7444 31.8922 65.7202 31.9223 65.6862 31.9267C65.6835 31.9267 65.6808 31.9267 65.679 31.9267V31.9267Z" fill="#4A5A79"/>
<path d="M68.7651 32.0574C68.7212 32.2826 68.6755 32.5086 68.6308 32.7329C67.5382 32.7823 66.3175 32.4291 65.8223 32.2675C65.8267 32.1501 65.8312 32.0318 65.8366 31.9126C66.2942 32.0415 67.6627 32.37 68.766 32.0574H68.7651Z" fill="#F18D73"/>
<path opacity="0.5" d="M65.8215 32.2669C65.7517 34.2385 65.7633 35.9665 65.7678 36.3991C64.788 36.3832 63.7814 36.6967 62.2178 37.0507C62.387 36.6878 62.5312 36.3029 62.6539 35.9126C64.5704 35.133 65.7642 32.0391 65.7642 32.0391L65.8305 32.0161C65.8278 32.1 65.8242 32.1839 65.8215 32.2669Z" fill="#4A5A79"/>
<path d="M69.1666 21.8715C68.8863 22.4057 68.5209 22.1611 68.3382 22.6185C68.332 22.6335 68.3257 22.6503 68.3194 22.6679C68.143 23.1942 68.0714 23.6427 67.8036 23.9915C67.4892 24.267 67.1041 24.4798 66.7101 24.6325C66.4405 24.7376 66.1665 24.8144 65.9086 24.8638C65.6569 24.9115 65.399 24.8374 65.2029 24.6581C64.7613 24.2564 64.4381 23.8184 64.3592 23.2268C64.2724 22.5646 64.4739 21.936 64.4551 21.3638C64.4515 21.2737 64.4434 21.1828 64.4273 21.0954L64.4174 21.0477C64.2768 20.3934 64.2804 19.9926 64.5186 19.1891C65.064 17.3463 68.4851 17.7357 69.1675 19.5776C69.3413 20.0455 69.5902 21.0636 69.1666 21.8724V21.8715Z" fill="#FBA284"/>
<path d="M66.614 21.0313C66.6847 21.0428 66.7134 21.1266 66.6632 21.1761C66.3829 21.4577 66.271 21.599 65.9754 21.599C65.9154 21.599 65.8644 21.5884 65.8205 21.5708C65.6091 21.4878 65.5742 21.2458 65.5742 21.2458C65.5742 21.2458 65.6288 21.041 65.85 20.9553C65.8751 20.9456 65.9029 20.9377 65.9324 20.9306C66.1474 20.8865 66.3605 20.9907 66.6131 21.0313H66.614Z" fill="white"/>
<path d="M65.5391 21.3012C65.5462 21.2694 65.557 21.2394 65.5704 21.2094C65.5838 21.1793 65.5991 21.1493 65.617 21.122C65.6528 21.0663 65.6985 21.0142 65.7549 20.9745C65.8104 20.9339 65.8767 20.9056 65.9456 20.8933C66.0146 20.8809 66.0845 20.8836 66.1507 20.8915C66.217 20.8994 66.2824 20.9136 66.346 20.9295C66.4096 20.9445 66.4722 20.9613 66.5349 20.9771C66.6603 21.0081 66.7857 21.0354 66.9164 21.0451C66.7866 21.0663 66.6522 21.0557 66.5233 21.0345C66.3934 21.0142 66.2672 20.9824 66.1418 20.9666C66.1104 20.963 66.0791 20.9604 66.0486 20.9595C66.0173 20.9586 65.9877 20.9595 65.9573 20.9648C65.8973 20.9727 65.84 20.993 65.788 21.0248C65.7352 21.0566 65.6886 21.0972 65.6474 21.1449C65.6062 21.1926 65.5695 21.2456 65.54 21.303L65.5391 21.3012Z" fill="#95421D"/>
<path d="M66.0848 21.2598C66.0848 21.4161 65.9719 21.545 65.8215 21.5715C65.6101 21.4885 65.5752 21.2465 65.5752 21.2465C65.5752 21.2465 65.6298 21.0417 65.851 20.9561C65.9863 20.9931 66.0848 21.1159 66.0848 21.2607V21.2598Z" fill="#703216"/>
<path d="M66.17 21.2419C66.17 21.3116 66.1118 21.369 66.0411 21.369C65.9703 21.369 65.9121 21.3116 65.9121 21.2419C65.9121 21.1721 65.9703 21.1147 66.0411 21.1147C66.1118 21.1147 66.17 21.1721 66.17 21.2419Z" fill="white"/>
<path d="M65.5282 20.6293C65.7566 20.5923 66.4623 20.5154 66.8178 20.8889C66.4829 20.7379 65.9993 20.7053 65.5828 20.843C65.5058 20.8686 65.4261 20.8077 65.4342 20.7273C65.4395 20.6753 65.4789 20.6364 65.5282 20.6285V20.6293Z" fill="#95421D"/>
<path d="M64.9987 20.731C64.8133 20.7372 64.4453 20.7469 64.207 21.04C64.456 20.8961 64.6342 20.844 64.9808 20.8793C65.0453 20.8864 65.1008 20.8352 65.0856 20.784C65.0748 20.7504 65.0399 20.7301 64.9996 20.731H64.9987Z" fill="#95421D"/>
<path d="M65.1363 21.2421C65.1363 21.2421 65.1426 21.5405 64.7664 21.5405C64.7145 21.5405 64.6625 21.5264 64.6151 21.5017C64.6043 21.4964 64.5936 21.4902 64.5828 21.484C64.538 21.4575 64.4986 21.424 64.4646 21.3886C64.4619 21.3083 64.4548 21.2271 64.4404 21.1485C64.487 21.1264 64.538 21.1052 64.5963 21.0902C64.6097 21.0867 64.6231 21.084 64.6375 21.0814C64.7001 21.0681 64.7718 21.0619 64.8524 21.0664C65.0082 21.077 65.1363 21.2421 65.1363 21.2421V21.2421Z" fill="white"/>
<path d="M65.1363 21.2421C65.1139 21.2121 65.088 21.1882 65.0584 21.1706C65.0298 21.152 64.9984 21.137 64.9662 21.1264C64.9339 21.1158 64.9008 21.1097 64.8668 21.1061C64.8327 21.1026 64.7969 21.1008 64.762 21.1008C64.6921 21.1008 64.6232 21.1079 64.5551 21.1256C64.487 21.1432 64.4208 21.1706 64.3545 21.2041C64.402 21.1459 64.4655 21.1008 64.5363 21.0708C64.607 21.0408 64.685 21.0267 64.762 21.0249C64.7817 21.0249 64.8005 21.0258 64.8193 21.0276C64.839 21.0276 64.8578 21.0311 64.8775 21.0346C64.916 21.0408 64.9545 21.0532 64.9903 21.0708C65.0262 21.0885 65.0584 21.1123 65.0844 21.1415C65.0978 21.1556 65.1086 21.1715 65.1175 21.1891C65.1265 21.2068 65.1336 21.2245 65.1363 21.243V21.2421Z" fill="#95421D"/>
<path d="M64.753 21.312C64.744 21.3976 64.6894 21.4683 64.6151 21.5018C64.6043 21.4965 64.5936 21.4904 64.5828 21.4842C64.538 21.4577 64.4986 21.4241 64.4646 21.3888C64.4619 21.3085 64.4548 21.2272 64.4404 21.1486C64.487 21.1266 64.538 21.1054 64.5963 21.0904C64.6097 21.0868 64.6231 21.0842 64.6375 21.0815C64.7163 21.1275 64.7646 21.2149 64.753 21.3111V21.312Z" fill="#703216"/>
<path d="M64.8331 21.2951C64.8278 21.3437 64.7839 21.3772 64.7364 21.3719C64.6881 21.3675 64.6531 21.3243 64.6576 21.2766C64.663 21.2289 64.7069 21.1945 64.7552 21.1998C64.8036 21.2042 64.8385 21.2483 64.8331 21.2951Z" fill="white"/>
<path opacity="0.5" d="M64.8555 22.8535C64.8555 22.8535 64.9961 22.8906 65.1895 22.8721C65.5585 22.8359 65.5997 22.948 65.5836 23.1573C65.4322 23.2199 65.2235 23.1678 65.2235 23.1678L64.8555 22.8544V22.8535Z" fill="#F18D73"/>
<path d="M65.3363 21.0911C65.3408 21.1547 65.3408 21.2183 65.3381 21.2818C65.3354 21.3454 65.3291 21.409 65.3211 21.4717C65.313 21.5352 65.3014 21.5979 65.2897 21.6606C65.2763 21.7224 65.262 21.7851 65.2468 21.8469C65.2145 21.9697 65.1769 22.0924 65.1339 22.2116C65.1232 22.2416 64.9996 22.5665 64.9888 22.5966C64.9772 22.6266 64.9655 22.6566 64.9539 22.6857C64.9297 22.7449 64.9046 22.8032 64.8778 22.8614L64.8724 22.8367C64.902 22.8632 64.9324 22.8906 64.962 22.9171L65.0506 22.9992L65.1384 23.0813C65.1679 23.1096 65.1966 23.1378 65.2253 23.1652C65.1921 23.1413 65.1608 23.1166 65.1285 23.0928L65.0327 23.0195L64.9378 22.9444C64.9064 22.9197 64.8751 22.8941 64.8438 22.8685C64.8617 22.7855 64.8841 22.7264 64.9064 22.6672C64.9172 22.6372 65.0408 22.3131 65.0506 22.2831C65.0614 22.254 65.0721 22.224 65.082 22.1939C65.1232 22.0739 65.1617 21.9538 65.1957 21.8328C65.2297 21.711 65.2602 21.5891 65.2862 21.4646C65.2987 21.4028 65.3094 21.3401 65.3184 21.2783C65.3265 21.2156 65.3345 21.1529 65.339 21.0894L65.3363 21.0911Z" fill="#F18D73"/>
<path d="M65.4083 23.0514C65.4325 23.0682 65.445 23.0911 65.437 23.1017C65.4289 23.1132 65.4029 23.1079 65.3788 23.0911C65.3546 23.0743 65.342 23.0514 65.3501 23.0399C65.3582 23.0293 65.3841 23.0337 65.4083 23.0505V23.0514Z" fill="#F18D73"/>
<path d="M64.9932 23.854C65.0809 23.8681 65.4006 23.8946 65.4875 23.8866C65.5735 23.8796 65.9425 23.8001 66.0293 23.7798C65.9523 23.8231 65.6093 23.9255 65.5198 23.9343C65.4302 23.9414 65.0747 23.8919 64.9932 23.8548V23.854Z" fill="#F18D73"/>
<path d="M64.3242 20.3239C64.3242 20.3239 64.7631 20.8192 65.5073 20.1199C65.9667 19.6882 67.5232 19.297 67.3047 20.7398C67.1318 21.8797 67.4247 22.1136 68.3444 22.0342C69.2633 21.9556 69.8042 21.809 69.8445 20.6382C69.8839 19.4665 70.1964 17.1797 67.3154 17.1797C64.8589 17.1797 63.5245 18.6304 64.3251 20.3239H64.3242Z" fill="#C65827"/>
<path d="M69.237 22.0499C69.1278 22.4013 68.8887 22.6574 68.6451 22.7183C68.5689 22.736 68.4928 22.736 68.4194 22.7148C68.3845 22.7042 68.3504 22.6892 68.32 22.6689C68.0844 22.5179 67.994 22.1197 68.1212 21.7135C68.2645 21.2535 68.6307 20.9559 68.9388 21.0487C69.2469 21.1423 69.3803 21.5908 69.2379 22.0508L69.237 22.0499Z" fill="#FBA284"/>
<path d="M68.2246 22.5851C68.0921 22.4491 68.0419 22.2514 68.0393 22.065C68.0357 21.8752 68.0831 21.6871 68.1646 21.5158C68.2479 21.3454 68.3724 21.1892 68.5417 21.0911C68.6258 21.0435 68.7226 21.0134 68.8202 21.0152C68.9178 21.0205 69.0127 21.0567 69.079 21.1238C69.0414 21.0964 68.9993 21.0761 68.9554 21.0629C68.9106 21.0505 68.865 21.0461 68.8202 21.047C68.7297 21.0514 68.6429 21.085 68.5667 21.1344C68.4154 21.2333 68.3008 21.3816 68.2228 21.5441C68.144 21.7074 68.0966 21.8858 68.0885 22.0668C68.0849 22.1569 68.0912 22.2487 68.1136 22.337C68.1324 22.4262 68.1709 22.5118 68.2255 22.5869L68.2246 22.5851Z" fill="#F18D73"/>
<path d="M68.6691 24.2554C68.5464 23.9773 68.4515 23.0979 68.4515 23.0979L67.9858 24.0815C67.6321 24.3526 66.9899 24.6483 66.7061 24.7737C66.7087 24.726 66.7096 24.6793 66.7114 24.6316C67.1055 24.4788 67.4906 24.266 67.8049 23.9905C68.0727 23.6418 68.1443 23.1924 68.3208 22.667C68.3512 22.6873 68.3843 22.7023 68.4202 22.7129C68.4936 22.735 68.5697 22.735 68.6459 22.7164C68.6369 22.81 68.6235 22.9849 68.6199 23.225C68.6163 23.4934 68.6261 23.8431 68.67 24.2545L68.6691 24.2554Z" fill="#F18D73"/>
<path d="M69.4936 24.8244C69.4936 24.8244 66.8472 24.631 66.4316 26.6327C66.8221 26.0756 69.1676 26.0809 69.601 26.5515C69.987 25.8998 69.4936 24.8244 69.4936 24.8244V24.8244Z" fill="#C65827"/>
<path d="M65.6703 33.4021C65.6649 33.9584 65.6604 35.0762 65.7061 35.6731C65.7141 35.7782 65.7724 35.8735 65.8664 35.9239C66.3804 36.1976 67.3835 36.1949 67.8268 36.1782C67.9566 36.1737 68.0677 36.0854 68.0999 35.9609C68.2137 35.5221 68.4761 34.4679 68.5943 33.6811C68.6256 33.4719 68.4465 33.2926 68.2334 33.3147C67.2903 33.411 66.4342 33.2582 65.9918 33.154C65.8288 33.1161 65.6729 33.2361 65.6712 33.4013L65.6703 33.4021Z" fill="#343B43"/>
<path d="M61.9298 44.7888H52.0213C47.7745 44.7888 44.3203 41.3823 44.3203 37.1962V30.6208C44.3203 30.5687 44.3633 30.5264 44.4161 30.5264C44.469 30.5264 44.512 30.5687 44.512 30.6208V37.1962C44.512 41.279 47.8811 44.5998 52.0213 44.5998H61.9298C64.3595 44.5998 66.336 42.6511 66.336 40.2557V34.8325C66.336 34.7805 66.379 34.7381 66.4318 34.7381C66.4846 34.7381 66.5276 34.7805 66.5276 34.8325V40.2557C66.5276 42.7553 64.4651 44.7897 61.9298 44.7897V44.7888Z" fill="#343B43"/>
<path d="M44.3864 27.8115H59.2654C59.4337 27.8115 59.5707 27.9466 59.5707 28.1126V30.6167C59.5707 30.7827 59.4337 30.9178 59.2654 30.9178H44.3864C44.2181 30.9178 44.0811 30.7827 44.0811 30.6167V28.1126C44.0811 27.9466 44.2181 27.8115 44.3864 27.8115Z" fill="#50556A"/>
<path d="M43.5615 16.958H58.2066C58.4395 16.958 58.6284 17.1443 58.6284 17.3739V26.8039C58.6284 27.0334 58.4395 27.2197 58.2066 27.2197H43.5615C43.3286 27.2197 43.1396 27.0334 43.1396 26.8039V17.3739C43.1396 17.1443 43.3286 16.958 43.5615 16.958V16.958Z" fill="#50556A"/>
<path d="M43.0732 16.958H57.7183C57.9512 16.958 58.1402 17.1443 58.1402 17.3739V26.803C58.1402 27.0325 57.9512 27.2188 57.7183 27.2188H43.0732C42.8403 27.2188 42.6514 27.0325 42.6514 26.803V17.3739C42.6514 17.1443 42.8403 16.958 43.0732 16.958V16.958Z" fill="#9CA1B7"/>
<path d="M57.6514 26.737V17.4395H43.1405V26.737H57.6514Z" fill="#50556A"/>
<path d="M48.6907 20.0748C48.6701 20.0722 48.6558 20.0589 48.6504 20.0404L48.3173 18.7725L48.0567 19.7764C48.0513 19.7976 48.0352 19.8117 48.0164 19.8108C47.9976 19.8108 47.9814 19.7958 47.977 19.7746L47.8704 19.296L47.5641 19.7914C47.5561 19.8037 47.5435 19.8117 47.531 19.8117L46.6847 19.8196C46.6614 19.8179 46.6426 19.7985 46.6426 19.772C46.6426 19.7455 46.6614 19.7234 46.6838 19.7234L47.5086 19.7155L47.8543 19.1574C47.8632 19.1424 47.8802 19.1345 47.8964 19.138C47.9125 19.1415 47.925 19.1548 47.9295 19.1733L48.0209 19.5848L48.2779 18.5923C48.2832 18.572 48.2994 18.5579 48.3182 18.5579C48.337 18.5579 48.3531 18.5711 48.3585 18.5914L48.7033 19.9044L49.0561 19.1768C49.0642 19.1601 49.0794 19.1504 49.0964 19.1521C49.1125 19.153 49.1269 19.1654 49.1322 19.183L49.2236 19.4682L50.035 19.5601L50.2275 18.4943C50.2311 18.4722 50.2481 18.4564 50.2669 18.4564C50.2866 18.4564 50.3036 18.4696 50.3081 18.4917L50.4398 19.0382L50.7416 18.9217C50.7622 18.9137 50.7846 18.9252 50.7935 18.9482L51.0291 19.5689L51.827 19.7084L52.17 19.1539C52.179 19.1389 52.196 19.1309 52.2112 19.1345C52.2273 19.138 52.2399 19.1521 52.2443 19.1707L52.3366 19.5812L52.5936 18.5897C52.599 18.5694 52.6151 18.5552 52.6339 18.5552C52.6527 18.5552 52.6688 18.5694 52.6742 18.5897L53.019 19.9026L53.3718 19.1742C53.3799 19.1583 53.3951 19.1486 53.4113 19.1495C53.4274 19.1504 53.4417 19.1627 53.4471 19.1804L53.5384 19.4665L54.3498 19.5583L54.5424 18.4926C54.5459 18.4705 54.5629 18.4546 54.5818 18.4546C54.6015 18.4546 54.6185 18.4678 54.6238 18.4899L54.7555 19.0365L55.0573 18.9199C55.0788 18.9111 55.1021 18.9243 55.1101 18.9482L55.3546 19.6925C55.3627 19.7172 55.3519 19.7455 55.3304 19.7552C55.309 19.764 55.2848 19.7517 55.2767 19.7269L55.0466 19.0267L54.7403 19.1442C54.7295 19.1486 54.7179 19.1477 54.708 19.1415C54.6982 19.1353 54.6901 19.1248 54.6874 19.1115L54.5898 18.7071L54.425 19.621C54.4206 19.6448 54.4017 19.6616 54.3803 19.6598L53.5053 19.5609C53.4892 19.5592 53.4757 19.5468 53.4704 19.53L53.4014 19.3137L53.045 20.0492C53.0369 20.066 53.0208 20.0757 53.0038 20.0739C52.9868 20.0722 52.9733 20.0589 52.9679 20.0395L52.6348 18.7716L52.3742 19.7755C52.3688 19.7958 52.3518 19.8108 52.333 19.8099C52.3142 19.8099 52.2981 19.7949 52.2936 19.7737L52.187 19.2952L51.8807 19.7896C51.8718 19.8037 51.8557 19.8117 51.8404 19.809L50.9941 19.6607C50.9798 19.6581 50.9682 19.6475 50.9619 19.6325L50.7326 19.0285L50.4254 19.1468C50.4147 19.1512 50.4022 19.1495 50.3923 19.1433C50.3825 19.1371 50.3744 19.1265 50.3717 19.1133L50.2741 18.7089L50.1084 19.6227C50.1039 19.6475 50.0842 19.6634 50.0636 19.6616L49.1887 19.5627C49.1725 19.5609 49.1591 19.5486 49.1537 19.5318L49.0848 19.3155L48.7275 20.051C48.7203 20.066 48.706 20.0757 48.6907 20.0757V20.0748Z" fill="#6278A1"/>
<path d="M48.7169 25.6708C48.6954 25.669 48.6801 25.654 48.6766 25.6337L48.3103 23.8581L48.0613 25.2558C48.0577 25.2761 48.0434 25.2911 48.0255 25.2938C48.0076 25.2964 47.9906 25.2858 47.9825 25.2673L47.7398 24.6925L47.5634 25.2902C47.558 25.3097 47.5419 25.3229 47.524 25.3229H46.6866C46.6633 25.3238 46.6445 25.3017 46.6445 25.2752C46.6445 25.2487 46.6633 25.2267 46.6866 25.2267H47.4944L47.6932 24.5503C47.6986 24.5318 47.7138 24.5185 47.73 24.5176C47.747 24.5159 47.7631 24.5274 47.7703 24.545L48.0031 25.0977L48.2655 23.6267C48.2691 23.6047 48.2861 23.5888 48.3058 23.5879C48.3255 23.5879 48.3425 23.6029 48.347 23.625L48.7294 25.4774L49.0563 24.6633C49.0643 24.6448 49.0814 24.6333 49.0993 24.636C49.1172 24.6386 49.1324 24.6545 49.1351 24.6757L49.2202 25.2267H50.0387L50.2286 23.9817C50.2322 23.9596 50.2483 23.9428 50.268 23.942C50.2877 23.942 50.3047 23.9552 50.3101 23.9773L50.4417 24.5238L50.7435 24.4073C50.765 24.3993 50.7874 24.4108 50.7955 24.4355L51.0561 25.2258H51.8272L52.1702 24.6395C52.1791 24.6236 52.1961 24.6157 52.2114 24.6183C52.2275 24.6218 52.2409 24.636 52.2445 24.6545L52.3358 25.0651L52.5929 24.0735C52.5982 24.0541 52.6135 24.04 52.6314 24.0391C52.6493 24.0391 52.6654 24.0506 52.6717 24.0691L53.0639 25.1719L53.3729 24.6545C53.3819 24.6395 53.398 24.6315 53.4132 24.6342C53.4293 24.6368 53.4419 24.6501 53.4472 24.6677L53.5995 25.2249H54.3347L54.5416 23.9782C54.5452 23.9561 54.5613 23.9402 54.581 23.9393C54.6007 23.9384 54.6177 23.9526 54.6231 23.9746L54.7548 24.5212L55.0566 24.4046C55.0772 24.3967 55.0996 24.4082 55.1085 24.432L55.4103 25.2531C55.4193 25.2779 55.4094 25.3061 55.3879 25.3167C55.3664 25.3264 55.3423 25.3158 55.3333 25.2911L55.0467 24.5106L54.7395 24.6289C54.7288 24.6333 54.7171 24.6324 54.7064 24.6262C54.6965 24.6201 54.6885 24.6095 54.6858 24.5962L54.59 24.1989L54.41 25.2814C54.4064 25.3044 54.3894 25.3211 54.3688 25.3211H53.5681C53.5502 25.3211 53.5341 25.3079 53.5287 25.2876L53.3935 24.7914L53.089 25.3008C53.0801 25.3158 53.0648 25.3238 53.0505 25.3211C53.0353 25.3194 53.0218 25.3079 53.0165 25.292L52.6394 24.2333L52.3735 25.2602C52.3681 25.2814 52.3511 25.2964 52.3323 25.2946C52.3135 25.2946 52.2973 25.2796 52.2929 25.2584L52.1872 24.7834L51.8836 25.3017C51.8755 25.315 51.863 25.3229 51.8487 25.3229H51.0265C51.0086 25.3229 50.9934 25.3105 50.9871 25.292L50.7301 24.5132L50.4247 24.6315C50.414 24.6351 50.4014 24.6342 50.3916 24.628C50.3817 24.6218 50.3737 24.6112 50.371 24.598L50.2769 24.2086L50.1131 25.2841C50.1095 25.307 50.0925 25.3238 50.0719 25.3238H49.1835C49.1638 25.3247 49.1458 25.3079 49.1423 25.2849L49.0742 24.8452L48.7527 25.6469C48.7464 25.6637 48.7312 25.6743 48.7151 25.6743L48.7169 25.6708Z" fill="white"/>
<path d="M47.4146 22.8351C47.3823 22.8236 47.3725 22.8059 47.3725 22.7865V22.089L47.0832 21.9159C47.0689 21.908 47.0608 21.8912 47.0608 21.8735V21.4435H47.0035V22.3521C47.0035 22.3786 46.9856 22.3998 46.9623 22.3998H46.6847C46.6614 22.3998 46.6426 22.3786 46.6426 22.3521C46.6426 22.3256 46.6614 22.3035 46.6847 22.3035H46.9202V21.395C46.9202 21.3685 46.9381 21.3464 46.9614 21.3464H47.1011C47.1244 21.3464 47.1432 21.3676 47.1432 21.395V21.8435L47.4325 22.0166C47.4459 22.0245 47.4549 22.0413 47.4549 22.0598V22.677L47.797 22.3159C47.805 22.3071 47.8149 22.3027 47.8256 22.3027H48.8734V21.3941C48.8734 21.3809 48.8779 21.3685 48.886 21.3597C48.894 21.3508 48.9039 21.3455 48.9155 21.3455H49.0561C49.0669 21.3455 49.0776 21.35 49.0857 21.3597C49.0937 21.3685 49.0982 21.3809 49.0982 21.3941V21.8426L49.3875 22.0157C49.4018 22.0236 49.4099 22.0404 49.4099 22.0581V22.6753L49.752 22.3133C49.7591 22.3053 49.7699 22.3009 49.7797 22.3009H50.8275V21.3914C50.8275 21.3791 50.832 21.3667 50.8392 21.357C50.8473 21.3482 50.858 21.3429 50.8687 21.3429H51.0094C51.0326 21.3429 51.0514 21.365 51.0514 21.3914V21.84L51.3407 22.0131C51.3541 22.021 51.3631 22.0378 51.3631 22.0563V22.6735L51.7052 22.3124C51.7124 22.3044 51.7231 22.2991 51.733 22.2991H52.7808V21.3906C52.7808 21.3773 52.7853 21.365 52.7933 21.3561C52.8014 21.3473 52.8121 21.342 52.8229 21.342H52.9635C52.9868 21.342 53.0047 21.3632 53.0056 21.3906V21.8391L53.2948 22.0122C53.3083 22.0201 53.3172 22.0369 53.3172 22.0546V22.6717L53.6593 22.3097C53.6665 22.3018 53.6772 22.2974 53.688 22.2974H54.7358V21.3879C54.7358 21.3614 54.7546 21.3394 54.7779 21.3394H54.9185C54.9418 21.3394 54.9606 21.3614 54.9606 21.3879V21.8365L55.2498 22.0095C55.2633 22.0183 55.2722 22.0342 55.2722 22.0528V22.6682L55.6143 22.3C55.6314 22.2815 55.6573 22.2832 55.6734 22.3018C55.6887 22.3212 55.6878 22.3521 55.6717 22.3698L55.2597 22.8139C55.2481 22.8271 55.2301 22.8307 55.2149 22.8227C55.1997 22.8148 55.1898 22.798 55.1898 22.7786V22.081L54.9006 21.908C54.8871 21.9 54.8782 21.8833 54.8782 21.8656V21.4356H54.8218V22.3442C54.8218 22.3706 54.8039 22.3927 54.7806 22.3927H53.7077L53.3074 22.8165C53.2948 22.8298 53.2778 22.8324 53.2626 22.8245C53.2474 22.8174 53.2375 22.7998 53.2375 22.7803V22.0828L52.9482 21.9097C52.9339 21.9009 52.9259 21.885 52.9259 21.8665V21.4365H52.8685V22.3442C52.8685 22.3574 52.865 22.3698 52.8569 22.3786C52.8488 22.3874 52.8381 22.3927 52.8273 22.3927H51.7536L51.3541 22.8165C51.3416 22.8289 51.3237 22.8324 51.3094 22.8245C51.2941 22.8174 51.2843 22.7998 51.2843 22.7803V22.0828L50.995 21.9097C50.9816 21.9018 50.9726 21.885 50.9726 21.8674V21.4374H50.9153V22.3459C50.9153 22.3583 50.9117 22.3706 50.9037 22.3804C50.8956 22.3892 50.8858 22.3945 50.8741 22.3945H49.8012L49.4009 22.8183C49.3884 22.8307 49.3705 22.8342 49.3561 22.8271C49.3409 22.8192 49.3311 22.8015 49.3311 22.783V22.0855L49.0418 21.9124C49.0284 21.9036 49.0194 21.8868 49.0194 21.8691V21.4391H48.9621V22.3468C48.9621 22.3601 48.9585 22.3724 48.9504 22.3812C48.9424 22.391 48.9316 22.3954 48.9209 22.3954H47.848L47.4477 22.8192C47.4396 22.8271 47.4298 22.8316 47.419 22.8316L47.4146 22.8351Z" fill="white"/>
<path d="M44.6572 21.4972H43.4151C43.3676 21.4972 43.3291 21.4592 43.3291 21.4124C43.3291 21.3656 43.3676 21.3276 43.4151 21.3276H44.6572C44.7047 21.3276 44.7432 21.3656 44.7432 21.4124C44.7432 21.4592 44.7047 21.4972 44.6572 21.4972Z" fill="#9CA1B7"/>
<path d="M44.6572 22.1734H43.4151C43.3676 22.1734 43.3291 22.1355 43.3291 22.0887C43.3291 22.0419 43.3676 22.0039 43.4151 22.0039H44.6572C44.7047 22.0039 44.7432 22.0419 44.7432 22.0887C44.7432 22.1355 44.7047 22.1734 44.6572 22.1734Z" fill="#9CA1B7"/>
<path d="M44.6572 22.8488H43.4151C43.3676 22.8488 43.3291 22.8109 43.3291 22.7649C43.3291 22.719 43.3676 22.6802 43.4151 22.6802H44.6572C44.7047 22.6802 44.7432 22.7181 44.7432 22.7649C44.7432 22.8117 44.7047 22.8488 44.6572 22.8488Z" fill="#9CA1B7"/>
<path d="M44.6572 24.1442H43.4151C43.3676 24.1442 43.3291 24.1063 43.3291 24.0595C43.3291 24.0127 43.3676 23.9756 43.4151 23.9756H44.6572C44.7047 23.9756 44.7432 24.0136 44.7432 24.0595C44.7432 24.1054 44.7047 24.1442 44.6572 24.1442Z" fill="#9CA1B7"/>
<path d="M44.6572 24.8204H43.4151C43.3676 24.8204 43.3291 24.7824 43.3291 24.7356C43.3291 24.6888 43.3676 24.6509 43.4151 24.6509H44.6572C44.7047 24.6509 44.7432 24.6888 44.7432 24.7356C44.7432 24.7824 44.7047 24.8204 44.6572 24.8204Z" fill="#9CA1B7"/>
<path d="M44.6572 25.4972H43.4151C43.3676 25.4972 43.3291 25.4592 43.3291 25.4124C43.3291 25.3656 43.3676 25.3276 43.4151 25.3276H44.6572C44.7047 25.3276 44.7432 25.3656 44.7432 25.4124C44.7432 25.4592 44.7047 25.4972 44.6572 25.4972Z" fill="#9CA1B7"/>
<path d="M57.3086 18.7141H56.0664C56.019 18.7141 55.9805 18.6761 55.9805 18.6302C55.9805 18.5843 56.019 18.5454 56.0664 18.5454H57.3086C57.3561 18.5454 57.3946 18.5834 57.3946 18.6302C57.3946 18.677 57.3561 18.7141 57.3086 18.7141Z" fill="#9CA1B7"/>
<path d="M57.3086 19.3904H56.0664C56.019 19.3904 55.9805 19.3525 55.9805 19.3065C55.9805 19.2606 56.019 19.2227 56.0664 19.2227H57.3086C57.3561 19.2227 57.3946 19.2606 57.3946 19.3065C57.3946 19.3525 57.3561 19.3904 57.3086 19.3904Z" fill="#9CA1B7"/>
<path d="M57.3086 20.0657H56.0664C56.019 20.0657 55.9805 20.0277 55.9805 19.9818C55.9805 19.9359 56.019 19.8979 56.0664 19.8979H57.3086C57.3561 19.8979 57.3946 19.9359 57.3946 19.9818C57.3946 20.0277 57.3561 20.0657 57.3086 20.0657Z" fill="#9CA1B7"/>
<path d="M57.3086 21.4972H56.0664C56.019 21.4972 55.9805 21.4592 55.9805 21.4124C55.9805 21.3656 56.019 21.3276 56.0664 21.3276H57.3086C57.3561 21.3276 57.3946 21.3656 57.3946 21.4124C57.3946 21.4592 57.3561 21.4972 57.3086 21.4972Z" fill="#9CA1B7"/>
<path d="M57.3086 22.1734H56.0664C56.019 22.1734 55.9805 22.1355 55.9805 22.0887C55.9805 22.0419 56.019 22.0039 56.0664 22.0039H57.3086C57.3561 22.0039 57.3946 22.0419 57.3946 22.0887C57.3946 22.1355 57.3561 22.1734 57.3086 22.1734Z" fill="#9CA1B7"/>
<path d="M57.3086 22.8488H56.0664C56.019 22.8488 55.9805 22.8109 55.9805 22.7649C55.9805 22.719 56.019 22.6802 56.0664 22.6802H57.3086C57.3561 22.6802 57.3946 22.7181 57.3946 22.7649C57.3946 22.8117 57.3561 22.8488 57.3086 22.8488Z" fill="#9CA1B7"/>
<path d="M57.3086 24.1442H56.0664C56.019 24.1442 55.9805 24.1063 55.9805 24.0595C55.9805 24.0127 56.019 23.9756 56.0664 23.9756H57.3086C57.3561 23.9756 57.3946 24.0136 57.3946 24.0595C57.3946 24.1054 57.3561 24.1442 57.3086 24.1442Z" fill="#9CA1B7"/>
<path d="M57.3086 24.8204H56.0664C56.019 24.8204 55.9805 24.7824 55.9805 24.7356C55.9805 24.6888 56.019 24.6509 56.0664 24.6509H57.3086C57.3561 24.6509 57.3946 24.6888 57.3946 24.7356C57.3946 24.7824 57.3561 24.8204 57.3086 24.8204Z" fill="#9CA1B7"/>
<path d="M57.3086 25.4967H56.0664C56.019 25.4967 55.9805 25.4587 55.9805 25.4119C55.9805 25.3651 56.019 25.3271 56.0664 25.3271H57.3086C57.3561 25.3271 57.3946 25.3651 57.3946 25.4119C57.3946 25.4587 57.3561 25.4967 57.3086 25.4967Z" fill="#9CA1B7"/>
<path d="M47.2797 27.5581H43.9814C43.8793 27.5581 43.7969 27.476 43.7969 27.3762V27.0636C43.7969 26.963 43.8793 26.8809 43.9814 26.8809H47.2797C47.3818 26.8809 47.4642 26.963 47.4642 27.0636V27.3762C47.4642 27.476 47.3818 27.5581 47.2797 27.5581Z" fill="#D7D9E2"/>
<path d="M56.5034 27.5581H53.205C53.1029 27.5581 53.0205 27.476 53.0205 27.3762V27.0636C53.0205 26.963 53.1029 26.8809 53.205 26.8809H56.5034C56.6054 26.8809 56.6878 26.963 56.6878 27.0636V27.3762C56.6878 27.476 56.6054 27.5581 56.5034 27.5581Z" fill="#D7D9E2"/>
<path d="M57.0994 27.8115H42.2214C42.0527 27.8115 41.916 27.9463 41.916 28.1126V30.6158C41.916 30.7821 42.0527 30.9169 42.2214 30.9169H57.0994C57.2681 30.9169 57.4048 30.7821 57.4048 30.6158V28.1126C57.4048 27.9463 57.2681 27.8115 57.0994 27.8115Z" fill="#9CA1B7"/>
<path d="M50.2433 28.8349H42.6981C42.614 28.8349 42.5459 28.7678 42.5459 28.6848C42.5459 28.6018 42.614 28.5347 42.6981 28.5347H50.2433C50.3275 28.5347 50.3955 28.6018 50.3955 28.6848C50.3955 28.7678 50.3275 28.8349 50.2433 28.8349Z" fill="#D7D9E2"/>
<path d="M50.2433 29.8328H42.6981C42.614 29.8328 42.5459 29.7657 42.5459 29.6827C42.5459 29.5997 42.614 29.5317 42.6981 29.5317H50.2433C50.3275 29.5317 50.3955 29.5988 50.3955 29.6827C50.3955 29.7666 50.3275 29.8328 50.2433 29.8328Z" fill="#D7D9E2"/>
<path d="M52.2316 28.6519H51.954V28.7287C51.7981 28.8223 51.6934 28.99 51.6934 29.1834C51.6934 29.3768 51.7981 29.5454 51.954 29.6381V29.7149H52.2316C52.5289 29.7149 52.7698 29.4765 52.7698 29.1834C52.7698 28.8903 52.5289 28.6519 52.2316 28.6519Z" fill="#50556A"/>
<path d="M52.4925 29.1834C52.4925 29.4765 52.2516 29.7149 51.9543 29.7149C51.6569 29.7149 51.416 29.4765 51.416 29.1834C51.416 28.8903 51.6569 28.6519 51.9543 28.6519C52.2516 28.6519 52.4925 28.8903 52.4925 29.1834Z" fill="#D7D9E2"/>
<path d="M54.1583 28.6519H53.8806V28.7287C53.7239 28.8223 53.6191 28.99 53.6191 29.1834C53.6191 29.3768 53.7239 29.5454 53.8806 29.6381V29.7149H54.1583C54.4556 29.7149 54.6974 29.4765 54.6974 29.1834C54.6974 28.8903 54.4565 28.6519 54.1583 28.6519Z" fill="#50556A"/>
<path d="M54.4202 29.1834C54.4202 29.4765 54.1793 29.7149 53.882 29.7149C53.5847 29.7149 53.3438 29.4765 53.3438 29.1834C53.3438 28.8903 53.5847 28.6519 53.882 28.6519C54.1793 28.6519 54.4202 28.8903 54.4202 29.1834Z" fill="#D7D9E2"/>
<path d="M56.0841 28.6519H55.8064V28.7287C55.6506 28.8223 55.5449 28.99 55.5449 29.1834C55.5449 29.3768 55.6497 29.5454 55.8064 29.6381V29.7149H56.0841C56.3814 29.7149 56.6223 29.4765 56.6223 29.1834C56.6223 28.8903 56.3814 28.6519 56.0841 28.6519Z" fill="#50556A"/>
<path d="M55.8078 29.7146C56.105 29.7146 56.346 29.4771 56.346 29.184C56.346 28.8909 56.105 28.6533 55.8078 28.6533C55.5105 28.6533 55.2695 28.8909 55.2695 29.184C55.2695 29.4771 55.5105 29.7146 55.8078 29.7146Z" fill="#D7D9E2"/>
<path d="M46.1078 20.788H43.5814C43.4766 20.788 43.3906 20.7042 43.3906 20.6009V18.11C43.3906 18.0058 43.4757 17.9229 43.5814 17.9229H46.1078C46.2125 17.9229 46.2985 18.0067 46.2985 18.11V20.6009C46.2985 20.7042 46.2134 20.788 46.1078 20.788ZM43.5814 18.0491C43.5473 18.0491 43.5196 18.0765 43.5196 18.11V20.6009C43.5196 20.6344 43.5473 20.6618 43.5814 20.6618H46.1078C46.1418 20.6618 46.1696 20.6344 46.1696 20.6009V18.11C46.1696 18.0756 46.1418 18.0491 46.1078 18.0491H43.5814Z" fill="#9CA1B7"/>
<path d="M45.3937 18.6497C45.2074 18.5623 44.9961 18.5932 44.8447 18.7124C44.6934 18.594 44.482 18.5631 44.2957 18.6497C44.036 18.7724 43.925 19.0788 44.0486 19.3349C44.1722 19.5918 44.8438 20.111 44.8438 20.111C44.8438 20.111 45.5155 19.5918 45.6391 19.3349C45.7627 19.0779 45.6525 18.7715 45.3919 18.6497H45.3937Z" fill="white"/>
<path d="M28.3577 48.1786H30.9907V47.942H28.3577C28.004 47.942 27.6762 47.753 27.5025 47.4502L26.9069 46.4136L26.6982 46.5301L27.2938 47.5667C27.5105 47.9437 27.918 48.1786 28.3586 48.1786H28.3577Z" fill="#14233E"/>
<path d="M23.1985 58.5832C23.0265 58.8993 22.6262 59.0176 22.3065 58.848C21.9859 58.6785 21.865 58.2838 22.0378 57.9677C22.2107 57.6516 22.6101 57.5333 22.9307 57.7028C23.2513 57.8733 23.3722 58.2671 23.1994 58.5832H23.1985Z" fill="#383949"/>
<path d="M25.387 55.0999C25.4023 54.9922 25.3978 54.8845 25.3736 54.7803C25.3208 54.5463 25.1703 54.3344 24.9375 54.2081L24.9025 54.1896C24.667 54.0677 24.4055 54.0616 24.178 54.1463C24.0768 54.1843 23.9819 54.2399 23.9004 54.3123C23.7902 54.4077 23.7025 54.5322 23.6505 54.6805L22.5006 57.5272L22.489 57.5563C22.4782 57.5837 22.4693 57.611 22.4621 57.6375C22.3779 57.9236 22.4388 58.1805 22.618 58.275C22.7165 58.3271 22.8374 58.3227 22.9574 58.2715C23.0774 58.2203 23.1983 58.1205 23.2959 57.9845L23.3201 57.9519L25.2142 55.5096C25.31 55.3851 25.3673 55.2438 25.3879 55.1008L25.387 55.0999Z" fill="#383949"/>
<path d="M24.1063 50.7036H25.584V46.4716H24.1063V50.7036Z" fill="#557190"/>
<path d="M23.8425 55.5205H25.8477V50.7049H23.8425V55.5205Z" fill="#4A4C61"/>
<path d="M27.2823 46.8452H20.2163C19.7963 46.8452 19.456 46.5088 19.456 46.0956V44.9221H27.2832V46.8452H27.2823Z" fill="#4A4C61"/>
<path d="M29.474 46.8452H24.1687C23.7281 46.8452 23.3699 46.4929 23.3699 46.0576V44.9221H30.2344V46.0956C30.2344 46.5097 29.8932 46.8452 29.474 46.8452V46.8452Z" fill="#1B2F52"/>
<path d="M13.3979 42.8947C13.3979 43.0721 13.4131 43.247 13.4427 43.4165C13.6334 44.5025 14.4117 45.3908 15.4425 45.7537H27.8398C26.6469 45.3343 25.7925 44.2129 25.7952 42.8947C25.7952 42.8223 25.7961 42.7499 25.7988 42.6775C25.8758 40.1999 27.1546 37.5228 26.0047 35.5396C24.6247 33.1583 25.1656 26.4328 25.4065 24.0709C25.4522 23.625 25.0975 23.2383 24.6426 23.2383H14.7188C13.791 23.2383 13.0155 23.9358 12.934 24.8479C12.6823 27.6619 12.3563 33.3835 13.6066 35.5396C14.7896 37.5801 13.4006 40.357 13.397 42.8947H13.3979Z" fill="#4A4C61"/>
<path d="M13.8026 29.738C13.8026 30.206 13.8124 30.6748 13.8321 31.1331C13.8518 31.5816 13.8823 32.0222 13.9244 32.4443C13.9736 32.9379 14.0408 33.4076 14.1286 33.8402C14.2289 34.3329 14.356 34.7771 14.5154 35.1514C14.5754 35.2909 14.639 35.4207 14.708 35.5399C14.8934 35.8587 15.0152 36.196 15.0886 36.5465C15.1773 36.965 15.1988 37.4047 15.1773 37.8577C15.1558 38.3115 15.0922 38.7786 15.0116 39.2528C14.9381 39.6854 14.8513 40.1243 14.7698 40.564C14.6829 41.0293 14.6032 41.4964 14.553 41.9599C14.519 42.2734 14.4975 42.5859 14.4975 42.895C14.4957 44.2132 15.3501 45.3346 16.5421 45.754H28.9394C27.7465 45.3346 26.4927 44.2132 26.4927 42.895C26.4927 42.578 26.5142 42.2663 26.5518 41.9599C26.61 41.4822 26.7068 41.0178 26.8151 40.564C26.9235 40.1145 27.0444 39.6784 27.1545 39.2528C27.2799 38.7724 27.3901 38.308 27.4528 37.8577C27.5163 37.4047 27.5316 36.9686 27.4617 36.5465C27.4053 36.2004 27.2925 35.8649 27.1035 35.5399C27.0354 35.4207 26.97 35.2909 26.9109 35.1514C26.7515 34.7779 26.6244 34.3338 26.5241 33.8402C26.4354 33.4085 26.3691 32.9379 26.3199 32.4443C26.2769 32.0222 26.2473 31.5816 26.2276 31.1331C26.207 30.6748 26.1981 30.206 26.1981 29.738C26.1972 29.2983 26.2034 28.8586 26.216 28.4268C26.2294 27.9474 26.25 27.4785 26.2751 27.0309C26.3002 26.5673 26.3297 26.1267 26.3611 25.7197C26.4014 25.1855 26.4444 24.7114 26.482 24.3246C26.4909 24.2346 26.4999 24.1498 26.507 24.0694C26.5527 23.6236 26.1972 23.2368 25.7431 23.2368H15.8194C15.0787 23.2368 14.4357 23.6818 14.1644 24.3246C14.0963 24.4871 14.0515 24.6628 14.0345 24.8464C14.0112 25.1131 13.9862 25.4062 13.9629 25.7197C13.9324 26.1259 13.902 26.5664 13.8769 27.0309C13.8527 27.4785 13.8321 27.9474 13.8187 28.4268C13.8061 28.8586 13.799 29.2983 13.7999 29.738H13.8026Z" fill="#9698AF"/>
<g opacity="0.5">
<path d="M15.1325 25.7212H25.2658C25.496 25.7212 25.6876 25.5473 25.7073 25.3204C25.7208 25.1632 25.736 24.9778 25.7512 24.7994C25.7736 24.5451 25.5694 24.3262 25.3097 24.3262H15.2051C15.0313 24.3262 14.8701 24.4251 14.8012 24.5831C14.7573 24.6873 14.7304 24.7959 14.7206 24.9072C14.7107 25.0246 14.7 25.1376 14.691 25.2489C14.6695 25.5032 14.8737 25.7212 15.1325 25.7212V25.7212Z" fill="#4A4C61"/>
<path d="M15.2345 28.4259L24.8636 28.4092C25.238 28.4083 25.5451 28.1178 25.5595 27.7496C25.5765 27.3567 25.2594 27.0317 24.8627 27.0317H15.2336C14.8602 27.0317 14.553 27.3222 14.5369 27.6904C14.5189 28.1001 14.8369 28.4268 15.2345 28.4259V28.4259Z" fill="#1B2F52"/>
<path d="M14.5012 30.4433C14.5102 30.8353 14.82 31.1329 15.1997 31.1329H24.8271C25.2175 31.1329 25.5319 30.8168 25.5247 30.4318C25.5175 30.038 25.2068 29.7378 24.8262 29.7378H15.1988C14.8066 29.7378 14.4914 30.0565 14.5012 30.4433Z" fill="#1B2F52"/>
<path d="M14.7285 33.2425C14.7858 33.5948 15.0778 33.8403 15.4217 33.8403H25.0185C25.4412 33.8403 25.7663 33.4739 25.7108 33.0615C25.6633 32.7004 25.3669 32.4443 25.0159 32.4443H15.4181C14.9882 32.4443 14.6613 32.8231 14.7285 33.2425V33.2425Z" fill="#4A4C61"/>
<path d="M15.5035 35.7552C15.5671 35.9265 15.6325 36.1049 15.6853 36.2488C15.7507 36.4271 15.9226 36.5463 16.1152 36.5463H26.1142C26.4599 36.5463 26.6864 36.1782 26.5154 35.8815C26.4679 35.7985 26.3739 35.5928 26.2969 35.4188C26.2243 35.2555 26.0595 35.1504 25.8786 35.1504H15.9325C15.6155 35.1504 15.3952 35.4612 15.5035 35.7552V35.7552Z" fill="#4A4C61"/>
<path d="M16.502 39.253H25.8992C26.2243 39.253 26.5055 39.0331 26.5798 38.7214C26.6864 38.2711 26.3541 37.8579 25.9036 37.8579H16.5038C16.1465 37.8579 15.8456 38.1237 15.8088 38.4751C15.7641 38.8989 16.0874 39.253 16.502 39.253V39.253Z" fill="#4A4C61"/>
<path d="M16.0564 41.959H25.2663C25.6076 41.959 25.8995 41.7162 25.955 41.3842C26.0294 40.9463 25.7007 40.564 25.269 40.564H16.0582C15.7161 40.564 15.425 40.8077 15.3695 41.1405C15.2969 41.5776 15.6247 41.959 16.0555 41.959H16.0564Z" fill="#4A4C61"/>
</g>
<path d="M13.4423 43.416C13.6331 44.502 14.4113 45.3903 15.4421 45.7532H36.5541C36.5541 45.7532 36.5747 45.7311 36.6061 45.6887C37.3189 44.7475 36.7574 43.3966 35.5815 43.2058C32.9146 42.7732 28.9338 42.6496 25.7984 42.677C24.7452 42.6867 23.6956 42.7123 22.68 42.7502C17.6577 42.9357 13.4441 43.3913 13.4441 43.3913L13.4414 43.416H13.4423Z" fill="#9698AF"/>
<path d="M13.4424 43.4158C13.6331 44.5019 14.4114 45.3901 15.4422 45.753H23.3697C22.4455 44.4966 22.5279 43.3602 22.681 42.751C21.0063 42.8137 19.4212 42.9046 18.0519 43C17.1088 43.0653 16.2688 43.1315 15.5711 43.1916C14.2475 43.3055 13.4451 43.392 13.4451 43.392L13.4424 43.4158V43.4158Z" fill="#4A4C61"/>
<path d="M23.8425 51.2266H25.8477V50.7039H23.8425V51.2266Z" fill="#99AABC"/>
<path d="M31.4814 58.2763C31.4814 58.6348 31.777 58.9262 32.1406 58.9262C32.5042 58.9262 32.7997 58.6348 32.7997 58.2763C32.7997 57.9178 32.5042 57.6265 32.1406 57.6265C31.777 57.6265 31.4814 57.917 31.4814 58.2763Z" fill="#14233E"/>
<path d="M25.8478 54.3052L32.3881 57.1253C32.6891 57.2525 32.8843 57.5447 32.8843 57.8679C32.8843 57.935 32.8216 57.9853 32.7544 57.9721L24.8457 55.8874V54.3061H25.8478V54.3052Z" fill="#4A4C61"/>
<path d="M18.2099 58.2758C18.2099 58.6343 17.9152 58.9257 17.5507 58.9257C17.1862 58.9257 16.8916 58.6343 16.8916 58.2758C16.8916 57.9174 17.1862 57.626 17.5507 57.626C17.9152 57.626 18.2099 57.9165 18.2099 58.2758Z" fill="#383949"/>
<path d="M23.8431 54.3052L17.3028 57.1253C17.0019 57.2525 16.8066 57.5447 16.8066 57.8679C16.8066 57.935 16.8693 57.9853 16.9365 57.9721L24.8452 55.8874V54.3061H23.8431V54.3052Z" fill="#4A4C61"/>
<path d="M26.3005 58.5832C26.4724 58.8993 26.8727 59.0176 27.1924 58.848C27.5131 58.6785 27.634 58.2838 27.4611 57.9677C27.2883 57.6516 26.8888 57.5333 26.5682 57.7028C26.2476 57.8733 26.1267 58.2671 26.2996 58.5832H26.3005Z" fill="#14233E"/>
<path d="M24.1104 55.0999C24.0952 54.9922 24.0996 54.8845 24.1238 54.7803C24.1776 54.5463 24.3271 54.3344 24.56 54.2081L24.5949 54.1896C24.8304 54.0677 25.0919 54.0616 25.3194 54.1463C25.4206 54.1843 25.5146 54.2399 25.597 54.3123C25.7072 54.4077 25.7949 54.5322 25.8469 54.6805L26.9968 57.5272L27.0084 57.5563C27.0192 57.5837 27.0281 57.611 27.0353 57.6375C27.1195 57.9236 27.0586 58.1805 26.8804 58.275C26.7819 58.3271 26.661 58.3227 26.5401 58.2715C26.4192 58.2203 26.2991 58.1205 26.2015 57.9845L26.1782 57.9519L24.2841 55.5096C24.1883 55.3851 24.131 55.2438 24.1104 55.1008V55.0999Z" fill="#4A4C61"/>
<path d="M23.9616 53.8735H25.7285C25.8494 53.8735 25.948 53.9707 25.948 54.0899C25.948 54.2091 25.8494 54.3062 25.7285 54.3062H23.9616C23.8407 54.3062 23.7422 54.2091 23.7422 54.0899C23.7422 53.9707 23.8407 53.8735 23.9616 53.8735V53.8735Z" fill="#99AABC"/>
<path d="M32.6286 52.0174C32.6286 52.0174 30.825 52.2876 28.8082 51.7296C27.943 49.6308 28.5287 45.8579 28.5287 45.8579C28.5287 45.8579 29.0947 45.1268 29.4073 45.0306C29.7198 44.9343 30.5787 44.8187 30.7354 44.8187C30.8921 44.8187 32.8239 44.5873 33.0585 44.8761C33.2931 45.1648 33.7418 45.646 33.7024 46.0318C33.663 46.4168 32.6286 52.0174 32.6286 52.0174V52.0174Z" fill="#5592FF"/>
<path d="M24.2061 25.1387C24.2061 25.1387 29.4576 27.1624 30.964 33.2645C28.9517 33.2875 26.8829 31.4889 26.8829 31.4889L24.2061 25.1387V25.1387Z" fill="white"/>
<path d="M26.8535 31.5091L24.1426 25.0776L24.2187 25.1068C24.2321 25.1121 25.554 25.6295 27.0424 26.8877C28.4153 28.0488 30.2163 30.0955 30.9963 33.2565L31.0071 33.2988H30.9632C30.9507 33.2988 30.939 33.2988 30.9256 33.2988C28.9347 33.2988 26.8794 31.5321 26.8526 31.5091H26.8535ZM26.9117 31.4676C27.0353 31.5727 29.01 33.2264 30.9193 33.23C30.1384 30.1114 28.3589 28.0894 26.9994 26.9398C25.7241 25.8626 24.5733 25.331 24.2706 25.2013L26.9117 31.4667V31.4676Z" fill="black"/>
<path d="M30.5596 57.9396C30.5596 58.095 30.5927 58.2451 30.6393 58.3811C30.7629 58.7414 30.9903 59.0001 30.9903 59.0001H36.85C36.85 59.0001 36.9396 58.8985 36.996 58.7519C37.0623 58.578 37.082 58.3396 36.85 58.1286C36.1488 57.492 35.0571 57.8513 34.055 57.077C33.917 56.971 33.7809 56.843 33.6475 56.6885H31.062C31.062 56.6885 30.5596 57.3692 30.5596 57.9396Z" fill="#4A5A79"/>
<path d="M23.6959 39.0355C23.6959 39.0355 28.0582 41.0513 29.8601 44.7333L24.6622 45.1323C21.1588 44.1938 21.3424 44.0313 18.5813 42.7952C17.6598 41.2094 18.9028 38.4219 18.9028 38.4219L23.6959 39.0355V39.0355Z" fill="white"/>
<path d="M24.6529 45.1649C22.0352 44.4638 21.462 44.1892 20.2073 43.5888C19.7882 43.3893 19.267 43.1394 18.5505 42.8118C17.6308 41.2287 18.8586 38.435 18.8711 38.4076L18.881 38.3838C18.881 38.3838 23.7 39.001 23.7099 39.0036C23.7537 39.0239 28.1044 41.0671 29.891 44.7172L29.9134 44.7623C29.9134 44.7623 24.6645 45.1658 24.6583 45.1658H24.6529V45.1649ZM23.6857 39.0663L18.924 38.4571C18.8075 38.7299 17.7579 41.2887 18.6051 42.7668C19.301 43.0785 19.8204 43.3266 20.2378 43.5261C21.488 44.1239 22.0584 44.3976 24.6654 45.096L29.8069 44.7013C28.0444 41.1554 23.8531 39.1458 23.6857 39.0672V39.0663Z" fill="black"/>
<path d="M25.4119 58.5154C25.4719 58.7944 25.5615 59.0001 25.5615 59.0001H28.7515C28.7515 59.0001 28.8052 58.8429 28.8562 58.6293C28.9001 58.4412 28.9431 58.2099 28.9431 58.005C28.9431 57.6324 28.4962 57.0435 28.3708 56.8854C28.3502 56.8598 28.3386 56.8457 28.3386 56.8457H26.0245C26.0245 56.8457 25.9851 56.8828 25.926 56.9472C25.7459 57.1441 25.3797 57.5856 25.3608 57.9688C25.3501 58.1587 25.3761 58.3494 25.4119 58.5145V58.5154Z" fill="#4A5A79"/>
<path d="M24.9656 50.784C25.185 53.0046 25.4958 54.7847 25.8137 56.2513C25.8137 56.2513 25.7878 56.276 25.7555 56.3184C25.6615 56.4446 25.5236 56.7237 25.9248 56.9488C25.9248 56.9488 26.0188 56.9656 26.1711 56.9859C26.6968 57.0539 27.9138 57.1695 28.3374 56.8473C28.3535 56.8358 28.3697 56.8243 28.3858 56.8119C28.5425 56.7025 28.7154 56.5886 28.5165 56.0703C28.6733 55.3109 28.8855 54.201 29.0996 52.9649C29.2142 52.3009 29.3297 51.6016 29.4372 50.9014C29.8617 48.144 30.168 45.375 29.859 44.7349L24.6611 45.134C24.6916 47.2893 24.8044 49.1558 24.9647 50.7858L24.9656 50.784Z" fill="#6278A1"/>
<path d="M23.1553 24.5684C23.4625 24.6831 24.0741 24.9675 24.8067 25.612C26.2423 26.8764 27.1155 28.9725 27.2614 30.8427C27.6152 31.1225 27.9591 31.3592 28.2878 31.5605C30.0135 32.6174 31.3166 32.6854 31.3166 32.6854C31.3166 32.6854 31.1607 32.1609 30.7828 31.3715C29.8657 29.4502 27.6367 25.9528 23.1553 24.5692V24.5684Z" fill="#679BF9"/>
<path d="M22.4518 26.3569L23.0043 27.4562L22.7285 28.1493L21.4326 27.956L21.6171 26.4179L22.4518 26.3569Z" fill="white"/>
<path d="M21.3945 27.9852L21.5871 26.3861L22.4737 26.3208L23.0433 27.4554L22.7513 28.1874L21.3945 27.9861V27.9852ZM22.4316 26.3914L21.6489 26.4497L21.4715 27.9269L22.7074 28.1106L22.968 27.4572L22.4325 26.3906L22.4316 26.3914Z" fill="black"/>
<path d="M32.4987 44.6363C31.5324 44.3166 28.4006 43.2333 25.8545 41.7958L27.2605 39.2847C27.2605 39.2847 33.8107 40.1862 33.8107 40.308C33.8107 40.4299 34.5361 41.7693 34.4573 42.0987C35.3573 41.7879 36.4186 42.0271 37.0804 42.8174C37.3723 43.1653 37.6446 43.5485 37.8452 43.9476C38.0109 47.2622 35.6529 49.3327 33.8501 55.9143C33.9262 56.1695 34.0632 56.4476 33.6459 56.6886C33.6459 56.6886 31.4554 56.8846 31.0604 56.6886C30.8079 56.5633 30.4362 56.4317 30.9404 55.6962C31.021 53.0279 32.2685 45.9077 32.4781 44.7325C32.4835 44.7007 32.4906 44.6681 32.4978 44.6363H32.4987Z" fill="#6278A1"/>
<path d="M20.8672 26.7711C21.1197 26.9168 21.332 27.0422 21.5111 27.1543C22.0108 27.4678 22.2634 27.6912 22.4541 28.0205C22.6091 27.7698 22.73 27.5155 22.8213 27.2629C23.0085 26.7438 23.0756 26.2334 23.0837 25.7946C23.0936 25.3045 23.0318 24.9054 22.987 24.6856C22.9744 24.6264 22.9646 24.5655 22.9574 24.5055C21.3875 24.4684 20.3236 24.5496 19.5901 24.7085C19.5659 24.7138 19.5417 24.7191 19.5176 24.7253C19.4746 25.1853 19.6017 26.0392 20.8672 26.7702V26.7711Z" fill="#AFBCE6"/>
<path d="M16.8921 42.1409C16.8966 42.1868 16.902 42.2327 16.9083 42.2795C16.9566 42.6494 17.2387 42.9479 17.6086 43.0291C20.9186 43.754 24.2465 44.8162 24.4041 50.4362C24.414 50.7744 24.4122 51.1302 24.3979 51.5037C24.3979 51.5037 24.6504 51.5611 25.057 51.6459C26.0162 51.8446 27.8324 52.1933 29.2142 52.2922C29.8304 52.3364 30.3605 52.3302 30.6883 52.2392C31.0689 50.5254 32.0505 45.927 30.8468 43.0291C30.5352 42.2786 30.0766 41.6429 29.4238 41.1996C29.3763 41.1678 29.328 41.1361 29.2778 41.106C29.3611 41.1413 32.0308 42.2857 32.7123 42.9011C33.2828 43.7867 32.7078 49.2389 31.9537 52.0953C31.9457 52.1289 31.9367 52.1615 31.9278 52.1942C31.8964 52.3099 31.8642 52.422 31.8329 52.5271C34.4586 53.1089 35.9775 52.3037 35.9775 52.3037C35.9775 52.3037 36.385 51.4684 37.5054 47.9613C38.5361 44.7341 38.1152 42.8402 36.6286 40.7961C34.2356 39.65 31.531 38.7494 29.6065 38.2912C28.3401 37.9901 27.3443 37.0171 27.0443 35.7677C27.0425 35.7588 27.0398 35.7491 27.038 35.7394C27.0129 35.6343 26.9995 35.4993 26.9941 35.3386C26.987 35.1249 26.9941 34.8671 27.0111 34.5748C27.0586 33.7528 27.1777 32.6667 27.2485 31.5719C27.2574 31.4332 27.2628 31.2955 27.2637 31.1578C27.2655 30.9432 27.2583 30.7269 27.2413 30.5141C27.0953 28.6449 26.2436 26.8772 24.808 25.6137C24.5976 25.4291 24.3961 25.2728 24.2098 25.1422C24.1937 25.1316 24.1811 25.1227 24.1686 25.1148C23.8068 24.864 23.5023 24.7122 23.2865 24.6221C23.239 24.6018 23.1951 24.585 23.1566 24.5709C23.0527 24.5329 22.9847 24.5144 22.9578 24.5073C22.965 24.5674 22.9748 24.6274 22.9874 24.6874C23.0321 24.9073 23.0948 25.3064 23.0841 25.7964C23.076 26.2344 23.0089 26.7456 22.8217 27.2648C22.7303 27.5173 22.6094 27.7716 22.4545 28.0224C22.2637 27.693 22.0121 27.4696 21.5115 27.1562C21.3324 27.0441 21.1201 26.9187 20.8676 26.773C19.6021 26.0419 19.475 25.1881 19.5179 24.7281C19.5045 24.7307 19.4902 24.7342 19.4767 24.7378C19.3639 24.7643 19.2591 24.7943 19.1624 24.8252C18.7254 24.9656 18.446 25.1439 18.2606 25.3488C18.1173 25.5059 18.0304 25.679 17.9722 25.8618C17.0148 30.3437 17.348 32.8345 17.6131 34.9289C17.6193 34.9774 17.6247 35.0251 17.631 35.0737C17.6973 35.6052 17.7582 36.1129 17.7895 36.625C17.7931 36.6948 17.7967 36.7628 17.7994 36.8308C17.8853 39.3083 16.7068 40.2593 16.893 42.1435L16.8921 42.1409Z" fill="#679BF9"/>
<path d="M27.263 31.1568C27.2675 30.8972 27.2612 30.6367 27.2352 30.378L27.2164 30.1838C27.2093 30.1193 27.1985 30.0549 27.1896 29.9904C27.1797 29.9259 27.1717 29.8615 27.1609 29.797L27.1242 29.6045C27.0767 29.3485 27.0069 29.0977 26.9308 28.8479C26.9137 28.7843 26.8887 28.7242 26.8681 28.6624L26.8036 28.4779C26.7552 28.3569 26.7078 28.236 26.6558 28.115C26.4436 27.6382 26.1812 27.1826 25.8704 26.7614C25.831 26.7093 25.7952 26.6546 25.7522 26.6043L25.6286 26.4515L25.5668 26.3756C25.5453 26.3509 25.5229 26.327 25.5014 26.3023L25.3698 26.1566C25.3268 26.1072 25.2802 26.0612 25.2337 26.0153L25.0949 25.8767C25.0008 25.7866 24.9014 25.7001 24.8047 25.6118C24.8996 25.7019 24.9963 25.7902 25.0886 25.8829L25.2238 26.025C25.2686 26.0718 25.3143 26.1186 25.3564 26.169L25.4853 26.3164C25.5068 26.3411 25.5292 26.365 25.5498 26.3906L25.6107 26.4674L25.7325 26.6202C25.7737 26.6705 25.8086 26.7261 25.8471 26.7773C26.1516 27.2003 26.4131 27.6532 26.6218 28.1291C26.834 28.6033 26.989 29.1021 27.0955 29.6098L27.1349 29.8006C27.1466 29.8641 27.1555 29.9286 27.1663 29.993C27.1752 30.0575 27.1878 30.1211 27.1949 30.1855L27.2164 30.3798C27.2478 30.6376 27.2603 30.8972 27.2621 31.1568H27.263Z" fill="#AFC8EF"/>
<path d="M19.6904 23.8203C19.8024 23.981 19.994 24.2203 20.2931 24.4419C20.6818 24.7315 21.2532 24.9911 22.0708 25.0079C22.6709 24.9434 22.9297 24.1814 22.9297 24.1814L22.9279 24.1461L22.9189 23.9598L22.8661 22.8579L22.7595 20.6328H19.8203L19.7666 21.2668C19.8319 21.3189 19.874 21.3524 19.874 21.3524C19.874 21.3524 19.874 21.3833 19.874 21.439C19.874 21.5008 19.874 21.5926 19.874 21.7074C19.8731 21.846 19.8704 22.0182 19.8642 22.2062C19.8597 22.3422 19.8534 22.487 19.8436 22.6336C19.8436 22.6477 19.8418 22.6618 19.8409 22.676C19.84 22.7007 19.8382 22.7245 19.8364 22.7493C19.8337 22.7908 19.831 22.8331 19.8275 22.8746C19.8257 22.9064 19.823 22.9373 19.8203 22.9682C19.8113 23.0654 19.8015 23.1616 19.7907 23.2543C19.7889 23.2676 19.788 23.2799 19.7863 23.2923C19.7818 23.3258 19.7782 23.3594 19.7728 23.3921C19.7719 23.4018 19.7701 23.4106 19.7683 23.4194C19.7648 23.4424 19.7621 23.4662 19.7585 23.4883C19.7567 23.5007 19.754 23.5121 19.7522 23.5236C19.7486 23.5457 19.7451 23.5669 19.7415 23.5872C19.7263 23.6711 19.7092 23.7488 19.6904 23.8203V23.8203Z" fill="#FBA284"/>
<path d="M18.2601 25.3472C18.2735 25.5635 18.3201 25.8019 18.4079 26.0633C18.5655 26.5339 18.9434 26.8879 19.4154 27.1749C20.5769 27.8795 22.3116 28.1691 22.7549 28.7483C22.6833 28.5355 22.6224 28.3731 22.5579 28.2309C22.5427 28.1991 22.5293 28.1673 22.514 28.1373C22.4952 28.0967 22.4737 28.0587 22.4531 28.0217C22.3278 27.8053 22.1764 27.634 21.9454 27.4548C21.8245 27.3603 21.6812 27.2632 21.5101 27.1546C21.4358 27.1078 21.3561 27.0592 21.2701 27.008C21.1483 26.9356 21.0149 26.857 20.8662 26.7714C19.8676 26.1948 19.5784 25.5423 19.5211 25.0664C19.5058 24.9366 19.5067 24.8236 19.5166 24.7273C19.5166 24.7185 19.5184 24.7097 19.5193 24.7009C19.522 24.6735 19.5255 24.6479 19.53 24.624C19.5533 24.4783 19.5909 24.3936 19.5909 24.3936L19.693 23.8205L19.779 23.3438C19.779 23.3438 18.1625 23.7808 18.2601 25.3489V25.3472Z" fill="#E7ECF7"/>
<path d="M22.4521 28.0225C22.4701 28.0613 22.4871 28.0993 22.505 28.1364C22.6241 28.4004 22.7181 28.6485 22.7486 28.7271C23.2411 27.5934 24.2057 26.6495 24.2057 26.6495L23.9316 26.2045C24.0516 25.9979 24.1824 25.7789 24.3266 25.5476C24.2854 25.3913 24.2307 25.2474 24.168 25.1131C23.9576 24.6611 23.6522 24.3326 23.3943 24.1145C23.1265 23.8876 22.9107 23.7808 22.9107 23.7808L22.9268 24.1251L22.9295 24.1807L22.9313 24.2222C22.9358 24.3176 22.9447 24.4121 22.9572 24.5066C22.9644 24.5666 22.9743 24.6266 22.9868 24.6867C23.0325 24.9118 23.0934 25.3092 23.0835 25.7957C23.0817 25.8831 23.0781 25.974 23.071 26.0667C23.0441 26.4385 22.9707 26.8482 22.8211 27.264C22.7298 27.5166 22.6089 27.7708 22.4539 28.0216C22.453 28.0216 22.453 28.0234 22.453 28.0234L22.4521 28.0225Z" fill="#E7ECF7"/>
<path d="M22.0703 25.008C22.3282 25.3347 22.4769 25.6305 22.5593 25.8397C22.5745 25.8777 22.5871 25.9148 22.5978 25.9466C22.6462 26.0887 22.6605 26.1708 22.6605 26.1708L22.9712 25.8954L23.0841 25.7956C23.0939 25.3056 23.0321 24.9065 22.9874 24.6866C22.9802 24.6522 22.9739 24.6168 22.9686 24.5815C22.965 24.5559 22.9614 24.5312 22.9578 24.5065C22.9542 24.4835 22.9515 24.4588 22.9489 24.4358C22.9453 24.4041 22.9417 24.3723 22.939 24.3405C22.9354 24.2972 22.9336 24.2592 22.9318 24.2222L22.9301 24.1807C22.9301 24.1807 22.8942 24.2875 22.8172 24.4244C22.6883 24.6539 22.4464 24.9674 22.0712 25.0071L22.0703 25.008Z" fill="#DFE4F5"/>
<path d="M21.249 25.8776L21.2831 25.9279L21.6171 26.4189L22.0783 26.3853L22.4527 26.3579L22.5592 25.8405C22.4768 25.6313 22.3282 25.3364 22.0703 25.0088C22.0362 25.0256 21.5016 25.4229 21.249 25.8785V25.8776Z" fill="#2B4E74"/>
<path d="M19.5205 24.6991C19.5223 24.707 19.5259 24.715 19.5286 24.7229C19.5465 24.7715 19.568 24.8183 19.5922 24.8651C19.7381 25.1458 19.9871 25.3878 20.2602 25.5944C20.5782 25.8337 20.931 26.0244 21.2006 26.171C21.2516 25.9281 21.3985 25.6942 21.5561 25.4999C21.7899 25.2147 22.0487 25.0178 22.0684 25.0081C21.2597 24.9851 20.6847 24.715 20.2907 24.4209C20.2647 24.4015 20.2396 24.3821 20.2146 24.3618C19.9656 24.1631 19.7972 23.9583 19.6934 23.8179C19.6934 23.8232 19.5913 24.3909 19.5913 24.3909C19.5913 24.3909 19.5411 24.5066 19.5205 24.6991V24.6991Z" fill="#DFE4F5"/>
<path d="M22.7577 28.7523C23.0703 29.1064 23.356 29.4834 23.6246 29.8711C23.8906 30.2596 24.1396 30.6613 24.359 31.0772C24.5775 31.493 24.7665 31.9248 24.908 32.3716C24.9769 32.595 25.0369 32.8219 25.0781 33.0515C25.1184 33.281 25.1426 33.5141 25.1462 33.7472C25.0638 34.5163 25.036 35.2942 25.0486 36.0694L25.0513 36.2151L25.0593 36.3608C25.0656 36.4579 25.0674 36.5559 25.0826 36.6522C25.0969 36.7493 25.1041 36.8464 25.1238 36.9418L25.1829 37.2279C25.2761 37.6075 25.4185 37.9748 25.6029 38.3192C25.9728 39.0079 26.5173 39.6074 27.1818 40.0286C27.2615 40.086 27.3502 40.1301 27.4344 40.1796C27.4774 40.2034 27.5194 40.229 27.5633 40.2511L27.6968 40.3147C27.8741 40.4012 28.055 40.4736 28.2323 40.5575C28.5879 40.7235 28.9353 40.9045 29.2739 41.1023C28.9389 40.8992 28.5941 40.7111 28.2413 40.5389C28.0657 40.4506 27.8839 40.3747 27.7102 40.2864L27.5786 40.2211C27.5347 40.199 27.4935 40.1725 27.4514 40.1487C27.3672 40.0992 27.2803 40.0542 27.2015 39.9968C26.546 39.573 26.0167 38.9726 25.654 38.2918C25.4731 37.951 25.3334 37.5881 25.2429 37.2128L25.1856 36.9303C25.1659 36.8358 25.1596 36.7396 25.1453 36.6442C25.1301 36.5489 25.1292 36.4526 25.1238 36.3573L25.1166 36.2125L25.1149 36.0676C25.1068 35.2933 25.1265 34.5189 25.208 33.749C25.2026 33.508 25.1775 33.2722 25.1363 33.04C25.0934 32.8078 25.0325 32.5791 24.9617 32.353C24.8148 31.9036 24.6205 31.4719 24.3966 31.056C24.1727 30.641 23.9202 30.2401 23.6443 29.856C23.3685 29.472 23.0757 29.1002 22.7568 28.7515L22.7577 28.7523Z" fill="#AFC8EF"/>
<path d="M24.6662 38.2795C24.7029 38.3749 24.796 38.4279 24.8739 38.3979C24.9519 38.3687 24.9859 38.2681 24.9492 38.1736C24.9124 38.0782 24.8193 38.0253 24.7414 38.0553C24.6635 38.0844 24.6294 38.1851 24.6662 38.2795Z" fill="#AFC8EF"/>
<path d="M26.501 40.6673C26.5852 40.7503 26.6962 40.7759 26.749 40.7239C26.801 40.6718 26.7759 40.5632 26.6908 40.4802C26.6067 40.3972 26.4956 40.3707 26.4428 40.4228C26.3908 40.4749 26.4168 40.5835 26.501 40.6673Z" fill="#AFC8EF"/>
<path d="M24.1613 35.2397C24.1569 35.3439 24.2222 35.4313 24.3082 35.4348C24.3942 35.4384 24.4667 35.3571 24.4721 35.2538C24.4766 35.1496 24.4103 35.0622 24.3252 35.0587C24.2393 35.0552 24.1658 35.1355 24.1613 35.2397Z" fill="#AFC8EF"/>
<path d="M23.9665 32.5978C23.9809 32.7329 24.0829 32.8336 24.1949 32.8221C24.3059 32.8106 24.3857 32.6914 24.3713 32.5563C24.357 32.4212 24.2549 32.3215 24.143 32.3329C24.031 32.3444 23.9522 32.4627 23.9665 32.5987V32.5978Z" fill="#AFC8EF"/>
<path d="M21.5117 27.1538C21.5896 27.2032 21.6622 27.25 21.7293 27.2959C21.7428 27.3047 21.7553 27.3136 21.7687 27.3224C21.7974 27.3436 21.8252 27.363 21.8529 27.3824C21.8699 27.3939 21.8852 27.4063 21.9013 27.4178C21.9174 27.4292 21.9326 27.4416 21.9479 27.454C22.178 27.6332 22.3294 27.8045 22.4547 28.0208C22.6106 27.7709 22.7306 27.5158 22.8228 27.2624L22.4539 26.3564L22.0795 26.3838L21.6183 26.4174L21.5117 27.1529V27.1538Z" fill="#1B2F52"/>
<path d="M27.8887 30.8188C29.5428 31.2347 30.93 31.7733 31.316 32.6837C31.307 32.6527 31.1494 32.1362 30.7831 31.3716C30.21 31.1756 29.0207 30.8233 27.8887 30.8188V30.8188Z" fill="#5592FF"/>
<path d="M19.2684 21.0954C19.5371 21.3461 19.7753 21.4547 19.7753 21.4547C19.7807 21.4574 19.8075 21.5465 19.8693 21.6913C20.138 22.3138 20.9843 23.8369 22.9178 23.9588C23.011 23.9658 23.1068 23.9676 23.2044 23.9667C23.2214 23.9667 23.2384 23.9667 23.2555 23.9667C23.3119 23.965 23.3432 23.9641 23.3432 23.9641C23.397 23.9632 23.4516 23.9597 23.5062 23.9553C23.8859 23.8361 24.3507 23.0635 24.5012 22.1108C24.5451 21.8335 24.563 21.5421 24.5433 21.2472C24.5433 21.2251 24.5415 21.2004 24.5397 21.1766C24.5361 21.128 24.5307 21.0777 24.5245 21.0282C24.5101 20.9196 24.4922 20.8128 24.4681 20.706C24.4743 20.6654 24.4815 20.6256 24.4869 20.585C24.4922 20.5523 24.4967 20.5179 24.5012 20.4852C24.503 20.4711 24.5039 20.4587 24.5057 20.4473C24.5092 20.4252 24.5101 20.4102 24.5128 20.3952C24.5128 20.3872 24.5146 20.3784 24.5155 20.3713C24.5298 20.2716 24.5379 20.1833 24.546 20.0958C24.5504 20.0561 24.554 20.0181 24.5567 19.9802C24.5567 19.9678 24.5576 19.9581 24.5594 19.9475C24.5612 19.921 24.563 19.8936 24.5639 19.8672C24.5675 19.8054 24.5701 19.7444 24.5728 19.6853C24.5755 19.6014 24.5764 19.5202 24.5746 19.4407C24.5531 17.4231 23.4041 16.4263 20.9915 16.3662C20.1434 16.345 19.2218 16.9825 18.9514 17.5777C18.0692 19.5131 18.7293 20.5921 19.2675 21.0954H19.2684Z" fill="#FBA284"/>
<path d="M18.935 20.805H19.6998C20.076 20.805 20.3841 20.5145 20.4073 20.1437C20.4252 19.8832 20.5479 19.6333 20.9393 19.5865C20.9975 19.5795 21.0647 19.5786 21.1399 19.583C22.1134 19.6298 24.3389 20.4739 24.8538 18.9729C24.8753 18.9111 24.8941 18.8457 24.9084 18.776C24.9183 18.7327 24.9264 18.6894 24.9335 18.6444C24.938 18.5632 24.9389 18.4819 24.9344 18.4034C24.8717 17.0533 23.5776 16.045 22.074 16.0035C20.4808 15.9602 19.613 16.3876 19.2449 17.1284C19.2171 17.1363 19.1903 17.1443 19.1634 17.1531C19.0962 17.1752 19.0335 17.2034 18.9744 17.237C18.6762 17.4012 18.472 17.6846 18.3547 18.0308C18.0789 18.8457 18.2902 20.0121 18.935 20.8059V20.805Z" fill="#8C391B"/>
<path d="M18.8311 20.2752C18.8311 20.322 18.8364 20.3697 18.8472 20.4165C18.8812 20.5657 18.9036 20.6849 18.9188 20.7855C18.9797 21.1537 18.9645 21.2429 19.243 21.484C19.4553 21.6676 19.6818 21.7277 19.8699 21.6923C19.9236 21.6826 19.9729 21.665 20.0195 21.6411C20.1081 21.5943 20.1798 21.5246 20.2299 21.4345C20.3034 21.295 20.3266 21.1334 20.2881 20.9454C20.264 20.8262 20.2254 20.7175 20.178 20.6195C19.9729 20.2001 19.586 19.9662 19.295 19.892C19.1606 19.8575 19.0478 19.8567 18.9815 19.8876C18.969 19.8937 18.9591 19.9008 18.9511 19.9088C18.8696 20.0235 18.8311 20.1489 18.8311 20.2752V20.2752Z" fill="#FBA284"/>
<path d="M23.5491 23.1607C23.6969 23.1607 23.799 23.1422 23.8088 23.1404C23.8232 23.1378 23.8321 23.1245 23.8303 23.1104C23.8276 23.0963 23.8133 23.0874 23.7999 23.0901C23.7945 23.0901 23.2715 23.1863 22.8569 22.9347C22.8443 22.9267 22.8282 22.9312 22.821 22.9426C22.8139 22.955 22.8175 22.9709 22.83 22.978C23.0772 23.1281 23.3539 23.1616 23.5509 23.1616L23.5491 23.1607Z" fill="#F18D73"/>
<path d="M23.4462 23.4105C23.5241 23.4105 23.6047 23.3929 23.6897 23.3576C23.6987 23.354 23.7032 23.3443 23.6987 23.3355C23.6951 23.3267 23.6853 23.3231 23.6763 23.3258C23.4865 23.4044 23.3199 23.3902 23.1649 23.2843C23.1569 23.279 23.1461 23.2807 23.1408 23.2887C23.1354 23.2966 23.1372 23.3072 23.1452 23.3125C23.2402 23.3779 23.3396 23.4105 23.4453 23.4105H23.4462Z" fill="#F8947D"/>
<path d="M24.1773 22.3194C24.0787 22.3477 23.9731 22.3583 23.8719 22.3538C23.7698 22.3503 23.6695 22.3291 23.5781 22.2929C23.5468 22.2806 23.5127 22.2956 23.5011 22.3256C23.4895 22.3556 23.5038 22.3892 23.5342 22.4006C23.6516 22.4298 23.7644 22.4377 23.8737 22.4271C23.9838 22.4165 24.0895 22.3918 24.1898 22.3485C24.1979 22.345 24.2023 22.3353 24.1979 22.3265C24.1943 22.3185 24.1862 22.315 24.1781 22.3176H24.1773V22.3194Z" fill="#F8947D"/>
<path d="M24.2549 22.1964C24.2011 22.0702 24.1635 21.9395 24.1322 21.807C24.1017 21.6746 24.0793 21.5404 24.0659 21.4053C24.0525 21.2702 24.0444 21.1351 24.0453 20.9991C24.0453 20.8632 24.0543 20.7272 24.0632 20.5903C24.0525 20.6574 24.0417 20.7254 24.0337 20.7934C24.0292 20.8614 24.0202 20.9294 24.0193 20.9983C24.0122 21.1351 24.0202 21.2729 24.031 21.4088C24.048 21.5448 24.0704 21.6808 24.1062 21.8132C24.1429 21.9448 24.1877 22.0763 24.2549 22.1955V22.1964Z" fill="#FFCFC0"/>
<path d="M22.793 31.1938L24.5187 31.9037C24.5599 31.139 24.8026 30.483 24.8949 30.2596C24.8599 30.249 24.8259 30.2393 24.7928 30.2305C24.7032 30.415 24.4005 31.0516 24.2599 31.4542C22.9739 31.2264 22.8136 31.1973 22.793 31.1947V31.1938Z" fill="#F8947D"/>
<path d="M19.6904 23.8204C19.8086 23.9732 19.9994 24.2045 20.2905 24.4217C20.2591 24.1277 20.2116 23.6827 20.14 23.0143C21.1412 24.0774 22.4156 24.1613 22.927 24.1471L22.918 23.9608C20.9836 23.839 20.1373 22.3159 19.8749 21.7075C19.8731 21.8461 19.8713 22.0183 19.8651 22.2064C19.8606 22.3424 19.8543 22.4872 19.8445 22.6337C19.8445 22.6479 19.8427 22.662 19.8418 22.6761C19.8409 22.7008 19.8382 22.7247 19.8373 22.7494C19.8346 22.7909 19.8319 22.8333 19.8283 22.8748C19.8266 22.9066 19.8239 22.9375 19.8212 22.9684C19.8122 23.0655 19.8024 23.1618 19.7916 23.2545C19.7898 23.2677 19.7889 23.2801 19.7872 23.2924C19.7827 23.326 19.7791 23.3586 19.7737 23.3922C19.7737 23.4019 19.771 23.4107 19.7701 23.4196C19.7666 23.4425 19.763 23.4664 19.7603 23.4884C19.7576 23.5008 19.7558 23.5123 19.754 23.5238C19.7504 23.545 19.7469 23.5661 19.7433 23.5873C19.728 23.6712 19.711 23.7489 19.6922 23.8204H19.6904Z" fill="#F18D73"/>
<path opacity="0.5" d="M22.9714 25.8944L23.0843 25.7946C23.0941 25.3046 23.0323 24.9055 22.9875 24.6856C22.9795 24.6512 22.9732 24.6159 22.9687 24.5806C22.9652 24.5549 22.9616 24.5302 22.958 24.5055C22.9544 24.4825 22.9517 24.4578 22.949 24.4349C22.9454 24.4031 22.9419 24.3722 22.9392 24.3395C22.9356 24.2962 22.9338 24.2583 22.932 24.2212L22.9302 24.1797C22.9302 24.1797 22.8944 24.2865 22.8174 24.4234C22.8729 24.6459 22.9938 25.218 22.9723 25.8935L22.9714 25.8944Z" fill="#AFBCE6"/>
<path d="M19.5918 24.8657V25.173C20.1067 25.8873 21.4026 26.418 21.4026 26.418L21.271 27.0078C21.357 27.059 21.4358 27.1076 21.511 27.1543L21.6176 26.4188L21.2835 25.9279C21.2477 26.0074 21.2181 26.0886 21.2011 26.1716C20.6978 25.8988 19.9052 25.4697 19.5918 24.8657V24.8657Z" fill="#8FA7E5"/>
<path opacity="0.5" d="M24.808 33.4845C25.8639 34.3454 27.7321 34.9016 30.0919 35.2451C30.4994 35.1966 30.9982 34.8946 31.266 34.3516C30.1062 34.4381 26.6404 34.5617 24.9683 33.1569C24.8967 31.6842 25.2442 30.5778 25.3543 30.267C25.2119 30.2379 25.0687 30.2078 24.928 30.1787C24.928 30.1787 24.9146 30.207 24.894 30.2599C24.8027 30.4833 24.56 31.1394 24.5179 31.904C24.4901 32.4144 24.551 32.9742 24.8071 33.4845H24.808Z" fill="#C2D4E8"/>
<path opacity="0.5" d="M29.2764 41.105C30.008 41.5491 30.5114 42.2228 30.8463 43.0281C30.8463 43.0281 32.2058 43.1022 32.6625 43.6788C32.941 44.7331 31.6801 52.081 31.6801 52.081L31.9263 52.1932C32.6929 49.365 33.2885 43.7954 32.7118 42.9C32.0302 42.2846 29.3606 41.1403 29.2764 41.105V41.105Z" fill="#4A5A79"/>
<path d="M21.9228 20.6888C22.0293 20.9237 22.3965 21.0809 22.6759 21.0632C22.7476 21.0597 22.8148 21.0447 22.8685 21.0146C23.1237 20.8787 22.9401 20.3975 22.9401 20.3975C22.9401 20.3975 22.7458 20.4275 22.5201 20.4813C22.3043 20.5308 22.0589 20.6023 21.9219 20.688L21.9228 20.6888Z" fill="#FFEFEA"/>
<path d="M22.4912 20.6579C22.4912 20.6782 22.4912 20.6985 22.4948 20.7197C22.5611 20.718 22.6014 20.7568 22.6014 20.8054C22.6014 20.8434 22.5772 20.876 22.5423 20.8875C22.5745 20.9555 22.6211 21.0155 22.6766 21.0632C22.7482 21.0597 22.8154 21.0447 22.8691 21.0146C23.1244 20.8787 22.9408 20.3975 22.9408 20.3975C22.9408 20.3975 22.7464 20.4275 22.5208 20.4813C22.502 20.537 22.4912 20.5952 22.4912 20.6571V20.6579Z" fill="#7A3635"/>
<path d="M23.0552 20.301C22.834 20.3408 22.6164 20.392 22.4023 20.4573C22.1892 20.5236 21.9796 20.6048 21.7853 20.7143C21.7754 20.7196 21.7727 20.731 21.7781 20.7399C21.7835 20.7487 21.7942 20.7514 21.8032 20.7469C22.0011 20.6542 22.2125 20.5907 22.4256 20.5403C22.6396 20.4918 22.8564 20.4573 23.074 20.4353C23.1125 20.4308 23.1403 20.3973 23.1367 20.3602C23.1331 20.3231 23.0982 20.2949 23.0606 20.2993C23.0588 20.2993 23.057 20.2993 23.0552 20.3002V20.301Z" fill="#561A22"/>
<path d="M21.7412 20.1668C22.5911 19.8472 22.8875 19.8728 23.064 20.0882C23.0935 19.6194 22.2741 19.4825 21.7412 20.1668Z" fill="#561A22"/>
<path d="M24.0476 20.9888C24.0941 20.9852 24.2052 20.9941 24.3162 21.0056C24.3924 21.0135 24.4676 21.0214 24.524 21.0285C24.5088 20.9128 24.4918 20.8087 24.4676 20.7062C24.4747 20.6656 24.507 20.4466 24.5124 20.406C24.4747 20.4016 24.4255 20.4096 24.3655 20.421C24.3574 20.4219 24.3494 20.4237 24.3404 20.4254C24.2374 20.4458 24.1389 20.5058 24.052 20.5747C24.0368 20.678 24.0476 20.9402 24.0485 20.9879L24.0476 20.9888Z" fill="#FFEFEA"/>
<path d="M24.2823 20.7521C24.2814 20.844 24.3037 20.9411 24.3351 21.0073C24.4032 21.0144 24.4667 21.0223 24.525 21.0285C24.516 20.9252 24.4927 20.8087 24.4685 20.7062C24.482 20.6656 24.5079 20.4466 24.5133 20.406C24.4757 20.4016 24.4264 20.4096 24.3664 20.421C24.336 20.4758 24.3136 20.5385 24.2993 20.6065C24.3252 20.6179 24.3432 20.6453 24.3432 20.6744C24.3432 20.7115 24.3181 20.7433 24.2823 20.7513V20.7521Z" fill="#7A3635"/>
<path d="M24.0427 20.1833C24.0669 20.2107 24.0902 20.2124 24.1072 20.2027C24.1555 20.1745 24.2021 20.1489 24.2505 20.1321C24.297 20.1126 24.3472 20.1029 24.3956 20.0959C24.4439 20.0888 24.4923 20.0897 24.5397 20.095C24.5523 20.0455 24.5559 19.9961 24.5594 19.9475C24.5612 19.921 24.563 19.8937 24.5648 19.8672C24.5532 19.8681 24.5424 19.8698 24.5308 19.8716C24.4654 19.8813 24.4036 19.899 24.3454 19.9246C24.2881 19.9493 24.2335 19.9793 24.1851 20.0155C24.1349 20.05 24.092 20.0915 24.0517 20.1338C24.0382 20.1471 24.0355 20.1674 24.0436 20.1842L24.0427 20.1833Z" fill="#561A22"/>
<path d="M24.0518 20.5752C24.1109 20.5055 24.188 20.4569 24.2721 20.4216C24.3151 20.4048 24.359 20.3889 24.4047 20.3801C24.4423 20.3713 24.4799 20.366 24.5175 20.3624C24.5301 20.2715 24.5399 20.1832 24.5471 20.0958C24.4933 20.0896 24.445 20.0887 24.3957 20.0958C24.3483 20.1029 24.2981 20.1126 24.2506 20.132C24.2023 20.1488 24.1566 20.1744 24.11 20.2009C24.0903 20.2123 24.0671 20.2106 24.0527 20.1964C24.0429 20.1832 23.9909 20.3757 24.0509 20.5752H24.0518Z" fill="#F18D73"/>
<path d="M24.0537 20.5735C24.1218 20.5161 24.2042 20.4843 24.2857 20.4631C24.3591 20.4472 24.4334 20.4419 24.5069 20.4472C24.5104 20.426 24.5122 20.4101 24.514 20.3951C24.5149 20.3871 24.5158 20.3783 24.5167 20.3713C24.48 20.366 24.4415 20.3713 24.4048 20.3801C24.36 20.3889 24.3152 20.4039 24.2722 20.4216C24.1889 20.4569 24.111 20.5055 24.0537 20.5735V20.5735Z" fill="#561A22"/>
<path d="M18.9478 20.0857L18.9514 20.0601L18.9782 20.0645C19.1385 20.091 19.2988 20.1307 19.4502 20.1943C19.6015 20.257 19.7457 20.347 19.8568 20.4715C19.9687 20.5951 20.0359 20.7549 20.0538 20.9174C20.0735 21.0799 20.0466 21.2406 20.0063 21.3942C20.0278 21.2362 20.0377 21.0781 20.0108 20.9236C19.9831 20.7708 19.9132 20.6278 19.8084 20.5148C19.7036 20.4018 19.5675 20.3188 19.4242 20.2561C19.2881 20.1969 19.143 20.1563 18.9961 20.1236C18.9764 20.219 18.9702 20.3179 18.9791 20.4159C18.9872 20.5236 19.0123 20.6304 19.0552 20.7311C19.0266 20.6843 19.0033 20.6331 18.9863 20.581C18.9684 20.5289 18.954 20.475 18.9451 20.4203C18.9272 20.3099 18.929 20.1969 18.9478 20.0857V20.0857Z" fill="#F18D73"/>
<path opacity="0.5" d="M18.8466 20.4164C18.8359 20.3696 18.8305 20.3219 18.8305 20.2751C18.8305 20.1489 18.869 20.0235 18.9415 19.9175C18.4382 19.0311 18.3549 18.0298 18.3549 18.0298C18.0809 18.8377 18.2869 19.9917 18.9192 20.7855C18.903 20.6857 18.8806 20.5656 18.8475 20.4164H18.8466Z" fill="#692B14"/>
<path opacity="0.5" d="M19.2949 19.8919C19.586 19.9661 19.9729 20.2001 20.1779 20.6195C20.3087 20.5003 20.3947 20.3316 20.4063 20.1436C20.4242 19.8831 20.5469 19.6332 20.9383 19.5864C21.7613 19.4875 24.2984 20.5886 24.8528 18.9728C24.8743 18.911 24.8931 18.8456 24.9074 18.7759C24.774 19.0028 24.0584 19.8345 20.8648 19.1503C20.1547 18.9498 19.4472 19.235 19.2949 19.8928V19.8919Z" fill="#692B14"/>
<path d="M19.5956 27.2773V27.6146C19.9995 27.8442 20.639 28.1638 21.0491 28.1497C21.676 28.1276 22.7256 28.7342 22.757 28.7528C22.3343 28.1974 20.7482 27.9087 19.5947 27.2773H19.5956Z" fill="#AFC8EF"/>
<path d="M22.9179 23.959L22.9259 24.125L22.9286 24.1806L22.9304 24.2221C22.9349 24.3175 22.9439 24.4119 22.9564 24.5064C22.9636 24.5665 22.9734 24.6265 22.986 24.6865C23.1176 24.4473 23.2985 24.2239 23.3916 24.1153C23.3254 24.0588 23.2609 24.0102 23.2036 23.9678C23.106 23.9687 23.0101 23.9669 22.917 23.9599L22.9179 23.959Z" fill="#AFC8EF"/>
<path opacity="0.25" d="M19.5205 24.6991C19.5223 24.707 19.5259 24.715 19.5286 24.7229C19.5465 24.7715 19.568 24.8183 19.5922 24.8651C19.7381 25.1458 19.9871 25.3878 20.2602 25.5944L20.2155 24.3618C19.9665 24.1631 19.7981 23.9583 19.6942 23.8179C19.6942 23.8232 19.5922 24.3909 19.5922 24.3909C19.5922 24.3909 19.542 24.5066 19.5214 24.6991H19.5205Z" fill="#AFBCE6"/>
<path opacity="0.5" d="M20.498 29.6142C20.498 29.6584 20.5007 29.7025 20.5079 29.7475C20.5966 30.332 20.996 30.8177 21.5441 31.0305C20.4237 29.5233 21.467 29.0014 21.8495 28.869C21.8011 28.846 21.7545 28.8248 21.7089 28.8054C21.382 28.6818 21.0694 28.7489 20.8419 28.9246C20.6351 29.0827 20.4989 29.3317 20.4989 29.6133L20.498 29.6142Z" fill="#FFBFAB"/>
<path opacity="0.25" d="M22.5719 31.91L19.3174 30.7066L19.3272 28.0215L19.9317 28.4135L20.0079 28.4868L20.5676 28.8691C20.5676 28.8691 20.5201 28.885 20.4619 28.9248L22.2736 30.6695L23.3895 31.4403L24.5188 31.9047C24.4902 32.4151 24.5511 32.9749 24.8081 33.4852C25.3463 33.9232 26.0941 34.2825 27.0103 34.5748C26.9933 34.867 26.9861 35.1249 26.9933 35.3394L25.1797 34.6719C24.3809 34.3779 23.8149 33.6662 23.7236 32.8301C23.7012 32.6208 23.6922 32.4107 23.7092 32.2182C23.5373 32.1882 23.0967 32.0654 22.5719 31.9109V31.91Z" fill="#AFC8EF"/>
<path d="M23.915 32.2528V23.7764H3.00003V32.2528H23.915Z" fill="#E8EBF0"/>
<path d="M22.988 24.5972H3.88379V31.4304H22.988V24.5972Z" fill="#FFC2C2"/>
<path d="M23.0313 24.5972H22.9453V31.4313H23.0313V24.5972Z" fill="#E8EBF0"/>
<path d="M22.1651 24.5972H22.0791V31.4313H22.1651V24.5972Z" fill="#E8EBF0"/>
<path d="M21.2979 24.5972H21.2119V31.4313H21.2979V24.5972Z" fill="#E8EBF0"/>
<path d="M20.4317 24.5972H20.3457V31.4313H20.4317V24.5972Z" fill="#E8EBF0"/>
<path d="M19.5655 24.5972H19.4795V31.4313H19.5655V24.5972Z" fill="#E8EBF0"/>
<path d="M18.6993 24.5972H18.6133V31.4313H18.6993V24.5972Z" fill="#E8EBF0"/>
<path d="M17.8321 24.5972H17.7461V31.4313H17.8321V24.5972Z" fill="#E8EBF0"/>
<path d="M16.9659 24.5972H16.8799V31.4313H16.9659V24.5972Z" fill="#E8EBF0"/>
<path d="M16.1006 24.5972H16.0146V31.4313H16.1006V24.5972Z" fill="#E8EBF0"/>
<path d="M15.2334 24.5972H15.1475V31.4313H15.2334V24.5972Z" fill="#E8EBF0"/>
<path d="M14.3672 24.5972H14.2812V31.4313H14.3672V24.5972Z" fill="#E8EBF0"/>
<path d="M13.5 24.5972H13.4141V31.4313H13.5V24.5972Z" fill="#E8EBF0"/>
<path d="M12.6348 24.5972H12.5488V31.4313H12.6348V24.5972Z" fill="#E8EBF0"/>
<path d="M11.7676 24.5972H11.6816V31.4313H11.7676V24.5972Z" fill="#E8EBF0"/>
<path d="M10.9014 24.5972H10.8154V31.4313H10.9014V24.5972Z" fill="#E8EBF0"/>
<path d="M10.0342 24.5972H9.94824V31.4313H10.0342V24.5972Z" fill="#E8EBF0"/>
<path d="M9.16898 24.5972H9.08301V31.4313H9.16898V24.5972Z" fill="#E8EBF0"/>
<path d="M8.30179 24.5972H8.21582V31.4313H8.30179V24.5972Z" fill="#E8EBF0"/>
<path d="M7.43558 24.5972H7.34961V31.4313H7.43558V24.5972Z" fill="#E8EBF0"/>
<path d="M6.5684 24.5972H6.48242V31.4313H6.5684V24.5972Z" fill="#E8EBF0"/>
<path d="M5.70316 24.5972H5.61719V31.4313H5.70316V24.5972Z" fill="#E8EBF0"/>
<path d="M22.988 25.4097H3.88379V25.4944H22.988V25.4097Z" fill="#E8EBF0"/>
<path d="M22.988 26.2637H3.88379V26.3484H22.988V26.2637Z" fill="#E8EBF0"/>
<path d="M22.988 27.1182H3.88379V27.202H22.988V27.1182Z" fill="#E8EBF0"/>
<path d="M22.988 27.9722H3.88379V28.0569H22.988V27.9722Z" fill="#E8EBF0"/>
<path d="M22.988 28.8267H3.88379V28.9114H22.988V28.8267Z" fill="#E8EBF0"/>
<path d="M22.988 29.6816H3.88379V29.7655H22.988V29.6816Z" fill="#E8EBF0"/>
<path d="M22.988 30.5352H3.88379V30.6199H22.988V30.5352Z" fill="#E8EBF0"/>
<path d="M22.988 27.6243V27.7929L22.4721 28.2379L21.9957 27.4538L21.3052 28.2035H20.8001L20.0487 27.5457L19.1845 28.2247L18.7555 27.8132L17.9155 30.825L16.7754 26.1842L15.7993 28.2035H15.3972L14.867 27.7214L14.2688 28.2379L13.7923 27.4538L13.1009 28.2035H12.5958L11.8445 27.5457L10.9811 28.2247L10.5513 27.8132L9.71123 30.825L8.57117 26.1842L7.59501 28.2035H7.1938L6.66362 27.7214L6.06538 28.2379L5.58894 27.4538L4.89757 28.2035H3.88379V28.0763H4.84025L5.60954 27.2428L6.09673 28.0428L6.66541 27.551L7.24395 28.0763H7.51441L8.61147 25.8071L9.71929 30.319L10.485 27.5739L10.9892 28.056L11.8489 27.3806L12.6451 28.0763H13.0445L13.8129 27.2428L14.3001 28.0428L14.8697 27.551L15.4482 28.0763H15.7178L16.8148 25.8071L17.9236 30.319L18.6884 27.5739L19.1935 28.056L20.0523 27.3806L20.8485 28.0763H21.2479L22.0172 27.2428L22.5035 28.0428L22.988 27.6243Z" fill="#9698AF"/>
<path d="M14.6417 24.3925C14.6588 24.4578 14.7089 24.5135 14.7779 24.5355C14.8773 24.5664 14.9838 24.5196 15.0268 24.4252L15.3161 23.7903L15.4119 23.5802C15.4621 23.4707 15.4039 23.3409 15.2874 23.3047L15.0797 23.2393C14.9632 23.2031 14.8388 23.2755 14.8155 23.3939L14.6382 24.3042C14.6328 24.3351 14.6337 24.3651 14.6417 24.3925V24.3925Z" fill="#FBA284"/>
<path d="M14.1532 24.2637C14.1532 24.3308 14.1827 24.3917 14.232 24.4323C14.266 24.4606 14.3081 24.4791 14.3538 24.4844C14.4675 24.4977 14.5732 24.4244 14.5992 24.314L14.8195 23.3878L14.8365 23.3189C14.8678 23.1891 14.7765 23.062 14.6421 23.047L14.403 23.0205C14.2687 23.0055 14.1505 23.1088 14.1514 23.2421L14.1541 24.2646L14.1532 24.2637Z" fill="#FBA284"/>
<path d="M13.5102 23.3135L13.6803 24.2459C13.6955 24.3306 13.76 24.3942 13.8415 24.411C13.8603 24.4154 13.8791 24.4172 13.8988 24.4154C14.0045 24.4092 14.0896 24.3253 14.095 24.2203L14.1478 23.2746C14.1496 23.2534 14.1469 23.2322 14.1415 23.2128C14.1183 23.1192 14.0296 23.0504 13.9248 23.0565L13.7027 23.0698C13.5773 23.0777 13.4869 23.1916 13.5093 23.3126L13.5102 23.3135Z" fill="#FBA284"/>
<path d="M12.9606 23.4196L13.292 24.1701C13.3215 24.2354 13.3878 24.276 13.4577 24.2769C13.4756 24.2769 13.4926 24.2751 13.5105 24.269C13.5983 24.2434 13.652 24.1559 13.6359 24.0668L13.489 23.2615C13.4836 23.2315 13.4702 23.205 13.4523 23.1829C13.4075 23.1273 13.3314 23.0999 13.257 23.1229L13.0735 23.1776C12.9696 23.2085 12.9158 23.3215 12.9597 23.4196H12.9606Z" fill="#FBA284"/>
<path d="M14.6417 24.3924C14.6605 24.3306 14.6991 24.2017 14.7797 23.9368C14.8486 23.709 15.1379 23.6251 15.3134 23.7876C15.3152 23.7893 15.4119 23.5792 15.4119 23.5792C15.4621 23.4697 15.4039 23.3399 15.2874 23.3037L15.0797 23.2384C14.9632 23.2022 14.8388 23.2746 14.8155 23.3929L14.6382 24.3032C14.6328 24.3341 14.6337 24.3641 14.6417 24.3915V24.3924Z" fill="#F8947D"/>
<path d="M14.1532 24.2636C14.1532 24.3307 14.1827 24.3916 14.232 24.4322L14.2741 23.9016C14.2956 23.6208 14.5293 23.401 14.815 23.3939C14.8195 23.3877 14.8365 23.3188 14.8365 23.3188C14.8678 23.189 14.7765 23.061 14.6421 23.046L14.403 23.0195C14.2687 23.0045 14.1505 23.1078 14.1514 23.2411L14.1541 24.2636H14.1532Z" fill="#F8947D"/>
<path d="M13.5102 23.3135L13.6804 24.2459C13.6956 24.3306 13.7601 24.3942 13.8416 24.411L13.701 23.8176C13.632 23.5254 13.8398 23.2411 14.1425 23.2128C14.1192 23.1192 14.0306 23.0504 13.9258 23.0565L13.7037 23.0698C13.5783 23.0777 13.4879 23.1907 13.5102 23.3126V23.3135Z" fill="#F8947D"/>
<path d="M12.9607 23.4197L13.2921 24.1702C13.3216 24.2355 13.3879 24.2761 13.4577 24.277L13.2392 23.7384C13.1541 23.5265 13.2464 23.2863 13.4533 23.1839C13.4085 23.1283 13.3324 23.1009 13.258 23.1239L13.0744 23.1786C12.9705 23.2095 12.9168 23.3225 12.9607 23.4205V23.4197Z" fill="#F8947D"/>
<path d="M18.9248 27.6709C18.9248 27.7168 18.9472 27.7609 18.9875 27.7883L19.5266 28.1565L20.5691 28.8682C20.5691 28.8682 20.2162 28.9785 20.2601 29.4006L20.2225 29.4474C20.1016 29.6001 20.0998 29.8138 20.218 29.9683L20.2028 29.9983C20.1159 30.1688 20.1714 30.3754 20.3335 30.4804C20.6004 30.6544 21.0383 30.899 21.5461 31.0305C21.5891 31.042 21.633 31.0526 21.6769 31.0623C22.0485 30.718 21.9975 30.1008 21.9339 29.7608C21.907 29.6151 21.8766 29.5207 21.8766 29.5207L21.6912 28.7984L19.1362 27.5437C19.0681 27.5102 18.983 27.5349 18.9454 27.6011C18.9329 27.6232 18.9266 27.647 18.9266 27.6709H18.9248Z" fill="#F8947D"/>
<path d="M20.498 29.6144C20.498 29.6585 20.5007 29.7027 20.5079 29.7477C20.5966 30.3322 20.996 30.8179 21.5441 31.0307C21.6085 31.0563 21.6748 31.0774 21.7438 31.096C22.0062 31.1613 22.4468 31.1781 22.7898 31.1931C22.7925 31.194 24.5182 31.9039 24.5182 31.9039L25.2875 32.22L29.1349 33.8014L30.24 34.2561C30.5194 34.0636 30.7272 33.7272 30.7935 33.4897C30.7917 33.4517 30.7899 33.4155 30.7872 33.3793C30.7173 32.4054 29.9848 31.7264 29.0346 31.4492C27.8524 31.1039 26.6183 30.7499 25.5831 30.4558C25.3413 30.387 25.1111 30.3216 24.8944 30.2607C24.8594 30.2501 24.8263 30.2404 24.7923 30.2316C23.7785 29.9455 23.0979 29.7539 23.0979 29.7539C23.0979 29.7539 22.4155 29.1491 21.8503 28.8709C21.802 28.848 21.7554 28.8268 21.7097 28.8074C21.3829 28.6838 21.0703 28.7509 20.8428 28.9266C20.636 29.0846 20.4998 29.3336 20.4998 29.6153L20.498 29.6144Z" fill="#FBA284"/>
<path d="M24.8082 33.4844C25.5506 34.0901 26.6952 34.5448 28.1299 34.8804C28.7353 35.0225 29.3917 35.1435 30.092 35.245C30.4995 35.1965 30.9983 34.8945 31.2661 34.3515C31.4497 33.9797 31.5249 33.4959 31.387 32.9017C31.37 32.8275 31.3458 32.7542 31.3181 32.6853C30.9321 31.7732 29.5431 31.2338 27.8898 30.8188C27.7537 30.7852 27.614 30.7508 27.4743 30.7172C27.4 30.7004 27.3256 30.6837 27.2513 30.6669C26.6307 30.5256 25.9877 30.3958 25.3563 30.266C25.2139 30.2369 25.0706 30.2069 24.93 30.1777C24.93 30.1777 24.9166 30.206 24.896 30.259C24.844 30.3861 24.7419 30.6554 24.656 31.0042C24.5924 31.2673 24.5377 31.5746 24.5198 31.903C24.4921 32.4134 24.553 32.9732 24.8091 33.4835L24.8082 33.4844Z" fill="#679BF9"/>
</g>
<defs>
<clipPath id="clip0_10994_2455">
<rect width="70" height="43" fill="white" transform="translate(3 16)"/>
</clipPath>
</defs>
</svg>
