<svg width="75" height="75" viewBox="0 0 75 75" fill="none" xmlns="http://www.w3.org/2000/svg">
<g clip-path="url(#clip0_10994_2150)">
<path d="M41.036 14.6958C41.036 14.6958 41.1901 14.7599 41.5702 14.9217C42.5625 15.3431 43.0525 15.6372 43.5569 16.607C44.8749 19.1411 45.4902 23.7441 45.8693 26.4501L43.7963 26.9732C43.7963 26.9732 41.2435 22.2898 40.0991 17.1108C39.8834 16.1328 41.037 14.6958 41.037 14.6958H41.036Z" fill="#D7E0F1"/>
<path d="M41.036 14.6958C41.036 14.6958 41.1901 14.7599 41.5702 14.9217C42.5625 15.3431 43.0525 15.6372 43.5569 16.607C44.8749 19.1411 45.4902 23.7441 45.8693 26.4501L43.7963 26.9732C43.7963 26.9732 41.2435 22.2898 40.0991 17.1108C39.8834 16.1328 41.037 14.6958 41.037 14.6958H41.036Z" fill="#679BF9"/>
<path d="M47.7934 66.6847C48.5299 67.97 45.6115 68.2041 45.1102 67.3269C45.1102 67.3269 44.5801 67.0063 45.1174 66.6236C45.0485 63.0454 43.5087 57.8339 42.9283 53.9178C42.9283 52.5734 43.6956 50.5289 43.6956 50.5289C43.6956 50.5289 43.0063 49.6476 41.9914 48.1678C41.6966 47.7384 41.375 47.2601 41.036 46.737C38.4997 42.8362 34.9393 36.5204 34.0527 30.6636H43.106C43.106 30.6636 45.9926 36.7097 48.12 46.8316C48.1663 47.0524 48.2125 47.2753 48.2587 47.5002C48.456 48.4742 48.647 49.4847 48.8268 50.5289C48.2669 55.5542 47.7954 66.0018 47.7954 66.6837L47.7934 66.6847Z" fill="#403C4A"/>
<path d="M34.2982 67.3277C34.2982 67.3277 33.8555 68.1744 33.8555 68.613C33.8555 69.0516 34.1215 69.6643 34.1215 69.6643H39.6852L39.7232 69.2684C39.753 68.955 39.5722 68.6598 39.2784 68.5408C38.6867 68.3006 37.7097 67.8528 37.1787 67.3267H34.2982V67.3277Z" fill="#332630"/>
<path d="M40.8062 34.5501C40.423 35.1637 40.158 35.5433 40.158 35.5433C40.158 35.5433 39.8591 41.7533 39.3742 46.4479C39.2869 47.2956 39.1934 48.0935 39.0938 48.7967C38.9571 49.7737 38.8092 50.5675 38.6531 51.056C38.4096 52.3627 37.2858 64.4111 37.2015 66.6734C37.4738 67.0937 37.1789 67.3278 37.1789 67.3278C37.1789 67.3278 34.5635 67.6789 34.2975 67.3278C34.1157 67.0876 34.0324 66.9187 34.2266 66.5126C33.7797 61.6572 32.8696 56.0396 32.6467 53.7437C32.8234 51.9037 33.413 51.057 33.413 51.057C33.4315 51.057 33.3257 49.9915 33.1767 48.3815C33.1408 47.9927 33.1017 47.5734 33.0617 47.1277C32.6631 42.7343 32.0981 35.9534 32.1957 33.8204C32.5203 32.1259 33.4048 30.6655 33.4048 30.6655H40.6881C40.6881 30.6655 41.101 32.8271 40.8062 34.5511V34.5501Z" fill="#403C4A"/>
<path d="M45.1092 67.3276C45.1092 67.3276 44.6634 67.8568 44.6079 68.3504C44.5196 69.1391 44.7261 69.6653 44.7261 69.6653H51.3909L51.4433 69.1982C51.4803 68.8684 51.2635 68.5631 50.9369 68.4868C50.0247 68.2731 48.2937 67.8161 47.8222 67.3276H45.1092V67.3276Z" fill="#332630"/>
<path d="M43.1812 30.6637C43.1812 30.6637 37.2529 33.2547 33.2579 30.6637C33.3801 29.0334 33.3575 28.3831 33.4962 26.5614C32.8203 24.1932 31.6698 21.4536 30.5254 16.5402C30.8695 16.2369 31.2116 15.955 31.5403 15.6955C32.2594 15.1287 33.1326 14.6025 33.6267 14.3196C33.6637 14.2982 33.6996 14.2779 33.7325 14.2596C33.9102 14.1588 34.017 14.1018 34.017 14.1018C34.0592 14.0784 34.0972 14.056 34.1331 14.0377C34.1506 14.0275 34.167 14.0194 34.1824 14.0112C34.2348 13.9807 34.279 13.9583 34.3119 13.941C34.3612 13.9146 34.3869 13.9023 34.3869 13.9023H37.6515L37.8652 13.9522L37.9566 13.9736L38.5822 14.1201L41.0343 14.6961C41.0343 14.6961 41.9978 15.7159 42.5885 18.7455C42.832 22.107 42.342 26.3558 42.833 29.2898C43.4843 29.7325 43.3867 30.4368 43.1792 30.6647L43.1812 30.6637Z" fill="#EFF3F9"/>
<path d="M39.5478 31.6841C39.5345 31.6841 39.5252 31.674 39.5263 31.6617C39.5263 31.6343 39.6126 28.9272 39.6557 26.095C39.6886 24.0413 38.612 20.6972 37.8991 18.4847C37.6217 17.6258 37.404 16.9459 37.3053 16.5256C37.3023 16.5144 37.3105 16.5022 37.3218 16.4992C37.3341 16.4961 37.3454 16.5043 37.3485 16.5155C37.4461 16.9337 37.6649 17.6125 37.9412 18.4704C38.6541 20.686 39.7328 24.0342 39.6999 26.095C39.6578 28.9272 39.5715 31.6353 39.5704 31.6617C39.5704 31.674 39.5602 31.6831 39.5489 31.6831L39.5478 31.6841Z" fill="#AFC8EF"/>
<path d="M40.9454 46.5485C40.9362 46.9047 40.9249 47.2416 40.9126 47.5591C40.4246 47.8837 39.8257 48.0853 39.1744 48.1972C37.0552 48.5636 34.3782 47.9886 33.1105 47.6588C32.6554 47.5398 32.3812 47.4533 32.3812 47.4533C32.3812 47.4533 31.7124 42.0056 31.6939 37.0331C31.6939 36.8896 31.6939 36.7512 31.6939 36.6128C31.7001 35.1362 31.7669 33.7297 31.9281 32.536C32.0771 31.4338 32.1552 30.3164 32.1798 29.2102C32.3226 22.6532 30.5742 16.5206 30.5742 16.5206C30.5742 16.5206 32.0637 14.82 33.73 14.2593C37.046 16.3995 38.9074 22.3245 39.91 28.796C39.9891 29.3058 40.063 29.8198 40.1318 30.3357C40.2161 30.9636 40.2911 31.5936 40.3609 32.2225C40.9526 37.6071 41.0369 42.9775 40.9444 46.5475L40.9454 46.5485Z" fill="#679BF9"/>
<path d="M48.307 46.6606C48.307 46.6606 47.5961 47.5867 44.8153 47.6243C44.5205 47.6284 44.203 47.6223 43.861 47.6039C43.4655 41.7838 43.0155 36.9498 42.5502 32.9421C42.5296 32.7599 42.5081 32.5828 42.4875 32.4068C42.4608 32.1788 42.4331 31.9519 42.4064 31.73C40.5881 16.8382 38.585 14.1199 38.585 14.1199C38.585 14.1199 39.6184 14.0639 41.037 14.6959C43.6 16.6977 43.3853 24.4098 43.5518 30.4945C43.7665 30.9159 43.9729 31.3525 44.1733 31.8013C44.3078 32.1056 44.4403 32.4159 44.5698 32.7294C46.536 37.5298 47.707 43.3001 48.1292 45.6195C48.2494 46.2799 48.309 46.6606 48.309 46.6606H48.307Z" fill="#679BF9"/>
<path d="M43.4382 25.4651C43.3981 25.4651 43.3652 25.4335 43.3642 25.3938C43.2265 20.7237 42.8444 16.2011 40.9902 14.7529C40.9584 14.7285 40.9522 14.6816 40.9779 14.6501C41.0025 14.6185 41.0498 14.6124 41.0816 14.6379C42.9831 16.1227 43.3734 20.683 43.5121 25.3898C43.5132 25.4295 43.4813 25.4641 43.4402 25.4651H43.4382V25.4651Z" fill="#73A3F9"/>
<path d="M40.1342 30.3357L32.6301 31.6841C32.6301 31.6841 31.7507 34.2344 31.6963 36.5995C31.7025 35.1361 31.7692 33.7307 31.9305 32.5359C32.0795 31.4338 32.1575 30.3163 32.1822 29.2101L36.5491 28.9038L39.9123 28.7959C39.9914 29.3058 40.0654 29.8197 40.1342 30.3357Z" fill="#73A3F9"/>
<path d="M37.134 27.709L33.4389 27.3813C33.2437 27.361 33.0599 27.3508 32.8862 27.3518C32.9325 26.6455 33.1389 22.6999 32.2627 19.6011C33.1533 21.6568 34.1241 24.3761 34.2885 26.7605L37.134 27.709Z" fill="#73A3F9"/>
<path d="M37.866 13.952L37.6523 13.9021V13.6172L37.7191 13.7037C37.7602 13.7627 37.8147 13.8492 37.867 13.953L37.866 13.952Z" fill="#F18D73"/>
<path d="M37.7344 15.1723L37.3902 15.8461L37.3276 16.5208C36.6321 15.672 35.9777 15.3779 35.9777 15.3779C35.4816 15.1296 35.12 14.8965 34.8591 14.6808C34.6238 14.4844 34.4738 14.3032 34.3865 14.1333C34.3536 14.0661 34.328 14.002 34.3115 13.9409C34.3608 13.9155 34.3865 13.9012 34.3865 13.9012C34.4482 13.774 34.5016 13.6417 34.5488 13.5043C34.5827 13.4087 34.6115 13.311 34.6402 13.2102C34.6536 13.1634 34.668 13.1166 34.6772 13.0678C34.6783 13.0657 34.6783 13.0627 34.6793 13.0606C34.6824 13.0484 34.6854 13.0362 34.6875 13.024L34.6916 13.0199C34.6978 13.0138 34.7039 13.0087 34.7091 13.0036C34.7183 12.9945 34.7265 12.9874 34.7348 12.9792C34.783 12.9049 34.8303 12.8133 34.8714 12.7024C34.8714 12.7014 34.8724 12.7014 34.8724 12.7014C34.8847 12.6648 34.8981 12.6261 34.9104 12.5854C34.9587 12.4236 34.9926 12.2282 34.9998 12.0002V11.9971C35.0101 11.7417 34.9895 11.4445 34.9156 11.1067V11.1026C34.9166 11.0283 34.9176 10.9561 34.9176 10.8848C34.9176 10.7484 34.9156 10.6161 34.9104 10.4889C34.9043 10.2803 34.893 10.0839 34.8796 9.90783C34.8375 9.34505 34.7758 8.97461 34.7758 8.97461H37.6511V13.9012L37.8648 13.9531C38.0343 14.2859 38.1751 14.8009 37.7344 15.1723V15.1723Z" fill="#FBA284"/>
<path d="M32.8856 27.3518C32.8815 27.424 32.8784 27.4627 32.8784 27.4627L32.4192 27.7355L30.2887 29.0004C30.2825 29.0035 28.152 22.4913 28.4869 19.9389C28.7653 18.8113 29.358 17.8995 29.8418 17.3021C30.2476 16.8004 30.5753 16.5205 30.5753 16.5205C30.7314 16.6589 30.8763 16.8126 31.0129 16.9795C31.5738 17.6685 31.9755 18.5885 32.2621 19.6C33.1393 22.6989 32.9318 26.6455 32.8856 27.3508V27.3518Z" fill="#679BF9"/>
<path d="M32.8784 27.5361C32.8322 27.5331 32.8014 27.4975 32.8045 27.4567C32.8106 27.3804 33.3725 19.8526 30.8907 16.9481C30.864 16.9176 30.8681 16.8707 30.8999 16.8443C30.9318 16.8188 30.978 16.8219 31.0037 16.8524C33.5246 19.8037 32.9585 27.3916 32.9524 27.4679C32.9493 27.5066 32.9175 27.5361 32.8784 27.5361Z" fill="#73A3F9"/>
<path d="M31.0939 27.922C31.0702 27.922 31.0466 27.9108 31.0322 27.8894C31.0096 27.8558 31.0178 27.8111 31.0517 27.7877C31.5479 27.4549 32.1602 27.2839 32.8721 27.2788C32.9131 27.2788 32.946 27.3114 32.946 27.3511C32.946 27.3918 32.9131 27.4254 32.8731 27.4254C32.191 27.4304 31.6054 27.5923 31.135 27.9088C31.1226 27.9169 31.1082 27.921 31.0939 27.921V27.922Z" fill="#73A3F9"/>
<path d="M37.3909 15.8461C37.3796 16.072 37.3622 16.2969 37.3447 16.5228L37.3416 16.5656L37.3129 16.532C37.2636 16.477 37.2173 16.42 37.168 16.3651C37.1177 16.3112 37.0694 16.2552 37.017 16.2033C36.9143 16.0974 36.8085 15.9946 36.6975 15.897C36.5856 15.8003 36.4715 15.7056 36.3524 15.6191C36.2322 15.5326 36.111 15.4482 35.9795 15.3779C36.1161 15.437 36.2445 15.5143 36.3678 15.5978C36.4921 15.6802 36.6102 15.7718 36.7232 15.8674C36.7787 15.9173 36.8362 15.9651 36.8896 16.017C36.9164 16.0425 36.9441 16.0679 36.9698 16.0944L37.0468 16.1748C37.0992 16.2277 37.1475 16.2847 37.1978 16.3396C37.2461 16.3956 37.2934 16.4526 37.3416 16.5106L37.3088 16.5198C37.3344 16.2949 37.3601 16.071 37.392 15.8471L37.3909 15.8461Z" fill="#878CAD"/>
<path d="M44.5676 32.7295L42.549 32.9432C42.5284 32.7631 42.5069 32.585 42.4863 32.4079C43.1356 32.3489 43.7848 32.3 44.3703 32.2583C44.4371 32.414 44.5028 32.5707 44.5676 32.7295Z" fill="#AFC8EF"/>
<path opacity="0.5" d="M39.1743 48.1971C39.1476 48.4036 39.1209 48.6031 39.0941 48.7965C37.0047 49.002 34.1643 48.5543 33.1771 48.3802C33.1556 48.1502 33.133 47.909 33.1104 47.6587C34.378 47.9884 37.055 48.5634 39.1743 48.1971V48.1971Z" fill="#35353E"/>
<path opacity="0.5" d="M41.0452 33.0885L41.9902 48.1686C41.6954 47.7392 41.3739 47.2609 41.0349 46.7378L40.9455 46.5485C41.0359 43.071 40.9589 37.8859 40.4072 32.6438C41.0421 32.5512 41.7653 32.4738 42.4854 32.4087C42.5069 32.5837 42.5275 32.7618 42.548 32.9409L41.0441 33.0895L41.0452 33.0885Z" fill="#35353E"/>
<path opacity="0.5" d="M48.2568 47.5012C46.8577 48.2706 44.911 48.2533 44.911 48.2533L44.8145 47.6243C46.833 47.5968 47.7606 47.1012 48.1181 46.8315C48.1643 47.0524 48.2106 47.2753 48.2568 47.5002V47.5012Z" fill="#35353E"/>
<path d="M39.1692 13.1817C39.1507 13.3395 39.0367 13.4728 38.8785 13.5145C38.6648 13.5705 38.3844 13.6061 38.1409 13.6224C38.1275 13.6234 38.1132 13.6234 38.1019 13.6234C38.0823 13.6255 38.0659 13.6255 38.0464 13.6255C38.0053 13.6255 37.9611 13.6224 37.92 13.6143C37.9067 13.6122 37.8923 13.6102 37.881 13.6061C37.8091 13.5929 37.7403 13.5685 37.6745 13.5359C37.6663 13.5318 37.6591 13.5278 37.6509 13.5237C37.3119 13.3548 36.8948 13.141 36.4901 12.9243C36.4439 12.8988 36.3976 12.8744 36.3514 12.849C36.3473 12.8469 36.3432 12.8449 36.3391 12.8429C36.2672 12.8032 36.1963 12.7645 36.1264 12.7258C36.0494 12.6841 35.9744 12.6414 35.9025 12.5996C35.8583 12.5742 35.8152 12.5498 35.772 12.5253C35.77 12.5243 35.7679 12.5233 35.7659 12.5223C35.7227 12.4968 35.6816 12.4724 35.6416 12.448C35.6395 12.447 35.6375 12.446 35.6364 12.4449C35.5953 12.4215 35.5563 12.3971 35.5183 12.3737C35.4772 12.3493 35.4382 12.3249 35.4002 12.3004C35.3714 12.2821 35.3447 12.2648 35.319 12.2475C35.2923 12.2292 35.2666 12.2119 35.242 12.1946C35.1906 12.159 35.1454 12.1254 35.1064 12.0949C35.0961 12.0867 35.0869 12.0786 35.0776 12.0714C35.0643 12.0603 35.0509 12.0491 35.0396 12.0389C35.0283 12.0287 35.018 12.0195 35.0088 12.0094C35.0057 12.0053 35.0026 12.0022 34.9995 12.0002V11.9972C35.0098 11.7417 34.9893 11.4446 34.9153 11.1067C34.9112 11.0914 34.9081 11.0751 34.905 11.0588C34.903 11.0527 34.9009 11.0456 34.8999 11.0385L34.8742 10.9489C34.8691 10.9561 34.8619 10.9632 34.8557 10.9703C34.8557 10.9398 34.8557 10.9123 34.8557 10.8879C34.8567 10.8869 34.8567 10.8858 34.8567 10.8848C34.8588 10.8085 34.8619 10.7617 34.8619 10.7617L34.8249 10.7729H34.8239L34.716 10.8054L34.6667 10.8207C34.6636 10.8889 34.6554 10.955 34.64 11.0202C34.6349 11.0456 34.6287 11.0711 34.6205 11.0965C34.4202 11.128 34.1305 11.0324 33.7863 10.7169C33.7637 10.6955 33.7411 10.6742 33.7206 10.6528C33.6333 10.5663 33.5614 10.4767 33.5028 10.3831C33.3179 10.0808 33.2922 9.74094 33.5038 9.35829C33.5059 9.35523 33.508 9.35116 33.51 9.34811L33.5172 8.42812C33.5172 8.42812 34.0935 8.18998 34.8773 8.00781C35.1023 7.95591 35.3447 7.90808 35.5953 7.87246C36.3175 7.76967 37.1095 7.76357 37.7618 8.02308C37.7793 8.02918 37.7947 8.03631 37.8091 8.04241C37.8091 8.04241 37.7629 7.90095 37.6447 7.72896C37.6509 7.73202 37.6581 7.73507 37.6643 7.73711C37.7033 7.75135 37.7423 7.76357 37.7834 7.77476C37.9067 7.80834 38.0433 7.8287 38.2015 7.8287C38.2313 7.8287 38.258 7.82666 38.2837 7.82463C38.3217 7.81954 38.3546 7.81242 38.3844 7.80224C38.4943 7.76458 38.5518 7.69029 38.5826 7.60175C38.5991 7.55596 38.6247 7.5183 38.6566 7.48879C38.6771 7.47047 38.7008 7.45521 38.7254 7.44401C38.8261 7.3972 38.9514 7.41246 39.0377 7.48879C39.0469 7.49693 39.0552 7.50609 39.0634 7.51525C39.0716 7.52543 39.0788 7.5356 39.086 7.54578C39.0891 7.54985 39.0921 7.55494 39.0942 7.56003C39.0942 7.56105 39.0952 7.56206 39.0963 7.56308C39.0973 7.56613 39.0993 7.57021 39.1014 7.57326V7.57529H39.1024C39.1599 7.70454 39.236 7.87653 39.3068 8.04547C39.3325 8.10449 39.3562 8.1625 39.3787 8.21847C39.3952 8.2602 39.4106 8.29989 39.426 8.33754C39.4599 8.4271 39.4866 8.50343 39.5 8.55533C39.5061 8.67236 39.4702 8.82502 39.4311 8.95121C39.4311 8.95121 39.4305 8.95189 39.4291 8.95325V8.9563C39.3859 9.09063 39.3438 9.19546 39.3438 9.19546C39.3438 9.19546 39.3705 9.28807 39.4075 9.42952C39.4804 9.70837 39.5955 10.1796 39.6325 10.5113C39.6458 10.8492 39.2729 12.2841 39.1682 13.1817H39.1692Z" fill="#FBA284"/>
<path d="M35.7549 9.22779C35.7549 9.22779 36.0589 8.81155 36.2531 8.56731C36.6281 8.31288 37.8495 8.15616 37.8495 8.15616L38.0559 8.02081C38.1268 7.97501 38.2203 7.98926 38.2727 8.05541C38.3169 8.11036 38.3025 8.18974 38.2419 8.22638C38.1731 8.26607 38.0827 8.31899 37.9984 8.36479C37.9984 8.36479 36.6301 8.62124 36.4616 8.70062C36.2264 8.85531 35.7549 9.22779 35.7549 9.22779V9.22779Z" fill="#52363E"/>
<path d="M39.4428 9.20568C39.4346 9.31457 39.4089 9.43059 39.4089 9.43059C39.4089 9.43059 39.2866 9.47231 39.0709 9.44483C38.998 9.43466 38.9138 9.41735 38.8213 9.38581C38.7751 9.15276 38.7617 9.04285 38.7617 9.04285L38.8038 8.95125C38.8038 8.95125 38.8562 8.93701 38.922 8.92174C38.9631 8.91156 39.0052 8.90444 39.0483 8.90139C39.1767 8.88917 39.3072 8.90546 39.4284 8.95024C39.4315 8.95125 39.451 9.07745 39.4428 9.20568Z" fill="white"/>
<path d="M39.0716 8.50928C39.0203 8.59883 38.9689 8.68737 38.9216 8.77896C38.8744 8.87056 38.8282 8.96113 38.7922 9.05476C38.8179 9.21454 38.859 9.38653 38.9103 9.55648C38.9627 9.72542 39.0233 9.89232 39.0922 10.0572C39.1589 10.222 39.235 10.3839 39.3099 10.5457L39.426 10.7889C39.464 10.8703 39.5031 10.9507 39.5359 11.0372C39.5411 11.1024 39.5288 11.1593 39.501 11.2072C39.4733 11.256 39.4332 11.2937 39.3901 11.3242C39.3028 11.3843 39.2041 11.4199 39.1035 11.4382C39.1517 11.4229 39.199 11.4026 39.2442 11.3802C39.2894 11.3568 39.3315 11.3303 39.3685 11.2977C39.4065 11.2662 39.4373 11.2275 39.4568 11.1858C39.4774 11.1431 39.4836 11.0973 39.4774 11.0525C39.4034 10.9029 39.313 10.7462 39.2319 10.5843C39.1487 10.4246 39.0726 10.2607 39.0028 10.0938C38.934 9.92692 38.8723 9.75595 38.8241 9.5809C38.7758 9.40688 38.7408 9.22675 38.7285 9.0456C38.7768 8.93467 38.8302 8.84511 38.8888 8.75963C38.9473 8.67414 39.0059 8.58967 39.0716 8.50928V8.50928Z" fill="#F18D73"/>
<path d="M38.0947 9.35205C38.0947 9.35205 38.0002 9.38461 37.8636 9.42532C37.7485 9.45891 37.6037 9.4986 37.4609 9.52913C37.3469 9.55355 37.2349 9.57085 37.1424 9.57594C36.7808 9.52302 36.5518 9.41006 36.5518 9.41006C36.7213 9.0905 37.0664 8.92462 37.3695 8.87272C37.5451 8.8432 37.7074 8.85236 37.8143 8.89409C37.8512 8.92258 37.8841 8.95718 37.9139 8.99484C38.0362 9.14953 38.0947 9.35205 38.0947 9.35205V9.35205Z" fill="white"/>
<path d="M37.9406 9.15661C37.9406 9.25838 37.9118 9.35201 37.8646 9.42528C37.7495 9.45887 37.6047 9.49856 37.4619 9.52909C37.3561 9.45988 37.2842 9.31842 37.2842 9.15661C37.2842 9.04772 37.3171 8.94798 37.3705 8.87369C37.5461 8.84418 37.7084 8.85334 37.8153 8.89506C37.8523 8.92356 37.8851 8.95816 37.9149 8.99582C37.9314 9.04467 37.9406 9.10064 37.9406 9.15763V9.15661Z" fill="#52363E"/>
<path d="M36.5527 9.40996C36.601 9.29903 36.677 9.19625 36.7695 9.11483C36.7921 9.09346 36.8178 9.07514 36.8414 9.0558C36.8671 9.0385 36.8928 9.01917 36.9195 9.0039C36.9719 8.97032 37.0284 8.94386 37.0869 8.91943C37.1444 8.89399 37.205 8.87669 37.2646 8.86143C37.3252 8.84514 37.3869 8.83497 37.4495 8.82886C37.4804 8.82479 37.5122 8.82377 37.543 8.82275C37.5749 8.82275 37.6067 8.82275 37.6375 8.82581C37.7002 8.83191 37.7639 8.84209 37.8245 8.86651C37.8697 8.90112 37.9015 8.93674 37.9293 8.97439C37.957 9.01204 37.9806 9.05275 38.0022 9.09346C38.0227 9.13417 38.0402 9.17691 38.0566 9.21965C38.0721 9.2624 38.0854 9.30616 38.0947 9.35094C38.0772 9.30921 38.0587 9.26748 38.0382 9.22779C38.0176 9.1881 37.995 9.14841 37.9714 9.11076C37.9478 9.07311 37.921 9.03749 37.8923 9.0039C37.8635 8.97032 37.8317 8.93979 37.7978 8.91536C37.7515 8.90112 37.693 8.89196 37.6344 8.88992C37.5759 8.88687 37.5163 8.8889 37.4578 8.89501C37.3396 8.90926 37.2225 8.93572 37.1116 8.97846C37.0551 8.99881 37.0016 9.02324 36.9493 9.05173C36.9225 9.06496 36.8979 9.08125 36.8722 9.09651C36.8486 9.11381 36.8229 9.1301 36.7993 9.1474C36.7027 9.21864 36.6216 9.30717 36.5538 9.40894L36.5527 9.40996Z" fill="#F18D73"/>
<path d="M39.4426 9.20568C39.4344 9.31457 39.4087 9.43059 39.4087 9.43059C39.4087 9.43059 39.2865 9.47231 39.0707 9.44483C39.0286 9.36342 39.0029 9.26063 39.0029 9.14767C39.0029 9.05811 39.0194 8.97364 39.0471 8.90139C39.1755 8.88917 39.306 8.90546 39.4272 8.95024C39.4303 8.95125 39.4498 9.07745 39.4416 9.20568H39.4426Z" fill="#52363E"/>
<path d="M39.1774 8.05424C39.2226 8.04813 39.2709 8.04406 39.3212 8.04508C39.391 8.04508 39.4599 8.07154 39.504 8.12446C39.5575 8.18857 39.5431 8.24556 39.5051 8.28932C39.4568 8.34326 39.3797 8.36158 39.3089 8.34123C39.2575 8.32698 39.201 8.30561 39.1455 8.28118C39.0336 8.23437 39.0572 8.07052 39.1784 8.05424H39.1774Z" fill="#52363E"/>
<path d="M35.0089 12.0071H35.0099L35.0089 12.0091C34.9966 12.3205 34.9329 12.5668 34.8517 12.7551C34.8446 12.7724 34.8374 12.7897 34.8302 12.806C34.824 12.8182 34.8189 12.8304 34.8137 12.8416C34.8055 12.8579 34.7973 12.8742 34.7891 12.8904C34.7881 12.8935 34.787 12.8955 34.785 12.8986C34.7685 12.9261 34.7531 12.9525 34.7377 12.9769C34.7367 12.979 34.7357 12.98 34.7346 12.982C34.7161 13.0105 34.6977 13.037 34.6792 13.0604C34.6781 13.0624 34.6771 13.0634 34.6761 13.0645C34.6761 13.0604 34.674 13.0522 34.6699 13.04C34.6761 13.0339 34.6822 13.0278 34.6874 13.0238L34.6915 13.0197C34.6977 13.0136 34.7038 13.0085 34.709 13.0034C34.7182 12.9942 34.7264 12.9871 34.7346 12.979C34.7829 12.9047 34.8302 12.8131 34.8713 12.7022C34.8713 12.7011 34.8723 12.7011 34.8723 12.7011C34.8846 12.6645 34.898 12.6258 34.9103 12.5851C34.9586 12.4233 34.9925 12.2279 34.9997 12V11.9969C35.0099 11.7415 34.9894 11.4443 34.9154 11.1064C34.9113 11.0912 34.9082 11.0749 34.9052 11.0586C34.9082 11.0739 34.9124 11.0881 34.9154 11.1024C34.9956 11.4504 35.0202 11.7506 35.0089 12.0071V12.0071Z" fill="#6D4853"/>
<path d="M35.5963 7.87207C35.5819 7.89141 35.5676 7.91074 35.5532 7.9311C35.5193 7.97995 35.4885 8.03287 35.4618 8.0868C35.4505 8.11123 35.4392 8.13463 35.4299 8.15906C35.4001 8.22928 35.3765 8.30357 35.3601 8.38092C35.3467 8.44299 35.3385 8.50813 35.3344 8.57428C35.3262 8.72286 35.319 8.85719 35.3118 8.97423C35.2912 9.36299 35.2799 9.57568 35.2799 9.57568L34.8793 9.90745L34.6759 10.0754L34.6851 10.3725L34.7478 10.5374L34.7899 10.6453L34.8249 10.7725L34.8567 10.8875L34.8742 10.9485C34.869 10.9557 34.8618 10.9628 34.8557 10.9699H34.8546C34.8392 10.9882 34.8207 11.0035 34.8002 11.0208C34.7725 11.0432 34.7396 11.0615 34.7026 11.0747C34.6769 11.0839 34.6502 11.091 34.6215 11.0961C34.4211 11.1277 34.1315 11.032 33.7873 10.7165C33.7647 10.6951 33.7421 10.6738 33.7216 10.6524C33.6343 10.5659 33.5623 10.4763 33.5038 10.3827C33.3189 10.0805 33.2932 9.74055 33.5048 9.3579C33.5069 9.35484 33.5089 9.35077 33.511 9.34772L33.5182 8.42773C33.5182 8.42773 34.0945 8.18959 34.8783 8.00742C35.1032 7.95552 35.3457 7.90769 35.5963 7.87207V7.87207Z" fill="#6D4853"/>
<path d="M38.2854 7.82428C38.2598 7.82733 38.233 7.82937 38.2033 7.82937C38.0451 7.82937 37.9084 7.80902 37.7852 7.77441C37.9084 7.808 38.0451 7.82835 38.2033 7.82835C38.233 7.82835 38.2598 7.82632 38.2854 7.82428Z" fill="#6D4853"/>
<path d="M38.9082 6.79247C38.9082 6.79247 38.9056 6.79117 38.9043 6.79247C38.9056 6.79117 38.9056 6.78987 38.9069 6.78857C38.9069 6.78857 38.9082 6.79117 38.9082 6.79247Z" fill="#6D4853"/>
<path opacity="0.5" d="M33.7191 12.0713C33.7113 12.0583 33.708 12.0518 33.708 12.0518H33.7091C33.7091 12.0518 33.7125 12.0583 33.7191 12.0713Z" fill="#52363E"/>
<path opacity="0.5" d="M33.9376 12.516C33.9079 12.458 33.8801 12.402 33.8555 12.3501C33.8812 12.402 33.9089 12.458 33.9376 12.516Z" fill="#52363E"/>
<path opacity="0.5" d="M34.2681 13.1815C34.2466 13.1397 34.2229 13.0929 34.1973 13.041C34.224 13.0929 34.2476 13.1397 34.2681 13.1815Z" fill="#52363E"/>
<path opacity="0.5" d="M34.6919 13.02L34.6875 13.0243L34.6919 13.02Z" fill="#52363E"/>
<path opacity="0.5" d="M34.9004 11.0382L34.8747 10.9486C34.8696 10.9558 34.8624 10.9629 34.8562 10.97H34.8552C34.8398 10.9883 34.8213 11.0036 34.8007 11.0209C34.773 11.0433 34.7401 11.0616 34.7032 11.0748C34.6775 11.084 34.6508 11.0911 34.622 11.0962C34.4217 11.1278 34.132 11.0321 33.7879 10.7166C33.7653 10.6952 33.7427 10.6739 33.7221 10.6525C33.6666 10.4917 33.6143 10.395 33.6143 10.395L33.7673 10.4144L34.5676 10.5161L34.7473 10.5385L34.7894 10.6454L34.8254 10.7726L34.8572 10.8845L34.8747 10.9476L34.8942 11.0178C34.8963 11.025 34.8973 11.0321 34.8994 11.0382H34.9004Z" fill="#52363E"/>
<path opacity="0.5" d="M34.8713 12.7021C34.8651 12.7205 34.859 12.7378 34.8518 12.7551C34.8446 12.7724 34.8374 12.7897 34.8302 12.806C34.824 12.8182 34.8189 12.8304 34.8138 12.8416C34.8055 12.8579 34.7973 12.8741 34.7891 12.8904C34.7881 12.8935 34.7871 12.8955 34.785 12.8986C34.7696 12.9271 34.7542 12.9535 34.7388 12.9779L34.7347 12.982C34.7254 12.9902 34.7172 12.9973 34.709 13.0034C34.7182 12.9942 34.7264 12.9871 34.7347 12.979C34.7829 12.9047 34.8302 12.8131 34.8713 12.7021V12.7021Z" fill="#52363E"/>
<path d="M34.9173 10.8845C34.906 10.9059 34.8927 10.9272 34.8752 10.9476C34.8752 10.9476 34.8752 10.9476 34.8742 10.9476C34.869 10.9547 34.8618 10.9618 34.8557 10.969H34.8546C34.8392 10.9873 34.8207 11.0025 34.8002 11.0198C34.7725 11.0422 34.7396 11.0606 34.7026 11.0738C34.6769 11.0829 34.6502 11.0901 34.6215 11.0952C34.4211 11.1267 34.1315 11.031 33.7873 10.7156C33.7647 10.6942 33.7421 10.6728 33.7216 10.6514C33.6343 10.5649 33.5623 10.4754 33.5038 10.3818C33.3189 10.0795 33.2932 9.73959 33.5048 9.35694C33.5069 9.35389 33.5089 9.34982 33.511 9.34676C33.5613 9.26128 33.6456 9.19818 33.7442 9.18495C33.889 9.16562 34.0226 9.24703 34.1582 9.38544L34.1592 9.38645C34.1664 9.39358 34.1746 9.40172 34.1808 9.40986C34.189 9.418 34.1962 9.42716 34.2044 9.4353C34.3122 9.55539 34.4211 9.70906 34.5382 9.87596C34.5865 9.94415 34.6328 10.0093 34.6759 10.0744C34.7766 10.224 34.8608 10.3614 34.9101 10.4876C34.9687 10.6352 34.981 10.7675 34.9173 10.8835V10.8845Z" fill="#FBA284"/>
<path d="M34.4219 10.3572C34.6756 10.5923 34.7938 10.8752 34.6849 10.9902C34.577 11.1042 34.2842 11.0065 34.0305 10.7714C33.7768 10.5363 33.6586 10.2524 33.7665 10.1384C33.8744 10.0234 34.1671 10.1221 34.4209 10.3572H34.4219Z" fill="#F18D73"/>
<path d="M38.8037 8.94999C38.8284 8.93777 38.853 8.92861 38.8777 8.91844C38.9023 8.90928 38.928 8.8991 38.9547 8.89299C39.0071 8.87875 39.0616 8.87162 39.116 8.87061C39.1704 8.87061 39.2249 8.87569 39.2783 8.88892C39.3307 8.90114 39.3821 8.92149 39.4283 8.94999C39.3749 8.94286 39.3235 8.9337 39.2711 8.92963C39.2198 8.92454 39.1684 8.92251 39.117 8.92353C39.0657 8.92353 39.0143 8.9276 38.9629 8.9337C38.9373 8.93676 38.9116 8.94083 38.8849 8.9449C38.8582 8.94795 38.8314 8.951 38.8047 8.95202L38.8037 8.94999Z" fill="#F18D73"/>
<path d="M37.8076 12.0293C37.8949 12.0741 37.9864 12.1087 38.0778 12.1392C38.1702 12.1698 38.2637 12.1932 38.3593 12.2115C38.4538 12.2298 38.5503 12.2431 38.6469 12.2502C38.7435 12.2583 38.841 12.2604 38.9386 12.2583C38.9294 12.2563 38.9335 12.242 38.9366 12.2288C38.9397 12.2146 38.9417 12.2013 38.9427 12.1881C38.9458 12.1606 38.9458 12.1321 38.9397 12.1046C38.9458 12.1179 38.9499 12.1311 38.953 12.1454C38.9561 12.1596 38.9582 12.1738 38.9582 12.1881C38.9582 12.2034 38.9582 12.2166 38.9582 12.2319C38.9571 12.2471 38.9551 12.2614 38.952 12.2756C38.8421 12.298 38.7424 12.3021 38.6438 12.298C38.5945 12.296 38.5442 12.2919 38.4959 12.2858C38.4466 12.2807 38.3973 12.2705 38.349 12.2604C38.3007 12.2512 38.2524 12.2369 38.2052 12.2227C38.1579 12.2085 38.1117 12.1912 38.0655 12.1728C37.974 12.1342 37.8857 12.0894 37.8076 12.0283V12.0293Z" fill="#F18D73"/>
<path d="M37.4108 9.19203C37.4108 9.26123 37.3543 9.31619 37.2855 9.31619C37.2167 9.31619 37.1602 9.26021 37.1602 9.19203C37.1602 9.12384 37.2167 9.06787 37.2855 9.06787C37.3543 9.06787 37.4108 9.12283 37.4108 9.19203Z" fill="white"/>
<path d="M39.0863 9.14636C39.0863 9.19113 39.0493 9.22777 39.0031 9.22777C38.9569 9.22777 38.9209 9.19113 38.9209 9.14636C38.9209 9.10158 38.9579 9.06494 39.0031 9.06494C39.0483 9.06494 39.0863 9.10158 39.0863 9.14636Z" fill="white"/>
<path opacity="0.5" d="M35.5964 7.87207C35.582 7.89141 35.5676 7.91074 35.5532 7.9311C35.5193 7.97995 35.4885 8.03287 35.4618 8.0868C35.4505 8.11123 35.4392 8.13463 35.43 8.15906C35.4002 8.22928 35.3765 8.30357 35.3601 8.38092C35.3467 8.44299 35.3385 8.50813 35.3344 8.57428C35.3262 8.72286 35.319 8.85719 35.3118 8.97423C35.2913 9.36299 35.28 9.57568 35.28 9.57568L34.8793 9.90745L34.6759 10.0764C34.6328 10.0102 34.5866 9.9451 34.5383 9.87692C34.4212 9.71002 34.3123 9.55635 34.2044 9.43626C34.1962 9.42812 34.189 9.41896 34.1808 9.41082C34.1736 9.40268 34.1664 9.39555 34.1582 9.38741H34.1592L34.7263 9.52887C34.7263 9.52887 34.6698 8.74423 34.8783 8.00742C35.1033 7.95552 35.3457 7.90769 35.5964 7.87207V7.87207Z" fill="#52363E"/>
<path opacity="0.5" d="M38.9082 6.79247C38.9082 6.79247 38.9056 6.79117 38.9043 6.79247C38.9056 6.79117 38.9056 6.78987 38.9069 6.78857C38.9069 6.78857 38.9082 6.79117 38.9082 6.79247Z" fill="#52363E"/>
<path opacity="0.5" d="M39.0953 7.55991C39.0953 7.55991 39.0891 7.54974 39.086 7.54567C39.0788 7.53549 39.0716 7.52531 39.0645 7.51514C39.0727 7.52531 39.0799 7.53549 39.0871 7.54567C39.0901 7.54974 39.0932 7.55483 39.0953 7.55991V7.55991Z" fill="#52363E"/>
<path opacity="0.5" d="M39.1029 7.57327V7.57532C39.1029 7.57532 39.0987 7.5671 39.0977 7.56299C39.0987 7.56607 39.1008 7.57018 39.1029 7.57327V7.57327Z" fill="#52363E"/>
<path d="M37.6517 13.5236L37.8263 13.9429C37.2356 13.7434 35.4328 13.0321 35.1421 12.7471C34.9428 12.9578 34.6777 13.0677 34.6777 13.0677C34.6788 13.0656 34.6788 13.0626 34.6798 13.0606C34.6829 13.0483 34.686 13.0361 34.688 13.0239L34.6921 13.0198C34.6983 13.0137 34.7044 13.0087 34.7096 13.0036C34.7188 12.9944 34.727 12.9873 34.7353 12.9791C34.7835 12.9048 34.8308 12.8133 34.8719 12.7023C34.8719 12.7013 34.8729 12.7013 34.8729 12.7013C34.8852 12.6647 34.8986 12.626 34.9109 12.5853C34.9592 12.4235 34.9931 12.2281 35.0003 12.0001V11.9971C35.0003 11.9971 35.0065 12.0042 35.0095 12.0072H35.0106C35.0198 12.0174 35.0291 12.0276 35.0404 12.0388C35.0517 12.049 35.065 12.0602 35.0784 12.0714C35.0876 12.0785 35.0969 12.0866 35.1071 12.0948C35.1462 12.1253 35.1914 12.1589 35.2427 12.1945C35.2664 12.2118 35.292 12.2291 35.3198 12.2474C35.3455 12.2647 35.3722 12.282 35.4009 12.3003C35.4389 12.3248 35.478 12.3492 35.5191 12.3736C35.5571 12.397 35.5961 12.4214 35.6372 12.4449C35.6382 12.4459 35.6403 12.4469 35.6423 12.4479C35.6824 12.4723 35.7235 12.4968 35.7666 12.5222C35.7687 12.5232 35.7707 12.5242 35.7728 12.5253C35.8149 12.5497 35.8581 12.5751 35.9033 12.5995C35.9752 12.6413 36.0502 12.684 36.1272 12.7257C36.1971 12.7644 36.2679 12.8031 36.3398 12.8428C36.344 12.8448 36.3481 12.8468 36.3522 12.8489C36.3984 12.8743 36.4446 12.8987 36.4908 12.9242C36.8956 13.141 37.3127 13.3547 37.6517 13.5236V13.5236Z" fill="#F18D73"/>
<path d="M40.1895 27.7009C40.1895 27.7009 40.8685 27.307 42.0087 27.3701C42.018 27.4963 41.8187 27.7864 41.8187 27.7864L41.3431 28.1354L40.1895 27.6999V27.7009Z" fill="#F18D73"/>
<path d="M38.2266 44.8887C38.2266 44.8887 32.2818 44.2852 29.6849 52.1418C29.6849 52.1418 28.1933 58.8657 27.9016 61.8007C27.6098 64.7357 25.9056 69.414 22.6769 70.7472C19.4483 72.0804 16.272 71.9989 16.272 71.9989L9 64.7286C9 64.7286 15.4615 64.5138 16.9551 62.624C18.4487 60.7341 19.702 59.9434 21.0374 51.5424C22.3729 43.1413 22.5804 39.9753 30.2191 37.6214C37.8568 35.2675 30.2191 37.6214 30.2191 37.6214" fill="#EFF3F9"/>
<path d="M38.1821 44.9304C35.5277 42.494 32.8732 40.0577 30.2178 37.6213C50.4353 39.7381 34.8178 8.96621 55.0354 11.083C57.6898 13.5194 60.3442 15.9557 62.9987 18.3921C42.7812 16.2753 58.3996 47.0471 38.1821 44.9304V44.9304Z" fill="#EFF3F9"/>
<path d="M60.7921 17.4854C43.2629 17.0081 56.4242 44.6985 38.895 44.2212C36.7552 42.257 34.6144 40.2929 32.4746 38.3287C50.0038 38.806 36.8425 11.1157 54.3717 11.593C56.5115 13.5572 58.6523 15.5213 60.7921 17.4854V17.4854Z" fill="#FFC2C2"/>
<path d="M39.0477 44.2475C39.0128 44.2475 38.9768 44.2455 38.9409 44.2445C36.8011 42.2803 34.6613 40.3162 32.5205 38.3521C32.5565 38.3521 32.5914 38.3541 32.6273 38.3551C34.7682 40.3192 36.9079 42.2834 39.0477 44.2475Z" fill="#E8EBF0"/>
<path d="M39.9888 44.2142C39.9559 44.2152 39.923 44.2173 39.8891 44.2183C37.7493 42.2541 35.6085 40.29 33.4688 38.3258C33.5026 38.3248 33.5355 38.3228 33.5684 38.3218C35.7092 40.2859 37.849 42.2501 39.9888 44.2142V44.2142Z" fill="#E8EBF0"/>
<path d="M40.9552 44.1356C40.9244 44.1386 40.8936 44.1427 40.8628 44.1458C38.722 42.1816 36.5822 40.2175 34.4424 38.2533C34.4732 38.2503 34.504 38.2472 34.5348 38.2432C36.6756 40.2083 38.8154 42.1714 40.9552 44.1356V44.1356Z" fill="#E8EBF0"/>
<path d="M41.8494 43.992C41.8206 43.9981 41.7929 44.0032 41.7641 44.0093C39.6243 42.0452 37.4835 40.081 35.3438 38.1169C35.3725 38.1118 35.4013 38.1057 35.429 38.0996C37.5688 40.0638 39.7096 42.0279 41.8494 43.992Z" fill="#E8EBF0"/>
<path d="M42.6762 43.7855C42.6495 43.7936 42.6238 43.8008 42.5971 43.8089C40.4574 41.8448 38.3165 39.8806 36.1768 37.9165C36.2035 37.9093 36.2291 37.9012 36.2559 37.8931C38.3956 39.8572 40.5365 41.8213 42.6762 43.7855Z" fill="#E8EBF0"/>
<path d="M43.4376 43.5199C43.414 43.53 43.3893 43.5392 43.3657 43.5484C41.2259 41.5842 39.0851 39.6201 36.9453 37.6559C36.97 37.6468 36.9936 37.6366 37.0182 37.6274C39.1591 39.5916 41.2988 41.5557 43.4386 43.5199H43.4376Z" fill="#E8EBF0"/>
<path d="M44.1356 43.1976C44.114 43.2088 44.0914 43.221 44.0688 43.2322C41.929 41.2681 39.7882 39.3039 37.6484 37.3398C37.671 37.3286 37.6926 37.3174 37.7152 37.3052C39.855 39.2693 41.9958 41.2335 44.1356 43.1976Z" fill="#E8EBF0"/>
<path d="M44.7769 42.8206C44.7563 42.8349 44.7358 42.8471 44.7163 42.8603C42.5765 40.8962 40.4357 38.9321 38.2959 36.9679C38.3164 36.9547 38.337 36.9415 38.3565 36.9282C40.4963 38.8924 42.6371 40.8565 44.7769 42.8206Z" fill="#E8EBF0"/>
<path d="M45.3626 42.3934C45.3441 42.4077 45.3256 42.4229 45.3071 42.4382C43.1673 40.474 41.0275 38.5099 38.8867 36.5458C38.9052 36.5315 38.9247 36.5162 38.9422 36.501C41.082 38.4651 43.2228 40.4293 45.3626 42.3934Z" fill="#E8EBF0"/>
<path d="M45.8955 41.9183C45.8781 41.9346 45.8616 41.9509 45.8452 41.9672C43.7044 40.003 41.5646 38.0389 39.4248 36.0747C39.4412 36.0584 39.4587 36.0422 39.4751 36.0259C41.6149 37.99 43.7557 39.9542 45.8955 41.9183Z" fill="#E8EBF0"/>
<path d="M46.3796 41.3983C46.3642 41.4156 46.3488 41.4339 46.3344 41.4512C44.1936 39.4871 42.0538 37.5229 39.9141 35.5588C39.9295 35.5415 39.9449 35.5232 39.9603 35.5059C42.1001 37.47 44.2409 39.4341 46.3807 41.3983H46.3796Z" fill="#E8EBF0"/>
<path d="M46.817 40.8353C46.8026 40.8546 46.7893 40.874 46.7749 40.8923C44.6351 38.9281 42.4943 36.964 40.3545 34.9999C40.3678 34.9815 40.3822 34.9622 40.3966 34.9429C42.5364 36.907 44.6772 38.8712 46.817 40.8353Z" fill="#E8EBF0"/>
<path d="M47.2122 40.2337C47.1999 40.2541 47.1876 40.2744 47.1753 40.2948C45.0345 38.3307 42.8947 36.3665 40.7549 34.4024C40.7672 34.382 40.7795 34.3617 40.7919 34.3413C42.9327 36.3054 45.0725 38.2696 47.2122 40.2337Z" fill="#E8EBF0"/>
<path d="M47.5695 39.597C47.5582 39.6184 47.5469 39.6398 47.5356 39.6611C45.3958 37.697 43.255 35.7328 41.1152 33.7687C41.1265 33.7473 41.1378 33.726 41.1491 33.7046C43.2889 35.6687 45.4297 37.6329 47.5695 39.597Z" fill="#E8EBF0"/>
<path d="M47.8896 38.9261C47.8793 38.9485 47.8691 38.9719 47.8598 38.9943C45.719 37.0302 43.5792 35.066 41.4395 33.1019C41.4497 33.0795 41.46 33.0561 41.4692 33.0337C43.609 34.9978 45.7498 36.962 47.8896 38.9261Z" fill="#E8EBF0"/>
<path d="M48.1776 38.225C48.1683 38.2484 48.1601 38.2718 48.1508 38.2952C46.01 36.3311 43.8703 34.3669 41.7305 32.4028C41.7397 32.3794 41.749 32.356 41.7572 32.3315C43.898 34.2957 46.0378 36.2598 48.1776 38.225V38.225Z" fill="#E8EBF0"/>
<path d="M48.4342 37.4964C48.426 37.5209 48.4188 37.5453 48.4106 37.5697C46.2708 35.6045 44.13 33.6414 41.9902 31.6763C41.9985 31.6518 42.0067 31.6274 42.0149 31.604C44.1547 33.5681 46.2955 35.5323 48.4353 37.4964H48.4342Z" fill="#E8EBF0"/>
<path d="M48.6656 36.744C48.6584 36.7694 48.6512 36.7939 48.644 36.8193C46.5032 34.8552 44.3634 32.891 42.2236 30.9269C42.2308 30.9014 42.238 30.877 42.2452 30.8516C44.386 32.8157 46.5258 34.7798 48.6656 36.744Z" fill="#E8EBF0"/>
<path d="M48.8735 35.9705C48.8673 35.996 48.8612 36.0214 48.854 36.0479C46.7142 34.0838 44.5734 32.1196 42.4336 30.1555C42.4398 30.13 42.4469 30.1046 42.4531 30.0781C44.5929 32.0423 46.7337 34.0064 48.8735 35.9705Z" fill="#E8EBF0"/>
<path d="M49.0619 35.179C49.0557 35.2055 49.0506 35.232 49.0444 35.2574C46.9036 33.2933 44.7638 31.3291 42.624 29.365C42.6302 29.3385 42.6363 29.3121 42.6415 29.2866C44.7813 31.2508 46.9221 33.2149 49.0619 35.179V35.179Z" fill="#E8EBF0"/>
<path d="M49.2327 34.3709C49.2276 34.3984 49.2224 34.4249 49.2163 34.4513C47.0765 32.4872 44.9357 30.5231 42.7959 28.5589C42.801 28.5325 42.8062 28.506 42.8123 28.4785C44.9521 30.4427 47.0929 32.4068 49.2327 34.3709Z" fill="#E8EBF0"/>
<path d="M49.3898 33.5506C49.3847 33.5781 49.3806 33.6056 49.3755 33.632C47.2357 31.6679 45.0949 29.7038 42.9551 27.7396C42.9602 27.7121 42.9654 27.6857 42.9705 27.6582C45.1103 29.6223 47.2511 31.5865 49.3909 33.5506H49.3898Z" fill="#E8EBF0"/>
<path d="M49.5373 32.7225C49.5332 32.75 49.5281 32.7775 49.5229 32.8049C47.3831 30.8408 45.2434 28.8767 43.1025 26.9125C43.1077 26.885 43.1118 26.8576 43.1169 26.8301C45.2577 28.7942 47.3975 30.7584 49.5373 32.7225Z" fill="#E8EBF0"/>
<path d="M49.6769 31.8856C49.6718 31.9131 49.6677 31.9416 49.6635 31.969C47.5238 30.0049 45.3829 28.0408 43.2432 26.0766C43.2483 26.0481 43.2524 26.0217 43.2565 25.9932C45.3963 27.9573 47.5371 29.9214 49.6769 31.8856Z" fill="#E8EBF0"/>
<path d="M49.8126 31.0463C49.8085 31.0738 49.8034 31.1022 49.7993 31.1287C47.6585 29.1646 45.5187 27.2004 43.3789 25.2363C43.383 25.2078 43.3881 25.1813 43.3923 25.1528C45.5331 27.117 47.6729 29.0811 49.8126 31.0453V31.0463Z" fill="#E8EBF0"/>
<path d="M49.9484 30.2054C49.9443 30.2329 49.9391 30.2604 49.935 30.2889C47.7952 28.3247 45.6544 26.3606 43.5146 24.3964C43.5188 24.369 43.5239 24.3405 43.528 24.313C45.6678 26.2771 47.8086 28.2413 49.9484 30.2054Z" fill="#E8EBF0"/>
<path d="M50.0861 29.368C50.0809 29.3955 50.0768 29.423 50.0727 29.4504C47.9319 27.4863 45.7921 25.5222 43.6523 23.558C43.6575 23.5305 43.6616 23.5031 43.6667 23.4756C45.8065 25.4397 47.9463 27.4039 50.0871 29.368H50.0861Z" fill="#E8EBF0"/>
<path d="M50.2287 28.5345C50.2236 28.562 50.2195 28.5895 50.2143 28.6159C48.0745 26.6518 45.9337 24.6876 43.7939 22.7235C43.7991 22.696 43.8032 22.6685 43.8083 22.6421C45.9481 24.6062 48.0889 26.5704 50.2287 28.5345Z" fill="#E8EBF0"/>
<path d="M50.3821 27.7094C50.3769 27.7368 50.3718 27.7633 50.3667 27.7908C48.2269 25.8266 46.0861 23.8625 43.9463 21.8973C43.9514 21.8709 43.9566 21.8434 43.9617 21.8159C46.1015 23.7801 48.2423 25.7442 50.3821 27.7083V27.7094Z" fill="#E8EBF0"/>
<path d="M50.5462 26.8958C50.5401 26.9223 50.5349 26.9488 50.5288 26.9752C48.389 25.0111 46.2482 23.0469 44.1084 21.0828C44.1135 21.0563 44.1197 21.0299 44.1248 21.0034C46.2646 22.9676 48.4054 24.9317 50.5452 26.8958H50.5462Z" fill="#E8EBF0"/>
<path d="M50.726 26.096C50.7198 26.1215 50.7137 26.1479 50.7075 26.1744C48.5677 24.2103 46.4279 22.2461 44.2871 20.282C44.2933 20.2555 44.2994 20.2291 44.3056 20.2036C46.4454 22.1678 48.5862 24.1319 50.726 26.096Z" fill="#E8EBF0"/>
<path d="M50.9243 25.3143C50.9171 25.3397 50.911 25.3652 50.9038 25.3906C48.763 23.4265 46.6232 21.4623 44.4834 19.4982C44.4906 19.4728 44.4968 19.4473 44.5039 19.4219C46.6448 21.386 48.7845 23.3502 50.9243 25.3143Z" fill="#E8EBF0"/>
<path d="M51.1442 24.5521C51.137 24.5765 51.1288 24.6009 51.1206 24.6264C48.9808 22.6622 46.84 20.6981 44.7002 18.734C44.7074 18.7095 44.7156 18.6841 44.7228 18.6597C46.8626 20.6238 49.0034 22.588 51.1432 24.5531L51.1442 24.5521Z" fill="#E8EBF0"/>
<path d="M51.3884 23.8114C51.3802 23.8358 51.372 23.8592 51.3628 23.8836C49.223 21.9195 47.0822 19.9553 44.9424 17.9912C44.9506 17.9678 44.9598 17.9434 44.9681 17.9189C47.1089 19.8831 49.2487 21.8472 51.3884 23.8114Z" fill="#E8EBF0"/>
<path d="M51.663 23.0979C51.6538 23.1214 51.6445 23.1448 51.6342 23.1682C49.4934 21.204 47.3537 19.2399 45.2139 17.2757C45.2231 17.2523 45.2334 17.2289 45.2426 17.2065C47.3834 19.1707 49.5232 21.1348 51.663 23.099V23.0979Z" fill="#E8EBF0"/>
<path d="M51.9678 22.4129C51.9565 22.4353 51.9463 22.4567 51.936 22.4801C49.7962 20.516 47.6554 18.5518 45.5156 16.5877C45.5259 16.5653 45.5362 16.5429 45.5475 16.5205C47.6873 18.4846 49.8281 20.4488 51.9678 22.4129Z" fill="#E8EBF0"/>
<path d="M52.3069 21.7606C52.2956 21.782 52.2832 21.8023 52.2719 21.8237C50.1311 19.8595 47.9913 17.8954 45.8516 15.9313C45.8629 15.9099 45.8752 15.8885 45.8865 15.8682C48.0273 17.8323 50.1671 19.7964 52.3069 21.7606Z" fill="#E8EBF0"/>
<path d="M52.684 21.1419C52.6707 21.1623 52.6573 21.1816 52.645 21.202C50.5052 19.2378 48.3644 17.2737 46.2246 15.3096C46.2369 15.2892 46.2503 15.2699 46.2636 15.2495C48.4034 17.2137 50.5442 19.1778 52.684 21.1419Z" fill="#E8EBF0"/>
<path d="M53.1032 20.5618C53.0888 20.5801 53.0744 20.5995 53.06 20.6178C50.9202 18.6536 48.7794 16.6895 46.6396 14.7254C46.654 14.707 46.6684 14.6887 46.6828 14.6704C48.8226 16.6346 50.9634 18.5987 53.1032 20.5628V20.5618Z" fill="#E8EBF0"/>
<path d="M53.5653 20.0223C53.5499 20.0396 53.5334 20.0569 53.518 20.0742C51.3783 18.1101 49.2374 16.1459 47.0977 14.1818C47.1131 14.1645 47.1295 14.1472 47.1449 14.1299C49.2847 16.094 51.4255 18.0582 53.5653 20.0223V20.0223Z" fill="#E8EBF0"/>
<path d="M54.0763 19.5257C54.0588 19.542 54.0414 19.5573 54.0239 19.5725C51.8831 17.6084 49.7433 15.6443 47.6035 13.6801C47.621 13.6638 47.6384 13.6486 47.6559 13.6333C49.7967 15.5974 51.9365 17.5616 54.0763 19.5257Z" fill="#E8EBF0"/>
<path d="M54.6361 19.0761C54.6166 19.0903 54.5971 19.1035 54.5786 19.1178C52.4378 17.1536 50.298 15.1895 48.1582 13.2254C48.1777 13.2111 48.1962 13.1969 48.2157 13.1826C50.3555 15.1468 52.4963 17.1109 54.6361 19.075V19.0761Z" fill="#E8EBF0"/>
<path d="M55.2507 18.6762C55.2291 18.6884 55.2086 18.7006 55.187 18.7128C53.0462 16.7487 50.9064 14.7845 48.7666 12.8204C48.7871 12.8082 48.8087 12.7949 48.8293 12.7827C50.9701 14.7469 53.1099 16.711 55.2496 18.6751L55.2507 18.6762Z" fill="#E8EBF0"/>
<path d="M55.9228 18.328C55.8992 18.3381 55.8766 18.3493 55.854 18.3595C53.7142 16.3954 51.5734 14.4312 49.4336 12.4671C49.4572 12.4569 49.4798 12.4457 49.5024 12.4355C51.6422 14.3997 53.783 16.3638 55.9228 18.328Z" fill="#E8EBF0"/>
<path d="M56.6556 18.036C56.6299 18.0452 56.6052 18.0533 56.5796 18.0625C54.4398 16.0983 52.3 14.1332 50.1592 12.169C50.1838 12.1599 50.2095 12.1517 50.2342 12.1426C52.374 14.1067 54.5148 16.0709 56.6545 18.035L56.6556 18.036Z" fill="#E8EBF0"/>
<path d="M57.4518 17.8021C57.424 17.8092 57.3973 17.8153 57.3696 17.8224C55.2298 15.8583 53.089 13.8942 50.9492 11.93C50.9759 11.9229 51.0037 11.9168 51.0304 11.9097C53.1702 13.8738 55.311 15.8379 57.4508 17.8021H57.4518Z" fill="#E8EBF0"/>
<path d="M58.3144 17.6288C58.2846 17.6339 58.2548 17.638 58.226 17.643C56.0863 15.6789 53.9454 13.7148 51.8057 11.7496C51.8355 11.7445 51.8642 11.7404 51.894 11.7354C54.0338 13.6995 56.1746 15.6636 58.3144 17.6278V17.6288Z" fill="#E8EBF0"/>
<path d="M59.2474 17.5213C59.2155 17.5233 59.1837 17.5264 59.1518 17.5294C57.011 15.5653 54.8712 13.6011 52.7314 11.637C52.7633 11.635 52.7951 11.6319 52.827 11.6299C54.9678 13.594 57.1076 15.5582 59.2474 17.5223V17.5213Z" fill="#E8EBF0"/>
<path d="M60.2536 17.4803C60.2197 17.4803 60.1847 17.4803 60.1508 17.4803C58.0111 15.5162 55.8713 13.552 53.7305 11.5879C53.7644 11.5879 53.7993 11.5879 53.8332 11.5879C55.973 13.552 58.1138 15.5162 60.2536 17.4803Z" fill="#E8EBF0"/>
<path d="M55.2145 12.3664C37.6853 11.8891 50.8466 39.5795 33.3174 39.1022C33.2907 39.0777 33.264 39.0543 33.2383 39.0299C50.7675 39.5072 37.6062 11.8169 55.1354 12.2942C55.1621 12.3186 55.1878 12.343 55.2145 12.3675V12.3664Z" fill="#E8EBF0"/>
<path d="M56.0162 13.1033C38.4871 12.626 51.6483 40.3163 34.1191 39.839C34.0924 39.8146 34.0657 39.7902 34.04 39.7658C51.5692 40.2431 38.408 12.5527 55.9371 13.03C55.9638 13.0545 55.9895 13.0789 56.0162 13.1033V13.1033Z" fill="#E8EBF0"/>
<path d="M56.82 13.8401C39.2908 13.3628 52.4521 41.0531 34.9219 40.5758C34.8952 40.5514 34.8695 40.527 34.8428 40.5026C52.373 40.9799 39.2107 13.2895 56.7409 13.7668C56.7676 13.7913 56.7933 13.8157 56.82 13.8401V13.8401Z" fill="#E8EBF0"/>
<path d="M57.6217 14.576C40.0925 14.0987 53.2538 41.789 35.7246 41.3117C35.6979 41.2873 35.6712 41.2628 35.6455 41.2384C53.1747 41.7157 40.0134 14.0254 57.5426 14.5027C57.5693 14.5271 57.596 14.5515 57.6217 14.576V14.576Z" fill="#E8EBF0"/>
<path d="M58.4244 15.3128C40.8953 14.8355 54.0565 42.5258 36.5273 42.0485C36.5006 42.0241 36.4739 41.9997 36.4482 41.9752C53.9774 42.4525 40.8162 14.7622 58.3453 15.2395C58.372 15.2639 58.3987 15.2883 58.4244 15.3128Z" fill="#E8EBF0"/>
<path d="M59.2262 16.0496C41.697 15.5723 54.8583 43.2626 37.3291 42.7853C37.3024 42.7609 37.2757 42.7365 37.25 42.712C54.7792 43.1893 41.6179 15.499 59.1471 15.9763C59.1738 16.0007 59.1995 16.0252 59.2262 16.0496V16.0496Z" fill="#E8EBF0"/>
<path d="M60.0299 16.7864C42.5007 16.3091 55.662 43.9994 38.1328 43.5221C38.1061 43.4977 38.0794 43.4733 38.0537 43.4489C55.5829 43.9262 42.4216 16.2358 59.9508 16.7131C59.9775 16.7376 60.0032 16.762 60.0299 16.7864V16.7864Z" fill="#E8EBF0"/>
<path d="M56.5154 17.3774C54.7116 16.145 52.9262 14.9289 51.1583 13.73C51.5219 14.4261 51.8989 15.1334 52.2872 15.8519C52.1866 15.9089 52.089 15.9679 51.9924 16.028C51.714 15.97 51.4398 15.915 51.1686 15.8631C51.1942 16.1094 51.2251 16.3587 51.259 16.6121C50.9128 16.4707 50.5676 16.3323 50.2266 16.1959C50.3221 16.5399 50.4228 16.8879 50.5275 17.2411C50.433 17.3418 50.3416 17.4456 50.2522 17.5515C49.9143 17.5199 49.5814 17.4935 49.2548 17.4721C49.3277 17.8588 49.4068 18.2527 49.4941 18.6526C49.3031 18.6363 49.113 18.6221 48.925 18.6089C49.752 19.6795 50.5851 20.7552 51.4233 21.837C49.827 20.7959 48.2419 19.7629 46.665 18.7381C47.192 19.5838 47.7252 20.4356 48.2645 21.2925C48.2265 21.4065 48.1885 21.5205 48.1525 21.6365C47.9532 21.6507 47.756 21.666 47.5598 21.6833C47.6707 22.0069 47.7827 22.3326 47.8967 22.6593C47.6132 22.5758 47.3317 22.4934 47.0503 22.413C47.2331 22.8374 47.418 23.2627 47.605 23.6902C47.5701 23.8459 47.5362 24.0016 47.5023 24.1593C47.2475 24.2041 46.9938 24.2499 46.7421 24.2988C46.9013 24.7659 47.0636 25.234 47.2259 25.7042C47.0729 25.7235 46.9208 25.7429 46.7678 25.7622C47.6646 26.8969 48.5624 28.0327 49.4602 29.1684C47.9471 28.2016 46.4339 27.2368 44.9208 26.271C45.5022 27.1676 46.0846 28.0632 46.665 28.9588C46.6435 29.088 46.6229 29.2172 46.6014 29.3465C46.4216 29.378 46.2428 29.4106 46.062 29.4422C46.1915 29.7821 46.3189 30.123 46.4473 30.4619C46.175 30.3886 45.9018 30.3153 45.6285 30.241C45.8227 30.6756 46.0158 31.1081 46.2069 31.5396C46.175 31.6984 46.1422 31.8561 46.1093 32.0128C45.8535 32.0576 45.5967 32.1004 45.3368 32.1411C45.4878 32.6 45.6347 33.055 45.7796 33.5078C45.6172 33.518 45.4539 33.5272 45.2895 33.5363C46.1627 34.6497 47.0328 35.759 47.8978 36.8652C46.3394 35.8577 44.7728 34.843 43.198 33.8203C43.7261 34.668 44.2489 35.5086 44.7636 36.3431C44.7153 36.4479 44.665 36.5507 44.6146 36.6535C44.3969 36.6505 44.176 36.6444 43.9541 36.6372C44.0353 36.9334 44.1123 37.2265 44.1873 37.5175C43.873 37.4056 43.5555 37.2916 43.2371 37.1756C43.3655 37.5501 43.4888 37.9195 43.6089 38.2859C43.5237 38.3958 43.4374 38.5037 43.348 38.6095C43.009 38.5769 42.6649 38.5403 42.3136 38.4965C42.3598 38.8588 42.3978 39.214 42.4266 39.561C42.2067 39.5193 41.9849 39.4745 41.7609 39.4287C42.517 40.4342 43.2658 41.4326 44.0055 42.4238C42.2756 41.2596 40.5292 40.0791 38.7654 38.8833C39.1321 39.5814 39.4866 40.2683 39.8266 40.9431C39.7064 40.9817 39.5841 41.0184 39.4588 41.053C39.1424 40.9594 38.8229 40.8627 38.4983 40.7619C38.4644 40.9532 38.4254 41.1395 38.3812 41.3196C37.9713 41.1201 37.5574 40.9176 37.1413 40.7121C37.1269 40.9563 37.1054 41.1924 37.0756 41.4214C36.6883 41.4417 36.2836 41.4468 35.8614 41.4356C35.8213 41.399 35.7823 41.3634 35.7422 41.3257C36.1408 41.3369 36.5239 41.3328 36.8917 41.3155C36.9256 41.0621 36.9502 40.7986 36.9657 40.5279C37.3909 40.7375 37.8121 40.9431 38.2302 41.1466C38.2723 40.9736 38.3093 40.7965 38.3412 40.6144C38.6945 40.7232 39.0428 40.8291 39.3869 40.9298C39.4701 40.9064 39.5533 40.882 39.6345 40.8566C39.2544 40.1004 38.8568 39.329 38.4439 38.5423C40.1574 39.7035 41.8544 40.8505 43.536 41.9821C42.8621 41.0784 42.18 40.1696 41.4918 39.2537C41.7558 39.3087 42.0167 39.3606 42.2735 39.4104C42.2437 39.0644 42.2067 38.7113 42.1605 38.35C42.5314 38.3958 42.896 38.4345 43.2545 38.468C43.3244 38.3846 43.3932 38.2991 43.461 38.2126C43.3295 37.8066 43.1919 37.3944 43.0491 36.9782C43.3737 37.0962 43.6973 37.2122 44.0178 37.3252C43.9459 37.0484 43.8719 36.7695 43.7949 36.4876C44.0383 36.4958 44.2777 36.5009 44.515 36.5039C44.5489 36.4357 44.5828 36.3655 44.6157 36.2953C44.0383 35.358 43.4518 34.4136 42.858 33.461C44.3886 34.4543 45.911 35.4404 47.4252 36.4205C46.6363 35.4119 45.8432 34.4003 45.0481 33.3867C45.2413 33.3765 45.4334 33.3654 45.6244 33.3531C45.4806 32.9023 45.3337 32.4494 45.1837 31.9925C45.458 31.9497 45.7302 31.904 46.0004 31.8571C46.0261 31.733 46.0518 31.6078 46.0775 31.4826C45.8648 31.0023 45.6501 30.5199 45.4344 30.0365C45.7138 30.1118 45.9922 30.1871 46.2706 30.2614C46.1494 29.9388 46.0271 29.6152 45.9038 29.2915C46.1001 29.2569 46.2963 29.2223 46.4914 29.1867C46.5058 29.1002 46.5202 29.0127 46.5346 28.9252C45.8813 27.9197 45.2279 26.9122 44.5746 25.9047C46.0446 26.843 47.5156 27.7813 48.9867 28.7216C48.1679 27.6856 47.3492 26.6506 46.5315 25.6156C46.7102 25.5933 46.889 25.5698 47.0688 25.5475C46.9065 25.0803 46.7452 24.6132 46.587 24.1481C46.8541 24.0973 47.1222 24.0484 47.3923 24.0016C47.4191 23.8774 47.4458 23.7533 47.4735 23.6311C47.265 23.1549 47.0595 22.6806 46.8561 22.2084C47.1438 22.2909 47.4314 22.3753 47.72 22.4598C47.6112 22.1484 47.5043 21.839 47.3995 21.5317C47.6132 21.5133 47.8289 21.496 48.0467 21.4818C48.0714 21.4044 48.097 21.3271 48.1217 21.2498C47.5146 20.286 46.9157 19.3284 46.324 18.3789C47.8577 19.3752 49.3996 20.3786 50.9508 21.3912C50.1865 20.4061 49.4274 19.425 48.6723 18.4481C48.8922 18.4633 49.1151 18.4796 49.339 18.4989C49.2527 18.101 49.1736 17.7092 49.1017 17.3245C49.4489 17.3469 49.8013 17.3754 50.1598 17.41C50.2307 17.3266 50.3036 17.2451 50.3776 17.1647C50.2594 16.7709 50.1475 16.3832 50.0417 16.0005C50.3909 16.1399 50.7422 16.2824 51.0966 16.4269C51.0648 16.1857 51.036 15.9486 51.0114 15.7145C51.3072 15.7715 51.6072 15.8316 51.9113 15.8957C51.976 15.855 52.0417 15.8153 52.1085 15.7766C51.6688 14.9665 51.2456 14.1707 50.8378 13.3901C52.5574 14.5564 54.2935 15.739 56.047 16.9378C55.4235 16.0809 54.8071 15.2322 54.201 14.3905C54.5185 14.4943 54.84 14.6022 55.1656 14.7142C55.2509 14.474 55.3495 14.245 55.4584 14.0262C55.9741 14.2033 56.499 14.3905 57.0352 14.5859C57.2335 14.5839 57.4348 14.5859 57.6413 14.591C57.6814 14.6276 57.7204 14.6643 57.7605 14.6999C57.5335 14.6938 57.3126 14.6928 57.0959 14.6958C56.5904 14.5106 56.0953 14.3356 55.6094 14.1677C55.4995 14.3875 55.4019 14.6185 55.3156 14.8587C55.0382 14.764 54.764 14.6714 54.4928 14.5819C55.1574 15.5029 55.8313 16.434 56.5165 17.3744L56.5154 17.3774Z" fill="#3A4651"/>
<path d="M38.9483 44.2476C21.4191 43.7704 34.5804 71.4607 17.0512 70.9834C14.9115 69.0192 12.7706 67.0551 10.6309 65.091C28.16 65.5682 14.9988 37.8779 32.5279 38.3552C34.6677 40.3194 36.8085 42.2835 38.9483 44.2476V44.2476Z" fill="#FFC2C2"/>
<path d="M17.1053 70.9853C17.0704 70.9853 17.0345 70.9833 16.9985 70.9823C14.8587 69.0181 12.7189 67.054 10.5781 65.0898C10.6141 65.0898 10.649 65.0919 10.685 65.0929C12.8258 67.057 14.9656 69.0212 17.1053 70.9853Z" fill="#E8EBF0"/>
<path d="M18.146 70.9759C18.1131 70.9769 18.0803 70.979 18.0464 70.98C15.9066 69.0159 13.7658 67.0517 11.626 65.0876C11.6599 65.0866 11.6927 65.0845 11.7256 65.0835C13.8664 67.0476 16.0062 69.0118 18.146 70.9759Z" fill="#E8EBF0"/>
<path d="M19.1115 70.8978C19.0806 70.9008 19.0498 70.9049 19.019 70.908C16.8782 68.9438 14.7384 66.9797 12.5986 65.0155C12.6295 65.0125 12.6603 65.0094 12.6911 65.0054C14.8319 66.9705 16.9717 68.9337 19.1115 70.8978Z" fill="#E8EBF0"/>
<path d="M20.0056 70.7542C19.9769 70.7603 19.9491 70.7654 19.9204 70.7715C17.7806 68.8074 15.6398 66.8433 13.5 64.8791C13.5288 64.874 13.5575 64.8679 13.5853 64.8618C15.725 66.826 17.8659 68.7901 20.0056 70.7542Z" fill="#E8EBF0"/>
<path d="M20.8315 70.5487C20.8048 70.5568 20.7791 70.5639 20.7524 70.5721C18.6126 68.6079 16.4718 66.6438 14.332 64.6797C14.3587 64.6725 14.3844 64.6644 14.4111 64.6562C16.5509 66.6204 18.6917 68.5845 20.8315 70.5487Z" fill="#E8EBF0"/>
<path d="M21.5929 70.2821C21.5692 70.2922 21.5446 70.3014 21.521 70.3106C19.3812 68.3464 17.2404 66.3823 15.1006 64.4181C15.1252 64.409 15.1489 64.3988 15.1735 64.3896C17.3143 66.3538 19.4541 68.3179 21.5939 70.2821H21.5929Z" fill="#E8EBF0"/>
<path d="M22.2928 69.9593C22.2712 69.9705 22.2486 69.9827 22.226 69.9939C20.0863 68.0298 17.9454 66.0656 15.8057 64.1015C15.8283 64.0903 15.8498 64.0791 15.8724 64.0669C18.0122 66.031 20.153 67.9952 22.2928 69.9593Z" fill="#E8EBF0"/>
<path d="M22.9341 69.5829C22.9136 69.5971 22.893 69.6093 22.8735 69.6225C20.7337 67.6584 18.5929 65.6943 16.4531 63.7301C16.4737 63.7169 16.4942 63.7037 16.5137 63.6904C18.6535 65.6546 20.7943 67.6187 22.9341 69.5829Z" fill="#E8EBF0"/>
<path d="M23.5178 69.1556C23.4994 69.1699 23.4809 69.1851 23.4624 69.2004C21.3226 67.2362 19.1828 65.2721 17.042 63.308C17.0605 63.2937 17.08 63.2784 17.0975 63.2632C19.2372 65.2273 21.3781 67.1915 23.5178 69.1556V69.1556Z" fill="#E8EBF0"/>
<path d="M24.0518 68.68C24.0343 68.6963 24.0179 68.7126 24.0014 68.7289C21.8606 66.7647 19.7208 64.8006 17.5811 62.8365C17.5975 62.8202 17.615 62.8039 17.6314 62.7876C19.7712 64.7517 21.912 66.7159 24.0518 68.68V68.68Z" fill="#E8EBF0"/>
<path d="M24.5349 68.16C24.5195 68.1773 24.5041 68.1956 24.4897 68.2129C22.3489 66.2488 20.2091 64.2846 18.0693 62.3205C18.0847 62.3032 18.1002 62.2849 18.1156 62.2676C20.2553 64.2317 22.3962 66.1959 24.5359 68.16H24.5349Z" fill="#E8EBF0"/>
<path d="M24.9742 67.5975C24.9598 67.6168 24.9465 67.6362 24.9321 67.6545C22.7923 65.6903 20.6515 63.7262 18.5117 61.7621C18.5251 61.7438 18.5395 61.7244 18.5538 61.7051C20.6936 63.6692 22.8344 65.6334 24.9742 67.5975Z" fill="#E8EBF0"/>
<path d="M25.3695 66.9959C25.3571 67.0163 25.3448 67.0366 25.3325 67.057C23.1917 65.0929 21.0519 63.1287 18.9121 61.1646C18.9244 61.1442 18.9368 61.1239 18.9491 61.1035C21.0899 63.0677 23.2297 65.0318 25.3695 66.9959V66.9959Z" fill="#E8EBF0"/>
<path d="M25.7258 66.3587C25.7145 66.3801 25.7032 66.4015 25.6919 66.4229C23.5521 64.4587 21.4113 62.4946 19.2715 60.5304C19.2828 60.5091 19.2941 60.4877 19.3054 60.4663C21.4452 62.4305 23.586 64.3946 25.7258 66.3587Z" fill="#E8EBF0"/>
<path d="M26.0468 65.6883C26.0366 65.7107 26.0263 65.7341 26.0171 65.7565C23.8762 63.7924 21.7365 61.8282 19.5967 59.8641C19.607 59.8417 19.6172 59.8183 19.6265 59.7959C21.7663 61.76 23.9071 63.7242 26.0468 65.6883Z" fill="#E8EBF0"/>
<path d="M26.3328 64.9882C26.3236 65.0116 26.3154 65.035 26.3061 65.0584C24.1653 63.0942 22.0255 61.1301 19.8857 59.166C19.895 59.1426 19.9042 59.1192 19.9125 59.0947C22.0533 61.0589 24.193 63.023 26.3328 64.9882V64.9882Z" fill="#E8EBF0"/>
<path d="M26.5905 64.2591C26.5823 64.2836 26.5751 64.308 26.5669 64.3324C24.4271 62.3672 22.2863 60.4041 20.1465 58.439C20.1547 58.4145 20.1629 58.3901 20.1711 58.3667C22.3109 60.3308 24.4517 62.295 26.5915 64.2591H26.5905Z" fill="#E8EBF0"/>
<path d="M26.8218 63.5072C26.8146 63.5326 26.8075 63.557 26.8003 63.5825C24.6595 61.6183 22.5197 59.6542 20.3799 57.6901C20.3871 57.6646 20.3943 57.6402 20.4015 57.6147C22.5423 59.5789 24.6821 61.543 26.8218 63.5072Z" fill="#E8EBF0"/>
<path d="M27.0297 62.7328C27.0236 62.7582 27.0174 62.7836 27.0102 62.8101C24.8704 60.846 22.7296 58.8818 20.5898 56.9177C20.596 56.8922 20.6032 56.8668 20.6094 56.8403C22.7491 58.8045 24.89 60.7686 27.0297 62.7328Z" fill="#E8EBF0"/>
<path d="M27.2171 61.9413C27.211 61.9677 27.2058 61.9942 27.1997 62.0196C25.0589 60.0555 22.9191 58.0913 20.7793 56.1272C20.7855 56.1007 20.7916 56.0743 20.7968 56.0488C22.9365 58.013 25.0774 59.9771 27.2171 61.9413V61.9413Z" fill="#E8EBF0"/>
<path d="M27.389 61.1332C27.3838 61.1606 27.3787 61.1871 27.3725 61.2135C25.2327 59.2494 23.0919 57.2853 20.9521 55.3211C20.9573 55.2947 20.9624 55.2682 20.9686 55.2407C23.1084 57.2049 25.2492 59.169 27.389 61.1332Z" fill="#E8EBF0"/>
<path d="M27.5461 60.3138C27.541 60.3413 27.5368 60.3688 27.5317 60.3952C25.3919 58.4311 23.2511 56.4669 21.1113 54.5028C21.1165 54.4753 21.1216 54.4489 21.1267 54.4214C23.2665 56.3855 25.4073 58.3497 27.5471 60.3138H27.5461Z" fill="#E8EBF0"/>
<path d="M27.6926 59.4842C27.6885 59.5117 27.6833 59.5392 27.6782 59.5667C25.5384 57.6025 23.3986 55.6384 21.2578 53.6742C21.2629 53.6468 21.2671 53.6193 21.2722 53.5918C23.413 55.5559 25.5528 57.5201 27.6926 59.4842V59.4842Z" fill="#E8EBF0"/>
<path d="M27.8331 58.6478C27.828 58.6753 27.8239 58.7038 27.8198 58.7312C25.68 56.7671 23.5392 54.803 21.3994 52.8388C21.4046 52.8103 21.4087 52.7839 21.4128 52.7554C23.5526 54.7195 25.6934 56.6837 27.8331 58.6478V58.6478Z" fill="#E8EBF0"/>
<path d="M27.9699 57.808C27.9658 57.8355 27.9606 57.864 27.9565 57.8904C25.8157 55.9263 23.6759 53.9621 21.5361 51.998C21.5402 51.9695 21.5454 51.943 21.5495 51.9146C23.6903 53.8787 25.8301 55.8428 27.9699 57.807V57.808Z" fill="#E8EBF0"/>
<path d="M28.1037 56.9676C28.0995 56.9951 28.0944 57.0226 28.0903 57.0511C25.9505 55.0869 23.8097 53.1228 21.6699 51.1586C21.674 51.1312 21.6792 51.1027 21.6833 51.0752C23.8231 53.0393 25.9639 55.0035 28.1037 56.9676V56.9676Z" fill="#E8EBF0"/>
<path d="M28.2413 56.1302C28.2362 56.1577 28.2321 56.1852 28.228 56.2126C26.0872 54.2485 23.9474 52.2844 21.8076 50.3202C21.8128 50.2927 21.8169 50.2653 21.822 50.2378C23.9618 52.2019 26.1016 54.1661 28.2424 56.1302H28.2413Z" fill="#E8EBF0"/>
<path d="M28.385 55.2967C28.3798 55.3242 28.3757 55.3517 28.3706 55.3781C26.2308 53.414 24.09 51.4499 21.9502 49.4857C21.9553 49.4582 21.9594 49.4308 21.9646 49.4043C24.1044 51.3684 26.2452 53.3326 28.385 55.2967V55.2967Z" fill="#E8EBF0"/>
<path d="M28.5373 54.4721C28.5322 54.4995 28.5271 54.526 28.5219 54.5535C26.3822 52.5893 24.2413 50.6252 22.1016 48.66C22.1067 48.6336 22.1118 48.6061 22.117 48.5786C24.2568 50.5428 26.3976 52.5069 28.5373 54.471V54.4721Z" fill="#E8EBF0"/>
<path d="M28.7015 53.6581C28.6953 53.6845 28.6902 53.711 28.684 53.7374C26.5443 51.7733 24.4035 49.8091 22.2637 47.845C22.2688 47.8185 22.275 47.7921 22.2801 47.7656C24.4199 49.7298 26.5607 51.6939 28.7005 53.6581H28.7015Z" fill="#E8EBF0"/>
<path d="M28.8813 52.8592C28.8751 52.8847 28.8689 52.9111 28.8628 52.9376C26.723 50.9734 24.5832 49.0093 22.4424 47.0452C22.4485 47.0187 22.4547 46.9922 22.4609 46.9668C24.6007 48.9309 26.7415 50.8951 28.8813 52.8592Z" fill="#E8EBF0"/>
<path d="M29.0796 52.0765C29.0724 52.1019 29.0662 52.1274 29.059 52.1528C26.9182 50.1887 24.7785 48.2245 22.6387 46.2604C22.6459 46.235 22.652 46.2095 22.6592 46.1841C24.8 48.1482 26.9398 50.1124 29.0796 52.0765Z" fill="#E8EBF0"/>
<path d="M29.3005 51.3143C29.2933 51.3387 29.285 51.3631 29.2768 51.3886C27.137 49.4244 24.9962 47.4603 22.8564 45.4962C22.8636 45.4717 22.8719 45.4463 22.879 45.4219C25.0188 47.386 27.1596 49.3502 29.2994 51.3153L29.3005 51.3143Z" fill="#E8EBF0"/>
<path d="M29.5457 50.5746C29.5375 50.599 29.5292 50.6224 29.52 50.6468C27.3802 48.6827 25.2394 46.7185 23.0996 44.7544C23.1078 44.731 23.1171 44.7066 23.1253 44.6821C25.2661 46.6463 27.4059 48.6104 29.5457 50.5746Z" fill="#E8EBF0"/>
<path d="M29.8183 49.8602C29.809 49.8836 29.7998 49.907 29.7895 49.9304C27.6487 47.9662 25.5089 46.0021 23.3691 44.038C23.3784 44.0145 23.3887 43.9911 23.3979 43.9688C25.5387 45.9329 27.6785 47.897 29.8183 49.8612V49.8602Z" fill="#E8EBF0"/>
<path d="M30.1231 49.1761C30.1118 49.1985 30.1015 49.2199 30.0913 49.2433C27.9515 47.2791 25.8107 45.315 23.6709 43.3509C23.6812 43.3285 23.6914 43.3061 23.7027 43.2837C25.8425 45.2478 27.9833 47.212 30.1231 49.1761Z" fill="#E8EBF0"/>
<path d="M30.4621 48.5228C30.4508 48.5442 30.4385 48.5645 30.4272 48.5859C28.2864 46.6217 26.1466 44.6576 24.0068 42.6935C24.0181 42.6721 24.0305 42.6507 24.0418 42.6304C26.1826 44.5945 28.3224 46.5587 30.4621 48.5228Z" fill="#E8EBF0"/>
<path d="M30.8403 47.9051C30.8269 47.9255 30.8136 47.9448 30.8012 47.9652C28.6615 46.001 26.5206 44.0369 24.3809 42.0727C24.3932 42.0524 24.4065 42.033 24.4199 42.0127C26.5597 43.9768 28.7005 45.941 30.8403 47.9051Z" fill="#E8EBF0"/>
<path d="M31.2584 47.324C31.2441 47.3423 31.2297 47.3617 31.2153 47.38C29.0755 45.4159 26.9347 43.4517 24.7949 41.4876C24.8093 41.4693 24.8237 41.4509 24.8381 41.4326C26.9779 43.3968 29.1187 45.3609 31.2584 47.325V47.324Z" fill="#E8EBF0"/>
<path d="M31.7206 46.7845C31.7052 46.8018 31.6887 46.8191 31.6733 46.8364C29.5335 44.8723 27.3927 42.9081 25.2529 40.944C25.2683 40.9267 25.2848 40.9094 25.3002 40.8921C27.44 42.8562 29.5808 44.8204 31.7206 46.7845Z" fill="#E8EBF0"/>
<path d="M32.2316 46.2879C32.2141 46.3042 32.1966 46.3195 32.1792 46.3347C30.0384 44.3706 27.8986 42.4065 25.7588 40.4423C25.7763 40.426 25.7937 40.4108 25.8112 40.3955C27.952 42.3596 30.0918 44.3238 32.2316 46.2879Z" fill="#E8EBF0"/>
<path d="M32.7924 45.8383C32.7728 45.8525 32.7533 45.8657 32.7348 45.88C30.594 43.9158 28.4542 41.9517 26.3145 39.9876C26.334 39.9733 26.3525 39.9591 26.372 39.9448C28.5118 41.909 30.6526 43.8731 32.7924 45.8372V45.8383Z" fill="#E8EBF0"/>
<path d="M33.4079 45.4384C33.3863 45.4506 33.3658 45.4628 33.3442 45.475C31.2034 43.5109 29.0636 41.5467 26.9238 39.5826C26.9444 39.5704 26.9659 39.5571 26.9865 39.5449C29.1273 41.5091 31.2671 43.4732 33.4069 45.4373L33.4079 45.4384Z" fill="#E8EBF0"/>
<path d="M34.079 45.0902C34.0554 45.1004 34.0328 45.1116 34.0102 45.1217C31.8704 43.1576 29.7296 41.1934 27.5898 39.2293C27.6135 39.2191 27.6361 39.2079 27.6587 39.1978C29.7985 41.1619 31.9393 43.126 34.079 45.0902Z" fill="#E8EBF0"/>
<path d="M34.8118 44.7982C34.7861 44.8074 34.7615 44.8155 34.7358 44.8247C32.596 42.8605 30.4562 40.8954 28.3154 38.9312C28.3401 38.9221 28.3658 38.9139 28.3904 38.9048C30.5302 40.8689 32.671 42.8331 34.8108 44.7972L34.8118 44.7982Z" fill="#E8EBF0"/>
<path d="M35.608 44.5638C35.5803 44.5709 35.5536 44.577 35.5258 44.5842C33.3861 42.62 31.2453 40.6559 29.1055 38.6917C29.1322 38.6846 29.1599 38.6785 29.1866 38.6714C31.3264 40.6355 33.4672 42.5997 35.607 44.5638H35.608Z" fill="#E8EBF0"/>
<path d="M36.4706 44.392C36.4408 44.3971 36.4111 44.4011 36.3823 44.4062C34.2425 42.4421 32.1017 40.4779 29.9619 38.5128C29.9917 38.5077 30.0205 38.5036 30.0503 38.4985C32.19 40.4627 34.3309 42.4268 36.4706 44.391V44.392Z" fill="#E8EBF0"/>
<path d="M37.4036 44.283C37.3718 44.285 37.3399 44.2881 37.3081 44.2912C35.1673 42.327 33.0275 40.3629 30.8877 38.3987C30.9195 38.3967 30.9514 38.3936 30.9832 38.3916C33.124 40.3557 35.2638 42.3199 37.4036 44.284V44.283Z" fill="#E8EBF0"/>
<path d="M38.4108 44.2425C38.3769 44.2425 38.342 44.2425 38.3081 44.2425C36.1683 42.2784 34.0285 40.3142 31.8877 38.3501C31.9216 38.3501 31.9565 38.3501 31.9904 38.3501C34.1302 40.3142 36.271 42.2784 38.4108 44.2425Z" fill="#E8EBF0"/>
<path d="M33.3707 39.1286C15.8415 38.6514 29.0028 66.3417 11.4736 65.8644C11.4469 65.84 11.4202 65.8165 11.3945 65.7921C28.9237 66.2694 15.7624 38.5791 33.2916 39.0564C33.3183 39.0808 33.344 39.1052 33.3707 39.1297V39.1286Z" fill="#E8EBF0"/>
<path d="M34.1734 39.8655C16.6443 39.3882 29.8055 67.0785 12.2764 66.6012C12.2497 66.5768 12.2229 66.5524 12.1973 66.528C29.7264 67.0053 16.5652 39.3149 34.0943 39.7922C34.1211 39.8167 34.1467 39.8411 34.1734 39.8655Z" fill="#E8EBF0"/>
<path d="M34.9753 40.6023C17.4461 40.125 30.6073 67.8154 13.0771 67.3381C13.0504 67.3136 13.0248 67.2892 12.998 67.2648C30.5282 67.7421 17.366 40.0518 34.8962 40.529C34.9229 40.5535 34.9485 40.5779 34.9753 40.6023Z" fill="#E8EBF0"/>
<path d="M35.7779 41.3391C18.2488 40.8618 31.41 68.5522 13.8809 68.0749C13.8541 68.0504 13.8274 68.026 13.8018 68.0016C31.3309 68.4789 18.1697 40.7886 35.6988 41.2659C35.7255 41.2903 35.7523 41.3147 35.7779 41.3391V41.3391Z" fill="#E8EBF0"/>
<path d="M36.5807 42.0745C19.0515 41.5972 32.2128 69.2875 14.6836 68.8102C14.6569 68.7858 14.6302 68.7614 14.6045 68.7369C32.1337 69.2142 18.9724 41.5239 36.5016 42.0012C36.5283 42.0256 36.555 42.0501 36.5807 42.0745V42.0745Z" fill="#E8EBF0"/>
<path d="M37.3834 42.8113C19.8542 42.334 33.0155 70.0243 15.4863 69.547C15.4596 69.5226 15.4329 69.4982 15.4072 69.4738C32.9364 69.9511 19.7751 42.2607 37.3043 42.738C37.331 42.7625 37.3567 42.7869 37.3834 42.8113V42.8113Z" fill="#E8EBF0"/>
<path d="M38.1852 43.5481C20.656 43.0708 33.8173 70.7612 16.2881 70.2839C16.2614 70.2594 16.2347 70.235 16.209 70.2106C33.7382 70.6879 20.5769 42.9976 38.1061 43.4749C38.1328 43.4993 38.1585 43.5237 38.1852 43.5481V43.5481Z" fill="#E8EBF0"/>
<path d="M34.6727 44.1397C32.8688 42.9072 31.0834 41.6911 29.3155 40.4923C29.6792 41.1884 30.0562 41.8956 30.4445 42.6141C30.3438 42.6711 30.2462 42.7302 30.1496 42.7902C29.8713 42.7322 29.597 42.6772 29.3258 42.6253C29.3515 42.8716 29.3823 43.1209 29.4162 43.3743C29.07 43.2329 28.7248 43.0945 28.3838 42.9581C28.4793 43.3021 28.58 43.6501 28.6848 44.0033C28.5903 44.104 28.4988 44.2078 28.4095 44.3137C28.0715 44.2821 27.7387 44.2557 27.412 44.2343C27.4849 44.621 27.564 45.0149 27.6513 45.4148C27.4603 45.3985 27.2702 45.3843 27.0822 45.3711C27.9092 46.4417 28.7423 47.5174 29.5805 48.5992C27.9842 47.5581 26.3991 46.5251 24.8223 45.5003C25.3493 46.346 25.8824 47.1978 26.4217 48.0547C26.3837 48.1687 26.3457 48.2827 26.3097 48.3987C26.1105 48.4129 25.9132 48.4282 25.717 48.4455C25.828 48.7691 25.9399 49.0948 26.054 49.4215C25.7704 49.338 25.489 49.2556 25.2075 49.1752C25.3904 49.5996 25.5753 50.025 25.7622 50.4524C25.7273 50.6081 25.6934 50.7638 25.6595 50.9215C25.4047 50.9663 25.151 51.0121 24.8993 51.061C25.0585 51.5281 25.2209 51.9962 25.3832 52.4664C25.2301 52.4857 25.0781 52.5051 24.925 52.5244C25.8218 53.6591 26.7196 54.7949 27.6175 55.9306C26.1043 54.9638 24.5911 53.999 23.078 53.0332C23.6594 53.9298 24.2419 54.8254 24.8223 55.721C24.8007 55.8502 24.7802 55.9795 24.7586 56.1087C24.5788 56.1403 24.4001 56.1728 24.2193 56.2044C24.3487 56.5443 24.4761 56.8852 24.6045 57.2241C24.3323 57.1508 24.059 57.0775 23.7858 57.0033C23.9799 57.4378 24.173 57.8703 24.3641 58.3018C24.3323 58.4606 24.2994 58.6183 24.2665 58.775C24.0107 58.8198 23.7539 58.8626 23.494 58.9033C23.645 59.3623 23.7919 59.8172 23.9368 60.27C23.7745 60.2802 23.6111 60.2894 23.4468 60.2985C24.3199 61.4119 25.19 62.5212 26.055 63.6274C24.4966 62.6199 22.9301 61.6052 21.3553 60.5825C21.8833 61.4302 22.4062 62.2708 22.9208 63.1053C22.8725 63.2101 22.8222 63.3129 22.7719 63.4157C22.5541 63.4127 22.3332 63.4066 22.1113 63.3994C22.1925 63.6956 22.2695 63.9887 22.3445 64.2797C22.0302 64.1678 21.7128 64.0538 21.3943 63.9378C21.5227 64.3123 21.646 64.6817 21.7662 65.0481C21.6809 65.158 21.5946 65.2659 21.5053 65.3717C21.1663 65.3391 20.8221 65.3025 20.4708 65.2588C20.517 65.621 20.555 65.9762 20.5838 66.3233C20.364 66.2815 20.1421 66.2367 19.9181 66.191C20.6742 67.1964 21.4231 68.1948 22.1627 69.186C20.4328 68.0218 18.6864 66.8413 16.9226 65.6455C17.2894 66.3436 17.6438 67.0305 17.9838 67.7053C17.8636 67.7439 17.7414 67.7806 17.616 67.8152C17.2996 67.7216 16.9802 67.6249 16.6556 67.5241C16.6217 67.7155 16.5826 67.9017 16.5384 68.0818C16.1286 67.8824 15.7146 67.6798 15.2985 67.4743C15.2842 67.7185 15.2626 67.9546 15.2328 68.1836C14.8455 68.2039 14.4408 68.209 14.0186 68.1978C13.9785 68.1612 13.9395 68.1256 13.8994 68.0879C14.298 68.0991 14.6812 68.0951 15.0489 68.0778C15.0828 67.8243 15.1075 67.5608 15.1229 67.2901C15.5482 67.4997 15.9693 67.7053 16.3874 67.9088C16.4296 67.7358 16.4665 67.5587 16.4984 67.3766C16.8518 67.4855 17.2 67.5913 17.5441 67.692C17.6273 67.6686 17.7106 67.6442 17.7917 67.6188C17.4116 66.8626 17.0141 66.0912 16.6011 65.3045C18.3146 66.4657 20.0116 67.6127 21.6932 68.7443C21.0194 67.8406 20.3373 66.9318 19.649 66.0159C19.913 66.0709 20.1739 66.1228 20.4307 66.1726C20.4009 65.8266 20.364 65.4735 20.3177 65.1122C20.6886 65.158 21.0533 65.1967 21.4118 65.2303C21.4816 65.1468 21.5505 65.0613 21.6182 64.9748C21.4868 64.5688 21.3491 64.1566 21.2063 63.7404C21.5309 63.8584 21.8545 63.9744 22.175 64.0874C22.1031 63.8106 22.0292 63.5317 21.9521 63.2498C22.1956 63.258 22.4349 63.2631 22.6722 63.2661C22.7061 63.1979 22.74 63.1277 22.7729 63.0575C22.1956 62.1202 21.609 61.1758 21.0152 60.2232C22.5459 61.2165 24.0683 62.2026 25.5824 63.1827C24.7935 62.1741 24.0005 61.1625 23.2054 60.1489C23.3985 60.1388 23.5906 60.1276 23.7817 60.1153C23.6378 59.6645 23.4909 59.2116 23.341 58.7547C23.6152 58.712 23.8875 58.6662 24.1576 58.6193C24.1833 58.4952 24.209 58.37 24.2347 58.2448C24.022 57.7645 23.8073 57.2821 23.5916 56.7987C23.871 56.874 24.1494 56.9493 24.4278 57.0236C24.3066 56.701 24.1843 56.3774 24.0611 56.0537C24.2573 56.0191 24.4535 55.9845 24.6487 55.9489C24.663 55.8624 24.6774 55.7749 24.6918 55.6874C24.0385 54.6819 23.3851 53.6744 22.7318 52.6669C24.2018 53.6052 25.6728 54.5435 27.1439 55.4838C26.3252 54.4478 25.5064 53.4128 24.6887 52.3779C24.8675 52.3555 25.0462 52.3321 25.226 52.3097C25.0637 51.8425 24.9024 51.3754 24.7442 50.9103C25.0113 50.8595 25.2794 50.8106 25.5496 50.7638C25.5763 50.6396 25.603 50.5155 25.6307 50.3934C25.4222 49.9171 25.2167 49.4428 25.0133 48.9706C25.301 49.0531 25.5886 49.1375 25.8773 49.222C25.7684 48.9106 25.6615 48.6012 25.5568 48.2939C25.7704 48.2755 25.9862 48.2582 26.2039 48.244C26.2286 48.1667 26.2543 48.0893 26.2789 48.012C25.6718 47.0482 25.0729 46.0906 24.4812 45.1411C26.0149 46.1374 27.5568 47.1408 29.108 48.1534C28.3437 47.1683 27.5846 46.1872 26.8295 45.2103C27.0494 45.2255 27.2723 45.2418 27.4962 45.2611C27.4099 44.8632 27.3308 44.4714 27.2589 44.0867C27.6062 44.1091 27.9585 44.1376 28.317 44.1722C28.3879 44.0888 28.4608 44.0074 28.5348 43.927C28.4167 43.5331 28.3047 43.1454 28.1989 42.7627C28.5481 42.9021 28.8995 43.0446 29.2539 43.1891C29.222 42.9479 29.1933 42.7108 29.1686 42.4767C29.4645 42.5337 29.7644 42.5938 30.0685 42.6579C30.1332 42.6172 30.199 42.5775 30.2657 42.5388C29.8261 41.7287 29.4028 40.9329 28.995 40.1523C30.7146 41.3186 32.4507 42.5012 34.2042 43.7C33.5807 42.8431 32.9643 41.9944 32.3583 41.1527C32.6757 41.2565 32.9972 41.3644 33.3229 41.4764C33.4081 41.2362 33.5067 41.0072 33.6156 40.7884C34.1313 40.9655 34.6562 41.1527 35.1925 41.3481C35.3907 41.3461 35.5921 41.3481 35.7986 41.3532C35.8386 41.3899 35.8777 41.4265 35.9177 41.4621C35.6907 41.456 35.4698 41.455 35.2531 41.458C34.7477 41.2728 34.2525 41.0978 33.7666 40.9299C33.6567 41.1497 33.5591 41.3807 33.4728 41.6209C33.1955 41.5262 32.9212 41.4336 32.65 41.3441C33.3146 42.2651 33.9885 43.1963 34.6737 44.1366L34.6727 44.1397Z" fill="#3A4651"/>
<path d="M37.5292 29.9065C37.5025 30.0368 37.4675 30.1619 37.4234 30.28C35.9513 30.3461 34.9394 30.3919 34.244 30.4245C33.7016 30.4774 33.2054 30.5008 32.7134 30.4937C32.3507 30.4886 31.9902 30.4683 31.6163 30.4296C30.927 30.1925 30.6188 29.5757 30.3825 29.2307C30.3342 29.1605 30.3044 29.0822 30.2911 28.9997C30.2839 28.9478 30.2829 28.8959 30.2901 28.843C30.324 28.5845 30.9835 27.3592 32.888 27.3511C33.0616 27.3511 33.2455 27.3602 33.4407 27.3806L37.1357 27.7083L37.5127 27.7419C37.5127 27.7419 37.5271 27.8233 37.5456 27.9607C37.598 28.3525 37.6781 29.2002 37.5312 29.9055L37.5292 29.9065Z" fill="#679BF9"/>
<path d="M37.5293 29.9062C37.6762 29.201 37.5961 28.3532 37.5447 27.9604C38.121 27.9675 38.7826 27.9512 39.5489 27.9014L39.6783 29.49C38.8771 29.6467 38.1672 29.7861 37.5303 29.9062H37.5293Z" fill="#FBA284"/>
<path d="M41.046 27.5625L43.5833 27.8648C43.6295 27.8709 43.6624 27.9116 43.6572 27.9563C43.6521 28.0001 43.6151 28.0327 43.571 28.0317L41.7589 27.996L43.6973 28.2199C43.7425 28.225 43.7744 28.2647 43.7692 28.3095C43.7651 28.3502 43.7312 28.3817 43.6901 28.3817L41.7774 28.4387L43.5679 28.4469C43.6162 28.4469 43.6542 28.4886 43.648 28.5364C43.6439 28.572 43.6162 28.6016 43.5802 28.6077L41.7445 28.914L43.5114 28.6962C43.5648 28.6901 43.611 28.7318 43.609 28.7858C43.6069 28.8234 43.5802 28.856 43.5432 28.8662L41.1353 29.4554L41.0603 28.9567L41.0449 27.5635L41.046 27.5625Z" fill="#F18D73"/>
<path d="M39.5479 27.9014C39.5479 27.9014 40.4703 27.5463 41.0446 27.5626C41.6291 28.0358 41.6219 28.3716 41.6219 28.3716C41.6219 28.3716 41.4791 29.2804 41.135 29.4544C40.5731 29.5959 39.6773 29.4901 39.6773 29.4901L39.5479 27.9014Z" fill="#FBA284"/>
<path d="M53.6221 22.2266L53.1917 22.1187C53.1208 22.1024 53.0766 22.021 53.089 21.9335C53.1023 21.845 53.1691 21.7808 53.242 21.7859L53.6868 21.7992C53.7659 21.8042 53.8204 21.8907 53.806 21.9864L53.7916 22.0821C53.7772 22.1788 53.6992 22.2449 53.6221 22.2276V22.2266Z" fill="#FBA284"/>
<path d="M53.3332 22.7661L52.9059 22.4517C52.835 22.4018 52.8165 22.3021 52.8648 22.2257C52.9131 22.1484 53.0107 22.1199 53.0877 22.1606L53.5674 22.3916C53.6517 22.4364 53.6784 22.5443 53.626 22.6287L53.5746 22.7122C53.5222 22.7967 53.4123 22.8211 53.3343 22.7671L53.3332 22.7661Z" fill="#FBA284"/>
<path d="M52.9257 23.1589L52.6145 22.8241C52.5621 22.7712 52.5703 22.6735 52.634 22.6023C52.6977 22.531 52.7932 22.5107 52.8538 22.5554L53.2339 22.8129C53.2997 22.8618 53.2966 22.9686 53.2277 23.046L53.1589 23.1233C53.0901 23.2007 52.9833 23.2169 52.9257 23.1589V23.1589Z" fill="#FBA284"/>
<path d="M52.5569 23.5047L52.3391 23.1587C52.3021 23.1027 52.3278 23.0162 52.3987 22.9613C52.4696 22.9063 52.56 22.9012 52.6062 22.9501L52.901 23.2371C52.9514 23.29 52.9288 23.3867 52.8517 23.4467L52.7757 23.5067C52.6987 23.5668 52.599 23.5658 52.5579 23.5047H52.5569Z" fill="#FBA284"/>
<path d="M39.099 7.53942C39.101 7.55469 39.1021 7.56588 39.1031 7.57097V7.57301C39.1031 7.57301 39.099 7.56588 39.0979 7.56283C39.0969 7.56181 39.0959 7.56079 39.0959 7.55978C39.0938 7.55469 39.0908 7.5496 39.0877 7.54553C39.0805 7.53535 39.0733 7.52517 39.0651 7.515C39.0569 7.50584 39.0486 7.49668 39.0394 7.48854C38.9531 7.41221 38.8278 7.39695 38.7271 7.44376C38.7025 7.45495 38.6788 7.47022 38.6583 7.48854C38.6264 7.51805 38.6008 7.55571 38.5843 7.6015C38.5535 7.69004 38.496 7.76433 38.3861 7.80199C38.3563 7.81216 38.3234 7.81929 38.2854 7.82438C38.2597 7.82641 38.233 7.82845 38.2032 7.82845C38.045 7.82845 37.9084 7.80809 37.7851 7.77451C37.744 7.76331 37.705 7.7511 37.6659 7.73685C37.6598 7.73482 37.6526 7.73177 37.6464 7.72871C37.7646 7.9007 37.8108 8.04216 37.8108 8.04216C37.7964 8.03606 37.781 8.02893 37.7635 8.02282C37.1112 7.76331 36.3192 7.76942 35.597 7.87221C35.3464 7.90783 35.104 7.95566 34.879 8.00756C34.0952 8.18973 33.5189 8.42787 33.5189 8.42787L33.5117 9.34786C33.5117 9.34786 33.5076 9.35498 33.5055 9.35803C33.2939 9.74069 33.3196 10.0806 33.5045 10.3828C33.5631 10.4765 33.635 10.566 33.7223 10.6525C33.7428 10.6739 33.7654 10.6953 33.788 10.7167C34.1322 11.0321 34.4219 11.1278 34.6222 11.0962C34.6509 11.0912 34.6776 11.084 34.7033 11.0749C34.7403 11.0616 34.7732 11.0433 34.8009 11.0209C34.8215 11.0036 34.84 10.9884 34.8554 10.9711H34.8564C34.8626 10.9629 34.8697 10.9558 34.8749 10.9487L34.9006 11.0382C34.9016 11.0454 34.9036 11.0525 34.9057 11.0586C34.9088 11.0749 34.9119 11.0912 34.916 11.1064C34.9899 11.4443 35.0105 11.7415 35.0002 11.9969V12C34.993 12.2279 34.9591 12.4233 34.9108 12.5851C34.8985 12.6258 34.8852 12.6645 34.8728 12.7011C34.8728 12.7011 34.8718 12.7011 34.8718 12.7022C34.8307 12.8131 34.7835 12.9047 34.7352 12.979C34.727 12.9871 34.7187 12.9942 34.7095 13.0034C34.7044 13.0085 34.6982 13.0136 34.692 13.0197C34.691 13.0207 34.69 13.0217 34.6879 13.0227C34.6828 13.0278 34.6766 13.0339 34.6705 13.04C34.6746 13.0522 34.6766 13.0604 34.6766 13.0645C34.5307 13.2527 34.3849 13.324 34.35 13.3392C34.3479 13.3392 34.3171 13.2772 34.2688 13.1815C34.2483 13.1398 34.2246 13.093 34.1979 13.0411C34.1805 13.0065 34.163 12.9698 34.1435 12.9311C34.125 12.8935 34.1055 12.8548 34.0859 12.8151C34.0572 12.7571 34.0264 12.6961 33.9966 12.635C33.9771 12.5953 33.9575 12.5556 33.938 12.5169C33.9093 12.4579 33.8815 12.4019 33.8558 12.35C33.8394 12.3175 33.825 12.2869 33.8106 12.2585C33.7973 12.23 33.7839 12.2035 33.7716 12.1801C33.7531 12.1404 33.7367 12.1078 33.7254 12.0854C33.7233 12.0804 33.7202 12.0753 33.7182 12.0702C33.712 12.058 33.7089 12.0508 33.7089 12.0508L33.6699 11.9766C33.2066 11.6173 32.846 11.2133 32.5738 10.7879C32.2317 10.5762 31.8393 10.2424 31.4839 9.71423C31.1439 8.82985 31.0668 8.07066 31.1028 7.46615C31.11 7.3542 31.1202 7.24836 31.1336 7.14761C31.2404 6.34262 31.5322 5.88975 31.5322 5.88975C31.5322 5.88975 32.2009 4.9148 33.8589 4.16374C37.1801 3.56433 38.6511 4.79675 38.6778 4.82117C38.6562 4.82321 37.9505 4.89139 37.5345 5.0186C38.9613 5.19161 39.6424 6.61231 39.8294 7.05602C39.8365 7.07129 39.8417 7.08553 39.8468 7.09876C39.5612 6.91761 39.2366 6.825 38.9079 6.79142C38.9079 6.7904 38.9069 6.78938 38.9069 6.78837C38.9059 6.78837 38.9059 6.7904 38.9048 6.79142C38.9059 6.7904 38.9069 6.79142 38.9079 6.79142C38.9367 6.8708 38.9613 6.94713 38.9819 7.01938C39.0301 7.18323 39.061 7.32265 39.0795 7.42137C39.0825 7.43867 39.0856 7.45394 39.0877 7.46818C39.0928 7.4977 39.0959 7.5211 39.099 7.53942V7.53942Z" fill="#6D4853"/>
<path d="M38.9082 6.79247C38.9082 6.79247 38.9056 6.79117 38.9043 6.79247C38.9056 6.79117 38.9056 6.78987 38.9069 6.78857C38.9069 6.78857 38.9082 6.79117 38.9082 6.79247Z" fill="#6B324D"/>
</g>
<defs>
<clipPath id="clip0_10994_2150">
<rect width="54" height="68" fill="white" transform="translate(9 4)"/>
</clipPath>
</defs>
</svg>
