<svg width="75" height="75" viewBox="0 0 75 75" fill="none" xmlns="http://www.w3.org/2000/svg">
<g clip-path="url(#clip0_10994_2151)">
<path d="M45.5701 73.4011C60.4352 73.4011 72.4858 71.2594 72.4858 68.6176C72.4858 65.9757 60.4352 63.834 45.5701 63.834C30.7049 63.834 18.6543 65.9757 18.6543 68.6176C18.6543 71.2594 30.7049 73.4011 45.5701 73.4011Z" fill="#E8EBF0"/>
<path d="M30.158 10.5522C31.8457 11.8201 33.9929 10.6288 34.9382 12.9098C35.9573 15.367 33.2213 16.358 33.2213 16.358L28.835 14.8051L30.158 10.5533V10.5522Z" fill="#60251D"/>
<path d="M31.6206 66.4233C31.2409 66.9037 29.8632 67.4032 29.0149 67.6761C28.6058 67.8071 28.3291 68.1867 28.3291 68.6147H34.2597C34.3425 67.8997 34.2152 67.1756 33.8941 66.5311L33.8405 66.4233H31.6206Z" fill="#272C32"/>
<path d="M37.8026 34.6765C37.5047 40.87 32.1094 48.4542 31.3287 49.5217C31.2721 49.5993 31.1752 49.6345 31.0822 49.6124L26.6283 48.5459C26.5 48.5147 26.4212 48.3857 26.4535 48.2589C26.8293 46.7684 28.9684 38.4148 31.0863 32.6574C31.1661 32.4409 31.2459 32.2274 31.3256 32.0179C31.3256 32.0179 31.3256 32.0169 31.3256 32.0159C31.361 31.9242 31.4489 31.8628 31.5478 31.8628H34.0283C34.0788 31.8628 34.1273 31.8789 34.1677 31.9081L36.1695 33.3613L37.4865 34.317L37.7046 34.4751C37.7693 34.5225 37.8066 34.598 37.8026 34.6775V34.6765Z" fill="#343B43"/>
<path d="M26.3954 48.4893L26.1914 49.4893C26.1914 49.4893 29.7556 59.2427 31.3554 65.3627C31.4524 65.7303 31.3675 66.1029 31.621 66.4231C31.8745 66.7444 33.6198 66.6658 33.8409 66.4231C34.0621 66.1804 33.7612 65.8007 33.7288 65.4704C33.3198 61.2357 33.7399 54.9365 32.8936 52.0855C32.528 50.8539 31.2352 49.6484 31.2352 49.6484L26.3954 48.4893V48.4893Z" fill="#343B43"/>
<path d="M29.0163 15.8965C29.0163 15.8965 29.0062 15.9116 28.9891 15.9388C28.3487 16.9318 27.6458 18.2007 27.6266 19.38C27.6004 20.9439 27.765 22.9671 28.5396 24.367C30.5656 22.7698 31.1565 19.4082 31.1565 19.4082L29.0173 15.8955L29.0163 15.8965Z" fill="#F18D73"/>
<path d="M29.0162 15.8955C29.0162 15.8955 27.9375 16.9751 27.6255 18.6196C27.3134 20.2642 27.8456 23.1957 27.8456 23.1957C27.8456 23.1957 28.692 23.1242 29.0162 22.4626C29.2858 21.2471 29.6969 16.676 29.0162 15.8955V15.8955Z" fill="#D4D5D7"/>
<path d="M41.0769 66.4229C40.7506 66.9636 39.5003 67.3755 38.662 67.6001C38.2096 67.72 37.9146 68.151 37.9682 68.6152H43.6816C43.7604 67.9012 43.626 67.1792 43.2927 66.5417L43.2311 66.4239H41.0759L41.0769 66.4229Z" fill="#272C32"/>
<path d="M43.0806 39.3237C42.5898 43.919 41.7515 50.6341 41.7515 50.6341H36.9794C36.9794 50.6341 35.3331 43.0871 34.9069 34.1031C34.8958 33.8513 34.8837 33.5996 34.8746 33.3448C34.8554 32.8533 34.8402 32.3578 34.8281 31.8604H42.0989C42.0989 31.8604 42.1999 32.0225 42.3464 32.2843C42.72 32.957 43.3917 34.2894 43.425 35.2552C43.4412 35.7225 43.2937 37.3227 43.0796 39.3237H43.0806Z" fill="#343B43"/>
<path d="M36.4683 47.9985C36.4471 47.9985 36.4289 47.9824 36.4249 47.9623C35.8593 44.7296 35.1291 39.7023 34.8634 34.107C34.8513 33.8543 34.8402 33.6025 34.8301 33.3477C34.8291 33.3246 34.8473 33.3044 34.8715 33.3024C34.8948 33.3004 34.916 33.3185 34.918 33.3407L36.5107 47.9502C36.5137 47.9734 36.4966 47.9945 36.4733 47.9975C36.4713 47.9975 36.4693 47.9985 36.4673 47.9985H36.4683ZM34.9846 34.7576C35.2311 39.2924 35.7704 43.4134 36.2602 46.4537L34.9846 34.7576Z" fill="#272C32"/>
<path d="M36.9805 50.6343L40.8699 65.6194C40.8699 65.6194 40.7305 66.1592 41.0779 66.4231C41.4254 66.6869 42.9151 66.8249 43.2332 66.4231C43.5513 66.0213 43.2009 65.9296 43.1867 65.6909C42.7434 58.1732 43.6473 56.01 42.9858 53.4037C42.5303 51.6101 41.7536 50.6343 41.7536 50.6343H36.9815H36.9805Z" fill="#343B43"/>
<path d="M42.1142 32.6805C41.1295 33.2495 38.8187 33.2364 36.012 33.3673C34.4788 33.4388 33.0477 33.0723 32.1286 32.7581C31.5317 32.5536 31.156 31.9635 31.2217 31.3381C31.2681 30.894 31.3035 30.4388 31.3247 29.9826C31.4115 28.2112 31.5762 27.8698 31.155 26.5636C30.952 25.9322 30.7066 25.4447 30.444 25.0459C30.1925 24.6633 29.9248 24.3642 29.6623 24.1013C28.8371 23.2755 28.0604 22.8072 27.9877 21.2493C27.9271 19.9744 29.0492 18.4063 29.0351 16.3227C29.0351 16.1827 29.028 16.0407 29.0159 15.8957L32.2185 14.1475C33.9193 14.504 36.4917 15.0891 37.7744 19.3772C38.1703 20.7025 38.5106 21.8848 38.8116 22.9492C39.9589 27.0107 40.2508 27.8959 41.1113 29.8567C41.1325 29.905 41.1537 29.9544 41.1759 30.0017C41.489 30.6976 41.8405 31.3452 42.2708 32.0088C42.4182 32.2354 42.3485 32.5446 42.1142 32.6795V32.6805Z" fill="#E8EBF0"/>
<path d="M32.2182 14.1484C29.2984 15.7033 29.0166 15.8966 29.0166 15.8966C29.0166 15.8966 28.655 14.5079 27.0088 13.1373C27.7037 11.5431 29.0853 11.0073 29.0853 11.0073C29.0853 11.0073 29.3853 11.538 29.868 12.1695C30.4063 12.8734 31.1709 13.7032 31.997 14.0648C32.0728 14.097 32.1455 14.1252 32.2182 14.1484V14.1484Z" fill="#FBA284"/>
<path d="M42.5213 21.5382L41.2477 23.1092C39.6863 21.8182 38.4036 21.1817 36.9371 20.3891C36.5008 20.1535 36.0484 19.9057 35.5666 19.6218C34.7455 19.1384 33.8396 18.5512 32.7902 17.7587C32.6437 17.6469 32.5458 17.4928 32.4579 17.3407C31.6237 15.8926 32.3771 14.3105 34.0193 14.6448C34.2324 14.6881 34.4516 14.7516 34.6718 14.8432C35.6727 15.2581 36.9523 16.2229 38.1865 17.2944C38.744 17.7778 39.2924 18.2834 39.8024 18.7708C41.3396 20.2401 42.5213 21.5392 42.5213 21.5392V21.5382Z" fill="#FBA284"/>
<path d="M41.1758 30.0027C40.5213 28.8476 40.3183 28.8617 39.679 27.7136C38.4963 25.5887 37.1258 24.2352 35.0241 23.7216C34.9958 23.7146 34.9675 23.7075 34.9382 23.7005C33.3263 23.3067 31.6295 23.8072 30.4842 25.0046C30.4701 25.0197 30.457 25.0328 30.4438 25.0469C30.1923 24.6642 29.9247 24.3651 29.6621 24.1023C29.7308 23.9462 29.7894 23.8153 29.8176 23.7559C29.9146 23.5585 30.5256 21.9945 30.5256 21.9945L32.0487 21.1768L38.8115 22.9522C39.9871 27.1154 40.2779 28.0147 41.1758 30.0047V30.0027Z" fill="#D4D5D7"/>
<path d="M42.2027 21.2974C40.4797 20.3205 37.1215 21.4948 32.6241 20.3618L32.3857 21.9862C36.7296 23.5693 39.8757 23.9067 41.6724 23.7466C42.9147 23.6358 43.3268 21.9953 42.2683 21.3367C42.2471 21.3226 42.2249 21.3105 42.2037 21.2974H42.2027Z" fill="#FBA284"/>
<path d="M32.0478 20.0215L29.6239 18.7566C29.5663 18.7264 29.4966 18.7435 29.4592 18.7949C29.4168 18.8543 29.432 18.9349 29.4926 18.9762L30.8944 19.9107L29.237 19.101C29.1845 19.0759 29.1209 19.09 29.0835 19.1343C29.0371 19.1917 29.0492 19.2763 29.1098 19.3176L30.5389 20.2864L29.1674 19.5683C29.1108 19.5391 29.0421 19.5613 29.0138 19.6177C28.9886 19.669 29.0047 19.7305 29.0512 19.7617L30.4732 20.7184L29.2391 20.0497C29.1815 20.0195 29.1088 20.0406 29.0785 20.099C29.0502 20.1514 29.0664 20.2149 29.1138 20.2501L31.0015 21.6006L31.8306 21.4223L32.0468 20.0205L32.0478 20.0215Z" fill="#F18D73"/>
<path d="M32.6255 20.3619L32.5255 20.2763C32.3326 20.1132 32.0225 19.9984 31.7115 19.9168C31.1802 19.7788 30.6469 20.1384 30.5682 20.6802C30.5247 20.9752 30.6308 21.2733 30.851 21.4747C31.2307 21.8232 31.7327 22.0085 32.2478 21.9904L32.3871 21.9853L32.6255 20.3609V20.3619Z" fill="#F18D73"/>
<path d="M29.6823 21.7295C29.3016 22.7698 28.5926 23.081 28.4855 23.9501C28.4815 23.9763 28.4805 24.0055 28.4805 24.0367C28.4785 24.795 29.3379 25.2351 29.9813 24.8293C30.0015 24.8162 30.0217 24.8031 30.0409 24.79C30.7469 24.3137 30.6479 23.5694 31.1549 22.223L29.6823 21.7285V21.7295Z" fill="#FBA284"/>
<path d="M29.5987 21.4815L31.3651 18.8541C31.4075 18.7926 31.4883 18.7715 31.554 18.8047C31.6287 18.842 31.658 18.9336 31.6186 19.0071L30.6965 20.7192L31.9469 18.9961C31.9862 18.9407 32.059 18.9205 32.1206 18.9467C32.1993 18.98 32.2327 19.0736 32.1933 19.1481L31.2621 20.9095L32.2711 19.4351C32.3125 19.3747 32.3953 19.3596 32.4549 19.4029C32.5094 19.4402 32.5256 19.5127 32.4943 19.5701L31.5641 21.3163L32.4599 19.9669C32.5023 19.9044 32.5872 19.8873 32.6508 19.9306C32.7074 19.9679 32.7266 20.0424 32.6963 20.1028L31.5782 22.0898L30.5632 22.7695L29.5977 21.4815H29.5987Z" fill="#FBA284"/>
<path d="M29.6704 22.4271C29.3503 22.0716 29.5987 21.4814 29.5987 21.4814C29.5987 21.4814 31.0733 20.8319 31.452 21.2538C31.6581 21.4834 31.7136 21.7795 31.6015 22.0464C31.5399 22.1914 31.3884 22.3556 31.2106 22.5127C30.7854 22.8853 30.0451 22.843 29.6714 22.4281L29.6704 22.4271Z" fill="#FBA284"/>
<path d="M43.0804 39.3239C43.0713 39.2101 42.7572 35.0288 42.0331 33.7387C40.3101 34.1496 38.7961 34.3117 37.4852 34.3148C36.5166 34.3178 35.6581 34.2352 34.9067 34.1033C32.8049 33.7347 31.5506 32.9814 31.085 32.6551C31.1647 32.4386 31.2445 32.2251 31.3243 32.0156C31.4708 32.356 31.7566 32.6309 32.1273 32.7578C32.813 32.9925 33.7856 33.2563 34.8744 33.345C35.242 33.3742 35.6228 33.3842 36.0106 33.3661C36.0631 33.3631 36.1166 33.3611 36.1682 33.3591C38.9042 33.2352 41.1463 33.2382 42.1129 32.6793C42.2593 32.5947 42.3411 32.4426 42.3462 32.2845C42.7198 32.9572 43.3915 34.2896 43.4248 35.2554C43.441 35.7226 43.2935 37.3229 43.0794 39.3239H43.0804Z" fill="#272C32"/>
<path d="M32.2183 14.1484C30.5953 17.4929 29.3651 16.649 29.0338 16.3237C29.0338 16.1837 29.0268 16.0417 29.0146 15.8967L32.2173 14.1484H32.2183Z" fill="#FBA284"/>
<path d="M23.4458 12.4727C23.4458 12.4727 23.1307 14.1011 24.3993 15.2683C25.6678 16.4365 27.5888 15.4143 27.5888 15.4143L26.3202 12.9208L23.4458 12.4727V12.4727Z" fill="#60251D"/>
<path d="M30.1256 10.9688C30.2144 11.2236 29.9448 11.2297 29.8094 11.4069C29.7337 11.5056 29.7004 11.6587 29.7963 11.9386C30.2417 13.2468 30.0751 14.4744 29.5054 15.413C29.2954 15.7575 29.0348 16.0596 28.7298 16.3134C28.448 16.549 28.0834 16.6648 27.7198 16.6084C26.9007 16.4856 25.7211 16.1039 25.2928 15.4392C24.7293 14.5651 24.4162 13.6104 23.7961 12.981C23.1759 12.3526 22.9871 10.9084 22.9871 10.9084C22.6305 7.79557 26.8553 6.94762 28.5853 7.88923C29.5115 8.39377 30.3417 9.21755 30.1266 10.9688H30.1256Z" fill="#FBA284"/>
<path d="M27.3205 10.7173C27.3205 10.7173 27.0377 11.246 26.4408 11.6146C26.2206 11.6982 25.6631 11.9902 25.5631 12.0154C25.4631 12.0396 25.3652 11.9691 25.3571 11.8674C25.35 11.7858 25.4035 11.7123 25.4833 11.6931C25.5884 11.667 26.1519 11.4665 26.2933 11.4011C26.7599 11.1866 27.1245 10.9106 27.3205 10.7183V10.7173Z" fill="#60251D"/>
<path d="M23.8757 13.0131C23.9919 13.0131 24.208 12.9416 24.3797 12.8419C24.5423 12.7432 24.7807 12.5055 24.8231 12.4431C24.8655 12.3816 24.8352 12.2698 24.7605 12.2084C24.7009 12.1591 24.6322 12.1581 24.5979 12.2074C24.5534 12.2719 24.3342 12.5438 24.2514 12.6143C24.0949 12.7482 23.9232 12.8529 23.8272 12.8922C23.7778 12.9124 23.8171 13.0141 23.8737 13.0131H23.8757Z" fill="#60251D"/>
<path d="M25.6797 14.9256C25.6797 14.9256 25.8696 14.8692 26.0796 14.7121C26.4826 14.411 26.6119 14.5137 26.7412 14.7705C26.6099 14.9508 26.3311 15.0354 26.3311 15.0354L25.6797 14.9256V14.9256Z" fill="#F18D73"/>
<path d="M26.331 15.0354C26.2754 15.0304 26.2209 15.0244 26.1663 15.0183L26.0017 14.9992L25.8371 14.978C25.7826 14.971 25.728 14.9619 25.6735 14.9549C25.6351 14.8441 25.6189 14.7595 25.6028 14.6739C25.5937 14.6316 25.5038 14.2217 25.4947 14.1794C25.4856 14.1361 25.4765 14.0948 25.4664 14.0525C25.4291 13.8833 25.3877 13.7152 25.3402 13.549C25.2937 13.3818 25.2412 13.2177 25.1826 13.0545C25.1574 12.986 25.1311 12.9186 25.1028 12.8511C25.0978 12.837 25.0927 12.8249 25.0867 12.8128C25.0826 12.8038 25.0786 12.7937 25.0746 12.7856C25.0433 12.7151 25.0109 12.6447 24.9756 12.5762C25.018 12.6356 25.0564 12.697 25.0917 12.7605C25.0998 12.7736 25.1069 12.7856 25.114 12.7987C25.1614 12.8874 25.1968 12.9609 25.2291 13.0354C25.2644 13.115 25.2957 13.1965 25.3271 13.2791C25.3574 13.3627 25.3846 13.4453 25.4109 13.5289C25.4614 13.696 25.5048 13.8652 25.5402 14.0374C25.5492 14.0807 25.5573 14.123 25.5664 14.1663C25.5735 14.2096 25.6634 14.6205 25.6694 14.6628C25.6836 14.7424 25.6947 14.8219 25.7038 14.9025C25.7512 14.9116 25.7977 14.9206 25.8442 14.9307L26.0058 14.9649L26.1674 15.0002C26.2209 15.0123 26.2744 15.0244 26.3279 15.0374L26.331 15.0354Z" fill="#F18D73"/>
<path d="M26.4615 14.7705C26.5009 14.7735 26.5332 14.7916 26.5312 14.8088C26.5292 14.8279 26.4959 14.84 26.4565 14.8369C26.4161 14.8339 26.3848 14.8168 26.3858 14.7987C26.3878 14.7795 26.4211 14.7675 26.4615 14.7705Z" fill="#A4533E"/>
<path d="M26.2871 15.7869C26.2871 15.7869 26.5669 15.944 26.9921 15.6883C27.4819 15.3942 27.59 15.0991 27.59 15.0991C27.59 15.0991 27.0375 15.1606 26.2881 15.7869H26.2871Z" fill="#F18D73"/>
<path d="M26.3203 15.7546C26.3203 15.7546 26.4203 15.4293 26.7243 15.245C27.0788 15.0315 27.6242 15.0818 27.6242 15.0818C27.6242 15.0818 27.093 15.1131 26.3193 15.7546H26.3203Z" fill="#F18D73"/>
<path d="M26.2568 15.811C26.3094 15.7586 26.3659 15.7093 26.4235 15.661C26.481 15.6136 26.5396 15.5673 26.6002 15.523C26.6608 15.4787 26.7234 15.4374 26.7861 15.3971C26.8497 15.3568 26.9153 15.3196 26.981 15.2843C27.1133 15.2148 27.2527 15.1544 27.3981 15.1141C27.4163 15.1101 27.4345 15.1041 27.4537 15.1C27.4718 15.096 27.49 15.091 27.5092 15.0879L27.5648 15.0789C27.5829 15.0759 27.6021 15.0738 27.6213 15.0718C27.696 15.0648 27.7718 15.0638 27.8455 15.0738C27.7708 15.0748 27.6971 15.0819 27.6243 15.096C27.5516 15.1101 27.4799 15.1292 27.4102 15.1524C27.3931 15.1584 27.3749 15.1635 27.3587 15.1705L27.3062 15.1897C27.2729 15.2027 27.2375 15.2168 27.2042 15.233C27.1365 15.2622 27.0699 15.2944 27.0052 15.3296C26.9396 15.3639 26.8749 15.4001 26.8113 15.4374C26.7477 15.4747 26.6851 15.5149 26.6235 15.5552C26.5608 15.5955 26.4992 15.6368 26.4386 15.6801C26.377 15.7224 26.3174 15.7667 26.2568 15.811V15.811Z" fill="#A4533E"/>
<path d="M25.7197 12.3496C25.7682 12.3627 25.8167 12.3738 25.8652 12.3838C25.9136 12.3939 25.9621 12.403 26.0106 12.41C26.0591 12.4181 26.1086 12.4251 26.157 12.4282C26.2055 12.4332 26.255 12.4352 26.3035 12.4362C26.3156 12.4292 26.3409 12.4161 26.3641 12.402C26.3883 12.3879 26.4116 12.3728 26.4358 12.3577C26.4823 12.3264 26.5297 12.2952 26.5762 12.262C26.6691 12.1965 26.763 12.1301 26.8559 12.0636L26.9963 11.9639L27.1377 11.8652C27.2317 11.7997 27.3266 11.7353 27.4246 11.6729C27.3417 11.7534 27.2559 11.83 27.168 11.9045C27.1246 11.9417 27.0802 11.979 27.0357 12.0153C26.9913 12.0515 26.9458 12.0868 26.9004 12.121C26.8085 12.1915 26.7166 12.26 26.6206 12.3244C26.5721 12.3566 26.5247 12.3879 26.4742 12.4171C26.4489 12.4322 26.4237 12.4463 26.3974 12.4604C26.3712 12.4745 26.3449 12.4866 26.3106 12.4956C26.251 12.4926 26.2005 12.4876 26.151 12.4785C26.1005 12.4704 26.051 12.4594 26.0035 12.4473C25.955 12.4352 25.9066 12.4201 25.8601 12.404C25.8126 12.3879 25.7662 12.3687 25.7207 12.3476L25.7197 12.3496Z" fill="#A4533E"/>
<path d="M25.1041 12.8511C25.092 12.8712 25.0789 12.8893 25.0667 12.9095C25.0243 12.9739 24.9789 13.0374 24.9274 13.0978L24.889 13.1421C24.8748 13.1572 24.8597 13.1713 24.8466 13.1854C24.8324 13.1995 24.8153 13.2126 24.8001 13.2257C24.793 13.2328 24.7829 13.2378 24.7749 13.2438L24.7476 13.262C24.69 13.2811 24.6395 13.2871 24.59 13.2932C24.5395 13.2982 24.49 13.3002 24.4395 13.3012C24.3901 13.3012 24.3396 13.3012 24.2901 13.2982C24.2396 13.2952 24.1901 13.2912 24.1416 13.2841C24.1911 13.2781 24.2406 13.272 24.2891 13.267C24.3375 13.2609 24.387 13.2559 24.4355 13.2489C24.484 13.2428 24.5325 13.2368 24.5799 13.2267C24.6254 13.2187 24.6728 13.2096 24.7132 13.1945C24.7658 13.1532 24.7789 13.1431 24.792 13.13L24.8304 13.0908L24.8678 13.0485C24.892 13.0193 24.9163 12.9911 24.9405 12.9619C24.9647 12.9326 24.9869 12.9024 25.0102 12.8722L25.0748 12.7866C25.0789 12.7947 25.0829 12.8047 25.0869 12.8138C25.092 12.8259 25.097 12.839 25.1031 12.8521L25.1041 12.8511Z" fill="#A4533E"/>
<path d="M30.4051 11.6756C30.4051 12.013 30.3062 12.3151 30.1486 12.5206C30.1001 12.585 30.0456 12.6394 29.986 12.6837C29.886 12.7582 29.7729 12.7985 29.6537 12.7985C29.2396 12.7985 28.9033 12.296 28.9033 11.6756C28.9033 11.0553 29.2386 10.5518 29.6537 10.5518C30.0688 10.5518 30.4051 11.0553 30.4051 11.6756V11.6756Z" fill="#FBA284"/>
<path d="M23.9477 9.80985C23.9477 9.80985 22.9812 11.7615 23.7942 12.9801C22.4126 12.6397 20.8814 9.12504 24.2154 7.70508C25.394 8.68495 23.9477 9.80985 23.9477 9.80985V9.80985Z" fill="#7C3425"/>
<path d="M23.9481 9.80994C23.9481 9.80994 25.8791 10.7314 27.8456 10.8905C29.812 11.0496 30.4058 11.676 30.4058 11.676C30.4058 11.676 31.1835 9.34366 29.1292 8.0385C28.5748 6.73334 23.0967 5.48962 23.9481 9.81094V9.80994Z" fill="#7C3425"/>
<path d="M39.1388 17.9225C39.1388 17.9225 39.1227 17.9819 39.0732 18.0867C38.8995 18.4542 38.3096 19.3767 36.5402 20.1743C36.4715 20.2055 36.4028 20.2357 36.3311 20.266C31.2378 18.0303 31.7802 15.6888 32.3872 15.0352C34.3192 12.9516 39.1388 17.9215 39.1388 17.9215V17.9225Z" fill="#E8EBF0"/>
<path d="M35.8422 20.1302C35.8291 20.1302 35.817 20.1282 35.8048 20.1222C32.9385 18.7627 32.1316 17.4172 31.9599 16.527C31.8235 15.82 32.0589 15.2621 32.3235 14.9771C32.5295 14.7545 32.7769 14.5994 33.0597 14.5148C33.1011 14.5028 33.1446 14.5219 33.1628 14.5592L35.92 20.0044C35.9371 20.0376 35.9301 20.0779 35.9048 20.1051C35.8877 20.1222 35.8654 20.1313 35.8422 20.1313V20.1302ZM33.0416 14.7042C32.8173 14.7827 32.6194 14.9146 32.4517 15.0949C32.2164 15.3497 32.0084 15.8502 32.1326 16.4927C32.2922 17.3195 33.0365 18.5633 35.6473 19.8513L33.0416 14.7032V14.7042Z" fill="#D4D5D7"/>
<path d="M31.9975 14.0648C31.9328 14.0467 30.8804 13.7526 30.4057 13.1957C30.2421 14.6197 29.5493 15.369 29.5059 15.4133C29.9664 14.655 30.1644 13.7093 29.9866 12.6841C30.0452 12.6398 30.0997 12.5854 30.1492 12.521C30.6582 13.1313 31.3066 13.7617 31.9975 14.0648Z" fill="#F18D73"/>
<path d="M39.8023 18.7707C39.0922 19.814 37.5015 20.2602 36.937 20.3901C36.8067 20.3196 36.6744 20.2481 36.54 20.1746C38.3085 19.377 38.8983 18.4545 39.0731 18.0869C39.3215 18.3165 39.5669 18.5441 39.8023 18.7707V18.7707Z" fill="#F18D73"/>
<path d="M59.2718 65.9023C58.89 66.5358 57.98 67.0192 56.9963 67.282C56.4661 67.423 56.1197 67.9296 56.1833 68.4724H62.5623C62.6552 67.6345 62.4966 66.7886 62.1058 66.0413L62.0331 65.9023H59.2708H59.2718Z" fill="#252628"/>
<path d="M50.4261 66.1157C50.0181 66.6313 49.0535 67.1691 48.1426 67.4622C47.7032 67.6032 47.4053 68.01 47.4053 68.4713H53.9085C53.9964 67.7029 53.86 66.9254 53.5156 66.2315L53.458 66.1157H50.4271H50.4261Z" fill="#252628"/>
<path d="M36.4129 22.6189C36.4129 22.6189 36.9017 22.4326 37.5521 22.49C38.2026 22.5484 38.6207 22.8636 38.6207 22.8636L37.5158 23.4014L36.2715 23.06L36.4119 22.6189H36.4129Z" fill="#F18D73"/>
<path d="M50.6254 11.5097L46.7865 13.5551C46.7865 13.5551 46.7603 13.4584 46.7047 13.2872C46.6885 13.2368 46.6704 13.1794 46.6481 13.116C46.4593 12.5661 46.0684 11.5691 45.417 10.5288C45.8785 9.4714 47.1461 9.04742 47.849 8.88931C48.1419 8.82385 48.3368 8.80371 48.3368 8.80371C48.3368 8.80371 48.4651 9.02426 48.6701 9.34048C48.76 9.47845 48.864 9.63555 48.9782 9.7997C49.2872 10.2428 49.671 10.7433 50.0427 11.0968C50.2447 11.2892 50.4436 11.4372 50.6244 11.5097H50.6254Z" fill="#FBA284"/>
<path d="M57.1482 37.368C56.9684 38.8111 55.5171 41.7578 54.0991 44.3681C52.674 46.9885 51.2813 49.2665 51.2388 49.337C51.2378 49.338 45.5537 47.9926 45.5537 47.9926C45.5537 47.9926 46.6697 39.1294 50.3773 30.5341C50.4591 30.3417 50.544 30.1504 50.6298 29.958H53.3982C53.3982 29.958 53.6234 30.2047 53.9658 30.6197C54.1375 30.8311 54.3415 31.0859 54.5596 31.375C55.7443 32.9389 57.3815 35.4848 57.1472 37.369L57.1482 37.368Z" fill="#403C4A"/>
<path d="M61.1626 37.3358C60.8657 42.914 60.7505 50.1749 60.7505 50.1749H55.3209C55.3209 50.1749 54.9179 48.5888 54.418 46.0429C53.7009 42.4074 52.7869 36.8132 52.5627 31.0971C52.5597 31.0084 52.5556 30.9178 52.5526 30.8292C52.5475 30.6973 52.5435 30.5653 52.5395 30.4314C52.5344 30.2723 52.5304 30.1142 52.5273 29.9561H60.5768C60.5768 29.9561 61.4706 31.3277 61.5191 32.6933C61.5737 34.2603 61.1636 37.3338 61.1636 37.3338L61.1626 37.3358Z" fill="#403C4A"/>
<path d="M55.3203 50.1753L59.1047 65.239C59.1047 65.239 58.7957 65.7959 59.1683 66.1162C59.541 66.4364 61.8236 66.6771 62.168 66.1665C62.378 65.8564 62.0013 65.4203 62.0013 65.4203C61.9316 59.1564 62.6881 55.6941 62.0013 52.9921C61.5377 51.1673 60.7489 50.1743 60.7489 50.1743H55.3193L55.3203 50.1753Z" fill="#403C4A"/>
<path d="M45.5537 47.9917L45.3467 49.0088C45.3467 49.0088 49.2058 58.719 50.2854 65.5439C50.3168 65.7423 50.1228 65.8601 50.3541 66.1995C50.7026 66.7091 53.0518 66.7262 53.4568 66.1159C53.7153 65.7262 53.4012 65.6959 53.377 65.4764C52.9063 61.1823 53.0821 54.6796 52.4003 51.6504C52.1216 50.4077 51.2389 49.3371 51.2389 49.3371L45.5537 47.9917V47.9917Z" fill="#403C4A"/>
<path opacity="0.5" d="M61.5179 32.6942C61.4704 31.3277 60.5756 29.957 60.5756 29.957C58.7213 30.5049 57.0003 30.6872 55.5247 30.6872C54.9682 30.6872 54.4471 30.661 53.9673 30.6187C53.6149 30.5885 53.2836 30.5472 52.9786 30.5039C52.8251 30.4817 52.6776 30.4575 52.5382 30.4324C51.3343 30.2219 50.6314 29.957 50.6314 29.957C50.5456 30.1494 50.4607 30.3407 50.3789 30.5331C50.3789 30.5331 51.9221 38.7387 53.0604 43.6461L51.2384 49.338C51.2818 49.2676 52.6756 46.9896 54.0996 44.3682C53.5442 41.3117 52.9513 37.3388 52.6726 33.1796C52.6029 32.1333 53.4916 31.2813 54.539 31.372C54.5854 31.376 54.6087 31.378 54.6319 31.38C57.9375 31.6439 60.4978 34.375 60.5463 37.6812C60.6291 43.4084 60.5685 50.0128 60.5685 50.0128L60.3494 50.1749H60.7503C60.7503 50.1749 60.8655 42.914 61.1624 37.3358C61.1624 37.3358 61.5724 34.2622 61.5179 32.6952V32.6942Z" fill="#35353E"/>
<path d="M60.5769 29.9563C58.7225 30.5041 57.0005 30.6874 55.525 30.6874C54.5584 30.6874 53.6969 30.6088 52.9788 30.5031C51.5083 30.2866 50.6306 29.9563 50.6306 29.9563C50.6306 29.9563 50.4095 25.0669 49.551 23.4063C49.5227 23.3509 49.4944 23.2935 49.4641 23.2361C48.9551 22.2683 48.3037 21.1474 47.4593 19.9289C46.7928 18.9671 46.519 17.8684 46.4413 16.8603C46.3938 16.234 46.4211 15.6428 46.4786 15.1373C46.5241 14.7233 46.5897 14.3679 46.6473 14.098C46.7221 13.7556 46.7867 13.5541 46.7867 13.5541L48.3855 12.7022L49.5177 12.0989L49.958 11.8643L50.6276 11.5088C50.6943 11.5229 50.765 11.539 50.8397 11.5561C54.2312 12.3668 56.942 14.9026 58.0196 18.2098C58.9488 21.0618 59.9739 24.4113 60.2244 25.9824C60.4456 27.3661 60.5779 29.9552 60.5779 29.9552L60.5769 29.9563Z" fill="#E0E9F0"/>
<path d="M61.6849 42.3531C61.6061 43.6753 61.5223 44.4407 61.5223 44.4407C61.5223 44.4407 58.6105 45.0309 54.9302 43.9825C55.2281 39.5766 54.7171 35.6551 53.9263 32.091C53.7869 31.4626 53.6384 30.8453 53.4849 30.2391C53.2466 29.2974 52.9941 28.382 52.7385 27.4888C52.5153 26.7032 52.2881 25.9359 52.0669 25.1836C51.9992 24.955 51.9326 24.7284 51.8669 24.5028C51.264 22.4423 50.9489 20.3084 50.9034 18.1613C50.8166 14.1129 50.1328 11.1803 50.1328 11.1803C50.1328 11.1803 51.2943 11.0212 52.9506 11.3565C54.7898 11.7292 56.3654 12.9125 57.2561 14.56C58.5277 16.9145 59.4589 19.546 60.1356 22.246C62.105 30.1061 61.9141 38.5373 61.6859 42.3541L61.6849 42.3531Z" fill="#679BF9"/>
<path d="M50.2439 11.7144C49.8167 12.6006 47.0151 13.938 46.6484 14.1001C46.7232 13.7577 46.7878 13.5563 46.7878 13.5563L48.3866 12.7043L50.2449 11.7144H50.2439Z" fill="#FBA284"/>
<path d="M47.4403 43.8175L45.6719 43.5366C45.6719 43.5366 47.5969 36.0158 49.2734 31.5555C49.8178 30.1053 50.0855 28.5625 50.0198 27.0156C49.94 25.1556 49.3866 23.0649 47.1414 19.8513C46.1304 18.235 46.0547 15.4363 46.7859 13.5562C46.7859 13.5562 46.7798 13.6055 46.7738 13.6981C46.7243 14.4645 46.6748 18.1826 49.9269 21.9531C49.9683 22.0065 50.0097 22.0669 50.0511 22.1333C51.5519 24.5282 53.1234 34.9644 47.4403 43.8185V43.8175Z" fill="#679BF9"/>
<path d="M47.7532 20.785C47.5451 20.4798 47.3391 20.1737 47.124 19.8645C46.1514 18.3076 45.9938 15.5331 46.7655 13.5472C46.7705 13.5351 46.7836 13.5301 46.7958 13.5341C46.8069 13.5381 46.8129 13.5512 46.8079 13.5633C46.0403 15.5371 46.1958 18.2935 47.1614 19.8383C47.3775 20.1465 47.5825 20.4526 47.7724 20.7487C47.7795 20.7598 47.7764 20.7739 47.7653 20.7799C47.7623 20.7819 47.7572 20.784 47.7532 20.784V20.785Z" fill="#A4B0E0"/>
<path d="M50.044 11.0979L49.0562 10.2046L48.6977 11.5873C48.2684 12.4 47.0767 13.0878 46.705 13.2882C46.6888 13.2379 46.6707 13.1805 46.6484 13.117C47.2827 12.6145 48.1493 11.7827 48.3119 11.3255C48.322 11.1281 48.3916 10.6698 48.4563 10.2731C48.6512 10.2036 48.8411 10.0354 48.9795 9.80176C49.2885 10.2449 49.6723 10.7454 50.044 11.0989V11.0979Z" fill="#F18D73"/>
<path d="M50.132 11.1807C50.132 11.1807 51.2904 12.8957 51.454 15.6651L51.1773 16.4597L51.8024 18.1596C51.8024 18.1596 51.2086 20.6058 51.455 22.8788C50.4349 20.8737 49.9683 12.8101 50.133 11.1807H50.132Z" fill="#73A3F9"/>
<path d="M50.0527 22.1344C47.9126 20.9441 46.8885 18.2502 46.8885 18.2502L47.0066 17.3881L46.6491 16.8977C46.4693 15.2713 46.6875 14.0839 46.7753 13.6982C46.7259 14.4636 46.6764 18.1827 49.9285 21.9522C49.9699 22.0055 50.0113 22.066 50.0527 22.1324C50.0527 22.1324 50.0527 22.1334 50.0527 22.1344Z" fill="#73A3F9"/>
<path d="M37.6582 22.6489L34.8626 23.2904C34.7666 23.3126 34.706 23.4083 34.7282 23.5039C34.7494 23.5996 34.8434 23.66 34.9393 23.6409L36.6573 23.2914L34.8555 23.7356C34.7727 23.7557 34.7201 23.8363 34.7343 23.9198C34.7484 24.0044 34.8272 24.0628 34.9131 24.0528L36.7401 23.8443L35.0191 24.1364C34.9322 24.1515 34.8747 24.2351 34.8918 24.3217C34.908 24.4002 34.9817 24.4536 35.0615 24.4455L36.8936 24.2572L35.1847 24.5442C35.0959 24.5593 35.0403 24.6469 35.0656 24.7325C35.0847 24.799 35.1474 24.8443 35.2171 24.8403L37.6097 24.7235L38.1369 23.9138L37.6592 22.6489H37.6582Z" fill="#F18D73"/>
<path d="M40.7911 25.3116C40.6123 25.2653 40.4427 25.222 40.2821 25.1797C39.3125 24.9279 38.6924 24.7577 38.6924 24.7577L39.1378 22.8916C39.8862 22.9863 40.575 23.0668 41.2102 23.1353C41.2991 23.1444 41.387 23.1534 41.4749 23.1635C41.288 23.5291 40.8103 24.5371 40.7911 25.3116V25.3116Z" fill="#FBA284"/>
<path d="M51.7033 25.9693C51.7033 25.9693 55.8533 18.6842 56.2947 16.3568C56.736 14.0295 55.1999 12.2701 55.1999 12.2701C55.1999 12.2701 53.5354 12.0707 52.3952 14.4756C51.0893 17.2289 49.9258 21.4113 49.3794 23.5271C48.9996 23.4788 48.5775 23.4869 47.9674 23.4959C46.3182 23.4466 43.5609 23.3217 41.5501 23.0216C41.5501 23.0216 41.5218 23.073 41.4764 23.1626C41.2895 23.5282 40.8118 24.5362 40.7926 25.3107C40.7896 25.4315 40.7977 25.5463 40.8209 25.6531C42.6489 26.3469 46.9878 26.8918 49.0552 27.1214C49.4097 27.1737 49.7379 27.214 50.0298 27.2392C50.0833 27.2432 50.1348 27.2442 50.1853 27.2402C51.0852 27.1828 51.7054 25.9683 51.7054 25.9683L51.7033 25.9693Z" fill="#679BF9"/>
<path d="M46.9426 26.9109C46.9305 26.8999 46.9224 26.8827 46.9254 26.8636C46.9295 26.8354 46.9557 26.8143 46.985 26.8173C47.6617 26.9069 48.3586 26.9905 49.0585 27.068C49.417 27.1214 49.7443 27.1607 50.0321 27.1869C50.0846 27.1909 50.1321 27.1919 50.1786 27.1879C51.0381 27.1325 51.6481 25.9562 51.6541 25.9452C51.7693 25.7437 54.373 21.1485 55.6173 18.1807C55.6284 18.1535 55.6597 18.1404 55.687 18.1525C55.7142 18.1646 55.7274 18.1958 55.7152 18.222C54.4477 21.2452 51.7753 25.9492 51.7481 25.9965C51.6905 26.1063 51.0815 27.2372 50.1866 27.2946C50.1331 27.2987 50.0796 27.2987 50.022 27.2936C49.7322 27.2674 49.4029 27.2282 49.0444 27.1748C48.3465 27.0972 47.6476 27.0126 46.9709 26.924C46.9598 26.923 46.9497 26.918 46.9416 26.9109H46.9426Z" fill="#73A3F9"/>
<path d="M45.8825 23.4513C45.8714 23.4413 45.8643 23.4262 45.8653 23.409C45.8674 23.3798 45.8916 23.3577 45.9209 23.3587C46.5774 23.3929 47.2652 23.4211 47.9671 23.4423H48.0388C48.5822 23.4342 48.9821 23.4282 49.3376 23.4685C49.584 22.5138 49.9749 21.0716 50.4526 19.5348C50.4617 19.5066 50.491 19.4905 50.5193 19.4996C50.5476 19.5077 50.5627 19.5379 50.5546 19.5661C50.0709 21.125 49.676 22.5873 49.4295 23.54C49.4235 23.5661 49.3982 23.5833 49.3709 23.5792C49.0104 23.5339 48.6034 23.54 48.0408 23.548H47.9661C47.2611 23.5269 46.5723 23.4997 45.9158 23.4654C45.9037 23.4654 45.8916 23.4604 45.8825 23.4513V23.4513Z" fill="#73A3F9"/>
<path d="M39.1381 22.8916C39.1381 22.8916 38.2069 22.6499 37.7777 22.6489C37.1858 22.6489 36.6788 23.2139 36.8253 23.796C36.9303 24.2149 37.0485 24.4888 37.3484 24.6288C37.9605 24.9138 38.6927 24.7577 38.6927 24.7577L39.1381 22.8916V22.8916Z" fill="#FBA284"/>
<path d="M40.7913 25.3115C40.6125 25.2652 40.4428 25.2219 40.2822 25.1796C40.4166 24.4334 41.0104 23.4515 41.2104 23.1353C41.2993 23.1443 41.3871 23.1534 41.475 23.1635C41.2882 23.529 40.8104 24.5371 40.7913 25.3115V25.3115Z" fill="#F18D73"/>
<path d="M48.9184 8.75955C48.8437 8.87033 48.778 8.98514 48.7235 9.09188C48.5963 9.34264 48.5266 9.5501 48.5266 9.5501C48.5266 9.5501 48.265 11.0124 48.2438 11.4263C48.0539 11.961 46.9702 12.9721 46.2814 13.4908C46.0582 13.6579 45.8774 13.7737 45.7804 13.805C45.5714 13.8785 44.9028 13.956 44.5857 13.9903C44.4796 14.0013 44.3776 13.954 44.32 13.8654C43.9877 13.3649 42.9404 11.9963 42.6425 10.7797C42.5031 10.1785 42.5081 9.61757 42.5213 9.35171C42.5263 9.24899 42.5324 9.18856 42.5324 9.18856C42.5324 9.18856 42.5112 9.11404 42.4708 8.97607C42.4607 8.94183 42.4496 8.90457 42.4364 8.86227C42.4162 8.79581 42.394 8.71826 42.3688 8.63166C42.2708 8.30234 42.1334 7.8401 41.9668 7.27916C41.8264 6.81188 43.8777 4.4483 45.5148 3.93066C47.3075 3.979 48.3034 4.48858 48.3034 4.48858C48.3034 4.48858 48.98 5.33955 49.6264 6.6145C49.7426 7.11803 49.1336 8.43931 48.9154 8.75754L48.9184 8.75955Z" fill="#FBA284"/>
<path d="M43.622 8.1353L43.6664 8.26319C43.6745 8.28736 43.6977 8.30247 43.723 8.30046C43.7674 8.29542 43.8442 8.28837 43.9421 8.28032C44.2835 8.25413 44.7966 8.22996 45.0976 8.28736C45.5541 8.43238 45.8419 8.57337 45.8601 8.58143C45.8409 8.56532 45.4409 8.23399 45.1491 8.093C44.84 8.05675 44.5279 8.0507 44.2663 8.05574C44.231 8.05574 44.1967 8.05675 44.1633 8.05775C43.9189 8.06581 43.73 8.08293 43.6503 8.08998C43.628 8.093 43.6139 8.11415 43.621 8.1353H43.622Z" fill="#5D2422"/>
<path d="M45.3333 9.16815C45.3333 9.16815 45.2444 9.43099 44.9021 9.50148C44.8526 9.5035 44.8091 9.50451 44.7687 9.50451C44.6051 9.50451 44.4728 9.49544 44.3637 9.47933C44.1941 9.45516 44.085 9.41689 44.0203 9.38668C43.9598 9.35747 43.9365 9.33431 43.9365 9.33431C43.9365 9.33431 43.9658 9.12585 44.0668 8.95062C44.1082 8.87912 44.1607 8.81466 44.2274 8.77035C44.2466 8.75827 44.2668 8.74618 44.288 8.73511C44.3486 8.70187 44.4142 8.6767 44.4819 8.6626C44.596 8.67871 44.7001 8.71194 44.794 8.75323C45.1303 8.90429 45.3343 9.16714 45.3343 9.16714L45.3333 9.16815Z" fill="white"/>
<path d="M45.3334 9.16714C45.29 9.09362 45.2344 9.02816 45.1738 8.96774C45.1132 8.90732 45.0455 8.85293 44.9728 8.8056C44.9546 8.79452 44.9365 8.78143 44.9173 8.77136L44.8607 8.74014C44.8405 8.73007 44.8213 8.72201 44.8011 8.71295L44.7718 8.69986C44.7617 8.69583 44.7506 8.69281 44.7415 8.68878L44.6799 8.66763L44.6163 8.65152C44.6052 8.64951 44.5951 8.64648 44.585 8.64447L44.5527 8.63944L44.488 8.63037C44.4507 8.63742 44.4244 8.64648 44.4002 8.65756C44.3749 8.66864 44.3507 8.67972 44.3275 8.69382C44.3042 8.70792 44.282 8.72201 44.2608 8.73813C44.2396 8.75424 44.2194 8.77136 44.2002 8.78949C44.2234 8.77841 44.2477 8.76633 44.2719 8.75625C44.2961 8.74618 44.3194 8.73611 44.3446 8.72806C44.3689 8.72 44.3931 8.71194 44.4173 8.7059C44.4416 8.69986 44.4658 8.69482 44.4911 8.6918C44.48 8.6918 44.5395 8.70691 44.5395 8.70691L44.5688 8.71396C44.5789 8.71698 44.588 8.72 44.5981 8.72302L44.6557 8.74115L44.7123 8.7633L44.7415 8.77438L44.7698 8.78747C44.788 8.79654 44.8072 8.80359 44.8254 8.81265L44.8799 8.84085C44.8981 8.84991 44.9153 8.86099 44.9334 8.87106C45.0748 8.95364 45.2081 9.05334 45.3344 9.16714H45.3334Z" fill="#F18D73"/>
<path d="M42.8906 11.0928C42.9977 11.3042 43.3067 11.3919 43.3067 11.3919C43.3067 11.3919 43.5825 11.2811 43.6319 11.2609C43.5289 11.132 43.8814 11.1139 43.9804 11.1109C43.8784 11.0736 43.1057 10.8632 42.9098 11.0706C42.9027 11.0767 42.8977 11.0847 42.8916 11.0918L42.8906 11.0928Z" fill="#F18D73"/>
<path d="M42.8455 8.25712L42.9121 8.37293C42.9263 8.3971 42.9131 8.42732 42.8869 8.43537C42.8 8.45853 42.6091 8.52299 42.3072 8.68915C42.2546 8.58542 42.4253 8.38099 42.793 8.23799C42.8132 8.22993 42.8354 8.23799 42.8455 8.25611V8.25712Z" fill="#5D2422"/>
<path d="M43.0869 8.91369C43.0869 8.91369 43.0495 9.08792 43.0081 9.35983C42.9697 9.36688 42.9445 9.3699 42.9202 9.37392C42.7778 9.39104 42.6698 9.38198 42.6001 9.3699C42.5617 9.36285 42.5354 9.3558 42.5213 9.35177C42.5243 9.30242 42.5263 9.26415 42.5294 9.23696C42.5314 9.21481 42.5324 9.20071 42.5334 9.19366C42.5334 9.19064 42.5233 9.15539 42.5031 9.08691C42.4971 9.06476 42.489 9.03756 42.4809 9.00836C42.4688 8.96707 42.4546 8.91873 42.4385 8.86435C42.4385 8.86435 42.5405 8.77069 42.7637 8.73947C42.794 8.73544 42.8263 8.73242 42.8617 8.73041C42.9162 8.72839 42.9788 8.7294 43.0455 8.73645C43.0727 8.83716 43.0869 8.91369 43.0869 8.91369V8.91369Z" fill="white"/>
<path d="M43.6235 11.2508L43.98 11.1118C43.881 11.1148 43.5286 11.132 43.6235 11.2508Z" fill="#EA9181"/>
<path d="M42.8968 8.34576C42.9221 8.38907 42.9433 8.43539 42.9605 8.48172C42.9786 8.52804 42.9938 8.57538 43.0079 8.62371C43.0362 8.71939 43.0574 8.81606 43.0756 8.91375C43.0382 9.092 43.0059 9.27126 42.9786 9.45152C42.9493 9.63179 42.9281 9.81407 42.9089 9.99534C42.8898 10.1776 42.8776 10.3609 42.8696 10.5432C42.8625 10.7265 42.8645 10.9098 42.8726 11.093C42.8958 11.1404 42.9241 11.1766 42.9554 11.2099C42.9887 11.2411 43.0231 11.2693 43.0604 11.2935C43.0978 11.3186 43.1372 11.3398 43.1766 11.3589C43.217 11.377 43.2584 11.3952 43.3008 11.4072C43.3119 11.4072 44.0078 11.1192 44.0078 11.1192C44.0209 11.0679 44.0209 11.0236 44.0159 10.9792C44.0098 10.9349 43.9977 10.8916 43.9785 10.8524C43.9583 10.8121 43.93 10.7768 43.8957 10.7486C43.8624 10.7194 43.822 10.7013 43.7806 10.6832C43.8209 10.7023 43.8603 10.7224 43.8916 10.7527C43.925 10.7809 43.9512 10.8171 43.9694 10.8554C43.9876 10.8947 43.9987 10.9369 44.0027 10.9803C44.0058 11.0215 44.0048 11.0648 43.9967 11.1051C43.9795 11.1112 43.623 11.2501 43.623 11.2501L43.3069 11.374C43.2271 11.3478 43.1493 11.3106 43.0806 11.2653C43.0453 11.2411 43.012 11.2139 42.9817 11.1847C42.9534 11.1555 42.9281 11.1222 42.9089 11.088C42.9029 10.8957 42.9029 10.7214 42.9089 10.5452C42.917 10.3629 42.9271 10.1816 42.9453 9.99937C42.9625 9.81709 42.9847 9.63682 43.0089 9.45555C43.0342 9.27428 43.0625 9.09402 43.0968 8.91476C43.0756 8.81304 43.0503 8.71536 43.019 8.61969C43.0039 8.57135 42.9877 8.52401 42.9675 8.47769C42.9473 8.43136 42.9261 8.38605 42.8978 8.34375L42.8968 8.34576Z" fill="#F18D73"/>
<path d="M41.5862 8.63235C41.5882 8.64847 41.5902 8.66357 41.5923 8.67767C42.1336 7.60615 43.6728 7.27986 44.2051 7.19124C43.6243 7.72499 43.792 8.46417 43.792 8.46417C43.8011 8.45108 43.8112 8.43799 43.8223 8.42389C44.8969 7.0281 47.6188 6.64944 47.6188 6.64944C47.6188 6.64944 46.8249 8.21039 47.2016 8.48432C47.5986 8.77334 47.5905 9.25372 47.5864 9.3373C47.5864 9.35039 47.6178 9.34133 47.6178 9.34133L48.0611 9.21746L49.0085 8.95361C49.0085 8.95361 49.9053 8.30506 49.9912 6.729C49.8316 5.80652 49.5135 5.12172 49.1772 4.62523C49.1145 4.53359 49.0519 4.44799 48.9903 4.36843C48.4934 3.73599 48.0177 3.49631 48.0177 3.49631C48.0177 3.49631 46.9593 2.99983 45.1756 3.18815C42.0629 4.3362 41.4418 6.11972 41.4307 6.15396C41.4509 6.1449 42.0821 5.85083 42.4982 5.75113C41.3781 6.61117 41.5195 8.16105 41.5862 8.63235V8.63235Z" fill="#6B324D"/>
<path d="M49.1792 9.18849C49.1641 9.28517 49.1398 9.38286 49.1055 9.48155C49.0681 9.58931 49.0206 9.68901 48.9661 9.78065C48.8166 10.0324 48.6116 10.2147 48.4005 10.2902C48.2692 10.3376 48.1359 10.3446 48.0107 10.3013C47.9703 10.2872 47.9309 10.2681 47.8955 10.2439C47.6582 10.0878 47.542 9.74037 47.5834 9.34862C47.5976 9.22072 47.6249 9.10088 47.6673 8.98104C47.6814 8.94277 47.6956 8.90551 47.7117 8.86825C47.7218 8.84408 47.7329 8.82092 47.744 8.79775C47.841 8.59634 47.9743 8.43118 48.1197 8.31537C48.3227 8.15424 48.554 8.08978 48.7601 8.16129C49.0903 8.2771 49.2529 8.70712 49.1772 9.1895L49.1792 9.18849Z" fill="#FBA284"/>
<path d="M48.8644 8.49072C48.8048 8.49173 48.7462 8.50381 48.6887 8.51993L48.6463 8.53201L48.6038 8.54813C48.5756 8.55719 48.5483 8.57129 48.521 8.58337C48.413 8.63473 48.314 8.70422 48.2241 8.78277L48.1584 8.8442C48.1372 8.86535 48.117 8.88751 48.0978 8.90966L48.0675 8.9429C48.0574 8.95397 48.0494 8.96606 48.0393 8.97814L47.9837 9.04965C47.9585 9.0859 47.9332 9.12316 47.9332 9.12316L47.8837 9.19869L47.7969 9.35579C47.8302 9.4142 47.8605 9.44945 47.8847 9.48973C47.909 9.52901 47.9302 9.5703 47.9413 9.6136C47.9524 9.65691 47.9534 9.70223 47.9413 9.74452C47.9292 9.78682 47.9059 9.82609 47.8767 9.86235C47.8878 9.90565 47.9049 9.92076 47.9221 9.93587C47.9393 9.95097 47.9575 9.96306 47.9766 9.97514C48.014 9.9983 48.0554 10.0164 48.0978 10.0295C48.1837 10.0557 48.2756 10.0617 48.3614 10.0396C48.4049 10.0295 48.4453 10.0124 48.4847 9.99226C48.523 9.97011 48.5584 9.94392 48.5907 9.91572C48.6543 9.85631 48.7079 9.78783 48.7513 9.7133C48.7028 9.7838 48.6463 9.85026 48.5806 9.90465C48.514 9.95802 48.4382 9.99931 48.3554 10.0154C48.2736 10.0325 48.1867 10.0265 48.1079 9.99931C48.0675 9.98622 48.0302 9.96708 47.9948 9.94493C47.9777 9.93385 47.9605 9.92277 47.9453 9.90867C47.9302 9.89558 47.915 9.88048 47.907 9.86537C47.9363 9.84825 47.9635 9.80495 47.9787 9.7556C47.9928 9.70625 47.9928 9.65288 47.9797 9.60353C47.9676 9.55419 47.9443 9.50988 47.9191 9.46758C47.8938 9.42528 47.8615 9.38802 47.8292 9.35177C47.8322 9.37392 47.9171 9.21984 47.9171 9.21984L47.9645 9.14532L47.9888 9.10806C48.013 9.0718 48.0665 9.00131 48.0665 9.00131C48.0756 8.98922 48.0837 8.97714 48.0938 8.96606L48.1231 8.93383C48.1423 8.91168 48.1615 8.88851 48.1817 8.86737L48.2443 8.80594C48.3311 8.72638 48.4251 8.65488 48.5291 8.60049C48.6321 8.5451 48.7452 8.50381 48.8634 8.49173L48.8644 8.49072Z" fill="#F18D73"/>
<path d="M48.5066 8.78369C48.55 8.87332 48.5803 8.96899 48.6005 9.06567C48.6207 9.16235 48.6268 9.26104 48.6187 9.35873C48.6106 9.45541 48.5853 9.55108 48.548 9.64272C48.5086 9.73336 48.4571 9.81795 48.3965 9.89852C48.4692 9.83003 48.5308 9.74745 48.5763 9.65682C48.5985 9.61049 48.6177 9.56316 48.6318 9.51382C48.6449 9.46447 48.655 9.41412 48.6591 9.36276C48.6672 9.26104 48.6581 9.15731 48.6318 9.05963C48.6045 8.96194 48.5641 8.86728 48.5066 8.7847V8.78369Z" fill="#F18D73"/>
<path d="M42.9958 9.36255C42.9695 9.36758 42.9453 9.3706 42.921 9.37463C42.7786 9.39175 42.6706 9.38269 42.6009 9.3706C42.5625 9.36355 42.5362 9.3565 42.5221 9.35247C42.5251 9.30313 42.5271 9.26486 42.5302 9.23767C42.5322 9.21551 42.5332 9.20141 42.5342 9.19437C42.5342 9.19134 42.5241 9.1561 42.5039 9.08762C42.5504 9.06244 42.6039 9.04834 42.6605 9.04834C42.8392 9.04834 42.9857 9.18732 42.9958 9.36355V9.36255Z" fill="#5D2422"/>
<path d="M44.9133 9.3836C44.9133 9.42489 44.9083 9.46417 44.8972 9.50143C44.8527 9.50344 44.8093 9.50445 44.7689 9.50445C44.6053 9.50445 44.473 9.49538 44.3639 9.47927C44.1942 9.4551 44.0851 9.41683 44.0205 9.38662C44.0205 9.13788 44.2195 8.93848 44.4659 8.93848C44.7123 8.93848 44.9123 9.13788 44.9123 9.3836H44.9133Z" fill="#5D2422"/>
<path d="M43.009 9.13602C43.009 9.20349 42.9545 9.25787 42.8878 9.25787C42.8212 9.25787 42.7656 9.20349 42.7656 9.13602C42.7656 9.06854 42.8202 9.01416 42.8878 9.01416C42.9555 9.01416 43.009 9.06854 43.009 9.13602Z" fill="white"/>
<path d="M45.0252 9.16739C45.0252 9.26406 44.9465 9.34262 44.8505 9.34262C44.7546 9.34262 44.6758 9.26406 44.6758 9.16739C44.6758 9.07071 44.7546 8.99316 44.8505 8.99316C44.9465 8.99316 45.0252 9.07171 45.0252 9.16739Z" fill="white"/>
<path d="M44.2975 12.54C44.2803 12.54 44.2642 12.528 44.2622 12.5098C44.2591 12.4907 44.2723 12.4716 44.2914 12.4685L45.0186 12.3447C45.0388 12.3417 45.057 12.3547 45.06 12.3739C45.0631 12.394 45.0499 12.4121 45.0307 12.4152L44.3036 12.539C44.3036 12.539 44.2995 12.539 44.2975 12.539V12.54Z" fill="#F18D73"/>
<path opacity="0.52" d="M54.9842 19.8452L52.739 27.4889C52.5158 26.7033 52.2886 25.936 52.0674 25.1837L54.9842 19.8452Z" fill="#0D62F9"/>
<path d="M33.875 15.7495L32.252 18.1191L34.4103 16.3326L33.875 15.7495Z" fill="#B2B2B2"/>
<path d="M31.4512 15.0205L31.5118 17.8896L32.2258 15.1847L31.4512 15.0205Z" fill="#B2B2B2"/>
<path d="M35.5326 17.3022L32.9248 18.5188L35.6952 18.0757L35.5326 17.3022Z" fill="#B2B2B2"/>
<path d="M26.3109 22.6258L28.7692 21.1323L26.0645 21.8745L26.3109 22.6258Z" fill="#B2B2B2"/>
<path d="M28.2194 24.2855L29.3485 21.646L27.5811 23.8172L28.2194 24.2855Z" fill="#B2B2B2"/>
<path d="M25.4424 20.5302L28.3208 20.4919L25.6141 19.7588L25.4424 20.5302Z" fill="#B2B2B2"/>
<path opacity="0.42" d="M17.9122 12.0707C17.9122 12.0707 15.859 11.7736 13.7673 10.6356C12.8594 10.8471 11.8665 10.9629 10.8273 10.9629C6.5046 10.9629 3 8.95682 3 6.48145C3 4.00608 6.5046 2 10.8273 2C15.15 2 18.6546 4.00608 18.6546 6.48145C18.6546 7.98198 17.3669 9.3103 15.3903 10.123C15.8267 10.6054 16.5882 11.2701 17.9122 12.0707Z" fill="#CECECE"/>
<path d="M11.0893 3.85525C10.963 3.63067 10.7903 3.50781 10.6014 3.50781C10.4126 3.50781 10.2389 3.63168 10.1136 3.85525L8.00279 7.61665C7.87755 7.83921 7.8624 8.05372 7.96037 8.22089C8.05834 8.38806 8.25528 8.48071 8.51383 8.48071H12.6891C12.9476 8.48071 13.1446 8.38806 13.2425 8.22089C13.3405 8.05472 13.3253 7.84022 13.2001 7.61665L11.0893 3.85525V3.85525Z" stroke="#FF2E34" stroke-miterlimit="10"/>
<path d="M10.602 7.3042C10.4484 7.3042 10.3242 7.42807 10.3242 7.58215C10.3242 7.73623 10.4484 7.8601 10.602 7.8601C10.7555 7.8601 10.8807 7.73623 10.8807 7.58215C10.8807 7.42807 10.7565 7.3042 10.602 7.3042Z" fill="black"/>
<path d="M10.6015 6.98111C10.7035 6.98111 10.7944 6.85623 10.8035 6.70417L10.9095 4.8995C10.9186 4.74743 10.8005 4.62256 10.648 4.62256H10.555C10.4015 4.62256 10.2844 4.74743 10.2935 4.8995L10.3995 6.70417C10.4086 6.85623 10.4995 6.98111 10.6015 6.98111V6.98111Z" fill="black"/>
</g>
<defs>
<clipPath id="clip0_10994_2151">
<rect width="69.4861" height="71.4011" fill="white" transform="translate(3 2)"/>
</clipPath>
</defs>
</svg>
