<svg xmlns="http://www.w3.org/2000/svg" xmlns:xlink="http://www.w3.org/1999/xlink" width="70" zoomAndPan="magnify" viewBox="0 0 52.5 52.499999" height="70" preserveAspectRatio="xMidYMid meet" version="1.0"><defs><clipPath id="01060beaef"><path d="M 8.160156 0 L 43.820312 0 L 43.820312 52 L 8.160156 52 Z M 8.160156 0 " clip-rule="nonzero"/></clipPath></defs><g clip-path="url(#01060beaef)"><path fill="#ffffff" d="M 26 0.0195312 C 35.855469 0.0195312 43.84375 8.007812 43.84375 17.863281 C 43.84375 21.292969 42.875 24.492188 41.199219 27.210938 C 39.1875 30.542969 37.175781 33.875 35.167969 37.207031 C 32.71875 41.1875 30.734375 44.40625 28.285156 48.386719 C 26.128906 51.898438 25.980469 51.984375 23.8125 48.457031 C 21.375 44.496094 19.328125 41.164062 16.890625 37.207031 C 14.882812 33.910156 12.878906 30.617188 10.871094 27.324219 C 9.152344 24.582031 8.160156 21.339844 8.160156 17.863281 C 8.160156 8.007812 16.148438 0.0195312 26 0.0195312 Z M 26 8.964844 C 30.417969 8.964844 34 12.546875 34 16.964844 C 34 21.382812 30.417969 24.964844 26 24.964844 C 21.582031 24.964844 18 21.382812 18 16.964844 C 18 12.546875 21.582031 8.964844 26 8.964844 Z M 26 8.964844 " fill-opacity="1" fill-rule="evenodd"/></g></svg>