<svg xmlns="http://www.w3.org/2000/svg" xmlns:xlink="http://www.w3.org/1999/xlink" width="70" zoomAndPan="magnify" viewBox="0 0 52.5 52.499999" height="70" preserveAspectRatio="xMidYMid meet" version="1.0"><defs><clipPath id="91953946fa"><path d="M 26 0.867188 L 51.710938 0.867188 L 51.710938 26 L 26 26 Z M 26 0.867188 " clip-rule="nonzero"/></clipPath><clipPath id="e4081d02c7"><path d="M 0.449219 2 L 49 2 L 49 51.382812 L 0.449219 51.382812 Z M 0.449219 2 " clip-rule="nonzero"/></clipPath></defs><path fill="#ffffff" d="M 26.789062 9.386719 C 26.789062 9.171875 26.863281 8.992188 27.011719 8.839844 C 27.164062 8.691406 27.34375 8.613281 27.558594 8.613281 C 28.085938 8.613281 28.613281 8.640625 29.136719 8.695312 C 29.664062 8.746094 30.1875 8.824219 30.703125 8.925781 C 31.222656 9.03125 31.734375 9.160156 32.238281 9.3125 C 32.742188 9.464844 33.238281 9.644531 33.726562 9.847656 C 34.214844 10.050781 34.691406 10.273438 35.15625 10.523438 C 35.625 10.773438 36.074219 11.042969 36.515625 11.335938 C 36.953125 11.632812 37.378906 11.945312 37.785156 12.28125 C 38.195312 12.617188 38.585938 12.96875 38.957031 13.34375 C 39.332031 13.714844 39.6875 14.105469 40.019531 14.515625 C 40.355469 14.921875 40.671875 15.347656 40.964844 15.785156 C 41.257812 16.226562 41.527344 16.675781 41.777344 17.144531 C 42.027344 17.609375 42.253906 18.085938 42.453125 18.574219 C 42.65625 19.0625 42.835938 19.558594 42.988281 20.0625 C 43.140625 20.566406 43.269531 21.078125 43.375 21.597656 C 43.476562 22.117188 43.554688 22.636719 43.609375 23.164062 C 43.660156 23.6875 43.6875 24.214844 43.6875 24.742188 C 43.6875 24.957031 43.613281 25.136719 43.460938 25.289062 C 43.308594 25.4375 43.128906 25.515625 42.914062 25.515625 C 42.703125 25.515625 42.519531 25.4375 42.371094 25.289062 C 42.21875 25.136719 42.144531 24.957031 42.144531 24.742188 C 42.144531 23.785156 42.050781 22.835938 41.863281 21.898438 C 41.675781 20.960938 41.398438 20.046875 41.03125 19.164062 C 40.664062 18.277344 40.214844 17.4375 39.683594 16.644531 C 39.148438 15.847656 38.546875 15.109375 37.867188 14.433594 C 37.191406 13.757812 36.453125 13.152344 35.660156 12.621094 C 34.863281 12.085938 34.023438 11.636719 33.136719 11.269531 C 32.253906 10.902344 31.339844 10.625 30.402344 10.4375 C 29.464844 10.25 28.515625 10.15625 27.558594 10.15625 C 27.34375 10.15625 27.164062 10.082031 27.011719 9.929688 C 26.863281 9.78125 26.789062 9.597656 26.789062 9.386719 Z M 26.789062 9.386719 " fill-opacity="1" fill-rule="nonzero"/><g clip-path="url(#91953946fa)"><path fill="#ffffff" d="M 51.460938 24.742188 C 51.460938 24.957031 51.382812 25.136719 51.234375 25.289062 C 51.082031 25.4375 50.902344 25.515625 50.6875 25.515625 C 50.476562 25.515625 50.292969 25.4375 50.144531 25.289062 C 49.992188 25.136719 49.917969 24.957031 49.917969 24.742188 C 49.917969 24.011719 49.882812 23.28125 49.808594 22.550781 C 49.738281 21.824219 49.628906 21.097656 49.484375 20.382812 C 49.34375 19.664062 49.164062 18.953125 48.953125 18.253906 C 48.738281 17.550781 48.492188 16.863281 48.210938 16.1875 C 47.933594 15.511719 47.617188 14.851562 47.273438 14.203125 C 46.929688 13.558594 46.550781 12.929688 46.144531 12.320312 C 45.738281 11.714844 45.304688 11.125 44.839844 10.558594 C 44.375 9.992188 43.882812 9.453125 43.363281 8.933594 C 42.847656 8.414062 42.304688 7.925781 41.738281 7.460938 C 41.171875 6.996094 40.585938 6.558594 39.976562 6.152344 C 39.367188 5.746094 38.742188 5.367188 38.097656 5.023438 C 37.449219 4.679688 36.789062 4.363281 36.113281 4.082031 C 35.4375 3.804688 34.75 3.554688 34.046875 3.34375 C 33.347656 3.128906 32.636719 2.953125 31.917969 2.808594 C 31.203125 2.664062 30.476562 2.558594 29.75 2.484375 C 29.019531 2.410156 28.289062 2.375 27.558594 2.375 C 27.34375 2.375 27.164062 2.300781 27.011719 2.148438 C 26.863281 2 26.789062 1.816406 26.789062 1.605469 C 26.789062 1.390625 26.863281 1.210938 27.011719 1.058594 C 27.164062 0.910156 27.34375 0.832031 27.558594 0.832031 C 28.339844 0.835938 29.121094 0.875 29.902344 0.949219 C 30.679688 1.027344 31.453125 1.144531 32.21875 1.296875 C 32.988281 1.453125 33.746094 1.640625 34.496094 1.871094 C 35.242188 2.097656 35.980469 2.363281 36.703125 2.660156 C 37.425781 2.960938 38.132812 3.296875 38.820312 3.667969 C 39.511719 4.035156 40.179688 4.4375 40.832031 4.871094 C 41.484375 5.308594 42.109375 5.773438 42.714844 6.269531 C 43.320312 6.765625 43.898438 7.292969 44.453125 7.847656 C 45.007812 8.398438 45.53125 8.980469 46.027344 9.585938 C 46.523438 10.1875 46.988281 10.816406 47.425781 11.46875 C 47.859375 12.117188 48.261719 12.789062 48.628906 13.480469 C 49 14.167969 49.335938 14.875 49.632812 15.597656 C 49.933594 16.320312 50.199219 17.058594 50.425781 17.804688 C 50.652344 18.554688 50.84375 19.3125 50.996094 20.082031 C 51.148438 20.847656 51.265625 21.621094 51.34375 22.402344 C 51.421875 23.179688 51.460938 23.960938 51.460938 24.742188 Z M 51.460938 24.742188 " fill-opacity="1" fill-rule="nonzero"/></g><path fill="#ffffff" d="M 26.789062 17.160156 C 26.789062 16.945312 26.863281 16.765625 27.011719 16.613281 C 27.164062 16.464844 27.34375 16.386719 27.558594 16.386719 C 28.105469 16.390625 28.648438 16.445312 29.183594 16.554688 C 29.71875 16.664062 30.242188 16.820312 30.746094 17.03125 C 31.25 17.242188 31.730469 17.503906 32.183594 17.808594 C 32.636719 18.113281 33.058594 18.457031 33.445312 18.847656 C 33.832031 19.234375 34.175781 19.65625 34.480469 20.109375 C 34.78125 20.566406 35.039062 21.046875 35.246094 21.554688 C 35.457031 22.058594 35.613281 22.582031 35.722656 23.117188 C 35.828125 23.652344 35.878906 24.195312 35.878906 24.742188 C 35.882812 24.957031 35.808594 25.140625 35.65625 25.289062 C 35.507812 25.441406 35.324219 25.515625 35.109375 25.515625 C 34.902344 25.5 34.726562 25.421875 34.578125 25.273438 C 34.429688 25.128906 34.351562 24.949219 34.339844 24.742188 C 34.339844 24.296875 34.296875 23.851562 34.207031 23.414062 C 34.121094 22.976562 33.992188 22.550781 33.820312 22.136719 C 33.648438 21.722656 33.441406 21.332031 33.191406 20.960938 C 32.945312 20.589844 32.664062 20.242188 32.347656 19.929688 C 32.03125 19.613281 31.6875 19.328125 31.316406 19.082031 C 30.945312 18.832031 30.550781 18.621094 30.136719 18.449219 C 29.726562 18.277344 29.300781 18.148438 28.863281 18.0625 C 28.421875 17.972656 27.980469 17.929688 27.535156 17.929688 C 27.324219 17.921875 27.148438 17.84375 27.003906 17.695312 C 26.859375 17.546875 26.789062 17.367188 26.789062 17.160156 Z M 26.789062 17.160156 " fill-opacity="1" fill-rule="nonzero"/><g clip-path="url(#e4081d02c7)"><path fill="#ffffff" d="M 48.820312 41.207031 L 48.820312 42.699219 C 48.816406 43.914062 48.382812 44.949219 47.523438 45.808594 L 43.488281 49.808594 C 42.644531 50.648438 41.625 51.074219 40.429688 51.082031 L 40.25 51.082031 C 38.96875 51.023438 37.691406 50.910156 36.421875 50.738281 C 35.148438 50.5625 33.890625 50.332031 32.640625 50.039062 C 31.390625 49.75 30.15625 49.402344 28.9375 48.996094 C 27.71875 48.589844 26.523438 48.128906 25.351562 47.613281 C 24.175781 47.097656 23.027344 46.527344 21.90625 45.902344 C 20.785156 45.28125 19.691406 44.605469 18.632812 43.882812 C 17.574219 43.15625 16.550781 42.386719 15.5625 41.566406 C 14.578125 40.746094 13.628906 39.882812 12.722656 38.976562 C 11.8125 38.066406 10.949219 37.121094 10.132812 36.132812 C 9.3125 35.144531 8.539062 34.121094 7.816406 33.0625 C 7.09375 32.003906 6.417969 30.914062 5.796875 29.789062 C 5.171875 28.667969 4.601562 27.519531 4.085938 26.34375 C 3.570312 25.171875 3.109375 23.972656 2.703125 22.757812 C 2.300781 21.539062 1.953125 20.304688 1.660156 19.054688 C 1.371094 17.804688 1.136719 16.546875 0.964844 15.273438 C 0.792969 14.003906 0.675781 12.726562 0.621094 11.441406 C 0.589844 10.832031 0.683594 10.242188 0.90625 9.667969 C 1.125 9.097656 1.453125 8.59375 1.886719 8.164062 L 5.886719 4.171875 C 6.746094 3.3125 7.78125 2.878906 8.996094 2.875 L 10.460938 2.875 C 10.90625 2.875 11.339844 2.941406 11.765625 3.074219 C 12.191406 3.207031 12.585938 3.398438 12.953125 3.652344 C 13.316406 3.90625 13.636719 4.207031 13.914062 4.554688 C 14.1875 4.90625 14.402344 5.289062 14.5625 5.703125 L 18.105469 15.117188 C 18.394531 15.898438 18.457031 16.699219 18.289062 17.519531 C 18.125 18.335938 17.757812 19.050781 17.1875 19.660156 L 15.71875 21.210938 C 15.496094 21.445312 15.316406 21.710938 15.1875 22.007812 C 15.054688 22.304688 14.976562 22.613281 14.953125 22.9375 C 14.925781 23.257812 14.957031 23.578125 15.042969 23.890625 C 15.128906 24.203125 15.261719 24.492188 15.449219 24.757812 C 18.574219 29.304688 22.402344 33.152344 26.925781 36.304688 C 27.195312 36.476562 27.480469 36.601562 27.789062 36.679688 C 28.097656 36.757812 28.410156 36.78125 28.730469 36.75 C 29.046875 36.722656 29.347656 36.640625 29.640625 36.511719 C 29.929688 36.378906 30.1875 36.203125 30.417969 35.984375 L 31.996094 34.492188 C 32.601562 33.921875 33.316406 33.550781 34.136719 33.386719 C 34.953125 33.222656 35.753906 33.285156 36.535156 33.574219 L 45.949219 37.117188 C 46.367188 37.269531 46.753906 37.484375 47.109375 37.757812 C 47.460938 38.03125 47.765625 38.347656 48.023438 38.714844 C 48.277344 39.078125 48.476562 39.476562 48.609375 39.902344 C 48.746094 40.324219 48.816406 40.761719 48.820312 41.207031 Z M 48.820312 41.207031 " fill-opacity="1" fill-rule="nonzero"/></g></svg>