<svg xmlns="http://www.w3.org/2000/svg" xmlns:xlink="http://www.w3.org/1999/xlink" width="70" zoomAndPan="magnify" viewBox="0 0 52.5 52.499999" height="70" preserveAspectRatio="xMidYMid meet" version="1.0"><defs><clipPath id="e66fb5178f"><path d="M 0 7.441406 L 51 7.441406 L 51 28 L 0 28 Z M 0 7.441406 " clip-rule="nonzero"/></clipPath><clipPath id="c44d4efbea"><path d="M 0 13 L 52 13 L 52 44.589844 L 0 44.589844 Z M 0 13 " clip-rule="nonzero"/></clipPath></defs><g clip-path="url(#e66fb5178f)"><path fill="#ffffff" d="M 22.601562 26.609375 C 23.089844 26.980469 23.621094 27.265625 24.203125 27.464844 C 24.785156 27.664062 25.382812 27.761719 26 27.761719 C 26.613281 27.761719 27.210938 27.664062 27.792969 27.464844 C 28.375 27.265625 28.910156 26.980469 29.394531 26.609375 L 50.957031 9.808594 C 50.4375 9.066406 49.777344 8.488281 48.976562 8.070312 C 48.171875 7.652344 47.320312 7.441406 46.414062 7.441406 L 5.589844 7.441406 C 4.632812 7.445312 3.730469 7.679688 2.894531 8.148438 C 2.054688 8.617188 1.382812 9.261719 0.878906 10.078125 Z M 22.601562 26.609375 " fill-opacity="1" fill-rule="nonzero"/></g><g clip-path="url(#c44d4efbea)"><path fill="#ffffff" d="M 31.667969 29.546875 C 31.265625 29.859375 30.839844 30.132812 30.390625 30.371094 C 29.945312 30.613281 29.480469 30.8125 29 30.976562 C 28.515625 31.140625 28.027344 31.265625 27.523438 31.347656 C 27.023438 31.429688 26.519531 31.472656 26.011719 31.472656 C 25.5 31.472656 24.996094 31.429688 24.496094 31.347656 C 23.992188 31.265625 23.503906 31.140625 23.019531 30.976562 C 22.539062 30.8125 22.074219 30.613281 21.628906 30.371094 C 21.179688 30.132812 20.753906 29.859375 20.351562 29.546875 L 0.0234375 14.089844 L 0.0234375 38.988281 C 0.0234375 39.351562 0.0585938 39.714844 0.132812 40.074219 C 0.203125 40.433594 0.308594 40.78125 0.449219 41.117188 C 0.589844 41.457031 0.757812 41.777344 0.960938 42.082031 C 1.164062 42.382812 1.394531 42.664062 1.65625 42.925781 C 1.914062 43.183594 2.195312 43.414062 2.5 43.617188 C 2.800781 43.820312 3.125 43.992188 3.460938 44.128906 C 3.796875 44.269531 4.148438 44.375 4.503906 44.449219 C 4.863281 44.519531 5.226562 44.554688 5.589844 44.554688 L 46.414062 44.554688 C 46.777344 44.554688 47.140625 44.519531 47.5 44.449219 C 47.859375 44.375 48.207031 44.269531 48.542969 44.128906 C 48.882812 43.992188 49.203125 43.820312 49.507812 43.617188 C 49.808594 43.414062 50.089844 43.183594 50.351562 42.925781 C 50.609375 42.664062 50.839844 42.382812 51.042969 42.082031 C 51.246094 41.777344 51.417969 41.457031 51.554688 41.117188 C 51.695312 40.78125 51.800781 40.433594 51.875 40.074219 C 51.945312 39.714844 51.980469 39.351562 51.980469 38.988281 L 51.980469 13.722656 Z M 31.667969 29.546875 " fill-opacity="1" fill-rule="nonzero"/></g></svg>