<svg width="64" height="64" viewBox="0 0 64 64" fill="none" xmlns="http://www.w3.org/2000/svg">
<path d="M39.9403 15.2324H44.3523C45.0543 15.2324 45.7277 15.5113 46.2241 16.0078C46.7205 16.5042 46.9994 17.1775 46.9994 17.8796V49.6458C46.9994 50.3479 46.7205 51.0212 46.2241 51.5176C45.7277 52.0141 45.0543 52.293 44.3523 52.293H19.6452C18.9432 52.293 18.2698 52.0141 17.7734 51.5176C17.2769 51.0212 16.998 50.3479 16.998 49.6458V17.8796C16.998 17.1775 17.2769 16.5042 17.7734 16.0078C18.2698 15.5113 18.9432 15.2324 19.6452 15.2324H24.0572" stroke="white" stroke-width="2" stroke-miterlimit="10" stroke-linecap="round" stroke-linejoin="round"/>
<path d="M35.0399 13.4679C34.4275 12.4179 33.3016 11.7031 31.9992 11.7031C30.6968 11.7031 29.5708 12.4179 28.9584 13.4679H25.8224C25.3544 13.4679 24.9055 13.6538 24.5745 13.9848C24.2436 14.3158 24.0576 14.7647 24.0576 15.2327V16.1151C24.0576 16.8172 24.3365 17.4905 24.833 17.9869C25.3294 18.4834 26.0027 18.7623 26.7048 18.7623H37.2935C37.9956 18.7623 38.6689 18.4834 39.1654 17.9869C39.6618 17.4905 39.9407 16.8172 39.9407 16.1151V15.2327C39.9407 14.7647 39.7548 14.3158 39.4238 13.9848C39.0929 13.6538 38.644 13.4679 38.1759 13.4679H35.0399Z" stroke="white" stroke-width="2" stroke-miterlimit="10" stroke-linecap="round" stroke-linejoin="round"/>
<path d="M24.0586 32.8823H39.9417M24.0586 27.5879H39.9417M24.0586 38.1766H39.9417M24.0586 43.471H39.9417" stroke="white" stroke-width="2" stroke-miterlimit="10" stroke-linecap="round" stroke-linejoin="round"/>
</svg>
