<svg width="64" height="64" viewBox="0 0 64 64" fill="none" xmlns="http://www.w3.org/2000/svg">
<path d="M40.8415 57.0647H17.2625C16.8733 57.0647 16.5 56.9103 16.2248 56.6354C15.9495 56.3605 15.7949 55.9877 15.7949 55.599V49.7118C15.7949 49.3231 15.9495 48.9503 16.2248 48.6754C16.5 48.4005 16.8733 48.2461 17.2625 48.2461H40.8415C41.2307 48.2461 41.604 48.4005 41.8792 48.6754C42.1544 48.9503 42.309 49.3231 42.309 49.7118V55.599C42.309 55.9877 42.1544 56.3605 41.8792 56.6354C41.604 56.9103 41.2307 57.0647 40.8415 57.0647ZM18.7301 54.1333H39.3739V51.1775H18.7301V54.1333Z" fill="white"/>
<path d="M17.2631 51.1781C16.8739 51.1781 16.5006 51.0237 16.2254 50.7489C15.9501 50.474 15.7955 50.1012 15.7955 49.7124V45.7404L13.0952 41.6951C12.9345 41.4543 12.8487 41.1715 12.8486 40.8821V33.5223C12.8486 33.1336 13.0033 32.7608 13.2785 32.4859C13.5537 32.2111 13.927 32.0566 14.3162 32.0566C14.7054 32.0566 15.0787 32.2111 15.3539 32.4859C15.6292 32.7608 15.7838 33.1336 15.7838 33.5223V40.4375L18.4851 44.4838C18.6455 44.7247 18.7309 45.0075 18.7307 45.2968V49.7124C18.7307 50.1012 18.576 50.474 18.3008 50.7489C18.0256 51.0237 17.6523 51.1781 17.2631 51.1781Z" fill="white"/>
<path d="M17.2626 37.9319C16.0921 37.9303 14.97 37.4652 14.1425 36.6385C13.3149 35.8118 12.8494 34.6911 12.8481 33.5221V30.579C12.8394 29.9944 12.9472 29.4139 13.1652 28.8713C13.3831 28.3288 13.7069 27.8349 14.1178 27.4184C14.5286 27.002 15.0182 26.6712 15.5582 26.4455C16.0982 26.2198 16.6777 26.1035 17.2631 26.1035C17.8485 26.1035 18.428 26.2198 18.968 26.4455C19.5079 26.6712 19.9976 27.002 20.4084 27.4184C20.8192 27.8349 21.1431 28.3288 21.361 28.8713C21.579 29.4139 21.6867 29.9944 21.678 30.579V33.5221C21.6767 34.6912 21.2111 35.8121 20.3833 36.6389C19.5556 37.4656 18.4332 37.9306 17.2626 37.9319ZM17.2626 29.1006C16.8703 29.1013 16.4944 29.2574 16.2171 29.5345C15.9398 29.8116 15.7838 30.1872 15.7833 30.579V33.5221C15.7782 33.7194 15.8127 33.9157 15.8848 34.0994C15.9569 34.2831 16.0651 34.4506 16.203 34.5919C16.3409 34.7333 16.5058 34.8456 16.6878 34.9223C16.8699 34.999 17.0655 35.0385 17.2631 35.0385C17.4607 35.0385 17.6563 34.999 17.8383 34.9223C18.0204 34.8456 18.1853 34.7333 18.3232 34.5919C18.4611 34.4506 18.5693 34.2831 18.6414 34.0994C18.7134 33.9157 18.748 33.7194 18.7429 33.5221V30.579C18.7424 30.187 18.5862 29.8113 18.3087 29.5341C18.0313 29.257 17.655 29.1011 17.2626 29.1006Z" fill="white"/>
<path d="M23.1581 37.9327C21.9875 37.9314 20.8651 37.4664 20.0374 36.6397C19.2096 35.813 18.744 34.6921 18.7427 33.5229V29.1083C18.734 28.5237 18.8417 27.9432 19.0597 27.4006C19.2776 26.8581 19.6015 26.3642 20.0123 25.9477C20.4231 25.5312 20.9128 25.2005 21.4527 24.9748C21.9927 24.7491 22.5722 24.6328 23.1576 24.6328C23.743 24.6328 24.3225 24.7491 24.8625 24.9748C25.4025 25.2005 25.8921 25.5312 26.303 25.9477C26.7138 26.3642 27.0376 26.8581 27.2556 27.4006C27.4735 27.9432 27.5813 28.5237 27.5726 29.1083V33.5229C27.5713 34.6919 27.1058 35.8127 26.2782 36.6394C25.4507 37.4661 24.3286 37.9312 23.1581 37.9327ZM23.1581 27.6299C22.7657 27.6304 22.3895 27.7863 22.112 28.0634C21.8345 28.3406 21.6783 28.7163 21.6778 29.1083V33.5229C21.6727 33.7202 21.7073 33.9165 21.7793 34.1003C21.8514 34.284 21.9596 34.4515 22.0975 34.5928C22.2354 34.7341 22.4003 34.8465 22.5824 34.9231C22.7644 34.9998 22.96 35.0393 23.1576 35.0393C23.3552 35.0393 23.5508 34.9998 23.7329 34.9231C23.9149 34.8465 24.0798 34.7341 24.2177 34.5928C24.3556 34.4515 24.4638 34.284 24.5359 34.1003C24.608 33.9165 24.6425 33.7202 24.6374 33.5229V29.1083C24.6369 28.7165 24.4809 28.3409 24.2036 28.0638C23.9263 27.7867 23.5504 27.6306 23.1581 27.6299Z" fill="white"/>
<path d="M29.0521 37.9322C27.8817 37.9306 26.7596 37.4655 25.932 36.6388C25.1045 35.8121 24.639 34.6914 24.6377 33.5224V27.6352C24.655 26.4771 25.1277 25.3723 25.9538 24.5595C26.7799 23.7467 27.893 23.291 29.0526 23.291C30.2123 23.291 31.3254 23.7467 32.1515 24.5595C32.9776 25.3723 33.4503 26.4771 33.4676 27.6352V33.5224C33.4663 34.6916 33.0007 35.8125 32.1729 36.6392C31.3451 37.4659 30.2228 37.9309 29.0521 37.9322ZM29.0521 26.1577C28.66 26.1583 28.284 26.3141 28.0067 26.591C27.7294 26.868 27.5734 27.2435 27.5728 27.6352V33.5224C27.5678 33.7197 27.6023 33.916 27.6744 34.0997C27.7464 34.2835 27.8546 34.4509 27.9925 34.5923C28.1305 34.7336 28.2953 34.8459 28.4774 34.9226C28.6594 34.9993 28.855 35.0388 29.0526 35.0388C29.2502 35.0388 29.4458 34.9993 29.6279 34.9226C29.81 34.8459 29.9748 34.7336 30.1127 34.5923C30.2506 34.4509 30.3588 34.2835 30.4309 34.0997C30.503 33.916 30.5375 33.7197 30.5324 33.5224V27.6352C30.5319 27.2433 30.3758 26.8677 30.0982 26.5907C29.8207 26.3137 29.4445 26.158 29.0521 26.1577Z" fill="white"/>
<path d="M40.8419 51.1778C40.4527 51.1778 40.0794 51.0234 39.8042 50.7485C39.529 50.4736 39.3743 50.1008 39.3743 49.7121V43.8249C39.3744 43.6323 39.4124 43.4416 39.4863 43.2637C39.5602 43.0858 39.6684 42.9242 39.8048 42.7881L47.6319 34.9711C46.6854 34.2213 45.4959 33.8453 44.2899 33.9146C43.0838 33.984 41.9454 34.4939 41.0914 35.3473L38.9331 37.5019C38.7279 37.7069 38.4664 37.8466 38.1818 37.9032C37.8971 37.9599 37.602 37.9309 37.3338 37.8201C37.0656 37.7092 36.8363 37.5214 36.675 37.2804C36.5137 37.0394 36.4275 36.756 36.4275 36.4661V17.3329C36.4325 17.1356 36.398 16.9393 36.3259 16.7555C36.2539 16.5718 36.1457 16.4043 36.0077 16.263C35.8698 16.1217 35.705 16.0093 35.5229 15.9327C35.3409 15.856 35.1453 15.8165 34.9477 15.8165C34.7501 15.8165 34.5545 15.856 34.3724 15.9327C34.1903 16.0093 34.0255 16.1217 33.8876 16.263C33.7497 16.4043 33.6415 16.5718 33.5694 16.7555C33.4973 16.9393 33.4628 17.1356 33.4679 17.3329V27.6348C33.4679 28.0235 33.3132 28.3963 33.038 28.6712C32.7628 28.946 32.3895 29.1005 32.0003 29.1005C31.6111 29.1005 31.2378 28.946 30.9626 28.6712C30.6873 28.3963 30.5327 28.0235 30.5327 27.6348V17.3329C30.524 16.7483 30.6318 16.1678 30.8497 15.6253C31.0677 15.0827 31.3915 14.5888 31.8023 14.1723C32.2132 13.7559 32.7028 13.4251 33.2428 13.1994C33.7828 12.9737 34.3623 12.8574 34.9477 12.8574C35.533 12.8574 36.1126 12.9737 36.6525 13.1994C37.1925 13.4251 37.6822 13.7559 38.093 14.1723C38.5038 14.5888 38.8276 15.0827 39.0456 15.6253C39.2636 16.1678 39.3713 16.7483 39.3626 17.3329V32.9474C40.1755 32.2288 41.1287 31.6861 42.162 31.3536C43.1953 31.0212 44.2864 30.9061 45.3665 31.0157C46.4466 31.1253 47.4922 31.4572 48.4374 31.9905C49.3827 32.5238 50.207 33.2469 50.8586 34.1141C51.0707 34.3964 51.1737 34.7456 51.1487 35.0976C51.1237 35.4496 50.9724 35.7808 50.7226 36.0303L42.3085 44.4336V49.7102C42.3088 49.9027 42.271 50.0934 42.1974 50.2714C42.1239 50.4494 42.0159 50.6112 41.8797 50.7475C41.7435 50.8838 41.5817 50.9919 41.4037 51.0658C41.2256 51.1396 41.0347 51.1777 40.8419 51.1778Z" fill="white"/>
<path d="M43.79 18.7986C43.4008 18.7986 43.0275 18.6442 42.7523 18.3693C42.477 18.0944 42.3224 17.7216 42.3224 17.3329C42.3336 16.3585 42.1512 15.3916 41.7856 14.4882C41.4201 13.5848 40.8787 12.7628 40.1927 12.0698C39.5068 11.3769 38.6901 10.8267 37.7898 10.4512C36.8895 10.0758 35.9235 9.88242 34.9479 9.88242C33.9722 9.88242 33.0063 10.0758 32.106 10.4512C31.2057 10.8267 30.3889 11.3769 29.703 12.0698C29.0171 12.7628 28.4757 13.5848 28.1101 14.4882C27.7445 15.3916 27.5621 16.3585 27.5733 17.3329C27.5733 17.7216 27.4187 18.0944 27.1435 18.3693C26.8683 18.6442 26.495 18.7986 26.1058 18.7986C25.7165 18.7986 25.3432 18.6442 25.068 18.3693C24.7928 18.0944 24.6382 17.7216 24.6382 17.3329C24.6249 15.9723 24.8818 14.6225 25.3939 13.3617C25.9061 12.1008 26.6634 10.9538 27.6221 9.98703C28.5807 9.02022 29.7217 8.25275 30.9791 7.72899C32.2366 7.20522 33.5855 6.93555 34.9479 6.93555C36.3103 6.93555 37.6592 7.20522 38.9166 7.72899C40.174 8.25275 41.315 9.02022 42.2737 9.98703C43.2323 10.9538 43.9896 12.1008 44.5018 13.3617C45.014 14.6225 45.2708 15.9723 45.2576 17.3329C45.2576 17.7216 45.1029 18.0944 44.8277 18.3693C44.5525 18.6442 44.1792 18.7986 43.79 18.7986Z" fill="white"/>
</svg>
