<svg width="64" height="64" viewBox="0 0 64 64" fill="none" xmlns="http://www.w3.org/2000/svg">
<path d="M56.1896 31.9001H48.0496L44.6196 18.1501C44.5409 17.8222 44.354 17.5304 44.0891 17.3218C43.8242 17.1131 43.4968 16.9998 43.1596 17.0001C42.8193 17.0096 42.4923 17.1346 42.2325 17.3545C41.9726 17.5744 41.7952 17.8761 41.7296 18.2101L36.6096 43.6101L34.3996 33.0901C34.3334 32.7752 34.1676 32.4899 33.9268 32.2764C33.686 32.0629 33.3829 31.9325 33.0623 31.9045C32.7417 31.8764 32.4206 31.9523 32.1464 32.1208C31.8722 32.2892 31.6594 32.5415 31.5396 32.8401L29.9996 36.7001L26.9996 11.8201C26.9556 11.456 26.7796 11.1206 26.5051 10.8774C26.2305 10.6341 25.8764 10.4999 25.5096 10.5001C25.1378 10.4953 24.7775 10.6286 24.4985 10.8744C24.2195 11.1201 24.0417 11.4607 23.9996 11.8301L20.2696 43.9301L17.6396 33.9301C17.5556 33.6095 17.3678 33.3256 17.1054 33.123C16.8431 32.9204 16.521 32.8104 16.1896 32.8101H7.80957C7.41175 32.8101 7.03022 32.9682 6.74891 33.2495C6.46761 33.5308 6.30957 33.9123 6.30957 34.3101C6.30957 34.708 6.46761 35.0895 6.74891 35.3708C7.03022 35.6521 7.41175 35.8101 7.80957 35.8101H14.9996L19.3596 52.3701C19.4435 52.6908 19.6314 52.9746 19.8937 53.1772C20.156 53.3799 20.4781 53.4899 20.8096 53.4901H20.9196C21.2671 53.4647 21.5949 53.319 21.8468 53.0781C22.0986 52.8372 22.2587 52.5162 22.2996 52.1701L25.4896 24.7201L27.6896 42.8801C27.7298 43.2103 27.8786 43.5178 28.1126 43.7541C28.3466 43.9905 28.6526 44.1424 28.9824 44.1859C29.3121 44.2294 29.647 44.1621 29.9343 43.9945C30.2216 43.8269 30.4451 43.5686 30.5696 43.2601L32.4496 38.5601L35.1496 51.3901C35.2207 51.7271 35.4057 52.0293 35.6734 52.246C35.9411 52.4627 36.2752 52.5807 36.6196 52.5801C36.9651 52.5774 37.299 52.4556 37.565 52.2351C37.831 52.0146 38.0128 51.7091 38.0796 51.3701L43.2796 25.3701L45.3796 33.7801C45.4602 34.1062 45.6479 34.3957 45.9126 34.6024C46.1773 34.8091 46.5037 34.921 46.8396 34.9201H56.1396C56.5374 34.9201 56.9189 34.7621 57.2002 34.4808C57.4815 34.1995 57.6396 33.818 57.6396 33.4201C57.6396 33.0223 57.4815 32.6408 57.2002 32.3595C56.9189 32.0782 56.5374 31.9201 56.1396 31.9201L56.1896 31.9001Z" fill="white"/>
</svg>
