<svg width="64" height="64" viewBox="0 0 64 64" fill="none" xmlns="http://www.w3.org/2000/svg">
<path d="M44.1021 15.434C43.9287 15.434 43.7554 15.39 43.6037 15.302C39.4429 13.124 35.8456 12.2 31.5331 12.2C27.2424 12.2 23.1683 13.234 19.4626 15.302C18.9425 15.588 18.2924 15.39 17.989 14.862C17.8539 14.6047 17.8235 14.3038 17.9046 14.0241C17.9856 13.7443 18.1716 13.508 18.4224 13.366C22.4532 11.144 26.874 10 31.5331 10C36.149 10 40.1797 11.034 44.6005 13.344C45.1423 13.63 45.3373 14.29 45.0556 14.818C44.9699 15.0014 44.835 15.1565 44.6663 15.2655C44.4976 15.3745 44.302 15.4329 44.1021 15.434ZM13.0914 26.984C12.8917 26.9859 12.6953 26.9316 12.5241 26.8271C12.3529 26.7226 12.2136 26.5719 12.1216 26.3919C12.0295 26.2119 11.9884 26.0096 12.0028 25.8073C12.0172 25.605 12.0864 25.4107 12.2029 25.246C14.3483 22.166 17.0788 19.746 20.3294 18.052C27.134 14.488 35.8456 14.466 42.6718 18.03C45.9224 19.724 48.6529 22.122 50.7983 25.18C50.8815 25.2982 50.9407 25.432 50.9727 25.5736C51.0046 25.7152 51.0086 25.8618 50.9844 26.005C50.9602 26.1482 50.9084 26.2851 50.8318 26.4078C50.7552 26.5305 50.6555 26.6366 50.5383 26.72C50.0399 27.072 49.3681 26.962 49.0213 26.456C47.1236 23.7288 44.6028 21.5094 41.675 19.988C35.4555 16.754 27.5024 16.754 21.3046 20.01C18.3574 21.55 15.887 23.75 13.9366 26.522C13.7632 26.83 13.4382 26.984 13.0914 26.984ZM26.6356 53.538C26.4935 53.5398 26.3526 53.5113 26.222 53.4545C26.0913 53.3976 25.9739 53.3137 25.8771 53.208C23.9918 51.294 22.9732 50.062 21.5213 47.4C20.026 44.694 19.2459 41.394 19.2459 37.852C19.2459 31.318 24.7502 25.994 31.5115 25.994C38.2727 25.994 43.777 31.318 43.777 37.852C43.777 38.468 43.3003 38.952 42.6935 38.952C42.0867 38.952 41.61 38.468 41.61 37.852C41.61 32.528 37.0808 28.194 31.5115 28.194C25.9421 28.194 21.413 32.528 21.413 37.852C21.413 41.02 22.1064 43.946 23.4283 46.322C24.8152 48.852 25.7688 49.93 27.4374 51.646C27.8491 52.086 27.8491 52.768 27.4374 53.208C27.199 53.428 26.9173 53.538 26.6356 53.538ZM42.1734 49.468C39.5946 49.468 37.3192 48.808 35.4555 47.51C32.2266 45.288 30.2979 41.68 30.2979 37.852C30.2979 37.236 30.7747 36.752 31.3814 36.752C31.9882 36.752 32.465 37.236 32.465 37.852C32.465 40.954 34.0253 43.88 36.6691 45.684C38.2077 46.74 40.0064 47.246 42.1734 47.246C42.6935 47.246 43.5603 47.18 44.4272 47.026C45.0123 46.916 45.5757 47.312 45.6841 47.928C45.7924 48.522 45.4023 49.094 44.7956 49.204C43.5603 49.446 42.4768 49.468 42.1734 49.468ZM37.8176 54C37.7309 54 37.6226 53.978 37.5359 53.956C34.0903 52.988 31.8365 51.69 29.4744 49.336C27.9776 47.8356 26.7907 46.047 25.9832 44.0751C25.1757 42.1032 24.7639 39.9875 24.7719 37.852C24.7719 34.288 27.7625 31.384 31.4465 31.384C35.1305 31.384 38.121 34.288 38.121 37.852C38.121 40.206 40.1364 42.12 42.6285 42.12C45.1206 42.12 47.136 40.206 47.136 37.852C47.136 29.558 40.093 22.826 31.4248 22.826C25.2703 22.826 19.636 26.302 17.1005 31.692C16.2554 33.474 15.8219 35.564 15.8219 37.852C15.8219 39.568 15.9736 42.274 17.2739 45.794C17.4906 46.366 17.2089 47.004 16.6454 47.202C16.082 47.422 15.4535 47.114 15.2585 46.564C14.2143 43.7817 13.6782 40.8294 13.6766 37.852C13.6766 35.212 14.175 32.814 15.1502 30.724C18.0323 24.586 24.4252 20.604 31.4248 20.604C41.2849 20.604 49.303 28.326 49.303 37.83C49.303 41.394 46.3125 44.298 42.6285 44.298C38.9445 44.298 35.9539 41.394 35.9539 37.83C35.9539 35.476 33.9386 33.562 31.4465 33.562C28.9543 33.562 26.939 35.476 26.939 37.83C26.939 41.592 28.3692 45.112 30.9914 47.752C33.0501 49.82 35.0221 50.964 38.0777 51.822C38.6628 51.976 38.9878 52.592 38.8361 53.164C38.7278 53.67 38.2727 54 37.8176 54Z" fill="white"/>
</svg>
