<svg width="64" height="64" viewBox="0 0 64 64" fill="none" xmlns="http://www.w3.org/2000/svg">
<path d="M20.3001 40.4224C17.7514 40.4226 15.26 39.667 13.1407 38.2512C11.0215 36.8354 9.36973 34.8229 8.39427 32.4683C7.4188 30.1138 7.16347 27.5228 7.66057 25.0231C8.15767 22.5234 9.38486 20.2272 11.187 18.425C12.9891 16.6227 15.2851 15.3954 17.7848 14.8981C20.2845 14.4008 22.8755 14.6559 25.2301 15.6312C27.5848 16.6065 29.5974 18.2581 31.0133 20.3772C32.4293 22.4963 33.1851 24.9877 33.1851 27.5364C33.1814 30.9527 31.8227 34.228 29.4071 36.6437C26.9916 39.0595 23.7164 40.4184 20.3001 40.4224ZM20.3001 17.6504C18.3448 17.6504 16.4335 18.2302 14.8077 19.3165C13.182 20.4028 11.9149 21.9468 11.1666 23.7532C10.4184 25.5596 10.2226 27.5474 10.604 29.4651C10.9855 31.3828 11.9271 33.1443 13.3096 34.5269C14.6922 35.9094 16.4537 36.851 18.3714 37.2324C20.2891 37.6139 22.2769 37.4181 24.0833 36.6699C25.8897 35.9216 27.4337 34.6545 28.52 33.0288C29.6063 31.403 30.1861 29.4917 30.1861 27.5364C30.1832 24.9154 29.1407 22.4025 27.2873 20.5492C25.434 18.6958 22.9211 17.6533 20.3001 17.6504Z" fill="white"/>
<path d="M15.81 32.5904C15.4984 32.5906 15.1946 32.4937 14.9406 32.3133C14.6866 32.133 14.495 31.878 14.3926 31.5837C14.2901 31.2895 14.2818 30.9707 14.3688 30.6716C14.4558 30.3724 14.6337 30.1078 14.878 29.9144L18.8 26.8104V22.8374C18.8 22.4396 18.958 22.058 19.2393 21.7767C19.5206 21.4954 19.9022 21.3374 20.3 21.3374C20.6978 21.3374 21.0793 21.4954 21.3606 21.7767C21.6419 22.058 21.8 22.4396 21.8 22.8374V27.5374C21.7997 27.7635 21.7483 27.9867 21.6496 28.1902C21.5509 28.3937 21.4074 28.5722 21.23 28.7124L16.74 32.2674C16.4754 32.477 16.1476 32.5909 15.81 32.5904ZM55.08 17.9004H36.15C35.7522 17.9004 35.3706 17.7424 35.0893 17.4611C34.808 17.1797 34.65 16.7982 34.65 16.4004C34.65 16.0026 34.808 15.621 35.0893 15.3397C35.3706 15.0584 35.7522 14.9004 36.15 14.9004H55.08C55.4778 14.9004 55.8593 15.0584 56.1406 15.3397C56.4219 15.621 56.58 16.0026 56.58 16.4004C56.58 16.7982 56.4219 17.1797 56.1406 17.4611C55.8593 17.7424 55.4778 17.9004 55.08 17.9004ZM55.08 28.3904H39.67C39.2722 28.3904 38.8906 28.2324 38.6093 27.9511C38.328 27.6697 38.17 27.2882 38.17 26.8904C38.17 26.4926 38.328 26.111 38.6093 25.8297C38.8906 25.5484 39.2722 25.3904 39.67 25.3904H55.08C55.4778 25.3904 55.8593 25.5484 56.1406 25.8297C56.4219 26.111 56.58 26.4926 56.58 26.8904C56.58 27.2882 56.4219 27.6697 56.1406 27.9511C55.8593 28.2324 55.4778 28.3904 55.08 28.3904ZM55.08 38.8704H37C36.6022 38.8704 36.2206 38.7124 35.9393 38.4311C35.658 38.1497 35.5 37.7682 35.5 37.3704C35.5 36.9726 35.658 36.591 35.9393 36.3097C36.2206 36.0284 36.6022 35.8704 37 35.8704H55.08C55.4778 35.8704 55.8593 36.0284 56.1406 36.3097C56.4219 36.591 56.58 36.9726 56.58 37.3704C56.58 37.7682 56.4219 38.1497 56.1406 38.4311C55.8593 38.7124 55.4778 38.8704 55.08 38.8704ZM55.085 49.3504H14.001C13.6032 49.3504 13.2216 49.1924 12.9403 48.911C12.659 48.6297 12.501 48.2482 12.501 47.8504C12.501 47.4526 12.659 47.071 12.9403 46.7897C13.2216 46.5084 13.6032 46.3504 14.001 46.3504H55.085C55.4828 46.3504 55.8643 46.5084 56.1456 46.7897C56.4269 47.071 56.585 47.4526 56.585 47.8504C56.585 48.2482 56.4269 48.6297 56.1456 48.911C55.8643 49.1924 55.4828 49.3504 55.085 49.3504Z" fill="white"/>
</svg>
