<svg width="64" height="64" viewBox="0 0 64 64" fill="none" xmlns="http://www.w3.org/2000/svg">
<path d="M17.2692 52H46.7308C48.1277 51.9985 49.4669 51.4429 50.4547 50.4553C51.4425 49.4676 51.9982 48.1285 52 46.7317V17.2692C51.9985 15.8722 51.4428 14.5328 50.455 13.545C49.4672 12.5572 48.1278 12.0015 46.7308 12H17.2692C15.8722 12.0015 14.5328 12.5572 13.545 13.545C12.5572 14.5328 12.0015 15.8722 12 17.2692V46.7317C12.0018 48.1285 12.5575 49.4676 13.5453 50.4553C14.5331 51.4429 15.8723 51.9985 17.2692 52ZM13.6667 17.2692C13.6678 16.3141 14.0477 15.3984 14.723 14.723C15.3984 14.0477 16.3141 13.6678 17.2692 13.6667H46.7308C47.6859 13.6678 48.6016 14.0477 49.277 14.723C49.9523 15.3984 50.3322 16.3141 50.3333 17.2692V42.9592H13.6667V17.2692ZM13.6667 44.6258H50.3333V46.7317C50.3322 47.6867 49.9523 48.6023 49.2769 49.2775C48.6015 49.9527 47.6859 50.3325 46.7308 50.3333H17.2692C16.3141 50.3325 15.3985 49.9527 14.7231 49.2775C14.0477 48.6023 13.6678 47.6867 13.6667 46.7317V44.6258Z" fill="white"/>
<path d="M32.0036 19C27.1 19 23.1108 23.1495 23.1108 28.2483C23.1108 33.3471 27.1 37.4966 32.0036 37.4966C36.9024 37.4966 40.8884 33.3488 40.8884 28.2483C40.8884 23.1478 36.9024 19 32.0036 19ZM32.0036 35.8105C27.9942 35.8105 24.7321 32.4189 24.7321 28.2483C24.7321 24.0777 27.9942 20.6861 32.0036 20.6861C36.0083 20.6861 39.2671 24.0786 39.2671 28.2483C39.2671 32.4181 36.0083 35.8105 32.0036 35.8105ZM19.8107 48.6309H22.6341V49.1569C22.6341 49.3805 22.7196 49.595 22.8716 49.7531C23.0236 49.9112 23.2298 50 23.4448 50C23.6598 50 23.866 49.9112 24.018 49.7531C24.17 49.595 24.2554 49.3805 24.2554 49.1569V48.6309H44.1893C44.4043 48.6309 44.6105 48.5421 44.7626 48.384C44.9146 48.2258 45 48.0114 45 47.7878C45 47.5642 44.9146 47.3498 44.7626 47.1917C44.6105 47.0336 44.4043 46.9448 44.1893 46.9448H24.2554V46.7028C24.2554 46.4792 24.17 46.2648 24.018 46.1067C23.866 45.9486 23.6598 45.8598 23.4448 45.8598C23.2298 45.8598 23.0236 45.9486 22.8716 46.1067C22.7196 46.2648 22.6341 46.4792 22.6341 46.7028V46.9448H19.8107C19.5957 46.9448 19.3895 47.0336 19.2374 47.1917C19.0854 47.3498 19 47.5642 19 47.7878C19 48.0114 19.0854 48.2258 19.2374 48.384C19.3895 48.5421 19.5957 48.6309 19.8107 48.6309Z" fill="white"/>
<path d="M36.2589 26.5507L31.4668 23.2713C31.2102 23.0945 30.9116 23.0003 30.6065 23C30.1808 23.0002 29.7726 23.1815 29.4714 23.5041C29.1702 23.8267 29.0007 24.2642 29 24.7206V31.2794C29 32.2284 29.7205 33 30.6065 33C30.9093 33 31.2069 32.9062 31.4668 32.7287L36.2589 29.4493C36.4866 29.2946 36.674 29.0805 36.8036 28.827C36.9332 28.5736 37.0007 28.289 37 28C37.0007 27.711 36.9332 27.4264 36.8036 27.173C36.674 26.9195 36.4866 26.7054 36.2589 26.5507ZM30.7154 31.0614V24.9376L35.1876 27.9982L30.7154 31.0614Z" fill="white"/>
</svg>
