<svg xmlns="http://www.w3.org/2000/svg" xmlns:xlink="http://www.w3.org/1999/xlink" width="139" zoomAndPan="magnify" viewBox="0 0 104.25 104.249996" height="139" preserveAspectRatio="xMidYMid meet" version="1.0"><defs><clipPath id="c7bd400443"><path d="M 0 0 L 103.503906 0 L 103.503906 103.503906 L 0 103.503906 Z M 0 0 " clip-rule="nonzero"/></clipPath><clipPath id="98298d6b62"><path d="M 52 18.152344 L 56 18.152344 L 56 26 L 52 26 Z M 52 18.152344 " clip-rule="nonzero"/></clipPath><clipPath id="cc2bf12927"><path d="M 62 18.152344 L 65 18.152344 L 65 26 L 62 26 Z M 62 18.152344 " clip-rule="nonzero"/></clipPath><clipPath id="9609e8c016"><path d="M 71 18.152344 L 74 18.152344 L 74 26 L 71 26 Z M 71 18.152344 " clip-rule="nonzero"/></clipPath><clipPath id="fee557a878"><path d="M 41 32 L 85.171875 32 L 85.171875 72 L 41 72 Z M 41 32 " clip-rule="nonzero"/></clipPath><clipPath id="c04214568c"><path d="M 18.152344 38 L 49 38 L 49 85.171875 L 18.152344 85.171875 Z M 18.152344 38 " clip-rule="nonzero"/></clipPath><clipPath id="c816aafb5b"><path d="M 41 22 L 85.171875 22 L 85.171875 30 L 41 30 Z M 41 22 " clip-rule="nonzero"/></clipPath></defs><g clip-path="url(#c7bd400443)"><path fill="#ffffff" d="M 0 0 L 103.503906 0 L 103.503906 103.503906 L 0 103.503906 Z M 0 0 " fill-opacity="1" fill-rule="nonzero"/><path fill="#f4f6fc" d="M 0 0 L 103.503906 0 L 103.503906 103.503906 L 0 103.503906 Z M 0 0 " fill-opacity="1" fill-rule="nonzero"/></g><path fill="#000000" d="M 22.773438 68.996094 L 22.773438 71.304688 L 25.085938 71.304688 L 25.085938 68.996094 L 22.773438 68.996094 " fill-opacity="1" fill-rule="nonzero"/><path fill="#000000" d="M 22.773438 59.75 L 22.773438 62.0625 L 25.085938 62.0625 L 25.085938 59.75 L 22.773438 59.75 " fill-opacity="1" fill-rule="nonzero"/><path fill="#000000" d="M 32.019531 68.996094 L 32.019531 71.304688 L 34.328125 71.304688 L 34.328125 68.996094 L 32.019531 68.996094 " fill-opacity="1" fill-rule="nonzero"/><path fill="#000000" d="M 22.773438 78.238281 L 22.773438 80.550781 L 25.085938 80.550781 L 25.085938 78.238281 L 22.773438 78.238281 " fill-opacity="1" fill-rule="nonzero"/><path fill="#000000" d="M 32.019531 78.238281 L 32.019531 80.550781 L 34.328125 80.550781 L 34.328125 78.238281 L 32.019531 78.238281 " fill-opacity="1" fill-rule="nonzero"/><g clip-path="url(#98298d6b62)"><path fill="#000000" d="M 53.972656 25.085938 C 54.609375 25.085938 55.128906 24.566406 55.128906 23.929688 L 55.128906 19.308594 C 55.128906 18.671875 54.609375 18.152344 53.972656 18.152344 C 53.335938 18.152344 52.816406 18.671875 52.816406 19.308594 L 52.816406 23.929688 C 52.816406 24.566406 53.335938 25.085938 53.972656 25.085938 " fill-opacity="1" fill-rule="nonzero"/></g><g clip-path="url(#cc2bf12927)"><path fill="#000000" d="M 63.21875 25.085938 C 63.851562 25.085938 64.371094 24.566406 64.371094 23.929688 L 64.371094 19.308594 C 64.371094 18.671875 63.851562 18.152344 63.21875 18.152344 C 62.582031 18.152344 62.0625 18.671875 62.0625 19.308594 L 62.0625 23.929688 C 62.0625 24.566406 62.582031 25.085938 63.21875 25.085938 " fill-opacity="1" fill-rule="nonzero"/></g><g clip-path="url(#9609e8c016)"><path fill="#000000" d="M 72.460938 25.085938 C 73.097656 25.085938 73.617188 24.566406 73.617188 23.929688 L 73.617188 19.308594 C 73.617188 18.671875 73.097656 18.152344 72.460938 18.152344 C 71.824219 18.152344 71.304688 18.671875 71.304688 19.308594 L 71.304688 23.929688 C 71.304688 24.566406 71.824219 25.085938 72.460938 25.085938 " fill-opacity="1" fill-rule="nonzero"/></g><path fill="#000000" d="M 35.824219 36.980469 L 37.457031 38.613281 L 30.523438 45.546875 L 28.890625 43.914062 Z M 30.863281 37.796875 C 31.5 37.796875 32.019531 38.316406 32.019531 38.953125 C 32.019531 39.589844 31.5 40.105469 30.863281 40.105469 C 30.226562 40.105469 29.707031 39.589844 29.707031 38.953125 C 29.707031 38.316406 30.226562 37.796875 30.863281 37.796875 Z M 35.484375 44.730469 C 34.847656 44.730469 34.328125 44.210938 34.328125 43.574219 C 34.328125 42.9375 34.847656 42.417969 35.484375 42.417969 C 36.121094 42.417969 36.640625 42.9375 36.640625 43.574219 C 36.640625 44.210938 36.121094 44.730469 35.484375 44.730469 Z M 33.175781 48.195312 C 36.996094 48.195312 40.105469 45.085938 40.105469 41.261719 C 40.105469 37.441406 36.996094 34.328125 33.175781 34.328125 C 29.351562 34.328125 26.242188 37.441406 26.242188 41.261719 C 26.242188 45.085938 29.351562 48.195312 33.175781 48.195312 " fill-opacity="1" fill-rule="nonzero"/><path fill="#000000" d="M 32.019531 59.75 L 32.019531 62.0625 L 34.328125 62.0625 L 34.328125 59.75 L 32.019531 59.75 " fill-opacity="1" fill-rule="nonzero"/><path fill="#000000" d="M 22.773438 52.816406 L 43.574219 52.816406 L 43.574219 45.882812 L 41.167969 45.882812 C 39.566406 48.640625 36.585938 50.507812 33.175781 50.507812 C 29.761719 50.507812 26.78125 48.640625 25.179688 45.882812 L 22.773438 45.882812 L 22.773438 52.816406 " fill-opacity="1" fill-rule="nonzero"/><path fill="#000000" d="M 57.441406 52.816406 L 59.75 52.816406 L 59.75 56.285156 C 59.75 58.199219 61.304688 59.75 63.21875 59.75 L 66.683594 59.75 L 66.683594 56.285156 C 66.683594 54.371094 65.128906 52.816406 63.21875 52.816406 C 60.03125 52.816406 57.441406 50.226562 57.441406 47.039062 L 57.441406 41.261719 L 62.0625 41.261719 L 62.0625 38.953125 L 64.371094 38.953125 L 64.371094 41.378906 C 67.007812 41.917969 68.996094 44.25 68.996094 47.039062 L 68.996094 50.507812 L 66.683594 50.507812 L 66.683594 47.039062 C 66.683594 45.125 65.128906 43.574219 63.21875 43.574219 L 59.75 43.574219 L 59.75 47.039062 C 59.75 48.953125 61.304688 50.507812 63.21875 50.507812 C 66.402344 50.507812 68.996094 53.097656 68.996094 56.285156 L 68.996094 62.0625 L 64.371094 62.0625 L 64.371094 64.371094 L 62.0625 64.371094 L 62.0625 61.945312 C 59.425781 61.40625 57.441406 59.074219 57.441406 56.285156 Z M 50.507812 66.683594 L 80.550781 66.683594 L 80.550781 36.640625 L 45.882812 36.640625 L 45.882812 36.757812 C 48.519531 37.296875 50.507812 39.628906 50.507812 42.417969 L 50.507812 66.683594 " fill-opacity="1" fill-rule="nonzero"/><g clip-path="url(#fee557a878)"><path fill="#000000" d="M 41.261719 36.640625 L 43.574219 36.640625 C 43.574219 35.367188 44.613281 34.328125 45.882812 34.328125 L 80.550781 34.328125 C 81.820312 34.328125 82.859375 35.367188 82.859375 36.640625 L 82.859375 66.683594 C 82.859375 67.957031 81.820312 68.996094 80.550781 68.996094 L 50.507812 68.996094 L 50.507812 71.304688 L 81.703125 71.304688 C 83.617188 71.304688 85.171875 69.753906 85.171875 67.839844 L 85.171875 32.019531 L 41.261719 32.019531 L 41.261719 36.640625 " fill-opacity="1" fill-rule="nonzero"/></g><path fill="#000000" d="M 41.261719 59.75 L 41.261719 62.0625 L 43.574219 62.0625 L 43.574219 59.75 L 41.261719 59.75 " fill-opacity="1" fill-rule="nonzero"/><g clip-path="url(#c04214568c)"><path fill="#000000" d="M 45.882812 62.0625 C 45.882812 63.335938 44.847656 64.371094 43.574219 64.371094 L 41.261719 64.371094 C 39.988281 64.371094 38.953125 63.335938 38.953125 62.0625 L 38.953125 59.75 C 38.953125 58.476562 39.988281 57.441406 41.261719 57.441406 L 43.574219 57.441406 C 44.847656 57.441406 45.882812 58.476562 45.882812 59.75 Z M 45.882812 80.550781 C 45.882812 81.820312 44.847656 82.859375 43.574219 82.859375 L 41.261719 82.859375 C 39.988281 82.859375 38.953125 81.820312 38.953125 80.550781 L 38.953125 68.996094 C 38.953125 67.722656 39.988281 66.683594 41.261719 66.683594 L 43.574219 66.683594 C 44.847656 66.683594 45.882812 67.722656 45.882812 68.996094 Z M 36.640625 62.0625 C 36.640625 63.335938 35.601562 64.371094 34.328125 64.371094 L 32.019531 64.371094 C 30.746094 64.371094 29.707031 63.335938 29.707031 62.0625 L 29.707031 59.75 C 29.707031 58.476562 30.746094 57.441406 32.019531 57.441406 L 34.328125 57.441406 C 35.601562 57.441406 36.640625 58.476562 36.640625 59.75 Z M 36.640625 71.304688 C 36.640625 72.578125 35.601562 73.617188 34.328125 73.617188 L 32.019531 73.617188 C 30.746094 73.617188 29.707031 72.578125 29.707031 71.304688 L 29.707031 68.996094 C 29.707031 67.722656 30.746094 66.683594 32.019531 66.683594 L 34.328125 66.683594 C 35.601562 66.683594 36.640625 67.722656 36.640625 68.996094 Z M 36.640625 80.550781 C 36.640625 81.820312 35.601562 82.859375 34.328125 82.859375 L 32.019531 82.859375 C 30.746094 82.859375 29.707031 81.820312 29.707031 80.550781 L 29.707031 78.238281 C 29.707031 76.964844 30.746094 75.925781 32.019531 75.925781 L 34.328125 75.925781 C 35.601562 75.925781 36.640625 76.964844 36.640625 78.238281 Z M 27.398438 62.0625 C 27.398438 63.335938 26.359375 64.371094 25.085938 64.371094 L 22.773438 64.371094 C 21.503906 64.371094 20.464844 63.335938 20.464844 62.0625 L 20.464844 59.75 C 20.464844 58.476562 21.503906 57.441406 22.773438 57.441406 L 25.085938 57.441406 C 26.359375 57.441406 27.398438 58.476562 27.398438 59.75 Z M 27.398438 71.304688 C 27.398438 72.578125 26.359375 73.617188 25.085938 73.617188 L 22.773438 73.617188 C 21.503906 73.617188 20.464844 72.578125 20.464844 71.304688 L 20.464844 68.996094 C 20.464844 67.722656 21.503906 66.683594 22.773438 66.683594 L 25.085938 66.683594 C 26.359375 66.683594 27.398438 67.722656 27.398438 68.996094 Z M 27.398438 80.550781 C 27.398438 81.820312 26.359375 82.859375 25.085938 82.859375 L 22.773438 82.859375 C 21.503906 82.859375 20.464844 81.820312 20.464844 80.550781 L 20.464844 78.238281 C 20.464844 76.964844 21.503906 75.925781 22.773438 75.925781 L 25.085938 75.925781 C 26.359375 75.925781 27.398438 76.964844 27.398438 78.238281 Z M 44.730469 38.953125 L 42.109375 38.953125 C 42.304688 39.691406 42.417969 40.464844 42.417969 41.261719 C 42.417969 42.0625 42.304688 42.832031 42.109375 43.574219 L 43.574219 43.574219 C 44.847656 43.574219 45.882812 44.613281 45.882812 45.882812 L 45.882812 52.816406 C 45.882812 54.089844 44.847656 55.128906 43.574219 55.128906 L 22.773438 55.128906 C 21.503906 55.128906 20.464844 54.089844 20.464844 52.816406 L 20.464844 45.882812 C 20.464844 44.613281 21.503906 43.574219 22.773438 43.574219 L 24.234375 43.574219 C 24.042969 42.832031 23.929688 42.0625 23.929688 41.261719 C 23.929688 40.464844 24.042969 39.691406 24.234375 38.953125 L 21.621094 38.953125 C 19.707031 38.953125 18.152344 40.503906 18.152344 42.417969 L 18.152344 81.703125 C 18.152344 83.617188 19.707031 85.171875 21.621094 85.171875 L 44.730469 85.171875 C 46.644531 85.171875 48.195312 83.617188 48.195312 81.703125 L 48.195312 42.417969 C 48.195312 40.503906 46.644531 38.953125 44.730469 38.953125 " fill-opacity="1" fill-rule="nonzero"/></g><g clip-path="url(#c816aafb5b)"><path fill="#000000" d="M 75.925781 22.773438 L 75.925781 23.929688 C 75.925781 25.84375 74.375 27.398438 72.460938 27.398438 C 70.546875 27.398438 68.996094 25.84375 68.996094 23.929688 L 68.996094 22.773438 L 66.683594 22.773438 L 66.683594 23.929688 C 66.683594 25.84375 65.128906 27.398438 63.21875 27.398438 C 61.304688 27.398438 59.75 25.84375 59.75 23.929688 L 59.75 22.773438 L 57.441406 22.773438 L 57.441406 23.929688 C 57.441406 25.84375 55.886719 27.398438 53.972656 27.398438 C 52.058594 27.398438 50.507812 25.84375 50.507812 23.929688 L 50.507812 22.773438 L 41.261719 22.773438 L 41.261719 29.707031 L 85.171875 29.707031 L 85.171875 22.773438 L 75.925781 22.773438 " fill-opacity="1" fill-rule="nonzero"/></g><path fill="#000000" d="M 41.261719 68.996094 L 41.261719 80.550781 L 43.574219 80.550781 L 43.574219 68.996094 L 41.261719 68.996094 " fill-opacity="1" fill-rule="nonzero"/></svg>