<svg xmlns="http://www.w3.org/2000/svg" xmlns:xlink="http://www.w3.org/1999/xlink" width="139" zoomAndPan="magnify" viewBox="0 0 104.25 104.249996" height="139" preserveAspectRatio="xMidYMid meet" version="1.0"><defs><clipPath id="20f46bf3fc"><path d="M 0 0 L 103.503906 0 L 103.503906 103.503906 L 0 103.503906 Z M 0 0 " clip-rule="nonzero"/></clipPath><clipPath id="cc7b73adbe"><path d="M 18.273438 18.273438 L 85.289062 18.273438 L 85.289062 85.289062 L 18.273438 85.289062 Z M 18.273438 18.273438 " clip-rule="nonzero"/></clipPath></defs><g clip-path="url(#20f46bf3fc)"><path fill="#ffffff" d="M 0 0 L 103.503906 0 L 103.503906 103.503906 L 0 103.503906 Z M 0 0 " fill-opacity="1" fill-rule="nonzero"/><path fill="#f4f6fc" d="M 0 0 L 103.503906 0 L 103.503906 103.503906 L 0 103.503906 Z M 0 0 " fill-opacity="1" fill-rule="nonzero"/></g><g clip-path="url(#cc7b73adbe)"><path fill="#040606" d="M 59.925781 59.972656 C 58.164062 59.371094 56.34375 59.003906 54.480469 58.867188 L 54.480469 65.3125 C 55.578125 64.507812 57.921875 62.519531 59.925781 59.972656 Z M 54.480469 55.417969 C 57.066406 55.589844 59.550781 56.136719 61.871094 57.011719 C 62.355469 56.152344 65.148438 50.710938 65.179688 45.707031 L 54.480469 45.707031 Z M 54.480469 42.640625 L 65.179688 42.640625 C 64.949219 37.144531 62.355469 32.195312 61.871094 31.335938 C 59.550781 32.210938 57.070312 32.761719 54.480469 32.933594 Z M 54.480469 29.480469 C 56.34375 29.34375 58.164062 28.976562 59.925781 28.378906 C 58.503906 26.261719 55.578125 23.839844 54.480469 23.042969 Z M 59.808594 23.054688 C 61.039062 24.261719 62.167969 25.578125 63.175781 26.988281 C 63.890625 26.613281 64.578125 26.195312 65.246094 25.75 C 63.578125 24.621094 61.753906 23.703125 59.808594 23.054688 Z M 68.035156 28 C 67.078125 28.703125 66.066406 29.339844 65.011719 29.910156 C 67.113281 33.71875 68.398438 38.042969 68.625 42.648438 L 74.929688 42.648438 C 74.550781 36.882812 71.972656 31.730469 68.035156 28 Z M 51.039062 23.039062 C 49.949219 23.835938 47.605469 25.828125 45.597656 28.378906 C 47.355469 28.976562 49.179688 29.34375 51.039062 29.480469 Z M 51.039062 32.933594 C 48.457031 32.765625 45.972656 32.210938 43.652344 31.335938 C 43.171875 32.195312 40.375 37.644531 40.347656 42.640625 L 51.039062 42.640625 Z M 51.039062 45.707031 L 40.347656 45.707031 C 40.578125 51.203125 43.171875 56.160156 43.648438 57.011719 C 45.972656 56.136719 48.457031 55.589844 51.042969 55.417969 L 51.042969 45.707031 Z M 51.039062 58.867188 C 49.179688 59.003906 47.355469 59.371094 45.597656 59.972656 C 47.015625 62.09375 49.949219 64.507812 51.039062 65.3125 Z M 45.71875 65.292969 C 44.488281 64.085938 43.351562 62.769531 42.34375 61.359375 C 41.636719 61.734375 40.945312 62.152344 40.28125 62.597656 C 41.941406 63.726562 43.765625 64.644531 45.71875 65.292969 Z M 40.507812 29.910156 C 39.453125 29.339844 38.449219 28.703125 37.484375 28 C 33.546875 31.730469 30.976562 36.890625 30.59375 42.640625 L 36.902344 42.640625 C 37.121094 38.042969 38.410156 33.71875 40.507812 29.910156 Z M 40.28125 25.75 C 40.945312 26.195312 41.636719 26.613281 42.351562 26.988281 C 43.355469 25.578125 44.488281 24.261719 45.71875 23.054688 C 43.765625 23.703125 41.945312 24.621094 40.28125 25.75 Z M 66.613281 66.054688 C 62.621094 68.59375 57.886719 70.070312 52.796875 70.078125 C 47.183594 70.089844 41.988281 68.292969 37.738281 65.246094 C 39.007812 63.769531 39.347656 62.109375 39.347656 62.109375 C 39.347656 62.109375 37.527344 61.390625 37.449219 61.34375 C 37.460938 61.265625 37.566406 60.769531 37.652344 60.234375 C 38.5625 59.582031 39.511719 58.980469 40.507812 58.4375 C 38.40625 54.632812 37.125 50.304688 36.902344 45.707031 L 30.589844 45.707031 C 30.71875 47.597656 31.082031 49.429688 31.652344 51.164062 C 31.277344 51.101562 30.886719 51.0625 30.476562 51.050781 L 30.386719 51.050781 C 29.488281 51.074219 28.679688 51.226562 27.953125 51.472656 C 27.273438 49.15625 26.90625 46.707031 26.898438 44.175781 C 26.875 29.890625 38.441406 18.296875 52.722656 18.273438 C 67.007812 18.25 78.601562 29.890625 78.621094 44.175781 C 78.625 47.027344 78.167969 49.769531 77.316406 52.339844 C 76.394531 51.6875 75.257812 51.246094 73.890625 51.097656 C 74.449219 49.382812 74.804688 47.574219 74.929688 45.707031 L 68.625 45.707031 C 68.398438 50.304688 67.113281 54.632812 65.011719 58.4375 C 65.28125 58.582031 65.535156 58.730469 65.792969 58.878906 C 65.757812 59.671875 66.097656 61.21875 66.113281 61.34375 C 66.046875 61.378906 64.835938 61.859375 64.375 62.042969 C 63.984375 61.804688 63.585938 61.574219 63.175781 61.359375 C 62.167969 62.769531 61.039062 64.085938 59.808594 65.292969 C 61.445312 64.746094 62.996094 64.007812 64.441406 63.117188 C 64.722656 63.925781 65.324219 65.085938 66.613281 66.054688 Z M 84.820312 77.164062 C 84.820312 77.164062 83.070312 69.292969 77.039062 67.578125 L 77.757812 70.230469 L 75.164062 70.191406 L 73.085938 72.6875 L 71.09375 70.191406 L 68.5 70.230469 L 69.21875 67.578125 C 63.1875 69.292969 61.4375 77.164062 61.4375 77.164062 C 61.355469 77.679688 61.183594 78.910156 60.96875 80.417969 C 62.15625 81.558594 63.507812 82.523438 64.976562 83.289062 C 65.101562 82.441406 65.234375 81.578125 65.363281 80.75 C 66.042969 76.496094 66.804688 75.640625 66.988281 75.199219 C 66.875 75.507812 66.472656 78.132812 67.433594 79.910156 C 68.214844 81.355469 67.523438 82.160156 66.714844 84.082031 C 68.703125 84.863281 70.867188 85.289062 73.128906 85.289062 C 75.390625 85.289062 77.554688 84.863281 79.542969 84.082031 C 78.734375 82.160156 78.042969 81.355469 78.824219 79.910156 C 79.785156 78.132812 79.382812 75.507812 79.269531 75.199219 C 79.453125 75.640625 80.214844 76.496094 80.894531 80.75 C 81.023438 81.578125 81.15625 82.441406 81.28125 83.289062 C 82.75 82.523438 84.101562 81.558594 85.289062 80.417969 C 85.074219 78.90625 84.902344 77.679688 84.820312 77.164062 Z M 73.128906 52.683594 C 68.796875 52.804688 67.40625 56.304688 67.445312 59.222656 C 67.398438 60.878906 68.71875 62.121094 66.292969 63.0625 C 66.292969 63.0625 67.226562 65.597656 70.183594 65.597656 L 70.183594 67.171875 L 73.175781 70.339844 L 76.140625 67.171875 L 76.140625 65.578125 C 79.054688 65.578125 79.964844 63.0625 79.964844 63.0625 C 77.539062 62.121094 78.859375 60.878906 78.8125 59.222656 C 78.851562 56.304688 77.460938 52.804688 73.128906 52.683594 Z M 27.488281 65.601562 L 27.488281 67.171875 L 30.476562 70.339844 L 33.4375 67.171875 L 33.4375 65.578125 C 36.351562 65.578125 37.265625 63.0625 37.265625 63.0625 C 34.84375 62.121094 36.164062 60.878906 36.117188 59.222656 C 36.15625 56.304688 34.757812 52.804688 30.425781 52.683594 C 26.097656 52.804688 24.703125 56.304688 24.746094 59.222656 C 24.699219 60.878906 26.019531 62.121094 23.597656 63.0625 C 23.597656 63.0625 24.53125 65.601562 27.488281 65.601562 Z M 42.117188 77.164062 C 42.203125 77.679688 42.378906 78.910156 42.589844 80.417969 C 41.398438 81.558594 40.054688 82.53125 38.585938 83.289062 C 38.460938 82.441406 38.328125 81.578125 38.199219 80.75 C 37.519531 76.496094 36.757812 75.640625 36.574219 75.199219 C 36.6875 75.507812 37.085938 78.132812 36.128906 79.910156 C 35.347656 81.355469 36.039062 82.160156 36.847656 84.082031 C 34.859375 84.863281 32.695312 85.289062 30.433594 85.289062 C 28.167969 85.289062 26.007812 84.863281 24.019531 84.082031 C 24.824219 82.160156 25.519531 81.355469 24.738281 79.910156 C 23.777344 78.132812 24.179688 75.507812 24.292969 75.199219 C 24.109375 75.640625 23.347656 76.496094 22.667969 80.75 C 22.53125 81.578125 22.40625 82.441406 22.28125 83.289062 C 20.8125 82.53125 19.460938 81.558594 18.273438 80.417969 C 18.480469 78.90625 18.660156 77.679688 18.742188 77.164062 C 18.742188 77.164062 20.492188 69.292969 26.523438 67.578125 L 25.804688 70.230469 L 28.394531 70.191406 L 30.390625 72.6875 L 32.46875 70.191406 L 35.0625 70.230469 L 34.34375 67.578125 C 40.371094 69.292969 42.117188 77.164062 42.117188 77.164062 " fill-opacity="1" fill-rule="nonzero"/></g></svg>