<svg xmlns="http://www.w3.org/2000/svg" xmlns:xlink="http://www.w3.org/1999/xlink" width="139" zoomAndPan="magnify" viewBox="0 0 104.25 104.249996" height="139" preserveAspectRatio="xMidYMid meet" version="1.0"><defs><clipPath id="5724323ab7"><path d="M 0 0 L 103.503906 0 L 103.503906 103.503906 L 0 103.503906 Z M 0 0 " clip-rule="nonzero"/></clipPath><clipPath id="8a868cf26c"><path d="M 39 66 L 65 66 L 65 85.160156 L 39 85.160156 Z M 39 66 " clip-rule="nonzero"/></clipPath><clipPath id="930f94fc68"><path d="M 67 43 L 85.402344 43 L 85.402344 63 L 67 63 Z M 67 43 " clip-rule="nonzero"/></clipPath><clipPath id="f2fb4881df"><path d="M 57 18.140625 L 72 18.140625 L 72 32 L 57 32 Z M 57 18.140625 " clip-rule="nonzero"/></clipPath><clipPath id="cdfe5eaeb7"><path d="M 18.386719 41 L 35 41 L 35 53 L 18.386719 53 Z M 18.386719 41 " clip-rule="nonzero"/></clipPath><clipPath id="ce9bd35c6d"><path d="M 26 66 L 39 66 L 39 85.160156 L 26 85.160156 Z M 26 66 " clip-rule="nonzero"/></clipPath><clipPath id="2c491fd467"><path d="M 65 66 L 78 66 L 78 85.160156 L 65 85.160156 Z M 65 66 " clip-rule="nonzero"/></clipPath><clipPath id="8be9dc9dc3"><path d="M 45 18.140625 L 58 18.140625 L 58 20 L 45 20 Z M 45 18.140625 " clip-rule="nonzero"/></clipPath></defs><g clip-path="url(#5724323ab7)"><path fill="#ffffff" d="M 0 0 L 103.503906 0 L 103.503906 103.503906 L 0 103.503906 Z M 0 0 " fill-opacity="1" fill-rule="nonzero"/><path fill="#f4f6fc" d="M 0 0 L 103.503906 0 L 103.503906 103.503906 L 0 103.503906 Z M 0 0 " fill-opacity="1" fill-rule="nonzero"/></g><g clip-path="url(#8a868cf26c)"><path fill="#000000" d="M 56.894531 66.308594 L 55.078125 68.347656 C 54.972656 68.464844 54.820312 68.53125 54.664062 68.53125 C 54.644531 68.53125 54.625 68.53125 54.605469 68.527344 C 54.429688 68.511719 54.273438 68.40625 54.1875 68.253906 L 54.160156 68.207031 L 54.160156 76.820312 C 54.160156 77.121094 53.914062 77.367188 53.609375 77.367188 L 50.234375 77.367188 C 49.933594 77.367188 49.6875 77.121094 49.6875 76.820312 L 49.6875 68.207031 L 49.660156 68.253906 C 49.570312 68.40625 49.414062 68.507812 49.238281 68.527344 C 49.21875 68.53125 49.199219 68.53125 49.179688 68.53125 C 49.023438 68.53125 48.875 68.464844 48.769531 68.347656 L 46.953125 66.308594 C 44.691406 67.492188 41.65625 69.765625 39.277344 74.011719 L 39.277344 79.386719 C 39.800781 79.960938 40.457031 80.429688 41.25 80.789062 L 41.25 74.125 C 41.25 73.820312 41.496094 73.578125 41.800781 73.578125 C 42.101562 73.578125 42.347656 73.820312 42.347656 74.125 L 42.347656 85.097656 L 61.496094 85.097656 L 61.496094 74.125 C 61.496094 73.820312 61.742188 73.578125 62.046875 73.578125 C 62.351562 73.578125 62.597656 73.820312 62.597656 74.125 L 62.597656 80.789062 C 63.386719 80.429688 64.046875 79.960938 64.570312 79.386719 L 64.570312 74.011719 C 62.1875 69.765625 59.152344 67.492188 56.894531 66.308594 Z M 56.894531 66.308594 " fill-opacity="1" fill-rule="nonzero"/></g><path fill="#000000" d="M 47.34375 37.085938 C 47.617188 37.113281 47.832031 37.335938 47.84375 37.605469 C 47.84375 37.640625 48.054688 41.226562 51.175781 43.230469 C 53.230469 44.550781 54.898438 44.734375 56.367188 44.902344 C 57.273438 45.003906 58.125 45.097656 58.96875 45.433594 C 60.441406 46.023438 61.664062 47.191406 62.34375 47.949219 C 63.355469 45.292969 62.878906 41.339844 61.089844 38.339844 C 59.707031 36.019531 56.992188 33.25 51.921875 33.25 C 46.851562 33.25 44.140625 36.015625 42.757812 38.335938 C 40.96875 41.335938 40.488281 45.285156 41.5 47.945312 C 44.09375 44.796875 45.871094 41.292969 46.757812 37.507812 C 46.820312 37.242188 47.074219 37.066406 47.34375 37.085938 Z M 47.34375 37.085938 " fill-opacity="1" fill-rule="nonzero"/><g clip-path="url(#930f94fc68)"><path fill="#000000" d="M 84.597656 56.894531 C 83.726562 55.988281 82.402344 55.691406 81.222656 56.136719 C 81.015625 56.21875 80.78125 56.164062 80.628906 56.003906 L 73.339844 48.429688 C 73.183594 48.269531 73.144531 48.035156 73.230469 47.835938 C 73.734375 46.6875 73.5 45.359375 72.625 44.449219 C 72.21875 44.027344 71.714844 43.738281 71.171875 43.59375 C 71.984375 44.660156 71.882812 46.1875 70.886719 47.132812 C 69.886719 48.078125 68.347656 48.113281 67.3125 47.257812 C 67.429688 47.804688 67.699219 48.316406 68.105469 48.738281 C 68.976562 49.644531 70.304688 49.941406 71.484375 49.492188 C 71.546875 49.46875 71.613281 49.457031 71.679688 49.457031 C 71.828125 49.457031 71.972656 49.515625 72.078125 49.625 L 79.367188 57.203125 C 79.519531 57.363281 79.5625 57.59375 79.472656 57.796875 C 78.96875 58.945312 79.207031 60.273438 80.078125 61.179688 C 80.484375 61.601562 80.988281 61.894531 81.53125 62.035156 C 81.164062 61.558594 80.976562 60.976562 80.988281 60.367188 C 81.003906 59.652344 81.300781 58.988281 81.820312 58.496094 C 82.339844 58.003906 83.019531 57.742188 83.738281 57.761719 C 84.351562 57.773438 84.929688 57.988281 85.394531 58.375 C 85.273438 57.828125 85.003906 57.316406 84.597656 56.894531 Z M 84.597656 56.894531 " fill-opacity="1" fill-rule="nonzero"/></g><path fill="#000000" d="M 39.273438 82.039062 C 39.789062 82.585938 40.417969 82.945312 41.25 83.15625 L 41.25 81.960938 C 40.503906 81.675781 39.84375 81.308594 39.273438 80.863281 Z M 39.273438 82.039062 " fill-opacity="1" fill-rule="nonzero"/><path fill="#000000" d="M 63.652344 52.65625 C 64.082031 51.496094 63.761719 50.269531 62.945312 49.738281 C 62.742188 51.445312 62.441406 52.988281 62.0625 54.277344 C 62.738281 54.070312 63.351562 53.46875 63.652344 52.65625 Z M 63.652344 52.65625 " fill-opacity="1" fill-rule="nonzero"/><path fill="#000000" d="M 51.921875 61.191406 C 55.707031 61.191406 58.917969 58.210938 60.050781 56.332031 C 60.890625 54.945312 61.582031 52.261719 61.910156 49.128906 C 61.511719 48.632812 60.175781 47.09375 58.558594 46.445312 C 57.855469 46.167969 57.109375 46.082031 56.242188 45.984375 C 54.734375 45.816406 52.851562 45.605469 50.582031 44.144531 C 48.675781 42.925781 47.71875 41.234375 47.234375 39.882812 C 46.140625 43.222656 44.363281 46.324219 41.9375 49.140625 C 42.265625 52.269531 42.957031 54.945312 43.792969 56.332031 C 44.925781 58.210938 48.140625 61.191406 51.921875 61.191406 Z M 55.46875 47.703125 C 55.507812 47.683594 55.546875 47.675781 55.585938 47.667969 C 55.585938 47.667969 55.589844 47.664062 55.59375 47.664062 C 55.632812 47.65625 55.667969 47.640625 55.710938 47.640625 C 55.832031 47.640625 56.0625 47.613281 56.199219 47.433594 C 56.386719 47.195312 56.730469 47.152344 56.972656 47.335938 C 57.210938 47.519531 57.257812 47.859375 57.074219 48.101562 C 57.0625 48.113281 57.050781 48.117188 57.042969 48.128906 C 57.082031 48.117188 57.121094 48.109375 57.160156 48.09375 C 57.4375 47.972656 57.761719 48.101562 57.882812 48.378906 C 58 48.65625 57.871094 48.976562 57.59375 49.09375 C 57.28125 49.226562 56.929688 49.28125 56.597656 49.28125 C 56.554688 49.28125 56.515625 49.277344 56.472656 49.273438 C 56.296875 49.453125 56.054688 49.5625 55.785156 49.5625 C 55.25 49.5625 54.816406 49.132812 54.816406 48.605469 C 54.816406 48.183594 55.089844 47.832031 55.46875 47.703125 Z M 49.402344 51.316406 C 49.558594 50.769531 50.070312 50.386719 50.644531 50.386719 C 50.761719 50.386719 50.882812 50.402344 50.996094 50.433594 C 51.304688 50.523438 51.621094 50.566406 51.933594 50.566406 C 52.246094 50.566406 52.558594 50.523438 52.871094 50.433594 C 52.984375 50.402344 53.105469 50.386719 53.222656 50.386719 C 53.800781 50.386719 54.308594 50.769531 54.464844 51.320312 C 54.660156 52 54.257812 52.707031 53.574219 52.898438 C 53.03125 53.050781 52.480469 53.128906 51.933594 53.128906 C 51.386719 53.128906 50.832031 53.050781 50.292969 52.898438 C 49.609375 52.707031 49.207031 51.996094 49.402344 51.316406 Z M 48.0625 49.5625 C 47.789062 49.5625 47.542969 49.449219 47.367188 49.269531 C 47.324219 49.273438 47.28125 49.277344 47.234375 49.277344 C 46.894531 49.277344 46.542969 49.222656 46.246094 49.09375 C 45.96875 48.96875 45.84375 48.644531 45.96875 48.371094 C 46.089844 48.097656 46.414062 47.972656 46.691406 48.09375 C 46.726562 48.109375 46.765625 48.121094 46.804688 48.132812 C 46.792969 48.121094 46.78125 48.113281 46.773438 48.101562 C 46.585938 47.859375 46.632812 47.519531 46.875 47.335938 C 47.113281 47.152344 47.460938 47.195312 47.644531 47.433594 C 47.78125 47.613281 48.011719 47.640625 48.132812 47.640625 C 48.175781 47.640625 48.214844 47.65625 48.253906 47.664062 C 48.253906 47.667969 48.257812 47.667969 48.257812 47.667969 C 48.300781 47.675781 48.339844 47.683594 48.375 47.703125 C 48.753906 47.832031 49.027344 48.183594 49.027344 48.605469 C 49.027344 49.136719 48.59375 49.5625 48.0625 49.5625 Z M 45.894531 44.632812 C 47.007812 43.851562 48.511719 44.101562 48.574219 44.113281 C 48.875 44.164062 49.074219 44.449219 49.023438 44.746094 C 48.96875 45.039062 48.691406 45.238281 48.386719 45.1875 C 48.375 45.1875 47.265625 45.007812 46.527344 45.523438 C 46.433594 45.589844 46.320312 45.625 46.210938 45.625 C 46.039062 45.625 45.871094 45.542969 45.761719 45.390625 C 45.589844 45.144531 45.648438 44.804688 45.894531 44.632812 Z M 45.894531 44.632812 " fill-opacity="1" fill-rule="nonzero"/><path fill="#000000" d="M 40.191406 52.65625 C 40.492188 53.46875 41.105469 54.070312 41.78125 54.277344 C 41.402344 52.988281 41.101562 51.445312 40.898438 49.738281 C 40.082031 50.269531 39.761719 51.496094 40.191406 52.65625 Z M 40.191406 52.65625 " fill-opacity="1" fill-rule="nonzero"/><path fill="#000000" d="M 36.191406 29.152344 C 37.144531 30.578125 38.761719 31.460938 40.496094 31.460938 C 43.34375 31.460938 45.660156 29.164062 45.660156 26.335938 C 45.660156 23.507812 43.34375 21.210938 40.496094 21.210938 C 38.761719 21.210938 37.144531 22.09375 36.191406 23.519531 C 36.628906 24.367188 36.878906 25.320312 36.878906 26.335938 C 36.878906 27.351562 36.628906 28.304688 36.191406 29.152344 Z M 41.296875 24.097656 C 41.296875 23.792969 41.542969 23.550781 41.84375 23.550781 C 42.148438 23.550781 42.394531 23.792969 42.394531 24.097656 L 42.394531 25.476562 C 42.394531 25.777344 42.148438 26.023438 41.84375 26.023438 C 41.542969 26.023438 41.296875 25.777344 41.296875 25.476562 Z M 38.597656 24.097656 C 38.597656 23.792969 38.84375 23.550781 39.148438 23.550781 C 39.449219 23.550781 39.695312 23.792969 39.695312 24.097656 L 39.695312 25.476562 C 39.695312 25.777344 39.449219 26.023438 39.148438 26.023438 C 38.84375 26.023438 38.597656 25.777344 38.597656 25.476562 Z M 37.238281 28.003906 C 37.273438 27.9375 38.175781 26.433594 40.496094 26.433594 C 42.8125 26.433594 43.71875 27.9375 43.753906 28.003906 C 43.90625 28.261719 43.816406 28.597656 43.554688 28.746094 C 43.46875 28.796875 43.371094 28.820312 43.277344 28.820312 C 43.089844 28.820312 42.902344 28.722656 42.800781 28.546875 C 42.78125 28.511719 42.15625 27.523438 40.496094 27.523438 C 38.835938 27.523438 38.210938 28.511719 38.183594 28.554688 C 38.027344 28.808594 37.691406 28.894531 37.433594 28.742188 C 37.175781 28.589844 37.085938 28.261719 37.238281 28.003906 Z M 37.238281 28.003906 " fill-opacity="1" fill-rule="nonzero"/><g clip-path="url(#f2fb4881df)"><path fill="#000000" d="M 60.722656 27.230469 C 60.535156 27.027344 60.277344 26.925781 60.019531 26.925781 C 59.785156 26.925781 59.550781 27.011719 59.367188 27.179688 L 58.277344 28.1875 C 58.089844 28.359375 57.980469 28.59375 57.972656 28.847656 C 57.960938 29.101562 58.054688 29.34375 58.226562 29.53125 L 59.257812 30.632812 C 59.742188 31.148438 60.414062 31.425781 61.109375 31.398438 C 62.476562 31.335938 64.71875 30.699219 67.628906 28.011719 C 70.542969 25.328125 71.347656 23.160156 71.511719 21.808594 C 71.59375 21.125 71.363281 20.433594 70.878906 19.917969 L 69.851562 18.816406 C 69.675781 18.628906 69.4375 18.523438 69.183594 18.511719 C 68.929688 18.503906 68.679688 18.59375 68.492188 18.765625 L 67.402344 19.773438 C 67.015625 20.128906 66.992188 20.734375 67.351562 21.117188 C 67.957031 21.765625 68.097656 22.695312 67.707031 23.488281 C 67.367188 24.1875 66.761719 25.203125 65.816406 26.074219 C 64.871094 26.945312 63.804688 27.46875 63.078125 27.757812 C 62.253906 28.082031 61.328125 27.875 60.722656 27.230469 Z M 60.722656 27.230469 " fill-opacity="1" fill-rule="nonzero"/></g><g clip-path="url(#cdfe5eaeb7)"><path fill="#000000" d="M 32.351562 51.085938 C 32.210938 50.984375 32.128906 50.820312 32.128906 50.648438 L 32.128906 43.945312 C 32.128906 42.796875 31.1875 41.863281 30.03125 41.863281 L 20.484375 41.863281 C 19.328125 41.863281 18.386719 42.796875 18.386719 43.945312 L 18.386719 50.5 C 18.386719 51.648438 19.328125 52.582031 20.484375 52.582031 L 34.355469 52.582031 C 33.734375 52.117188 32.988281 51.5625 32.351562 51.085938 Z M 19.765625 44.296875 L 24.902344 44.296875 C 25.207031 44.296875 25.453125 44.542969 25.453125 44.84375 C 25.453125 45.144531 25.207031 45.390625 24.902344 45.390625 L 19.765625 45.390625 C 19.460938 45.390625 19.214844 45.144531 19.214844 44.84375 C 19.214844 44.542969 19.460938 44.296875 19.765625 44.296875 Z M 30.480469 48.3125 L 19.765625 48.3125 C 19.460938 48.3125 19.214844 48.070312 19.214844 47.769531 C 19.214844 47.464844 19.460938 47.222656 19.765625 47.222656 L 30.484375 47.222656 C 30.785156 47.222656 31.03125 47.464844 31.03125 47.769531 C 31.03125 48.070312 30.785156 48.3125 30.480469 48.3125 Z M 30.480469 48.3125 " fill-opacity="1" fill-rule="nonzero"/></g><path fill="#000000" d="M 30.617188 31.460938 C 33.464844 31.460938 35.78125 29.164062 35.78125 26.335938 C 35.78125 23.507812 33.464844 21.210938 30.617188 21.210938 C 27.769531 21.210938 25.453125 23.507812 25.453125 26.335938 C 25.453125 29.164062 27.769531 31.460938 30.617188 31.460938 Z M 31.414062 24.097656 C 31.414062 23.792969 31.660156 23.550781 31.964844 23.550781 C 32.269531 23.550781 32.515625 23.792969 32.515625 24.097656 L 32.515625 25.476562 C 32.515625 25.777344 32.269531 26.023438 31.964844 26.023438 C 31.660156 26.023438 31.414062 25.777344 31.414062 25.476562 Z M 28.71875 24.097656 C 28.71875 23.792969 28.964844 23.550781 29.265625 23.550781 C 29.570312 23.550781 29.816406 23.792969 29.816406 24.097656 L 29.816406 25.476562 C 29.816406 25.777344 29.570312 26.023438 29.265625 26.023438 C 28.964844 26.023438 28.71875 25.777344 28.71875 25.476562 Z M 27.558594 26.640625 C 27.820312 26.488281 28.15625 26.578125 28.308594 26.839844 C 28.332031 26.875 28.957031 27.863281 30.617188 27.863281 C 32.277344 27.863281 32.902344 26.875 32.925781 26.835938 C 33.082031 26.578125 33.417969 26.492188 33.679688 26.644531 C 33.9375 26.796875 34.027344 27.125 33.875 27.386719 C 33.835938 27.449219 32.933594 28.957031 30.617188 28.957031 C 28.296875 28.957031 27.394531 27.449219 27.355469 27.386719 C 27.207031 27.125 27.296875 26.789062 27.558594 26.640625 Z M 27.558594 26.640625 " fill-opacity="1" fill-rule="nonzero"/><g clip-path="url(#ce9bd35c6d)"><path fill="#000000" d="M 35.984375 68.113281 L 31.003906 66.640625 C 30.855469 66.59375 30.699219 66.613281 30.566406 66.683594 C 30.429688 66.757812 30.332031 66.878906 30.289062 67.027344 C 30.207031 67.308594 30.359375 67.613281 30.636719 67.71875 L 33.761719 68.902344 C 34.046875 69.007812 34.191406 69.324219 34.082031 69.605469 C 33.972656 69.886719 33.65625 70.027344 33.371094 69.921875 L 30.246094 68.738281 C 29.613281 68.5 29.203125 67.90625 29.167969 67.265625 L 27.617188 66.800781 C 27.164062 66.664062 26.683594 66.90625 26.527344 67.355469 C 26.382812 67.777344 26.578125 68.238281 26.984375 68.429688 L 30.863281 70.257812 C 32.128906 70.855469 32.949219 72.140625 32.949219 73.53125 L 32.949219 85.097656 L 38.175781 85.097656 L 38.175781 71.03125 C 38.175781 69.695312 37.273438 68.496094 35.984375 68.113281 Z M 35.984375 68.113281 " fill-opacity="1" fill-rule="nonzero"/></g><path fill="#000000" d="M 62.597656 83.15625 C 63.425781 82.945312 64.054688 82.585938 64.570312 82.039062 L 64.570312 80.863281 C 64 81.308594 63.339844 81.675781 62.597656 81.960938 Z M 62.597656 83.15625 " fill-opacity="1" fill-rule="nonzero"/><path fill="#000000" d="M 51.234375 65.488281 L 50.785156 66.277344 L 50.785156 76.273438 L 53.058594 76.273438 L 53.058594 66.277344 L 52.609375 65.488281 Z M 51.921875 73.800781 C 51.617188 73.800781 51.371094 73.554688 51.371094 73.253906 C 51.371094 72.953125 51.617188 72.707031 51.921875 72.707031 C 52.226562 72.707031 52.472656 72.953125 52.472656 73.253906 C 52.472656 73.554688 52.226562 73.800781 51.921875 73.800781 Z M 51.921875 68.703125 C 51.617188 68.703125 51.371094 68.457031 51.371094 68.15625 C 51.371094 67.855469 51.617188 67.609375 51.921875 67.609375 C 52.226562 67.609375 52.472656 67.855469 52.472656 68.15625 C 52.472656 68.457031 52.226562 68.703125 51.921875 68.703125 Z M 51.921875 68.703125 " fill-opacity="1" fill-rule="nonzero"/><path fill="#000000" d="M 47.664062 65.460938 L 49.082031 67.050781 L 50.253906 64.996094 L 49.160156 63.65625 C 48.316406 64.007812 47.832031 64.589844 47.664062 65.460938 Z M 47.664062 65.460938 " fill-opacity="1" fill-rule="nonzero"/><path fill="#000000" d="M 56.183594 65.460938 C 56.011719 64.589844 55.527344 64.007812 54.683594 63.65625 L 53.59375 64.996094 L 54.761719 67.050781 Z M 56.183594 65.460938 " fill-opacity="1" fill-rule="nonzero"/><path fill="#000000" d="M 57.296875 63.671875 C 59.613281 63.671875 61.496094 61.800781 61.496094 59.5 C 61.496094 58.671875 61.25 57.875 60.796875 57.199219 C 59.773438 58.714844 57.675781 60.714844 55.050781 61.691406 L 55.050781 62.636719 C 55.625 62.867188 56.09375 63.179688 56.453125 63.578125 C 56.730469 63.636719 57.011719 63.671875 57.296875 63.671875 Z M 57.296875 63.671875 " fill-opacity="1" fill-rule="nonzero"/><path fill="#000000" d="M 67.546875 67.070312 L 70.78125 66.109375 C 73.535156 63.320312 75.648438 59.910156 76.914062 56.230469 L 71.523438 50.628906 C 70.019531 51.054688 68.402344 50.625 67.308594 49.492188 C 66.203125 48.339844 65.851562 46.691406 66.390625 45.1875 C 66.476562 44.941406 66.722656 44.792969 66.980469 44.828125 C 67.238281 44.863281 67.433594 45.070312 67.457031 45.328125 C 67.476562 45.585938 67.566406 45.964844 67.878906 46.292969 C 68.484375 46.921875 69.492188 46.945312 70.125 46.34375 C 70.757812 45.742188 70.78125 44.742188 70.175781 44.117188 C 69.863281 43.789062 69.484375 43.679688 69.222656 43.648438 C 68.964844 43.617188 68.765625 43.410156 68.742188 43.15625 C 68.722656 42.898438 68.882812 42.660156 69.128906 42.585938 C 70.667969 42.121094 72.3125 42.546875 73.421875 43.695312 C 74.511719 44.832031 74.867188 46.457031 74.371094 47.925781 L 78.023438 51.71875 C 78.222656 50.417969 78.324219 49.09375 78.324219 47.765625 C 78.324219 40.148438 75.011719 32.96875 69.226562 27.980469 C 68.960938 28.253906 68.683594 28.53125 68.378906 28.8125 C 65.222656 31.722656 62.710938 32.417969 61.160156 32.488281 C 61.109375 32.488281 61.058594 32.488281 61.003906 32.488281 C 60.042969 32.488281 59.117188 32.089844 58.449219 31.375 L 57.421875 30.273438 C 57.046875 29.875 56.851562 29.351562 56.871094 28.808594 C 56.890625 28.261719 57.125 27.753906 57.527344 27.382812 L 58.617188 26.378906 C 59.449219 25.613281 60.757812 25.660156 61.527344 26.488281 C 61.820312 26.800781 62.269531 26.898438 62.671875 26.742188 C 63.3125 26.488281 64.246094 26.027344 65.066406 25.273438 C 65.121094 25.222656 65.164062 25.167969 65.214844 25.117188 C 61.195312 22.789062 56.613281 21.554688 51.921875 21.554688 C 49.683594 21.554688 47.46875 21.832031 45.324219 22.378906 C 46.21875 23.457031 46.757812 24.835938 46.757812 26.335938 C 46.757812 29.765625 43.949219 32.554688 40.496094 32.554688 C 38.554688 32.554688 36.730469 31.648438 35.550781 30.152344 C 34.402344 31.609375 32.621094 32.554688 30.617188 32.554688 C 30.554688 32.554688 30.492188 32.546875 30.429688 32.542969 C 28.625 35.050781 27.296875 37.816406 26.476562 40.773438 L 30.03125 40.773438 C 31.796875 40.773438 33.230469 42.195312 33.230469 43.945312 L 33.230469 50.378906 C 34.609375 51.40625 36.328125 52.695312 36.328125 52.695312 C 36.519531 52.835938 36.59375 53.082031 36.519531 53.304688 C 36.445312 53.527344 36.234375 53.675781 36 53.675781 L 26.195312 53.675781 C 27.28125 58.363281 29.644531 62.648438 33.0625 66.109375 L 36.296875 67.070312 C 38.050781 67.589844 39.273438 69.21875 39.273438 71.035156 L 39.273438 71.910156 C 41.664062 68.335938 44.472656 66.347656 46.589844 65.265625 C 46.835938 64.007812 47.574219 63.128906 48.792969 62.636719 L 48.792969 61.691406 C 45.988281 60.648438 43.78125 58.4375 42.851562 56.894531 C 42.605469 56.492188 42.375 56 42.164062 55.4375 C 40.878906 55.382812 39.683594 54.453125 39.160156 53.035156 C 38.503906 51.265625 39.152344 49.351562 40.597656 48.652344 C 39.320312 45.6875 39.796875 41.15625 41.808594 37.78125 C 43.972656 34.15625 47.5625 32.15625 51.921875 32.15625 C 56.285156 32.15625 59.875 34.15625 62.039062 37.785156 C 64.046875 41.160156 64.523438 45.6875 63.246094 48.652344 C 64.695312 49.351562 65.339844 51.265625 64.683594 53.035156 C 64.160156 54.449219 62.964844 55.378906 61.679688 55.4375 C 61.585938 55.691406 61.484375 55.929688 61.378906 56.152344 C 62.164062 57.09375 62.59375 58.265625 62.59375 59.5 C 62.59375 62.402344 60.21875 64.761719 57.292969 64.761719 C 57.234375 64.761719 57.179688 64.753906 57.121094 64.753906 C 57.175781 64.914062 57.21875 65.085938 57.253906 65.265625 C 59.375 66.351562 62.179688 68.339844 64.570312 71.910156 L 64.570312 71.03125 C 64.570312 69.21875 65.792969 67.585938 67.546875 67.070312 Z M 70.089844 63.125 C 71.898438 61.015625 73.308594 58.636719 74.28125 56.050781 C 74.386719 55.769531 74.703125 55.625 74.988281 55.730469 C 75.273438 55.835938 75.417969 56.152344 75.3125 56.433594 C 74.292969 59.136719 72.820312 61.628906 70.925781 63.832031 C 70.816406 63.960938 70.660156 64.023438 70.503906 64.023438 C 70.378906 64.023438 70.253906 63.980469 70.148438 63.894531 C 69.917969 63.699219 69.890625 63.351562 70.089844 63.125 Z M 32.3125 34.273438 C 31.21875 35.835938 30.316406 37.527344 29.632812 39.300781 C 29.546875 39.519531 29.339844 39.652344 29.117188 39.652344 C 29.050781 39.652344 28.984375 39.640625 28.921875 39.617188 C 28.636719 39.507812 28.496094 39.195312 28.605469 38.914062 C 29.320312 37.054688 30.265625 35.285156 31.410156 33.648438 C 31.582031 33.402344 31.925781 33.339844 32.171875 33.511719 C 32.421875 33.683594 32.484375 34.023438 32.3125 34.273438 Z M 32.3125 34.273438 " fill-opacity="1" fill-rule="nonzero"/><g clip-path="url(#2c491fd467)"><path fill="#000000" d="M 76.226562 66.800781 L 74.675781 67.265625 C 74.640625 67.90625 74.230469 68.5 73.601562 68.738281 L 70.472656 69.921875 C 70.1875 70.027344 69.871094 69.886719 69.761719 69.605469 C 69.652344 69.324219 69.796875 69.007812 70.082031 68.898438 L 73.207031 67.71875 C 73.484375 67.613281 73.636719 67.308594 73.554688 67.027344 C 73.511719 66.878906 73.414062 66.757812 73.277344 66.683594 C 73.144531 66.609375 72.988281 66.59375 72.839844 66.640625 L 67.859375 68.113281 C 66.570312 68.496094 65.667969 69.695312 65.667969 71.03125 L 65.667969 85.097656 L 70.898438 85.097656 L 70.898438 73.53125 C 70.898438 72.140625 71.714844 70.855469 72.980469 70.257812 L 76.859375 68.429688 C 77.265625 68.238281 77.460938 67.777344 77.316406 67.351562 C 77.160156 66.90625 76.679688 66.664062 76.226562 66.800781 Z M 76.226562 66.800781 " fill-opacity="1" fill-rule="nonzero"/></g><path fill="#000000" d="M 53.953125 62.023438 C 53.296875 62.183594 52.621094 62.28125 51.921875 62.28125 C 51.222656 62.28125 50.546875 62.183594 49.890625 62.023438 L 49.890625 62.816406 L 51.175781 64.394531 L 52.667969 64.394531 L 53.953125 62.820312 Z M 53.953125 62.023438 " fill-opacity="1" fill-rule="nonzero"/><path fill="#000000" d="M 28.203125 65.0625 C 28.3125 65.0625 28.425781 65.03125 28.523438 64.960938 C 28.769531 64.785156 28.828125 64.445312 28.652344 64.199219 C 26.980469 61.875 25.679688 59.324219 24.785156 56.621094 C 24.691406 56.335938 24.382812 56.179688 24.09375 56.273438 C 23.804688 56.367188 23.648438 56.675781 23.742188 56.960938 C 24.671875 59.769531 26.023438 62.417969 27.757812 64.835938 C 27.863281 64.984375 28.03125 65.0625 28.203125 65.0625 Z M 28.203125 65.0625 " fill-opacity="1" fill-rule="nonzero"/><path fill="#000000" d="M 79.425781 40.117188 C 79.496094 40.359375 79.714844 40.515625 79.957031 40.515625 C 80.003906 40.515625 80.054688 40.511719 80.105469 40.496094 C 80.394531 40.414062 80.566406 40.113281 80.484375 39.824219 C 79.457031 36.175781 77.75 32.804688 75.410156 29.792969 C 75.226562 29.554688 74.878906 29.507812 74.640625 29.695312 C 74.398438 29.878906 74.355469 30.21875 74.539062 30.457031 C 76.792969 33.359375 78.4375 36.609375 79.425781 40.117188 Z M 79.425781 40.117188 " fill-opacity="1" fill-rule="nonzero"/><g clip-path="url(#8be9dc9dc3)"><path fill="#000000" d="M 46.527344 19.925781 C 50.058594 19.253906 53.785156 19.253906 57.316406 19.925781 C 57.351562 19.929688 57.386719 19.933594 57.421875 19.933594 C 57.679688 19.933594 57.910156 19.753906 57.960938 19.492188 C 58.019531 19.195312 57.824219 18.910156 57.523438 18.851562 C 53.855469 18.15625 49.988281 18.15625 46.320312 18.851562 C 46.023438 18.910156 45.828125 19.195312 45.886719 19.492188 C 45.945312 19.785156 46.230469 19.980469 46.527344 19.925781 Z M 46.527344 19.925781 " fill-opacity="1" fill-rule="nonzero"/></g></svg>