<svg xmlns="http://www.w3.org/2000/svg" xmlns:xlink="http://www.w3.org/1999/xlink" width="139" zoomAndPan="magnify" viewBox="0 0 104.25 104.249996" height="139" preserveAspectRatio="xMidYMid meet" version="1.0"><defs><clipPath id="903526db8c"><path d="M 0 0 L 103.503906 0 L 103.503906 103.503906 L 0 103.503906 Z M 0 0 " clip-rule="nonzero"/></clipPath><clipPath id="754fe9e803"><path d="M 18.140625 57 L 31 57 L 31 84.550781 L 18.140625 84.550781 Z M 18.140625 57 " clip-rule="nonzero"/></clipPath><clipPath id="dc683554b4"><path d="M 54 19.019531 L 63 19.019531 L 63 30 L 54 30 Z M 54 19.019531 " clip-rule="nonzero"/></clipPath></defs><g clip-path="url(#903526db8c)"><path fill="#ffffff" d="M 0 0 L 104.25 0 L 104.25 550.292969 L 0 550.292969 Z M 0 0 " fill-opacity="1" fill-rule="nonzero"/><path fill="#ffffff" d="M 0 0 L 103.503906 0 L 103.503906 103.503906 L 0 103.503906 Z M 0 0 " fill-opacity="1" fill-rule="nonzero"/><path fill="#f4f6fc" d="M 0 0 L 103.503906 0 L 103.503906 103.503906 L 0 103.503906 Z M 0 0 " fill-opacity="1" fill-rule="nonzero"/></g><g clip-path="url(#754fe9e803)"><path fill="#000000" d="M 18.140625 57.214844 L 30.851562 57.214844 L 30.851562 84.535156 L 18.140625 84.535156 Z M 18.140625 57.214844 " fill-opacity="1" fill-rule="evenodd"/></g><path fill="#000000" d="M 84.585938 58.664062 C 83.855469 57.785156 81.964844 57.707031 79.777344 59.269531 L 64.394531 70.316406 C 64.441406 70.777344 64.410156 71.273438 64.234375 71.765625 C 63.601562 73.632812 61.757812 74.140625 59.996094 74.140625 C 58.585938 74.140625 56.824219 73.839844 54.648438 73.199219 C 51.855469 72.386719 47.773438 72.417969 46.140625 72.46875 C 45.140625 72.5 45.09375 70.96875 46.09375 70.9375 C 48.203125 70.875 52.171875 70.890625 55.058594 71.71875 C 58.203125 72.628906 62.09375 73.296875 62.773438 71.257812 C 63.554688 68.976562 59.21875 66.378906 57.632812 65.742188 C 56.394531 65.246094 55.125 65.230469 53.773438 65.230469 C 51.378906 65.214844 48.648438 65.199219 45.726562 62.3125 C 43.632812 60.242188 40.933594 59.398438 38.328125 59.988281 C 37.457031 60.179688 36.757812 60.433594 36.058594 60.65625 C 35.011719 61.023438 33.917969 61.390625 32.363281 61.546875 L 32.363281 79.511719 C 35.410156 79.847656 46.171875 81.105469 50.710938 82.71875 C 52.347656 83.289062 55.789062 82.699219 59.933594 81.125 C 63.488281 79.769531 66.980469 77.886719 68.21875 76.675781 L 83.964844 61.292969 C 84.917969 60.386719 85.15625 59.347656 84.585938 58.664062 Z M 84.585938 58.664062 " fill-opacity="1" fill-rule="evenodd"/><path fill="#000000" d="M 53.1875 43.359375 L 53.1875 39.425781 C 53.1875 38.992188 53.519531 38.660156 53.949219 38.660156 C 54.378906 38.660156 54.710938 38.992188 54.710938 39.425781 L 54.710938 43.359375 L 62.554688 43.359375 L 62.554688 39.425781 C 62.554688 38.992188 62.886719 38.660156 63.316406 38.660156 C 63.742188 38.660156 64.078125 38.992188 64.078125 39.425781 L 64.078125 43.359375 L 67.808594 43.359375 L 67.808594 36.027344 C 67.808594 34.132812 66.265625 32.585938 64.378906 32.585938 L 52.886719 32.585938 C 50.996094 32.585938 49.457031 34.132812 49.457031 36.027344 L 49.457031 43.359375 Z M 53.1875 43.359375 " fill-opacity="1" fill-rule="evenodd"/><g clip-path="url(#dc683554b4)"><path fill="#000000" d="M 58.632812 29.460938 C 60.949219 29.460938 62.824219 26.351562 62.824219 23.785156 C 62.824219 20.519531 60.648438 19.035156 58.632812 19.035156 C 56.617188 19.035156 54.441406 20.519531 54.441406 23.785156 C 54.457031 26.351562 56.316406 29.460938 58.632812 29.460938 Z M 58.632812 29.460938 " fill-opacity="1" fill-rule="evenodd"/></g><path fill="#000000" d="M 75.488281 41.71875 C 77.441406 41.71875 79.011719 39.089844 79.011719 36.90625 C 79.011719 34.164062 77.1875 32.90625 75.503906 32.90625 C 73.808594 32.90625 71.980469 34.164062 71.980469 36.90625 C 71.980469 39.089844 73.554688 41.71875 75.488281 41.71875 Z M 75.488281 41.71875 " fill-opacity="1" fill-rule="evenodd"/><path fill="#000000" d="M 67.664062 53.53125 L 70.472656 53.53125 L 70.472656 50.007812 C 70.472656 49.578125 70.808594 49.242188 71.234375 49.242188 C 71.664062 49.242188 71.996094 49.578125 71.996094 50.007812 L 71.996094 53.53125 L 79.011719 53.53125 L 79.011719 50.007812 C 79.011719 49.578125 79.347656 49.242188 79.777344 49.242188 C 80.203125 49.242188 80.539062 49.59375 80.539062 50.007812 L 80.539062 53.53125 L 83.347656 53.53125 L 83.347656 47.296875 C 83.347656 45.71875 82.0625 44.429688 80.488281 44.429688 L 70.554688 44.429688 C 68.980469 44.429688 67.695312 45.71875 67.695312 47.296875 L 67.695312 53.53125 Z M 67.664062 53.53125 " fill-opacity="1" fill-rule="evenodd"/><path fill="#000000" d="M 41.773438 41.71875 C 43.726562 41.71875 45.296875 39.089844 45.296875 36.90625 C 45.296875 34.164062 43.472656 32.90625 41.789062 32.90625 C 40.089844 32.90625 38.265625 34.164062 38.265625 36.90625 C 38.265625 39.089844 39.835938 41.71875 41.773438 41.71875 Z M 41.773438 41.71875 " fill-opacity="1" fill-rule="evenodd"/><path fill="#000000" d="M 36.742188 50.007812 C 36.742188 49.578125 37.074219 49.242188 37.503906 49.242188 C 37.933594 49.242188 38.265625 49.578125 38.265625 50.007812 L 38.265625 53.53125 L 45.28125 53.53125 L 45.28125 50.007812 C 45.28125 49.578125 45.617188 49.242188 46.042969 49.242188 C 46.472656 49.242188 46.804688 49.59375 46.804688 50.007812 L 46.804688 53.53125 L 49.617188 53.53125 L 49.617188 47.296875 C 49.617188 45.71875 48.332031 44.429688 46.757812 44.429688 L 36.820312 44.429688 C 35.25 44.429688 33.964844 45.71875 33.964844 47.296875 L 33.964844 53.53125 L 36.773438 53.53125 Z M 36.742188 50.007812 " fill-opacity="1" fill-rule="evenodd"/></svg>