<svg xmlns="http://www.w3.org/2000/svg" xmlns:xlink="http://www.w3.org/1999/xlink" width="139" zoomAndPan="magnify" viewBox="0 0 104.25 104.249996" height="139" preserveAspectRatio="xMidYMid meet" version="1.0"><defs><clipPath id="9e30b2db85"><path d="M 0 0 L 103.503906 0 L 103.503906 103.503906 L 0 103.503906 Z M 0 0 " clip-rule="nonzero"/></clipPath><clipPath id="ce8370d17c"><path d="M 40 18.074219 L 63 18.074219 L 63 41 L 40 41 Z M 40 18.074219 " clip-rule="nonzero"/></clipPath><clipPath id="af50539d1d"><path d="M 64 41 L 85.089844 41 L 85.089844 62 L 64 62 Z M 64 41 " clip-rule="nonzero"/></clipPath><clipPath id="75e6a4a23a"><path d="M 18.074219 41 L 39 41 L 39 62 L 18.074219 62 Z M 18.074219 41 " clip-rule="nonzero"/></clipPath></defs><g clip-path="url(#9e30b2db85)"><path fill="#ffffff" d="M 0 0 L 103.503906 0 L 103.503906 103.503906 L 0 103.503906 Z M 0 0 " fill-opacity="1" fill-rule="nonzero"/><path fill="#f4f6fc" d="M 0 0 L 103.503906 0 L 103.503906 103.503906 L 0 103.503906 Z M 0 0 " fill-opacity="1" fill-rule="nonzero"/></g><g clip-path="url(#ce8370d17c)"><path fill="#000000" d="M 61.523438 26.957031 L 62.171875 26.597656 C 62.300781 26.53125 62.410156 26.441406 62.5 26.332031 C 62.589844 26.21875 62.65625 26.09375 62.695312 25.957031 C 62.730469 25.816406 62.742188 25.675781 62.722656 25.535156 C 62.703125 25.390625 62.65625 25.257812 62.582031 25.136719 L 60.789062 22.164062 C 60.625 21.90625 60.394531 21.738281 60.101562 21.660156 C 59.804688 21.585938 59.523438 21.621094 59.257812 21.769531 L 58.601562 22.132812 C 58.394531 22.242188 58.179688 22.285156 57.949219 22.265625 C 57.714844 22.246094 57.507812 22.167969 57.324219 22.027344 C 56.675781 21.550781 55.976562 21.160156 55.230469 20.863281 C 55.015625 20.785156 54.84375 20.65625 54.707031 20.472656 C 54.574219 20.289062 54.503906 20.085938 54.5 19.859375 L 54.5 19.144531 C 54.496094 19 54.464844 18.859375 54.40625 18.726562 C 54.347656 18.59375 54.265625 18.480469 54.160156 18.378906 C 54.058594 18.277344 53.9375 18.203125 53.804688 18.148438 C 53.667969 18.097656 53.527344 18.070312 53.382812 18.074219 L 49.785156 18.074219 C 49.640625 18.070312 49.5 18.097656 49.367188 18.148438 C 49.230469 18.203125 49.113281 18.277344 49.007812 18.378906 C 48.902344 18.480469 48.820312 18.59375 48.765625 18.726562 C 48.707031 18.859375 48.675781 19 48.671875 19.144531 L 48.671875 19.859375 C 48.664062 20.085938 48.59375 20.289062 48.460938 20.472656 C 48.328125 20.65625 48.152344 20.785156 47.941406 20.863281 C 47.191406 21.160156 46.496094 21.546875 45.84375 22.023438 C 45.660156 22.164062 45.453125 22.246094 45.222656 22.261719 C 44.992188 22.28125 44.773438 22.238281 44.570312 22.128906 L 43.914062 21.765625 C 43.644531 21.617188 43.363281 21.582031 43.070312 21.660156 C 42.773438 21.734375 42.542969 21.902344 42.382812 22.160156 L 40.585938 25.132812 C 40.511719 25.253906 40.464844 25.386719 40.445312 25.53125 C 40.425781 25.671875 40.433594 25.8125 40.472656 25.953125 C 40.507812 26.089844 40.574219 26.214844 40.664062 26.328125 C 40.753906 26.441406 40.863281 26.53125 40.988281 26.597656 L 41.636719 26.957031 C 41.828125 27.054688 41.976562 27.199219 42.078125 27.390625 C 42.179688 27.582031 42.21875 27.785156 42.195312 28 C 42.078125 28.816406 42.078125 29.636719 42.195312 30.453125 C 42.21875 30.667969 42.179688 30.871094 42.078125 31.0625 C 41.976562 31.253906 41.828125 31.398438 41.636719 31.496094 L 40.988281 31.851562 C 40.863281 31.917969 40.753906 32.007812 40.664062 32.121094 C 40.570312 32.234375 40.507812 32.359375 40.46875 32.496094 C 40.429688 32.632812 40.421875 32.773438 40.4375 32.917969 C 40.457031 33.058594 40.503906 33.191406 40.578125 33.316406 L 42.375 36.289062 C 42.535156 36.546875 42.765625 36.714844 43.0625 36.789062 C 43.355469 36.867188 43.636719 36.828125 43.90625 36.679688 L 44.5625 36.320312 C 44.765625 36.210938 44.984375 36.167969 45.214844 36.183594 C 45.445312 36.203125 45.652344 36.285156 45.835938 36.425781 C 46.488281 36.902344 47.1875 37.289062 47.9375 37.589844 C 48.148438 37.664062 48.324219 37.792969 48.457031 37.976562 C 48.589844 38.160156 48.660156 38.363281 48.667969 38.589844 L 48.667969 39.308594 C 48.671875 39.453125 48.699219 39.59375 48.757812 39.726562 C 48.816406 39.859375 48.898438 39.976562 49.003906 40.074219 C 49.109375 40.175781 49.226562 40.253906 49.363281 40.304688 C 49.496094 40.359375 49.636719 40.382812 49.78125 40.378906 L 53.375 40.378906 C 53.519531 40.382812 53.660156 40.359375 53.792969 40.304688 C 53.929688 40.253906 54.046875 40.175781 54.152344 40.074219 C 54.257812 39.976562 54.339844 39.859375 54.398438 39.726562 C 54.457031 39.59375 54.488281 39.453125 54.488281 39.308594 L 54.488281 38.589844 C 54.496094 38.363281 54.566406 38.160156 54.699219 37.976562 C 54.832031 37.792969 55.007812 37.664062 55.21875 37.589844 C 55.96875 37.289062 56.667969 36.902344 57.316406 36.425781 C 57.5 36.285156 57.707031 36.207031 57.9375 36.1875 C 58.167969 36.167969 58.386719 36.210938 58.59375 36.320312 L 59.246094 36.683594 C 59.515625 36.832031 59.796875 36.867188 60.089844 36.792969 C 60.386719 36.714844 60.617188 36.546875 60.777344 36.289062 L 62.574219 33.316406 C 62.648438 33.195312 62.695312 33.0625 62.714844 32.917969 C 62.734375 32.777344 62.722656 32.636719 62.683594 32.496094 C 62.644531 32.359375 62.582031 32.234375 62.492188 32.121094 C 62.398438 32.011719 62.292969 31.921875 62.164062 31.855469 L 61.515625 31.496094 C 61.324219 31.398438 61.179688 31.253906 61.078125 31.0625 C 60.976562 30.871094 60.9375 30.667969 60.964844 30.453125 C 61.082031 29.636719 61.082031 28.816406 60.964844 28 C 60.9375 27.785156 60.976562 27.582031 61.082031 27.390625 C 61.183594 27.199219 61.332031 27.054688 61.523438 26.957031 Z M 51.582031 34.179688 C 51.257812 34.179688 50.933594 34.148438 50.617188 34.085938 C 50.296875 34.023438 49.988281 33.925781 49.6875 33.804688 C 49.386719 33.679688 49.101562 33.527344 48.828125 33.34375 C 48.558594 33.164062 48.308594 32.957031 48.078125 32.730469 C 47.847656 32.5 47.644531 32.25 47.460938 31.976562 C 47.28125 31.707031 47.128906 31.421875 47.003906 31.121094 C 46.878906 30.820312 46.785156 30.511719 46.722656 30.191406 C 46.660156 29.871094 46.628906 29.550781 46.628906 29.226562 C 46.628906 28.898438 46.660156 28.578125 46.722656 28.257812 C 46.785156 27.9375 46.878906 27.628906 47.003906 27.328125 C 47.128906 27.027344 47.28125 26.742188 47.460938 26.472656 C 47.644531 26.199219 47.847656 25.949219 48.078125 25.722656 C 48.308594 25.492188 48.558594 25.285156 48.828125 25.105469 C 49.101562 24.921875 49.386719 24.769531 49.6875 24.648438 C 49.988281 24.523438 50.296875 24.429688 50.617188 24.363281 C 50.933594 24.300781 51.257812 24.269531 51.582031 24.269531 C 51.90625 24.269531 52.230469 24.300781 52.550781 24.363281 C 52.867188 24.429688 53.179688 24.523438 53.480469 24.648438 C 53.78125 24.769531 54.066406 24.921875 54.335938 25.105469 C 54.605469 25.285156 54.855469 25.492188 55.085938 25.722656 C 55.316406 25.949219 55.523438 26.199219 55.703125 26.472656 C 55.882812 26.742188 56.035156 27.027344 56.160156 27.328125 C 56.285156 27.628906 56.378906 27.9375 56.441406 28.257812 C 56.507812 28.578125 56.539062 28.898438 56.539062 29.226562 C 56.539062 29.550781 56.507812 29.871094 56.441406 30.191406 C 56.378906 30.511719 56.285156 30.820312 56.160156 31.121094 C 56.035156 31.421875 55.882812 31.707031 55.703125 31.976562 C 55.523438 32.25 55.316406 32.5 55.085938 32.730469 C 54.855469 32.960938 54.605469 33.164062 54.335938 33.34375 C 54.066406 33.527344 53.78125 33.679688 53.480469 33.804688 C 53.179688 33.929688 52.867188 34.023438 52.550781 34.085938 C 52.230469 34.148438 51.90625 34.179688 51.582031 34.179688 Z M 51.582031 34.179688 " fill-opacity="1" fill-rule="nonzero"/></g><g clip-path="url(#af50539d1d)"><path fill="#000000" d="M 75 41.492188 C 74.339844 41.492188 73.6875 41.554688 73.042969 41.683594 C 72.394531 41.8125 71.769531 42.003906 71.160156 42.253906 C 70.550781 42.507812 69.972656 42.816406 69.425781 43.183594 C 68.875 43.546875 68.371094 43.964844 67.902344 44.429688 C 67.4375 44.894531 67.019531 45.402344 66.65625 45.953125 C 66.289062 46.5 65.980469 47.078125 65.726562 47.6875 C 65.476562 48.296875 65.285156 48.921875 65.15625 49.570312 C 65.027344 50.214844 64.964844 50.867188 64.964844 51.527344 C 64.964844 52.1875 65.027344 52.839844 65.15625 53.484375 C 65.285156 54.132812 65.476562 54.757812 65.726562 55.367188 C 65.980469 55.976562 66.289062 56.554688 66.65625 57.101562 C 67.019531 57.652344 67.4375 58.15625 67.902344 58.625 C 68.371094 59.089844 68.875 59.503906 69.425781 59.871094 C 69.972656 60.238281 70.550781 60.546875 71.160156 60.800781 C 71.769531 61.050781 72.394531 61.242188 73.042969 61.371094 C 73.6875 61.5 74.339844 61.5625 75 61.5625 C 75.660156 61.5625 76.3125 61.5 76.957031 61.371094 C 77.605469 61.242188 78.230469 61.050781 78.839844 60.800781 C 79.449219 60.546875 80.027344 60.238281 80.574219 59.871094 C 81.125 59.503906 81.628906 59.089844 82.097656 58.625 C 82.5625 58.15625 82.976562 57.652344 83.34375 57.101562 C 83.710938 56.554688 84.019531 55.976562 84.273438 55.367188 C 84.523438 54.757812 84.714844 54.132812 84.84375 53.484375 C 84.972656 52.839844 85.035156 52.1875 85.035156 51.527344 C 85.035156 50.867188 84.972656 50.214844 84.84375 49.570312 C 84.714844 48.921875 84.523438 48.296875 84.273438 47.6875 C 84.019531 47.078125 83.710938 46.5 83.34375 45.953125 C 82.976562 45.402344 82.5625 44.894531 82.097656 44.429688 C 81.628906 43.964844 81.125 43.546875 80.574219 43.183594 C 80.027344 42.816406 79.449219 42.507812 78.839844 42.253906 C 78.230469 42.003906 77.605469 41.8125 76.957031 41.683594 C 76.3125 41.554688 75.660156 41.492188 75 41.492188 Z M 76.113281 52.640625 C 76.113281 53.039062 75.949219 53.347656 75.617188 53.570312 L 72.273438 55.800781 L 71.035156 53.945312 L 73.886719 52.046875 L 73.886719 45.953125 L 76.113281 45.953125 Z M 76.113281 52.640625 " fill-opacity="1" fill-rule="nonzero"/></g><path fill="#000000" d="M 33.742188 72.714844 L 37.085938 72.714844 L 37.085938 74.945312 L 33.742188 74.945312 Z M 33.742188 72.714844 " fill-opacity="1" fill-rule="nonzero"/><path fill="#000000" d="M 29.28125 70.484375 L 27.050781 70.484375 L 27.050781 73.828125 C 27.050781 73.976562 27.078125 74.121094 27.136719 74.253906 C 27.191406 74.390625 27.273438 74.511719 27.378906 74.617188 C 27.480469 74.722656 27.601562 74.800781 27.738281 74.859375 C 27.875 74.914062 28.019531 74.945312 28.164062 74.945312 L 31.511719 74.945312 L 31.511719 72.714844 L 29.28125 72.714844 Z M 29.28125 70.484375 " fill-opacity="1" fill-rule="nonzero"/><path fill="#000000" d="M 27.050781 64.90625 L 29.28125 64.90625 L 29.28125 68.253906 L 27.050781 68.253906 Z M 27.050781 64.90625 " fill-opacity="1" fill-rule="nonzero"/><path fill="#000000" d="M 33.742188 28.109375 L 37.085938 28.109375 L 37.085938 30.339844 L 33.742188 30.339844 Z M 33.742188 28.109375 " fill-opacity="1" fill-rule="nonzero"/><path fill="#000000" d="M 29.28125 30.339844 L 31.511719 30.339844 L 31.511719 28.109375 L 28.164062 28.109375 C 28.019531 28.109375 27.875 28.136719 27.738281 28.195312 C 27.601562 28.25 27.480469 28.332031 27.378906 28.4375 C 27.273438 28.539062 27.191406 28.660156 27.136719 28.796875 C 27.078125 28.933594 27.050781 29.078125 27.050781 29.226562 L 27.050781 32.570312 L 29.28125 32.570312 Z M 29.28125 30.339844 " fill-opacity="1" fill-rule="nonzero"/><path fill="#000000" d="M 27.050781 34.800781 L 29.28125 34.800781 L 29.28125 38.144531 L 27.050781 38.144531 Z M 27.050781 34.800781 " fill-opacity="1" fill-rule="nonzero"/><path fill="#000000" d="M 66.078125 28.109375 L 69.425781 28.109375 L 69.425781 30.339844 L 66.078125 30.339844 Z M 66.078125 28.109375 " fill-opacity="1" fill-rule="nonzero"/><path fill="#000000" d="M 76.113281 29.226562 C 76.113281 29.078125 76.085938 28.933594 76.03125 28.796875 C 75.972656 28.660156 75.894531 28.539062 75.789062 28.4375 C 75.683594 28.332031 75.5625 28.25 75.425781 28.195312 C 75.289062 28.136719 75.148438 28.109375 75 28.109375 L 71.65625 28.109375 L 71.65625 30.339844 L 73.886719 30.339844 L 73.886719 32.570312 L 76.113281 32.570312 Z M 76.113281 29.226562 " fill-opacity="1" fill-rule="nonzero"/><path fill="#000000" d="M 73.886719 34.800781 L 76.113281 34.800781 L 76.113281 38.144531 L 73.886719 38.144531 Z M 73.886719 34.800781 " fill-opacity="1" fill-rule="nonzero"/><path fill="#000000" d="M 66.078125 72.714844 L 69.425781 72.714844 L 69.425781 74.945312 L 66.078125 74.945312 Z M 66.078125 72.714844 " fill-opacity="1" fill-rule="nonzero"/><path fill="#000000" d="M 73.886719 72.714844 L 71.65625 72.714844 L 71.65625 74.945312 L 75 74.945312 C 75.148438 74.945312 75.289062 74.914062 75.425781 74.859375 C 75.5625 74.800781 75.683594 74.722656 75.789062 74.617188 C 75.894531 74.511719 75.972656 74.390625 76.03125 74.253906 C 76.085938 74.121094 76.113281 73.976562 76.113281 73.828125 L 76.113281 70.484375 L 73.886719 70.484375 Z M 73.886719 72.714844 " fill-opacity="1" fill-rule="nonzero"/><path fill="#000000" d="M 73.886719 64.90625 L 76.113281 64.90625 L 76.113281 68.253906 L 73.886719 68.253906 Z M 73.886719 64.90625 " fill-opacity="1" fill-rule="nonzero"/><g clip-path="url(#75e6a4a23a)"><path fill="#000000" d="M 28.164062 41.492188 C 27.507812 41.492188 26.855469 41.554688 26.207031 41.683594 C 25.5625 41.8125 24.933594 42.003906 24.324219 42.253906 C 23.714844 42.507812 23.136719 42.816406 22.589844 43.183594 C 22.042969 43.546875 21.535156 43.964844 21.070312 44.429688 C 20.601562 44.894531 20.1875 45.402344 19.820312 45.953125 C 19.453125 46.5 19.144531 47.078125 18.894531 47.6875 C 18.640625 48.296875 18.449219 48.921875 18.324219 49.570312 C 18.195312 50.214844 18.128906 50.867188 18.128906 51.527344 C 18.128906 52.1875 18.195312 52.839844 18.324219 53.484375 C 18.449219 54.132812 18.640625 54.757812 18.894531 55.367188 C 19.144531 55.976562 19.453125 56.554688 19.820312 57.101562 C 20.1875 57.652344 20.601562 58.15625 21.070312 58.625 C 21.535156 59.089844 22.042969 59.503906 22.589844 59.871094 C 23.136719 60.238281 23.714844 60.546875 24.324219 60.800781 C 24.933594 61.050781 25.5625 61.242188 26.207031 61.371094 C 26.855469 61.5 27.507812 61.5625 28.164062 61.5625 C 28.824219 61.5625 29.476562 61.5 30.125 61.371094 C 30.769531 61.242188 31.398438 61.050781 32.007812 60.800781 C 32.613281 60.546875 33.191406 60.238281 33.742188 59.871094 C 34.289062 59.503906 34.796875 59.089844 35.261719 58.625 C 35.726562 58.15625 36.144531 57.652344 36.511719 57.101562 C 36.875 56.554688 37.183594 55.976562 37.4375 55.367188 C 37.691406 54.757812 37.878906 54.132812 38.007812 53.484375 C 38.136719 52.839844 38.203125 52.1875 38.203125 51.527344 C 38.203125 50.867188 38.136719 50.214844 38.007812 49.570312 C 37.878906 48.921875 37.691406 48.296875 37.4375 47.6875 C 37.183594 47.078125 36.875 46.5 36.511719 45.953125 C 36.144531 45.402344 35.726562 44.894531 35.261719 44.429688 C 34.796875 43.964844 34.289062 43.546875 33.742188 43.183594 C 33.191406 42.816406 32.613281 42.507812 32.007812 42.253906 C 31.398438 42.003906 30.769531 41.8125 30.125 41.683594 C 29.476562 41.554688 28.824219 41.492188 28.164062 41.492188 Z M 32.625 57.921875 C 31.972656 58.382812 31.265625 58.730469 30.503906 58.972656 C 29.742188 59.210938 28.964844 59.332031 28.164062 59.332031 C 27.367188 59.332031 26.585938 59.210938 25.828125 58.972656 C 25.066406 58.730469 24.359375 58.382812 23.703125 57.921875 L 23.703125 53.757812 C 23.703125 53.460938 23.761719 53.175781 23.875 52.902344 C 23.988281 52.628906 24.148438 52.390625 24.359375 52.179688 C 24.566406 51.972656 24.808594 51.808594 25.082031 51.695312 C 25.355469 51.582031 25.640625 51.527344 25.933594 51.527344 L 28.164062 51.527344 C 27.796875 51.527344 27.441406 51.457031 27.097656 51.316406 C 26.757812 51.171875 26.457031 50.972656 26.195312 50.710938 C 25.933594 50.449219 25.730469 50.148438 25.589844 49.804688 C 25.449219 49.464844 25.378906 49.109375 25.378906 48.738281 C 25.378906 48.371094 25.449219 48.015625 25.589844 47.671875 C 25.730469 47.332031 25.933594 47.03125 26.195312 46.769531 C 26.457031 46.507812 26.757812 46.304688 27.097656 46.164062 C 27.441406 46.023438 27.796875 45.953125 28.164062 45.953125 C 28.535156 45.953125 28.890625 46.023438 29.230469 46.164062 C 29.574219 46.304688 29.875 46.507812 30.136719 46.769531 C 30.398438 47.03125 30.597656 47.332031 30.742188 47.671875 C 30.882812 48.015625 30.953125 48.371094 30.953125 48.738281 C 30.953125 49.109375 30.882812 49.464844 30.742188 49.804688 C 30.597656 50.148438 30.398438 50.449219 30.136719 50.710938 C 29.875 50.972656 29.574219 51.171875 29.230469 51.316406 C 28.890625 51.457031 28.535156 51.527344 28.164062 51.527344 L 30.394531 51.527344 C 30.691406 51.527344 30.976562 51.582031 31.25 51.695312 C 31.523438 51.808594 31.761719 51.972656 31.972656 52.179688 C 32.183594 52.390625 32.34375 52.628906 32.457031 52.902344 C 32.570312 53.175781 32.625 53.460938 32.625 53.757812 Z M 32.625 57.921875 " fill-opacity="1" fill-rule="nonzero"/></g><path fill="#000000" d="M 56.601562 64.691406 C 56.601562 65.019531 56.570312 65.347656 56.503906 65.667969 C 56.441406 65.992188 56.34375 66.304688 56.21875 66.609375 C 56.09375 66.914062 55.9375 67.203125 55.753906 67.480469 C 55.570312 67.753906 55.363281 68.007812 55.132812 68.238281 C 54.898438 68.472656 54.644531 68.679688 54.371094 68.863281 C 54.097656 69.046875 53.808594 69.199219 53.503906 69.328125 C 53.199219 69.453125 52.886719 69.546875 52.5625 69.613281 C 52.238281 69.675781 51.914062 69.707031 51.582031 69.707031 C 51.253906 69.707031 50.925781 69.675781 50.605469 69.613281 C 50.28125 69.546875 49.964844 69.453125 49.664062 69.328125 C 49.359375 69.199219 49.070312 69.046875 48.792969 68.863281 C 48.519531 68.679688 48.265625 68.472656 48.035156 68.238281 C 47.800781 68.007812 47.59375 67.753906 47.410156 67.480469 C 47.226562 67.203125 47.074219 66.914062 46.945312 66.609375 C 46.820312 66.304688 46.726562 65.992188 46.660156 65.667969 C 46.597656 65.347656 46.566406 65.019531 46.566406 64.691406 C 46.566406 64.359375 46.597656 64.035156 46.660156 63.710938 C 46.726562 63.386719 46.820312 63.074219 46.945312 62.769531 C 47.074219 62.464844 47.226562 62.175781 47.410156 61.902344 C 47.59375 61.628906 47.800781 61.375 48.035156 61.140625 C 48.265625 60.910156 48.519531 60.703125 48.792969 60.519531 C 49.070312 60.335938 49.359375 60.179688 49.664062 60.054688 C 49.964844 59.929688 50.28125 59.832031 50.605469 59.769531 C 50.925781 59.703125 51.253906 59.671875 51.582031 59.671875 C 51.914062 59.671875 52.238281 59.703125 52.5625 59.769531 C 52.886719 59.832031 53.199219 59.929688 53.503906 60.054688 C 53.808594 60.179688 54.097656 60.335938 54.371094 60.519531 C 54.644531 60.703125 54.898438 60.910156 55.132812 61.140625 C 55.363281 61.375 55.570312 61.628906 55.753906 61.902344 C 55.9375 62.175781 56.09375 62.464844 56.21875 62.769531 C 56.34375 63.074219 56.441406 63.386719 56.503906 63.710938 C 56.570312 64.035156 56.601562 64.359375 56.601562 64.691406 Z M 56.601562 64.691406 " fill-opacity="1" fill-rule="nonzero"/><path fill="#000000" d="M 58.273438 69.707031 L 44.890625 69.707031 C 44.449219 69.707031 44.023438 69.792969 43.613281 69.964844 C 43.203125 70.132812 42.839844 70.375 42.527344 70.6875 C 42.210938 71.003906 41.972656 71.363281 41.800781 71.773438 C 41.632812 72.183594 41.546875 72.609375 41.546875 73.054688 L 41.546875 82.464844 C 41.546875 82.636719 41.566406 82.804688 41.605469 82.96875 C 41.640625 83.132812 41.699219 83.292969 41.773438 83.445312 C 41.847656 83.597656 41.9375 83.738281 42.042969 83.871094 C 42.152344 84 42.269531 84.121094 42.402344 84.222656 C 42.539062 84.328125 42.679688 84.414062 42.835938 84.488281 C 42.988281 84.558594 43.148438 84.613281 43.3125 84.648438 C 43.480469 84.683594 43.648438 84.699219 43.816406 84.695312 C 43.984375 84.691406 44.152344 84.671875 44.316406 84.628906 L 48.746094 83.78125 L 56.042969 80.976562 L 56.042969 78.875 L 46.230469 80.835938 C 46.066406 80.871094 45.902344 80.867188 45.738281 80.828125 C 45.578125 80.789062 45.429688 80.714844 45.300781 80.609375 C 45.171875 80.503906 45.070312 80.375 45 80.222656 C 44.929688 80.070312 44.890625 79.914062 44.890625 79.746094 L 44.890625 74.167969 L 47.121094 74.167969 L 47.121094 78.382812 L 56.042969 76.601562 L 56.042969 73.941406 L 58.273438 73.941406 L 58.273438 81.746094 C 58.273438 81.976562 58.207031 82.1875 58.078125 82.378906 C 57.945312 82.566406 57.773438 82.703125 57.558594 82.789062 L 53.675781 84.28125 L 59.074219 84.964844 C 59.394531 85.007812 59.710938 84.984375 60.019531 84.894531 C 60.332031 84.800781 60.609375 84.652344 60.851562 84.4375 C 61.097656 84.226562 61.285156 83.972656 61.417969 83.675781 C 61.554688 83.382812 61.621094 83.074219 61.617188 82.75 L 61.617188 73.054688 C 61.617188 72.609375 61.535156 72.183594 61.363281 71.773438 C 61.195312 71.363281 60.953125 71.003906 60.640625 70.6875 C 60.324219 70.375 59.964844 70.132812 59.554688 69.964844 C 59.144531 69.792969 58.71875 69.707031 58.273438 69.707031 Z M 58.273438 69.707031 " fill-opacity="1" fill-rule="nonzero"/></svg>