<svg xmlns="http://www.w3.org/2000/svg" xmlns:xlink="http://www.w3.org/1999/xlink" width="139" zoomAndPan="magnify" viewBox="0 0 104.25 104.249996" height="139" preserveAspectRatio="xMidYMid meet" version="1.0"><defs><clipPath id="cd357f47cf"><path d="M 0 0 L 103.503906 0 L 103.503906 103.503906 L 0 103.503906 Z M 0 0 " clip-rule="nonzero"/></clipPath><clipPath id="ff1a5cca6d"><path d="M 22 45 L 81 45 L 81 89.4375 L 22 89.4375 Z M 22 45 " clip-rule="nonzero"/></clipPath><clipPath id="7221271ef7"><path d="M 18.746094 14.226562 L 84.503906 14.226562 L 84.503906 43 L 18.746094 43 Z M 18.746094 14.226562 " clip-rule="nonzero"/></clipPath></defs><g clip-path="url(#cd357f47cf)"><path fill="#ffffff" d="M 0 0 L 104.25 0 L 104.25 215.203125 L 0 215.203125 Z M 0 0 " fill-opacity="1" fill-rule="nonzero"/><path fill="#ffffff" d="M 0 0 L 103.503906 0 L 103.503906 103.503906 L 0 103.503906 Z M 0 0 " fill-opacity="1" fill-rule="nonzero"/><path fill="#f4f6fc" d="M 0 0 L 103.503906 0 L 103.503906 103.503906 L 0 103.503906 Z M 0 0 " fill-opacity="1" fill-rule="nonzero"/></g><g clip-path="url(#ff1a5cca6d)"><path fill="#040606" d="M 75.222656 45.929688 L 75.222656 73.824219 L 28.097656 73.824219 L 28.097656 45.929688 C 26.445312 46.089844 24.632812 45.929688 22.980469 45.296875 L 22.980469 86.191406 C 22.980469 87.933594 24.394531 89.4375 26.214844 89.4375 L 77.117188 89.4375 C 78.847656 89.4375 80.351562 88.015625 80.351562 86.191406 L 80.351562 45.375 C 78.691406 45.929688 76.957031 46.089844 75.222656 45.929688 " fill-opacity="1" fill-rule="nonzero"/></g><g clip-path="url(#7221271ef7)"><path fill="#040606" d="M 83.816406 30.632812 L 81.292969 24.449219 C 80.429688 22.3125 79.796875 20.089844 79.320312 17.875 C 78.929688 15.738281 77.117188 14.226562 74.914062 14.226562 L 28.339844 14.226562 C 26.214844 14.226562 24.320312 15.738281 23.921875 17.875 C 23.53125 20.171875 22.820312 22.394531 21.957031 24.53125 L 19.433594 30.710938 C 18.644531 32.617188 18.484375 34.753906 19.195312 36.734375 C 20.378906 40.0625 23.453125 42.203125 26.839844 42.203125 C 29.207031 42.203125 31.414062 41.175781 32.90625 39.425781 C 34.488281 41.175781 36.609375 42.203125 38.972656 42.203125 L 39.453125 42.203125 C 41.734375 42.203125 43.859375 41.175781 45.359375 39.585938 C 46.855469 41.25 49.066406 42.203125 51.269531 42.203125 L 51.902344 42.203125 C 54.105469 42.203125 56.316406 41.25 57.808594 39.585938 C 59.308594 41.175781 61.433594 42.203125 63.71875 42.203125 L 64.269531 42.203125 C 66.632812 42.203125 68.765625 41.175781 70.335938 39.425781 C 71.839844 41.175781 74.042969 42.203125 76.40625 42.203125 C 79.796875 42.203125 82.871094 40.0625 84.054688 36.734375 C 84.757812 34.671875 84.605469 32.535156 83.816406 30.632812 " fill-opacity="1" fill-rule="nonzero"/></g><path fill="#040606" d="M 51.660156 58.367188 C 55.128906 58.367188 57.96875 55.519531 57.96875 52.03125 C 57.96875 48.539062 55.128906 45.6875 51.660156 45.6875 C 48.195312 45.6875 45.359375 48.539062 45.359375 52.03125 C 45.359375 55.519531 48.195312 58.367188 51.660156 58.367188 " fill-opacity="1" fill-rule="nonzero"/><path fill="#040606" d="M 41.257812 67.089844 L 41.257812 70.339844 L 62.066406 70.339844 L 62.066406 67.089844 C 62.066406 63.917969 60.015625 61.21875 57.179688 60.273438 C 55.605469 61.378906 53.714844 62.015625 51.660156 62.015625 C 49.617188 62.015625 47.726562 61.378906 46.144531 60.273438 C 43.308594 61.21875 41.257812 63.917969 41.257812 67.089844 " fill-opacity="1" fill-rule="nonzero"/></svg>