<svg xmlns="http://www.w3.org/2000/svg" xmlns:xlink="http://www.w3.org/1999/xlink" width="139" zoomAndPan="magnify" viewBox="0 0 104.25 104.249996" height="139" preserveAspectRatio="xMidYMid meet" version="1.0"><defs><clipPath id="e760b61a5b"><path d="M 0 0 L 103.503906 0 L 103.503906 103.503906 L 0 103.503906 Z M 0 0 " clip-rule="nonzero"/></clipPath><clipPath id="cb5984d8ec"><path d="M 40 19.175781 L 63 19.175781 L 63 48 L 40 48 Z M 40 19.175781 " clip-rule="nonzero"/></clipPath><clipPath id="3bd1e2dbe4"><path d="M 18.082031 64 L 33 64 L 33 83.957031 L 18.082031 83.957031 Z M 18.082031 64 " clip-rule="nonzero"/></clipPath><clipPath id="3fe5d56dc0"><path d="M 44 64 L 60 64 L 60 83.957031 L 44 83.957031 Z M 44 64 " clip-rule="nonzero"/></clipPath><clipPath id="cbd2bd9835"><path d="M 70 64 L 85.097656 64 L 85.097656 83.957031 L 70 83.957031 Z M 70 64 " clip-rule="nonzero"/></clipPath></defs><g clip-path="url(#e760b61a5b)"><path fill="#ffffff" d="M 0 0 L 103.503906 0 L 103.503906 103.503906 L 0 103.503906 Z M 0 0 " fill-opacity="1" fill-rule="nonzero"/><path fill="#f4f6fc" d="M 0 0 L 103.503906 0 L 103.503906 103.503906 L 0 103.503906 Z M 0 0 " fill-opacity="1" fill-rule="nonzero"/></g><g clip-path="url(#cb5984d8ec)"><path fill="#100f0d" d="M 50.789062 40.371094 C 50.003906 40.054688 49.449219 39.292969 49.449219 38.394531 C 49.449219 37.210938 50.40625 36.253906 51.589844 36.253906 C 52.773438 36.253906 53.730469 37.210938 53.730469 38.394531 C 53.730469 39.292969 53.175781 40.054688 52.390625 40.371094 L 54.167969 47.238281 L 62.316406 47.238281 L 62.316406 43.78125 C 62.316406 39.367188 59.648438 35.582031 55.835938 33.9375 C 58.082031 32.523438 59.582031 30.042969 59.582031 27.195312 C 59.582031 22.78125 56.003906 19.207031 51.589844 19.207031 C 47.175781 19.207031 43.597656 22.78125 43.597656 27.195312 C 43.597656 30.042969 45.097656 32.523438 47.34375 33.9375 C 43.53125 35.582031 40.863281 39.367188 40.863281 43.78125 L 40.863281 47.238281 L 49.011719 47.238281 L 50.789062 40.371094 " fill-opacity="1" fill-rule="nonzero"/></g><g clip-path="url(#3bd1e2dbe4)"><path fill="#100f0d" d="M 28.480469 74.675781 C 30.039062 73.691406 31.082031 71.96875 31.082031 69.988281 C 31.082031 66.925781 28.597656 64.441406 25.53125 64.441406 C 22.464844 64.441406 19.980469 66.925781 19.980469 69.988281 C 19.980469 71.96875 21.023438 73.691406 22.582031 74.675781 C 19.933594 75.816406 18.082031 78.445312 18.082031 81.511719 L 18.082031 83.910156 L 32.980469 83.910156 L 32.980469 81.511719 C 32.980469 78.445312 31.128906 75.816406 28.480469 74.675781 " fill-opacity="1" fill-rule="nonzero"/></g><g clip-path="url(#3fe5d56dc0)"><path fill="#100f0d" d="M 54.539062 74.675781 C 56.097656 73.691406 57.140625 71.96875 57.140625 69.988281 C 57.140625 66.925781 54.65625 64.441406 51.589844 64.441406 C 48.523438 64.441406 46.039062 66.925781 46.039062 69.988281 C 46.039062 71.96875 47.082031 73.691406 48.640625 74.675781 C 45.992188 75.816406 44.140625 78.445312 44.140625 81.511719 L 44.140625 83.910156 L 59.039062 83.910156 L 59.039062 81.511719 C 59.039062 78.445312 57.1875 75.816406 54.539062 74.675781 " fill-opacity="1" fill-rule="nonzero"/></g><g clip-path="url(#cbd2bd9835)"><path fill="#100f0d" d="M 80.597656 74.675781 C 82.15625 73.691406 83.199219 71.96875 83.199219 69.988281 C 83.199219 66.925781 80.714844 64.441406 77.648438 64.441406 C 74.582031 64.441406 72.09375 66.925781 72.09375 69.988281 C 72.09375 71.96875 73.140625 73.691406 74.699219 74.675781 C 72.050781 75.816406 70.195312 78.445312 70.195312 81.511719 L 70.195312 83.910156 L 85.097656 83.910156 L 85.097656 81.511719 C 85.097656 78.445312 83.246094 75.816406 80.597656 74.675781 " fill-opacity="1" fill-rule="nonzero"/></g><path fill="#100f0d" d="M 25.625 62.125 C 26.558594 62.125 27.316406 61.367188 27.316406 60.433594 L 27.316406 57.386719 L 49.894531 57.386719 L 49.894531 60.433594 C 49.894531 61.367188 50.652344 62.125 51.589844 62.125 C 52.523438 62.125 53.28125 61.367188 53.28125 60.433594 L 53.28125 57.386719 L 75.863281 57.386719 L 75.863281 60.433594 C 75.863281 61.367188 76.621094 62.125 77.554688 62.125 C 78.492188 62.125 79.25 61.367188 79.25 60.433594 L 79.25 55.695312 C 79.25 54.761719 78.492188 54.003906 77.554688 54.003906 L 53.28125 54.003906 L 53.28125 50.488281 C 53.28125 49.554688 52.523438 48.796875 51.589844 48.796875 C 50.652344 48.796875 49.894531 49.554688 49.894531 50.488281 L 49.894531 54.003906 L 25.625 54.003906 C 24.6875 54.003906 23.929688 54.761719 23.929688 55.695312 L 23.929688 60.433594 C 23.929688 61.367188 24.6875 62.125 25.625 62.125 " fill-opacity="1" fill-rule="nonzero"/></svg>