<svg xmlns="http://www.w3.org/2000/svg" xmlns:xlink="http://www.w3.org/1999/xlink" width="150" zoomAndPan="magnify" viewBox="0 0 112.5 89.999999" height="120" preserveAspectRatio="xMidYMid meet" version="1.0"><defs><clipPath id="22a8873457"><path d="M 36 34 L 71 34 L 71 67.410156 L 36 67.410156 Z M 36 34 " clip-rule="nonzero"/></clipPath><clipPath id="0ce5420a8a"><path d="M 27.628906 32 L 42 32 L 42 47 L 27.628906 47 Z M 27.628906 32 " clip-rule="nonzero"/></clipPath><clipPath id="10c6ebd3fc"><path d="M 38 23.160156 L 53 23.160156 L 53 37 L 38 37 Z M 38 23.160156 " clip-rule="nonzero"/></clipPath><clipPath id="62598fd2ef"><path d="M 66 32 L 80.128906 32 L 80.128906 47 L 66 47 Z M 66 32 " clip-rule="nonzero"/></clipPath><clipPath id="f0d6d877f2"><path d="M 55 23.160156 L 69 23.160156 L 69 37 L 55 37 Z M 55 23.160156 " clip-rule="nonzero"/></clipPath></defs><g clip-path="url(#22a8873457)"><path fill="#004aad" d="M 68.988281 48.847656 C 68.984375 48.847656 68.984375 48.847656 68.984375 48.84375 L 54.164062 34.757812 C 54.003906 34.605469 53.753906 34.605469 53.59375 34.757812 L 38.773438 48.84375 C 38.773438 48.84375 38.769531 48.847656 38.769531 48.847656 L 37.085938 50.445312 C 36.921875 50.605469 36.914062 50.867188 37.070312 51.035156 C 37.230469 51.203125 37.492188 51.207031 37.660156 51.050781 L 38.648438 50.109375 L 38.648438 67.011719 C 38.648438 67.242188 38.835938 67.429688 39.066406 67.429688 L 68.691406 67.429688 C 68.921875 67.429688 69.109375 67.242188 69.109375 67.011719 L 69.109375 50.109375 L 70.097656 51.050781 C 70.179688 51.128906 70.28125 51.164062 70.382812 51.164062 C 70.492188 51.164062 70.601562 51.121094 70.683594 51.035156 C 70.84375 50.867188 70.835938 50.605469 70.671875 50.445312 Z M 68.277344 66.59375 L 39.480469 66.59375 L 39.480469 49.320312 L 53.878906 35.632812 L 68.277344 49.320312 Z M 68.277344 66.59375 " fill-opacity="1" fill-rule="nonzero"/></g><path fill="#004aad" d="M 53.878906 58.40625 C 52.644531 58.40625 51.640625 59.410156 51.640625 60.644531 C 51.640625 61.878906 52.644531 62.882812 53.878906 62.882812 C 55.113281 62.882812 56.113281 61.878906 56.113281 60.644531 C 56.113281 59.410156 55.113281 58.40625 53.878906 58.40625 Z M 53.878906 62.050781 C 53.105469 62.050781 52.472656 61.421875 52.472656 60.644531 C 52.472656 59.871094 53.105469 59.238281 53.878906 59.238281 C 54.652344 59.238281 55.285156 59.871094 55.285156 60.644531 C 55.285156 61.421875 54.652344 62.050781 53.878906 62.050781 Z M 53.878906 62.050781 " fill-opacity="1" fill-rule="nonzero"/><path fill="#004aad" d="M 53.878906 54.628906 C 49.457031 54.628906 47.359375 58.195312 47.273438 58.347656 C 46.929688 58.949219 47.136719 59.722656 47.738281 60.070312 C 47.929688 60.179688 48.144531 60.238281 48.367188 60.238281 C 48.816406 60.238281 49.234375 59.996094 49.460938 59.609375 C 49.519531 59.507812 50.917969 57.15625 53.878906 57.15625 C 56.84375 57.15625 58.238281 59.507812 58.296875 59.605469 C 58.519531 59.996094 58.9375 60.238281 59.390625 60.238281 C 59.605469 60.238281 59.824219 60.179688 60.019531 60.070312 C 60.621094 59.722656 60.828125 58.949219 60.484375 58.34375 C 60.394531 58.191406 58.285156 54.628906 53.878906 54.628906 Z M 59.605469 59.347656 C 59.398438 59.464844 59.128906 59.390625 59.015625 59.191406 C 58.945312 59.074219 57.316406 56.324219 53.878906 56.324219 C 50.445312 56.324219 48.808594 59.074219 48.742188 59.191406 C 48.628906 59.386719 48.351562 59.464844 48.152344 59.347656 C 47.949219 59.230469 47.878906 58.964844 47.996094 58.761719 C 48.070312 58.625 49.933594 55.460938 53.878906 55.460938 C 57.8125 55.460938 59.683594 58.625 59.761719 58.757812 C 59.878906 58.964844 59.808594 59.230469 59.605469 59.347656 Z M 59.605469 59.347656 " fill-opacity="1" fill-rule="nonzero"/><path fill="#004aad" d="M 53.878906 50.855469 C 47.765625 50.855469 44.484375 55.734375 44.347656 55.941406 C 43.964844 56.519531 44.125 57.304688 44.703125 57.6875 C 44.910156 57.824219 45.152344 57.898438 45.402344 57.898438 C 45.824219 57.898438 46.21875 57.6875 46.453125 57.335938 C 46.476562 57.296875 49.191406 53.382812 53.878906 53.382812 C 58.558594 53.382812 61.277344 57.296875 61.304688 57.332031 C 61.535156 57.6875 61.929688 57.898438 62.355469 57.898438 C 62.605469 57.898438 62.84375 57.824219 63.050781 57.6875 C 63.632812 57.304688 63.789062 56.519531 63.410156 55.9375 C 63.273438 55.730469 59.984375 50.855469 53.878906 50.855469 Z M 62.59375 56.996094 C 62.402344 57.121094 62.125 57.066406 61.992188 56.867188 C 61.875 56.691406 59 52.550781 53.878906 52.550781 C 48.726562 52.550781 45.792969 56.828125 45.761719 56.875 C 45.632812 57.066406 45.355469 57.121094 45.164062 56.996094 C 44.964844 56.863281 44.914062 56.597656 45.042969 56.398438 C 45.167969 56.207031 48.207031 51.6875 53.878906 51.6875 C 59.542969 51.6875 62.589844 56.207031 62.714844 56.398438 C 62.84375 56.597656 62.789062 56.863281 62.59375 56.996094 Z M 62.59375 56.996094 " fill-opacity="1" fill-rule="nonzero"/><path fill="#004aad" d="M 41.613281 53.441406 C 41.429688 53.722656 41.363281 54.0625 41.433594 54.390625 C 41.5 54.722656 41.695312 55.007812 41.972656 55.191406 C 42.179688 55.328125 42.421875 55.398438 42.667969 55.398438 C 43.09375 55.398438 43.488281 55.1875 43.71875 54.835938 C 43.753906 54.785156 47.21875 49.769531 53.878906 49.769531 C 60.539062 49.769531 64.003906 54.785156 64.035156 54.832031 C 64.269531 55.1875 64.664062 55.398438 65.089844 55.398438 C 65.335938 55.398438 65.574219 55.328125 65.78125 55.191406 C 66.0625 55.007812 66.257812 54.722656 66.324219 54.390625 C 66.394531 54.0625 66.328125 53.722656 66.144531 53.441406 C 65.976562 53.191406 61.980469 47.242188 53.878906 47.242188 C 45.769531 47.242188 41.777344 53.191406 41.613281 53.441406 Z M 65.449219 53.898438 C 65.511719 53.996094 65.535156 54.109375 65.511719 54.222656 C 65.484375 54.335938 65.421875 54.433594 65.324219 54.496094 C 65.132812 54.621094 64.855469 54.566406 64.726562 54.371094 C 64.691406 54.316406 61.011719 48.9375 53.878906 48.9375 C 46.730469 48.9375 43.066406 54.316406 43.027344 54.375 C 42.902344 54.566406 42.625 54.625 42.429688 54.496094 C 42.335938 54.433594 42.269531 54.335938 42.246094 54.222656 C 42.222656 54.113281 42.246094 53.996094 42.308594 53.902344 C 42.464844 53.660156 46.214844 48.074219 53.878906 48.074219 C 61.535156 48.074219 65.292969 53.660156 65.449219 53.898438 Z M 65.449219 53.898438 " fill-opacity="1" fill-rule="nonzero"/><g clip-path="url(#0ce5420a8a)"><path fill="#004aad" d="M 41.160156 39.378906 C 41.160156 35.65625 38.140625 32.632812 34.425781 32.632812 C 30.710938 32.632812 27.6875 35.65625 27.6875 39.378906 C 27.6875 43.097656 30.710938 46.125 34.425781 46.125 C 38.140625 46.125 41.160156 43.097656 41.160156 39.378906 Z M 34.425781 45.292969 C 31.167969 45.292969 28.519531 42.640625 28.519531 39.378906 C 28.519531 36.117188 31.167969 33.464844 34.425781 33.464844 C 37.679688 33.464844 40.332031 36.117188 40.332031 39.378906 C 40.332031 42.640625 37.679688 45.292969 34.425781 45.292969 Z M 34.425781 45.292969 " fill-opacity="1" fill-rule="nonzero"/></g><g clip-path="url(#10c6ebd3fc)"><path fill="#004aad" d="M 45.625 36.652344 C 49.339844 36.652344 52.363281 33.625 52.363281 29.90625 C 52.363281 26.183594 49.339844 23.160156 45.625 23.160156 C 41.910156 23.160156 38.886719 26.183594 38.886719 29.90625 C 38.886719 33.625 41.910156 36.652344 45.625 36.652344 Z M 45.625 23.992188 C 48.882812 23.992188 51.53125 26.644531 51.53125 29.90625 C 51.53125 33.164062 48.882812 35.820312 45.625 35.820312 C 42.371094 35.820312 39.71875 33.164062 39.71875 29.90625 C 39.71875 26.644531 42.371094 23.992188 45.625 23.992188 Z M 45.625 23.992188 " fill-opacity="1" fill-rule="nonzero"/></g><g clip-path="url(#62598fd2ef)"><path fill="#004aad" d="M 73.332031 32.632812 C 69.617188 32.632812 66.59375 35.660156 66.59375 39.378906 C 66.59375 43.097656 69.617188 46.125 73.332031 46.125 C 77.046875 46.125 80.070312 43.097656 80.070312 39.378906 C 80.070312 35.660156 77.046875 32.632812 73.332031 32.632812 Z M 73.332031 45.292969 C 70.074219 45.292969 67.425781 42.640625 67.425781 39.378906 C 67.425781 36.117188 70.074219 33.464844 73.332031 33.464844 C 76.589844 33.464844 79.238281 36.117188 79.238281 39.378906 C 79.238281 42.640625 76.589844 45.292969 73.332031 45.292969 Z M 73.332031 45.292969 " fill-opacity="1" fill-rule="nonzero"/></g><g clip-path="url(#f0d6d877f2)"><path fill="#004aad" d="M 62.132812 36.652344 C 65.847656 36.652344 68.867188 33.625 68.867188 29.90625 C 68.867188 26.183594 65.847656 23.160156 62.132812 23.160156 C 58.417969 23.160156 55.394531 26.183594 55.394531 29.90625 C 55.394531 33.625 58.414062 36.652344 62.132812 36.652344 Z M 62.132812 23.992188 C 65.386719 23.992188 68.039062 26.644531 68.039062 29.90625 C 68.039062 33.164062 65.386719 35.820312 62.132812 35.820312 C 58.875 35.820312 56.226562 33.164062 56.226562 29.90625 C 56.226562 26.644531 58.875 23.992188 62.132812 23.992188 Z M 62.132812 23.992188 " fill-opacity="1" fill-rule="nonzero"/></g><path fill="#004aad" d="M 35.390625 40.3125 L 35.390625 35.988281 C 35.390625 35.203125 34.757812 34.566406 33.972656 34.566406 C 33.289062 34.566406 32.554688 35.097656 32.554688 36.265625 L 32.554688 40.3125 C 32.140625 40.695312 31.878906 41.238281 31.878906 41.84375 C 31.878906 43 32.816406 43.941406 33.972656 43.941406 C 35.128906 43.941406 36.066406 43 36.066406 41.84375 C 36.066406 41.238281 35.804688 40.695312 35.390625 40.3125 Z M 33.386719 36.265625 C 33.386719 35.730469 33.609375 35.398438 33.972656 35.398438 C 34.296875 35.398438 34.5625 35.664062 34.5625 35.988281 L 34.5625 39.839844 C 34.375 39.785156 34.179688 39.746094 33.972656 39.746094 C 33.765625 39.746094 33.574219 39.785156 33.386719 39.839844 Z M 33.972656 43.109375 C 33.277344 43.109375 32.710938 42.542969 32.710938 41.84375 C 32.710938 41.148438 33.277344 40.578125 33.972656 40.578125 C 34.671875 40.578125 35.238281 41.148438 35.238281 41.84375 C 35.238281 42.542969 34.671875 43.109375 33.972656 43.109375 Z M 33.972656 43.109375 " fill-opacity="1" fill-rule="nonzero"/><path fill="#004aad" d="M 37.375 36.101562 L 36.480469 36.101562 C 36.253906 36.101562 36.066406 36.285156 36.066406 36.515625 C 36.066406 36.746094 36.253906 36.933594 36.480469 36.933594 L 37.375 36.933594 C 37.601562 36.933594 37.789062 36.746094 37.789062 36.515625 C 37.789062 36.285156 37.601562 36.101562 37.375 36.101562 Z M 37.375 36.101562 " fill-opacity="1" fill-rule="nonzero"/><path fill="#004aad" d="M 37.375 37.550781 L 36.480469 37.550781 C 36.253906 37.550781 36.066406 37.738281 36.066406 37.96875 C 36.066406 38.199219 36.253906 38.382812 36.480469 38.382812 L 37.375 38.382812 C 37.601562 38.382812 37.789062 38.199219 37.789062 37.96875 C 37.789062 37.738281 37.601562 37.550781 37.375 37.550781 Z M 37.375 37.550781 " fill-opacity="1" fill-rule="nonzero"/><path fill="#004aad" d="M 37.375 39.003906 L 36.480469 39.003906 C 36.253906 39.003906 36.066406 39.1875 36.066406 39.417969 C 36.066406 39.648438 36.253906 39.835938 36.480469 39.835938 L 37.375 39.835938 C 37.601562 39.835938 37.789062 39.648438 37.789062 39.417969 C 37.789062 39.1875 37.601562 39.003906 37.375 39.003906 Z M 37.375 39.003906 " fill-opacity="1" fill-rule="nonzero"/><path fill="#004aad" d="M 42.53125 31.910156 L 42.824219 31.910156 L 42.191406 32.808594 C 42.058594 32.996094 42.101562 33.253906 42.289062 33.386719 C 42.363281 33.441406 42.445312 33.464844 42.53125 33.464844 C 42.660156 33.464844 42.789062 33.402344 42.867188 33.289062 L 43.839844 31.910156 L 47.410156 31.910156 L 48.382812 33.289062 C 48.460938 33.402344 48.589844 33.464844 48.722656 33.464844 C 48.804688 33.464844 48.886719 33.441406 48.960938 33.386719 C 49.148438 33.253906 49.191406 32.996094 49.058594 32.808594 L 48.425781 31.910156 L 48.71875 31.910156 C 48.949219 31.910156 49.136719 31.722656 49.136719 31.496094 L 49.136719 27.660156 C 49.136719 27.429688 48.949219 27.242188 48.71875 27.242188 L 42.53125 27.242188 C 42.300781 27.242188 42.113281 27.429688 42.113281 27.660156 L 42.113281 31.496094 C 42.113281 31.722656 42.300781 31.910156 42.53125 31.910156 Z M 42.945312 28.074219 L 48.304688 28.074219 L 48.304688 31.078125 L 42.945312 31.078125 Z M 42.945312 28.074219 " fill-opacity="1" fill-rule="nonzero"/><path fill="#004aad" d="M 58.921875 33.851562 L 65.34375 33.851562 C 65.574219 33.851562 65.757812 33.664062 65.757812 33.433594 L 65.757812 28.984375 C 65.757812 28.753906 65.574219 28.566406 65.34375 28.566406 L 64.871094 28.566406 L 64.871094 27.539062 C 64.871094 26.125 63.71875 24.96875 62.304688 24.96875 L 62.226562 24.96875 C 60.8125 24.96875 59.660156 26.125 59.660156 27.539062 L 59.660156 28.566406 L 58.921875 28.566406 C 58.691406 28.566406 58.503906 28.753906 58.503906 28.984375 L 58.503906 33.433594 C 58.503906 33.664062 58.691406 33.851562 58.921875 33.851562 Z M 60.492188 27.539062 C 60.492188 26.582031 61.269531 25.804688 62.226562 25.804688 L 62.304688 25.804688 C 63.261719 25.804688 64.039062 26.582031 64.039062 27.539062 L 64.039062 28.566406 L 60.492188 28.566406 Z M 59.335938 29.398438 L 64.925781 29.398438 L 64.925781 33.019531 L 59.335938 33.019531 Z M 59.335938 29.398438 " fill-opacity="1" fill-rule="nonzero"/><path fill="#004aad" d="M 62.132812 29.90625 C 61.664062 29.90625 61.285156 30.285156 61.285156 30.753906 C 61.285156 31.070312 61.460938 31.339844 61.714844 31.488281 L 61.714844 32.078125 C 61.714844 32.308594 61.902344 32.496094 62.132812 32.496094 C 62.363281 32.496094 62.546875 32.308594 62.546875 32.078125 L 62.546875 31.488281 C 62.804688 31.339844 62.980469 31.070312 62.980469 30.753906 C 62.980469 30.285156 62.601562 29.90625 62.132812 29.90625 Z M 62.132812 29.90625 " fill-opacity="1" fill-rule="nonzero"/><path fill="#004aad" d="M 73.347656 34.417969 C 71.484375 34.417969 69.96875 35.9375 69.96875 37.804688 C 69.96875 38.878906 70.472656 39.835938 71.253906 40.457031 L 71.253906 43.617188 C 71.253906 43.847656 71.4375 44.035156 71.667969 44.035156 L 75.03125 44.035156 C 75.261719 44.035156 75.445312 43.847656 75.445312 43.617188 L 75.445312 40.457031 C 76.226562 39.835938 76.730469 38.878906 76.730469 37.804688 C 76.730469 35.9375 75.214844 34.417969 73.347656 34.417969 Z M 72.085938 43.203125 L 72.085938 42.609375 L 74.613281 42.609375 L 74.613281 43.203125 Z M 74.613281 41.777344 L 72.085938 41.777344 L 72.085938 40.941406 C 72.476562 41.101562 72.902344 41.191406 73.347656 41.191406 C 73.796875 41.191406 74.222656 41.101562 74.613281 40.941406 Z M 73.765625 40.320312 L 73.765625 38.3125 C 73.765625 38.082031 73.578125 37.898438 73.347656 37.898438 C 73.121094 37.898438 72.933594 38.082031 72.933594 38.3125 L 72.933594 40.320312 C 71.726562 40.121094 70.800781 39.070312 70.800781 37.804688 C 70.800781 36.398438 71.945312 35.25 73.347656 35.25 C 74.753906 35.25 75.898438 36.398438 75.898438 37.804688 C 75.898438 39.070312 74.972656 40.121094 73.765625 40.320312 Z M 73.765625 40.320312 " fill-opacity="1" fill-rule="nonzero"/></svg>