<svg width="100" height="100" viewBox="0 0 100 100" fill="none" xmlns="http://www.w3.org/2000/svg">
<rect width="100" height="100" rx="20" fill="#0053CF"/>
<path d="M55.875 71.4286V75.7143C55.875 76.8509 55.4272 77.941 54.6302 78.7447C53.8332 79.5485 52.7522 80 51.625 80H47.375C46.2478 80 45.1668 79.5485 44.3698 78.7447C43.5728 77.941 43.125 76.8509 43.125 75.7143V71.4286M32.5 45.7143C32.5 41.1677 34.2911 36.8074 37.4792 33.5925C40.6673 30.3775 44.9913 28.5714 49.5 28.5714V35.1971C49.1597 35.0702 48.8003 35.0035 48.4375 35C47.5921 35 46.7814 35.3386 46.1836 35.9414C45.5858 36.5442 45.25 37.3618 45.25 38.2143C45.25 39.0668 45.5858 39.8843 46.1836 40.4871C46.7814 41.0899 47.5921 41.4286 48.4375 41.4286C48.8003 41.4251 49.1597 41.3584 49.5 41.2314V45.7143M32.5 45.7143H39.0705C38.9446 46.0574 38.8784 46.4199 38.875 46.7857C38.875 47.6382 39.2108 48.4558 39.8086 49.0586C40.4064 49.6614 41.2171 50 42.0625 50C42.9079 50 43.7186 49.6614 44.3164 49.0586C44.9142 48.4558 45.25 47.6382 45.25 46.7857C45.2466 46.4199 45.1804 46.0574 45.0545 45.7143H49.5M32.5 45.7143C32.5014 49.1279 33.5133 52.4634 35.4062 55.2934C37.2992 58.1235 39.9869 60.3192 43.125 61.5993V65M49.5 45.7143H53.9455C53.8196 45.3712 53.7534 45.0087 53.75 44.6429C53.75 43.7904 54.0858 42.9728 54.6836 42.37C55.2814 41.7672 56.0921 41.4286 56.9375 41.4286C57.7829 41.4286 58.5936 41.7672 59.1914 42.37C59.7892 42.9728 60.125 43.7904 60.125 44.6429C60.1216 45.0087 60.0554 45.3712 59.9295 45.7143H66.5C66.4986 49.1279 65.4867 52.4634 63.5938 55.2934C61.7008 58.1235 59.0131 60.3192 55.875 61.5993V65M49.5 45.7143V50.1971C49.8403 50.0702 50.1997 50.0035 50.5625 50C51.4079 50 52.2186 50.3386 52.8164 50.9414C53.4142 51.5442 53.75 52.3618 53.75 53.2143C53.75 54.0668 53.4142 54.8843 52.8164 55.4871C52.2186 56.0899 51.4079 56.4286 50.5625 56.4286C50.1997 56.4251 49.8403 56.3584 49.5 56.2314V65M49.5 20V24.2857M36.75 23.4446L38.875 27.1561M27.4159 32.8571L31.0964 35M24 45.7143H28.25M27.4159 58.5714L31.0964 56.4286M71.5841 58.5714L67.9036 56.4286M75 45.7143H70.75M47.375 71.4286V75.7143M51.625 71.4286V75.7143M62.4455 37.1429C62.3196 36.7997 62.2534 36.4373 62.25 36.0714C62.25 35.2189 62.5858 34.4014 63.1836 33.7986C63.7814 33.1958 64.5921 32.8571 65.4375 32.8571C66.2829 32.8571 67.0936 33.1958 67.6914 33.7986C68.2892 34.4014 68.625 35.2189 68.625 36.0714C68.6216 36.4373 68.5554 36.7997 68.4295 37.1429H75C75 32.5963 73.2089 28.2359 70.0208 25.021C66.8327 21.8061 62.5087 20 58 20V26.6257C57.6597 26.4987 57.3003 26.432 56.9375 26.4286C56.0921 26.4286 55.2814 26.7672 54.6836 27.37C54.0858 27.9728 53.75 28.7904 53.75 29.6429C53.75 30.4953 54.0858 31.3129 54.6836 31.9157C55.2814 32.5185 56.0921 32.8571 56.9375 32.8571C57.3003 32.8537 57.6597 32.787 58 32.66V37.1429H62.4455Z" stroke="white" stroke-width="2" stroke-linecap="round" stroke-linejoin="round"/>
<path d="M56.9766 65.3408H40.3099C39.1593 65.3408 38.2266 66.241 38.2266 67.3513V69.3618C38.2266 70.4722 39.1593 71.3723 40.3099 71.3723H56.9766C58.1272 71.3723 59.0599 70.4722 59.0599 69.3618V67.3513C59.0599 66.241 58.1272 65.3408 56.9766 65.3408Z" stroke="white" stroke-width="2" stroke-linecap="round" stroke-linejoin="round"/>
</svg>
