<svg width="101" height="100" viewBox="0 0 101 100" fill="none" xmlns="http://www.w3.org/2000/svg">
<rect width="100.8" height="99.4777" rx="20" fill="#0053CF"/>
<path d="M73.8225 45.4062H72.8013V27.875C72.8013 27.5937 72.7085 27.4062 72.5228 27.2188L65.6531 20.2812C65.4674 20.0937 65.2818 20 65.0033 20H34.5537C33.9967 20 33.6254 20.375 33.6254 20.9375V30.7812H25.456C22.9495 30.7812 21 32.8438 21 35.375V75.5C21 78.0312 23.0423 80 25.456 80H73.8225C76.1433 80 78 78.125 78 75.7812V49.5312C78 47.2812 76.1433 45.4062 73.8225 45.4062ZM65.9316 23.1875L69.645 26.9375H65.9316V23.1875ZM35.4821 21.875H64.0749V27.875C64.0749 28.4375 64.4463 28.8125 65.0033 28.8125H70.9446V45.3125H35.4821V21.875ZM28.4267 49.625V75.7812C28.4267 78.4062 25.5489 78.125 25.456 78.125C23.9707 78.125 22.8567 76.9062 22.8567 75.5V35.2812C22.8567 33.7812 24.0635 32.5625 25.456 32.5625H33.5326V45.3125H32.5114C30.2834 45.4062 28.4267 47.2812 28.4267 49.625ZM76.1433 75.7812C76.1433 77.0938 75.1222 78.125 73.8225 78.125H29.5407C30.0049 77.4688 30.2834 76.5312 30.2834 75.7812V49.5312C30.2834 46.5312 33.9039 47.2812 34.5537 47.1875H73.8225C75.1222 47.1875 76.1433 48.2188 76.1433 49.5312V75.7812Z" fill="white"/>
<path d="M39.4333 28.8738H57.82C58.38 28.8738 58.7533 28.499 58.7533 27.9369C58.7533 27.3748 58.38 27 57.82 27H39.4333C38.8733 27 38.5 27.3748 38.5 27.9369C38.5 28.499 38.9667 28.8738 39.4333 28.8738ZM65.5667 32.3403H39.4333C38.8733 32.3403 38.5 32.7151 38.5 33.2772C38.5 33.8394 38.8733 34.2141 39.4333 34.2141H65.5667C66.1267 34.2141 66.5 33.8394 66.5 33.2772C66.5 32.8088 66.0333 32.3403 65.5667 32.3403ZM65.5667 37.6807H39.4333C38.8733 37.6807 38.5 38.0554 38.5 38.6176C38.5 39.1797 38.8733 39.5545 39.4333 39.5545H65.5667C66.1267 39.5545 66.5 39.1797 66.5 38.6176C66.5 38.1491 66.0333 37.6807 65.5667 37.6807ZM59.5 58.3862V56.4187C59.5 52.4837 56.3267 49.392 52.5 49.392C48.58 49.392 45.5 52.5774 45.5 56.4187V58.3862C44.0067 58.761 42.98 60.1663 42.98 61.7591V72.5335C42.98 74.5009 44.5667 76 46.4333 76H58.5667C60.5267 76 62.02 74.4073 62.02 72.5335V61.7591C62.1133 60.1663 60.9933 58.8547 59.5 58.3862ZM47.3667 56.4187C47.3667 53.608 49.7 51.2658 52.5 51.2658C55.3 51.2658 57.6333 53.608 57.6333 56.4187V58.1989H55.7667V56.4187C55.7667 54.6386 54.2733 53.1396 52.5 53.1396C50.7267 53.1396 49.2333 54.6386 49.2333 56.4187V58.1989H47.3667V56.4187ZM53.9 56.4187V58.1989H51.0067V56.4187C51.0067 55.6692 51.66 55.0134 52.4067 55.0134C53.2467 55.0134 53.9 55.6692 53.9 56.4187ZM60.2467 72.5335C60.2467 73.4704 59.5 74.1262 58.66 74.1262H46.5267C45.5933 74.1262 44.94 73.3767 44.94 72.5335V61.7591C44.94 60.8222 45.6867 60.1663 46.5267 60.1663H58.66C59.5933 60.1663 60.2467 60.9159 60.2467 61.7591V72.5335Z" fill="white"/>
<path d="M53 63C51.1 63 49.5 64.3793 49.5 66.0172C49.5 67.3966 50.6 68.5172 52 68.9483V72.1379C52 72.6552 52.4 73 53 73C53.6 73 54 72.6552 54 72.1379V68.9483C55.5 68.6034 56.5 67.3966 56.5 66.0172C56.5 64.2931 54.9 63 53 63ZM53 67.3103C52.2 67.3103 51.5 66.7069 51.5 66.0172C51.5 65.3276 52.2 64.7241 53 64.7241C53.8 64.7241 54.5 65.3276 54.5 66.0172C54.5 66.7069 53.8 67.3103 53 67.3103Z" fill="white"/>
</svg>
