<svg width="100" height="100" viewBox="0 0 100 100" fill="none" xmlns="http://www.w3.org/2000/svg">
<rect width="100" height="100" rx="20" fill="#0053CF"/>
<path d="M78.7996 76.5385H73.6476V28.2633C73.647 27.9028 73.5247 27.5531 73.3005 27.2708C73.0763 26.9886 72.7634 26.7903 72.4124 26.7081L45.1484 20.3081C44.9145 20.2488 44.6699 20.2451 44.4343 20.2974C44.1987 20.3496 43.9786 20.4563 43.7916 20.6089C43.6022 20.7586 43.4491 20.9491 43.3438 21.1664C43.2385 21.3836 43.1838 21.6219 43.1836 21.8633V33.0857H27.9356C27.5113 33.0857 27.1043 33.2542 26.8042 33.5543C26.5042 33.8544 26.3356 34.2613 26.3356 34.6857V76.5385H21.1996C20.7753 76.5385 20.3683 76.7071 20.0682 77.0071C19.7682 77.3072 19.5996 77.7141 19.5996 78.1385C19.5996 78.5628 19.7682 78.9698 20.0682 79.2698C20.3683 79.5699 20.7753 79.7385 21.1996 79.7385H78.7996C79.224 79.7385 79.6309 79.5699 79.931 79.2698C80.231 78.9698 80.3996 78.5628 80.3996 78.1385C80.3996 77.7141 80.231 77.3072 79.931 77.0071C79.6309 76.7071 79.224 76.5385 78.7996 76.5385ZM46.3836 23.8825L70.4476 29.5209V76.5385H56.822V34.6857C56.822 34.2613 56.6534 33.8544 56.3534 33.5543C56.0533 33.2542 55.6464 33.0857 55.222 33.0857H46.3836V23.8825ZM29.5356 36.2857H44.7228C44.7452 36.2857 44.7612 36.2857 44.7836 36.2857C44.806 36.2857 44.8252 36.2857 44.8476 36.2857H53.622V76.5385H29.5356V36.2857ZM61.4332 71.4857C61.4332 71.0613 61.6018 70.6544 61.9018 70.3543C62.2019 70.0543 62.6089 69.8857 63.0332 69.8857H65.7564C66.1808 69.8857 66.5877 70.0543 66.8878 70.3543C67.1878 70.6544 67.3564 71.0613 67.3564 71.4857C67.3564 71.91 67.1878 72.317 66.8878 72.617C66.5877 72.9171 66.1808 73.0857 65.7564 73.0857H63.0332C62.8223 73.0857 62.6134 73.044 62.4187 72.963C62.2239 72.882 62.0471 72.7633 61.8984 72.6137C61.7497 72.4641 61.6321 72.2866 61.5522 72.0913C61.4724 71.8961 61.4319 71.687 61.4332 71.4761V71.4857ZM50.5148 71.4857C50.5148 71.91 50.3462 72.317 50.0462 72.617C49.7461 72.9171 49.3392 73.0857 48.9148 73.0857H46.1948C45.7705 73.0857 45.3635 72.9171 45.0634 72.617C44.7634 72.317 44.5948 71.91 44.5948 71.4857C44.5948 71.0613 44.7634 70.6544 45.0634 70.3543C45.3635 70.0543 45.7705 69.8857 46.1948 69.8857H48.9148C49.3375 69.8857 49.743 70.0529 50.0428 70.3509C50.3426 70.6489 50.5123 71.0534 50.5148 71.4761V71.4857ZM50.5148 64.1001C50.5148 64.5244 50.3462 64.9314 50.0462 65.2315C49.7461 65.5315 49.3392 65.7001 48.9148 65.7001H46.1948C45.7705 65.7001 45.3635 65.5315 45.0634 65.2315C44.7634 64.9314 44.5948 64.5244 44.5948 64.1001C44.5948 63.6757 44.7634 63.2688 45.0634 62.9687C45.3635 62.6687 45.7705 62.5001 46.1948 62.5001H48.9148C49.3359 62.5 49.7399 62.666 50.0394 62.9619C50.339 63.2578 50.5098 63.6599 50.5148 64.0809V64.1001ZM50.5148 56.7145C50.5148 57.1388 50.3462 57.5458 50.0462 57.8459C49.7461 58.1459 49.3392 58.3145 48.9148 58.3145H46.1948C45.7705 58.3145 45.3635 58.1459 45.0634 57.8459C44.7634 57.5458 44.5948 57.1388 44.5948 56.7145C44.5948 56.2901 44.7634 55.8832 45.0634 55.5831C45.3635 55.2831 45.7705 55.1145 46.1948 55.1145H48.9148C49.1255 55.1145 49.334 55.1561 49.5286 55.2369C49.7231 55.3177 49.8998 55.4361 50.0485 55.5854C50.1971 55.7346 50.3148 55.9118 50.3949 56.1066C50.4749 56.3015 50.5157 56.5102 50.5148 56.7209V56.7145ZM50.5148 49.3289C50.5148 49.7532 50.3462 50.1602 50.0462 50.4603C49.7461 50.7603 49.3392 50.9289 48.9148 50.9289H46.1948C45.7705 50.9289 45.3635 50.7603 45.0634 50.4603C44.7634 50.1602 44.5948 49.7532 44.5948 49.3289C44.5948 48.9045 44.7634 48.4976 45.0634 48.1975C45.3635 47.8974 45.7705 47.7289 46.1948 47.7289H48.9148C49.3375 47.7289 49.743 47.8961 50.0428 48.1941C50.3426 48.4921 50.5123 48.8966 50.5148 49.3193V49.3289ZM44.5948 41.9433C44.5948 41.5189 44.7634 41.112 45.0634 40.8119C45.3635 40.5118 45.7705 40.3433 46.1948 40.3433H48.9148C49.3392 40.3433 49.7461 40.5118 50.0462 40.8119C50.3462 41.112 50.5148 41.5189 50.5148 41.9433C50.5148 42.3676 50.3462 42.7746 50.0462 43.0746C49.7461 43.3747 49.3392 43.5433 48.9148 43.5433H46.1948C45.9839 43.5433 45.775 43.5016 45.5803 43.4206C45.3855 43.3396 45.2087 43.2209 45.06 43.0713C44.9113 42.9217 44.7937 42.7441 44.7138 42.5489C44.634 42.3537 44.5935 42.1446 44.5948 41.9337V41.9433ZM38.566 71.4761C38.566 71.9004 38.3974 72.3074 38.0974 72.6075C37.7973 72.9075 37.3904 73.0761 36.966 73.0761H34.2428C33.8185 73.0761 33.4115 72.9075 33.1114 72.6075C32.8114 72.3074 32.6428 71.9004 32.6428 71.4761C32.6428 71.0517 32.8114 70.6448 33.1114 70.3447C33.4115 70.0447 33.8185 69.8761 34.2428 69.8761H36.966C37.3904 69.8761 37.7973 70.0447 38.0974 70.3447C38.3974 70.6448 38.566 71.0517 38.566 71.4761ZM38.566 64.0905C38.566 64.5148 38.3974 64.9218 38.0974 65.2219C37.7973 65.5219 37.3904 65.6905 36.966 65.6905H34.2428C33.8185 65.6905 33.4115 65.5219 33.1114 65.2219C32.8114 64.9218 32.6428 64.5148 32.6428 64.0905C32.6428 63.6661 32.8114 63.2592 33.1114 62.9591C33.4115 62.659 33.8185 62.4905 34.2428 62.4905H36.966C37.3887 62.4905 37.7942 62.6577 38.094 62.9557C38.3938 63.2537 38.5635 63.6582 38.566 64.0809V64.0905ZM38.566 56.7049C38.566 57.1292 38.3974 57.5362 38.0974 57.8363C37.7973 58.1363 37.3904 58.3049 36.966 58.3049H34.2428C33.8185 58.3049 33.4115 58.1363 33.1114 57.8363C32.8114 57.5362 32.6428 57.1292 32.6428 56.7049C32.6428 56.2805 32.8114 55.8736 33.1114 55.5735C33.4115 55.2734 33.8185 55.1049 34.2428 55.1049H36.966C37.1775 55.1049 37.3869 55.1468 37.582 55.2282C37.7772 55.3096 37.9543 55.4289 38.1031 55.5792C38.2519 55.7294 38.3694 55.9077 38.4488 56.1037C38.5283 56.2996 38.5681 56.5094 38.566 56.7209V56.7049ZM38.566 49.3193C38.566 49.7436 38.3974 50.1506 38.0974 50.4507C37.7973 50.7507 37.3904 50.9193 36.966 50.9193H34.2428C33.8185 50.9193 33.4115 50.7507 33.1114 50.4507C32.8114 50.1506 32.6428 49.7436 32.6428 49.3193C32.6428 48.8949 32.8114 48.488 33.1114 48.1879C33.4115 47.8879 33.8185 47.7193 34.2428 47.7193H36.966C37.1761 47.7193 37.3842 47.7607 37.5783 47.8411C37.7724 47.9215 37.9488 48.0393 38.0974 48.1879C38.246 48.3365 38.3638 48.5129 38.4442 48.707C38.5246 48.9011 38.566 49.1092 38.566 49.3193ZM38.566 41.9337C38.566 42.358 38.3974 42.765 38.0974 43.0651C37.7973 43.3651 37.3904 43.5337 36.966 43.5337H34.2428C33.8185 43.5337 33.4115 43.3651 33.1114 43.0651C32.8114 42.765 32.6428 42.358 32.6428 41.9337C32.6428 41.5093 32.8114 41.1024 33.1114 40.8023C33.4115 40.5022 33.8185 40.3337 34.2428 40.3337H36.966C37.3904 40.3337 37.7973 40.5022 38.0974 40.8023C38.3974 41.1024 38.566 41.5093 38.566 41.9337ZM61.4332 64.0809C61.4332 63.6565 61.6018 63.2496 61.9018 62.9495C62.2019 62.6494 62.6089 62.4809 63.0332 62.4809H65.7564C66.1808 62.4809 66.5877 62.6494 66.8878 62.9495C67.1878 63.2496 67.3564 63.6565 67.3564 64.0809C67.3564 64.5052 67.1878 64.9122 66.8878 65.2122C66.5877 65.5123 66.1808 65.6809 65.7564 65.6809H63.0332C62.6089 65.6809 62.2019 65.5123 61.9018 65.2122C61.6018 64.9122 61.4332 64.5052 61.4332 64.0809ZM61.4332 56.6953C61.4332 56.2709 61.6018 55.864 61.9018 55.5639C62.2019 55.2638 62.6089 55.0953 63.0332 55.0953H65.7564C66.1808 55.0953 66.5877 55.2638 66.8878 55.5639C67.1878 55.864 67.3564 56.2709 67.3564 56.6953C67.3564 57.1196 67.1878 57.5266 66.8878 57.8267C66.5877 58.1267 66.1808 58.2953 65.7564 58.2953H63.0332C62.6133 58.2953 62.2101 58.1303 61.9108 57.8357C61.6115 57.5412 61.4399 57.1408 61.4332 56.7209V56.6953ZM61.4332 49.3097C61.4332 48.8853 61.6018 48.4784 61.9018 48.1783C62.2019 47.8783 62.6089 47.7097 63.0332 47.7097H65.7564C66.1808 47.7097 66.5877 47.8783 66.8878 48.1783C67.1878 48.4784 67.3564 48.8853 67.3564 49.3097C67.3564 49.734 67.1878 50.141 66.8878 50.441C66.5877 50.7411 66.1808 50.9097 65.7564 50.9097H63.0332C62.6105 50.9097 62.205 50.7424 61.9052 50.4444C61.6054 50.1465 61.4357 49.742 61.4332 49.3193V49.3097ZM61.4332 41.9241C61.4332 41.4997 61.6018 41.0928 61.9018 40.7927C62.2019 40.4926 62.6089 40.3241 63.0332 40.3241H65.7564C66.1808 40.3241 66.5877 40.4926 66.8878 40.7927C67.1878 41.0928 67.3564 41.4997 67.3564 41.9241C67.3564 42.3484 67.1878 42.7554 66.8878 43.0554C66.5877 43.3555 66.1808 43.5241 65.7564 43.5241H63.0332C62.6105 43.5241 62.205 43.3568 61.9052 43.0588C61.6054 42.7609 61.4357 42.3564 61.4332 41.9337V41.9241ZM61.4332 34.5385C61.4332 34.1141 61.6018 33.7072 61.9018 33.4071C62.2019 33.107 62.6089 32.9385 63.0332 32.9385H65.7564C66.1808 32.9385 66.5877 33.107 66.8878 33.4071C67.1878 33.7072 67.3564 34.1141 67.3564 34.5385C67.3564 34.9628 67.1878 35.3698 66.8878 35.6698C66.5877 35.9699 66.1808 36.1385 65.7564 36.1385H63.0332C62.6105 36.1385 62.205 35.9712 61.9052 35.6732C61.6054 35.3753 61.4357 34.9708 61.4332 34.5481V34.5385Z" fill="white"/>
</svg>
