<svg xmlns="http://www.w3.org/2000/svg" xmlns:xlink="http://www.w3.org/1999/xlink" width="150" zoomAndPan="magnify" viewBox="0 0 112.5 89.999999" height="120" preserveAspectRatio="xMidYMid meet" version="1.0"><defs><clipPath id="17fe8774ac"><path d="M 0 0.199219 L 112.003906 0.199219 L 112.003906 89.800781 L 0 89.800781 Z M 0 0.199219 " clip-rule="nonzero"/></clipPath><clipPath id="72ff418dbf"><path d="M 62 27.199219 L 68.242188 27.199219 L 68.242188 63.199219 L 62 63.199219 Z M 62 27.199219 " clip-rule="nonzero"/></clipPath><clipPath id="c89914769c"><path d="M 39.742188 27.199219 L 64 27.199219 L 64 63.199219 L 39.742188 63.199219 Z M 39.742188 27.199219 " clip-rule="nonzero"/></clipPath></defs><g clip-path="url(#17fe8774ac)"><path fill="#ffffff" d="M 0 0.199219 L 112.5 0.199219 L 112.5 97.699219 L 0 97.699219 Z M 0 0.199219 " fill-opacity="1" fill-rule="nonzero"/><path fill="#ffffff" d="M 0 0.199219 L 112.5 0.199219 L 112.5 90.199219 L 0 90.199219 Z M 0 0.199219 " fill-opacity="1" fill-rule="nonzero"/><path fill="#ffffff" d="M 0 0.199219 L 112.5 0.199219 L 112.5 90.199219 L 0 90.199219 Z M 0 0.199219 " fill-opacity="1" fill-rule="nonzero"/></g><g clip-path="url(#72ff418dbf)"><path fill="#274281" d="M 66.996094 27.199219 L 62.042969 27.199219 L 62.042969 63.199219 L 66.996094 63.199219 C 67.679688 63.199219 68.234375 62.644531 68.234375 61.957031 L 68.234375 28.441406 C 68.234375 27.753906 67.679688 27.199219 66.996094 27.199219 " fill-opacity="1" fill-rule="nonzero"/></g><g clip-path="url(#c89914769c)"><path fill="#4b75c1" d="M 62.042969 27.199219 L 40.992188 27.199219 C 40.304688 27.199219 39.753906 27.753906 39.753906 28.441406 L 39.753906 61.957031 C 39.753906 62.644531 40.304688 63.199219 40.992188 63.199219 L 62.042969 63.199219 C 62.726562 63.199219 63.28125 62.644531 63.28125 61.957031 L 63.28125 28.441406 C 63.28125 27.753906 62.726562 27.199219 62.042969 27.199219 " fill-opacity="1" fill-rule="nonzero"/></g><path fill="#90caeb" d="M 60.804688 39.613281 L 42.230469 39.613281 C 41.542969 39.613281 40.992188 39.058594 40.992188 38.371094 L 40.992188 32.164062 C 40.992188 31.480469 41.542969 30.921875 42.230469 30.921875 L 60.804688 30.921875 C 61.488281 30.921875 62.042969 31.480469 62.042969 32.164062 L 62.042969 38.371094 C 62.042969 39.058594 61.488281 39.613281 60.804688 39.613281 " fill-opacity="1" fill-rule="nonzero"/><path fill="#3551a6" d="M 44.085938 34.027344 C 43.746094 34.027344 43.46875 34.304688 43.46875 34.648438 L 43.46875 35.890625 C 43.46875 36.230469 43.746094 36.507812 44.085938 36.507812 C 44.425781 36.507812 44.707031 36.230469 44.707031 35.890625 L 44.707031 34.648438 C 44.707031 34.304688 44.425781 34.027344 44.085938 34.027344 Z M 44.085938 37.75 C 43.0625 37.75 42.230469 36.914062 42.230469 35.890625 L 42.230469 34.648438 C 42.230469 33.621094 43.0625 32.785156 44.085938 32.785156 C 45.109375 32.785156 45.945312 33.621094 45.945312 34.648438 L 45.945312 35.890625 C 45.945312 36.914062 45.109375 37.75 44.085938 37.75 " fill-opacity="1" fill-rule="nonzero"/><path fill="#3551a6" d="M 51.515625 34.027344 C 51.175781 34.027344 50.898438 34.304688 50.898438 34.648438 L 50.898438 35.890625 C 50.898438 36.230469 51.175781 36.507812 51.515625 36.507812 C 51.855469 36.507812 52.136719 36.230469 52.136719 35.890625 L 52.136719 34.648438 C 52.136719 34.304688 51.855469 34.027344 51.515625 34.027344 Z M 51.515625 37.75 C 50.492188 37.75 49.660156 36.914062 49.660156 35.890625 L 49.660156 34.648438 C 49.660156 33.621094 50.492188 32.785156 51.515625 32.785156 C 52.539062 32.785156 53.375 33.621094 53.375 34.648438 L 53.375 35.890625 C 53.375 36.914062 52.539062 37.75 51.515625 37.75 " fill-opacity="1" fill-rule="nonzero"/><path fill="#3551a6" d="M 58.945312 34.027344 C 58.605469 34.027344 58.328125 34.304688 58.328125 34.648438 L 58.328125 35.890625 C 58.328125 36.230469 58.605469 36.507812 58.945312 36.507812 C 59.289062 36.507812 59.566406 36.230469 59.566406 35.890625 L 59.566406 34.648438 C 59.566406 34.304688 59.289062 34.027344 58.945312 34.027344 Z M 58.945312 37.75 C 57.921875 37.75 57.089844 36.914062 57.089844 35.890625 L 57.089844 34.648438 C 57.089844 33.621094 57.921875 32.785156 58.945312 32.785156 C 59.96875 32.785156 60.804688 33.621094 60.804688 34.648438 L 60.804688 35.890625 C 60.804688 36.914062 59.96875 37.75 58.945312 37.75 " fill-opacity="1" fill-rule="nonzero"/><path fill="#e6ba37" d="M 54.160156 50.632812 C 53.457031 49.929688 52.527344 49.542969 51.535156 49.542969 C 50.542969 49.542969 49.609375 49.929688 48.90625 50.632812 L 48.03125 49.757812 C 48.964844 48.820312 50.210938 48.300781 51.535156 48.300781 C 52.855469 48.300781 54.101562 48.820312 55.035156 49.757812 L 54.160156 50.632812 " fill-opacity="1" fill-rule="nonzero"/><path fill="#e6ba37" d="M 50.65625 52.390625 L 49.78125 51.511719 C 50.25 51.042969 50.871094 50.785156 51.535156 50.785156 C 52.195312 50.785156 52.816406 51.042969 53.285156 51.511719 L 52.410156 52.390625 C 52.175781 52.15625 51.863281 52.027344 51.535156 52.027344 C 51.203125 52.027344 50.890625 52.15625 50.65625 52.390625 " fill-opacity="1" fill-rule="nonzero"/><path fill="#e6ba37" d="M 55.910156 48.878906 C 54.742188 47.707031 53.1875 47.0625 51.535156 47.0625 C 49.878906 47.0625 48.324219 47.707031 47.15625 48.878906 L 46.28125 48 C 47.683594 46.59375 49.550781 45.820312 51.535156 45.820312 C 53.519531 45.820312 55.382812 46.59375 56.789062 48 L 55.910156 48.878906 " fill-opacity="1" fill-rule="nonzero"/><path fill="#3551a6" d="M 55.851562 43.335938 L 52.136719 43.335938 L 52.136719 42.09375 L 55.851562 42.09375 L 55.851562 43.335938 " fill-opacity="1" fill-rule="nonzero"/><path fill="#3551a6" d="M 60.804688 43.335938 L 57.707031 43.335938 L 57.707031 42.09375 L 60.804688 42.09375 L 60.804688 43.335938 " fill-opacity="1" fill-rule="nonzero"/><path fill="#90caeb" d="M 45.324219 54.507812 C 44.640625 54.507812 44.085938 55.066406 44.085938 55.75 C 44.085938 56.4375 44.640625 56.992188 45.324219 56.992188 C 46.007812 56.992188 46.5625 56.4375 46.5625 55.75 C 46.5625 55.066406 46.007812 54.507812 45.324219 54.507812 " fill-opacity="1" fill-rule="nonzero"/><path fill="#90caeb" d="M 51.515625 54.507812 C 50.832031 54.507812 50.277344 55.066406 50.277344 55.75 C 50.277344 56.4375 50.832031 56.992188 51.515625 56.992188 C 52.199219 56.992188 52.753906 56.4375 52.753906 55.75 C 52.753906 55.066406 52.199219 54.507812 51.515625 54.507812 " fill-opacity="1" fill-rule="nonzero"/><path fill="#90caeb" d="M 57.707031 54.507812 C 57.023438 54.507812 56.46875 55.066406 56.46875 55.75 C 56.46875 56.4375 57.023438 56.992188 57.707031 56.992188 C 58.390625 56.992188 58.945312 56.4375 58.945312 55.75 C 58.945312 55.066406 58.390625 54.507812 57.707031 54.507812 " fill-opacity="1" fill-rule="nonzero"/><path fill="#90caeb" d="M 47.183594 60.09375 L 43.46875 60.09375 L 43.46875 58.855469 L 47.183594 58.855469 L 47.183594 60.09375 " fill-opacity="1" fill-rule="nonzero"/><path fill="#90caeb" d="M 53.375 60.09375 L 49.660156 60.09375 L 49.660156 58.855469 L 53.375 58.855469 L 53.375 60.09375 " fill-opacity="1" fill-rule="nonzero"/><path fill="#90caeb" d="M 59.566406 60.09375 L 55.851562 60.09375 L 55.851562 58.855469 L 59.566406 58.855469 L 59.566406 60.09375 " fill-opacity="1" fill-rule="nonzero"/><path fill="#4b75c1" d="M 48.421875 39.613281 L 47.183594 39.613281 L 47.183594 30.921875 L 48.421875 30.921875 L 48.421875 39.613281 " fill-opacity="1" fill-rule="nonzero"/><path fill="#4b75c1" d="M 55.851562 39.613281 L 54.613281 39.613281 L 54.613281 30.921875 L 55.851562 30.921875 L 55.851562 39.613281 " fill-opacity="1" fill-rule="nonzero"/></svg>