<svg xmlns="http://www.w3.org/2000/svg" xmlns:xlink="http://www.w3.org/1999/xlink" width="150" zoomAndPan="magnify" viewBox="0 0 112.5 89.999999" height="120" preserveAspectRatio="xMidYMid meet" version="1.0"><defs><clipPath id="e99011d4d7"><path d="M 0 0.199219 L 112.003906 0.199219 L 112.003906 89.800781 L 0 89.800781 Z M 0 0.199219 " clip-rule="nonzero"/></clipPath><clipPath id="7e13475b24"><path d="M 38.25 34 L 54 34 L 54 63.199219 L 38.25 63.199219 Z M 38.25 34 " clip-rule="nonzero"/></clipPath><clipPath id="7f73e1fd1c"><path d="M 58 34 L 74.25 34 L 74.25 63.199219 L 58 63.199219 Z M 58 34 " clip-rule="nonzero"/></clipPath><clipPath id="5f83a34e55"><path d="M 46 27.199219 L 67 27.199219 L 67 50 L 46 50 Z M 46 27.199219 " clip-rule="nonzero"/></clipPath></defs><g clip-path="url(#e99011d4d7)"><path fill="#ffffff" d="M 0 0.199219 L 112.5 0.199219 L 112.5 97.699219 L 0 97.699219 Z M 0 0.199219 " fill-opacity="1" fill-rule="nonzero"/><path fill="#ffffff" d="M 0 0.199219 L 112.5 0.199219 L 112.5 90.199219 L 0 90.199219 Z M 0 0.199219 " fill-opacity="1" fill-rule="nonzero"/><path fill="#ffffff" d="M 0 0.199219 L 112.5 0.199219 L 112.5 90.199219 L 0 90.199219 Z M 0 0.199219 " fill-opacity="1" fill-rule="nonzero"/></g><g clip-path="url(#7e13475b24)"><path fill="#004aad" d="M 44.25 60.355469 L 44.25 63.199219 L 45.449219 63.199219 L 45.449219 60.199219 C 45.449219 60.097656 45.425781 59.996094 45.375 59.910156 L 39.980469 50.195312 C 39.632812 49.574219 39.449219 48.867188 39.449219 48.15625 L 39.449219 36.800781 C 39.449219 36.136719 39.988281 35.597656 40.648438 35.597656 C 41.3125 35.597656 41.851562 36.136719 41.851562 36.800781 L 41.851562 45.410156 C 41.105469 46.28125 41.105469 47.570312 41.890625 48.429688 L 46.808594 53.839844 L 47.691406 53.03125 L 42.777344 47.621094 C 42.386719 47.191406 42.402344 46.53125 42.8125 46.117188 C 43.027344 45.90625 43.316406 45.796875 43.613281 45.800781 C 43.917969 45.808594 44.195312 45.933594 44.394531 46.160156 L 48.605469 50.835938 C 48.648438 50.882812 48.730469 50.941406 48.785156 50.972656 C 51.167969 52.335938 52.648438 54.886719 52.648438 57.636719 L 52.648438 63.199219 L 53.851562 63.199219 L 53.851562 57.199219 L 53.835938 57.199219 C 53.6875 54.226562 52.046875 51.496094 49.433594 49.964844 L 45.289062 45.359375 C 44.863281 44.886719 44.28125 44.617188 43.644531 44.597656 C 43.4375 44.59375 43.242188 44.625 43.050781 44.667969 L 43.050781 36.800781 C 43.050781 35.476562 41.972656 34.398438 40.648438 34.398438 C 39.324219 34.398438 38.25 35.476562 38.25 36.800781 L 38.25 48.15625 C 38.25 49.070312 38.484375 49.976562 38.929688 50.777344 L 44.25 60.355469 " fill-opacity="1" fill-rule="nonzero"/></g><g clip-path="url(#7f73e1fd1c)"><path fill="#004aad" d="M 71.851562 34.398438 C 70.527344 34.398438 69.449219 35.476562 69.449219 36.800781 L 69.449219 44.667969 C 69.257812 44.625 69.058594 44.59375 68.855469 44.597656 C 68.21875 44.617188 67.636719 44.886719 67.210938 45.359375 L 63.066406 49.960938 C 60.46875 51.472656 58.8125 54.210938 58.664062 57.199219 L 58.648438 57.199219 L 58.648438 63.199219 L 59.851562 63.199219 L 59.851562 57.636719 C 59.851562 54.886719 61.332031 52.335938 63.742188 50.957031 C 63.800781 50.925781 63.851562 50.886719 63.894531 50.835938 L 68.105469 46.160156 C 68.304688 45.933594 68.582031 45.808594 68.886719 45.800781 C 69.195312 45.800781 69.472656 45.90625 69.6875 46.117188 C 70.097656 46.53125 70.113281 47.191406 69.722656 47.621094 L 64.808594 53.03125 L 65.691406 53.839844 L 70.609375 48.429688 C 71.394531 47.570312 71.394531 46.28125 70.648438 45.410156 L 70.648438 36.800781 C 70.648438 36.136719 71.1875 35.597656 71.851562 35.597656 C 72.511719 35.597656 73.050781 36.136719 73.050781 36.800781 L 73.050781 48.089844 C 73.050781 48.839844 72.847656 49.578125 72.460938 50.234375 L 67.125 59.910156 C 67.074219 59.996094 67.050781 60.097656 67.050781 60.199219 L 67.050781 63.199219 L 68.25 63.199219 L 68.25 60.355469 L 73.503906 50.832031 C 73.992188 50 74.25 49.054688 74.25 48.089844 L 74.25 36.800781 C 74.25 35.476562 73.175781 34.398438 71.851562 34.398438 " fill-opacity="1" fill-rule="nonzero"/></g><g clip-path="url(#5f83a34e55)"><path fill="#004aad" d="M 65.25 43.496094 L 56.851562 48.359375 L 56.851562 38.949219 L 65.25 34.226562 Z M 56.25 37.910156 L 52.40625 35.75 L 60.78125 31.039062 L 64.625 33.199219 Z M 55.648438 48.359375 L 47.25 43.496094 L 47.25 34.226562 L 55.648438 38.949219 Z M 56.25 28.488281 L 59.558594 30.347656 L 51.183594 35.058594 L 47.875 33.199219 Z M 66.449219 43.84375 L 66.449219 33.199219 C 66.449219 33.144531 66.441406 33.09375 66.429688 33.042969 C 66.425781 33.027344 66.414062 33.007812 66.40625 32.992188 C 66.394531 32.960938 66.386719 32.925781 66.367188 32.898438 C 66.359375 32.878906 66.34375 32.867188 66.332031 32.851562 C 66.3125 32.828125 66.296875 32.796875 66.273438 32.773438 C 66.261719 32.761719 66.242188 32.753906 66.230469 32.738281 C 66.203125 32.722656 66.179688 32.699219 66.152344 32.679688 C 66.152344 32.679688 66.148438 32.679688 66.148438 32.679688 C 66.144531 32.679688 66.144531 32.675781 66.144531 32.675781 L 56.542969 27.277344 C 56.359375 27.171875 56.140625 27.171875 55.957031 27.277344 L 46.355469 32.675781 C 46.355469 32.675781 46.355469 32.679688 46.351562 32.679688 C 46.351562 32.679688 46.347656 32.679688 46.347656 32.679688 C 46.320312 32.699219 46.296875 32.722656 46.269531 32.738281 C 46.257812 32.753906 46.238281 32.761719 46.226562 32.773438 C 46.203125 32.796875 46.1875 32.828125 46.167969 32.851562 C 46.15625 32.867188 46.140625 32.878906 46.132812 32.898438 C 46.113281 32.925781 46.105469 32.960938 46.09375 32.992188 C 46.085938 33.007812 46.074219 33.027344 46.070312 33.042969 C 46.058594 33.09375 46.050781 33.144531 46.050781 33.199219 L 46.050781 43.84375 C 46.050781 44.058594 46.164062 44.257812 46.351562 44.363281 L 55.949219 49.917969 C 55.984375 49.941406 56.023438 49.953125 56.066406 49.964844 C 56.074219 49.96875 56.082031 49.976562 56.09375 49.980469 C 56.148438 49.992188 56.199219 50 56.25 50 C 56.300781 50 56.351562 49.992188 56.40625 49.980469 C 56.417969 49.976562 56.425781 49.96875 56.433594 49.964844 C 56.476562 49.953125 56.515625 49.941406 56.550781 49.917969 L 66.148438 44.363281 C 66.335938 44.257812 66.449219 44.058594 66.449219 43.84375 " fill-opacity="1" fill-rule="nonzero"/></g><path fill="#004aad" d="M 64.050781 42.199219 L 62.851562 42.199219 L 62.851562 43.398438 L 64.050781 43.398438 L 64.050781 42.199219 " fill-opacity="1" fill-rule="nonzero"/><path fill="#004aad" d="M 61.648438 43.398438 L 60.449219 43.398438 L 60.449219 44.597656 L 61.648438 44.597656 L 61.648438 43.398438 " fill-opacity="1" fill-rule="nonzero"/><path fill="#004aad" d="M 59.25 44.597656 L 58.050781 44.597656 L 58.050781 45.800781 L 59.25 45.800781 L 59.25 44.597656 " fill-opacity="1" fill-rule="nonzero"/></svg>