<svg width="65" height="65" viewBox="0 0 65 65" fill="none" xmlns="http://www.w3.org/2000/svg">
<path d="M22.0898 12.6953V7.46484C22.0898 3.96094 16.707 2.13281 11.375 2.13281C6.04297 2.13281 0.609375 3.96094 0.609375 7.46484V21.0742C0.609375 23.6133 3.75781 25.6445 8.53125 26.2031V31.4336C8.53125 34.9375 13.9141 36.7656 19.2461 36.7656C24.5781 36.7656 29.9609 34.9375 29.9609 31.4336V17.8242C29.9609 14.9805 26.3555 13.2031 22.0898 12.6953ZM9.90234 15.082C6.90625 14.8789 4.62109 14.0664 3.50391 13.1523V10.0039C5.12891 11.1719 7.97266 11.8828 11.3242 11.8828C14.6758 11.8828 17.5195 11.1211 19.1445 10.0039V12.543C15.4883 12.543 11.832 13.4062 9.90234 15.082ZM27.1172 23.5625C25.7969 24.6289 22.9023 25.543 19.2969 25.543C15.6914 25.543 12.7461 24.6289 11.4766 23.5625V20.4141C13.1016 21.582 15.9453 22.293 19.2969 22.293C22.6484 22.293 25.4922 21.5312 27.1172 20.4141V23.5625ZM3.50391 14.9297C4.875 15.6914 6.80469 16.25 8.83594 16.4531C8.63281 16.8594 8.53125 17.3164 8.53125 17.8242V19.4492C6.14453 19.1445 4.41797 18.4336 3.50391 17.6719V14.9297ZM11.4258 25.2891C13.2539 26.3047 15.9961 26.9648 19.2461 26.9648C22.4961 26.9648 25.2891 26.3047 27.0664 25.2891V28.0312C25.7461 29.0977 22.8516 30.0117 19.2461 30.0117C15.6406 30.0117 12.6953 29.0977 11.4258 28.0312V25.2891ZM27.1172 17.8242V18.2812C26.6094 19.5508 23.4102 20.8203 19.2969 20.8203C15.1328 20.8203 11.9336 19.5508 11.4766 18.2812V17.8242C11.4766 17.1133 14.2188 15.3867 19.2969 15.3867C24.375 15.3867 27.1172 17.1133 27.1172 17.8242ZM11.3242 5.02734C16.4023 5.02734 19.1445 6.75391 19.1445 7.46484V7.92188C18.6367 9.19141 15.4375 10.4609 11.3242 10.4609C7.21094 10.4609 3.96094 9.19141 3.50391 7.92188V7.46484C3.50391 6.75391 6.24609 5.02734 11.3242 5.02734ZM3.50391 21.0234V19.3984C4.72266 20.1094 6.44922 20.6172 8.53125 20.8711V23.2578C5.07812 22.8008 3.50391 21.5312 3.50391 21.0234ZM19.2461 33.8711C14.168 33.8711 11.4258 32.1445 11.4258 31.4336V29.8086C13.2539 30.8242 15.9961 31.4844 19.2461 31.4844C22.4961 31.4844 25.2891 30.8242 27.0664 29.8086V31.4336C27.1172 32.1445 24.375 33.8711 19.2461 33.8711ZM62.9688 36.0039H60.0234V32.8555C60.0234 32.043 59.3633 31.4336 58.6016 31.4336H55.6562V28.2852C55.6562 27.4727 54.9961 26.8633 54.2344 26.8633H43.1641C42.707 26.8633 42.25 27.0664 41.9961 27.4727L39.2031 31.4336H33.5156C32.7031 31.4336 32.0938 32.0937 32.0938 32.8555V52.2539C32.0938 53.0664 32.7539 53.6758 33.5156 53.6758H36.4609V56.8242C36.4609 57.6367 37.1211 58.2461 37.8828 58.2461H40.8281V61.3945C40.8281 62.207 41.4883 62.8164 42.25 62.8164H62.9688C63.7812 62.8164 64.3906 62.1563 64.3906 61.3945V37.4258C64.3906 36.6133 63.7305 36.0039 62.9688 36.0039ZM34.9883 34.2773H39.9648C40.4219 34.2773 40.8789 34.0742 41.1328 33.668L43.9258 29.707H52.6602V50.7812H34.9883V34.2773ZM39.4062 53.6758H54.1328C54.9453 53.6758 55.5547 53.0156 55.5547 52.2539V34.2773H57.0781V55.4023H39.4062V53.6758ZM61.4961 59.9727H43.7734V58.2461H58.5C59.3125 58.2461 59.9219 57.5859 59.9219 56.8242V38.8477H61.4453V59.9727H61.4961ZM44.7383 10.7148V13.9648H42.0977C41.6914 13.9648 41.3359 14.168 41.1328 14.5234C40.9297 14.8789 40.9805 15.2852 41.1836 15.6406L47.3281 24.9844C47.5312 25.2891 47.8867 25.4922 48.2422 25.4922C48.5977 25.4922 48.9531 25.2891 49.1563 24.9844L55.3008 15.6406C55.5039 15.2852 55.5547 14.8789 55.3516 14.5234C55.1484 14.168 54.793 13.9648 54.3867 13.9648H52.2539V4.31641C52.2539 3.70703 51.7461 3.25 51.1875 3.25H32.6523C32.043 3.25 31.5859 3.75781 31.5859 4.31641V9.64844C31.5859 10.2578 32.0938 10.7148 32.6523 10.7148H44.7383ZM33.7695 5.38281H50.0703V15.0313C50.0703 15.6406 50.5781 16.0977 51.1367 16.0977H52.3555L48.2422 22.4453L44.1289 16.1484H45.8047C46.4141 16.1484 46.8711 15.6406 46.8711 15.082V9.64844C46.8711 9.03906 46.3633 8.58203 45.8047 8.58203H33.7695V5.38281ZM24.832 53.168L15.4883 47.0742C15.1328 46.8711 14.7266 46.8203 14.3711 47.0234C14.0156 47.2266 13.8125 47.582 13.8125 47.9883V50.6289H10.5625V38.543C10.5625 37.9336 10.0547 37.4766 9.49609 37.4766H4.16406C3.55469 37.4766 3.09766 37.9844 3.09766 38.543V56.9766C3.09766 57.5859 3.60547 58.043 4.16406 58.043H13.8125V60.1758C13.8125 60.582 14.0156 60.9375 14.3711 61.1406C14.8281 61.3945 15.2852 61.1914 15.4883 61.0898L24.832 54.9453C25.1367 54.7422 25.3398 54.3867 25.3398 54.0313C25.3398 53.6758 25.1367 53.3711 24.832 53.168ZM15.9961 58.1953V56.9766C15.9961 56.3672 15.4883 55.9102 14.9297 55.9102H5.28125V39.6094H8.42969V51.6953C8.42969 52.3047 8.9375 52.7617 9.49609 52.7617H14.9297C15.5391 52.7617 15.9961 52.2539 15.9961 51.6953V50.0195L22.293 54.1328L15.9961 58.1953ZM45.3477 44.0781C45.3477 44.4844 45.043 44.7891 44.6367 44.7891H43.0117C42.6055 44.7891 42.3008 44.4844 42.3008 44.0781C42.3008 43.6719 42.6055 43.3672 43.0117 43.3672H44.6367C45.043 43.3672 45.3477 43.6719 45.3477 44.0781ZM49.7656 44.0781C49.7656 44.4844 49.4609 44.7891 49.0547 44.7891H47.4297C47.0234 44.7891 46.7188 44.4844 46.7188 44.0781C46.7188 43.6719 47.0234 43.3672 47.4297 43.3672H49.0547C49.4609 43.3672 49.7656 43.6719 49.7656 44.0781ZM49.7656 37.1211C49.7656 37.5273 49.4609 37.832 49.0547 37.832H47.4297C47.0234 37.832 46.7188 37.5273 46.7188 37.1211C46.7188 36.7148 47.0234 36.4102 47.4297 36.4102H49.0547C49.4609 36.3594 49.7656 36.7148 49.7656 37.1211ZM49.7656 40.5742C49.7656 40.9805 49.4609 41.2852 49.0547 41.2852H47.4297C47.0234 41.2852 46.7188 40.9805 46.7188 40.5742C46.7188 40.168 47.0234 39.8633 47.4297 39.8633H49.0547C49.4609 39.8633 49.7656 40.168 49.7656 40.5742ZM40.9805 37.1211C40.9805 37.5273 40.6758 37.832 40.2695 37.832H38.5938C38.1875 37.832 37.8828 37.5273 37.8828 37.1211C37.8828 36.7148 38.1875 36.4102 38.5938 36.4102H40.2188C40.625 36.3594 40.9805 36.7148 40.9805 37.1211ZM40.9805 44.0781C40.9805 44.4844 40.6758 44.7891 40.2695 44.7891H38.5938C38.1875 44.7891 37.8828 44.4844 37.8828 44.0781C37.8828 43.6719 38.1875 43.3672 38.5938 43.3672H40.2188C40.625 43.3672 40.9805 43.6719 40.9805 44.0781ZM40.9805 40.5742C40.9805 40.9805 40.6758 41.2852 40.2695 41.2852H38.5938C38.1875 41.2852 37.8828 40.9805 37.8828 40.5742C37.8828 40.168 38.1875 39.8633 38.5938 39.8633H40.2188C40.625 39.8633 40.9805 40.168 40.9805 40.5742ZM45.3477 47.5312C45.3477 47.9375 45.043 48.2422 44.6367 48.2422H43.0117C42.6055 48.2422 42.3008 47.9375 42.3008 47.5312C42.3008 47.125 42.6055 46.8203 43.0117 46.8203H44.6367C45.043 46.8203 45.3477 47.1758 45.3477 47.5312ZM49.7656 47.5312C49.7656 47.9375 49.4609 48.2422 49.0547 48.2422H47.4297C47.0234 48.2422 46.7188 47.9375 46.7188 47.5312C46.7188 47.125 47.0234 46.8203 47.4297 46.8203H49.0547C49.4609 46.8203 49.7656 47.1758 49.7656 47.5312ZM45.3477 37.1211C45.3477 37.5273 45.043 37.832 44.6367 37.832H43.0117C42.6055 37.832 42.3008 37.5273 42.3008 37.1211C42.3008 36.7148 42.6055 36.4102 43.0117 36.4102H44.6367C45.043 36.3594 45.3477 36.7148 45.3477 37.1211ZM45.3477 40.5742C45.3477 40.9805 45.043 41.2852 44.6367 41.2852H43.0117C42.6055 41.2852 42.3008 40.9805 42.3008 40.5742C42.3008 40.168 42.6055 39.8633 43.0117 39.8633H44.6367C45.043 39.8633 45.3477 40.168 45.3477 40.5742ZM40.9805 47.5312C40.9805 47.9375 40.6758 48.2422 40.2695 48.2422H38.5938C38.1875 48.2422 37.8828 47.9375 37.8828 47.5312C37.8828 47.125 38.1875 46.8203 38.5938 46.8203H40.2188C40.625 46.8203 40.9805 47.1758 40.9805 47.5312Z" fill="#622DFA"/>
</svg>
