<svg width="65" height="65" viewBox="0 0 65 65" fill="none" xmlns="http://www.w3.org/2000/svg">
<g clip-path="url(#clip0_204_62)">
<path d="M63.661 34.5065C63.2786 33.933 62.6095 33.5507 61.8448 33.5507H50.3742V25.3301C50.3742 24.3742 49.6095 23.5139 48.558 23.5139H45.5948V1.91096C45.5948 1.33743 45.2124 0.955078 44.6389 0.955078H6.69037C6.11684 0.955078 5.73449 1.33743 5.73449 1.91096V23.6095H2.77125C1.81537 23.6095 0.955078 24.3742 0.955078 25.4257V62.3227C0.955078 63.2786 1.71978 64.1389 2.77125 64.1389H51.7124C52.5727 64.1389 53.433 63.661 53.7198 62.8007L63.9477 36.5139C64.1389 35.7492 64.0433 35.0801 63.661 34.5065ZM48.4624 25.5213V33.5507H45.5948V25.5213H48.4624ZM7.64625 2.86684H43.7786V33.5507H19.4036C18.5433 33.5507 17.683 34.0286 17.3963 34.8889L17.1095 35.6536H11.4698C10.8963 35.6536 10.5139 36.036 10.5139 36.6095C10.5139 37.183 10.8963 37.5654 11.4698 37.5654H16.3448L14.6242 41.9624H11.4698C10.8963 41.9624 10.5139 42.3448 10.5139 42.9183C10.5139 43.4918 10.8963 43.8742 11.4698 43.8742H13.8595L10.5139 52.4771H7.64625V2.86684ZM2.86684 25.5213H5.73449V53.433C5.73449 54.0065 6.11684 54.3889 6.69037 54.3889H9.84478L7.16831 61.1757C7.07272 61.4624 6.97714 61.8448 7.07272 62.1315H2.86684V25.5213ZM62.1315 35.7492L51.9036 62.036C51.9036 62.1315 51.808 62.1315 51.7124 62.1315H9.17567C8.98449 62.1315 8.98449 62.036 8.8889 62.036V61.9404L19.1168 35.558C19.1168 35.4624 19.2124 35.4624 19.308 35.4624H61.7492C61.9404 35.4624 61.9404 35.558 62.036 35.558C62.1315 35.6536 62.1315 35.7492 62.1315 35.7492Z" fill="#622DFA"/>
<path d="M11.4715 13.2875H39.7656C40.3392 13.2875 40.7215 12.9051 40.7215 12.3316V6.4051C40.7215 5.83157 40.3392 5.44922 39.7656 5.44922H11.4715C10.898 5.44922 10.5156 5.83157 10.5156 6.4051V12.3316C10.5156 12.8095 10.898 13.2875 11.4715 13.2875ZM12.4274 7.36098H38.8097V11.3757H12.4274V7.36098ZM11.4715 18.736H39.7656C40.3392 18.736 40.7215 18.3536 40.7215 17.7801C40.7215 17.2066 40.3392 16.8242 39.7656 16.8242H11.4715C10.898 16.8242 10.5156 17.2066 10.5156 17.7801C10.5156 18.3536 10.898 18.736 11.4715 18.736ZM11.4715 25.0448H39.7656C40.3392 25.0448 40.7215 24.6625 40.7215 24.0889C40.7215 23.5154 40.3392 23.133 39.7656 23.133H11.4715C10.898 23.133 10.5156 23.5154 10.5156 24.0889C10.5156 24.5669 10.898 25.0448 11.4715 25.0448ZM11.4715 31.3536H39.7656C40.3392 31.3536 40.7215 30.9713 40.7215 30.3977C40.7215 29.8242 40.3392 29.4419 39.7656 29.4419H11.4715C10.898 29.4419 10.5156 29.8242 10.5156 30.3977C10.5156 30.8757 10.898 31.3536 11.4715 31.3536ZM47.6994 46.5522L45.6921 46.2654C45.5009 45.4051 45.1186 44.6404 44.7362 43.8757L45.9789 42.2507C46.2656 41.8683 46.2656 41.2948 45.8833 40.9125L44.1627 39.1919C43.9715 39.0007 43.6847 38.9051 43.398 38.9051C43.2068 38.9051 42.92 39.0007 42.7289 39.0963L41.1039 40.4345C40.3392 40.0522 39.5744 39.6698 38.7142 39.4786L38.4274 37.4713C38.3318 36.9933 37.9494 36.611 37.4715 36.611H34.8906C34.4127 36.611 34.0303 36.9933 33.9347 37.4713L33.648 39.4786C32.7877 39.6698 32.023 40.0522 31.2583 40.4345L29.8244 39.1919C29.4421 38.9051 28.8686 38.9051 28.5818 39.2875L26.7656 41.008C26.3833 41.3904 26.3833 41.8683 26.67 42.2507L27.9127 43.8757C27.5303 44.6404 27.148 45.4051 26.9568 46.2654L24.9494 46.5522C24.4715 46.6477 24.0892 47.0301 24.0892 47.508V50.0889C24.0892 50.5669 24.4715 50.9492 24.9494 51.0448L26.9568 51.3316C27.148 52.1919 27.5303 52.9566 27.9127 53.7213L26.67 55.3463C26.3833 55.7286 26.3833 56.3022 26.7656 56.5889L28.5818 58.4051C28.9642 58.7875 29.4421 58.7875 29.8244 58.5007L31.4494 57.258C32.2142 57.6404 32.9789 58.0228 33.8392 58.2139L34.1259 60.2213C34.2215 60.6992 34.6039 61.0816 35.0818 61.0816H37.6627C38.1406 61.0816 38.523 60.6992 38.6186 60.2213L38.9053 58.2139C39.7656 58.0228 40.5303 57.6404 41.295 57.258L42.92 58.5007C43.3024 58.7875 43.9715 58.7875 44.2583 58.4051L45.9789 56.5889C46.3612 56.2066 46.3612 55.7286 46.0744 55.3463L44.8318 53.7213C45.2142 52.9566 45.5965 52.1919 45.7877 51.3316L47.795 51.0448C48.273 50.9492 48.6553 50.5669 48.6553 50.0889V47.508C48.4642 47.0301 48.1774 46.6477 47.6994 46.5522ZM46.5524 49.2286L44.7362 49.5154C44.3539 49.611 43.9715 49.8977 43.9715 50.2801C43.7803 51.3316 43.398 52.2875 42.7289 53.2433C42.5377 53.6257 42.5377 54.008 42.7289 54.3904L43.8759 55.9198L43.3024 56.3977L41.773 55.2507C41.4862 54.9639 41.0083 54.9639 40.6259 55.2507C39.7656 55.8242 38.8097 56.3022 37.7583 56.4933C37.3759 56.5889 37.0892 56.8757 36.9936 57.3536L36.7068 59.2654H35.8465L35.5597 57.3536C35.4642 56.9713 35.1774 56.5889 34.795 56.4933C33.7436 56.3022 32.7877 55.9198 31.9274 55.2507C31.545 55.0595 31.1627 55.0595 30.7803 55.2507L29.3465 56.3977L28.773 55.8242L29.92 54.2948C30.2068 54.008 30.2068 53.4345 29.92 53.1477C29.3465 52.2875 28.9642 51.3316 28.773 50.2801C28.6774 49.8977 28.3906 49.611 28.0083 49.5154L26.1921 49.2286V48.3683L28.0083 48.0816C28.3906 47.986 28.773 47.6992 28.773 47.3169C28.9642 46.2654 29.3465 45.3095 30.0156 44.3536C30.2068 43.9713 30.2068 43.5889 30.0156 43.2066L28.8686 41.6772L29.4421 41.1036L30.8759 42.2507C31.1627 42.5375 31.7362 42.5375 32.023 42.2507C32.8833 41.6772 33.8392 41.2948 34.8906 41.1036C35.273 41.008 35.5597 40.7213 35.6553 40.2433L35.9421 38.3316H36.8024L37.0892 40.2433C37.1847 40.6257 37.4715 41.008 37.8539 41.1036C38.9053 41.2948 39.8612 41.6772 40.7215 42.3463C41.1039 42.5375 41.4862 42.5375 41.8686 42.3463L43.398 41.1992L43.9715 41.7727L42.8244 43.3022C42.5377 43.5889 42.5377 44.0669 42.8244 44.4492C43.398 45.3095 43.7803 46.361 44.0671 47.4125C44.1627 47.7948 44.4494 48.0816 44.8318 48.1772L46.648 48.4639V49.2286H46.5524Z" fill="#622DFA"/>
<path d="M36.3235 43.3008C33.3603 43.3008 30.875 45.7861 30.875 48.7493C30.875 51.7125 33.2647 54.1978 36.3235 54.1978C39.2868 54.1978 41.7721 51.7125 41.7721 48.7493C41.7721 45.7861 39.2868 43.3008 36.3235 43.3008ZM36.3235 52.3817C34.4118 52.3817 32.7868 50.7567 32.7868 48.8449C32.7868 46.9331 34.4118 45.3081 36.3235 45.3081C38.2353 45.3081 39.8603 46.9331 39.8603 48.8449C39.8603 50.7567 38.2353 52.3817 36.3235 52.3817Z" fill="#622DFA"/>
</g>
<defs>
<clipPath id="clip0_204_62">
<rect width="65" height="65" fill="white"/>
</clipPath>
</defs>
</svg>
