<svg width="65" height="65" viewBox="0 0 65 65" fill="none" xmlns="http://www.w3.org/2000/svg">
<g clip-path="url(#clip0_207_10)">
<path d="M19.5293 21.2057H17.498L17.4986 15.6833L22.5188 15.2669C22.891 14.0019 23.4257 12.7984 24.1138 11.6746L20.975 7.99348L26.0075 2.99965L29.8491 6.22781C31.015 5.59355 32.2541 5.11723 33.5475 4.80492L33.9512 0H41.058L41.477 4.98316C42.7536 5.35336 43.9693 5.88555 45.1063 6.57211L48.8118 3.45973L53.8427 8.45406L50.5886 12.2713C51.2239 13.4261 51.7018 14.6519 52.0166 15.9316L56.8571 16.3323V21.2057H54.8258V18.202L50.3327 17.8303L50.1875 17.0732C49.8884 15.5157 49.315 14.0415 48.4843 12.6918L48.0968 12.0626L51.0756 8.56883L48.6975 6.20852L45.2556 9.1L44.6208 8.67191C43.2985 7.7802 41.8411 7.14035 40.2892 6.77016L39.5742 6.60004L39.1908 2.03125H35.8189L35.4441 6.4934L34.6855 6.6366C33.1138 6.93316 31.6279 7.50293 30.2675 8.32914L29.6444 8.70797L26.1212 5.74742L23.7426 8.10773L26.6549 11.5238L26.2152 12.1652C25.3184 13.4728 24.675 14.917 24.3012 16.4587L24.128 17.1712L19.5293 17.5525V21.2057Z" fill="#622DFA"/>
<path d="M28.9403 21.4366C28.7925 20.8034 28.7179 20.1666 28.7179 19.5425C28.7179 14.9087 32.5123 11.1387 37.1765 11.1387C41.8408 11.1387 45.6357 14.9087 45.6357 19.5425C45.6357 20.164 45.561 20.8008 45.4132 21.4361L43.4348 20.9755C43.548 20.4911 43.6049 20.0091 43.6049 19.543C43.6049 16.0294 40.7211 13.1704 37.177 13.1704C33.633 13.1704 30.7496 16.0289 30.7496 19.543C30.7496 20.0117 30.8065 20.4936 30.9193 20.975L28.9403 21.4366ZM16.9605 64.9998C12.9838 64.9998 9.74805 61.7854 9.74805 57.8341C9.74805 53.8823 12.9838 50.6673 16.9605 50.6673C20.9377 50.6673 24.173 53.8823 24.173 57.8341C24.1735 61.7854 20.9377 64.9998 16.9605 64.9998ZM16.9605 52.698C14.1036 52.698 11.7793 55.002 11.7793 57.8336C11.7793 60.6646 14.1036 62.968 16.9605 62.968C19.8175 62.968 22.1417 60.6646 22.1417 57.8336C22.1422 55.0025 19.8175 52.698 16.9605 52.698ZM47.6908 64.9998C43.7151 64.9998 40.4804 61.7854 40.4804 57.8341C40.4804 53.8823 43.7151 50.6673 47.6908 50.6673C51.668 50.6673 54.9032 53.8823 54.9032 57.8341C54.9032 61.7854 51.668 64.9998 47.6908 64.9998ZM47.6908 52.698C44.8348 52.698 42.5116 55.002 42.5116 57.8336C42.5116 60.6646 44.8348 62.968 47.6908 62.968C50.5477 62.968 52.872 60.6646 52.872 57.8336C52.872 55.0025 50.5477 52.698 47.6908 52.698Z" fill="#622DFA"/>
<path d="M41.4959 56.8184H24.0332V58.8496H41.4959V56.8184Z" fill="#622DFA"/>
<path d="M18.9152 51.807L16.9763 51.2007L18.6719 45.7737L9.23016 17.6627L1.41797 15.4502L1.97148 13.4961L10.8145 16.0001L20.8068 45.7508L18.9152 51.807Z" fill="#622DFA"/>
<path d="M54.6307 46.7766H18.9934L11.6113 23.3613H63.5824L57.6263 44.0501C57.543 45.5913 56.2572 46.7766 54.6307 46.7766ZM20.4828 44.7453H54.6307C55.1116 44.7453 55.5986 44.4523 55.5986 43.8922V43.749L60.8834 25.3926H14.3814L20.4828 44.7453Z" fill="#622DFA"/>
<path d="M53.7663 30.4531H21.7949V32.4844H53.7663V30.4531Z" fill="#622DFA"/>
<path d="M51.6581 37.3418H24.0234V39.373H51.6581V37.3418Z" fill="#622DFA"/>
</g>
<defs>
<clipPath id="clip0_207_10">
<rect width="65" height="65" fill="white"/>
</clipPath>
</defs>
</svg>
