<svg width="65" height="65" viewBox="0 0 65 65" fill="none" xmlns="http://www.w3.org/2000/svg">
<path d="M61.6507 20.4844C61.6507 19.8935 61.2567 19.4995 60.6658 19.4995H16.7416L59.9764 11.5223C60.4689 11.4238 60.8628 10.9313 60.7643 10.3404L59.1886 1.67377C59.1886 1.37831 58.9916 1.18134 58.7946 1.08286C58.5977 0.984375 58.3022 0.984375 58.0067 0.984375L4.13553 10.9313C3.84008 10.9313 3.64311 11.1283 3.54463 11.3253C3.44614 11.5223 3.34766 11.8177 3.34766 12.0147L4.92341 20.5829V61.2571C4.92341 62.8329 6.20372 64.0147 7.68099 64.0147H58.8931C60.3704 64.0147 61.6507 62.8329 61.6507 61.2571V20.4844ZM18.7113 21.4692L23.931 28.2647H17.0371L11.8174 21.4692H18.7113ZM28.0674 21.4692L33.2871 28.2647H26.3931L21.1734 21.4692H28.0674ZM37.5219 21.4692L42.7416 28.2647H35.8477L30.628 21.4692H37.5219ZM46.878 21.4692L52.0977 28.2647H45.2037L39.984 21.4692H46.878ZM14.5749 28.3632H6.89311V21.5677H9.35523L14.5749 28.3632ZM59.681 28.3632H54.5598L49.3401 21.5677H59.681V28.3632ZM22.2567 9.55256L18.3174 17.2344L11.5219 18.5147L15.4613 10.8329L22.2567 9.55256ZM31.5143 7.87831L27.5749 15.5601L20.7795 16.742L24.7189 9.06013L31.5143 7.87831ZM40.6734 6.20407L36.734 13.8859L29.9386 15.1662L33.878 7.48438L40.6734 6.20407ZM49.931 4.52983L45.9916 12.2116L39.1961 13.492L43.1355 5.81013L49.931 4.52983ZM58.5977 9.84801L48.4537 11.7192L52.3931 4.03741L57.4158 3.15104L58.5977 9.84801ZM13.0977 11.2268L9.15826 18.9086L6.69614 19.401L5.41584 12.7041L13.0977 11.2268ZM59.681 61.2571C59.681 61.651 59.287 62.045 58.8931 62.045H7.68099C7.28705 62.045 6.89311 61.7495 6.89311 61.2571V30.3329H59.681V61.2571Z" fill="#622DFA"/>
<path d="M31.6145 48.9467L37.3266 45.4998C38.7054 44.7119 38.7054 42.6437 37.3266 41.8558L31.6145 38.4089C30.2357 37.5225 28.3645 38.6058 28.3645 40.2801V47.174C28.3645 48.7498 30.1372 49.8331 31.6145 48.9467ZM30.3342 40.1816C30.3342 40.0831 30.4326 39.9846 30.6296 40.0831L36.3417 43.5301C36.4402 43.6286 36.4402 43.727 36.3417 43.8255L30.5311 47.2725C30.4326 47.371 30.2357 47.2725 30.2357 47.174V40.1816H30.3342ZM13.8872 55.9392H18.2205V57.318C18.2205 57.9089 18.6145 58.3028 19.2054 58.3028C19.7963 58.3028 20.1902 57.9089 20.1902 57.318V55.9392H52.5917C53.1826 55.9392 53.5766 55.5452 53.5766 54.9543C53.5766 54.3634 53.1826 53.9695 52.5917 53.9695H20.1902V52.5907C20.1902 51.9998 19.7963 51.6058 19.2054 51.6058C18.6145 51.6058 18.2205 51.9998 18.2205 52.5907V53.9695H13.8872C13.2963 53.9695 12.9023 54.3634 12.9023 54.9543C12.9023 55.5452 13.3948 55.9392 13.8872 55.9392Z" fill="#622DFA"/>
</svg>
