<svg xmlns="http://www.w3.org/2000/svg" xmlns:xlink="http://www.w3.org/1999/xlink" width="70" zoomAndPan="magnify" viewBox="0 0 52.5 52.499999" height="70" preserveAspectRatio="xMidYMid meet" version="1.0"><defs><clipPath id="563ab92309"><path d="M 1 3 L 51 3 L 51 49 L 1 49 Z M 1 3 " clip-rule="nonzero"/></clipPath><clipPath id="e70ece0222"><path d="M 21.332031 31.566406 C 19.839844 31.953125 17.847656 32.019531 16.257812 32.019531 C 15.800781 32.019531 14.816406 32.007812 14.816406 32.007812 C 15.671875 37.265625 15.671875 41.828125 15.671875 47.003906 C 15.671875 47.964844 14.890625 48.75 13.929688 48.75 C 12.96875 48.75 12.191406 47.976562 12.191406 47.015625 L 12.191406 47.003906 C 12.191406 41.148438 12.179688 36.484375 11.042969 30.703125 C 10.351562 30.109375 9.820312 29.34375 9.546875 28.429688 C 8.964844 26.4375 8.691406 24.539062 8.707031 22.621094 C 8.714844 21.664062 9.496094 20.894531 10.449219 20.894531 C 10.453125 20.894531 10.460938 20.894531 10.464844 20.894531 C 11.425781 20.90625 12.199219 21.691406 12.191406 22.652344 C 12.175781 24.226562 12.40625 25.792969 12.886719 27.441406 C 13.125 28.238281 14.03125 28.523438 14.730469 28.523438 L 15.050781 28.527344 C 16.425781 28.546875 18.984375 28.574219 20.460938 28.199219 C 21.386719 27.945312 22.339844 28.515625 22.582031 29.445312 C 22.820312 30.375 22.265625 31.324219 21.332031 31.566406 Z M 29.65625 29.445312 C 29.898438 28.515625 30.855469 27.945312 31.78125 28.195312 C 33.253906 28.574219 35.816406 28.546875 37.1875 28.523438 L 37.507812 28.519531 C 38.210938 28.519531 39.117188 28.234375 39.351562 27.441406 C 39.835938 25.789062 40.0625 24.222656 40.050781 22.652344 C 40.042969 21.6875 40.8125 20.902344 41.773438 20.894531 C 41.78125 20.894531 41.785156 20.894531 41.792969 20.894531 C 42.746094 20.894531 43.523438 21.664062 43.53125 22.621094 C 43.546875 24.539062 43.277344 26.433594 42.691406 28.425781 C 42.417969 29.339844 41.890625 30.105469 41.199219 30.699219 C 40.058594 36.488281 40.050781 41.148438 40.050781 47.003906 L 40.050781 47.015625 C 40.050781 47.976562 39.269531 48.75 38.308594 48.75 C 37.347656 48.75 36.566406 47.964844 36.566406 47.003906 C 36.566406 41.828125 36.570312 37.265625 37.421875 32.003906 C 37.421875 32.003906 36.4375 32.015625 35.980469 32.015625 C 34.390625 32.015625 32.398438 31.953125 30.90625 31.566406 C 29.976562 31.324219 29.417969 30.375 29.65625 29.445312 Z M 6.964844 48.757812 C 6.003906 48.757812 5.226562 47.976562 5.226562 47.015625 L 5.226562 41.984375 L 5 40.992188 C 4.207031 37.503906 3.519531 34.480469 3.484375 28.328125 C 2.335938 26.238281 1.71875 23.921875 1.742188 21.75 C 1.796875 16.703125 5.578125 11.496094 11.832031 11.328125 L 18.085938 8.71875 C 18.734375 8.445312 19.15625 7.8125 19.15625 7.109375 L 19.15625 5.226562 C 19.15625 4.261719 19.933594 3.484375 20.894531 3.484375 C 21.859375 3.484375 22.636719 4.261719 22.636719 5.226562 L 22.636719 7.109375 C 22.636719 9.226562 21.375 11.117188 19.421875 11.929688 L 12.859375 14.667969 C 12.644531 14.757812 12.417969 14.859375 12.183594 14.800781 C 12.171875 14.800781 12.164062 14.800781 12.152344 14.800781 C 7.703125 14.800781 5.261719 18.394531 5.226562 21.785156 C 5.207031 23.480469 5.738281 25.320312 6.722656 26.972656 C 6.882812 27.242188 6.964844 27.546875 6.964844 27.859375 C 6.964844 33.9375 7.597656 36.707031 8.394531 40.21875 L 8.664062 41.414062 C 8.695312 41.535156 8.707031 41.664062 8.707031 41.792969 L 8.707031 47.015625 C 8.707031 47.976562 7.925781 48.757812 6.964844 48.757812 Z M 45.273438 48.757812 C 44.3125 48.757812 43.53125 47.976562 43.53125 47.015625 L 43.53125 41.792969 C 43.53125 41.664062 43.546875 41.535156 43.574219 41.410156 L 43.84375 40.21875 C 44.644531 36.707031 45.273438 33.9375 45.273438 27.859375 C 45.273438 27.546875 45.359375 27.242188 45.519531 26.96875 C 46.503906 25.320312 47.035156 23.476562 47.015625 21.785156 C 46.976562 18.394531 44.539062 14.800781 40.089844 14.800781 C 40.074219 14.800781 40.0625 14.800781 40.050781 14.800781 C 39.820312 14.800781 39.59375 14.757812 39.378906 14.667969 L 32.816406 11.929688 C 30.863281 11.117188 29.601562 9.226562 29.601562 7.109375 L 29.601562 5.226562 C 29.601562 4.261719 30.382812 3.484375 31.34375 3.484375 C 32.304688 3.484375 33.085938 4.261719 33.085938 5.226562 L 33.085938 7.109375 C 33.085938 7.8125 33.507812 8.445312 34.15625 8.714844 L 40.410156 11.324219 C 46.664062 11.496094 50.441406 16.699219 50.496094 21.746094 C 50.523438 23.921875 49.90625 26.238281 48.757812 28.324219 C 48.722656 34.476562 48.035156 37.503906 47.238281 40.988281 L 47.015625 41.984375 L 47.015625 47.015625 C 47.015625 47.976562 46.234375 48.757812 45.273438 48.757812 Z M 33.085938 15.671875 C 30.203125 15.671875 27.859375 18.015625 27.859375 20.894531 C 27.859375 21.4375 27.96875 21.949219 28.121094 22.441406 L 26.121094 23.945312 L 24.117188 22.441406 C 24.273438 21.953125 24.378906 21.4375 24.378906 20.894531 C 24.378906 18.015625 22.035156 15.671875 19.15625 15.671875 C 16.273438 15.671875 13.929688 18.015625 13.929688 20.894531 C 13.929688 23.777344 16.273438 26.121094 19.15625 26.121094 C 20.222656 26.121094 21.214844 25.792969 22.046875 25.242188 L 24.378906 26.992188 L 24.378906 47.015625 C 24.378906 47.976562 25.160156 48.757812 26.121094 48.757812 C 27.082031 48.757812 27.859375 47.976562 27.859375 47.015625 L 27.859375 26.992188 L 30.191406 25.242188 C 31.023438 25.792969 32.015625 26.121094 33.085938 26.121094 C 35.964844 26.121094 38.308594 23.777344 38.308594 20.894531 C 38.308594 18.015625 35.964844 15.671875 33.085938 15.671875 Z M 17.414062 20.894531 C 17.414062 19.933594 18.195312 19.15625 19.15625 19.15625 C 20.113281 19.15625 20.894531 19.933594 20.894531 20.894531 C 20.894531 21.859375 20.113281 22.636719 19.15625 22.636719 C 18.195312 22.636719 17.414062 21.859375 17.414062 20.894531 Z M 33.085938 22.636719 C 32.125 22.636719 31.34375 21.859375 31.34375 20.894531 C 31.34375 19.933594 32.125 19.15625 33.085938 19.15625 C 34.042969 19.15625 34.824219 19.933594 34.824219 20.894531 C 34.824219 21.859375 34.042969 22.636719 33.085938 22.636719 Z M 33.085938 22.636719 " clip-rule="nonzero"/></clipPath><linearGradient x1="3.550841" gradientTransform="matrix(1.741229, 0, 0, 1.741229, -1.739681, -1.73968)" y1="30.634142" x2="31.159554" gradientUnits="userSpaceOnUse" y2="4.196288" id="3764cab18e"><stop stop-opacity="1" stop-color="rgb(19.166565%, 56.477356%, 92.617798%)" offset="0"/><stop stop-opacity="1" stop-color="rgb(19.268799%, 56.55365%, 92.671204%)" offset="0.015625"/><stop stop-opacity="1" stop-color="rgb(19.473267%, 56.707764%, 92.778015%)" offset="0.03125"/><stop stop-opacity="1" stop-color="rgb(19.67926%, 56.861877%, 92.884827%)" offset="0.046875"/><stop stop-opacity="1" stop-color="rgb(19.883728%, 57.015991%, 92.991638%)" offset="0.0625"/><stop stop-opacity="1" stop-color="rgb(20.088196%, 57.170105%, 93.099976%)" offset="0.078125"/><stop stop-opacity="1" stop-color="rgb(20.292664%, 57.324219%, 93.206787%)" offset="0.09375"/><stop stop-opacity="1" stop-color="rgb(20.498657%, 57.478333%, 93.313599%)" offset="0.109375"/><stop stop-opacity="1" stop-color="rgb(20.703125%, 57.63092%, 93.42041%)" offset="0.125"/><stop stop-opacity="1" stop-color="rgb(20.907593%, 57.785034%, 93.527222%)" offset="0.140625"/><stop stop-opacity="1" stop-color="rgb(21.113586%, 57.939148%, 93.634033%)" offset="0.15625"/><stop stop-opacity="1" stop-color="rgb(21.318054%, 58.093262%, 93.740845%)" offset="0.171875"/><stop stop-opacity="1" stop-color="rgb(21.522522%, 58.247375%, 93.847656%)" offset="0.1875"/><stop stop-opacity="1" stop-color="rgb(21.72699%, 58.401489%, 93.955994%)" offset="0.203125"/><stop stop-opacity="1" stop-color="rgb(21.932983%, 58.555603%, 94.062805%)" offset="0.21875"/><stop stop-opacity="1" stop-color="rgb(22.137451%, 58.709717%, 94.169617%)" offset="0.234375"/><stop stop-opacity="1" stop-color="rgb(22.341919%, 58.863831%, 94.276428%)" offset="0.25"/><stop stop-opacity="1" stop-color="rgb(22.546387%, 59.017944%, 94.38324%)" offset="0.265625"/><stop stop-opacity="1" stop-color="rgb(22.75238%, 59.172058%, 94.490051%)" offset="0.28125"/><stop stop-opacity="1" stop-color="rgb(22.956848%, 59.324646%, 94.596863%)" offset="0.296875"/><stop stop-opacity="1" stop-color="rgb(23.161316%, 59.47876%, 94.703674%)" offset="0.3125"/><stop stop-opacity="1" stop-color="rgb(23.365784%, 59.632874%, 94.812012%)" offset="0.328125"/><stop stop-opacity="1" stop-color="rgb(23.571777%, 59.786987%, 94.918823%)" offset="0.34375"/><stop stop-opacity="1" stop-color="rgb(23.776245%, 59.941101%, 95.025635%)" offset="0.359375"/><stop stop-opacity="1" stop-color="rgb(23.980713%, 60.095215%, 95.132446%)" offset="0.375"/><stop stop-opacity="1" stop-color="rgb(24.185181%, 60.249329%, 95.239258%)" offset="0.390625"/><stop stop-opacity="1" stop-color="rgb(24.391174%, 60.403442%, 95.346069%)" offset="0.40625"/><stop stop-opacity="1" stop-color="rgb(24.595642%, 60.557556%, 95.452881%)" offset="0.421875"/><stop stop-opacity="1" stop-color="rgb(24.80011%, 60.71167%, 95.559692%)" offset="0.4375"/><stop stop-opacity="1" stop-color="rgb(25.006104%, 60.865784%, 95.66803%)" offset="0.453125"/><stop stop-opacity="1" stop-color="rgb(25.210571%, 61.018372%, 95.774841%)" offset="0.46875"/><stop stop-opacity="1" stop-color="rgb(25.415039%, 61.172485%, 95.881653%)" offset="0.470424"/><stop stop-opacity="1" stop-color="rgb(25.517273%, 61.250305%, 95.935059%)" offset="0.484375"/><stop stop-opacity="1" stop-color="rgb(25.619507%, 61.326599%, 95.988464%)" offset="0.5"/><stop stop-opacity="1" stop-color="rgb(25.8255%, 61.480713%, 96.095276%)" offset="0.515625"/><stop stop-opacity="1" stop-color="rgb(26.029968%, 61.634827%, 96.202087%)" offset="0.529576"/><stop stop-opacity="1" stop-color="rgb(26.132202%, 61.712646%, 96.255493%)" offset="0.53125"/><stop stop-opacity="1" stop-color="rgb(26.234436%, 61.78894%, 96.308899%)" offset="0.546875"/><stop stop-opacity="1" stop-color="rgb(26.438904%, 61.943054%, 96.41571%)" offset="0.5625"/><stop stop-opacity="1" stop-color="rgb(26.644897%, 62.097168%, 96.524048%)" offset="0.578125"/><stop stop-opacity="1" stop-color="rgb(26.849365%, 62.251282%, 96.630859%)" offset="0.59375"/><stop stop-opacity="1" stop-color="rgb(27.053833%, 62.405396%, 96.737671%)" offset="0.609375"/><stop stop-opacity="1" stop-color="rgb(27.258301%, 62.559509%, 96.844482%)" offset="0.625"/><stop stop-opacity="1" stop-color="rgb(27.464294%, 62.712097%, 96.951294%)" offset="0.640625"/><stop stop-opacity="1" stop-color="rgb(27.668762%, 62.866211%, 97.058105%)" offset="0.65625"/><stop stop-opacity="1" stop-color="rgb(27.87323%, 63.020325%, 97.164917%)" offset="0.671875"/><stop stop-opacity="1" stop-color="rgb(28.077698%, 63.174438%, 97.271729%)" offset="0.6875"/><stop stop-opacity="1" stop-color="rgb(28.283691%, 63.328552%, 97.380066%)" offset="0.703125"/><stop stop-opacity="1" stop-color="rgb(28.488159%, 63.482666%, 97.486877%)" offset="0.71875"/><stop stop-opacity="1" stop-color="rgb(28.692627%, 63.63678%, 97.593689%)" offset="0.734375"/><stop stop-opacity="1" stop-color="rgb(28.898621%, 63.790894%, 97.7005%)" offset="0.75"/><stop stop-opacity="1" stop-color="rgb(29.103088%, 63.945007%, 97.807312%)" offset="0.765625"/><stop stop-opacity="1" stop-color="rgb(29.307556%, 64.099121%, 97.914124%)" offset="0.78125"/><stop stop-opacity="1" stop-color="rgb(29.512024%, 64.253235%, 98.020935%)" offset="0.796875"/><stop stop-opacity="1" stop-color="rgb(29.718018%, 64.407349%, 98.127747%)" offset="0.8125"/><stop stop-opacity="1" stop-color="rgb(29.922485%, 64.559937%, 98.236084%)" offset="0.828125"/><stop stop-opacity="1" stop-color="rgb(30.126953%, 64.71405%, 98.342896%)" offset="0.84375"/><stop stop-opacity="1" stop-color="rgb(30.331421%, 64.868164%, 98.449707%)" offset="0.859375"/><stop stop-opacity="1" stop-color="rgb(30.537415%, 65.022278%, 98.556519%)" offset="0.875"/><stop stop-opacity="1" stop-color="rgb(30.741882%, 65.176392%, 98.66333%)" offset="0.890625"/><stop stop-opacity="1" stop-color="rgb(30.94635%, 65.330505%, 98.770142%)" offset="0.90625"/><stop stop-opacity="1" stop-color="rgb(31.150818%, 65.484619%, 98.876953%)" offset="0.921875"/><stop stop-opacity="1" stop-color="rgb(31.356812%, 65.638733%, 98.983765%)" offset="0.9375"/><stop stop-opacity="1" stop-color="rgb(31.561279%, 65.792847%, 99.092102%)" offset="0.953125"/><stop stop-opacity="1" stop-color="rgb(31.765747%, 65.94696%, 99.198914%)" offset="0.96875"/><stop stop-opacity="1" stop-color="rgb(31.970215%, 66.101074%, 99.305725%)" offset="0.984375"/><stop stop-opacity="1" stop-color="rgb(32.176208%, 66.253662%, 99.412537%)" offset="1"/></linearGradient></defs><g clip-path="url(#563ab92309)"><g clip-path="url(#e70ece0222)"><path fill="url(#3764cab18e)" d="M 1.71875 3.484375 L 1.71875 48.757812 L 50.523438 48.757812 L 50.523438 3.484375 Z M 1.71875 3.484375 " fill-rule="nonzero"/></g></g></svg>