<svg xmlns="http://www.w3.org/2000/svg" xmlns:xlink="http://www.w3.org/1999/xlink" width="70" zoomAndPan="magnify" viewBox="0 0 52.5 52.499999" height="70" preserveAspectRatio="xMidYMid meet" version="1.0"><path fill="#000000" d="M 32.28125 28.441406 C 31.613281 28.441406 30.953125 28.503906 30.296875 28.636719 C 29.644531 28.765625 29.007812 28.957031 28.394531 29.214844 C 27.777344 29.46875 27.191406 29.78125 26.636719 30.152344 C 26.082031 30.523438 25.570312 30.945312 25.097656 31.414062 C 24.625 31.886719 24.203125 32.398438 23.835938 32.953125 C 23.464844 33.507812 23.152344 34.09375 22.894531 34.710938 C 22.640625 35.328125 22.449219 35.960938 22.316406 36.617188 C 22.1875 37.269531 22.121094 37.929688 22.121094 38.597656 C 22.121094 39.265625 22.1875 39.925781 22.316406 40.578125 C 22.449219 41.234375 22.640625 41.867188 22.894531 42.484375 C 23.152344 43.101562 23.464844 43.6875 23.835938 44.242188 C 24.203125 44.792969 24.625 45.308594 25.097656 45.78125 C 25.570312 46.25 26.082031 46.671875 26.636719 47.042969 C 27.191406 47.414062 27.777344 47.726562 28.394531 47.980469 C 29.007812 48.238281 29.644531 48.429688 30.296875 48.558594 C 30.953125 48.6875 31.613281 48.753906 32.28125 48.753906 C 32.945312 48.753906 33.605469 48.6875 34.261719 48.558594 C 34.914062 48.429688 35.550781 48.238281 36.167969 47.980469 C 36.78125 47.726562 37.367188 47.414062 37.921875 47.042969 C 38.476562 46.671875 38.988281 46.25 39.460938 45.78125 C 39.933594 45.308594 40.355469 44.792969 40.726562 44.242188 C 41.09375 43.6875 41.410156 43.101562 41.664062 42.484375 C 41.917969 41.867188 42.113281 41.234375 42.242188 40.578125 C 42.371094 39.925781 42.4375 39.265625 42.4375 38.597656 C 42.4375 37.929688 42.371094 37.269531 42.238281 36.617188 C 42.109375 35.960938 41.914062 35.328125 41.660156 34.710938 C 41.40625 34.097656 41.09375 33.511719 40.722656 32.957031 C 40.351562 32.402344 39.929688 31.890625 39.457031 31.417969 C 38.988281 30.945312 38.472656 30.527344 37.917969 30.15625 C 37.367188 29.785156 36.78125 29.472656 36.164062 29.214844 C 35.550781 28.960938 34.914062 28.769531 34.261719 28.636719 C 33.605469 28.507812 32.945312 28.441406 32.28125 28.441406 Z M 32.28125 47.128906 C 31.71875 47.128906 31.164062 47.074219 30.613281 46.964844 C 30.066406 46.855469 29.53125 46.695312 29.015625 46.480469 C 28.496094 46.265625 28.003906 46.003906 27.539062 45.691406 C 27.074219 45.378906 26.644531 45.027344 26.246094 44.628906 C 25.851562 44.234375 25.496094 43.804688 25.183594 43.335938 C 24.875 42.871094 24.613281 42.378906 24.398438 41.863281 C 24.183594 41.34375 24.019531 40.8125 23.910156 40.261719 C 23.800781 39.710938 23.746094 39.15625 23.746094 38.597656 C 23.746094 38.035156 23.800781 37.480469 23.910156 36.933594 C 24.019531 36.382812 24.183594 35.851562 24.398438 35.332031 C 24.613281 34.816406 24.875 34.324219 25.183594 33.855469 C 25.496094 33.390625 25.851562 32.960938 26.246094 32.5625 C 26.644531 32.167969 27.074219 31.8125 27.539062 31.503906 C 28.003906 31.191406 28.496094 30.929688 29.015625 30.714844 C 29.53125 30.5 30.066406 30.339844 30.613281 30.230469 C 31.164062 30.121094 31.71875 30.066406 32.28125 30.066406 C 32.839844 30.066406 33.394531 30.121094 33.945312 30.230469 C 34.492188 30.339844 35.027344 30.5 35.542969 30.714844 C 36.0625 30.929688 36.554688 31.191406 37.019531 31.503906 C 37.484375 31.8125 37.917969 32.167969 38.3125 32.5625 C 38.707031 32.960938 39.0625 33.390625 39.375 33.855469 C 39.683594 34.324219 39.949219 34.816406 40.164062 35.332031 C 40.375 35.851562 40.539062 36.382812 40.648438 36.933594 C 40.757812 37.480469 40.8125 38.035156 40.8125 38.597656 C 40.8125 39.15625 40.753906 39.710938 40.644531 40.261719 C 40.535156 40.808594 40.375 41.34375 40.160156 41.859375 C 39.945312 42.378906 39.683594 42.871094 39.371094 43.335938 C 39.058594 43.800781 38.707031 44.230469 38.308594 44.628906 C 37.914062 45.023438 37.484375 45.378906 37.015625 45.6875 C 36.550781 46 36.058594 46.261719 35.542969 46.476562 C 35.027344 46.691406 34.492188 46.855469 33.945312 46.964844 C 33.394531 47.074219 32.839844 47.128906 32.28125 47.128906 Z M 32.28125 47.128906 " fill-opacity="1" fill-rule="nonzero"/><path fill="#000000" d="M 23.835938 47.128906 L 13.628906 47.128906 C 13.308594 47.128906 12.996094 47.066406 12.699219 46.941406 C 12.398438 46.820312 12.136719 46.644531 11.90625 46.414062 C 11.679688 46.1875 11.503906 45.921875 11.378906 45.625 C 11.253906 45.324219 11.195312 45.015625 11.191406 44.691406 L 11.191406 10.394531 C 11.195312 10.070312 11.253906 9.757812 11.378906 9.460938 C 11.503906 9.160156 11.679688 8.898438 11.90625 8.667969 C 12.136719 8.441406 12.398438 8.265625 12.699219 8.140625 C 12.996094 8.015625 13.308594 7.957031 13.628906 7.957031 L 31.425781 7.957031 C 31.75 7.957031 32.058594 8.015625 32.359375 8.140625 C 32.65625 8.265625 32.921875 8.441406 33.148438 8.667969 C 33.378906 8.898438 33.554688 9.160156 33.679688 9.460938 C 33.800781 9.757812 33.863281 10.070312 33.863281 10.394531 L 33.863281 26.238281 C 33.863281 26.460938 33.945312 26.652344 34.101562 26.8125 C 34.261719 26.972656 34.453125 27.050781 34.675781 27.050781 C 34.902344 27.050781 35.09375 26.972656 35.25 26.8125 C 35.410156 26.652344 35.488281 26.460938 35.488281 26.238281 L 35.488281 10.394531 C 35.488281 10.125 35.460938 9.863281 35.410156 9.601562 C 35.359375 9.339844 35.28125 9.085938 35.179688 8.839844 C 35.078125 8.59375 34.953125 8.359375 34.804688 8.136719 C 34.65625 7.914062 34.488281 7.710938 34.296875 7.519531 C 34.109375 7.332031 33.90625 7.164062 33.683594 7.015625 C 33.460938 6.867188 33.226562 6.742188 32.980469 6.640625 C 32.734375 6.539062 32.480469 6.460938 32.21875 6.410156 C 31.957031 6.355469 31.691406 6.332031 31.425781 6.328125 L 28.28125 6.328125 L 28.28125 5.6875 C 28.28125 5.363281 28.21875 5.054688 28.09375 4.753906 C 27.972656 4.457031 27.796875 4.195312 27.566406 3.964844 C 27.339844 3.738281 27.074219 3.558594 26.777344 3.4375 C 26.476562 3.3125 26.167969 3.25 25.84375 3.25 L 19.214844 3.25 C 18.890625 3.25 18.578125 3.3125 18.28125 3.4375 C 17.980469 3.558594 17.71875 3.738281 17.492188 3.964844 C 17.261719 4.195312 17.085938 4.457031 16.960938 4.753906 C 16.839844 5.054688 16.777344 5.363281 16.777344 5.6875 L 16.777344 6.328125 L 13.628906 6.328125 C 13.363281 6.332031 13.101562 6.355469 12.839844 6.410156 C 12.578125 6.460938 12.324219 6.539062 12.078125 6.640625 C 11.832031 6.742188 11.597656 6.867188 11.375 7.015625 C 11.152344 7.164062 10.949219 7.332031 10.757812 7.519531 C 10.570312 7.710938 10.402344 7.914062 10.253906 8.136719 C 10.105469 8.359375 9.980469 8.59375 9.878906 8.839844 C 9.777344 9.085938 9.699219 9.339844 9.648438 9.601562 C 9.59375 9.863281 9.566406 10.125 9.566406 10.394531 L 9.566406 44.691406 C 9.566406 44.957031 9.59375 45.222656 9.648438 45.484375 C 9.699219 45.746094 9.777344 46 9.878906 46.246094 C 9.980469 46.492188 10.105469 46.726562 10.253906 46.949219 C 10.402344 47.167969 10.570312 47.375 10.757812 47.5625 C 10.949219 47.75 11.152344 47.921875 11.375 48.066406 C 11.597656 48.214844 11.832031 48.339844 12.078125 48.445312 C 12.324219 48.546875 12.578125 48.625 12.839844 48.675781 C 13.101562 48.726562 13.363281 48.753906 13.628906 48.753906 L 23.835938 48.753906 C 24.0625 48.753906 24.253906 48.675781 24.410156 48.515625 C 24.570312 48.359375 24.648438 48.167969 24.648438 47.941406 C 24.648438 47.71875 24.570312 47.527344 24.410156 47.367188 C 24.253906 47.207031 24.0625 47.128906 23.835938 47.128906 Z M 18.402344 5.6875 C 18.402344 5.464844 18.480469 5.273438 18.640625 5.113281 C 18.796875 4.957031 18.988281 4.875 19.214844 4.875 L 25.84375 4.875 C 26.066406 4.875 26.257812 4.957031 26.417969 5.113281 C 26.578125 5.273438 26.65625 5.464844 26.65625 5.6875 L 26.65625 6.328125 L 18.402344 6.328125 Z M 18.402344 5.6875 " fill-opacity="1" fill-rule="nonzero"/><path fill="#000000" d="M 31.425781 26.847656 C 31.652344 26.847656 31.84375 26.769531 32 26.609375 C 32.160156 26.449219 32.238281 26.257812 32.238281 26.035156 L 32.238281 10.394531 C 32.238281 10.167969 32.160156 9.976562 32 9.816406 C 31.84375 9.660156 31.652344 9.582031 31.425781 9.582031 L 13.628906 9.582031 C 13.40625 9.582031 13.214844 9.660156 13.054688 9.816406 C 12.898438 9.976562 12.816406 10.167969 12.816406 10.394531 L 12.816406 44.691406 C 12.816406 44.914062 12.898438 45.109375 13.054688 45.265625 C 13.214844 45.425781 13.40625 45.503906 13.628906 45.503906 L 21.261719 45.503906 C 21.484375 45.503906 21.675781 45.425781 21.835938 45.265625 C 21.996094 45.109375 22.074219 44.914062 22.074219 44.691406 C 22.074219 44.46875 21.996094 44.277344 21.835938 44.117188 C 21.675781 43.957031 21.484375 43.878906 21.261719 43.878906 L 14.445312 43.878906 L 14.445312 36.929688 L 19.9375 36.929688 C 20.160156 36.929688 20.351562 36.851562 20.511719 36.695312 C 20.667969 36.535156 20.75 36.34375 20.75 36.117188 C 20.75 35.894531 20.667969 35.703125 20.511719 35.542969 C 20.351562 35.386719 20.160156 35.304688 19.9375 35.304688 L 14.445312 35.304688 L 14.445312 28.359375 L 26.234375 28.359375 C 26.457031 28.359375 26.648438 28.28125 26.808594 28.121094 C 26.96875 27.960938 27.046875 27.769531 27.046875 27.546875 C 27.046875 27.320312 26.96875 27.128906 26.808594 26.972656 C 26.648438 26.8125 26.457031 26.734375 26.234375 26.734375 L 14.445312 26.734375 L 14.445312 19.78125 L 30.613281 19.78125 L 30.613281 26.035156 C 30.613281 26.257812 30.691406 26.449219 30.851562 26.609375 C 31.011719 26.769531 31.203125 26.847656 31.425781 26.847656 Z M 14.445312 18.15625 L 14.445312 11.207031 L 30.613281 11.207031 L 30.613281 18.15625 Z M 36.421875 37.785156 L 33.09375 37.785156 L 33.09375 32.910156 C 33.09375 32.683594 33.011719 32.492188 32.855469 32.335938 C 32.695312 32.175781 32.503906 32.097656 32.28125 32.097656 C 32.054688 32.097656 31.863281 32.175781 31.703125 32.335938 C 31.546875 32.492188 31.46875 32.683594 31.46875 32.910156 L 31.46875 38.597656 C 31.46875 38.820312 31.546875 39.011719 31.703125 39.171875 C 31.863281 39.332031 32.054688 39.410156 32.28125 39.410156 L 36.421875 39.410156 C 36.644531 39.410156 36.835938 39.332031 36.996094 39.171875 C 37.152344 39.011719 37.234375 38.820312 37.234375 38.597656 C 37.234375 38.375 37.152344 38.183594 36.996094 38.023438 C 36.835938 37.863281 36.644531 37.785156 36.421875 37.785156 Z M 36.421875 37.785156 " fill-opacity="1" fill-rule="nonzero"/><path fill="#2d8dea" d="M 32.28125 28.441406 C 31.613281 28.441406 30.953125 28.503906 30.296875 28.636719 C 29.644531 28.765625 29.007812 28.957031 28.394531 29.214844 C 27.777344 29.46875 27.191406 29.78125 26.636719 30.152344 C 26.082031 30.523438 25.570312 30.945312 25.097656 31.414062 C 24.625 31.886719 24.203125 32.398438 23.835938 32.953125 C 23.464844 33.507812 23.152344 34.09375 22.894531 34.710938 C 22.640625 35.328125 22.449219 35.960938 22.316406 36.617188 C 22.1875 37.269531 22.121094 37.929688 22.121094 38.597656 C 22.121094 39.265625 22.1875 39.925781 22.316406 40.578125 C 22.449219 41.234375 22.640625 41.867188 22.894531 42.484375 C 23.152344 43.101562 23.464844 43.6875 23.835938 44.242188 C 24.203125 44.792969 24.625 45.308594 25.097656 45.78125 C 25.570312 46.25 26.082031 46.671875 26.636719 47.042969 C 27.191406 47.414062 27.777344 47.726562 28.394531 47.980469 C 29.007812 48.238281 29.644531 48.429688 30.296875 48.558594 C 30.953125 48.6875 31.613281 48.753906 32.28125 48.753906 C 32.945312 48.753906 33.605469 48.6875 34.261719 48.558594 C 34.914062 48.429688 35.550781 48.238281 36.167969 47.980469 C 36.78125 47.726562 37.367188 47.414062 37.921875 47.042969 C 38.476562 46.671875 38.988281 46.25 39.460938 45.78125 C 39.933594 45.308594 40.355469 44.792969 40.726562 44.242188 C 41.09375 43.6875 41.410156 43.101562 41.664062 42.484375 C 41.917969 41.867188 42.113281 41.234375 42.242188 40.578125 C 42.371094 39.925781 42.4375 39.265625 42.4375 38.597656 C 42.4375 37.929688 42.371094 37.269531 42.238281 36.617188 C 42.109375 35.960938 41.914062 35.328125 41.660156 34.710938 C 41.40625 34.097656 41.09375 33.511719 40.722656 32.957031 C 40.351562 32.402344 39.929688 31.890625 39.457031 31.417969 C 38.988281 30.945312 38.472656 30.527344 37.917969 30.15625 C 37.367188 29.785156 36.78125 29.472656 36.164062 29.214844 C 35.550781 28.960938 34.914062 28.769531 34.261719 28.636719 C 33.605469 28.507812 32.945312 28.441406 32.28125 28.441406 Z M 32.28125 47.128906 C 31.71875 47.128906 31.164062 47.074219 30.613281 46.964844 C 30.066406 46.855469 29.53125 46.695312 29.015625 46.480469 C 28.496094 46.265625 28.003906 46.003906 27.539062 45.691406 C 27.074219 45.378906 26.644531 45.027344 26.246094 44.628906 C 25.851562 44.234375 25.496094 43.804688 25.183594 43.335938 C 24.875 42.871094 24.613281 42.378906 24.398438 41.863281 C 24.183594 41.34375 24.019531 40.8125 23.910156 40.261719 C 23.800781 39.710938 23.746094 39.15625 23.746094 38.597656 C 23.746094 38.035156 23.800781 37.480469 23.910156 36.933594 C 24.019531 36.382812 24.183594 35.851562 24.398438 35.332031 C 24.613281 34.816406 24.875 34.324219 25.183594 33.855469 C 25.496094 33.390625 25.851562 32.960938 26.246094 32.5625 C 26.644531 32.167969 27.074219 31.8125 27.539062 31.503906 C 28.003906 31.191406 28.496094 30.929688 29.015625 30.714844 C 29.53125 30.5 30.066406 30.339844 30.613281 30.230469 C 31.164062 30.121094 31.71875 30.066406 32.28125 30.066406 C 32.839844 30.066406 33.394531 30.121094 33.945312 30.230469 C 34.492188 30.339844 35.027344 30.5 35.542969 30.714844 C 36.0625 30.929688 36.554688 31.191406 37.019531 31.503906 C 37.484375 31.8125 37.917969 32.167969 38.3125 32.5625 C 38.707031 32.960938 39.0625 33.390625 39.375 33.855469 C 39.683594 34.324219 39.949219 34.816406 40.164062 35.332031 C 40.375 35.851562 40.539062 36.382812 40.648438 36.933594 C 40.757812 37.480469 40.8125 38.035156 40.8125 38.597656 C 40.8125 39.15625 40.753906 39.710938 40.644531 40.261719 C 40.535156 40.808594 40.375 41.34375 40.160156 41.859375 C 39.945312 42.378906 39.683594 42.871094 39.371094 43.335938 C 39.058594 43.800781 38.707031 44.230469 38.308594 44.628906 C 37.914062 45.023438 37.484375 45.378906 37.015625 45.6875 C 36.550781 46 36.058594 46.261719 35.542969 46.476562 C 35.027344 46.691406 34.492188 46.855469 33.945312 46.964844 C 33.394531 47.074219 32.839844 47.128906 32.28125 47.128906 Z M 32.28125 47.128906 " fill-opacity="1" fill-rule="nonzero"/><path fill="#2d8dea" d="M 23.835938 47.128906 L 13.628906 47.128906 C 13.308594 47.128906 12.996094 47.066406 12.699219 46.941406 C 12.398438 46.820312 12.136719 46.644531 11.90625 46.414062 C 11.679688 46.1875 11.503906 45.921875 11.378906 45.625 C 11.253906 45.324219 11.195312 45.015625 11.191406 44.691406 L 11.191406 10.394531 C 11.195312 10.070312 11.253906 9.757812 11.378906 9.460938 C 11.503906 9.160156 11.679688 8.898438 11.90625 8.667969 C 12.136719 8.441406 12.398438 8.265625 12.699219 8.140625 C 12.996094 8.015625 13.308594 7.957031 13.628906 7.957031 L 31.425781 7.957031 C 31.75 7.957031 32.058594 8.015625 32.359375 8.140625 C 32.65625 8.265625 32.921875 8.441406 33.148438 8.667969 C 33.378906 8.898438 33.554688 9.160156 33.679688 9.460938 C 33.800781 9.757812 33.863281 10.070312 33.863281 10.394531 L 33.863281 26.238281 C 33.863281 26.460938 33.945312 26.652344 34.101562 26.8125 C 34.261719 26.972656 34.453125 27.050781 34.675781 27.050781 C 34.902344 27.050781 35.09375 26.972656 35.25 26.8125 C 35.410156 26.652344 35.488281 26.460938 35.488281 26.238281 L 35.488281 10.394531 C 35.488281 10.125 35.460938 9.863281 35.410156 9.601562 C 35.359375 9.339844 35.28125 9.085938 35.179688 8.839844 C 35.078125 8.59375 34.953125 8.359375 34.804688 8.136719 C 34.65625 7.914062 34.488281 7.710938 34.296875 7.519531 C 34.109375 7.332031 33.90625 7.164062 33.683594 7.015625 C 33.460938 6.867188 33.226562 6.742188 32.980469 6.640625 C 32.734375 6.539062 32.480469 6.460938 32.21875 6.410156 C 31.957031 6.355469 31.691406 6.332031 31.425781 6.328125 L 28.28125 6.328125 L 28.28125 5.6875 C 28.28125 5.363281 28.21875 5.054688 28.09375 4.753906 C 27.972656 4.457031 27.796875 4.195312 27.566406 3.964844 C 27.339844 3.738281 27.074219 3.558594 26.777344 3.4375 C 26.476562 3.3125 26.167969 3.25 25.84375 3.25 L 19.214844 3.25 C 18.890625 3.25 18.578125 3.3125 18.28125 3.4375 C 17.980469 3.558594 17.71875 3.738281 17.492188 3.964844 C 17.261719 4.195312 17.085938 4.457031 16.960938 4.753906 C 16.839844 5.054688 16.777344 5.363281 16.777344 5.6875 L 16.777344 6.328125 L 13.628906 6.328125 C 13.363281 6.332031 13.101562 6.355469 12.839844 6.410156 C 12.578125 6.460938 12.324219 6.539062 12.078125 6.640625 C 11.832031 6.742188 11.597656 6.867188 11.375 7.015625 C 11.152344 7.164062 10.949219 7.332031 10.757812 7.519531 C 10.570312 7.710938 10.402344 7.914062 10.253906 8.136719 C 10.105469 8.359375 9.980469 8.59375 9.878906 8.839844 C 9.777344 9.085938 9.699219 9.339844 9.648438 9.601562 C 9.59375 9.863281 9.566406 10.125 9.566406 10.394531 L 9.566406 44.691406 C 9.566406 44.957031 9.59375 45.222656 9.648438 45.484375 C 9.699219 45.746094 9.777344 46 9.878906 46.246094 C 9.980469 46.492188 10.105469 46.726562 10.253906 46.949219 C 10.402344 47.167969 10.570312 47.375 10.757812 47.5625 C 10.949219 47.75 11.152344 47.921875 11.375 48.066406 C 11.597656 48.214844 11.832031 48.339844 12.078125 48.445312 C 12.324219 48.546875 12.578125 48.625 12.839844 48.675781 C 13.101562 48.726562 13.363281 48.753906 13.628906 48.753906 L 23.835938 48.753906 C 24.0625 48.753906 24.253906 48.675781 24.410156 48.515625 C 24.570312 48.359375 24.648438 48.167969 24.648438 47.941406 C 24.648438 47.71875 24.570312 47.527344 24.410156 47.367188 C 24.253906 47.207031 24.0625 47.128906 23.835938 47.128906 Z M 18.402344 5.6875 C 18.402344 5.464844 18.480469 5.273438 18.640625 5.113281 C 18.796875 4.957031 18.988281 4.875 19.214844 4.875 L 25.84375 4.875 C 26.066406 4.875 26.257812 4.957031 26.417969 5.113281 C 26.578125 5.273438 26.65625 5.464844 26.65625 5.6875 L 26.65625 6.328125 L 18.402344 6.328125 Z M 18.402344 5.6875 " fill-opacity="1" fill-rule="nonzero"/><path fill="#2d8dea" d="M 31.425781 26.847656 C 31.652344 26.847656 31.84375 26.769531 32 26.609375 C 32.160156 26.449219 32.238281 26.257812 32.238281 26.035156 L 32.238281 10.394531 C 32.238281 10.167969 32.160156 9.976562 32 9.816406 C 31.84375 9.660156 31.652344 9.582031 31.425781 9.582031 L 13.628906 9.582031 C 13.40625 9.582031 13.214844 9.660156 13.054688 9.816406 C 12.898438 9.976562 12.816406 10.167969 12.816406 10.394531 L 12.816406 44.691406 C 12.816406 44.914062 12.898438 45.109375 13.054688 45.265625 C 13.214844 45.425781 13.40625 45.503906 13.628906 45.503906 L 21.261719 45.503906 C 21.484375 45.503906 21.675781 45.425781 21.835938 45.265625 C 21.996094 45.109375 22.074219 44.914062 22.074219 44.691406 C 22.074219 44.46875 21.996094 44.277344 21.835938 44.117188 C 21.675781 43.957031 21.484375 43.878906 21.261719 43.878906 L 14.445312 43.878906 L 14.445312 36.929688 L 19.9375 36.929688 C 20.160156 36.929688 20.351562 36.851562 20.511719 36.695312 C 20.667969 36.535156 20.75 36.34375 20.75 36.117188 C 20.75 35.894531 20.667969 35.703125 20.511719 35.542969 C 20.351562 35.386719 20.160156 35.304688 19.9375 35.304688 L 14.445312 35.304688 L 14.445312 28.359375 L 26.234375 28.359375 C 26.457031 28.359375 26.648438 28.28125 26.808594 28.121094 C 26.96875 27.960938 27.046875 27.769531 27.046875 27.546875 C 27.046875 27.320312 26.96875 27.128906 26.808594 26.972656 C 26.648438 26.8125 26.457031 26.734375 26.234375 26.734375 L 14.445312 26.734375 L 14.445312 19.78125 L 30.613281 19.78125 L 30.613281 26.035156 C 30.613281 26.257812 30.691406 26.449219 30.851562 26.609375 C 31.011719 26.769531 31.203125 26.847656 31.425781 26.847656 Z M 14.445312 18.15625 L 14.445312 11.207031 L 30.613281 11.207031 L 30.613281 18.15625 Z M 36.421875 37.785156 L 33.09375 37.785156 L 33.09375 32.910156 C 33.09375 32.683594 33.011719 32.492188 32.855469 32.335938 C 32.695312 32.175781 32.503906 32.097656 32.28125 32.097656 C 32.054688 32.097656 31.863281 32.175781 31.703125 32.335938 C 31.546875 32.492188 31.46875 32.683594 31.46875 32.910156 L 31.46875 38.597656 C 31.46875 38.820312 31.546875 39.011719 31.703125 39.171875 C 31.863281 39.332031 32.054688 39.410156 32.28125 39.410156 L 36.421875 39.410156 C 36.644531 39.410156 36.835938 39.332031 36.996094 39.171875 C 37.152344 39.011719 37.234375 38.820312 37.234375 38.597656 C 37.234375 38.375 37.152344 38.183594 36.996094 38.023438 C 36.835938 37.863281 36.644531 37.785156 36.421875 37.785156 Z M 36.421875 37.785156 " fill-opacity="1" fill-rule="nonzero"/></svg>