<svg xmlns="http://www.w3.org/2000/svg" xmlns:xlink="http://www.w3.org/1999/xlink" width="70" zoomAndPan="magnify" viewBox="0 0 52.5 52.499999" height="70" preserveAspectRatio="xMidYMid meet" version="1.0"><defs><clipPath id="78f2bcd5ff"><path d="M 1 0.742188 L 37 0.742188 L 37 51.261719 L 1 51.261719 Z M 1 0.742188 " clip-rule="nonzero"/></clipPath><clipPath id="29961d2597"><path d="M 8 12 L 30 12 L 30 51.261719 L 8 51.261719 Z M 8 12 " clip-rule="nonzero"/></clipPath><clipPath id="e2243aa7ec"><path d="M 15.746094 17.683594 L 22.714844 17.683594 L 22.714844 22.441406 L 15.746094 22.441406 Z M 15.746094 17.683594 " clip-rule="nonzero"/></clipPath></defs><path fill="#2d8de9" d="M 19.210938 26.015625 L 18.914062 26.015625 C 14.179688 26.015625 10.332031 22.140625 10.332031 17.433594 L 10.332031 12.789062 C 10.332031 12.433594 10.597656 12.195312 10.921875 12.195312 C 11.25 12.195312 11.515625 12.433594 11.515625 12.789062 L 11.515625 17.433594 C 11.515625 21.488281 14.832031 24.832031 18.914062 24.832031 L 19.210938 24.832031 C 23.292969 24.832031 26.609375 21.519531 26.609375 17.433594 L 26.609375 12.789062 C 26.609375 12.433594 26.875 12.195312 27.199219 12.195312 C 27.527344 12.195312 27.792969 12.433594 27.792969 12.789062 L 27.792969 17.433594 C 27.792969 22.140625 23.945312 26.015625 19.210938 26.015625 Z M 19.210938 26.015625 " fill-opacity="1" fill-rule="evenodd"/><g clip-path="url(#78f2bcd5ff)"><path fill="#2d8de9" d="M 10.921875 13.378906 C 10.894531 13.378906 10.835938 13.351562 10.804688 13.351562 C 10.539062 13.292969 10.332031 13.054688 10.332031 12.789062 L 10.332031 9.148438 L 7.964844 7.785156 C 7.785156 7.699219 7.699219 7.519531 7.667969 7.34375 C 7.636719 7.164062 7.726562 6.988281 7.847656 6.839844 C 10.300781 4.53125 16.042969 0.300781 20.363281 0.773438 C 21.816406 0.949219 22.96875 1.628906 23.796875 2.785156 C 24.566406 2.960938 26.816406 3.644531 28 5.773438 C 29.035156 7.636719 28.945312 10.066406 27.734375 12.996094 C 27.644531 13.230469 27.4375 13.351562 27.199219 13.378906 C 26.964844 13.378906 26.757812 13.230469 26.667969 13.023438 C 25.1875 9.679688 23.886719 8.113281 22.820312 8.347656 C 21.398438 8.675781 17.847656 9.414062 15.71875 9.089844 C 14.535156 8.910156 12.109375 11.664062 11.484375 13.023438 C 11.367188 13.230469 11.160156 13.378906 10.921875 13.378906 Z M 23.027344 7.164062 C 24.863281 7.164062 26.253906 9.414062 27.140625 11.21875 C 27.734375 9.238281 27.675781 7.609375 26.964844 6.367188 C 25.839844 4.324219 23.355469 3.910156 23.355469 3.878906 C 23.175781 3.851562 23.027344 3.761719 22.9375 3.613281 C 22.289062 2.636719 21.398438 2.105469 20.246094 1.957031 C 16.902344 1.570312 11.988281 4.738281 9.238281 7.164062 L 11.21875 8.289062 C 11.398438 8.40625 11.515625 8.585938 11.515625 8.824219 L 11.515625 10.804688 C 12.667969 9.355469 14.414062 7.699219 15.894531 7.90625 C 17.878906 8.199219 21.488281 7.460938 22.554688 7.195312 C 22.703125 7.164062 22.878906 7.164062 23.027344 7.164062 Z M 35.722656 51.261719 L 2.398438 51.261719 C 2.074219 51.261719 1.808594 50.996094 1.808594 50.667969 L 1.808594 39.007812 C 1.808594 32.261719 7.285156 26.785156 14.03125 26.785156 L 14.089844 26.785156 C 14.414062 26.785156 14.683594 27.054688 14.683594 27.378906 C 14.683594 29.804688 16.636719 31.757812 19.0625 31.757812 C 21.488281 31.757812 23.441406 29.804688 23.441406 27.378906 C 23.441406 27.054688 23.707031 26.785156 24.035156 26.785156 L 24.09375 26.785156 C 26.492188 26.785156 28.828125 27.496094 30.839844 28.828125 C 31.109375 29.007812 31.195312 29.390625 30.988281 29.65625 C 30.8125 29.921875 30.457031 30.011719 30.191406 29.804688 C 28.503906 28.710938 26.578125 28.058594 24.597656 27.96875 C 24.269531 30.753906 21.933594 32.941406 19.0625 32.941406 C 16.191406 32.941406 13.824219 30.753906 13.527344 27.96875 C 7.667969 28.238281 2.992188 33.089844 2.992188 39.007812 L 2.992188 50.078125 L 35.132812 50.078125 L 35.132812 46.882812 C 35.132812 46.554688 35.398438 46.289062 35.722656 46.289062 C 36.050781 46.289062 36.316406 46.554688 36.316406 46.882812 L 36.316406 50.667969 C 36.316406 50.996094 36.050781 51.261719 35.722656 51.261719 Z M 35.722656 51.261719 " fill-opacity="1" fill-rule="evenodd"/></g><g clip-path="url(#29961d2597)"><path fill="#2d8de9" d="M 8.96875 51.261719 C 8.644531 51.261719 8.378906 50.996094 8.378906 50.667969 L 8.378906 39.867188 C 8.378906 39.542969 8.644531 39.277344 8.96875 39.277344 C 9.324219 39.277344 9.5625 39.542969 9.5625 39.867188 L 9.5625 50.667969 C 9.5625 50.996094 9.324219 51.261719 8.96875 51.261719 Z M 29.152344 51.261719 C 28.828125 51.261719 28.5625 50.996094 28.5625 50.667969 L 28.5625 46.882812 C 28.5625 46.554688 28.828125 46.289062 29.152344 46.289062 C 29.480469 46.289062 29.746094 46.554688 29.746094 46.882812 L 29.746094 50.667969 C 29.746094 50.996094 29.480469 51.261719 29.152344 51.261719 Z M 14.089844 27.96875 C 13.765625 27.96875 13.5 27.703125 13.5 27.378906 L 13.5 23.769531 C 13.5 23.441406 13.765625 23.175781 14.089844 23.175781 C 14.238281 23.175781 14.355469 23.265625 14.476562 23.355469 C 14.59375 23.472656 14.683594 23.589844 14.683594 23.769531 L 14.683594 27.378906 C 14.683594 27.703125 14.414062 27.96875 14.089844 27.96875 Z M 24.035156 27.96875 C 23.707031 27.96875 23.441406 27.703125 23.441406 27.378906 L 23.441406 23.769531 C 23.441406 23.589844 23.5625 23.5 23.679688 23.382812 C 23.796875 23.292969 23.886719 23.175781 24.035156 23.175781 C 24.359375 23.175781 24.625 23.441406 24.625 23.769531 L 24.625 27.378906 C 24.625 27.703125 24.359375 27.96875 24.035156 27.96875 Z M 15.039062 16.042969 C 14.890625 16.042969 14.710938 15.953125 14.59375 15.808594 C 14.386719 15.539062 14.414062 15.183594 14.683594 14.976562 L 15.539062 14.296875 L 14.683594 13.617188 C 14.414062 13.4375 14.386719 13.054688 14.59375 12.789062 C 14.769531 12.550781 15.15625 12.492188 15.421875 12.699219 L 16.871094 13.824219 C 17.019531 13.941406 17.109375 14.121094 17.109375 14.296875 C 17.109375 14.503906 17.019531 14.652344 16.871094 14.769531 L 15.421875 15.925781 C 15.304688 15.984375 15.183594 16.042969 15.039062 16.042969 Z M 23.085938 16.042969 C 22.96875 16.042969 22.820312 15.984375 22.730469 15.925781 L 21.253906 14.769531 C 21.105469 14.652344 21.015625 14.476562 21.015625 14.296875 C 21.015625 14.121094 21.105469 13.941406 21.253906 13.824219 L 22.730469 12.699219 C 22.96875 12.492188 23.355469 12.550781 23.5625 12.789062 C 23.769531 13.054688 23.707031 13.410156 23.441406 13.617188 L 22.585938 14.296875 L 23.441406 14.976562 C 23.707031 15.183594 23.769531 15.539062 23.5625 15.808594 C 23.441406 15.953125 23.265625 16.042969 23.085938 16.042969 Z M 21.3125 21.726562 C 20.984375 21.726562 20.71875 21.460938 20.71875 21.132812 C 20.71875 20.214844 19.980469 19.476562 19.0625 19.476562 C 18.144531 19.476562 17.433594 20.214844 17.433594 21.132812 C 17.433594 21.460938 17.167969 21.726562 16.84375 21.726562 C 16.515625 21.726562 16.25 21.460938 16.25 21.132812 C 16.25 19.566406 17.523438 18.292969 19.0625 18.292969 C 20.628906 18.292969 21.902344 19.566406 21.902344 21.132812 C 21.902344 21.460938 21.636719 21.726562 21.3125 21.726562 Z M 21.3125 21.726562 " fill-opacity="1" fill-rule="evenodd"/></g><path fill="#2d8de9" d="M 48.363281 47.472656 L 27.347656 47.472656 C 27.113281 47.472656 26.933594 47.355469 26.816406 47.175781 C 26.726562 46.96875 26.726562 46.761719 26.847656 46.554688 L 29.597656 42.324219 L 29.597656 30.160156 C 29.597656 29.152344 30.425781 28.324219 31.433594 28.324219 L 48.363281 28.324219 C 49.367188 28.324219 50.195312 29.125 50.195312 30.160156 L 50.195312 45.640625 C 50.195312 46.675781 49.367188 47.472656 48.363281 47.472656 Z M 28.445312 46.289062 L 48.363281 46.289062 C 48.714844 46.289062 49.011719 45.992188 49.011719 45.640625 L 49.011719 30.160156 C 49.011719 29.804688 48.714844 29.507812 48.363281 29.507812 L 31.433594 29.507812 C 31.078125 29.507812 30.78125 29.804688 30.78125 30.160156 L 30.78125 42.5 C 30.78125 42.621094 30.753906 42.738281 30.691406 42.828125 Z M 30.191406 42.5 Z M 30.191406 42.5 " fill-opacity="1" fill-rule="evenodd"/><path fill="#2d8de9" d="M 39.898438 43.359375 C 39.75 43.359375 39.632812 43.300781 39.511719 43.210938 C 36.671875 40.726562 33.742188 38.179688 33.742188 35.457031 C 33.742188 33.800781 35.25 32.4375 37.117188 32.4375 C 38.445312 32.4375 39.277344 32.941406 39.898438 33.769531 C 40.519531 32.972656 41.347656 32.4375 42.679688 32.4375 C 44.542969 32.4375 46.054688 33.800781 46.054688 35.457031 C 46.054688 38.179688 43.125 40.726562 40.28125 43.210938 C 40.164062 43.300781 40.046875 43.359375 39.898438 43.359375 Z M 37.117188 33.625 C 35.902344 33.625 34.925781 34.453125 34.925781 35.457031 C 34.925781 37.53125 37.382812 39.777344 39.898438 41.96875 C 42.414062 39.777344 44.871094 37.53125 44.871094 35.457031 C 44.871094 34.453125 43.894531 33.625 42.679688 33.625 C 41.613281 33.625 41.082031 34.007812 40.398438 35.160156 C 40.3125 35.339844 40.105469 35.457031 39.898438 35.457031 C 39.691406 35.457031 39.484375 35.339844 39.394531 35.160156 C 38.714844 34.007812 38.179688 33.625 37.117188 33.625 Z M 37.117188 33.625 " fill-opacity="1" fill-rule="evenodd"/><path fill="#2d8de9" d="M 39.570312 39.039062 C 39.453125 39.039062 39.363281 39.007812 39.277344 38.949219 C 38.980469 38.800781 38.890625 38.417969 39.039062 38.152344 L 39.542969 37.292969 L 39.039062 36.433594 C 38.949219 36.316406 38.949219 36.140625 38.980469 35.992188 L 39.335938 34.71875 C 39.421875 34.390625 39.75 34.214844 40.046875 34.304688 C 40.371094 34.390625 40.546875 34.6875 40.460938 35.015625 L 40.191406 36.050781 L 40.726562 36.996094 C 40.84375 37.203125 40.84375 37.410156 40.726562 37.589844 L 40.074219 38.742188 C 39.957031 38.921875 39.777344 39.039062 39.570312 39.039062 Z M 39.570312 39.039062 " fill-opacity="1" fill-rule="evenodd"/><g clip-path="url(#e2243aa7ec)"><path fill="#ffffff" d="M 15.746094 17.683594 L 22.710938 17.683594 L 22.710938 22.441406 L 15.746094 22.441406 Z M 15.746094 17.683594 " fill-opacity="1" fill-rule="nonzero"/></g><path stroke-linecap="butt" transform="matrix(0.742924, 0, 0, 0.742924, 17.487266, 20.063244)" fill="none" stroke-linejoin="miter" d="M 0.00136682 0.498502 L 4.691446 0.498502 " stroke="#2d8de9" stroke-width="1" stroke-opacity="1" stroke-miterlimit="4"/></svg>