<svg xmlns="http://www.w3.org/2000/svg" xmlns:xlink="http://www.w3.org/1999/xlink" width="70" zoomAndPan="magnify" viewBox="0 0 52.5 52.499999" height="70" preserveAspectRatio="xMidYMid meet" version="1.0"><path fill="#2d8dea" d="M 38.902344 15.753906 C 36.632812 0.796875 15.371094 0.792969 13.101562 15.753906 C 12.367188 15.722656 11.636719 15.765625 10.914062 15.882812 C 10.1875 15.996094 9.480469 16.183594 8.789062 16.441406 C 8.101562 16.699219 7.445312 17.019531 6.820312 17.410156 C 6.199219 17.796875 5.617188 18.242188 5.082031 18.746094 C 4.546875 19.253906 4.070312 19.804688 3.644531 20.40625 C 3.222656 21.003906 2.859375 21.640625 2.5625 22.3125 C 2.265625 22.988281 2.039062 23.683594 1.882812 24.398438 C 1.722656 25.117188 1.640625 25.84375 1.625 26.578125 C 1.613281 27.3125 1.675781 28.042969 1.808594 28.765625 C 1.941406 29.488281 2.144531 30.191406 2.417969 30.875 C 2.695312 31.554688 3.03125 32.203125 3.4375 32.816406 C 3.839844 33.433594 4.300781 34 4.820312 34.523438 C 5.335938 35.042969 5.898438 35.511719 6.511719 35.917969 C 7.121094 36.328125 7.765625 36.671875 8.445312 36.953125 C 9.125 37.234375 9.828125 37.445312 10.546875 37.582031 C 11.269531 37.722656 11.996094 37.789062 12.734375 37.785156 L 15.4375 37.785156 C 15.652344 37.78125 15.859375 37.738281 16.054688 37.65625 C 16.25 37.570312 16.421875 37.453125 16.574219 37.300781 C 16.722656 37.148438 16.839844 36.972656 16.921875 36.777344 C 17 36.578125 17.042969 36.375 17.042969 36.160156 C 17.042969 35.945312 17 35.742188 16.921875 35.542969 C 16.839844 35.34375 16.722656 35.171875 16.574219 35.019531 C 16.421875 34.867188 16.25 34.75 16.054688 34.664062 C 15.859375 34.582031 15.652344 34.539062 15.4375 34.535156 L 12.734375 34.535156 C 12.183594 34.539062 11.644531 34.488281 11.105469 34.378906 C 10.570312 34.269531 10.050781 34.105469 9.546875 33.886719 C 9.046875 33.667969 8.570312 33.398438 8.125 33.082031 C 7.679688 32.761719 7.273438 32.398438 6.90625 31.996094 C 6.535156 31.589844 6.214844 31.152344 5.9375 30.679688 C 5.660156 30.203125 5.4375 29.707031 5.265625 29.1875 C 5.09375 28.667969 4.980469 28.136719 4.921875 27.589844 C 4.863281 27.046875 4.859375 26.5 4.917969 25.957031 C 4.972656 25.410156 5.085938 24.878906 5.253906 24.355469 C 5.421875 23.835938 5.644531 23.339844 5.917969 22.863281 C 6.191406 22.390625 6.511719 21.949219 6.878906 21.542969 C 7.246094 21.136719 7.652344 20.773438 8.097656 20.449219 C 8.539062 20.128906 9.011719 19.859375 9.511719 19.636719 C 10.015625 19.414062 10.53125 19.25 11.070312 19.136719 C 11.605469 19.027344 12.148438 18.972656 12.695312 18.972656 C 13.242188 18.976562 13.785156 19.035156 14.320312 19.152344 C 14.574219 19.203125 14.824219 19.1875 15.074219 19.117188 C 15.324219 19.046875 15.542969 18.921875 15.730469 18.746094 C 15.921875 18.570312 16.0625 18.363281 16.152344 18.121094 C 16.246094 17.878906 16.277344 17.628906 16.25 17.371094 C 16.789062 4.570312 35.207031 4.566406 35.753906 17.359375 C 35.722656 17.617188 35.753906 17.867188 35.847656 18.109375 C 35.9375 18.355469 36.078125 18.566406 36.265625 18.742188 C 36.457031 18.917969 36.675781 19.042969 36.925781 19.117188 C 37.175781 19.1875 37.429688 19.203125 37.683594 19.152344 C 38.21875 19.035156 38.761719 18.976562 39.308594 18.972656 C 39.855469 18.972656 40.398438 19.027344 40.933594 19.136719 C 41.472656 19.25 41.992188 19.414062 42.492188 19.636719 C 42.992188 19.859375 43.464844 20.128906 43.910156 20.449219 C 44.351562 20.773438 44.757812 21.136719 45.125 21.542969 C 45.492188 21.949219 45.8125 22.390625 46.085938 22.863281 C 46.359375 23.339844 46.582031 23.835938 46.75 24.355469 C 46.917969 24.878906 47.03125 25.410156 47.089844 25.957031 C 47.144531 26.5 47.144531 27.046875 47.085938 27.589844 C 47.023438 28.136719 46.910156 28.667969 46.738281 29.1875 C 46.566406 29.707031 46.34375 30.203125 46.066406 30.679688 C 45.792969 31.152344 45.46875 31.589844 45.101562 31.996094 C 44.730469 32.398438 44.324219 32.761719 43.878906 33.082031 C 43.433594 33.398438 42.960938 33.667969 42.457031 33.886719 C 41.953125 34.105469 41.433594 34.269531 40.898438 34.378906 C 40.363281 34.488281 39.820312 34.539062 39.273438 34.535156 L 36.566406 34.535156 C 36.351562 34.539062 36.148438 34.582031 35.949219 34.664062 C 35.753906 34.75 35.582031 34.867188 35.433594 35.019531 C 35.28125 35.171875 35.167969 35.34375 35.085938 35.542969 C 35.003906 35.742188 34.964844 35.945312 34.964844 36.160156 C 34.964844 36.375 35.003906 36.578125 35.085938 36.777344 C 35.167969 36.972656 35.28125 37.148438 35.433594 37.300781 C 35.582031 37.453125 35.753906 37.570312 35.949219 37.65625 C 36.148438 37.738281 36.351562 37.78125 36.566406 37.785156 L 39.273438 37.785156 C 40.007812 37.789062 40.734375 37.722656 41.457031 37.582031 C 42.179688 37.445312 42.878906 37.234375 43.558594 36.953125 C 44.238281 36.671875 44.882812 36.328125 45.492188 35.917969 C 46.105469 35.511719 46.667969 35.042969 47.1875 34.523438 C 47.703125 34 48.164062 33.433594 48.566406 32.816406 C 48.972656 32.203125 49.3125 31.554688 49.585938 30.875 C 49.859375 30.191406 50.0625 29.488281 50.195312 28.765625 C 50.328125 28.042969 50.390625 27.3125 50.378906 26.578125 C 50.367188 25.84375 50.28125 25.117188 50.121094 24.398438 C 49.964844 23.683594 49.738281 22.988281 49.441406 22.3125 C 49.144531 21.640625 48.785156 21.003906 48.359375 20.40625 C 47.933594 19.804688 47.457031 19.253906 46.921875 18.746094 C 46.386719 18.242188 45.808594 17.796875 45.183594 17.410156 C 44.558594 17.019531 43.902344 16.699219 43.214844 16.441406 C 42.523438 16.183594 41.816406 15.996094 41.09375 15.882812 C 40.367188 15.765625 39.636719 15.722656 38.902344 15.753906 Z M 38.902344 15.753906 " fill-opacity="1" fill-rule="nonzero"/><path fill="#2d8dea" d="M 21.464844 24.449219 C 21.3125 24.296875 21.132812 24.179688 20.9375 24.101562 C 20.738281 24.019531 20.53125 23.976562 20.3125 23.976562 C 20.097656 23.976562 19.890625 24.019531 19.691406 24.101562 C 19.492188 24.179688 19.316406 24.296875 19.164062 24.449219 L 15.101562 28.511719 C 14.875 28.742188 14.730469 29.019531 14.671875 29.34375 C 14.609375 29.664062 14.640625 29.972656 14.765625 30.273438 C 14.890625 30.574219 15.089844 30.816406 15.359375 31 C 15.628906 31.183594 15.925781 31.277344 16.25 31.285156 C 17.152344 31.386719 18.097656 30.035156 18.6875 29.519531 L 18.6875 45.910156 C 18.6875 46.125 18.730469 46.332031 18.8125 46.53125 C 18.894531 46.730469 19.011719 46.90625 19.164062 47.058594 C 19.316406 47.210938 19.492188 47.328125 19.691406 47.410156 C 19.890625 47.496094 20.097656 47.535156 20.3125 47.535156 C 20.53125 47.535156 20.738281 47.496094 20.9375 47.410156 C 21.136719 47.328125 21.3125 47.210938 21.464844 47.058594 C 21.617188 46.90625 21.734375 46.730469 21.816406 46.53125 C 21.898438 46.332031 21.941406 46.125 21.941406 45.910156 L 21.941406 29.519531 C 22.539062 30.042969 23.46875 31.382812 24.378906 31.285156 C 24.703125 31.277344 25 31.183594 25.269531 31 C 25.539062 30.816406 25.738281 30.574219 25.863281 30.273438 C 25.988281 29.972656 26.019531 29.664062 25.957031 29.339844 C 25.898438 29.019531 25.753906 28.742188 25.527344 28.511719 Z M 30.066406 41.988281 L 28.777344 40.699219 C 28.625 40.550781 28.449219 40.4375 28.25 40.355469 C 28.050781 40.277344 27.847656 40.238281 27.632812 40.238281 C 27.417969 40.242188 27.214844 40.28125 27.015625 40.367188 C 26.820312 40.449219 26.644531 40.5625 26.496094 40.714844 C 26.34375 40.867188 26.226562 41.039062 26.144531 41.238281 C 26.0625 41.433594 26.019531 41.640625 26.019531 41.851562 C 26.019531 42.066406 26.058594 42.273438 26.136719 42.46875 C 26.214844 42.667969 26.328125 42.84375 26.480469 42.996094 L 30.539062 47.058594 C 30.695312 47.210938 30.871094 47.324219 31.070312 47.40625 C 31.269531 47.488281 31.476562 47.527344 31.691406 47.527344 C 31.90625 47.527344 32.113281 47.488281 32.3125 47.40625 C 32.511719 47.324219 32.6875 47.210938 32.839844 47.058594 L 36.902344 42.996094 C 37.050781 42.84375 37.164062 42.667969 37.246094 42.46875 C 37.324219 42.273438 37.363281 42.066406 37.359375 41.851562 C 37.359375 41.640625 37.316406 41.433594 37.234375 41.238281 C 37.152344 41.039062 37.035156 40.867188 36.886719 40.714844 C 36.734375 40.566406 36.558594 40.449219 36.363281 40.367188 C 36.167969 40.28125 35.960938 40.242188 35.75 40.238281 C 35.535156 40.238281 35.328125 40.277344 35.132812 40.355469 C 34.933594 40.4375 34.757812 40.550781 34.605469 40.699219 L 33.316406 41.988281 L 33.316406 25.597656 C 33.316406 25.378906 33.273438 25.171875 33.191406 24.972656 C 33.109375 24.773438 32.992188 24.597656 32.839844 24.445312 C 32.6875 24.292969 32.511719 24.175781 32.3125 24.09375 C 32.113281 24.011719 31.90625 23.972656 31.691406 23.972656 C 31.476562 23.972656 31.265625 24.011719 31.070312 24.09375 C 30.871094 24.175781 30.695312 24.292969 30.542969 24.445312 C 30.390625 24.597656 30.269531 24.773438 30.1875 24.972656 C 30.105469 25.171875 30.066406 25.378906 30.066406 25.597656 Z M 31.691406 21.53125 C 31.902344 21.53125 32.109375 21.488281 32.304688 21.402344 C 32.5 21.320312 32.675781 21.199219 32.824219 21.046875 C 32.972656 20.898438 33.089844 20.722656 33.171875 20.523438 C 33.25 20.328125 33.292969 20.121094 33.292969 19.90625 C 33.292969 19.695312 33.25 19.488281 33.171875 19.292969 C 33.089844 19.09375 32.972656 18.917969 32.824219 18.765625 C 32.675781 18.617188 32.5 18.496094 32.304688 18.414062 C 32.109375 18.328125 31.902344 18.285156 31.691406 18.28125 C 31.476562 18.285156 31.273438 18.328125 31.074219 18.414062 C 30.878906 18.496094 30.707031 18.617188 30.558594 18.765625 C 30.40625 18.917969 30.292969 19.09375 30.210938 19.292969 C 30.128906 19.488281 30.089844 19.695312 30.089844 19.90625 C 30.089844 20.121094 30.128906 20.328125 30.210938 20.523438 C 30.292969 20.722656 30.40625 20.898438 30.558594 21.046875 C 30.707031 21.199219 30.878906 21.320312 31.074219 21.402344 C 31.273438 21.488281 31.476562 21.53125 31.691406 21.53125 Z M 31.691406 21.53125 " fill-opacity="1" fill-rule="nonzero"/></svg>