<svg xmlns="http://www.w3.org/2000/svg" xmlns:xlink="http://www.w3.org/1999/xlink" width="70" zoomAndPan="magnify" viewBox="0 0 52.5 52.499999" height="70" preserveAspectRatio="xMidYMid meet" version="1.0"><path fill="#2d8dea" d="M 10.203125 41.132812 C 10.214844 41.148438 10.21875 41.164062 10.230469 41.175781 C 10.25 41.199219 10.277344 41.207031 10.300781 41.226562 C 14.410156 45.078125 19.929688 47.445312 25.996094 47.445312 C 26.746094 47.445312 27.5 47.394531 28.246094 47.324219 L 28.246094 47.871094 C 28.246094 48.222656 28.3125 48.558594 28.445312 48.878906 C 28.582031 49.203125 28.769531 49.488281 29.019531 49.738281 C 29.265625 49.984375 29.550781 50.175781 29.875 50.308594 C 30.195312 50.441406 30.53125 50.511719 30.882812 50.511719 L 43.757812 50.511719 C 44.109375 50.511719 44.445312 50.441406 44.769531 50.308594 C 45.089844 50.175781 45.375 49.984375 45.625 49.738281 C 45.871094 49.488281 46.0625 49.203125 46.195312 48.882812 C 46.328125 48.558594 46.398438 48.222656 46.398438 47.871094 L 46.398438 40.664062 C 46.394531 40.375 46.347656 40.09375 46.257812 39.824219 C 46.164062 39.550781 46.027344 39.300781 45.851562 39.070312 C 45.679688 38.84375 45.472656 38.648438 45.230469 38.488281 C 44.992188 38.328125 44.734375 38.207031 44.457031 38.132812 C 45.921875 36.15625 47.042969 34 47.816406 31.664062 C 48.589844 29.324219 48.976562 26.925781 48.976562 24.464844 C 48.976562 17.910156 46.214844 11.992188 41.796875 7.800781 C 41.785156 7.789062 41.78125 7.769531 41.765625 7.753906 C 41.742188 7.726562 41.710938 7.714844 41.683594 7.695312 C 37.574219 3.847656 32.058594 1.484375 25.996094 1.484375 C 19.933594 1.484375 14.414062 3.851562 10.304688 7.699219 C 10.28125 7.71875 10.253906 7.730469 10.230469 7.753906 C 10.21875 7.765625 10.214844 7.78125 10.203125 7.796875 C 5.78125 11.988281 3.019531 17.90625 3.019531 24.464844 C 3.019531 31.023438 5.78125 36.945312 10.203125 41.132812 Z M 14.03125 25.445312 C 14.109375 29.324219 14.671875 32.925781 15.601562 36.050781 C 13.960938 36.882812 12.421875 37.941406 11.003906 39.167969 C 9.195312 37.328125 7.777344 35.226562 6.746094 32.859375 C 5.71875 30.496094 5.144531 28.023438 5.027344 25.445312 Z M 46.972656 25.445312 C 46.796875 29.207031 45.691406 32.667969 43.652344 35.835938 L 43.652344 34.722656 C 43.652344 31.390625 41.058594 28.65625 37.785156 28.414062 C 37.875 27.433594 37.929688 26.445312 37.949219 25.445312 Z M 30.882812 38.027344 C 30.53125 38.027344 30.195312 38.09375 29.875 38.230469 C 29.550781 38.363281 29.265625 38.554688 29.019531 38.800781 C 28.769531 39.046875 28.582031 39.332031 28.445312 39.65625 C 28.3125 39.980469 28.246094 40.316406 28.246094 40.664062 L 28.246094 44.914062 C 27.84375 45.121094 27.417969 45.269531 26.976562 45.367188 L 26.976562 35.5625 C 28.335938 35.625 29.675781 35.820312 30.988281 36.136719 L 30.988281 38.027344 Z M 20.183594 44.648438 C 17.3125 43.820312 14.734375 42.441406 12.449219 40.511719 C 13.617188 39.515625 14.878906 38.660156 16.234375 37.941406 C 17.265625 40.714844 18.613281 43.007812 20.183594 44.648438 Z M 18.050781 37.09375 C 20.285156 36.1875 22.609375 35.679688 25.015625 35.574219 L 25.015625 45.378906 C 22.214844 44.777344 19.710938 41.628906 18.050781 37.09375 Z M 37.320312 30.351562 C 39.730469 30.351562 41.691406 32.3125 41.691406 34.722656 L 41.691406 38.027344 L 32.949219 38.027344 L 32.949219 34.722656 C 32.949219 32.3125 34.910156 30.351562 37.320312 30.351562 Z M 35.804688 28.582031 C 35.167969 28.742188 34.570312 28.992188 34.011719 29.335938 C 33.453125 29.679688 32.960938 30.097656 32.53125 30.59375 C 32.101562 31.089844 31.757812 31.640625 31.5 32.242188 C 31.242188 32.847656 31.082031 33.476562 31.019531 34.128906 C 29.6875 33.832031 28.339844 33.65625 26.976562 33.601562 L 26.976562 25.445312 L 35.988281 25.445312 C 35.964844 26.492188 35.90625 27.539062 35.804688 28.582031 Z M 26.976562 23.484375 L 26.976562 15.316406 C 29.597656 15.214844 32.121094 14.679688 34.554688 13.710938 C 35.402344 16.613281 35.921875 19.949219 36.003906 23.484375 Z M 26.976562 13.355469 L 26.976562 3.550781 C 29.78125 4.152344 32.285156 7.300781 33.941406 11.835938 C 31.707031 12.742188 29.386719 13.25 26.976562 13.355469 Z M 31.808594 4.28125 C 34.683594 5.109375 37.261719 6.488281 39.546875 8.421875 C 38.378906 9.417969 37.117188 10.273438 35.757812 10.992188 C 34.726562 8.21875 33.382812 5.921875 31.808594 4.28125 Z M 25.015625 3.554688 L 25.015625 13.355469 C 22.609375 13.25 20.285156 12.746094 18.050781 11.839844 C 19.710938 7.300781 22.214844 4.15625 25.015625 3.554688 Z M 16.234375 10.988281 C 14.878906 10.273438 13.617188 9.414062 12.449219 8.421875 C 14.734375 6.492188 17.3125 5.109375 20.183594 4.285156 C 18.613281 5.921875 17.265625 8.21875 16.234375 10.988281 Z M 25.015625 15.316406 L 25.015625 23.484375 L 15.988281 23.484375 C 16.070312 19.949219 16.59375 16.613281 17.4375 13.710938 C 19.871094 14.679688 22.398438 15.214844 25.015625 15.316406 Z M 25.015625 25.445312 L 25.015625 33.613281 C 22.398438 33.714844 19.871094 34.25 17.4375 35.222656 C 16.59375 32.320312 16.070312 28.980469 15.988281 25.445312 Z M 44.4375 47.871094 C 44.4375 48.246094 44.132812 48.550781 43.757812 48.550781 L 30.882812 48.550781 C 30.511719 48.550781 30.207031 48.246094 30.207031 47.871094 L 30.207031 40.664062 C 30.207031 40.292969 30.511719 39.988281 30.882812 39.988281 L 43.757812 39.988281 C 44.132812 39.988281 44.4375 40.292969 44.4375 40.664062 Z M 46.96875 23.484375 L 37.964844 23.484375 C 37.882812 19.605469 37.324219 16.003906 36.390625 12.882812 C 38.039062 12.046875 39.574219 10.988281 40.992188 9.761719 C 42.800781 11.605469 44.21875 13.707031 45.246094 16.070312 C 46.277344 18.4375 46.851562 20.90625 46.96875 23.484375 Z M 11.003906 9.761719 C 12.421875 10.988281 13.960938 12.046875 15.601562 12.882812 C 14.671875 16.003906 14.109375 19.605469 14.03125 23.484375 L 5.027344 23.484375 C 5.144531 20.90625 5.71875 18.4375 6.746094 16.070312 C 7.777344 13.707031 9.195312 11.601562 11.003906 9.761719 Z M 11.003906 9.761719 " fill-opacity="1" fill-rule="nonzero"/></svg>