<svg xmlns="http://www.w3.org/2000/svg" xmlns:xlink="http://www.w3.org/1999/xlink" width="70" zoomAndPan="magnify" viewBox="0 0 52.5 52.499999" height="70" preserveAspectRatio="xMidYMid meet" version="1.0"><defs><clipPath id="9f7f9eef60"><path d="M 1.039062 8 L 50.816406 8 L 50.816406 44 L 1.039062 44 Z M 1.039062 8 " clip-rule="nonzero"/></clipPath></defs><g clip-path="url(#9f7f9eef60)"><path fill="#2d8dea" d="M 41.273438 10.34375 C 41.160156 10.234375 41.074219 10.109375 41.015625 9.96875 C 40.953125 9.824219 40.921875 9.675781 40.917969 9.523438 C 40.917969 9.367188 40.945312 9.21875 41 9.074219 C 41.058594 8.929688 41.140625 8.800781 41.25 8.691406 C 41.359375 8.582031 41.484375 8.492188 41.625 8.433594 C 41.765625 8.371094 41.914062 8.339844 42.070312 8.335938 C 42.226562 8.335938 42.375 8.363281 42.519531 8.421875 C 42.664062 8.476562 42.789062 8.558594 42.902344 8.667969 C 45.195312 10.90625 47.046875 13.601562 48.3125 16.601562 C 49.535156 19.5 50.207031 22.675781 50.207031 25.996094 C 50.207031 29.320312 49.53125 32.496094 48.3125 35.390625 C 47.042969 38.398438 45.238281 41.042969 42.902344 43.324219 C 42.789062 43.433594 42.664062 43.515625 42.519531 43.574219 C 42.375 43.628906 42.226562 43.65625 42.070312 43.65625 C 41.914062 43.652344 41.765625 43.621094 41.625 43.558594 C 41.484375 43.5 41.359375 43.414062 41.25 43.300781 C 41.140625 43.191406 41.058594 43.0625 41 42.917969 C 40.945312 42.773438 40.917969 42.625 40.917969 42.472656 C 40.921875 42.316406 40.953125 42.167969 41.015625 42.023438 C 41.074219 41.882812 41.160156 41.757812 41.273438 41.648438 C 43.386719 39.589844 45.015625 37.203125 46.164062 34.484375 C 47.261719 31.882812 47.867188 29.011719 47.867188 25.996094 C 47.867188 22.976562 47.261719 20.109375 46.164062 17.503906 C 45.023438 14.796875 43.347656 12.363281 41.273438 10.339844 Z M 23.734375 32.570312 L 32.113281 27.441406 C 32.632812 27.125 32.925781 26.605469 32.925781 25.996094 C 32.925781 25.390625 32.632812 24.867188 32.113281 24.550781 L 23.734375 19.425781 C 23.199219 19.097656 22.574219 19.085938 22.023438 19.390625 C 21.472656 19.699219 21.15625 20.242188 21.15625 20.867188 L 21.15625 31.121094 C 21.15625 31.75 21.472656 32.289062 22.023438 32.597656 C 22.574219 32.902344 23.199219 32.890625 23.734375 32.5625 Z M 35.78125 15.847656 C 35.667969 15.742188 35.582031 15.617188 35.519531 15.476562 C 35.457031 15.332031 35.421875 15.183594 35.421875 15.03125 C 35.417969 14.875 35.445312 14.726562 35.5 14.582031 C 35.558594 14.4375 35.640625 14.308594 35.746094 14.195312 C 35.855469 14.085938 35.980469 14 36.121094 13.9375 C 36.261719 13.875 36.410156 13.839844 36.566406 13.839844 C 36.71875 13.835938 36.871094 13.863281 37.015625 13.917969 C 37.160156 13.976562 37.285156 14.058594 37.398438 14.164062 C 39.007812 15.714844 40.25 17.515625 41.125 19.574219 C 42 21.625 42.433594 23.769531 42.433594 26 C 42.433594 28.273438 41.96875 30.445312 41.125 32.425781 C 40.25 34.480469 39.007812 36.285156 37.398438 37.832031 C 37.285156 37.941406 37.160156 38.023438 37.015625 38.078125 C 36.871094 38.136719 36.71875 38.164062 36.566406 38.160156 C 36.410156 38.15625 36.261719 38.125 36.121094 38.0625 C 35.976562 38 35.851562 37.914062 35.746094 37.800781 C 35.636719 37.691406 35.554688 37.5625 35.5 37.417969 C 35.441406 37.273438 35.417969 37.125 35.417969 36.96875 C 35.421875 36.8125 35.457031 36.664062 35.519531 36.523438 C 35.582031 36.382812 35.667969 36.257812 35.78125 36.148438 C 37.160156 34.820312 38.226562 33.273438 38.976562 31.507812 C 39.695312 29.820312 40.089844 27.960938 40.089844 26 C 40.089844 24.039062 39.695312 22.179688 38.976562 20.488281 C 38.226562 18.722656 37.160156 17.179688 35.78125 15.847656 Z M 16.214844 36.148438 C 16.328125 36.257812 16.414062 36.382812 16.476562 36.523438 C 16.539062 36.664062 16.570312 36.8125 16.574219 36.96875 C 16.578125 37.125 16.550781 37.273438 16.496094 37.417969 C 16.4375 37.5625 16.355469 37.6875 16.25 37.800781 C 16.140625 37.914062 16.015625 38 15.875 38.0625 C 15.734375 38.125 15.585938 38.15625 15.429688 38.160156 C 15.273438 38.164062 15.125 38.136719 14.980469 38.078125 C 14.835938 38.023438 14.707031 37.941406 14.597656 37.832031 C 12.988281 36.285156 11.746094 34.480469 10.871094 32.425781 C 9.996094 30.371094 9.5625 28.230469 9.5625 26 C 9.5625 23.722656 10.027344 21.554688 10.871094 19.574219 C 11.746094 17.515625 12.988281 15.714844 14.597656 14.164062 C 14.707031 14.054688 14.835938 13.972656 14.980469 13.917969 C 15.125 13.863281 15.273438 13.835938 15.429688 13.835938 C 15.585938 13.839844 15.734375 13.875 15.875 13.933594 C 16.015625 13.996094 16.140625 14.085938 16.25 14.195312 C 16.355469 14.308594 16.4375 14.4375 16.496094 14.582031 C 16.550781 14.726562 16.578125 14.875 16.574219 15.03125 C 16.570312 15.183594 16.539062 15.332031 16.476562 15.476562 C 16.414062 15.617188 16.328125 15.742188 16.214844 15.847656 C 14.835938 17.179688 13.769531 18.726562 13.019531 20.488281 C 12.300781 22.175781 11.902344 24.039062 11.902344 26 C 11.902344 27.960938 12.300781 29.820312 13.019531 31.507812 C 13.765625 33.269531 14.859375 34.84375 16.214844 36.148438 Z M 10.722656 41.652344 C 10.832031 41.761719 10.917969 41.886719 10.980469 42.027344 C 11.042969 42.167969 11.074219 42.320312 11.074219 42.472656 C 11.078125 42.628906 11.050781 42.777344 10.992188 42.921875 C 10.9375 43.066406 10.855469 43.191406 10.746094 43.304688 C 10.636719 43.414062 10.511719 43.5 10.371094 43.5625 C 10.226562 43.625 10.078125 43.65625 9.925781 43.65625 C 9.769531 43.660156 9.621094 43.632812 9.476562 43.574219 C 9.332031 43.519531 9.203125 43.433594 9.09375 43.328125 C 6.800781 41.089844 4.949219 38.394531 3.683594 35.394531 C 2.460938 32.496094 1.785156 29.320312 1.785156 26 C 1.785156 22.675781 2.460938 19.5 3.683594 16.605469 C 4.953125 13.59375 6.753906 10.949219 9.09375 8.671875 C 9.203125 8.5625 9.332031 8.480469 9.476562 8.421875 C 9.621094 8.363281 9.769531 8.335938 9.925781 8.339844 C 10.078125 8.34375 10.226562 8.375 10.371094 8.433594 C 10.511719 8.496094 10.636719 8.582031 10.746094 8.695312 C 10.855469 8.804688 10.9375 8.933594 10.992188 9.074219 C 11.050781 9.21875 11.078125 9.371094 11.074219 9.523438 C 11.074219 9.679688 11.042969 9.828125 10.980469 9.96875 C 10.917969 10.113281 10.832031 10.238281 10.722656 10.34375 C 8.609375 12.40625 6.980469 14.792969 5.832031 17.511719 C 4.734375 20.113281 4.128906 22.984375 4.128906 26 C 4.128906 29.019531 4.734375 31.886719 5.832031 34.488281 C 6.972656 37.199219 8.648438 39.628906 10.722656 41.65625 Z M 10.722656 41.652344 " fill-opacity="1" fill-rule="nonzero"/></g></svg>