<svg xmlns="http://www.w3.org/2000/svg" xmlns:xlink="http://www.w3.org/1999/xlink" width="70" zoomAndPan="magnify" viewBox="0 0 52.5 52.499999" height="70" preserveAspectRatio="xMidYMid meet" version="1.0"><path fill="#2d8dea" d="M 10.398438 10.402344 L 14.710938 10.402344 L 14.710938 14.714844 L 10.398438 14.714844 Z M 10.398438 10.402344 " fill-opacity="1" fill-rule="nonzero"/><path fill="#2d8dea" d="M 20.777344 5.199219 C 20.777344 4.722656 20.386719 4.332031 19.910156 4.332031 L 5.199219 4.332031 C 4.714844 4.332031 4.332031 4.722656 4.332031 5.199219 L 4.332031 19.910156 C 4.332031 20.394531 4.714844 20.777344 5.199219 20.777344 L 19.910156 20.777344 C 20.386719 20.777344 20.777344 20.394531 20.777344 19.910156 Z M 16.441406 15.578125 C 16.441406 15.820312 16.359375 16.023438 16.1875 16.191406 C 16.019531 16.363281 15.816406 16.445312 15.574219 16.445312 L 9.53125 16.445312 C 9.292969 16.445312 9.085938 16.363281 8.917969 16.191406 C 8.75 16.023438 8.664062 15.820312 8.664062 15.578125 L 8.664062 9.535156 C 8.664062 9.292969 8.75 9.089844 8.917969 8.921875 C 9.085938 8.753906 9.292969 8.667969 9.53125 8.667969 L 15.574219 8.667969 C 15.816406 8.667969 16.019531 8.753906 16.1875 8.921875 C 16.359375 9.089844 16.441406 9.292969 16.441406 9.535156 Z M 19.910156 31.230469 L 5.199219 31.230469 C 4.714844 31.230469 4.332031 31.609375 4.332031 32.09375 L 4.332031 46.804688 C 4.332031 47.28125 4.714844 47.671875 5.199219 47.671875 L 19.910156 47.671875 C 20.386719 47.671875 20.777344 47.28125 20.777344 46.804688 L 20.777344 32.09375 C 20.777344 31.609375 20.386719 31.230469 19.910156 31.230469 Z M 16.441406 42.46875 C 16.441406 42.710938 16.359375 42.914062 16.1875 43.082031 C 16.019531 43.253906 15.816406 43.335938 15.574219 43.335938 L 9.53125 43.335938 C 9.292969 43.335938 9.085938 43.253906 8.917969 43.082031 C 8.75 42.914062 8.664062 42.710938 8.664062 42.46875 L 8.664062 36.425781 C 8.664062 36.1875 8.75 35.980469 8.917969 35.8125 C 9.085938 35.644531 9.292969 35.558594 9.53125 35.558594 L 15.574219 35.558594 C 15.816406 35.558594 16.019531 35.644531 16.1875 35.8125 C 16.359375 35.980469 16.441406 36.1875 16.441406 36.425781 Z M 16.441406 42.46875 " fill-opacity="1" fill-rule="nonzero"/><path fill="#2d8dea" d="M 23.460938 26.765625 L 9.480469 26.765625 C 9.003906 26.765625 8.617188 27.144531 8.617188 27.632812 C 8.617188 28.109375 9.003906 28.5 9.480469 28.5 L 22.597656 28.5 L 22.597656 36.1875 C 22.597656 36.664062 22.984375 37.054688 23.460938 37.054688 C 23.941406 37.054688 24.328125 36.664062 24.328125 36.1875 L 24.328125 27.632812 C 24.328125 27.144531 23.941406 26.765625 23.460938 26.765625 Z M 19.910156 22.640625 L 10.894531 22.640625 C 10.417969 22.640625 10.027344 23.03125 10.027344 23.507812 C 10.027344 23.992188 10.417969 24.371094 10.894531 24.371094 L 19.910156 24.371094 C 20.386719 24.371094 20.777344 23.992188 20.777344 23.507812 C 20.777344 23.03125 20.386719 22.640625 19.910156 22.640625 Z M 33.863281 29.46875 L 29.851562 29.46875 C 29.375 29.46875 28.984375 29.859375 28.984375 30.335938 C 28.984375 30.8125 29.375 31.203125 29.851562 31.203125 L 33.863281 31.203125 C 34.339844 31.203125 34.730469 30.8125 34.730469 30.335938 C 34.730469 29.859375 34.339844 29.46875 33.863281 29.46875 Z M 33.863281 24.050781 L 28.230469 24.050781 C 27.753906 24.050781 27.363281 24.441406 27.363281 24.917969 C 27.363281 25.394531 27.753906 25.785156 28.230469 25.785156 L 33.863281 25.785156 C 34.339844 25.785156 34.730469 25.394531 34.730469 24.917969 C 34.730469 24.441406 34.339844 24.050781 33.863281 24.050781 Z M 10.398438 37.292969 L 14.710938 37.292969 L 14.710938 41.605469 L 10.398438 41.605469 Z M 37.289062 10.402344 L 41.601562 10.402344 L 41.601562 14.714844 L 37.289062 14.714844 Z M 37.289062 10.402344 " fill-opacity="1" fill-rule="nonzero"/><path fill="#2d8dea" d="M 46.804688 4.332031 L 32.085938 4.332031 C 31.609375 4.332031 31.21875 4.722656 31.21875 5.199219 L 31.21875 19.910156 C 31.21875 20.394531 31.609375 20.777344 32.085938 20.777344 L 46.804688 20.777344 C 47.28125 20.777344 47.671875 20.394531 47.671875 19.910156 L 47.671875 5.199219 C 47.671875 4.722656 47.28125 4.332031 46.804688 4.332031 Z M 43.332031 15.578125 C 43.332031 15.820312 43.25 16.023438 43.078125 16.191406 C 42.910156 16.363281 42.707031 16.445312 42.46875 16.445312 L 36.421875 16.445312 C 36.179688 16.445312 35.976562 16.363281 35.808594 16.191406 C 35.636719 16.023438 35.554688 15.820312 35.554688 15.578125 L 35.554688 9.535156 C 35.554688 9.292969 35.636719 9.089844 35.808594 8.921875 C 35.976562 8.753906 36.179688 8.667969 36.421875 8.667969 L 42.464844 8.667969 C 42.707031 8.667969 42.910156 8.753906 43.078125 8.921875 C 43.25 9.089844 43.332031 9.292969 43.332031 9.535156 Z M 25.414062 9.429688 C 24.9375 9.429688 24.546875 9.8125 24.546875 10.296875 L 24.546875 20.265625 C 24.546875 20.742188 24.9375 21.132812 25.414062 21.132812 C 25.890625 21.132812 26.28125 20.742188 26.28125 20.265625 L 26.28125 10.296875 C 26.28125 9.8125 25.890625 9.429688 25.414062 9.429688 Z M 31.21875 42.46875 C 31.21875 42.945312 31.609375 43.335938 32.085938 43.335938 L 42.46875 43.335938 C 42.945312 43.335938 43.335938 42.945312 43.335938 42.46875 L 43.335938 32.09375 C 43.335938 31.609375 42.945312 31.230469 42.46875 31.230469 C 41.984375 31.230469 41.605469 31.609375 41.605469 32.09375 L 41.605469 41.605469 L 32.085938 41.605469 C 31.609375 41.605469 31.21875 41.992188 31.21875 42.46875 Z M 31.21875 42.46875 " fill-opacity="1" fill-rule="nonzero"/><path fill="#2d8dea" d="M 46.804688 31.230469 C 46.320312 31.230469 45.9375 31.609375 45.9375 32.09375 L 45.9375 45.9375 L 32.085938 45.9375 C 31.609375 45.9375 31.21875 46.328125 31.21875 46.804688 C 31.21875 47.28125 31.609375 47.671875 32.085938 47.671875 L 46.804688 47.671875 C 47.28125 47.671875 47.671875 47.28125 47.671875 46.804688 L 47.671875 32.09375 C 47.671875 31.609375 47.28125 31.230469 46.804688 31.230469 Z M 39.0625 33.585938 L 39.0625 26.867188 L 44.914062 26.867188 C 45.390625 26.867188 45.78125 26.480469 45.78125 26.003906 C 45.78125 25.527344 45.390625 25.136719 44.914062 25.136719 L 38.199219 25.136719 C 37.722656 25.136719 37.332031 25.527344 37.332031 26.003906 L 37.332031 33.585938 C 37.332031 34.0625 37.722656 34.453125 38.199219 34.453125 C 38.675781 34.453125 39.0625 34.0625 39.0625 33.585938 Z M 34.730469 36.1875 C 34.730469 35.710938 34.339844 35.320312 33.863281 35.320312 L 28.230469 35.320312 C 27.753906 35.320312 27.363281 35.710938 27.363281 36.1875 L 27.363281 45.398438 C 27.363281 45.875 27.753906 46.265625 28.230469 46.265625 C 28.707031 46.265625 29.097656 45.875 29.097656 45.398438 L 29.097656 37.054688 L 33.863281 37.054688 C 34.339844 37.054688 34.730469 36.664062 34.730469 36.1875 Z M 34.730469 36.1875 " fill-opacity="1" fill-rule="nonzero"/></svg>