<svg xmlns="http://www.w3.org/2000/svg" xmlns:xlink="http://www.w3.org/1999/xlink" width="70" zoomAndPan="magnify" viewBox="0 0 52.5 67.499996" height="90" preserveAspectRatio="xMidYMid meet" version="1.0"><defs><clipPath id="b2347824ab"><path d="M 0 0.0703125 L 52.003906 0.0703125 L 52.003906 66.933594 L 0 66.933594 Z M 0 0.0703125 " clip-rule="nonzero"/></clipPath><clipPath id="c474a527dc"><path d="M 0.496094 12 L 52.003906 12 L 52.003906 21 L 0.496094 21 Z M 0.496094 12 " clip-rule="nonzero"/></clipPath><clipPath id="6c4f068c61"><path d="M 0.496094 22 L 52.003906 22 L 52.003906 55.398438 L 0.496094 55.398438 Z M 0.496094 22 " clip-rule="nonzero"/></clipPath></defs><g clip-path="url(#b2347824ab)"><path fill="#ffffff" d="M 0 0.0703125 L 52.5 0.0703125 L 52.5 67.570312 L 0 67.570312 Z M 0 0.0703125 " fill-opacity="1" fill-rule="nonzero"/><path fill="#ffffff" d="M 0 0.0703125 L 52.5 0.0703125 L 52.5 67.570312 L 0 67.570312 Z M 0 0.0703125 " fill-opacity="1" fill-rule="nonzero"/></g><g clip-path="url(#c474a527dc)"><path fill="#1e6bbe" d="M 52.246094 16.011719 C 52.246094 13.914062 50.515625 12.207031 48.390625 12.207031 L 4.347656 12.207031 C 2.222656 12.207031 0.496094 13.914062 0.496094 16.011719 L 0.496094 21 L 52.246094 21 Z M 7.71875 17.839844 L 7.28125 17.839844 C 6.980469 17.839844 6.730469 17.597656 6.730469 17.296875 C 6.730469 16.996094 6.980469 16.753906 7.28125 16.753906 L 7.71875 16.753906 C 8.023438 16.753906 8.269531 16.996094 8.269531 17.296875 C 8.269531 17.597656 8.023438 17.839844 7.71875 17.839844 M 12.023438 17.839844 L 11.585938 17.839844 C 11.285156 17.839844 11.039062 17.597656 11.039062 17.296875 C 11.039062 16.996094 11.285156 16.753906 11.585938 16.753906 L 12.023438 16.753906 C 12.328125 16.753906 12.574219 16.996094 12.574219 17.296875 C 12.574219 17.597656 12.328125 17.839844 12.023438 17.839844 M 16.332031 17.839844 L 15.894531 17.839844 C 15.589844 17.839844 15.34375 17.597656 15.34375 17.296875 C 15.34375 16.996094 15.589844 16.753906 15.894531 16.753906 L 16.332031 16.753906 C 16.632812 16.753906 16.878906 16.996094 16.878906 17.296875 C 16.878906 17.597656 16.632812 17.839844 16.332031 17.839844 " fill-opacity="1" fill-rule="nonzero"/></g><g clip-path="url(#6c4f068c61)"><path fill="#1e6bbe" d="M 0.496094 51.390625 C 0.496094 53.492188 2.226562 55.199219 4.351562 55.199219 L 48.390625 55.199219 C 50.515625 55.199219 52.246094 53.492188 52.246094 51.390625 L 52.246094 22.085938 L 0.496094 22.085938 Z M 28.957031 27.25 L 47.40625 27.25 C 47.714844 27.25 47.957031 27.492188 47.957031 27.792969 C 47.957031 28.09375 47.714844 28.339844 47.40625 28.339844 L 28.957031 28.339844 C 28.65625 28.339844 28.40625 28.09375 28.40625 27.792969 C 28.40625 27.492188 28.65625 27.25 28.957031 27.25 M 28.957031 32.546875 L 47.40625 32.546875 C 47.714844 32.546875 47.957031 32.789062 47.957031 33.089844 C 47.957031 33.390625 47.714844 33.632812 47.40625 33.632812 L 28.957031 33.632812 C 28.65625 33.632812 28.40625 33.390625 28.40625 33.089844 C 28.40625 32.789062 28.65625 32.546875 28.957031 32.546875 M 28.957031 37.84375 L 47.40625 37.84375 C 47.714844 37.84375 47.957031 38.089844 47.957031 38.386719 C 47.957031 38.691406 47.714844 38.933594 47.40625 38.933594 L 28.957031 38.933594 C 28.65625 38.933594 28.40625 38.691406 28.40625 38.386719 C 28.40625 38.089844 28.65625 37.84375 28.957031 37.84375 M 28.957031 43.140625 L 47.40625 43.140625 C 47.714844 43.140625 47.957031 43.386719 47.957031 43.6875 C 47.957031 43.984375 47.714844 44.230469 47.40625 44.230469 L 28.957031 44.230469 C 28.65625 44.230469 28.40625 43.984375 28.40625 43.6875 C 28.40625 43.386719 28.65625 43.140625 28.957031 43.140625 M 12.105469 30.515625 C 13.453125 29.175781 15.328125 28.570312 17.242188 28.863281 C 19.761719 29.234375 21.785156 31.234375 22.160156 33.722656 C 22.449219 35.601562 21.847656 37.441406 20.511719 38.769531 C 19.382812 39.890625 17.886719 40.496094 16.304688 40.496094 C 16.007812 40.496094 15.707031 40.476562 15.40625 40.429688 C 12.886719 40.054688 10.851562 38.070312 10.460938 35.59375 C 10.15625 33.710938 10.753906 31.859375 12.105469 30.515625 M 5.253906 50.300781 C 5.253906 45.746094 8.09375 41.832031 12.109375 40.199219 C 13.015625 40.875 14.09375 41.332031 15.25 41.503906 C 15.601562 41.558594 15.957031 41.582031 16.304688 41.582031 C 17.835938 41.582031 19.300781 41.101562 20.503906 40.199219 C 24.519531 41.832031 27.359375 45.746094 27.359375 50.300781 L 27.359375 50.714844 C 27.359375 51.5625 27.117188 52.355469 26.691406 53.019531 L 5.921875 53.019531 C 5.496094 52.355469 5.253906 51.5625 5.253906 50.714844 Z M 5.253906 50.300781 " fill-opacity="1" fill-rule="nonzero"/></g></svg>