<svg xmlns="http://www.w3.org/2000/svg" xmlns:xlink="http://www.w3.org/1999/xlink" width="150" zoomAndPan="magnify" viewBox="0 0 112.5 89.999999" height="120" preserveAspectRatio="xMidYMid meet" version="1.0"><defs><clipPath id="50582a63e8"><path d="M 0 0.199219 L 112.003906 0.199219 L 112.003906 89.800781 L 0 89.800781 Z M 0 0.199219 " clip-rule="nonzero"/></clipPath><clipPath id="29e048c526"><path d="M 37.765625 44 L 45 44 L 45 59.726562 L 37.765625 59.726562 Z M 37.765625 44 " clip-rule="nonzero"/></clipPath><clipPath id="7c2b967e63"><path d="M 45 45 L 74.515625 45 L 74.515625 59 L 45 59 Z M 45 45 " clip-rule="nonzero"/></clipPath><clipPath id="b262fb54e4"><path d="M 57 23.726562 L 63 23.726562 L 63 30 L 57 30 Z M 57 23.726562 " clip-rule="nonzero"/></clipPath></defs><g clip-path="url(#50582a63e8)"><path fill="#ffffff" d="M 0 0.199219 L 112.5 0.199219 L 112.5 97.699219 L 0 97.699219 Z M 0 0.199219 " fill-opacity="1" fill-rule="nonzero"/><path fill="#ffffff" d="M 0 0.199219 L 112.5 0.199219 L 112.5 90.199219 L 0 90.199219 Z M 0 0.199219 " fill-opacity="1" fill-rule="nonzero"/><path fill="#ffffff" d="M 0 0.199219 L 112.5 0.199219 L 112.5 90.199219 L 0 90.199219 Z M 0 0.199219 " fill-opacity="1" fill-rule="nonzero"/></g><g clip-path="url(#29e048c526)"><path fill="#4d81c2" d="M 37.765625 44.707031 L 44.738281 44.707031 L 44.738281 59.710938 L 37.765625 59.710938 Z M 37.765625 44.707031 " fill-opacity="1" fill-rule="evenodd"/></g><g clip-path="url(#7c2b967e63)"><path fill="#4d81c2" d="M 74.203125 45.503906 C 73.800781 45.023438 72.765625 44.980469 71.5625 45.835938 L 63.128906 51.902344 C 63.15625 52.15625 63.136719 52.429688 63.042969 52.699219 C 62.695312 53.722656 61.683594 54.003906 60.71875 54.003906 C 59.945312 54.003906 58.976562 53.839844 57.785156 53.488281 C 56.253906 53.042969 54.015625 53.058594 53.121094 53.085938 C 52.570312 53.101562 52.542969 52.261719 53.09375 52.246094 C 54.25 52.210938 56.425781 52.21875 58.011719 52.671875 C 59.734375 53.171875 61.867188 53.539062 62.242188 52.417969 C 62.667969 51.167969 60.292969 49.742188 59.421875 49.390625 C 58.742188 49.121094 58.046875 49.109375 57.304688 49.109375 C 55.992188 49.101562 54.496094 49.09375 52.894531 47.507812 C 51.742188 46.371094 50.265625 45.90625 48.835938 46.230469 C 48.359375 46.335938 47.976562 46.476562 47.59375 46.597656 C 47.015625 46.800781 46.417969 47 45.5625 47.089844 L 45.5625 56.953125 C 47.234375 57.136719 53.136719 57.828125 55.625 58.714844 C 56.523438 59.03125 58.410156 58.707031 60.683594 57.839844 C 62.632812 57.09375 64.546875 56.0625 65.226562 55.394531 L 73.863281 46.949219 C 74.382812 46.449219 74.515625 45.878906 74.203125 45.503906 Z M 74.203125 45.503906 " fill-opacity="1" fill-rule="evenodd"/></g><path fill="#03a8dd" d="M 56.984375 37.101562 L 56.984375 34.9375 C 56.984375 34.699219 57.167969 34.515625 57.402344 34.515625 C 57.636719 34.515625 57.820312 34.699219 57.820312 34.9375 L 57.820312 37.101562 L 62.121094 37.101562 L 62.121094 34.9375 C 62.121094 34.699219 62.300781 34.515625 62.539062 34.515625 C 62.773438 34.515625 62.957031 34.699219 62.957031 34.9375 L 62.957031 37.101562 L 65 37.101562 L 65 33.074219 C 65 32.03125 64.15625 31.183594 63.121094 31.183594 L 56.820312 31.183594 C 55.78125 31.183594 54.9375 32.03125 54.9375 33.074219 L 54.9375 37.101562 Z M 56.984375 37.101562 " fill-opacity="1" fill-rule="evenodd"/><g clip-path="url(#b262fb54e4)"><path fill="#03a8dd" d="M 59.96875 29.464844 C 61.242188 29.464844 62.269531 27.757812 62.269531 26.347656 C 62.269531 24.554688 61.074219 23.742188 59.96875 23.742188 C 58.863281 23.742188 57.671875 24.554688 57.671875 26.347656 C 57.679688 27.757812 58.699219 29.464844 59.96875 29.464844 Z M 59.96875 29.464844 " fill-opacity="1" fill-rule="evenodd"/></g><path fill="#03a8dd" d="M 69.214844 36.199219 C 70.285156 36.199219 71.144531 34.753906 71.144531 33.554688 C 71.144531 32.046875 70.144531 31.355469 69.222656 31.355469 C 68.292969 31.355469 67.289062 32.046875 67.289062 33.554688 C 67.289062 34.753906 68.152344 36.199219 69.214844 36.199219 Z M 69.214844 36.199219 " fill-opacity="1" fill-rule="evenodd"/><path fill="#03a8dd" d="M 64.921875 42.683594 L 66.464844 42.683594 L 66.464844 40.75 C 66.464844 40.515625 66.644531 40.328125 66.882812 40.328125 C 67.117188 40.328125 67.296875 40.515625 67.296875 40.75 L 67.296875 42.683594 L 71.144531 42.683594 L 71.144531 40.75 C 71.144531 40.515625 71.328125 40.328125 71.5625 40.328125 C 71.800781 40.328125 71.980469 40.523438 71.980469 40.75 L 71.980469 42.683594 L 73.523438 42.683594 L 73.523438 39.261719 C 73.523438 38.394531 72.816406 37.6875 71.957031 37.6875 L 66.507812 37.6875 C 65.644531 37.6875 64.941406 38.394531 64.941406 39.261719 L 64.941406 42.683594 Z M 64.921875 42.683594 " fill-opacity="1" fill-rule="evenodd"/><path fill="#03a8dd" d="M 50.726562 36.199219 C 51.796875 36.199219 52.65625 34.753906 52.65625 33.554688 C 52.65625 32.046875 51.65625 31.355469 50.734375 31.355469 C 49.804688 31.355469 48.800781 32.046875 48.800781 33.554688 C 48.800781 34.753906 49.664062 36.199219 50.726562 36.199219 Z M 50.726562 36.199219 " fill-opacity="1" fill-rule="evenodd"/><path fill="#03a8dd" d="M 47.964844 40.75 C 47.964844 40.515625 48.148438 40.328125 48.382812 40.328125 C 48.621094 40.328125 48.800781 40.515625 48.800781 40.75 L 48.800781 42.683594 L 52.648438 42.683594 L 52.648438 40.75 C 52.648438 40.515625 52.832031 40.328125 53.066406 40.328125 C 53.300781 40.328125 53.484375 40.523438 53.484375 40.75 L 53.484375 42.683594 L 55.027344 42.683594 L 55.027344 39.261719 C 55.027344 38.394531 54.320312 37.6875 53.457031 37.6875 L 48.011719 37.6875 C 47.148438 37.6875 46.441406 38.394531 46.441406 39.261719 L 46.441406 42.683594 L 47.984375 42.683594 Z M 47.964844 40.75 " fill-opacity="1" fill-rule="evenodd"/></svg>