<svg width="100" height="100" viewBox="0 0 100 100" fill="none" xmlns="http://www.w3.org/2000/svg">
<rect width="100" height="100" rx="50" fill="#2D8DEA"/>
<path d="M66.6458 73.5298H33.3546C32.7841 73.529 32.2372 73.302 31.8339 72.8986C31.4305 72.4951 31.2037 71.9481 31.2031 71.3776V34.1717C31.2037 33.6012 31.4305 33.0543 31.8339 32.6508C32.2372 32.2473 32.7841 32.0203 33.3546 32.0195H43.134C43.329 32.0195 43.516 32.097 43.6539 32.2349C43.7918 32.3728 43.8693 32.5598 43.8693 32.7548C43.8693 32.9498 43.7918 33.1369 43.6539 33.2748C43.516 33.4127 43.329 33.4901 43.134 33.4901H33.3546C33.174 33.4905 33.0009 33.5625 32.8733 33.6902C32.7457 33.818 32.6739 33.9911 32.6737 34.1717V71.3776C32.6737 71.7534 32.9796 72.0592 33.3546 72.0592H66.6458C67.0281 72.0592 67.3267 71.76 67.3267 71.3776V34.1717C67.3276 34.082 67.3107 33.993 67.2768 33.9099C67.243 33.8268 67.1929 33.7513 67.1295 33.6878C67.0661 33.6244 66.9906 33.5742 66.9075 33.5402C66.8245 33.5063 66.7355 33.4892 66.6458 33.4901H56.8664C56.6713 33.4901 56.4843 33.4127 56.3464 33.2748C56.2085 33.1369 56.1311 32.9498 56.1311 32.7548C56.1311 32.5598 56.2085 32.3728 56.3464 32.2349C56.4843 32.097 56.6713 32.0195 56.8664 32.0195H66.6458C67.2163 32.0203 67.7632 32.2473 68.1665 32.6508C68.5698 33.0543 68.7967 33.6012 68.7972 34.1717V71.3776C68.7967 71.9481 68.5698 72.4951 68.1665 72.8986C67.7632 73.302 67.2163 73.529 66.6458 73.5298Z" fill="white"/>
<path d="M64.1264 69.6385H35.872C35.677 69.6385 35.49 69.561 35.3521 69.4231C35.2142 69.2852 35.1367 69.0982 35.1367 68.9032V36.7333C35.1367 36.5383 35.2142 36.3513 35.3521 36.2134C35.49 36.0755 35.677 35.998 35.872 35.998H64.1264C64.3214 35.998 64.5085 36.0755 64.6464 36.2134C64.7842 36.3513 64.8617 36.5383 64.8617 36.7333V68.9032C64.8617 69.0982 64.7842 69.2852 64.6464 69.4231C64.5085 69.561 64.3214 69.6385 64.1264 69.6385ZM36.6073 68.1679H63.3911V37.4686H36.6073V68.1679Z" fill="white"/>
<path d="M56.8231 37.4244H43.0908C42.8958 37.4244 42.7087 37.3469 42.5708 37.209C42.4329 37.0711 42.3555 36.8841 42.3555 36.6891V31.0038C42.3559 30.3236 42.6261 29.6713 43.107 29.1902C43.5878 28.7091 44.24 28.4384 44.9202 28.4376H47.2033C47.4678 27.8509 47.8963 27.3531 48.4372 27.0041C48.978 26.6552 49.6082 26.4699 50.2518 26.4707C50.8957 26.473 51.5255 26.6595 52.0669 27.0081C52.6082 27.3568 53.0385 27.8531 53.3069 28.4384H54.9937C55.6738 28.4391 56.3258 28.7097 56.8066 29.1907C57.2875 29.6716 57.5578 30.3237 57.5584 31.0038V36.6891C57.5584 36.8841 57.4809 37.0711 57.343 37.209C57.2052 37.3469 57.0181 37.4244 56.8231 37.4244ZM43.8261 35.9538H56.0878V31.0038C56.0878 30.7135 55.9726 30.435 55.7675 30.2296C55.5623 30.0242 55.284 29.9086 54.9937 29.9082H52.79C52.6266 29.9082 52.4679 29.8538 52.3389 29.7535C52.2098 29.6532 52.1179 29.5129 52.0775 29.3545C51.9718 28.9505 51.7353 28.5929 51.4051 28.3373C51.0749 28.0817 50.6694 27.9424 50.2518 27.9413C49.393 27.9413 48.6459 28.5222 48.4364 29.3531C48.3964 29.5119 48.3045 29.6529 48.1753 29.7536C48.0461 29.8543 47.8869 29.909 47.7231 29.9089H44.9202C44.63 29.9093 44.3518 30.0248 44.1467 30.2301C43.9416 30.4354 43.8263 30.7136 43.8261 31.0038V35.9538Z" fill="white"/>
<path d="M49.954 32.5554C49.5474 32.5554 49.1694 32.1768 49.1694 31.7709C49.1694 31.365 49.5474 30.9863 49.9533 30.9863C50.3591 30.9863 50.7386 31.365 50.7386 31.7709C50.7386 32.1768 50.3606 32.5554 49.954 32.5554ZM49.9467 62.026C49.7518 62.026 49.5592 61.9481 49.4217 61.8106L41.6731 54.0665C41.1957 53.5908 40.817 53.0255 40.5587 52.403C40.3004 51.7806 40.1676 51.1132 40.168 50.4393C40.167 49.7656 40.2997 49.0984 40.5583 48.4763C40.8169 47.8542 41.1963 47.2895 41.6746 46.815C42.1474 46.339 42.71 45.9616 43.3297 45.7047C43.9494 45.4477 44.614 45.3162 45.2849 45.3179H45.2886C46.6591 45.3179 47.9481 45.8518 48.9172 46.8224L49.9459 47.8466L50.9702 46.8224C51.4449 46.3448 52.0095 45.9659 52.6315 45.7077C53.2534 45.4495 53.9203 45.317 54.5937 45.3179H54.5996C55.9672 45.3179 57.2525 45.8503 58.2194 46.8172C58.695 47.2923 59.0723 47.8565 59.3296 48.4775C59.587 49.0985 59.7195 49.7641 59.7194 50.4363V50.4393C59.7198 51.1127 59.5872 51.7795 59.3293 52.4016C59.0714 53.0236 58.6932 53.5887 58.2165 54.0643L50.4665 61.8106C50.3284 61.948 50.1415 62.0259 49.9467 62.026ZM45.2886 46.7885H45.2864C44.808 46.7871 44.3342 46.8808 43.8924 47.064C43.4506 47.2473 43.0497 47.5166 42.7128 47.8562C42.3718 48.1949 42.1012 48.5978 41.9168 49.0417C41.7324 49.4855 41.6378 49.9616 41.6386 50.4422C41.6386 51.4113 42.0209 52.3304 42.7143 53.0282L49.9437 60.2532L57.1753 53.026C57.5152 52.687 57.7849 52.2843 57.9691 51.841C58.1533 51.3977 58.2483 50.9224 58.2487 50.4424C58.2491 49.9623 58.1549 49.4869 57.9715 49.0433C57.7881 48.5997 57.519 48.1965 57.1797 47.8569C56.8416 47.517 56.4394 47.2475 55.9963 47.0642C55.5533 46.8808 55.0783 46.7871 54.5989 46.7885H54.5959C54.1153 46.7878 53.6394 46.8823 53.1955 47.0666C52.7516 47.2508 52.3487 47.5212 52.0099 47.8621L50.4658 49.4062C50.3279 49.5436 50.1413 49.6207 49.9467 49.6207C49.752 49.6207 49.5654 49.5436 49.4275 49.4062L47.8783 47.8628C47.5391 47.5214 47.1356 47.2508 46.691 47.0665C46.2465 46.8822 45.7698 46.7872 45.2886 46.7885Z" fill="white"/>
<path d="M49.1375 55.7742C48.8939 55.7761 48.6556 55.7035 48.4544 55.5662C48.2532 55.4289 48.0987 55.2334 48.0117 55.0059L46.0485 51.0456L45.0463 53.4029C44.9545 53.6209 44.8003 53.8068 44.6032 53.9374C44.406 54.0679 44.1747 54.1373 43.9382 54.1367H35.872C35.677 54.1367 35.49 54.0593 35.3521 53.9214C35.2142 53.7835 35.1367 53.5965 35.1367 53.4014C35.1367 53.2064 35.2142 53.0194 35.3521 52.8815C35.49 52.7436 35.677 52.6662 35.872 52.6662H43.7617L44.922 49.9367C45.1147 49.4831 45.5205 49.1889 46.0507 49.2037C46.5433 49.211 46.9764 49.5132 47.1536 49.9728L49.1933 54.086L51.0352 51.9904C51.2632 51.6544 51.6426 51.45 52.0595 51.4639C52.5007 51.4742 52.9007 51.7242 53.1029 52.1162L53.2919 52.4823H64.1264C64.3214 52.4823 64.5085 52.5598 64.6464 52.6977C64.7842 52.8356 64.8617 53.0226 64.8617 53.2176C64.8617 53.4126 64.7842 53.5997 64.6464 53.7376C64.5085 53.8754 64.3214 53.9529 64.1264 53.9529H52.8426C52.7076 53.9529 52.5752 53.9156 52.46 53.8451C52.3448 53.7747 52.2512 53.6738 52.1897 53.5537L51.9779 53.1456L50.1316 55.2463C50.0221 55.4093 49.8741 55.5427 49.7007 55.6348C49.5273 55.7269 49.3338 55.7748 49.1375 55.7742ZM49.3514 54.4051L49.3558 54.4125C49.3546 54.4099 49.3531 54.4074 49.3514 54.4051ZM45.8095 50.5647C45.8108 50.5673 45.8122 50.5697 45.8139 50.572L45.8095 50.5647Z" fill="white"/>
</svg>
