<svg width="100" height="100" viewBox="0 0 100 100" fill="none" xmlns="http://www.w3.org/2000/svg">
<rect width="100" height="100" rx="50" fill="#2D8DEA"/>
<path d="M68.8984 49.922H62.5391L59.8594 39.1798C59.7979 38.9236 59.6519 38.6956 59.445 38.5326C59.238 38.3696 58.9822 38.2811 58.7187 38.2814C58.4529 38.2888 58.1975 38.3864 57.9945 38.5582C57.7914 38.73 57.6529 38.9657 57.6016 39.2267L53.6016 59.0704L51.875 50.8517C51.8233 50.6056 51.6938 50.3827 51.5056 50.2159C51.3175 50.0491 51.0807 49.9473 50.8302 49.9254C50.5798 49.9035 50.3289 49.9627 50.1147 50.0943C49.9005 50.226 49.7343 50.423 49.6406 50.6564L48.4375 53.672L46.0937 34.2345C46.0594 33.95 45.9219 33.688 45.7074 33.4979C45.4929 33.3079 45.2162 33.2031 44.9297 33.2032C44.6392 33.1994 44.3577 33.3036 44.1398 33.4956C43.9218 33.6876 43.7829 33.9537 43.75 34.2423L40.8359 59.3204L38.7812 51.5079C38.7156 51.2574 38.5689 51.0357 38.364 50.8774C38.159 50.7191 37.9074 50.6331 37.6484 50.6329H31.1016C30.7908 50.6329 30.4927 50.7564 30.2729 50.9761C30.0532 51.1959 29.9297 51.494 29.9297 51.8048C29.9297 52.1156 30.0532 52.4137 30.2729 52.6334C30.4927 52.8532 30.7908 52.9767 31.1016 52.9767H36.7187L40.125 65.9142C40.1906 66.1647 40.3373 66.3864 40.5423 66.5447C40.7472 66.703 40.9988 66.789 41.2578 66.7892H41.3437C41.6153 66.7693 41.8714 66.6554 42.0681 66.4673C42.2649 66.2791 42.3899 66.0283 42.4219 65.7579L44.9141 44.3126L46.6328 58.5001C46.6642 58.7581 46.7805 58.9982 46.9633 59.1829C47.1461 59.3676 47.3852 59.4862 47.6428 59.5202C47.9004 59.5542 48.162 59.5016 48.3865 59.3707C48.611 59.2398 48.7856 59.038 48.8828 58.797L50.3516 55.1251L52.4609 65.1485C52.5165 65.4118 52.661 65.6479 52.8702 65.8172C53.0793 65.9865 53.3403 66.0787 53.6094 66.0782C53.8793 66.0761 54.1402 65.9809 54.348 65.8087C54.5558 65.6364 54.6978 65.3977 54.75 65.1329L58.8125 44.8204L60.4531 51.3907C60.5161 51.6454 60.6627 51.8717 60.8695 52.0331C61.0763 52.1946 61.3314 52.282 61.5937 52.2813H68.8594C69.1702 52.2813 69.4682 52.1579 69.688 51.9381C69.9078 51.7183 70.0312 51.4203 70.0312 51.1095C70.0312 50.7987 69.9078 50.5006 69.688 50.2808C69.4682 50.0611 69.1702 49.9376 68.8594 49.9376L68.8984 49.922Z" fill="white"/>
</svg>
