<svg width="100" height="100" viewBox="0 0 100 100" fill="none" xmlns="http://www.w3.org/2000/svg">
<rect width="100" height="100" rx="50" fill="#2D8DEA"/>
<g clip-path="url(#clip0_436_23883)">
<path d="M50.0013 31.25C47.117 31.25 44.2975 32.1053 41.8992 33.7077C39.501 35.3102 37.6318 37.5878 36.5281 40.2525C35.4243 42.9173 35.1355 45.8495 35.6982 48.6784C36.2609 51.5073 37.6498 54.1058 39.6893 56.1453C41.7289 58.1848 44.3274 59.5738 47.1562 60.1365C49.9851 60.6992 52.9174 60.4104 55.5821 59.3066C58.2469 58.2028 60.5245 56.3336 62.1269 53.9354C63.7293 51.5372 64.5846 48.7176 64.5846 45.8333C64.5846 41.9656 63.0482 38.2563 60.3133 35.5214C57.5784 32.7865 53.8691 31.25 50.0013 31.25ZM50.0013 58.3333C47.529 58.3333 45.1123 57.6002 43.0567 56.2267C41.0011 54.8532 39.3989 52.901 38.4528 50.6169C37.5067 48.3328 37.2592 45.8195 37.7415 43.3947C38.2238 40.9699 39.4143 38.7427 41.1625 36.9945C42.9106 35.2463 45.1379 34.0558 47.5627 33.5735C49.9874 33.0912 52.5008 33.3387 54.7849 34.2848C57.0689 35.2309 59.0212 36.8331 60.3947 38.8887C61.7682 40.9443 62.5013 43.3611 62.5013 45.8333C62.5013 49.1485 61.1844 52.328 58.8401 54.6722C56.4959 57.0164 53.3165 58.3333 50.0013 58.3333Z" fill="white"/>
<path d="M69.5512 42.9896C69.2759 42.7407 69.0885 42.4093 69.0171 42.045C68.9458 41.6807 68.9943 41.3032 69.1554 40.9688C69.3842 40.4884 69.5094 39.9653 69.5228 39.4334C69.5362 38.9015 69.4375 38.3728 69.2332 37.8815C69.0288 37.3903 68.7234 36.9476 68.3367 36.5821C67.95 36.2167 67.4907 35.9367 66.9887 35.7604C66.6361 35.6418 66.3326 35.41 66.1254 35.101C65.9182 34.7921 65.8188 34.4233 65.8429 34.0521C65.8736 33.5034 65.7857 32.9545 65.5851 32.4429C65.3846 31.9312 65.076 31.4688 64.6806 31.0872C64.2851 30.7056 63.812 30.4137 63.2936 30.2315C62.7751 30.0493 62.2235 29.981 61.6762 30.0313C61.3225 30.0325 60.9773 29.9225 60.6894 29.7169C60.4015 29.5113 60.1856 29.2204 60.072 28.8854C59.8957 28.3834 59.6158 27.9241 59.2503 27.5374C58.8849 27.1508 58.4421 26.8453 57.9509 26.6409C57.4597 26.4366 56.9309 26.3379 56.399 26.3513C55.8671 26.3647 55.344 26.4899 54.8637 26.7188C52.9054 27.6146 52.8325 25 49.9991 25C49.4619 25.003 48.9313 25.1185 48.4414 25.3392C47.9516 25.5599 47.5135 25.8808 47.1554 26.2813C46.9027 26.551 46.5716 26.7344 46.2089 26.8055C45.8462 26.8765 45.4703 26.8316 45.1345 26.6771C44.6545 26.4465 44.1311 26.32 43.5988 26.3058C43.0664 26.2915 42.537 26.3899 42.0453 26.5945C41.5536 26.799 41.1107 27.1051 40.7455 27.4927C40.3803 27.8804 40.1011 28.3407 39.9262 28.8438C39.8041 29.1962 39.57 29.499 39.2596 29.7059C38.9493 29.9128 38.5797 30.0124 38.2075 29.9896C37.6588 29.9588 37.1099 30.0467 36.5982 30.2473C36.0866 30.4479 35.6242 30.7564 35.2426 31.1519C34.861 31.5473 34.5691 32.0204 34.3869 32.5389C34.2046 33.0573 34.1363 33.609 34.1866 34.1563C34.1879 34.51 34.0779 34.8552 33.8723 35.1431C33.6667 35.4309 33.3758 35.6469 33.0408 35.7604C32.5398 35.9381 32.0816 36.2188 31.6958 36.5845C31.31 36.9502 31.0052 37.3927 30.8011 37.8835C30.5969 38.3743 30.4979 38.9025 30.5105 39.4339C30.5231 39.9653 30.6469 40.4882 30.8741 40.9688C31.0494 41.3114 31.1047 41.7029 31.031 42.0806C30.9574 42.4584 30.759 42.8004 30.4679 43.0521C30.0676 43.4088 29.7473 43.8461 29.528 44.3353C29.3087 44.8245 29.1953 45.3545 29.1953 45.8906C29.1953 46.4267 29.3087 46.9568 29.528 47.446C29.7473 47.9352 30.0676 48.3725 30.4679 48.7292C30.7432 48.9781 30.9306 49.3095 31.0019 49.6737C31.0733 50.038 31.0248 50.4156 30.8637 50.75C30.6332 51.2301 30.5066 51.7534 30.4924 52.2858C30.4782 52.8181 30.5765 53.3475 30.7811 53.8392C30.9856 54.3309 31.2917 54.7739 31.6794 55.139C32.067 55.5042 32.5274 55.7834 33.0304 55.9583C33.3828 56.0805 33.6856 56.3146 33.8925 56.6249C34.0994 56.9353 34.199 57.3048 34.1762 57.6771C34.1254 58.537 34.3706 59.3884 34.8709 60.0896C35.3712 60.7908 36.0965 61.2996 36.9262 61.5313C32.0199 70.0417 32.0095 69.6667 32.4887 70.3854C32.9679 71.1042 33.2908 70.8646 37.8741 70.3125C39.6658 74.5417 39.6345 75 40.4887 75C41.3429 75 41.1658 75 46.8429 65.1354C46.9594 65.2106 47.0676 65.2979 47.1658 65.3958C47.5225 65.7961 47.9598 66.1164 48.449 66.3357C48.9382 66.555 49.4682 66.6684 50.0043 66.6684C50.5404 66.6684 51.0705 66.555 51.5597 66.3357C52.0489 66.1164 52.4862 65.7961 52.8429 65.3958C52.9381 65.3019 53.0428 65.2182 53.1554 65.1458C58.9783 75.2396 58.6345 75.0729 59.5095 75.0104C60.3845 74.9479 60.3324 74.5625 62.1449 70.3021C66.697 70.8542 67.0616 71.0938 67.5304 70.375C67.9991 69.6563 67.7595 69.6146 63.0929 61.5313C63.9389 61.2888 64.675 60.7611 65.1762 60.0377C65.6775 59.3143 65.913 58.4398 65.8429 57.5625C65.8416 57.2088 65.9516 56.8636 66.1572 56.5757C66.3628 56.2878 66.6537 56.0719 66.9887 55.9583C67.4897 55.7807 67.9479 55.4999 68.3337 55.1342C68.7194 54.7685 69.0243 54.326 69.2284 53.8352C69.4326 53.3444 69.5316 52.8163 69.519 52.2849C69.5064 51.7535 69.3825 51.2306 69.1554 50.75C68.9976 50.4149 68.951 50.0382 69.0221 49.6747C69.0933 49.3113 69.2787 48.98 69.5512 48.7292C69.9634 48.3732 70.2941 47.9327 70.5208 47.4374C70.7474 46.9422 70.8648 46.404 70.8648 45.8594C70.8648 45.3148 70.7474 44.7765 70.5208 44.2813C70.2941 43.7861 69.9634 43.3455 69.5512 42.9896ZM40.6866 71.6354C38.8533 67.3542 39.8324 67.9583 35.2804 68.5104C39.5095 61.2188 39.0512 61.875 39.1762 61.9479C39.5061 62.1493 39.7563 62.4584 39.8845 62.8229C40.1944 63.7139 40.8245 64.4579 41.6523 64.9103C42.48 65.3627 43.4465 65.4912 44.3637 65.2708L40.6866 71.6354ZM59.3116 71.6354L55.6345 65.2708C56.5504 65.4907 57.5153 65.3619 58.3414 64.9094C59.1674 64.4569 59.7955 63.7131 60.1033 62.8229C60.2571 62.4315 60.5401 62.1043 60.9054 61.8958L64.7179 68.5104C60.1241 67.9479 61.1137 67.4063 59.3116 71.6354ZM68.1762 47.1146C67.5586 47.6657 67.1372 48.4029 66.9756 49.2147C66.8139 50.0266 66.9209 50.8689 67.2804 51.6146C67.3864 51.8313 67.4451 52.0681 67.4524 52.3092C67.4598 52.5504 67.4157 52.7903 67.323 53.013C67.2304 53.2358 67.0913 53.4362 66.9151 53.601C66.7389 53.7658 66.5296 53.8912 66.3012 53.9688C65.5072 54.2501 64.828 54.7852 64.3686 55.4913C63.9092 56.1974 63.6951 57.0351 63.7595 57.875C63.7589 58.114 63.7088 58.3503 63.6123 58.569C63.5158 58.7876 63.375 58.9839 63.1988 59.1454C63.0226 59.3069 62.8149 59.4301 62.5887 59.5073C62.3624 59.5845 62.1227 59.6139 61.8845 59.5938C61.0698 59.5607 60.266 59.7898 59.5911 60.2472C58.9162 60.7047 58.4056 61.3665 58.1345 62.1354C58.0542 62.3618 57.9273 62.5689 57.762 62.7432C57.5967 62.9176 57.3966 63.0553 57.1748 63.1476C56.953 63.2398 56.7143 63.2846 56.4741 63.2789C56.2339 63.2732 55.9976 63.2172 55.7804 63.1146C55.036 62.7615 54.1978 62.657 53.3895 62.8164C52.5811 62.9758 51.8454 63.3907 51.2908 64C51.1245 64.1736 50.9248 64.3118 50.7037 64.4062C50.4826 64.5006 50.2447 64.5492 50.0043 64.5492C49.7639 64.5492 49.526 64.5006 49.3049 64.4062C49.0838 64.3118 48.8841 64.1736 48.7179 64C48.1667 63.3824 47.4295 62.961 46.6177 62.7994C45.8059 62.6377 44.9635 62.7447 44.2179 63.1042C44.0002 63.2086 43.7629 63.266 43.5215 63.2726C43.2801 63.2792 43.0401 63.2348 42.817 63.1424C42.5939 63.0501 42.3928 62.9117 42.2267 62.7364C42.0607 62.5611 41.9334 62.3528 41.8533 62.125C41.5769 61.3298 41.0445 60.6489 40.3394 60.1889C39.6344 59.7289 38.7966 59.5159 37.9574 59.5833C37.7184 59.5827 37.4821 59.5326 37.2635 59.4361C37.0448 59.3396 36.8485 59.1988 36.687 59.0226C36.5255 58.8464 36.4023 58.6387 36.3251 58.4125C36.248 58.1862 36.2185 57.9465 36.2387 57.7083C36.2734 56.8933 36.045 56.0887 35.5873 55.4135C35.1297 54.7382 34.4669 54.228 33.697 53.9583C33.4676 53.8822 33.2571 53.7577 33.08 53.5931C32.9028 53.4286 32.7631 53.2279 32.6702 53.0047C32.5774 52.7815 32.5336 52.5409 32.5418 52.2993C32.55 52.0576 32.6101 51.8206 32.7179 51.6042C33.0743 50.8604 33.1807 50.0214 33.0211 49.2123C32.8615 48.4031 32.4446 47.6673 31.8324 47.1146C31.6504 46.9533 31.5047 46.7553 31.4049 46.5335C31.3051 46.3117 31.2535 46.0713 31.2535 45.8281C31.2535 45.5849 31.3051 45.3445 31.4049 45.1228C31.5047 44.901 31.6504 44.7029 31.8324 44.5417C32.4472 43.9886 32.8665 43.2515 33.028 42.4405C33.1894 41.6295 33.0843 40.788 32.7283 40.0417C32.6205 39.8253 32.5604 39.5882 32.5522 39.3466C32.544 39.1049 32.5878 38.8644 32.6806 38.6411C32.7735 38.4179 32.9132 38.2172 33.0904 38.0527C33.2675 37.8882 33.478 37.7636 33.7074 37.6875C34.5014 37.4061 35.1806 36.871 35.6401 36.165C36.0995 35.4589 36.3135 34.6212 36.2491 33.7813C36.2481 33.5418 36.2972 33.3047 36.3932 33.0853C36.4891 32.8659 36.6299 32.669 36.8064 32.5071C36.983 32.3453 37.1914 32.2222 37.4183 32.1456C37.6452 32.069 37.8856 32.0407 38.1241 32.0625C38.9391 32.0972 39.7437 31.8688 40.419 31.4111C41.0943 30.9535 41.6044 30.2907 41.8741 29.5208C41.9545 29.2944 42.0814 29.0874 42.2467 28.913C42.412 28.7387 42.612 28.6009 42.8338 28.5087C43.0557 28.4164 43.2944 28.3717 43.5346 28.3774C43.7747 28.383 44.0111 28.439 44.2283 28.5417C44.972 28.8981 45.811 29.0045 46.6202 28.8449C47.4293 28.6853 48.1652 28.2684 48.7179 27.6563C48.8841 27.4826 49.0838 27.3445 49.3049 27.2501C49.526 27.1557 49.7639 27.107 50.0043 27.107C50.2447 27.107 50.4826 27.1557 50.7037 27.2501C50.9248 27.3445 51.1245 27.4826 51.2908 27.6563C51.8439 28.271 52.5809 28.6903 53.392 28.8518C54.203 29.0132 55.0444 28.9081 55.7908 28.5521C56.0077 28.4477 56.2443 28.3904 56.485 28.3839C56.7256 28.3774 56.9649 28.4219 57.1872 28.5143C57.4095 28.6068 57.6097 28.7452 57.7748 28.9204C57.9398 29.0957 58.066 29.3038 58.1449 29.5313C58.4263 30.3252 58.9614 31.0044 59.6675 31.4639C60.3735 31.9233 61.2113 32.1373 62.0512 32.0729C62.2902 32.0735 62.5265 32.1236 62.7452 32.2201C62.9638 32.3167 63.1601 32.4574 63.3216 32.6336C63.4831 32.8098 63.6063 33.0176 63.6835 33.2438C63.7607 33.47 63.7901 33.7098 63.77 33.9479C63.7353 34.7629 63.9636 35.5675 64.4213 36.2428C64.879 36.9181 65.5417 37.4282 66.3116 37.6979C66.5411 37.774 66.7515 37.8986 66.9287 38.0631C67.1059 38.2276 67.2456 38.4283 67.3384 38.6515C67.4313 38.8748 67.4751 39.1154 67.4669 39.357C67.4586 39.5986 67.3986 39.8357 67.2908 40.0521C66.9343 40.7958 66.828 41.6349 66.9876 42.444C67.1471 43.2531 67.5641 43.989 68.1762 44.5417C68.3582 44.7029 68.5039 44.901 68.6037 45.1228C68.7036 45.3445 68.7552 45.5849 68.7552 45.8281C68.7552 46.0713 68.7036 46.3117 68.6037 46.5335C68.5039 46.7553 68.3582 46.9533 68.1762 47.1146Z" fill="white"/>
<path d="M53.2706 41.7705C50.7915 36.7601 50.8644 36.458 49.9998 36.458C49.1352 36.458 49.2081 36.7497 46.729 41.7705C41.2081 42.5726 40.9477 42.4059 40.6769 43.2288C40.4061 44.0518 40.6769 44.083 44.7186 47.9788C43.7706 53.4788 43.5415 53.6872 44.2394 54.2288C44.9373 54.7705 45.0519 54.458 49.9998 51.8538C55.0311 54.4997 54.7915 54.4268 55.1456 54.4268C55.2987 54.429 55.4504 54.3975 55.5899 54.3344C55.7293 54.2714 55.8532 54.1784 55.9527 54.062C56.0521 53.9456 56.1247 53.8088 56.1653 53.6612C56.2058 53.5136 56.2133 53.3588 56.1873 53.208L55.2915 47.9997L59.0727 44.3226C59.2134 44.1867 59.3129 44.014 59.36 43.8242C59.407 43.6344 59.3997 43.4351 59.3388 43.2493C59.278 43.0635 59.166 42.8985 59.0158 42.7733C58.8656 42.6481 58.6832 42.5677 58.4894 42.5413L53.2706 41.7705ZM53.4373 46.8747C52.9165 47.3851 53.1144 47.6143 53.7706 51.4476C50.1352 49.5413 50.3436 49.6038 49.9998 49.6038C49.6561 49.6038 49.8644 49.5413 46.229 51.4476C46.8956 47.5934 47.0831 47.3747 46.5623 46.8747L43.9061 44.2809L47.5727 43.7497C48.3019 43.6455 48.2811 43.3434 49.9998 39.8538C51.7394 43.3747 51.7081 43.6455 52.4269 43.7497L56.0936 44.2809L53.4373 46.8747Z" fill="white"/>
</g>
<defs>
<clipPath id="clip0_436_23883">
<rect width="50" height="50" fill="white" transform="translate(25 25)"/>
</clipPath>
</defs>
</svg>
