<svg width="100" height="100" viewBox="0 0 100 100" fill="none" xmlns="http://www.w3.org/2000/svg">
<rect width="100" height="100" rx="50" fill="#2D8DEA"/>
<path d="M67.5484 41.7328C68.6477 36.7548 64.0044 32.5157 59.3586 33.6806C58.1287 29.5369 54.265 26.6094 49.8701 26.6094C45.5077 26.6094 41.6436 29.5183 40.3959 33.6317C35.6408 32.6508 31.4019 37.0135 32.4551 41.7328C28.7939 42.0382 25.7578 45.0842 25.7578 49.0001C25.7578 53.0328 29.0345 56.3139 33.0624 56.3139C33.4808 56.3139 33.82 55.9751 33.82 55.5563C33.82 55.1376 33.4808 54.7988 33.0624 54.7988C29.8701 54.7988 27.273 52.1976 27.273 49.0001C27.273 45.5846 30.1923 43.0208 33.4246 43.2354C33.6909 43.2435 33.9339 43.1362 34.0867 42.9261C34.2398 42.716 34.2749 42.443 34.1796 42.2011C32.5574 38.0931 36.5143 33.8874 40.6974 35.2786C40.9005 35.3474 41.1253 35.3252 41.3121 35.2187C41.4993 35.1122 41.6321 34.9309 41.6776 34.7201C42.5036 30.8982 45.9489 28.1245 49.87 28.1245C53.8325 28.1245 57.2849 30.9329 58.079 34.8022C58.1242 35.0219 58.2647 35.2106 58.4626 35.3171C58.6605 35.4236 58.8958 35.4355 59.104 35.3526C63.1709 33.7148 67.5453 37.972 65.8238 42.193C65.725 42.4349 65.758 42.7109 65.9107 42.9225C66.0638 43.1341 66.3168 43.2488 66.5754 43.2354C69.8765 43.011 72.7275 45.6504 72.7275 49.0001C72.7275 52.1976 70.1341 54.7988 66.9465 54.7988C66.5282 54.7988 66.1889 55.1376 66.1889 55.5563C66.1889 55.9751 66.5282 56.3139 66.9465 56.3139C70.9696 56.3139 74.2427 53.0328 74.2427 49.0001C74.2427 45.071 71.1884 42.0369 67.5484 41.7328Z" fill="white"/>
<path d="M52.3179 51.1016H47.6855C46.4889 51.1016 45.5156 52.0752 45.5156 53.2722V57.9042C45.5156 59.1005 46.4889 60.0741 47.6855 60.0741H52.3179C53.5146 60.0741 54.4881 59.1005 54.4881 57.9042V53.2722C54.4882 52.0752 53.5146 51.1016 52.3179 51.1016ZM52.9731 57.9042C52.9731 58.2653 52.6793 58.559 52.318 58.559H47.6856C47.3246 58.559 47.0309 58.2653 47.0309 57.9042V53.2722C47.0309 52.9104 47.3246 52.6167 47.6856 52.6167H52.318C52.6794 52.6167 52.9731 52.9104 52.9731 53.2722V57.9042Z" fill="white"/>
<path d="M65.022 60.487C64.702 60.487 64.3987 60.5529 64.1159 60.6603L63.1747 59.3425C63.0323 59.1435 62.8026 59.0252 62.558 59.0252H58.7461V56.3448H60.8174C61.129 57.2009 61.9433 57.8177 62.9058 57.8177C64.1353 57.8177 65.1356 56.8168 65.1356 55.5872C65.1356 54.3577 64.1354 53.3574 62.9058 53.3574C61.9433 53.3574 61.1291 53.9736 60.8174 54.8296H58.7461V52.15H62.7659C63.0105 52.15 63.2402 52.0316 63.3826 51.8327L64.3243 50.5143C64.6071 50.6216 64.9103 50.6874 65.2302 50.6874C66.6481 50.6874 67.8014 49.534 67.8014 48.1165C67.8014 46.699 66.648 45.5456 65.2302 45.5456C63.8124 45.5456 62.659 46.699 62.659 48.1165C62.659 48.6633 62.8334 49.1683 63.1255 49.5855L62.376 50.6349H58.7461V48.9866C58.7461 47.8029 57.7832 46.8396 56.5995 46.8396H54.9508V43.4178L56.0002 42.668C56.4174 42.9601 56.9224 43.1345 57.4691 43.1345C58.887 43.1345 60.0403 41.9811 60.0403 40.5636C60.0403 39.1461 58.8869 37.9927 57.4691 37.9927C56.0516 37.9927 54.8982 39.1461 54.8982 40.5636C54.8982 40.8836 54.9641 41.1869 55.0715 41.4699L53.753 42.4117C53.5536 42.5537 53.4356 42.783 53.4356 43.028V46.8396H50.7556V44.7688C51.6118 44.4571 52.2282 43.6429 52.2282 42.6803C52.2282 41.4508 51.228 40.4505 49.9983 40.4505C48.7687 40.4505 47.7685 41.4507 47.7685 42.6803C47.7685 43.6427 48.3846 44.4568 49.2404 44.7686V46.8396H46.5608V42.8201C46.5608 42.5752 46.4427 42.3458 46.2434 42.2038L44.9252 41.2622C45.0326 40.9793 45.0986 40.6759 45.0986 40.3558C45.0986 38.9375 43.9452 37.7842 42.5274 37.7842C41.1096 37.7842 39.9561 38.9376 39.9561 40.3558C39.9561 41.7733 41.1096 42.9267 42.5274 42.9267C43.0741 42.9267 43.5793 42.7523 43.9964 42.4602L45.0457 43.21V46.8396H43.3974C42.2136 46.8396 41.2508 47.8028 41.2508 48.9865V50.6349H37.6205L36.8709 49.5854C37.163 49.1683 37.3374 48.6632 37.3374 48.1165C37.3374 46.699 36.184 45.5455 34.7662 45.5455C33.3487 45.5455 32.1953 46.699 32.1953 48.1165C32.1953 49.534 33.3487 50.6874 34.7662 50.6874C35.0862 50.6874 35.3894 50.6215 35.6722 50.5143L36.6139 51.8326C36.7563 52.0316 36.986 52.1499 37.2305 52.1499H41.2507V54.8296H39.1795C38.8677 53.9736 38.0535 53.3573 37.0911 53.3573C35.8615 53.3573 34.8612 54.3575 34.8612 55.5871C34.8612 56.8168 35.8614 57.8177 37.0911 57.8177C38.0535 57.8177 38.8679 57.2008 39.1796 56.3447H41.2507V59.0251H37.4384C37.1939 59.0251 36.9642 59.1435 36.8218 59.3424L35.8805 60.6602C35.5977 60.5529 35.2945 60.487 34.9745 60.487C33.5566 60.487 32.4033 61.6404 32.4033 63.0586C32.4033 64.4761 33.5567 65.6295 34.9745 65.6295C36.3923 65.6295 37.5457 64.4761 37.5457 63.0586C37.5457 62.5116 37.3713 62.0064 37.0792 61.5891L37.8283 60.5402H41.2508V62.1886C41.2508 63.3723 42.2136 64.3348 43.3974 64.3348H45.0457V67.9651L43.9964 68.7149C43.5793 68.4228 43.0742 68.2484 42.5274 68.2484C41.1095 68.2484 39.9561 69.4018 39.9561 70.8193C39.9561 72.2368 41.1096 73.3902 42.5274 73.3902C43.9452 73.3902 45.0986 72.2368 45.0986 70.8193C45.0986 70.4992 45.0327 70.1958 44.9252 69.9129L46.2435 68.9713C46.4429 68.8293 46.5608 68.5999 46.5608 68.355V64.3349H49.2405V66.4065C48.3847 66.7183 47.7686 67.5325 47.7686 68.4949C47.7686 69.7244 48.7688 70.7247 49.9984 70.7247C51.228 70.7247 52.2283 69.7245 52.2283 68.4949C52.2283 67.5323 51.6118 66.7179 50.7557 66.4064V64.3349H53.4357V68.1471C53.4357 68.392 53.5537 68.6214 53.753 68.7634L55.0715 69.7052C54.9643 69.988 54.8983 70.2915 54.8983 70.6115C54.8983 72.029 56.0518 73.1824 57.4693 73.1824C58.8871 73.1824 60.0405 72.029 60.0405 70.6115C60.0405 69.1933 58.8871 68.0399 57.4693 68.0399C56.9224 68.0399 56.4172 68.2146 55.9999 68.5068L54.9508 67.7572V64.3348H56.5995C57.7832 64.3348 58.7461 63.3723 58.7461 62.1886V60.5402H62.1681L62.9174 61.5893C62.6254 62.0066 62.4511 62.5117 62.4511 63.0586C62.4511 64.4761 63.6045 65.6296 65.022 65.6296C66.4399 65.6296 67.5932 64.4761 67.5932 63.0586C67.5932 61.6403 66.4398 60.487 65.022 60.487ZM62.1914 55.5859C62.1924 55.1919 62.5124 54.8724 62.9057 54.8724C63.2996 54.8724 63.6204 55.1928 63.6204 55.5871C63.6204 55.9815 63.2997 56.3025 62.9057 56.3025C62.5124 56.3025 62.1924 55.9824 62.1914 55.589L62.1918 55.5871L62.1914 55.5859ZM65.2302 47.0607C65.8125 47.0607 66.2863 47.5342 66.2863 48.1165C66.2863 48.6987 65.8124 49.1722 65.2302 49.1722C64.648 49.1722 64.1742 48.6987 64.1742 48.1165C64.1742 47.5342 64.648 47.0607 65.2302 47.0607ZM57.4691 39.5079C58.0514 39.5079 58.5252 39.9814 58.5252 40.5636C58.5252 41.1459 58.0513 41.6194 57.4691 41.6194C56.8869 41.6194 56.4133 41.1459 56.4133 40.5636C56.4133 39.9814 56.8869 39.5079 57.4691 39.5079ZM42.5274 41.4115C41.9451 41.4115 41.4713 40.938 41.4713 40.3557C41.4713 39.7734 41.9452 39.2993 42.5274 39.2993C43.1096 39.2993 43.5834 39.7735 43.5834 40.3557C43.5834 40.9379 43.1096 41.4115 42.5274 41.4115ZM34.7663 49.1721C34.184 49.1721 33.7105 48.6986 33.7105 48.1164C33.7105 47.5341 34.184 47.0606 34.7663 47.0606C35.3486 47.0606 35.8224 47.5341 35.8224 48.1164C35.8224 48.6986 35.3485 49.1721 34.7663 49.1721ZM37.8055 55.589C37.8045 55.9824 37.4845 56.3026 37.0911 56.3026C36.6972 56.3026 36.3764 55.9815 36.3764 55.5872C36.3764 55.1929 36.6971 54.8725 37.0911 54.8725C37.4845 54.8725 37.8044 55.1919 37.8055 55.5853L37.8051 55.5871L37.8055 55.589ZM34.9746 64.1143C34.3923 64.1143 33.9185 63.6408 33.9185 63.0586C33.9185 62.4763 34.3924 62.0021 34.9746 62.0021C35.5568 62.0021 36.0306 62.4764 36.0306 63.0586C36.0306 63.6408 35.5568 64.1143 34.9746 64.1143ZM42.5274 71.875C41.9451 71.875 41.4713 71.4015 41.4713 70.8193C41.4713 70.237 41.9452 69.7635 42.5274 69.7635C43.1096 69.7635 43.5834 70.237 43.5834 70.8193C43.5834 71.4015 43.1096 71.875 42.5274 71.875ZM57.4691 69.5549C58.0514 69.5549 58.5252 70.0292 58.5252 70.6114C58.5252 71.1936 58.0513 71.6671 57.4691 71.6671C56.8869 71.6671 56.4133 71.1937 56.4133 70.6114C56.4133 70.0291 56.8869 69.5549 57.4691 69.5549ZM49.9984 41.9655C50.3924 41.9655 50.7131 42.2859 50.7131 42.6802C50.7131 43.074 50.3932 43.3936 50.0001 43.3946L49.998 43.3942L49.9964 43.3946C49.6033 43.3933 49.2837 43.0739 49.2837 42.6802C49.2837 42.2859 49.6045 41.9655 49.9984 41.9655ZM49.9984 69.2095C49.6045 69.2095 49.2837 68.8891 49.2837 68.4948C49.2837 68.1012 49.6033 67.7818 49.9964 67.7805L49.998 67.7808L50.0001 67.7805C50.3932 67.7814 50.7131 68.101 50.7131 68.4948C50.7131 68.8891 50.3924 69.2095 49.9984 69.2095ZM57.2309 62.1886C57.2309 62.5363 56.9476 62.8196 56.5995 62.8196H43.3974C43.0493 62.8196 42.7659 62.5363 42.7659 62.1886V48.9865C42.7659 48.638 43.0493 48.3546 43.3974 48.3546H56.5995C56.9476 48.3546 57.2309 48.638 57.2309 48.9865V62.1886ZM65.022 64.1143C64.4397 64.1143 63.9662 63.6408 63.9662 63.0586C63.9662 62.4763 64.4397 62.0021 65.022 62.0021C65.6043 62.0021 66.078 62.4764 66.078 63.0586C66.078 63.6408 65.6042 64.1143 65.022 64.1143Z" fill="white"/>
</svg>
