<svg width="100" height="100" viewBox="0 0 100 100" fill="none" xmlns="http://www.w3.org/2000/svg">
<rect width="100" height="100" rx="50" fill="#2D8DEA"/>
<g clip-path="url(#clip0_436_23648)">
<path d="M71.0938 25H28.9062C26.7523 25 25 26.7523 25 28.9062V74.2188C25 74.65 25.35 75 25.7812 75H74.2188C74.65 75 75 74.65 75 74.2188V28.9062C75 26.7523 73.2477 25 71.0938 25ZM26.5625 39.8438H32.0312C32.1852 39.8438 32.3359 39.7977 32.4641 39.7133C33.0633 39.3148 34.8539 38.2812 35.9375 38.2812C36.9453 38.2812 38.1367 39.2445 38.5109 39.6156C38.657 39.7617 38.8563 39.8438 39.0625 39.8438H42.5938L45.4844 43.457C45.6766 43.6984 45.9938 43.8016 46.2914 43.725C46.5898 43.6469 46.8141 43.4016 46.8648 43.0977L48.4227 33.7531L50.7922 48.5617C50.8508 48.9281 51.1594 49.2023 51.5297 49.2188C51.5398 49.2188 51.5516 49.2188 51.5625 49.2188C51.9195 49.2188 52.2328 48.9758 52.3203 48.6273L54.5164 39.8438H57.8125C58.1086 39.8438 58.3789 39.6766 58.5117 39.4117C58.525 39.3852 59.9086 36.7188 61.7188 36.7188C63.4188 36.7188 64.0797 39.2281 64.0859 39.2523C64.1727 39.6 64.4852 39.8438 64.8438 39.8438H73.4375V50.7812H44.0734L40.3961 47.1039C40.25 46.957 40.0508 46.875 39.8438 46.875H26.5625V39.8438ZM28.9062 26.5625H71.0938C72.3859 26.5625 73.4375 27.6141 73.4375 28.9062V38.2812H65.4102C65.0125 37.2297 63.9461 35.1562 61.7188 35.1562C59.4883 35.1562 57.9305 37.3305 57.3563 38.2812H53.9062C53.5477 38.2812 53.2352 38.525 53.1484 38.8727L51.7312 44.5438L49.2086 28.7828C49.1484 28.4047 48.8227 28.1258 48.4398 28.125H48.4375C48.0555 28.125 47.7297 28.4016 47.6672 28.7773L45.6109 41.1141L43.5789 38.5742C43.4305 38.3891 43.2062 38.2812 42.9688 38.2812H39.3695C38.8109 37.7867 37.432 36.7188 35.9375 36.7188C34.418 36.7188 32.4594 37.8664 31.8008 38.2812H26.5625V28.9062C26.5625 27.6141 27.6141 26.5625 28.9062 26.5625ZM26.5625 73.4375V48.4375H39.5203L43.1977 52.1148C43.3437 52.2617 43.543 52.3438 43.75 52.3438H73.4375V73.4375H26.5625Z" fill="white"/>
<path d="M40.1094 57.9156C40.9109 57.0742 41.4062 55.9391 41.4062 54.6875C41.4062 52.1023 39.3039 50 36.7188 50C34.1336 50 32.0312 52.1023 32.0312 54.6875C32.0312 55.9391 32.5266 57.0742 33.3281 57.9156C30.8125 58.4055 28.9062 60.6242 28.9062 63.2812V71.0938C28.9062 71.525 29.2563 71.875 29.6875 71.875H43.75C44.1812 71.875 44.5312 71.525 44.5312 71.0938V63.2812C44.5312 60.6242 42.625 58.4055 40.1094 57.9156ZM36.7188 51.5625C38.4422 51.5625 39.8438 52.9641 39.8438 54.6875C39.8438 56.4109 38.4422 57.8125 36.7188 57.8125C34.9953 57.8125 33.5938 56.4109 33.5938 54.6875C33.5938 52.9641 34.9953 51.5625 36.7188 51.5625ZM42.9688 70.3125H30.4688V63.2812C30.4688 61.1273 32.2211 59.375 34.375 59.375H39.0625C41.2164 59.375 42.9688 61.1273 42.9688 63.2812V70.3125Z" fill="white"/>
<path d="M36.9945 61.7383L36.718 62.0148L36.4414 61.7383C35.3758 60.6719 33.6406 60.6719 32.5742 61.7383C32.0578 62.2547 31.7734 62.9414 31.7734 63.6719C31.7734 64.4023 32.0578 65.0891 32.5742 65.6055L36.1648 69.1961C36.3172 69.3484 36.5172 69.425 36.7172 69.425C36.9172 69.425 37.1172 69.3484 37.2695 69.1961L40.8602 65.6055C41.3766 65.0891 41.6609 64.4023 41.6609 63.6719C41.6609 62.9414 41.3766 62.2555 40.8602 61.7383C39.8281 60.7055 38.0273 60.7055 36.9945 61.7383ZM39.7562 64.5008L36.718 67.5391L33.6797 64.5C33.4586 64.2789 33.3367 63.9844 33.3367 63.6719C33.3367 63.3594 33.4586 63.0648 33.6797 62.843C33.9078 62.6148 34.2086 62.5008 34.5086 62.5008C34.8086 62.5008 35.1086 62.6148 35.3375 62.843L36.1664 63.6719C36.4719 63.9773 36.9656 63.9773 37.2711 63.6719L38.1 62.843C38.543 62.4008 39.3148 62.4 39.7578 62.843C39.9789 63.0641 40.1008 63.3586 40.1008 63.6719C40.1 63.9852 39.9773 64.2789 39.7562 64.5008ZM66.4055 56.25H57.0305C54.8766 56.25 53.1242 58.0023 53.1242 60.1562V66.4062C53.1242 68.5602 54.8766 70.3125 57.0305 70.3125H66.4055C68.5594 70.3125 70.3117 68.5602 70.3117 66.4062V60.1562C70.3117 58.0023 68.5594 56.25 66.4055 56.25ZM68.7492 66.4062C68.7492 67.6984 67.6977 68.75 66.4055 68.75H57.0305C55.7383 68.75 54.6867 67.6984 54.6867 66.4062V60.1562C54.6867 58.8641 55.7383 57.8125 57.0305 57.8125H66.4055C67.6977 57.8125 68.7492 58.8641 68.7492 60.1562V66.4062Z" fill="white"/>
<path d="M65.193 62.5824L60.5055 60.2386C60.2633 60.1175 59.9758 60.1308 59.7453 60.273C59.5156 60.4159 59.375 60.6667 59.375 60.9378V65.6253C59.375 65.8964 59.5156 66.1472 59.7453 66.2902C59.8711 66.3675 60.0133 66.4066 60.1562 66.4066C60.2758 66.4066 60.3953 66.3792 60.5055 66.3245L65.193 63.9808C65.4578 63.848 65.625 63.5777 65.625 63.2816C65.625 62.9855 65.4578 62.7152 65.193 62.5824ZM60.9375 64.3613V62.2019L63.0969 63.2816L60.9375 64.3613Z" fill="white"/>
</g>
<defs>
<clipPath id="clip0_436_23648">
<rect width="50" height="50" fill="white" transform="translate(25 25)"/>
</clipPath>
</defs>
</svg>
