<svg width="100" height="100" viewBox="0 0 100 100" fill="none" xmlns="http://www.w3.org/2000/svg">
<rect width="100" height="100" rx="50" fill="#2D8DEA"/>
<g clip-path="url(#clip0_436_23688)">
<path d="M70.75 73.3504H65.85C66.35 72.8004 66.6 72.1004 66.6 71.3504V55.6504C66.65 55.5504 72.35 47.0004 73.85 44.7504C74.85 43.2004 74.45 41.1004 72.9 40.1004C71.35 39.1004 69.25 39.5004 68.25 41.0504C68.2 41.1004 66.5 43.7004 66.6 43.5504V37.0004C66.6 36.7004 66.4 36.5004 66.1 36.5004C65.85 36.5004 65.6 36.7004 65.6 37.0004V45.0004L63.6 48.0004V33.3504C63.6 33.0504 63.4 32.8504 63.1 32.8504H56.35V30.8504H63.55C64.65 30.8504 65.55 31.7504 65.55 32.8504V34.9004C65.55 35.2004 65.8 35.4004 66.05 35.4004C66.35 35.4004 66.55 35.2004 66.55 34.9004V32.8504C66.55 31.2004 65.2 29.8504 63.55 29.8504H56.35V28.6504C56.35 27.0004 55 25.6504 53.35 25.6504H41.45C39.8 25.6504 38.45 27.0004 38.45 28.6504V29.8504H31.25C29.6 29.8504 28.25 31.2004 28.25 32.8504V65.7504C28.25 66.0004 28.45 66.2504 28.75 66.2504C29 66.2504 29.25 66.0004 29.25 65.7504V32.8504C29.25 31.7504 30.15 30.8504 31.25 30.8504H38.45V32.8504H31.75C31.5 32.8504 31.25 33.0504 31.25 33.3504V70.8504C31.25 71.0004 31.3 71.1004 31.4 71.2004C31.5 71.3004 31.6 71.3504 31.75 71.3504H63.1C63.4 71.3504 63.6 71.1504 63.6 70.8504V60.1504L65.6 57.1504V71.3504C65.6 72.4504 64.7 73.3504 63.6 73.3504H31.2C30.1 73.3504 29.2 72.4504 29.2 71.3504V68.2004C29.2 67.9004 28.95 67.7004 28.7 67.7004C28.4 67.7004 28.2 67.9004 28.2 68.2004V71.3504C28.2 72.1004 28.5 72.8004 28.95 73.3504H28.9C28.6 73.3504 28.4 73.5504 28.4 73.8504C28.4 74.1504 28.6 74.3504 28.9 74.3504C86.95 74.3504 57.75 74.3504 70.7 74.3504C71 74.3504 71.2 74.1504 71.2 73.8504C71.2 73.5504 71 73.3504 70.75 73.3504ZM69.1 41.5504C69.8 40.4504 71.3 40.1504 72.35 40.9004C73.45 41.6004 73.75 43.1004 73 44.1504L72.15 45.4004L68.2 42.8004L69.1 41.5504ZM39.45 28.6504C39.45 27.5504 40.35 26.6504 41.45 26.6504H53.35C54.45 26.6504 55.35 27.5504 55.35 28.6504C55.35 28.8004 55.35 34.1004 55.35 34.0004H39.45C39.45 32.2004 39.45 30.7004 39.45 28.6504ZM62.6 70.3504H32.25V33.8504H38.45V34.5004C38.45 34.8004 38.7 35.0004 38.95 35.0004H55.85C56.15 35.0004 56.35 34.8004 56.35 34.5004V33.8504H62.55V49.5004C60.5 52.6004 61.1 51.6504 59 54.8504C58.95 54.8504 58.9 54.8004 58.85 54.8004H45.6C45.3 54.8004 45.1 55.0004 45.1 55.3004C45.1 55.6004 45.3 55.8004 45.6 55.8004H58.4C58.2 56.0504 57.4 57.3004 57.45 57.2504C57.35 57.4004 57.35 57.4504 57.35 57.5004L56.75 60.8504H45.6C45.3 60.8504 45.1 61.0504 45.1 61.3504C45.1 61.6504 45.3 61.8504 45.6 61.8504H56.6L56.35 63.4504C56.35 63.5004 56.35 63.5004 56.35 63.5504H45.6C45.3 63.5504 45.1 63.7504 45.1 64.0504C45.1 64.3504 45.3 64.5504 45.6 64.5504H57.25H58.9C59.2 64.5504 59.4 64.3504 59.4 64.0504C59.4 63.8004 59.25 63.6504 59.05 63.6004C59.1 63.5504 62.65 61.3004 62.6 61.3504V70.3504ZM61.7 60.7004L57.35 63.5004C58.2 58.4504 57.85 60.6004 58.2 58.4004L61.7 60.7004ZM62.6 59.8504L62.5 60.0004L59.1 57.7504L58.55 57.4004C58.6 57.3004 57.6 58.8004 67.7 43.6004L71.65 46.2004C71.2 46.9004 63.5 58.4504 62.6 59.8504ZM26.8 73.3504H26C25.7 73.3504 25.5 73.5504 25.5 73.8504C25.5 74.1504 25.7 74.3504 26 74.3504H26.8C27.1 74.3504 27.3 74.1504 27.3 73.8504C27.3 73.5504 27.1 73.3504 26.8 73.3504Z" fill="white"/>
<path d="M73.9984 73.3502H72.6984C72.3984 73.3502 72.1984 73.5502 72.1984 73.8502C72.1984 74.1502 72.3984 74.3502 72.6984 74.3502H73.9984C74.2984 74.3502 74.4984 74.1502 74.4984 73.8502C74.4984 73.5502 74.2484 73.3502 73.9984 73.3502ZM35.8984 49.8002H58.8984C59.1484 49.8002 59.3984 49.5502 59.3984 49.3002V37.4502C59.3984 37.2002 59.1484 36.9502 58.8984 36.9502H35.8984C35.6484 36.9502 35.3984 37.2002 35.3984 37.4502V49.3002C35.3984 49.5502 35.6484 49.8002 35.8984 49.8002ZM36.3984 48.8002V43.4002H41.0484C41.1984 43.4002 41.3984 43.3002 41.4484 43.1502L42.8484 40.9502L44.2984 45.7502C44.3484 45.9502 44.5484 46.1002 44.7484 46.1002C44.9484 46.1002 45.1484 45.9502 45.2484 45.7502L46.9984 41.0502L48.8984 47.9502C48.9484 48.1502 49.1484 48.3002 49.3984 48.3002C49.5984 48.3002 49.7984 48.1502 49.8984 47.9502L51.4984 42.5502L52.3484 43.7002C52.4484 43.8502 52.6484 43.9502 52.8484 43.9002C53.0484 43.8502 53.1984 43.7502 53.2484 43.5502L54.1484 40.6502L54.7484 43.3002C54.7984 43.5502 54.9984 43.7002 55.2484 43.7002H58.5484V48.6502H36.3984V48.8002ZM58.3984 37.9502V42.8502H55.4984L54.5984 38.7002C54.5484 38.5002 54.3484 38.3002 54.1484 38.3002C53.8984 38.3002 53.6984 38.4502 53.6484 38.6502L52.4984 42.4002L51.6484 41.2002C51.5484 41.0502 51.3484 40.9502 51.1484 41.0002C50.9484 41.0502 50.7984 41.1502 50.7484 41.3502L49.3484 46.0502L47.4984 39.3502C47.4484 39.1502 47.2484 39.0002 47.0484 39.0002C46.8484 39.0002 46.6484 39.1002 46.5484 39.3502L44.7984 44.1002L43.4984 39.7002C43.4484 39.5002 43.2984 39.4002 43.0984 39.3502C42.8984 39.3002 42.6984 39.4002 42.5984 39.6002L40.7484 42.4502H36.3984V37.9502H58.3984ZM58.8984 52.1002H45.5984C45.2984 52.1002 45.0984 52.3002 45.0984 52.6002C45.0984 52.9002 45.2984 53.1002 45.5984 53.1002H58.9484C59.2484 53.1002 59.4484 52.9002 59.4484 52.6002C59.4484 52.3002 59.1984 52.1002 58.8984 52.1002ZM42.1484 52.1002H35.8984C35.6484 52.1002 35.3984 52.3002 35.3984 52.6002V58.0502C35.3984 58.3002 35.6484 58.5502 35.8984 58.5502H42.1484C42.3984 58.5502 42.6484 58.3002 42.6484 58.0502V52.6002C42.6484 52.3502 42.4484 52.1002 42.1484 52.1002ZM41.6484 57.5502H36.3984V53.1002H41.6484V57.5502ZM45.5984 58.5502H52.5984C52.8984 58.5502 53.0984 58.3502 53.0984 58.0502C53.0984 57.7502 52.8984 57.5502 52.5984 57.5502H45.5984C45.2984 57.5502 45.0984 57.7502 45.0984 58.0502C45.0984 58.3502 45.2984 58.5502 45.5984 58.5502Z" fill="white"/>
<path d="M38.0492 56.8C38.1492 56.9 38.2492 56.95 38.3992 56.95C38.5492 56.95 38.6492 56.9 38.7492 56.8L40.9492 54.6C41.1492 54.4 41.1492 54.1 40.9492 53.9C40.7492 53.7 40.4492 53.7 40.2492 53.9L38.3992 55.75L37.7992 55.15C37.5992 54.95 37.2992 54.95 37.0992 55.15C36.8992 55.35 36.8992 55.65 37.0992 55.85L38.0492 56.8ZM38.0492 65.55C38.1492 65.65 38.2492 65.7 38.3992 65.7C38.5492 65.7 38.6492 65.65 38.7492 65.55L40.9492 63.35C41.1492 63.15 41.1492 62.85 40.9492 62.65C40.7492 62.45 40.4492 62.45 40.2492 62.65L38.3992 64.5L37.7992 63.9C37.5992 63.7 37.2992 63.7 37.0992 63.9C36.8992 64.1 36.8992 64.4 37.0992 64.6L38.0492 65.55Z" fill="white"/>
<path d="M42.1484 60.8496H35.8984C35.6484 60.8496 35.3984 61.0496 35.3984 61.3496V66.7996C35.3984 67.0496 35.6484 67.2996 35.8984 67.2996H42.1484C42.3984 67.2996 42.6484 67.0496 42.6484 66.7996V61.3496C42.6484 61.0996 42.4484 60.8496 42.1484 60.8496ZM41.6484 66.2996H36.3984V61.8496H41.6484V66.2996ZM52.5984 66.2996H45.5984C45.2984 66.2996 45.0984 66.4996 45.0984 66.7996C45.0984 67.0996 45.2984 67.2996 45.5984 67.2996H52.5984C52.8984 67.2996 53.0984 67.0996 53.0984 66.7996C53.0984 66.4996 52.8484 66.2996 52.5984 66.2996Z" fill="white"/>
<path d="M52.85 28.7002H42C41.75 28.7002 41.5 28.9002 41.5 29.2002V31.4502C41.5 31.7502 41.75 31.9502 42 31.9502H52.85C53.1 31.9502 53.35 31.7502 53.35 31.4502V29.2002C53.35 28.9002 53.1 28.7002 52.85 28.7002ZM52.35 30.9502H42.5V29.7002H52.35V30.9502Z" fill="white"/>
<path d="M70.75 73.3504H65.85C66.35 72.8004 66.6 72.1004 66.6 71.3504V55.6504C66.65 55.5504 72.35 47.0004 73.85 44.7504C74.85 43.2004 74.45 41.1004 72.9 40.1004C71.35 39.1004 69.25 39.5004 68.25 41.0504C68.2 41.1004 66.5 43.7004 66.6 43.5504V37.0004C66.6 36.7004 66.4 36.5004 66.1 36.5004C65.85 36.5004 65.6 36.7004 65.6 37.0004V45.0004L63.6 48.0004V33.3504C63.6 33.0504 63.4 32.8504 63.1 32.8504H56.35V30.8504H63.55C64.65 30.8504 65.55 31.7504 65.55 32.8504V34.9004C65.55 35.2004 65.8 35.4004 66.05 35.4004C66.35 35.4004 66.55 35.2004 66.55 34.9004V32.8504C66.55 31.2004 65.2 29.8504 63.55 29.8504H56.35V28.6504C56.35 27.0004 55 25.6504 53.35 25.6504H41.45C39.8 25.6504 38.45 27.0004 38.45 28.6504V29.8504H31.25C29.6 29.8504 28.25 31.2004 28.25 32.8504V65.7504C28.25 66.0004 28.45 66.2504 28.75 66.2504C29 66.2504 29.25 66.0004 29.25 65.7504V32.8504C29.25 31.7504 30.15 30.8504 31.25 30.8504H38.45V32.8504H31.75C31.5 32.8504 31.25 33.0504 31.25 33.3504V70.8504C31.25 71.0004 31.3 71.1004 31.4 71.2004C31.5 71.3004 31.6 71.3504 31.75 71.3504H63.1C63.4 71.3504 63.6 71.1504 63.6 70.8504V60.1504L65.6 57.1504V71.3504C65.6 72.4504 64.7 73.3504 63.6 73.3504H31.2C30.1 73.3504 29.2 72.4504 29.2 71.3504V68.2004C29.2 67.9004 28.95 67.7004 28.7 67.7004C28.4 67.7004 28.2 67.9004 28.2 68.2004V71.3504C28.2 72.1004 28.5 72.8004 28.95 73.3504H28.9C28.6 73.3504 28.4 73.5504 28.4 73.8504C28.4 74.1504 28.6 74.3504 28.9 74.3504C86.95 74.3504 57.75 74.3504 70.7 74.3504C71 74.3504 71.2 74.1504 71.2 73.8504C71.2 73.5504 71 73.3504 70.75 73.3504ZM69.1 41.5504C69.8 40.4504 71.3 40.1504 72.35 40.9004C73.45 41.6004 73.75 43.1004 73 44.1504L72.15 45.4004L68.2 42.8004L69.1 41.5504ZM39.45 28.6504C39.45 27.5504 40.35 26.6504 41.45 26.6504H53.35C54.45 26.6504 55.35 27.5504 55.35 28.6504C55.35 28.8004 55.35 34.1004 55.35 34.0004H39.45C39.45 32.2004 39.45 30.7004 39.45 28.6504ZM62.6 70.3504H32.25V33.8504H38.45V34.5004C38.45 34.8004 38.7 35.0004 38.95 35.0004H55.85C56.15 35.0004 56.35 34.8004 56.35 34.5004V33.8504H62.55V49.5004C60.5 52.6004 61.1 51.6504 59 54.8504C58.95 54.8504 58.9 54.8004 58.85 54.8004H45.6C45.3 54.8004 45.1 55.0004 45.1 55.3004C45.1 55.6004 45.3 55.8004 45.6 55.8004H58.4C58.2 56.0504 57.4 57.3004 57.45 57.2504C57.35 57.4004 57.35 57.4504 57.35 57.5004L56.75 60.8504H45.6C45.3 60.8504 45.1 61.0504 45.1 61.3504C45.1 61.6504 45.3 61.8504 45.6 61.8504H56.6L56.35 63.4504C56.35 63.5004 56.35 63.5004 56.35 63.5504H45.6C45.3 63.5504 45.1 63.7504 45.1 64.0504C45.1 64.3504 45.3 64.5504 45.6 64.5504H57.25H58.9C59.2 64.5504 59.4 64.3504 59.4 64.0504C59.4 63.8004 59.25 63.6504 59.05 63.6004C59.1 63.5504 62.65 61.3004 62.6 61.3504V70.3504ZM61.7 60.7004L57.35 63.5004C58.2 58.4504 57.85 60.6004 58.2 58.4004L61.7 60.7004ZM62.6 59.8504L62.5 60.0004L59.1 57.7504L58.55 57.4004C58.6 57.3004 57.6 58.8004 67.7 43.6004L71.65 46.2004C71.2 46.9004 63.5 58.4504 62.6 59.8504ZM26.8 73.3504H26C25.7 73.3504 25.5 73.5504 25.5 73.8504C25.5 74.1504 25.7 74.3504 26 74.3504H26.8C27.1 74.3504 27.3 74.1504 27.3 73.8504C27.3 73.5504 27.1 73.3504 26.8 73.3504Z" fill="white"/>
<path d="M73.9984 73.3502H72.6984C72.3984 73.3502 72.1984 73.5502 72.1984 73.8502C72.1984 74.1502 72.3984 74.3502 72.6984 74.3502H73.9984C74.2984 74.3502 74.4984 74.1502 74.4984 73.8502C74.4984 73.5502 74.2484 73.3502 73.9984 73.3502ZM35.8984 49.8002H58.8984C59.1484 49.8002 59.3984 49.5502 59.3984 49.3002V37.4502C59.3984 37.2002 59.1484 36.9502 58.8984 36.9502H35.8984C35.6484 36.9502 35.3984 37.2002 35.3984 37.4502V49.3002C35.3984 49.5502 35.6484 49.8002 35.8984 49.8002ZM36.3984 48.8002V43.4002H41.0484C41.1984 43.4002 41.3984 43.3002 41.4484 43.1502L42.8484 40.9502L44.2984 45.7502C44.3484 45.9502 44.5484 46.1002 44.7484 46.1002C44.9484 46.1002 45.1484 45.9502 45.2484 45.7502L46.9984 41.0502L48.8984 47.9502C48.9484 48.1502 49.1484 48.3002 49.3984 48.3002C49.5984 48.3002 49.7984 48.1502 49.8984 47.9502L51.4984 42.5502L52.3484 43.7002C52.4484 43.8502 52.6484 43.9502 52.8484 43.9002C53.0484 43.8502 53.1984 43.7502 53.2484 43.5502L54.1484 40.6502L54.7484 43.3002C54.7984 43.5502 54.9984 43.7002 55.2484 43.7002H58.5484V48.6502H36.3984V48.8002ZM58.3984 37.9502V42.8502H55.4984L54.5984 38.7002C54.5484 38.5002 54.3484 38.3002 54.1484 38.3002C53.8984 38.3002 53.6984 38.4502 53.6484 38.6502L52.4984 42.4002L51.6484 41.2002C51.5484 41.0502 51.3484 40.9502 51.1484 41.0002C50.9484 41.0502 50.7984 41.1502 50.7484 41.3502L49.3484 46.0502L47.4984 39.3502C47.4484 39.1502 47.2484 39.0002 47.0484 39.0002C46.8484 39.0002 46.6484 39.1002 46.5484 39.3502L44.7984 44.1002L43.4984 39.7002C43.4484 39.5002 43.2984 39.4002 43.0984 39.3502C42.8984 39.3002 42.6984 39.4002 42.5984 39.6002L40.7484 42.4502H36.3984V37.9502H58.3984ZM58.8984 52.1002H45.5984C45.2984 52.1002 45.0984 52.3002 45.0984 52.6002C45.0984 52.9002 45.2984 53.1002 45.5984 53.1002H58.9484C59.2484 53.1002 59.4484 52.9002 59.4484 52.6002C59.4484 52.3002 59.1984 52.1002 58.8984 52.1002ZM42.1484 52.1002H35.8984C35.6484 52.1002 35.3984 52.3002 35.3984 52.6002V58.0502C35.3984 58.3002 35.6484 58.5502 35.8984 58.5502H42.1484C42.3984 58.5502 42.6484 58.3002 42.6484 58.0502V52.6002C42.6484 52.3502 42.4484 52.1002 42.1484 52.1002ZM41.6484 57.5502H36.3984V53.1002H41.6484V57.5502ZM45.5984 58.5502H52.5984C52.8984 58.5502 53.0984 58.3502 53.0984 58.0502C53.0984 57.7502 52.8984 57.5502 52.5984 57.5502H45.5984C45.2984 57.5502 45.0984 57.7502 45.0984 58.0502C45.0984 58.3502 45.2984 58.5502 45.5984 58.5502Z" fill="white"/>
<path d="M38.0492 56.8C38.1492 56.9 38.2492 56.95 38.3992 56.95C38.5492 56.95 38.6492 56.9 38.7492 56.8L40.9492 54.6C41.1492 54.4 41.1492 54.1 40.9492 53.9C40.7492 53.7 40.4492 53.7 40.2492 53.9L38.3992 55.75L37.7992 55.15C37.5992 54.95 37.2992 54.95 37.0992 55.15C36.8992 55.35 36.8992 55.65 37.0992 55.85L38.0492 56.8ZM38.0492 65.55C38.1492 65.65 38.2492 65.7 38.3992 65.7C38.5492 65.7 38.6492 65.65 38.7492 65.55L40.9492 63.35C41.1492 63.15 41.1492 62.85 40.9492 62.65C40.7492 62.45 40.4492 62.45 40.2492 62.65L38.3992 64.5L37.7992 63.9C37.5992 63.7 37.2992 63.7 37.0992 63.9C36.8992 64.1 36.8992 64.4 37.0992 64.6L38.0492 65.55Z" fill="white"/>
<path d="M42.1484 60.8506H35.8984C35.6484 60.8506 35.3984 61.0506 35.3984 61.3506V66.8006C35.3984 67.0506 35.6484 67.3006 35.8984 67.3006H42.1484C42.3984 67.3006 42.6484 67.0506 42.6484 66.8006V61.3506C42.6484 61.1006 42.4484 60.8506 42.1484 60.8506ZM41.6484 66.3006H36.3984V61.8506H41.6484V66.3006ZM52.5984 66.3006H45.5984C45.2984 66.3006 45.0984 66.5006 45.0984 66.8006C45.0984 67.1006 45.2984 67.3006 45.5984 67.3006H52.5984C52.8984 67.3006 53.0984 67.1006 53.0984 66.8006C53.0984 66.5006 52.8484 66.3006 52.5984 66.3006Z" fill="white"/>
<path d="M52.85 28.7002H42C41.75 28.7002 41.5 28.9002 41.5 29.2002V31.4502C41.5 31.7502 41.75 31.9502 42 31.9502H52.85C53.1 31.9502 53.35 31.7502 53.35 31.4502V29.2002C53.35 28.9002 53.1 28.7002 52.85 28.7002ZM52.35 30.9502H42.5V29.7002H52.35V30.9502Z" fill="white"/>
<path d="M70.75 73.3504H65.85C66.35 72.8004 66.6 72.1004 66.6 71.3504V55.6504C66.65 55.5504 72.35 47.0004 73.85 44.7504C74.85 43.2004 74.45 41.1004 72.9 40.1004C71.35 39.1004 69.25 39.5004 68.25 41.0504C68.2 41.1004 66.5 43.7004 66.6 43.5504V37.0004C66.6 36.7004 66.4 36.5004 66.1 36.5004C65.85 36.5004 65.6 36.7004 65.6 37.0004V45.0004L63.6 48.0004V33.3504C63.6 33.0504 63.4 32.8504 63.1 32.8504H56.35V30.8504H63.55C64.65 30.8504 65.55 31.7504 65.55 32.8504V34.9004C65.55 35.2004 65.8 35.4004 66.05 35.4004C66.35 35.4004 66.55 35.2004 66.55 34.9004V32.8504C66.55 31.2004 65.2 29.8504 63.55 29.8504H56.35V28.6504C56.35 27.0004 55 25.6504 53.35 25.6504H41.45C39.8 25.6504 38.45 27.0004 38.45 28.6504V29.8504H31.25C29.6 29.8504 28.25 31.2004 28.25 32.8504V65.7504C28.25 66.0004 28.45 66.2504 28.75 66.2504C29 66.2504 29.25 66.0004 29.25 65.7504V32.8504C29.25 31.7504 30.15 30.8504 31.25 30.8504H38.45V32.8504H31.75C31.5 32.8504 31.25 33.0504 31.25 33.3504V70.8504C31.25 71.0004 31.3 71.1004 31.4 71.2004C31.5 71.3004 31.6 71.3504 31.75 71.3504H63.1C63.4 71.3504 63.6 71.1504 63.6 70.8504V60.1504L65.6 57.1504V71.3504C65.6 72.4504 64.7 73.3504 63.6 73.3504H31.2C30.1 73.3504 29.2 72.4504 29.2 71.3504V68.2004C29.2 67.9004 28.95 67.7004 28.7 67.7004C28.4 67.7004 28.2 67.9004 28.2 68.2004V71.3504C28.2 72.1004 28.5 72.8004 28.95 73.3504H28.9C28.6 73.3504 28.4 73.5504 28.4 73.8504C28.4 74.1504 28.6 74.3504 28.9 74.3504C86.95 74.3504 57.75 74.3504 70.7 74.3504C71 74.3504 71.2 74.1504 71.2 73.8504C71.2 73.5504 71 73.3504 70.75 73.3504ZM69.1 41.5504C69.8 40.4504 71.3 40.1504 72.35 40.9004C73.45 41.6004 73.75 43.1004 73 44.1504L72.15 45.4004L68.2 42.8004L69.1 41.5504ZM39.45 28.6504C39.45 27.5504 40.35 26.6504 41.45 26.6504H53.35C54.45 26.6504 55.35 27.5504 55.35 28.6504C55.35 28.8004 55.35 34.1004 55.35 34.0004H39.45C39.45 32.2004 39.45 30.7004 39.45 28.6504ZM62.6 70.3504H32.25V33.8504H38.45V34.5004C38.45 34.8004 38.7 35.0004 38.95 35.0004H55.85C56.15 35.0004 56.35 34.8004 56.35 34.5004V33.8504H62.55V49.5004C60.5 52.6004 61.1 51.6504 59 54.8504C58.95 54.8504 58.9 54.8004 58.85 54.8004H45.6C45.3 54.8004 45.1 55.0004 45.1 55.3004C45.1 55.6004 45.3 55.8004 45.6 55.8004H58.4C58.2 56.0504 57.4 57.3004 57.45 57.2504C57.35 57.4004 57.35 57.4504 57.35 57.5004L56.75 60.8504H45.6C45.3 60.8504 45.1 61.0504 45.1 61.3504C45.1 61.6504 45.3 61.8504 45.6 61.8504H56.6L56.35 63.4504C56.35 63.5004 56.35 63.5004 56.35 63.5504H45.6C45.3 63.5504 45.1 63.7504 45.1 64.0504C45.1 64.3504 45.3 64.5504 45.6 64.5504H57.25H58.9C59.2 64.5504 59.4 64.3504 59.4 64.0504C59.4 63.8004 59.25 63.6504 59.05 63.6004C59.1 63.5504 62.65 61.3004 62.6 61.3504V70.3504ZM61.7 60.7004L57.35 63.5004C58.2 58.4504 57.85 60.6004 58.2 58.4004L61.7 60.7004ZM62.6 59.8504L62.5 60.0004L59.1 57.7504L58.55 57.4004C58.6 57.3004 57.6 58.8004 67.7 43.6004L71.65 46.2004C71.2 46.9004 63.5 58.4504 62.6 59.8504ZM26.8 73.3504H26C25.7 73.3504 25.5 73.5504 25.5 73.8504C25.5 74.1504 25.7 74.3504 26 74.3504H26.8C27.1 74.3504 27.3 74.1504 27.3 73.8504C27.3 73.5504 27.1 73.3504 26.8 73.3504Z" fill="white"/>
<path d="M73.9984 73.3502H72.6984C72.3984 73.3502 72.1984 73.5502 72.1984 73.8502C72.1984 74.1502 72.3984 74.3502 72.6984 74.3502H73.9984C74.2984 74.3502 74.4984 74.1502 74.4984 73.8502C74.4984 73.5502 74.2484 73.3502 73.9984 73.3502ZM35.8984 49.8002H58.8984C59.1484 49.8002 59.3984 49.5502 59.3984 49.3002V37.4502C59.3984 37.2002 59.1484 36.9502 58.8984 36.9502H35.8984C35.6484 36.9502 35.3984 37.2002 35.3984 37.4502V49.3002C35.3984 49.5502 35.6484 49.8002 35.8984 49.8002ZM36.3984 48.8002V43.4002H41.0484C41.1984 43.4002 41.3984 43.3002 41.4484 43.1502L42.8484 40.9502L44.2984 45.7502C44.3484 45.9502 44.5484 46.1002 44.7484 46.1002C44.9484 46.1002 45.1484 45.9502 45.2484 45.7502L46.9984 41.0502L48.8984 47.9502C48.9484 48.1502 49.1484 48.3002 49.3984 48.3002C49.5984 48.3002 49.7984 48.1502 49.8984 47.9502L51.4984 42.5502L52.3484 43.7002C52.4484 43.8502 52.6484 43.9502 52.8484 43.9002C53.0484 43.8502 53.1984 43.7502 53.2484 43.5502L54.1484 40.6502L54.7484 43.3002C54.7984 43.5502 54.9984 43.7002 55.2484 43.7002H58.5484V48.6502H36.3984V48.8002ZM58.3984 37.9502V42.8502H55.4984L54.5984 38.7002C54.5484 38.5002 54.3484 38.3002 54.1484 38.3002C53.8984 38.3002 53.6984 38.4502 53.6484 38.6502L52.4984 42.4002L51.6484 41.2002C51.5484 41.0502 51.3484 40.9502 51.1484 41.0002C50.9484 41.0502 50.7984 41.1502 50.7484 41.3502L49.3484 46.0502L47.4984 39.3502C47.4484 39.1502 47.2484 39.0002 47.0484 39.0002C46.8484 39.0002 46.6484 39.1002 46.5484 39.3502L44.7984 44.1002L43.4984 39.7002C43.4484 39.5002 43.2984 39.4002 43.0984 39.3502C42.8984 39.3002 42.6984 39.4002 42.5984 39.6002L40.7484 42.4502H36.3984V37.9502H58.3984ZM58.8984 52.1002H45.5984C45.2984 52.1002 45.0984 52.3002 45.0984 52.6002C45.0984 52.9002 45.2984 53.1002 45.5984 53.1002H58.9484C59.2484 53.1002 59.4484 52.9002 59.4484 52.6002C59.4484 52.3002 59.1984 52.1002 58.8984 52.1002ZM42.1484 52.1002H35.8984C35.6484 52.1002 35.3984 52.3002 35.3984 52.6002V58.0502C35.3984 58.3002 35.6484 58.5502 35.8984 58.5502H42.1484C42.3984 58.5502 42.6484 58.3002 42.6484 58.0502V52.6002C42.6484 52.3502 42.4484 52.1002 42.1484 52.1002ZM41.6484 57.5502H36.3984V53.1002H41.6484V57.5502ZM45.5984 58.5502H52.5984C52.8984 58.5502 53.0984 58.3502 53.0984 58.0502C53.0984 57.7502 52.8984 57.5502 52.5984 57.5502H45.5984C45.2984 57.5502 45.0984 57.7502 45.0984 58.0502C45.0984 58.3502 45.2984 58.5502 45.5984 58.5502Z" fill="white"/>
<path d="M38.0492 56.8C38.1492 56.9 38.2492 56.95 38.3992 56.95C38.5492 56.95 38.6492 56.9 38.7492 56.8L40.9492 54.6C41.1492 54.4 41.1492 54.1 40.9492 53.9C40.7492 53.7 40.4492 53.7 40.2492 53.9L38.3992 55.75L37.7992 55.15C37.5992 54.95 37.2992 54.95 37.0992 55.15C36.8992 55.35 36.8992 55.65 37.0992 55.85L38.0492 56.8ZM38.0492 65.55C38.1492 65.65 38.2492 65.7 38.3992 65.7C38.5492 65.7 38.6492 65.65 38.7492 65.55L40.9492 63.35C41.1492 63.15 41.1492 62.85 40.9492 62.65C40.7492 62.45 40.4492 62.45 40.2492 62.65L38.3992 64.5L37.7992 63.9C37.5992 63.7 37.2992 63.7 37.0992 63.9C36.8992 64.1 36.8992 64.4 37.0992 64.6L38.0492 65.55Z" fill="white"/>
<path d="M42.1484 60.8506H35.8984C35.6484 60.8506 35.3984 61.0506 35.3984 61.3506V66.8006C35.3984 67.0506 35.6484 67.3006 35.8984 67.3006H42.1484C42.3984 67.3006 42.6484 67.0506 42.6484 66.8006V61.3506C42.6484 61.1006 42.4484 60.8506 42.1484 60.8506ZM41.6484 66.3006H36.3984V61.8506H41.6484V66.3006ZM52.5984 66.3006H45.5984C45.2984 66.3006 45.0984 66.5006 45.0984 66.8006C45.0984 67.1006 45.2984 67.3006 45.5984 67.3006H52.5984C52.8984 67.3006 53.0984 67.1006 53.0984 66.8006C53.0984 66.5006 52.8484 66.3006 52.5984 66.3006Z" fill="white"/>
<path d="M52.85 28.7002H42C41.75 28.7002 41.5 28.9002 41.5 29.2002V31.4502C41.5 31.7502 41.75 31.9502 42 31.9502H52.85C53.1 31.9502 53.35 31.7502 53.35 31.4502V29.2002C53.35 28.9002 53.1 28.7002 52.85 28.7002ZM52.35 30.9502H42.5V29.7002H52.35V30.9502Z" fill="white"/>
</g>
<defs>
<clipPath id="clip0_436_23688">
<rect width="50" height="50" fill="white" transform="translate(25 25)"/>
</clipPath>
</defs>
</svg>
