<svg width="100" height="100" viewBox="0 0 100 100" fill="none" xmlns="http://www.w3.org/2000/svg">
<rect width="100" height="100" rx="50" fill="#2D8DEA"/>
<g clip-path="url(#clip0_436_23654)">
<path fill-rule="evenodd" clip-rule="evenodd" d="M53.8143 61.7977C53.6544 61.7977 53.495 61.7321 53.3795 61.604C52.2692 60.3733 52.1051 58.706 52.1637 57.5244C52.2021 56.7463 53.3722 56.8152 53.3344 57.5824C53.1815 60.6853 55.0304 60.9044 54.2075 61.6465C54.0996 61.7438 53.9595 61.7975 53.8143 61.7974V61.7977ZM43.9412 61.7725C43.4397 61.7725 43.1643 61.1731 43.5062 60.7937C45.1116 59.0133 43.8132 57.0334 44.9968 56.978C45.3235 56.9605 45.593 57.2156 45.6068 57.5394C45.6548 58.7063 45.4808 60.3548 44.3769 61.5791C44.3218 61.64 44.2547 61.6886 44.1797 61.722C44.1047 61.7553 44.0236 61.7725 43.9415 61.7725H43.9412ZM52.6152 48.5121C51.4512 48.5121 50.0728 47.5887 50.7507 46.911C50.9798 46.6822 51.351 46.6822 51.5798 46.911C52.133 47.4638 53.098 47.4644 53.6514 46.911C54.1972 46.3655 55.0257 47.1943 54.4805 47.7398C53.9819 48.2379 53.3198 48.5121 52.6155 48.5121H52.6152ZM45.1415 48.5121C43.9761 48.5121 42.5997 47.5881 43.2771 46.911C43.5062 46.6822 43.8768 46.6822 44.1062 46.911C44.659 47.4638 45.6238 47.4638 46.1778 46.911C46.7239 46.3652 47.5518 47.1943 47.0063 47.7395C46.5082 48.2382 45.8461 48.5124 45.1418 48.5124L45.1415 48.5121ZM50.9916 55.1399C50.4381 55.1399 50.2562 54.2643 48.8784 54.2643C47.3124 54.2643 47.0391 55.6553 46.3506 54.9683C45.3551 53.9745 49.0834 51.8188 51.4061 54.1398C51.7767 54.5101 51.5078 55.1399 50.9918 55.1399H50.9916Z" fill="white"/>
<path fill-rule="evenodd" clip-rule="evenodd" d="M48.7666 59.672C46.6015 59.6711 45.652 58.7008 44.0922 57.6359C42.1715 56.3242 41.0837 55.5818 41.0099 52.4547C38.0272 50.7429 38.2457 48.4014 40.2335 46.6759C40.2786 44.0561 40.966 42.2438 42.33 41.1419C42.4815 41.0189 42.6845 40.9805 42.8711 41.0376C47.0963 42.3393 50.6844 42.3332 54.9049 41.0376C55.0915 40.9808 55.2939 41.0192 55.446 41.1419C57.239 42.5901 57.5144 45.095 57.5278 46.9703C59.571 48.5843 59.6639 50.7886 56.7465 52.4547C56.6583 56.2047 55.0191 56.6181 52.5116 58.4406C51.4191 59.234 50.0896 59.6714 48.7666 59.6714V59.672ZM42.8404 42.2526C41.8739 43.1851 41.4028 44.7279 41.4028 46.9559C41.4028 47.6242 39.8207 48.0736 39.9291 49.5188C39.9971 50.4247 41.019 51.1431 41.8636 51.5863C42.0564 51.6877 42.1774 51.8875 42.1774 52.1049C42.1774 55.6249 43.4659 55.6589 46.1714 57.6672C47.8352 58.9021 50.1696 58.6938 51.822 57.4923C54.3717 55.6381 55.5775 55.5338 55.5775 52.1049C55.5775 51.8872 55.6985 51.6874 55.8913 51.586C56.7526 51.134 57.7883 50.4168 57.829 49.5678C57.8899 48.2898 56.3507 47.9342 56.3548 47.2627C56.3644 45.6926 56.2218 43.5065 54.9333 42.2526C50.764 43.4907 47.0146 43.4927 42.8401 42.2523L42.8404 42.2526ZM64.3394 75.0002H33.3906C33.0672 75.0002 32.8047 74.7374 32.8047 74.4142V67.869C32.8047 63.8612 36.0652 60.6004 40.0733 60.6004H43.9416C44.713 60.6004 44.713 61.7723 43.9416 61.7723H40.0733C36.7114 61.7723 33.9766 64.5072 33.9766 67.8684V73.828L63.7532 73.8277V67.8684C63.7532 64.5209 61.0303 61.7978 57.6822 61.7978H53.8141C53.0428 61.7978 53.043 60.6259 53.8141 60.6259H57.6822C61.676 60.6259 64.9253 63.8749 64.9253 67.8687V74.414C64.9259 74.7374 64.6631 74.9999 64.3394 74.9999V75.0002Z" fill="white"/>
<path fill-rule="evenodd" clip-rule="evenodd" d="M48.8646 65.376C48.743 65.376 48.6214 65.3382 48.5183 65.2629L43.5944 61.6588C42.9738 61.2047 43.6667 60.2593 44.2863 60.7128L48.8661 64.0653L53.4698 60.7362C54.0923 60.286 54.7794 61.2355 54.1565 61.6861L49.2071 65.2644C49.1076 65.3368 48.9877 65.3759 48.8646 65.376Z" fill="white"/>
<path fill-rule="evenodd" clip-rule="evenodd" d="M48.8654 75.0003C48.5419 75.0003 48.2794 74.7376 48.2794 74.4144V64.7903C48.2794 64.019 49.4513 64.0192 49.4513 64.7903V74.4144C49.4507 74.7378 49.1888 75.0003 48.8654 75.0003ZM59.0622 75.0003C58.7388 75.0003 58.4763 74.7376 58.4763 74.4144V68.1103C58.4763 67.3389 59.6481 67.3392 59.6481 68.1103V74.4144C59.6481 74.7378 59.3856 75.0003 59.0622 75.0003ZM38.668 75.0003C38.3445 75.0003 38.082 74.7376 38.082 74.4144V68.1103C38.082 67.3389 39.2539 67.3392 39.2539 68.1103V74.4144C39.2539 74.7378 38.992 75.0003 38.668 75.0003Z" fill="white"/>
<path fill-rule="evenodd" clip-rule="evenodd" d="M38.6686 72.0913H33.391C32.6197 72.0913 32.6197 70.9194 33.391 70.9194H38.6686C39.4397 70.9194 39.44 72.0913 38.6686 72.0913ZM64.0234 72.0913H59.0625C58.2911 72.0913 58.2914 70.9194 59.0625 70.9194H64.0234C64.7948 70.9194 64.7948 72.0913 64.0234 72.0913ZM56.9423 47.853C56.4182 47.853 56.1551 47.2097 56.5374 46.8437C58.0858 45.3622 57.9144 41.9028 57.8701 41.2876C56.8368 39.015 57.3346 37.3562 57.6873 36.6141C56.0663 35.1106 52.1326 35.6532 50.6763 36.0129C50.0604 36.1638 49.6769 35.3558 50.1844 34.9749L51.4822 34.0023C47.8515 33.5608 46.4968 35.4176 46.0705 34.2964C45.9556 33.9941 46.1074 33.6557 46.41 33.5406C48.6735 32.6795 50.966 32.5345 53.0397 33.1231C53.5049 33.2549 53.6183 33.8655 53.2313 34.1558L52.7719 34.5C54.7855 34.3254 57.5435 34.4558 58.868 36.1752C59.4516 36.9317 57.4682 37.6799 58.9761 40.8871C59.122 41.1976 59.4156 45.7152 57.3475 47.691C57.2338 47.7994 57.0882 47.8533 56.9426 47.8533L56.9423 47.853ZM40.8181 47.5422C40.6441 47.5422 40.4718 47.4651 40.3564 47.3175C39.1866 45.8233 38.6601 44.0828 38.8324 42.2834C38.9065 41.5167 40.0731 41.6257 39.999 42.3953C39.6659 45.8638 42.1702 46.6416 41.1791 47.4174C41.0761 47.4982 40.949 47.5422 40.8181 47.5422ZM57.9068 34.3506C57.4641 34.3506 57.1758 33.8707 57.3964 33.4776L59.8278 29.1536C60.0636 28.7332 60.6633 28.7672 60.8658 29.1859L61.9114 31.3474L63.7744 27.9709C64.1473 27.2959 65.1727 27.8616 64.8001 28.5372L62.3901 32.9054C62.1586 33.3246 61.5554 33.3027 61.3498 32.8773L60.2992 30.7055L58.4177 34.0518C58.3102 34.2425 58.1113 34.3503 57.9068 34.3503V34.3506ZM63.2139 35.6312C62.6189 35.6312 62.4024 34.8367 62.9204 34.5378L67.7945 31.7233C68.4625 31.3371 69.0484 32.3526 68.3804 32.7378C67.735 33.1099 63.5646 35.6309 63.2136 35.6309L63.2139 35.6312ZM56.5787 31.8003C56.2553 31.8003 55.9928 31.5378 55.9928 31.2144V25.5861C55.9928 24.815 57.1647 24.815 57.1647 25.5861V31.215C57.165 31.5384 56.9022 31.8003 56.5787 31.8003ZM37.8471 37.6401C37.1891 37.6401 37.0945 36.5778 36.7693 35.4794C35.6575 37.2211 36.22 36.9185 33.8677 36.9188C33.0963 36.9188 33.0963 35.7469 33.8677 35.7469H35.2083L36.4722 33.7667C36.7429 33.3422 37.3866 33.4374 37.5281 33.9159L38.0437 35.657C38.5901 34.8006 38.9745 33.854 39.5484 33.9361C39.6554 33.9513 39.7562 33.9957 39.8396 34.0645C39.923 34.1333 39.9857 34.2238 40.021 34.326C40.2878 33.4254 40.3757 32.5075 40.9649 32.4686C41.2101 32.4548 41.4366 32.5837 41.5394 32.8037L42.7693 35.4205L45.6304 35.4203C46.4018 35.4203 46.4018 36.5921 45.6304 36.5921H42.3975C41.8236 36.5921 41.5617 35.6048 41.1345 34.6954L40.5837 36.5546C40.4191 37.1113 39.6246 37.1113 39.4599 36.5546L39.2704 35.9139C38.7843 36.6756 38.363 37.6404 37.8471 37.6404V37.6401Z" fill="white"/>
<path fill-rule="evenodd" clip-rule="evenodd" d="M39.5056 43.0155C39.3556 43.0155 39.2056 42.9581 39.0917 42.8439L33.166 36.9191C30.1713 33.9247 32.2968 28.7713 36.5428 28.7713C37.6341 28.7713 38.6674 29.1317 39.5056 29.7959C42.5874 27.3543 47.2391 29.5123 47.2391 33.5424C47.2391 34.8212 46.7437 36.0203 45.8449 36.9191L39.9199 42.8445C39.8655 42.8989 39.8009 42.942 39.7298 42.9715C39.6588 43.0009 39.5826 43.0159 39.5056 43.0158V43.0155ZM36.5425 29.9432C33.3333 29.9432 31.7366 33.8333 33.994 36.0909L39.505 41.6017L45.0167 36.0903C47.255 33.8523 45.704 29.9426 42.4684 29.9426C40.2105 29.9426 39.8466 31.7479 39.0917 30.9932C38.4137 30.3162 37.5087 29.9432 36.5428 29.9432H36.5425Z" fill="white"/>
</g>
<defs>
<clipPath id="clip0_436_23654">
<rect width="50" height="50" fill="white" transform="translate(25 25)"/>
</clipPath>
</defs>
</svg>
