<svg width="100" height="100" viewBox="0 0 100 100" fill="none" xmlns="http://www.w3.org/2000/svg">
<rect width="100" height="100" rx="50" fill="#2D8DEA"/>
<g clip-path="url(#clip0_436_23661)">
<path d="M72.6562 43.3594H27.3438C26.7224 43.3601 26.1266 43.6073 25.6873 44.0466C25.2479 44.486 25.0007 45.0817 25 45.7031V69.5312C25.0007 70.1526 25.2479 70.7484 25.6873 71.1877C26.1266 71.6271 26.7224 71.8743 27.3438 71.875H44.5312V73.4375H41.2109C41.0037 73.4375 40.805 73.5198 40.6585 73.6663C40.512 73.8128 40.4297 74.0115 40.4297 74.2188C40.4297 74.426 40.512 74.6247 40.6585 74.7712C40.805 74.9177 41.0037 75 41.2109 75H58.7891C58.9963 75 59.195 74.9177 59.3415 74.7712C59.488 74.6247 59.5703 74.426 59.5703 74.2188C59.5703 74.0115 59.488 73.8128 59.3415 73.6663C59.195 73.5198 58.9963 73.4375 58.7891 73.4375H55.4688V71.875H72.6562C73.2776 71.8743 73.8734 71.6271 74.3127 71.1877C74.7521 70.7484 74.9993 70.1526 75 69.5312V45.7031C74.9993 45.0817 74.7521 44.486 74.3127 44.0466C73.8734 43.6073 73.2776 43.3601 72.6562 43.3594ZM53.9062 73.4375H46.0938V71.875H53.9062V73.4375ZM73.4375 69.5312C73.4373 69.7384 73.3549 69.937 73.2084 70.0834C73.062 70.2299 72.8634 70.3123 72.6562 70.3125H27.3438C27.1366 70.3123 26.938 70.2299 26.7916 70.0834C26.6451 69.937 26.5627 69.7384 26.5625 69.5312V68.75H73.4375V69.5312ZM73.4375 67.1875H59.375V62.1094C59.3731 60.9857 58.9678 59.9 58.2329 59.0499C57.498 58.1998 56.4823 57.6418 55.3707 57.4773C55.0352 58.0419 54.6133 58.5504 54.1203 58.9844H54.6875C55.516 58.9854 56.3102 59.315 56.8961 59.9008C57.4819 60.4866 57.8115 61.2809 57.8125 62.1094V67.1875H42.1875V62.1094C42.1885 61.2809 42.5181 60.4866 43.1039 59.9008C43.6898 59.315 44.484 58.9854 45.3125 58.9844H45.8797C45.3869 58.5504 44.9651 58.0419 44.6297 57.4773C43.518 57.6417 42.5022 58.1997 41.7673 59.0498C41.0323 59.8999 40.627 60.9856 40.625 62.1094V67.1875H26.5625V45.7031C26.5627 45.496 26.6451 45.2974 26.7916 45.1509C26.938 45.0045 27.1366 44.9221 27.3438 44.9219H72.6562C72.8634 44.9221 73.062 45.0045 73.2084 45.1509C73.3549 45.2974 73.4373 45.496 73.4375 45.7031V67.1875Z" fill="white"/>
<path d="M52.1699 60.1504C51.6798 60.3353 51.1681 60.4573 50.6473 60.5133L51.118 63.2336L50 64.4637L48.882 63.2332L49.3527 60.5133C48.8319 60.4573 48.3202 60.3353 47.8301 60.1504L47.277 63.3434C47.2567 63.4605 47.2635 63.5807 47.2967 63.6948C47.3299 63.809 47.3888 63.914 47.4688 64.002L49.4219 66.1504C49.4951 66.231 49.5844 66.2953 49.6839 66.3394C49.7835 66.3834 49.8911 66.4062 50 66.4062C50.1089 66.4062 50.2165 66.3834 50.3161 66.3394C50.4156 66.2953 50.5049 66.231 50.5781 66.1504L52.5313 64.002C52.6111 63.914 52.6699 63.8089 52.7031 63.6948C52.7363 63.5807 52.7429 63.4605 52.7227 63.3434L52.1699 60.1504ZM33.2031 31.25V37.5C33.2036 37.9142 33.3684 38.3114 33.6613 38.6043C33.9543 38.8972 34.3514 39.062 34.7656 39.0625H36.7578L39.2914 41.5957C39.4379 41.7422 39.6366 41.8244 39.8438 41.8244C40.0509 41.8244 40.2496 41.7422 40.3961 41.5957L42.9297 39.0625H44.9219C45.3361 39.062 45.7332 38.8972 46.0262 38.6043C46.3191 38.3114 46.4839 37.9142 46.4844 37.5V36.1551L46.2668 35.9375H44.9219V37.5H42.6059C42.3987 37.5 42.2 37.5824 42.0535 37.7289L39.8438 39.9387L37.634 37.7289C37.4875 37.5824 37.2888 37.5 37.0816 37.5H34.7656V31.25H41.7969V29.6875H34.7656C34.3514 29.688 33.9543 29.8528 33.6613 30.1457C33.3684 30.4386 33.2036 30.8358 33.2031 31.25ZM55.4688 39.0625H57.4609L59.9945 41.5957C60.141 41.7422 60.3397 41.8244 60.5469 41.8244C60.754 41.8244 60.9527 41.7422 61.0992 41.5957L63.6328 39.0625H65.625C66.0392 39.062 66.4364 38.8972 66.7293 38.6043C67.0222 38.3114 67.187 37.9142 67.1875 37.5V31.25C67.187 30.8358 67.0222 30.4386 66.7293 30.1457C66.4364 29.8528 66.0392 29.688 65.625 29.6875H58.2031V31.25H65.625V37.5H63.309C63.1018 37.5 62.9031 37.5824 62.7566 37.7289L60.5469 39.9387L58.3371 37.7289C58.1906 37.5824 57.9919 37.5 57.7848 37.5H55.4688V35.9102C55.3392 35.9274 55.2088 35.9366 55.0781 35.9375H53.9062V37.5C53.9068 37.9142 54.0716 38.3114 54.3645 38.6043C54.6574 38.8972 55.0545 39.062 55.4688 39.0625Z" fill="white"/>
<path d="M56.6406 32.8125V26.5625C56.6401 26.1483 56.4753 25.7511 56.1824 25.4582C55.8895 25.1653 55.4924 25.0005 55.0781 25H44.9219C44.5076 25.0005 44.1105 25.1653 43.8176 25.4582C43.5247 25.7511 43.3599 26.1483 43.3594 26.5625V32.8125C43.3599 33.2267 43.5247 33.6239 43.8176 33.9168C44.1105 34.2097 44.5076 34.3745 44.9219 34.375H46.9141L49.4477 36.9082C49.5942 37.0547 49.7928 37.1369 50 37.1369C50.2072 37.1369 50.4058 37.0547 50.5523 36.9082L53.0859 34.375H55.0781C55.4924 34.3745 55.8895 34.2097 56.1824 33.9168C56.4753 33.6239 56.6401 33.2267 56.6406 32.8125ZM52.7621 32.8125C52.5549 32.8125 52.3562 32.8949 52.2098 33.0414L50 35.2512L47.7902 33.0414C47.6438 32.8949 47.4451 32.8125 47.2379 32.8125H44.9219V26.5625H55.0781V32.8125H52.7621ZM50 46.4844C47.9287 46.4868 45.943 47.3106 44.4784 48.7752C43.0137 50.2398 42.1899 52.2256 42.1875 54.2969V55.1516C42.1875 55.3588 42.2698 55.5575 42.4163 55.704C42.5628 55.8505 42.7615 55.9328 42.9688 55.9328C43.176 55.9328 43.3747 55.8505 43.5212 55.704C43.6677 55.5575 43.75 55.3588 43.75 55.1516V54.2969C43.75 52.6393 44.4085 51.0496 45.5806 49.8775C46.7527 48.7054 48.3424 48.0469 50 48.0469C51.6576 48.0469 53.2473 48.7054 54.4194 49.8775C55.5915 51.0496 56.25 52.6393 56.25 54.2969V54.541H54.675C54.6793 54.4598 54.6875 54.3793 54.6875 54.2969C54.6883 53.1331 54.2564 52.0106 53.4758 51.1475C52.6951 50.2843 51.6215 49.7423 50.4635 49.6266C49.3055 49.5109 48.1458 49.8299 47.2098 50.5215C46.2739 51.2132 45.6285 52.2281 45.3991 53.369C45.1697 54.5099 45.3726 55.6954 45.9685 56.6951C46.5643 57.6947 47.5106 58.4372 48.6233 58.7781C49.736 59.119 50.9357 59.0341 51.9893 58.5398C53.0429 58.0455 53.8751 57.1772 54.3242 56.1035H57.0312C57.2385 56.1035 57.4372 56.0212 57.5837 55.8747C57.7302 55.7282 57.8125 55.5295 57.8125 55.3223V54.2969C57.8101 52.2256 56.9863 50.2398 55.5216 48.7752C54.057 47.3106 52.0713 46.4868 50 46.4844ZM53.1125 54.541H51.4891C51.2819 54.541 51.0831 54.6233 50.9366 54.7698C50.7901 54.9164 50.7078 55.1151 50.7078 55.3223C50.7078 55.5295 50.7901 55.7282 50.9366 55.8747C51.0831 56.0212 51.2819 56.1035 51.4891 56.1035H52.5469C52.1151 56.7104 51.4806 57.1429 50.7579 57.323C50.0352 57.503 49.2719 57.4188 48.6059 57.0854C47.9398 56.7521 47.4149 56.1916 47.1259 55.5052C46.8369 54.8187 46.8028 54.0516 47.0298 53.3422C47.2568 52.6329 47.7299 52.028 48.3637 51.6369C48.9976 51.2458 49.7504 51.0942 50.4862 51.2094C51.222 51.3247 51.8924 51.6992 52.3763 52.2654C52.8602 52.8315 53.1258 53.5521 53.125 54.2969C53.125 54.3793 53.1188 54.4602 53.1125 54.541Z" fill="white"/>
</g>
<defs>
<clipPath id="clip0_436_23661">
<rect width="50" height="50" fill="white" transform="translate(25 25)"/>
</clipPath>
</defs>
</svg>
