<svg width="100" height="100" viewBox="0 0 100 100" fill="none" xmlns="http://www.w3.org/2000/svg">
<rect width="100" height="100" rx="50" fill="#2D8DEA"/>
<path d="M68.3856 42.5103C67.9641 38.7291 64.9081 35.7184 61.1191 35.3516C59.2181 35.1678 57.3528 35.6394 55.7938 36.6862C53.555 33.6619 50.0344 31.875 46.25 31.875C39.7022 31.875 34.375 37.2022 34.375 43.75C34.375 43.9859 34.3825 44.2228 34.3978 44.4662C31.7125 45.9353 30 48.7972 30 51.875C30 52.0341 30.0044 52.1922 30.0131 52.3491C30.0956 53.8356 31.3416 55 32.8497 55L38.125 54.9997V59.375H35.9375C34.9034 59.375 34.0625 60.2159 34.0625 61.25V65C34.0625 66.0338 34.9034 66.875 35.9375 66.875H38.125V68.125H36.5625C36.2175 68.125 35.9375 68.4047 35.9375 68.75C35.9375 69.095 36.2175 69.375 36.5625 69.375H40.9375C41.2825 69.375 41.5625 69.095 41.5625 68.75C41.5625 68.4047 41.2825 68.125 40.9375 68.125H39.375V66.875H41.5625C42.5966 66.875 43.4375 66.0338 43.4375 65V61.25C43.4375 60.2159 42.5966 59.375 41.5625 59.375H39.375V54.9994L49.375 54.9984V59.375H48.125C47.0909 59.375 46.25 60.2159 46.25 61.25V67.5C46.25 68.5338 47.0909 69.375 48.125 69.375H51.875C52.9091 69.375 53.75 68.5338 53.75 67.5V61.25C53.75 60.2159 52.9091 59.375 51.875 59.375H50.625V54.9984L60.625 54.9975V59.6875H59.0625C58.0284 59.6875 57.1875 60.5284 57.1875 61.5625V65.3406C56.3022 65.4903 55.625 66.2603 55.625 67.1875C55.625 68.2213 56.4659 69.0625 57.5 69.0625H65C66.0341 69.0625 66.875 68.2213 66.875 67.1875C66.875 66.2603 66.1978 65.49 65.3125 65.3406V61.5625C65.3125 60.5284 64.4716 59.6875 63.4375 59.6875H61.875V54.9975L67.1588 54.9972C68.7209 54.9972 69.9956 53.7478 70 52.1878C70 50.0922 69.2184 48.1319 67.7894 46.6194C68.3372 45.3328 68.5431 43.9219 68.3856 42.5103ZM42.1875 61.25V65C42.1875 65.3447 41.9072 65.625 41.5625 65.625H35.9375C35.5928 65.625 35.3125 65.3447 35.3125 65V61.25C35.3125 60.9053 35.5928 60.625 35.9375 60.625H41.5625C41.9072 60.625 42.1875 60.9053 42.1875 61.25ZM51.875 68.125H48.125C47.7803 68.125 47.5 67.8447 47.5 67.5V66.875H52.5V67.5C52.5 67.8447 52.2197 68.125 51.875 68.125ZM52.5 61.25V65.625H47.5V61.25C47.5 60.9053 47.7803 60.625 48.125 60.625H51.875C52.2197 60.625 52.5 60.9053 52.5 61.25ZM65.625 67.1875C65.625 67.5322 65.3447 67.8125 65 67.8125H57.5C57.1553 67.8125 56.875 67.5322 56.875 67.1875C56.875 66.8428 57.1553 66.5625 57.5 66.5625H65C65.3447 66.5625 65.625 66.8428 65.625 67.1875ZM64.0625 61.5625V65.3125H58.4375V61.5625C58.4375 61.2178 58.7178 60.9375 59.0625 60.9375H63.4375C63.7822 60.9375 64.0625 61.2178 64.0625 61.5625ZM68.75 52.2084C68.7475 53.0566 68.0338 53.7469 67.1588 53.7469L32.8497 53.75C32.0047 53.75 31.3069 53.1044 31.2612 52.2797C31.2537 52.1456 31.25 52.0109 31.25 51.875C31.25 49.1297 32.8494 46.5863 35.3247 45.3947C35.5603 45.2813 35.7006 45.0325 35.6756 44.7719C35.6416 44.4147 35.625 44.0806 35.625 43.75C35.625 37.8913 40.3913 33.125 46.25 33.125C49.8319 33.125 53.15 34.9144 55.1256 37.9109C55.2222 38.0575 55.3759 38.1566 55.5491 38.1844C55.7222 38.2119 55.8994 38.1653 56.0366 38.0562C57.4388 36.9403 59.2012 36.4219 60.9984 36.5959C64.2028 36.9062 66.7869 39.4519 67.1434 42.6491C67.2912 43.9744 67.0619 45.2978 66.48 46.4762C66.3587 46.7216 66.4116 47.0172 66.61 47.2059C67.99 48.5178 68.75 50.2869 68.75 52.2084Z" fill="white"/>
<path d="M50.0293 40.9375C47.2881 40.9375 44.7162 42.0013 42.7881 43.9334C42.5443 44.1778 42.5446 44.5734 42.7887 44.8172C42.9109 44.9391 43.0706 45 43.2303 45C43.3906 45 43.5506 44.9387 43.6728 44.8166C45.365 43.1209 47.6225 42.1875 50.0293 42.1875C52.4084 42.1875 54.6471 43.1025 56.3334 44.7641C56.5793 45.0062 56.975 45.0034 57.2175 44.7575C57.4597 44.5116 57.4568 44.1159 57.2109 43.8734C55.2893 41.9803 52.7387 40.9375 50.0293 40.9375ZM50.0293 45.625C48.5068 45.625 47.0803 46.2497 46.0128 47.3841C45.7762 47.6356 45.7884 48.0309 46.0396 48.2675C46.1603 48.3813 46.3143 48.4375 46.4678 48.4375C46.634 48.4375 46.8 48.3716 46.9231 48.2406C47.7518 47.36 48.8553 46.875 50.0293 46.875C51.19 46.875 52.2837 47.3503 53.1096 48.2134C53.3481 48.4628 53.7437 48.4716 53.9934 48.2331C54.2428 47.9944 54.2515 47.5987 54.0128 47.3494C52.949 46.2372 51.5343 45.625 50.0293 45.625ZM50.0012 49.375C49.5018 49.375 49.0637 49.8128 49.0637 50.3125C49.0637 50.8119 49.5018 51.25 50.0012 51.25C50.5006 51.25 50.9387 50.8119 50.9387 50.3125C50.9387 49.8128 50.5006 49.375 50.0012 49.375Z" fill="white"/>
</svg>
