<svg width="100" height="100" viewBox="0 0 100 100" fill="none" xmlns="http://www.w3.org/2000/svg">
<rect width="100" height="100" rx="50" fill="#2D8DEA"/>
<g clip-path="url(#clip0_436_23870)">
<path d="M39.4725 38.6807V54.5368H60.8802V56.8805H37.1289V38.6807H39.4725Z" fill="white"/>
<path d="M37.5469 54.8154L40.2421 52.523L41.0843 48.114L41.326 46.8177L42.5784 47.2059L46.3428 48.3923L49.2577 45.3236L49.8143 44.7377L50.5541 45.0453L52.8171 45.9974L54.9484 43.4854L56.7354 44.9941L54.0475 48.1653L53.4909 48.8244L52.6999 48.4875L50.3929 47.5208L47.5293 50.5382L47.0313 51.0655L46.3355 50.8458L43.135 49.8351L42.4612 53.3652L42.073 54.039L39.0556 56.6024L37.5469 54.8154Z" fill="white"/>
<path d="M31.6288 32.9907H69.5445V62.6817H30.457V32.9834L31.6288 32.9907ZM67.2008 35.3344H32.8007V60.338H67.2008V35.327V35.3344Z" fill="white"/>
<path fill-rule="evenodd" clip-rule="evenodd" d="M47.1327 61.5098H52.8599L55.8554 65.0032H44.1445L47.1327 61.5098Z" fill="white"/>
<path d="M61.5038 67.0028H38.4922V64.6592H61.5038V67.0028Z" fill="white"/>
</g>
<defs>
<clipPath id="clip0_436_23870">
<rect width="50" height="50" fill="white" transform="translate(25 25)"/>
</clipPath>
</defs>
</svg>
