<svg width="100" height="100" viewBox="0 0 100 100" fill="none" xmlns="http://www.w3.org/2000/svg">
<rect width="100" height="100" rx="50" fill="#2D8DEA"/>
<path d="M65.2637 44.7559H61.6016V41.1035C61.6016 41.0645 61.6113 41.0156 61.6113 40.9766C61.6113 40.3027 61.0645 39.7559 60.3906 39.7559C60.1465 39.7559 59.4336 38.916 59.4336 37.3145C59.4336 35.7129 60.1465 34.873 60.3906 34.873C61.0645 34.873 61.6113 34.3262 61.6113 33.6523C61.6113 32.9785 61.0645 32.4219 60.3906 32.4219H38.3984C35.7031 32.4219 33.5156 34.6094 33.5156 37.3047V62.6953C33.5156 65.3906 35.7031 67.5781 38.3984 67.5781H60.3711C61.0449 67.5781 61.5918 67.0313 61.5918 66.3574V60.8594H59.1504V65.1367H39.873V42.1875H59.1602V44.7559H45.7324C45.0586 44.7559 44.5117 45.3027 44.5117 45.9766V58.1836C44.5117 58.8574 45.0586 59.4043 45.7324 59.4043H65.2637C65.9375 59.4043 66.4844 58.8574 66.4844 58.1836V45.9766C66.4844 45.293 65.9375 44.7559 65.2637 44.7559ZM38.4082 34.8633H57.4219C57.2266 35.3809 57.0898 35.957 57.0312 36.5723H44.7559C44.3555 36.5723 44.0234 36.9043 44.0234 37.3047C44.0234 37.7051 44.3555 38.0371 44.7559 38.0371H57.0312C57.0898 38.6523 57.2266 39.2285 57.4219 39.7461H38.4082C37.0605 39.7461 35.9668 38.6523 35.9668 37.3047C35.9668 35.957 37.0605 34.8633 38.4082 34.8633ZM38.4082 65.1367C37.0605 65.1367 35.9668 64.043 35.9668 62.6953V41.5234C36.6895 41.9434 37.5195 42.1875 38.4082 42.1875V65.1367ZM64.043 56.9629H46.9531V47.1973H64.043V56.9629Z" fill="white"/>
<path d="M49.7656 54.7559C49.9121 54.7559 50.0293 54.707 50.1172 54.5996C50.2051 54.4922 50.2539 54.3457 50.2539 54.1504V52.7637H51.1621C51.7676 52.7637 52.2266 52.6367 52.5293 52.3828C52.832 52.1289 52.9883 51.748 52.9883 51.25C52.9883 51.0156 52.9492 50.8105 52.8711 50.6152C52.793 50.4297 52.6855 50.2734 52.5391 50.1367C52.3926 50.0098 52.2168 49.9121 52.0215 49.8633C51.8164 49.8047 51.5332 49.7754 51.1523 49.7754H49.8828C49.668 49.7754 49.502 49.8242 49.4043 49.9121C49.3066 50 49.2578 50.166 49.2578 50.3809V54.1504C49.2578 54.3457 49.3066 54.4922 49.3945 54.5996C49.4922 54.707 49.6094 54.7559 49.7656 54.7559ZM50.2539 50.5273H50.918C51.3574 50.5273 51.6504 50.5957 51.7969 50.7422C51.9238 50.8789 51.9824 51.0547 51.9824 51.2695C51.9824 51.4453 51.9434 51.5918 51.8555 51.709C51.7773 51.8164 51.6504 51.9043 51.4941 51.9531C51.3379 52.002 51.1426 52.0312 50.9082 52.0312H50.2441V50.5273H50.2539ZM54.0527 54.5898C54.1406 54.6484 54.2773 54.668 54.4629 54.668H55.752C55.9766 54.668 56.1816 54.6582 56.3574 54.6289C56.5332 54.5996 56.6992 54.5508 56.8555 54.4824C57.0117 54.4141 57.1582 54.3164 57.2852 54.1992C57.4512 54.043 57.5879 53.8672 57.6953 53.6816C57.8027 53.4863 57.8809 53.2715 57.9297 53.0273C57.9785 52.7832 58.0078 52.5195 58.0078 52.2266C58.0078 51.3379 57.7539 50.6738 57.2461 50.2344C57.0508 50.0586 56.8359 49.9414 56.5918 49.8828C56.3477 49.8242 56.0645 49.7852 55.7227 49.7852H54.4336C54.2187 49.7852 54.0625 49.834 53.9648 49.9316C53.8672 50.0293 53.8184 50.1855 53.8184 50.4004V53.9844C53.8184 54.1406 53.8281 54.2676 53.8574 54.3652C53.8965 54.4629 53.9551 54.541 54.0527 54.5898ZM54.8242 50.5664H55.4785C55.7813 50.5664 56.0352 50.5957 56.25 50.6641C56.4648 50.7324 56.6406 50.8789 56.7871 51.123C56.9336 51.3672 57.002 51.7285 57.002 52.207C57.002 52.8906 56.8359 53.3789 56.5039 53.6523C56.4258 53.7207 56.3477 53.7695 56.2402 53.7988C56.1426 53.8379 56.0449 53.8574 55.9473 53.8672C55.8496 53.877 55.7227 53.877 55.5566 53.877H54.8047V50.5664H54.8242ZM59.3652 54.7559C59.5117 54.7559 59.6289 54.707 59.7168 54.6094C59.8047 54.5117 59.8535 54.3555 59.8535 54.1504V52.5391H61.4844C61.6309 52.5391 61.748 52.5098 61.8262 52.4414C61.9043 52.373 61.9434 52.2852 61.9434 52.168C61.9434 52.0508 61.9043 51.9629 61.8359 51.8945C61.7578 51.8262 61.6504 51.7969 61.4941 51.7969H59.8633V50.5469H61.8164C61.9727 50.5469 62.0898 50.5078 62.168 50.4395C62.2461 50.3711 62.2852 50.2734 62.2852 50.1563C62.2852 50.0391 62.2461 49.9512 62.168 49.8828C62.0898 49.8145 61.9727 49.7754 61.8164 49.7754H59.4727C59.3359 49.7754 59.2188 49.7949 59.1309 49.834C59.043 49.873 58.9746 49.9414 58.9355 50.0293C58.8965 50.1172 58.877 50.2344 58.877 50.3809V54.1504C58.877 54.3555 58.9258 54.502 59.0137 54.5996C59.0918 54.707 59.2188 54.7559 59.3652 54.7559Z" fill="white"/>
</svg>
