<svg width="100" height="100" viewBox="0 0 100 100" fill="none" xmlns="http://www.w3.org/2000/svg">
<rect width="100" height="100" rx="50" fill="#2D8DEA"/>
<path d="M68.2627 70.5001V34.8209C68.2619 34.2106 68.0192 33.6256 67.5876 33.194C67.1561 32.7625 66.5711 32.5197 65.9608 32.519H57.4844V31.7831C57.4836 31.0678 57.1991 30.382 56.6933 29.8761C56.1875 29.3703 55.5016 29.0858 54.7863 29.085H53.3193C53.0282 28.5185 52.5871 28.0429 52.044 27.7102C51.501 27.3774 50.8769 27.2003 50.24 27.1982C48.9193 27.1982 47.7419 27.9454 47.1665 29.085H45.1268C44.4115 29.0858 43.7256 29.3703 43.2198 29.8761C42.714 30.382 42.4295 31.0678 42.4287 31.7831V32.519H34.0363C33.426 32.5197 32.8409 32.7625 32.4094 33.194C31.9779 33.6256 31.7351 34.2106 31.7344 34.8209V70.5001C31.7351 71.1104 31.9779 71.6955 32.4094 72.127C32.8409 72.5585 33.426 72.8013 34.0363 72.802H65.9608C66.5711 72.8013 67.1561 72.5585 67.5876 72.127C68.0192 71.6955 68.2619 71.1104 68.2627 70.5001ZM37.3948 57.7313H41.9834L49.2759 65.0199C49.4539 65.1969 49.6947 65.2963 49.9457 65.2963C50.1967 65.2963 50.4375 65.1969 50.6155 65.0199L58.0476 57.5916C58.0589 57.5803 58.0665 57.5662 58.0787 57.5539H62.6023V67.1841H37.3948V57.7313ZM42.2193 53.9511C42.2334 51.0341 45.7504 49.5982 47.7976 51.6445L49.2825 53.1256C49.4595 53.302 49.6993 53.4011 49.9492 53.4009C50.1991 53.4007 50.4388 53.3014 50.6155 53.1247L52.0966 51.6435C54.1429 49.5964 57.6589 51.0303 57.6721 53.9492C57.6721 54.5652 57.4929 55.1539 57.1712 55.6681H53.3004L53.1872 55.4464C53.0723 55.2237 52.8995 55.036 52.687 54.9032C52.4745 54.7704 52.2302 54.6973 51.9797 54.6916C51.7495 54.6846 51.5212 54.7355 51.3158 54.8397C51.1104 54.9439 50.9345 55.098 50.8042 55.2879L49.2815 57.0199L47.4919 53.4133C47.3925 53.1543 47.2176 52.931 46.9898 52.7724C46.7621 52.6138 46.4921 52.5272 46.2146 52.5237C45.6193 52.535 45.1325 52.8482 44.9098 53.3728L43.8598 55.8445H42.841C42.4397 55.2945 42.2222 54.6319 42.2193 53.9511ZM46.2259 55.0992L47.8702 58.4124C47.9708 58.6756 48.1494 58.9017 48.3821 59.0605C48.6147 59.2194 48.8904 59.3033 49.1721 59.3011C49.6315 59.3011 50.0532 59.0803 50.3136 58.703L51.8448 56.9615L51.8863 57.0426C51.9656 57.1969 52.0859 57.3264 52.234 57.4168C52.3822 57.5072 52.5524 57.5549 52.7259 57.5548H55.4155L49.9457 63.0209L44.5919 57.6709C44.9787 57.553 45.3032 57.269 45.4693 56.8822L46.2259 55.0992ZM62.6023 55.6681H59.2438C59.4468 55.1168 59.5534 54.5347 59.5589 53.9473V53.9426C59.54 49.3718 54.0098 47.0596 50.7617 50.3105L49.9476 51.1237L49.1306 50.3096C45.9136 47.0926 40.3542 49.336 40.3325 53.9473C40.3325 54.6067 40.4636 55.2464 40.7014 55.8435H37.3948V38.2209H62.6023V55.6681ZM45.1259 30.9718H47.8146C48.0246 30.9719 48.2287 30.9019 48.3945 30.7729C48.5602 30.6439 48.6782 30.4632 48.7297 30.2596C48.8142 29.9235 49.0087 29.6254 49.2822 29.4125C49.5558 29.1997 49.8925 29.0844 50.2391 29.085C50.9674 29.085 51.5881 29.5945 51.7589 30.2624C51.8109 30.4654 51.9289 30.6453 52.0944 30.7737C52.26 30.9022 52.4635 30.9719 52.6731 30.9718H54.7863C55.0014 30.9718 55.2078 31.0573 55.36 31.2095C55.5121 31.3616 55.5976 31.568 55.5976 31.7831V36.2926H44.3146V31.7831C44.3146 31.568 44.4 31.3616 44.5522 31.2095C44.7043 31.0573 44.9107 30.9718 45.1259 30.9718ZM33.6212 70.5001V34.8209C33.6212 34.7108 33.6649 34.6052 33.7427 34.5274C33.8206 34.4495 33.9262 34.4058 34.0363 34.4058H42.4278V36.335H36.4514C36.2012 36.335 35.9612 36.4344 35.7843 36.6113C35.6074 36.7883 35.508 37.0282 35.508 37.2784V68.1275C35.508 68.3777 35.6074 68.6177 35.7843 68.7946C35.9612 68.9715 36.2012 69.0709 36.4514 69.0709H63.5457C63.7959 69.0709 64.0359 68.9715 64.2128 68.7946C64.3897 68.6177 64.4891 68.3777 64.4891 68.1275V37.2784C64.4891 37.0282 64.3897 36.7883 64.2128 36.6113C64.0359 36.4344 63.7959 36.335 63.5457 36.335H57.4844V34.4058H65.9608C66.1938 34.4058 66.3759 34.5888 66.3759 34.8209V70.5001C66.3759 70.7332 66.1938 70.9152 65.9608 70.9152H34.0363C33.9262 70.9152 33.8206 70.8715 33.7427 70.7936C33.6649 70.7158 33.6212 70.6102 33.6212 70.5001Z" fill="white"/>
<path d="M49.958 33.5095C50.4788 33.5095 50.9486 33.0396 50.9486 32.5189C50.9486 31.9981 50.4788 31.5283 49.958 31.5283C49.4373 31.5283 48.9674 31.9981 48.9674 32.5189C48.9674 33.0396 49.4373 33.5095 49.958 33.5095ZM42.3457 42.2321H57.6552C57.9054 42.2321 58.1453 42.1327 58.3223 41.9558C58.4992 41.7789 58.5986 41.5389 58.5986 41.2887C58.5986 41.0385 58.4992 40.7985 58.3223 40.6216C58.1453 40.4447 57.9054 40.3453 57.6552 40.3453H42.3457C42.0955 40.3453 41.8556 40.4447 41.6787 40.6216C41.5017 40.7985 41.4023 41.0385 41.4023 41.2887C41.4023 41.5389 41.5017 41.7789 41.6787 41.9558C41.8556 42.1327 42.0955 42.2321 42.3457 42.2321ZM42.3457 46.4585H57.6552C57.9054 46.4585 58.1453 46.3591 58.3223 46.1822C58.4992 46.0053 58.5986 45.7653 58.5986 45.5151C58.5986 45.2649 58.4992 45.025 58.3223 44.848C58.1453 44.6711 57.9054 44.5717 57.6552 44.5717H42.3457C42.0955 44.5717 41.8556 44.6711 41.6787 44.848C41.5017 45.025 41.4023 45.2649 41.4023 45.5151C41.4023 45.7653 41.5017 46.0053 41.6787 46.1822C41.8556 46.3591 42.0955 46.4585 42.3457 46.4585Z" fill="white"/>
</svg>
