<svg width="100" height="100" viewBox="0 0 100 100" fill="none" xmlns="http://www.w3.org/2000/svg">
<rect width="100" height="100" rx="50" fill="#2D8DEA"/>
<path d="M40.3609 34.9375H26.5234C26.1859 34.9375 25.9609 34.7125 25.9609 34.375V22.5625C25.9609 22.225 26.2984 22 26.5234 22H40.3609C40.6984 22 40.9234 22.225 40.9234 22.5625V34.375C40.9234 34.6 40.6984 34.9375 40.3609 34.9375ZM27.0859 33.8125H39.7984V23.125H27.0859V33.8125Z" fill="white"/>
<path d="M40.3609 23.125H26.5234C26.2984 23.125 25.9609 22.7875 25.9609 22.5625C25.9609 18.5125 29.2234 15.25 33.2734 15.25H33.7234C37.7734 15.25 41.0359 18.5125 41.0359 22.5625C40.9234 22.7875 40.6984 23.125 40.3609 23.125ZM27.1984 22H39.9109C39.5734 18.85 36.9859 16.375 33.8359 16.375H33.3859C30.1234 16.375 27.4234 18.85 27.1984 22Z" fill="white"/>
<path d="M41.9383 32.4629C40.8133 32.4629 39.8008 31.5629 39.8008 30.3254V24.0254C39.8008 23.6879 40.0258 23.4629 40.3633 23.4629C40.7008 23.4629 40.9258 23.6879 40.9258 24.0254V30.3254C40.9258 30.8879 41.3758 31.3379 41.9383 31.3379C42.5008 31.3379 42.9508 30.8879 42.9508 30.3254V24.0254C42.9508 23.5754 42.5008 23.1254 41.9383 23.1254H38.4508C38.1133 23.1254 37.8883 22.9004 37.8883 22.5629C37.8883 22.2254 38.1133 22.0004 38.4508 22.0004H41.9383C43.0633 22.0004 44.0758 22.9004 44.0758 24.1379V30.4379C44.0758 31.5629 43.1758 32.4629 41.9383 32.4629ZM25.0633 32.4629C23.9383 32.4629 22.9258 31.5629 22.9258 30.3254V24.0254C22.9258 22.9004 23.8258 21.8879 25.0633 21.8879H28.5508C28.8883 21.8879 29.1133 22.1129 29.1133 22.4504C29.1133 22.7879 28.8883 23.1254 28.5508 23.1254H25.0633C24.5008 23.1254 24.0508 23.5754 24.0508 24.0254V30.3254C24.0508 30.8879 24.5008 31.3379 25.0633 31.3379C25.6258 31.3379 26.0758 30.8879 26.0758 30.3254V24.0254C26.0758 23.6879 26.3008 23.4629 26.6383 23.4629C26.9758 23.4629 27.2008 23.6879 27.2008 24.0254V30.3254C27.0883 31.5629 26.1883 32.4629 25.0633 32.4629ZM29.4508 15.5879C29.3383 15.5879 29.1133 15.5879 29.0008 15.3629L28.3258 14.4629C28.2133 14.2379 28.2133 13.9004 28.4383 13.6754C28.6633 13.4504 29.0008 13.5629 29.2258 13.7879L29.9008 14.6879C30.1258 15.0254 30.0133 15.3629 29.7883 15.4754C29.6758 15.5879 29.5633 15.5879 29.4508 15.5879ZM37.5508 15.5879C37.4383 15.5879 37.3258 15.5879 37.2133 15.4754C36.8758 15.3629 36.8758 15.0254 37.1008 14.6879L37.7758 13.7879C38.0008 13.5629 38.3383 13.4504 38.5633 13.6754C38.7883 13.9004 38.9008 14.2379 38.6758 14.4629L38.0008 15.3629C37.8883 15.5879 37.6633 15.5879 37.5508 15.5879ZM30.4633 20.2004C30.2383 20.2004 30.1258 20.0879 30.0133 19.9754C29.9008 19.9754 29.9008 19.7504 29.9008 19.6379C29.9008 19.5254 29.9008 19.4129 30.0133 19.1879C30.2383 18.9629 30.5758 18.9629 30.8008 19.1879C30.9133 19.3004 31.0258 19.4129 31.0258 19.6379C31.0258 19.7504 30.9133 19.9754 30.8008 20.0879C30.6883 20.0879 30.5758 20.2004 30.4633 20.2004ZM36.6508 20.2004C36.5383 20.2004 36.3133 20.0879 36.2008 20.0879C36.0883 19.9754 36.0883 19.8629 36.0883 19.6379C36.0883 19.5254 36.2008 19.4129 36.2008 19.1879C36.4258 18.9629 36.7633 18.9629 36.9883 19.1879C37.1008 19.3004 37.2133 19.4129 37.2133 19.6379C37.2133 19.7504 37.1008 19.9754 36.9883 20.0879C36.8758 20.0879 36.7633 20.2004 36.6508 20.2004ZM30.5758 39.4379C29.3383 39.4379 28.2133 38.4254 28.2133 37.0754V34.3754C28.2133 34.0379 28.4383 33.8129 28.7758 33.8129H32.3758C32.7133 33.8129 32.9383 34.0379 32.9383 34.3754V37.1879C32.9383 38.4254 31.9258 39.4379 30.5758 39.4379ZM29.4508 34.9379V37.1879C29.4508 37.8629 30.0133 38.4254 30.6883 38.4254C31.3633 38.4254 31.9258 37.8629 31.9258 37.1879V34.9379H29.4508ZM36.4258 39.4379C35.1883 39.4379 34.0633 38.4254 34.0633 37.0754V34.3754C34.0633 34.0379 34.2883 33.8129 34.6258 33.8129H38.2258C38.5633 33.8129 38.7883 34.0379 38.7883 34.3754V37.1879C38.6758 38.4254 37.6633 39.4379 36.4258 39.4379ZM35.1883 34.9379V37.1879C35.1883 37.8629 35.7508 38.4254 36.4258 38.4254C37.1008 38.4254 37.6633 37.8629 37.6633 37.1879V34.9379H35.1883Z" fill="white"/>
<line x1="71.2359" y1="0.169897" x2="36.5769" y2="96.1009" stroke="white"/>
<path d="M76.0659 76.7116C75.3776 76.4172 74.7913 75.9265 74.3802 75.3009C73.9691 74.6753 73.7515 73.9423 73.7544 73.1937C73.7633 72.5255 73.9423 71.8705 74.2744 71.2906C74.6066 70.7107 75.081 70.2249 75.6529 69.8792C75.7823 69.7992 75.8941 69.6938 75.9816 69.5694C76.0691 69.445 76.1305 69.3042 76.162 69.1554C76.1935 69.0066 76.1946 68.8529 76.165 68.7037C76.1355 68.5545 76.076 68.4128 75.9901 68.2873C75.476 67.5397 74.8058 66.9125 74.0258 66.4492C73.2458 65.9858 72.3744 65.6972 71.472 65.6033C72.3119 64.2704 72.6931 62.6994 72.5575 61.1297C72.531 60.8447 72.3951 60.581 72.1784 60.3939C71.9617 60.2069 71.6809 60.1111 71.3951 60.1266C69.4634 60.2988 67.6727 61.2099 66.3963 62.67C65.5872 63.6075 65.0162 64.7265 64.7319 65.9318C64.1444 65.733 63.5294 65.6277 62.9093 65.6198C61.7612 65.6523 60.641 65.981 59.6573 66.5738C58.6736 67.1667 57.8598 68.0036 57.2947 69.0036C55.171 72.6906 56.4702 78.2156 58.7707 81.5412C59.6936 82.8738 61.0784 84.8744 63.1674 84.8744C63.2086 84.8744 63.2504 84.8744 63.2921 84.8722C63.9921 84.8325 64.6773 84.6551 65.3087 84.3503C65.813 84.0947 66.3693 83.9586 66.9347 83.9526C67.4663 83.9591 67.9891 84.0892 68.4617 84.3327C69.1524 84.6595 69.905 84.8344 70.6689 84.8458C72.8211 84.8051 74.0923 82.9484 75.0206 81.5916C75.7531 80.5139 76.3262 79.3361 76.7224 78.0947C76.8068 77.8238 76.7861 77.5311 76.6645 77.2748C76.5429 77.0185 76.3292 76.8174 76.0659 76.7116ZM68.0998 64.1389C68.6906 63.4779 69.431 62.9679 70.2591 62.6513C70.0779 63.5426 69.6771 64.3745 69.0929 65.0716C68.6964 65.5473 68.214 65.9443 67.6708 66.2417L67.6675 66.2428C67.6356 66.256 67.6037 66.2681 67.5718 66.2813C67.362 66.3637 67.1027 66.4658 66.9028 66.5317C67.0959 65.6467 67.5074 64.8241 68.0998 64.1389ZM73.1639 80.3217C72.2597 81.6423 71.5484 82.5794 70.6277 82.5959C70.1827 82.5945 69.7451 82.4815 69.3549 82.2674C68.6008 81.8999 67.7736 81.7069 66.9347 81.7026C66.0666 81.707 65.2103 81.904 64.4276 82.2794C64.047 82.4737 63.6319 82.5909 63.2059 82.6244H63.1724C62.2578 82.6244 61.274 81.2039 60.6208 80.2601C58.9866 77.8981 57.4793 73.1915 59.2448 70.1263C59.615 69.463 60.1504 68.9067 60.799 68.5113C61.4476 68.116 62.1874 67.895 62.9466 67.8698L62.9845 67.8687C63.625 67.9231 64.2504 68.0924 64.8308 68.3686C64.9785 68.4268 65.1241 68.485 65.2686 68.5389C65.3054 68.5542 65.3433 68.5685 65.3817 68.5806C65.7821 68.7416 66.2073 68.832 66.6386 68.8476C67.2492 68.799 67.8456 68.6385 68.3981 68.3741C69.1769 67.9961 70.033 67.8046 70.8986 67.8149C71.8245 67.8511 72.7133 68.1882 73.4304 68.7751C72.8176 69.3397 72.3296 70.0262 71.998 70.7906C71.6663 71.555 71.4982 72.3803 71.5045 73.2135V73.2147C71.4981 74.2234 71.7477 75.2172 72.23 76.1032C72.7123 76.9891 73.4114 77.7383 74.262 78.2805C73.9658 78.9962 73.5979 79.6801 73.1639 80.3217Z" fill="white"/>
</svg>
