<svg width="100" height="100" viewBox="0 0 100 100" fill="none" xmlns="http://www.w3.org/2000/svg">
<rect width="100" height="100" rx="50" fill="#2D8DEA"/>
<path d="M55.4688 55.4689V53.5935C55.4683 52.838 55.249 52.0988 54.8373 51.4653C54.4256 50.8318 53.8392 50.3312 53.149 50.0239L51.8384 49.4415C52.2367 49.1514 52.5609 48.7713 52.7844 48.3322C53.008 47.893 53.1247 47.4073 53.125 46.9146V42.9689C53.125 42.7617 53.0427 42.563 52.8962 42.4165C52.7497 42.27 52.5509 42.1877 52.3438 42.1877H50C49.1715 42.1886 48.3772 42.5182 47.7913 43.104C47.2055 43.6899 46.8759 44.4842 46.875 45.3127V46.9146C46.8753 47.4073 46.992 47.893 47.2156 48.3322C47.4391 48.7713 47.7633 49.1514 48.1616 49.4415L46.851 50.0239C46.1608 50.3312 45.5744 50.8318 45.1627 51.4653C44.751 52.0988 44.5317 52.838 44.5312 53.5935V55.4689C44.5313 55.6761 44.6136 55.8748 44.7601 56.0214C44.9066 56.1679 45.1053 56.2502 45.3125 56.2502H54.6875C54.8947 56.2502 55.0934 56.1679 55.2399 56.0214C55.3864 55.8748 55.4687 55.6761 55.4688 55.4689ZM48.4375 45.3127C48.438 44.8984 48.6027 44.5013 48.8957 44.2084C49.1886 43.9154 49.5857 43.7507 50 43.7502H51.5625V46.9146C51.5623 47.2168 51.4746 47.5125 51.3099 47.7659C51.1453 48.0192 50.9107 48.2195 50.6346 48.3424L50 48.6244L49.3654 48.3424C49.0893 48.2195 48.8548 48.0193 48.6901 47.7659C48.5254 47.5125 48.4377 47.2168 48.4375 46.9146V45.3127ZM53.9062 54.6877H46.0938V53.5935C46.094 53.1402 46.2256 52.6967 46.4726 52.3166C46.7196 51.9365 47.0715 51.6361 47.4856 51.4518L50 50.3343L52.5144 51.4518C52.9285 51.6361 53.2803 51.9365 53.5274 52.3166C53.7744 52.6967 53.906 53.1402 53.9062 53.5935V54.6877ZM64.0625 42.1877C65.2045 42.1876 66.3246 41.8746 67.3013 41.2827C68.278 40.6909 69.0738 39.8428 69.6025 38.8305C70.1311 37.8182 70.3723 36.6804 70.2999 35.5407C70.2275 34.401 69.8443 33.3029 69.1918 32.3657C69.1256 32.2709 69.0393 32.1919 68.9389 32.1345C68.8385 32.0771 68.7266 32.0427 68.6114 32.0337C68.4961 32.0248 68.3802 32.0416 68.2722 32.0828C68.1642 32.1241 68.0667 32.1888 67.9867 32.2723L64.0504 36.3832L63.0524 35.3852L61.9476 36.4901L63.5101 38.0526C63.6566 38.1991 63.8553 38.2814 64.0625 38.2814H64.071C64.175 38.2803 64.2777 38.2584 64.3732 38.217C64.4686 38.1757 64.5548 38.1157 64.6268 38.0405L68.3837 34.1169C68.8087 35.1261 68.8667 36.2523 68.5477 37.2998C68.2287 38.3473 67.5529 39.25 66.6376 39.851C65.7223 40.452 64.6254 40.7135 63.5374 40.5899C62.4494 40.4663 61.439 39.9655 60.6818 39.1745C59.9246 38.3835 59.4685 37.3523 59.3925 36.2599C59.3166 35.1675 59.6257 34.0831 60.2662 33.1949C60.9066 32.3067 61.8379 31.671 62.8984 31.398C63.9588 31.1251 65.0814 31.2323 66.071 31.7009L66.7415 30.2894C65.8945 29.8878 64.9679 29.6817 64.0305 29.6866C63.0931 29.6915 62.1688 29.9072 61.326 30.3176C60.4832 30.7281 59.7436 31.3229 59.1618 32.058C58.5801 32.7931 58.1711 33.6496 57.9652 34.5641C57.7592 35.4787 57.7617 36.4278 57.9723 37.3413C58.1828 38.2547 58.5962 39.1091 59.1817 39.8412C59.7672 40.5733 60.5099 41.1643 61.3548 41.5705C62.1997 41.9767 63.1251 42.1876 64.0625 42.1877ZM40.0523 61.762L40.1163 61.5062C40.2027 61.1606 40.2092 60.7999 40.1353 60.4515C40.0614 60.1031 39.9091 59.7761 39.6899 59.4953C39.4707 59.2146 39.1904 58.9875 38.8703 58.8313C38.5502 58.6751 38.1987 58.5939 37.8426 58.5939H37.5C37.3549 58.5939 37.2127 58.6343 37.0893 58.7106C36.9659 58.7869 36.8661 58.896 36.8012 59.0258L35.4547 61.7189H35.1562C35.1562 61.5117 35.0739 61.313 34.9274 61.1665C34.7809 61.02 34.5822 60.9377 34.375 60.9377H31.25C31.0428 60.9377 30.8441 61.02 30.6976 61.1665C30.5511 61.313 30.4688 61.5117 30.4688 61.7189V67.9689C30.4688 68.1761 30.5511 68.3748 30.6976 68.5214C30.8441 68.6679 31.0428 68.7502 31.25 68.7502H34.375C34.5609 68.7501 34.7406 68.6837 34.8818 68.5629C35.0231 68.4422 35.1167 68.275 35.1457 68.0914C35.5821 68.5142 36.1661 68.7505 36.7737 68.7502H39.2698C39.8333 68.7478 40.3773 68.5435 40.803 68.1743C41.2288 67.8051 41.508 67.2954 41.59 66.7379L41.9249 64.3942C42.0099 63.799 41.8629 63.1939 41.5144 62.704C41.1659 62.2141 40.6425 61.8769 40.0523 61.762ZM33.5938 67.1877H32.0312V62.5002H33.5938V67.1877ZM40.3781 64.1731L40.0433 66.517C40.0159 66.7028 39.9228 66.8727 39.7809 66.9957C39.639 67.1188 39.4577 67.1869 39.2698 67.1877H36.7737C36.6451 67.1878 36.5184 67.1561 36.405 67.0954C36.2916 67.0347 36.1949 66.9469 36.1237 66.8398L35.1562 65.3887V63.2814H35.9375C36.0826 63.2814 36.2248 63.241 36.3482 63.1648C36.4716 63.0885 36.5714 62.9794 36.6363 62.8496L37.9771 60.1679C38.0828 60.1864 38.1836 60.2265 38.2731 60.2857C38.3627 60.3449 38.4391 60.4219 38.4975 60.5119C38.556 60.6019 38.5953 60.703 38.613 60.8088C38.6307 60.9147 38.6265 61.023 38.6004 61.1272L38.3046 62.3107C38.2758 62.4259 38.2736 62.5461 38.2983 62.6622C38.3229 62.7784 38.3737 62.8874 38.4467 62.981C38.5198 63.0745 38.6132 63.1502 38.7199 63.2023C38.8266 63.2544 38.9438 63.2814 39.0625 63.2814H39.6047C39.7166 63.2814 39.8272 63.3055 39.929 63.352C40.0309 63.3984 40.1215 63.4662 40.1948 63.5508C40.2682 63.6353 40.3225 63.7347 40.3541 63.842C40.3857 63.9494 40.3939 64.0623 40.3781 64.1731ZM64.0625 57.8127C63.0308 57.8123 62.0277 58.1525 61.2091 58.7804C60.3904 59.4083 59.8019 60.2888 59.5347 61.2854C59.2676 62.282 59.3369 63.3388 59.7318 64.292C60.1267 65.2452 60.8251 66.0414 61.7188 66.5571V69.5314C61.7188 69.7386 61.8011 69.9373 61.9476 70.0839C62.0941 70.2304 62.2928 70.3127 62.5 70.3127H65.625C65.8322 70.3127 66.0309 70.2304 66.1774 70.0839C66.3239 69.9373 66.4062 69.7386 66.4062 69.5314V66.5571C67.2999 66.0414 67.9983 65.2452 68.3932 64.292C68.7881 63.3388 68.8574 62.282 68.5903 61.2854C68.3231 60.2888 67.7346 59.4083 66.9159 58.7804C66.0973 58.1525 65.0942 57.8123 64.0625 57.8127ZM64.8438 67.1877V68.7502H63.2812V67.1877H64.8438ZM64.8438 65.5263V62.983L65.9744 62.4177L65.2756 61.0202L64.0625 61.6267L62.8494 61.0202L62.1506 62.4177L63.2812 62.983V65.5263C62.5448 65.3361 61.903 64.8839 61.4761 64.2544C61.0492 63.6249 60.8666 62.8613 60.9624 62.1068C61.0582 61.3522 61.426 60.6585 61.9967 60.1557C62.5674 59.6529 63.3019 59.3755 64.0625 59.3755C64.8231 59.3755 65.5576 59.6529 66.1283 60.1557C66.699 60.6585 67.0668 61.3522 67.1626 62.1068C67.2584 62.8613 67.0758 63.6249 66.6489 64.2544C66.222 64.8839 65.5802 65.3361 64.8438 65.5263ZM37.4159 41.5886L37.6524 40.6024L38.0218 40.4493L38.891 40.982C39.0407 41.0737 39.2168 41.1123 39.3911 41.0917C39.5654 41.0711 39.7276 40.9924 39.8517 40.8683L40.8681 39.8519C40.9922 39.7279 41.0709 39.5656 41.0915 39.3913C41.1121 39.2171 41.0735 39.0409 40.9818 38.8913L40.4491 38.0219L40.6022 37.6527L41.5884 37.4162C41.7591 37.3752 41.911 37.278 42.0197 37.1402C42.1284 37.0024 42.1875 36.832 42.1875 36.6565V35.2189C42.1875 35.0434 42.1284 34.873 42.0197 34.7351C41.911 34.5973 41.7591 34.5001 41.5884 34.4592L40.6022 34.2227L40.4491 33.8533L40.9818 32.9841C41.0735 32.8344 41.1121 32.6583 41.0915 32.484C41.0709 32.3098 40.9922 32.1475 40.8681 32.0234L39.8517 31.0071C39.7276 30.883 39.5654 30.8043 39.3911 30.7837C39.2169 30.7631 39.0407 30.8017 38.8911 30.8934L38.0218 31.426L37.6525 31.273L37.416 30.2868C37.3751 30.1161 37.2779 29.9642 37.14 29.8555C37.0022 29.7468 36.8318 29.6877 36.6563 29.6877H35.2188C35.0432 29.6877 34.8728 29.7468 34.735 29.8555C34.5972 29.9642 34.5 30.1161 34.4591 30.2868L34.2226 31.273L33.8532 31.426L32.984 30.8933C32.8343 30.8016 32.6582 30.7629 32.4839 30.7836C32.3096 30.8042 32.1474 30.883 32.0233 31.0071L31.0069 32.0234C30.8828 32.1475 30.8041 32.3098 30.7835 32.484C30.7629 32.6583 30.8015 32.8344 30.8932 32.9841L31.4259 33.8534L31.2728 34.2227L30.2866 34.4592C30.1159 34.5001 29.964 34.5973 29.8553 34.7351C29.7466 34.873 29.6875 35.0434 29.6875 35.2189V36.6565C29.6875 36.832 29.7466 37.0024 29.8553 37.1402C29.964 37.278 30.1159 37.3753 30.2866 37.4162L31.2728 37.6527L31.4259 38.022L30.8932 38.8913C30.8015 39.0409 30.7629 39.2171 30.7835 39.3913C30.8041 39.5656 30.8828 39.7279 31.0069 39.8519L32.0233 40.8683C32.1474 40.9923 32.3096 41.071 32.4839 41.0916C32.6581 41.1122 32.8342 41.0736 32.9839 40.982L33.8532 40.4493L34.2225 40.6024L34.459 41.5886C34.4999 41.7593 34.5971 41.9112 34.735 42.0199C34.8728 42.1286 35.0432 42.1877 35.2187 42.1877H36.6562C36.8318 42.1877 37.0022 42.1286 37.14 42.0199C37.2778 41.9112 37.375 41.7593 37.4159 41.5886ZM36.2258 39.8509L36.0402 40.6252H35.8348L35.6491 39.8509C35.6204 39.731 35.5636 39.6196 35.4836 39.5258C35.4035 39.432 35.3024 39.3585 35.1885 39.3113L34.0836 38.8534C33.9696 38.8062 33.8462 38.7867 33.7233 38.7963C33.6003 38.806 33.4815 38.8446 33.3763 38.909L32.6927 39.3279L32.5472 39.1826L32.9662 38.4989C33.0306 38.3937 33.0692 38.2748 33.0789 38.1519C33.0886 38.029 33.069 37.9055 33.0218 37.7916L32.5639 36.6867C32.5167 36.5728 32.4432 36.4716 32.3494 36.3916C32.2556 36.3115 32.1442 36.2548 32.0243 36.2261L31.25 36.0404V35.835L32.0243 35.6493C32.1443 35.6206 32.2557 35.5638 32.3494 35.4838C32.4432 35.4037 32.5167 35.3026 32.5639 35.1887L33.0218 34.0837C33.069 33.9698 33.0886 33.8464 33.0789 33.7234C33.0692 33.6005 33.0306 33.4816 32.9662 33.3765L32.5472 32.6928L32.6927 32.5474L33.3763 32.9663C33.4814 33.0307 33.6003 33.0693 33.7232 33.079C33.8462 33.0886 33.9696 33.0691 34.0836 33.0219L35.1885 32.5641C35.3025 32.5169 35.4036 32.4434 35.4836 32.3496C35.5637 32.2558 35.6204 32.1444 35.6492 32.0245L35.8348 31.2502H36.0402L36.2259 32.0245C36.2546 32.1444 36.3114 32.2558 36.3914 32.3496C36.4715 32.4433 36.5726 32.5168 36.6865 32.5641L37.7914 33.0219C37.9053 33.0692 38.0288 33.0888 38.1517 33.0791C38.2747 33.0694 38.3936 33.0308 38.4987 32.9663L39.1823 32.5475L39.3278 32.6928L38.9088 33.3765C38.8444 33.4816 38.8058 33.6005 38.7961 33.7234C38.7865 33.8464 38.806 33.9698 38.8532 34.0837L39.3111 35.1887C39.3583 35.3026 39.4318 35.4037 39.5256 35.4838C39.6194 35.5638 39.7308 35.6206 39.8507 35.6493L40.625 35.835V36.0404L39.8507 36.2261C39.7307 36.2548 39.6193 36.3115 39.5256 36.3916C39.4318 36.4716 39.3583 36.5728 39.3111 36.6867L38.8532 37.7916C38.806 37.9055 38.7864 38.029 38.7961 38.1519C38.8058 38.2748 38.8444 38.3937 38.9088 38.4989L39.3278 39.1826L39.1823 39.328L38.4987 38.9091C38.3936 38.8446 38.2747 38.8059 38.1518 38.7963C38.0288 38.7866 37.9053 38.8062 37.7914 38.8535L36.6865 39.3113C36.5725 39.3585 36.4714 39.432 36.3914 39.5258C36.3113 39.6196 36.2546 39.731 36.2258 39.8509Z" fill="white"/>
<path d="M38.2813 35.9375C38.2813 35.474 38.1438 35.0208 37.8863 34.6354C37.6287 34.25 37.2627 33.9496 36.8344 33.7722C36.4062 33.5948 35.9349 33.5484 35.4803 33.6388C35.0256 33.7292 34.608 33.9524 34.2802 34.2802C33.9524 34.608 33.7292 35.0256 33.6388 35.4803C33.5484 35.9349 33.5948 36.4062 33.7722 36.8344C33.9496 37.2627 34.25 37.6287 34.6354 37.8863C35.0208 38.1438 35.474 38.2813 35.9375 38.2813C36.5589 38.2805 37.1546 38.0334 37.594 37.594C38.0334 37.1546 38.2805 36.5589 38.2813 35.9375ZM35.9375 36.7188C35.783 36.7188 35.6319 36.6729 35.5035 36.5871C35.375 36.5012 35.2749 36.3792 35.2157 36.2365C35.1566 36.0937 35.1411 35.9366 35.1713 35.7851C35.2014 35.6335 35.2758 35.4943 35.3851 35.3851C35.4943 35.2758 35.6335 35.2014 35.7851 35.1713C35.9366 35.1411 36.0937 35.1566 36.2365 35.2157C36.3792 35.2749 36.5012 35.375 36.5871 35.5035C36.6729 35.6319 36.7188 35.783 36.7188 35.9375C36.7185 36.1446 36.6361 36.3432 36.4897 36.4897C36.3432 36.6361 36.1446 36.7185 35.9375 36.7188Z" fill="white"/>
<path d="M67.1957 55.2266C68.2264 51.8184 68.2264 48.1816 67.1957 44.7734C68.6876 44.2444 70.0213 43.3462 71.0723 42.1626C72.1234 40.979 72.8577 39.5486 73.2068 38.0046C73.5558 36.4607 73.5082 34.8534 73.0684 33.3328C72.6286 31.8122 71.811 30.4277 70.6917 29.3084C69.5724 28.1891 68.1879 27.3714 66.6673 26.9316C65.1467 26.4918 63.5395 26.4442 61.9955 26.7932C60.4516 27.1422 59.0211 27.8765 57.8375 28.9276C56.6539 29.9786 55.7557 31.3123 55.2267 32.8042C51.8184 31.7735 48.1816 31.7736 44.7734 32.8043C44.2444 31.3124 43.3462 29.9787 42.1626 28.9276C40.979 27.8766 39.5486 27.1423 38.0046 26.7932C36.4606 26.4442 34.8534 26.4918 33.3328 26.9316C31.8122 27.3714 30.4277 28.1891 29.3084 29.3084C28.1891 30.4277 27.3714 31.8122 26.9316 33.3328C26.4918 34.8534 26.4442 36.4606 26.7932 38.0046C27.1423 39.5486 27.8765 40.979 28.9276 42.1626C29.9787 43.3462 31.3124 44.2444 32.8043 44.7734C31.7736 48.1816 31.7736 51.8184 32.8043 55.2266C31.3124 55.7556 29.9787 56.6538 28.9276 57.8374C27.8765 59.021 27.1423 60.4514 26.7932 61.9954C26.4442 63.5394 26.4918 65.1466 26.9316 66.6672C27.3714 68.1878 28.1891 69.5723 29.3084 70.6916C30.4277 71.8109 31.8122 72.6286 33.3328 73.0684C34.8534 73.5082 36.4606 73.5558 38.0046 73.2068C39.5486 72.8577 40.979 72.1234 42.1626 71.0723C43.3462 70.0212 44.2444 68.6876 44.7734 67.1957C48.1816 68.2264 51.8184 68.2264 55.2266 67.1957C55.7556 68.6876 56.6538 70.0212 57.8374 71.0723C59.021 72.1234 60.4514 72.8577 61.9954 73.2068C63.5394 73.5558 65.1466 73.5082 66.6672 73.0684C68.1878 72.6286 69.5723 71.8109 70.6916 70.6916C71.8109 69.5723 72.6286 68.1878 73.0684 66.6672C73.5082 65.1466 73.5558 63.5394 73.2068 61.9954C72.8577 60.4514 72.1235 59.021 71.0724 57.8374C70.0213 56.6538 68.6876 55.7556 67.1957 55.2266ZM64.0625 28.125C65.4162 28.1252 66.7466 28.4771 67.9233 29.1463C69.1001 29.8155 70.0827 30.779 70.775 31.9423C71.4673 33.1056 71.8454 34.4288 71.8723 35.7822C71.8992 37.1357 71.5739 38.4729 70.9285 39.6628C70.283 40.8527 69.3394 41.8544 68.1902 42.5698C67.041 43.2852 65.7256 43.6898 64.373 43.7438C63.0203 43.7978 61.6769 43.4994 60.4743 42.8779C59.2717 42.2563 58.2513 41.333 57.513 40.1983C57.4544 40.1084 57.3778 40.0315 57.2881 39.9724C57.1985 39.9134 57.0976 39.8735 56.9918 39.8552L53.9717 39.3326L56.0531 37.2743C56.135 37.1933 56.198 37.0952 56.2375 36.9871C56.2771 36.8789 56.2922 36.7634 56.2819 36.6487C56.2607 36.4137 56.25 36.1744 56.25 35.9375C56.2523 33.8662 57.0762 31.8804 58.5408 30.4158C60.0054 28.9512 61.9912 28.1273 64.0625 28.125ZM28.125 35.9375C28.125 33.8655 28.9481 31.8784 30.4132 30.4132C31.8784 28.9481 33.8655 28.125 35.9375 28.125C38.0095 28.125 39.9966 28.9481 41.4618 30.4132C42.9269 31.8784 43.75 33.8655 43.75 35.9375C43.75 36.1749 43.7393 36.4141 43.7181 36.6486C43.7078 36.7633 43.7229 36.8788 43.7625 36.987C43.802 37.0952 43.865 37.1933 43.9469 37.2743L46.0283 39.3326L43.0082 39.8552C42.9024 39.8735 42.8015 39.9134 42.7119 39.9724C42.6222 40.0315 42.5456 40.1084 42.487 40.1983C41.5684 41.61 40.2181 42.687 38.6376 43.2689C37.057 43.8508 35.3307 43.9063 33.716 43.4273C32.1013 42.9483 30.6846 41.9603 29.6771 40.6106C28.6696 39.2609 28.1252 37.6218 28.125 35.9375ZM35.9375 71.875C34.6211 71.8749 33.3261 71.5423 32.1727 70.9078C31.0192 70.2734 30.0448 69.3578 29.3399 68.2461C28.635 67.1344 28.2224 65.8625 28.1405 64.5487C28.0585 63.2349 28.3099 61.9216 28.8713 60.7309C29.4327 59.5402 30.2858 58.5107 31.3515 57.7379C32.4171 56.9651 33.6608 56.4741 34.967 56.3106C36.2732 56.147 37.5995 56.3161 38.8229 56.8022C40.0462 57.2883 41.1269 58.0757 41.9645 59.0912C42.0378 59.18 42.1298 59.2514 42.234 59.3005C42.3381 59.3496 42.4518 59.375 42.5669 59.375H45.4519L43.7304 62.0806C43.6246 62.247 43.5855 62.4472 43.6212 62.6411C43.8283 63.7683 43.7852 64.9273 43.4949 66.0359C43.2046 67.1446 42.6741 68.1759 41.9411 69.0569C41.208 69.9378 40.2903 70.6469 39.2528 71.1339C38.2154 71.6209 37.0836 71.8739 35.9375 71.875ZM50 66.4062C48.3636 66.4077 46.7361 66.1642 45.1718 65.6838C45.3459 64.6868 45.3585 63.6682 45.2092 62.6671L47.5341 59.0132C47.6093 58.8951 47.6513 58.7589 47.6558 58.619C47.6604 58.4791 47.6272 58.3405 47.5598 58.2178C47.4925 58.0951 47.3934 57.9927 47.2729 57.9214C47.1524 57.8501 47.015 57.8125 46.875 57.8125H42.9254C41.8622 56.6245 40.5138 55.7271 39.0074 55.2049C37.5011 54.6828 35.8865 54.5531 34.3162 54.8282C33.353 51.6815 33.353 48.3185 34.3162 45.1718C36.0681 45.4787 37.8712 45.2812 39.5152 44.6025C41.1592 43.9238 42.5764 42.7917 43.6016 41.3383L47.7895 40.6136C47.9309 40.5891 48.0628 40.5261 48.1708 40.4316C48.2788 40.3371 48.3587 40.2147 48.4016 40.0778C48.4446 39.9409 48.4491 39.7947 48.4145 39.6555C48.3799 39.5162 48.3076 39.3891 48.2056 39.2882L45.3005 36.4154C45.3085 36.2562 45.3125 36.0965 45.3125 35.9375C45.3126 35.394 45.2655 34.8515 45.1718 34.3162C48.3186 33.353 51.6814 33.3529 54.8283 34.3159C54.7345 34.8513 54.6874 35.3939 54.6875 35.9375C54.6875 36.0963 54.6916 36.2561 54.6995 36.4154L51.7944 39.2882C51.6924 39.3891 51.6201 39.5162 51.5855 39.6555C51.5509 39.7947 51.5554 39.9409 51.5984 40.0778C51.6413 40.2147 51.7212 40.3371 51.8292 40.4316C51.9372 40.5261 52.0691 40.5891 52.2105 40.6136L56.3984 41.3383C57.4236 42.7917 58.8408 43.9238 60.4848 44.6025C62.1288 45.2813 63.9319 45.4787 65.6838 45.1718C66.6471 48.3185 66.6471 51.6815 65.6838 54.8282C64.1135 54.5531 62.4989 54.6828 60.9926 55.2049C59.4862 55.7271 58.1378 56.6245 57.0746 57.8125H53.125C52.985 57.8125 52.8476 57.8501 52.7271 57.9214C52.6066 57.9927 52.5075 58.0951 52.4402 58.2178C52.3728 58.3405 52.3396 58.4791 52.3442 58.619C52.3487 58.7589 52.3907 58.8951 52.4659 59.0132L54.7908 62.6671C54.6415 63.6682 54.6541 64.6868 54.8282 65.6838C53.2639 66.1642 51.6364 66.4077 50 66.4062ZM64.0625 71.875C62.9164 71.8739 61.7846 71.6209 60.7472 71.1339C59.7097 70.6469 58.792 69.9378 58.059 69.0569C57.3259 68.1759 56.7954 67.1446 56.5051 66.0359C56.2148 64.9273 56.1717 63.7683 56.3788 62.6411C56.4145 62.4472 56.3754 62.247 56.2696 62.0806L54.5481 59.375H57.4331C57.5482 59.375 57.6619 59.3496 57.766 59.3005C57.8702 59.2514 57.9622 59.18 58.0355 59.0912C58.8731 58.0756 59.9538 57.2882 61.1772 56.8021C62.4005 56.3159 63.7269 56.1468 65.0331 56.3103C66.3393 56.4739 67.5831 56.9649 68.6488 57.7377C69.7145 58.5105 70.5676 59.5401 71.129 60.7308C71.6904 61.9215 71.9418 63.2348 71.8599 64.5487C71.7779 65.8625 71.3653 67.1344 70.6604 68.2461C69.9554 69.3579 68.9809 70.2735 67.8275 70.9079C66.674 71.5423 65.3789 71.875 64.0625 71.875Z" fill="white"/>
<path d="M52.2145 36.9025L52.473 35.3615C50.8356 35.0891 49.1644 35.0891 47.527 35.3615L47.7855 36.9025C49.2518 36.6587 50.7482 36.6587 52.2145 36.9025ZM35.5241 46.7021C35.0336 48.8734 35.0336 51.1267 35.5241 53.2979L37.0479 52.9521C36.609 51.0085 36.609 48.9915 37.0479 47.0479L35.5241 46.7021ZM47.0479 62.9522L46.7021 64.4759C48.8734 64.9664 51.1266 64.9664 53.2979 64.4759L52.9521 62.9522C51.0083 63.3889 48.9917 63.3889 47.0479 62.9522ZM64.4759 53.2979C64.9664 51.1267 64.9664 48.8734 64.4759 46.7021L62.9521 47.0479C63.391 48.9915 63.391 51.0085 62.9521 52.9521L64.4759 53.2979Z" fill="white"/>
</svg>
