<svg width="100" height="100" viewBox="0 0 100 100" fill="none" xmlns="http://www.w3.org/2000/svg">
<rect width="100" height="100" rx="50" fill="#2D8DEA"/>
<path d="M40.9992 37.8504C40.9992 35.4504 41.9492 33.2004 43.6492 31.5004C44.0492 31.1004 44.6492 31.1004 45.0492 31.5004C45.4492 31.9004 45.4492 32.5004 45.0492 32.9004C43.7492 34.2004 42.9992 36.0004 42.9992 37.8504C42.9992 39.7004 43.7492 41.5004 45.0492 42.8004C45.4492 43.2004 45.4492 43.8004 45.0492 44.2004C44.8492 44.4004 44.5992 44.5004 44.3492 44.5004C44.0992 44.5004 43.8492 44.4004 43.6492 44.2004C41.9492 42.5004 40.9992 40.2504 40.9992 37.8504ZM54.9492 44.2004C55.1492 44.4004 55.3992 44.5004 55.6492 44.5004C55.8992 44.5004 56.1492 44.4004 56.3492 44.2004C58.0492 42.5004 58.9992 40.2504 58.9992 37.8504C58.9992 35.4504 58.0492 33.2004 56.3492 31.5004C55.9492 31.1004 55.3492 31.1004 54.9492 31.5004C54.5492 31.9004 54.5492 32.5004 54.9492 32.9004C56.2492 34.2004 56.9992 36.0004 56.9992 37.8504C56.9992 39.7004 56.2492 41.5004 54.9492 42.8004C54.5492 43.2004 54.5492 43.8004 54.9492 44.2004ZM40.7992 48.0504C41.0492 48.0504 41.2992 47.9504 41.4992 47.7504C41.8992 47.3504 41.8992 46.7504 41.4992 46.3504C36.7992 41.6504 36.7992 34.0504 41.4992 29.4004C41.8992 29.0004 41.8992 28.4004 41.4992 28.0004C41.0992 27.6004 40.4992 27.6004 40.0992 28.0004C34.6492 33.4504 34.6492 42.3504 40.0992 47.8004C40.2992 47.9504 40.5492 48.0504 40.7992 48.0504ZM58.4992 46.3504C58.0992 46.7504 58.0992 47.3504 58.4992 47.7504C58.6992 47.9504 58.9492 48.0504 59.1992 48.0504C59.4492 48.0504 59.6992 47.9504 59.8992 47.7504C65.3492 42.3004 65.3492 33.4004 59.8992 27.9504C59.4992 27.5504 58.8992 27.5504 58.4992 27.9504C58.0992 28.3504 58.0992 28.9504 58.4992 29.3504C63.1492 34.0504 63.1492 41.6504 58.4992 46.3504ZM63.4992 71.3504C63.4992 71.9004 63.0492 72.3504 62.4992 72.3504H56.9992H42.9992H37.4992C36.9492 72.3504 36.4992 71.9004 36.4992 71.3504C36.4992 70.8004 36.9492 70.3504 37.4992 70.3504H42.1992L43.0492 66.1504L44.0492 61.1504L45.0492 56.1504L45.7492 52.7504C46.0492 51.3504 47.2492 50.3504 48.6992 50.3504H48.9992V41.7004C47.2992 41.2504 45.9992 39.7004 45.9992 37.8504C45.9992 35.6504 47.7992 33.8504 49.9992 33.8504C52.1992 33.8504 53.9992 35.6504 53.9992 37.8504C53.9992 39.7004 52.6992 41.2504 50.9992 41.7004V50.3504H51.3492C52.7992 50.3504 53.9992 51.3504 54.2992 52.7504L54.9992 56.1504L55.9992 61.1504L56.9992 66.1504L57.8492 70.3504H62.4992C63.0492 70.3504 63.4992 70.8004 63.4992 71.3504ZM49.9992 39.8504C51.0992 39.8504 51.9992 38.9504 51.9992 37.8504C51.9992 36.7504 51.0992 35.8504 49.9992 35.8504C48.8992 35.8504 47.9992 36.7504 47.9992 37.8504C47.9992 38.9504 48.8992 39.8504 49.9992 39.8504ZM45.1992 65.3504H54.7492L54.1492 62.3504H45.7992L45.1992 65.3504ZM46.1992 60.3504H53.7492L53.1492 57.3504H46.7992L46.1992 60.3504ZM47.6492 53.1504L47.1992 55.3504H52.7492L52.2992 53.1504C52.1992 52.7004 51.7992 52.3504 51.2992 52.3504H48.5992C48.1492 52.3504 47.7492 52.7004 47.6492 53.1504ZM55.7992 70.3504L55.1992 67.3504H44.7992L44.1992 70.3504H55.7992Z" fill="white"/>
</svg>
