<svg width="100" height="100" viewBox="0 0 100 100" fill="none" xmlns="http://www.w3.org/2000/svg">
<rect width="100" height="100" rx="50" fill="#2D8DEA"/>
<path d="M50.562 67.9961C50.8854 67.7014 51.1926 67.3895 51.4823 67.0617C51.423 66.9758 51.3608 66.8922 51.3077 66.8C51.0594 66.3713 50.8945 65.8994 50.8218 65.4093C49.453 67.1875 47.8374 68.3343 46.0933 68.6281V61.2906C48.0348 61.3165 49.9696 61.5227 51.873 61.9066L52.6905 60.4847C50.5234 60.006 48.3125 59.7527 46.0933 59.7289V50.8031H55.1218C55.0748 53.1719 54.7709 55.5287 54.2155 57.832L56.4909 53.8734C56.5968 52.8761 56.662 51.8511 56.6855 50.8031H58.2558L59.1542 49.2406H56.6862C56.651 45.7335 56.0469 42.2554 54.8976 38.9418C56.2611 38.4877 57.5237 37.7736 58.6155 36.839C60.9549 39.1888 62.6283 42.1177 63.4648 45.3261C63.5335 45.3222 63.6015 45.3125 63.6706 45.3125H63.6714C64.1725 45.3134 64.6687 45.4112 65.1327 45.6004C64.1468 41.2272 61.7437 37.3022 58.2971 34.4355C54.8505 31.5689 50.5534 29.9211 46.0737 29.7484C45.4683 29.6636 44.8538 29.6674 44.2495 29.7597C41.2768 29.9147 38.3747 30.7219 35.7488 32.1239C33.123 33.526 30.8378 35.4887 29.0554 37.8728C27.2729 40.2568 26.0369 43.0039 25.4349 45.9191C24.8329 48.8343 24.8797 51.8463 25.572 54.7414C26.2643 57.6365 27.5851 60.3438 29.4408 62.6713C31.2965 64.9988 33.6415 66.8895 36.3097 68.2093C38.9778 69.5291 41.9037 70.2457 44.8797 70.3082C47.8558 70.3707 50.8092 69.7777 53.5304 68.5711C52.904 68.3806 52.3369 68.0325 51.8835 67.5601C51.4488 67.7217 51.0083 67.8672 50.5628 67.9961H50.562ZM39.7429 67.9066C37.3648 67.1637 35.1588 65.954 33.2538 64.3484C34.1411 63.649 35.1418 63.107 36.2124 62.7461C37.0414 64.68 38.2408 66.4331 39.7429 67.9066ZM37.7198 62.2636C39.9447 61.6775 42.2306 61.354 44.5308 61.2996V68.6578C41.819 68.3129 39.4034 65.907 37.7198 62.2636ZM44.5308 59.7371C42.0224 59.7835 39.5294 60.1407 37.1089 60.8004C35.9499 57.5925 35.3339 54.2139 35.2862 50.8035H44.5308V59.7371ZM44.3948 31.3176C44.4398 31.3152 44.4858 31.316 44.5308 31.3136V38.8988C42.185 38.8747 39.8501 38.5764 37.5737 38.0097C39.2347 34.25 41.6597 31.7363 44.3948 31.3176ZM36.0612 37.5508C34.9447 37.1935 33.8947 36.6544 32.9538 35.9551C34.887 34.2557 37.1493 32.9725 39.5999 32.1855C38.0823 33.7265 36.8803 35.549 36.0612 37.5508ZM52.8097 37.9543C50.6142 38.5231 48.3606 38.8375 46.0933 38.8914V31.3289C48.7823 31.7812 51.1659 34.2617 52.8097 37.9547V37.9543ZM44.5308 40.4609V49.241H35.2851C35.3252 45.9131 35.9011 42.6135 36.9905 39.4687C39.454 40.1064 41.9863 40.4396 44.5308 40.4609ZM55.1245 49.241H46.0933V40.4543C48.5622 40.4079 51.0163 40.062 53.4019 39.4242C54.5025 42.5818 55.0843 45.8973 55.1245 49.241ZM57.4683 35.775C56.531 36.5318 55.463 37.1104 54.3171 37.482C53.4849 35.4612 52.2579 33.6268 50.7077 32.0863C53.1923 32.8346 55.4944 34.0907 57.4683 35.775ZM31.8179 37.039C32.9172 37.9037 34.1605 38.5675 35.4905 39C34.3553 42.2966 33.7584 45.7546 33.723 49.241H26.5815C26.7708 44.669 28.6345 40.3261 31.8179 37.039ZM26.5819 50.8035H33.7241C33.7657 54.3816 34.404 57.9277 35.6128 61.2957C34.3268 61.7388 33.1328 62.4139 32.0901 63.2875C28.7438 59.9707 26.776 55.5111 26.5819 50.8035ZM63.6714 50.7886L63.6628 50.8035H63.68L63.6714 50.7886Z" fill="white"/>
<path d="M65.7035 48.0497C65.5003 47.691 65.205 47.393 64.8482 47.1865C64.4914 46.98 64.086 46.8725 63.6738 46.875C63.2615 46.8726 62.8557 46.9802 62.4989 47.1867C62.1421 47.3933 61.8469 47.6913 61.6437 48.05L52.6593 63.6782C52.4546 64.0342 52.3471 64.4378 52.3477 64.8485C52.3482 65.2592 52.4568 65.6625 52.6624 66.018C52.8681 66.3734 53.1637 66.6686 53.5195 66.8737C53.8752 67.0789 54.2787 67.1868 54.6894 67.1868H72.6581C73.0688 67.1867 73.4722 67.0787 73.8279 66.8735C74.1836 66.6683 74.4791 66.3732 74.6848 66.0178C74.8904 65.6623 74.999 65.2591 74.9996 64.8484C75.0002 64.4378 74.8928 64.0342 74.6882 63.6782L65.7035 48.0497ZM73.3324 65.2352C73.265 65.3544 73.167 65.4534 73.0484 65.5218C72.9298 65.5902 72.795 65.6256 72.6581 65.6243H54.689C54.5524 65.6243 54.4181 65.5885 54.2997 65.5202C54.1814 65.452 54.083 65.3538 54.0146 65.2355C53.9462 65.1172 53.9102 64.983 53.91 64.8464C53.9099 64.7097 53.9458 64.5755 54.014 64.4571L62.9984 48.8282C63.0666 48.7094 63.165 48.6107 63.2835 48.5421C63.4021 48.4735 63.5367 48.4374 63.6737 48.4374C63.8107 48.4374 63.9452 48.4736 64.0638 48.5423C64.1823 48.611 64.2806 48.7097 64.3488 48.8286L73.3335 64.4571C73.4029 64.575 73.4394 64.7094 73.4393 64.8462C73.4392 64.9831 73.402 65.1174 73.3324 65.2352Z" fill="white"/>
<path d="M63.6707 60.1957C63.8244 60.1952 63.978 60.1866 64.1309 60.1699C64.2923 60.1533 64.4796 60.1236 64.6926 60.0809L64.8078 54.127C64.609 54.0949 64.4086 54.0736 64.2074 54.0633C64.0199 54.0549 63.841 54.0508 63.6707 54.0508C63.5001 54.0508 63.3191 54.0549 63.1277 54.0633C62.9286 54.0729 62.7302 54.0942 62.5336 54.127L62.6488 60.0809C62.9855 60.1488 63.3274 60.1873 63.6707 60.1957ZM64.7437 61.1539C64.5477 61.1201 64.3624 61.0944 64.1879 61.077C64.016 61.0602 63.8434 61.0517 63.6707 61.0516C63.5001 61.0516 63.3277 61.06 63.1535 61.077C62.9788 61.0941 62.7935 61.1198 62.5977 61.1539C62.5721 61.35 62.5508 61.5353 62.5336 61.7098C62.5164 61.8842 62.5078 62.0525 62.5078 62.2145C62.5078 62.3759 62.5164 62.5461 62.5336 62.725C62.5508 62.9039 62.5721 63.0914 62.5977 63.2875C62.7932 63.3214 62.9785 63.3469 63.1535 63.3641C63.328 63.3807 63.5004 63.3892 63.6707 63.3895C63.841 63.3895 64.0137 63.3809 64.1879 63.3641C64.3626 63.3469 64.5479 63.3214 64.7437 63.2875C64.7693 63.0917 64.7906 62.9042 64.8078 62.725C64.8247 62.5466 64.8333 62.3764 64.8336 62.2145C64.8336 62.0525 64.825 61.8842 64.8078 61.7098C64.7906 61.5353 64.7693 61.35 64.7437 61.1539Z" fill="white"/>
</svg>
