<svg width="80" height="80" viewBox="0 0 80 80" fill="none" xmlns="http://www.w3.org/2000/svg">
<path d="M43.9331 16.32L42.2475 16.96V8.72C42.2475 8.32 41.9264 8 41.5251 8H38.4749C38.0736 8 37.7525 8.32 37.7525 8.72V16.88L36.0669 16.24L16 71.92H20.8161L37.7525 24.88V65.52H42.2475V24.96L59.1839 72H64L43.9331 16.32Z" fill="#64798A"/>
<path d="M8 11H72V15.1125H8V11ZM8 51.8875H72V56H8V51.8875Z" fill="#DC8744"/>
<path d="M11 15H69V52H11V15Z" fill="#EBF0F3"/>
<path d="M11 15H69V17H11V15Z" fill="#E1E6E9"/>
<path d="M24 23C18.4882 23 14 27.528 14 33.0888C14 35.7897 15.0236 38.1729 16.7559 40L24 33.0888V23Z" fill="#44C4A1"/>
<path d="M35 32C35 26.4882 30.5118 22 25 22V32H35Z" fill="#FCD462"/>
<path d="M17 41.8504C18.8956 43.7402 21.6154 45 24.5824 45C27.467 45 30.1044 43.8976 32 42.0866L24.5824 35L17 41.8504Z" fill="#27A2DB"/>
<path d="M25 34L32.7953 41C34.7874 39.2111 36 36.7222 36 34H25Z" fill="#E56353"/>
<path d="M47.3846 22H44.6154C44.3077 22 44 22.2308 44 22.6154V25.3846C44 25.6923 44.2308 26 44.6154 26H47.3846C47.6923 26 48 25.7692 48 25.3846V22.6154C48 22.2308 47.7692 22 47.3846 22Z" fill="#44C4A1"/>
<path d="M51 23H66V25H51V23Z" fill="#D5D6DB"/>
<path d="M47.3846 28H44.6154C44.3077 28 44 28.2308 44 28.6154V31.3846C44 31.6923 44.2308 32 44.6154 32H47.3846C47.6923 32 48 31.7692 48 31.3846V28.6154C48 28.2308 47.7692 28 47.3846 28Z" fill="#FCD462"/>
<path d="M51 29H66V31H51V29Z" fill="#D5D6DB"/>
<path d="M47.3846 35H44.6154C44.3077 35 44 35.2308 44 35.6154V38.3846C44 38.6923 44.2308 39 44.6154 39H47.3846C47.6923 39 48 38.7692 48 38.3846V35.6154C48 35.2308 47.7692 35 47.3846 35Z" fill="#E56353"/>
<path d="M51 36H66V38H51V36Z" fill="#D5D6DB"/>
<path d="M47.3846 41H44.6154C44.3077 41 44 41.2308 44 41.6154V44.3846C44 44.6923 44.2308 45 44.6154 45H47.3846C47.6923 45 48 44.7692 48 44.3846V41.6154C48 41.2308 47.7692 41 47.3846 41Z" fill="#27A2DB"/>
<path d="M51 42H66V44H51V42Z" fill="#D5D6DB"/>
</svg>
