<svg width="80" height="80" viewBox="0 0 80 80" fill="none" xmlns="http://www.w3.org/2000/svg">
<path d="M21 29.1146L29.1143 21L59 50.8845L50.8857 59L21 29.1146Z" fill="#2F495E"/>
<path d="M29.2276 29.2276C24.6164 33.8388 17.0989 33.8388 12.478 29.2276C9.52334 26.2632 8.35116 22.0783 9.34897 18.0095L9.67834 16.6533L16.382 23.357L22.0879 22.0879L23.357 16.3724L16.663 9.67834L18.0192 9.34897C22.0783 8.35116 26.2729 9.52334 29.2276 12.478C33.8388 17.0989 33.8388 24.6067 29.2276 29.2276ZM61.9808 70.651C57.9217 71.6488 53.7271 70.4767 50.7724 67.522C46.1515 62.9011 46.1515 55.3933 50.7724 50.7724C55.3933 46.1515 62.9011 46.1515 67.522 50.7724C70.4767 53.7271 71.6488 57.9217 70.651 61.9808L70.3217 63.337L63.618 56.6333L57.9024 57.9024L56.6333 63.6083L63.3467 70.3217L61.9808 70.651Z" fill="#3E586B"/>
<path d="M64 24.7851L62.7853 26L54 17.2149L55.2147 16L64 24.7851Z" fill="#FFCF5C"/>
<path d="M55 16.2224L59.6157 11.6067C59.808 11.4143 60.0363 11.2618 60.2876 11.1577C60.5389 11.0536 60.8082 11 61.0802 11C61.3522 11 61.6216 11.0536 61.8729 11.1577C62.1242 11.2618 62.3525 11.4143 62.5448 11.6067L68.3933 17.4552C68.5857 17.6475 68.7382 17.8758 68.8423 18.1271C68.9464 18.3784 69 18.6478 69 18.9198C69 19.1918 68.9464 19.4611 68.8423 19.7124C68.7382 19.9637 68.5857 20.192 68.3933 20.3843L63.7776 25L55 16.2224Z" fill="#FF7058"/>
<path d="M25 63.8424L16.1508 55L16.121 55.0298C15.9418 55.2089 15.8025 55.3979 15.7029 55.6067L15.5337 56.0941L12 66.5279L13.4732 68L24.0345 64.4292C24.134 64.3994 24.2236 64.3696 24.3231 64.3198C24.562 64.2204 24.781 64.0712 24.9801 63.8822L25 63.8424Z" fill="#FFCF5C"/>
<path d="M11 69L12.0142 66L14 67.9858L11 69Z" fill="#334A5E"/>
<path d="M57 20.8719L54.1291 18L16.6048 55.5479C16.4308 55.7219 16.2955 55.9057 16.1988 56.1087L16.0345 56.5825C15.9185 57.2304 16.0925 57.9073 16.5951 58.4101C17.0011 58.8163 17.5134 59 18.0354 59C18.5574 59 19.0794 58.8066 19.4757 58.4101L57 20.8719Z" fill="#A8DBF0"/>
<path d="M56.1284 21L18.5946 58.5433C17.8018 59.3361 17.8018 60.6221 18.5946 61.4052C18.7832 61.5938 19.007 61.7434 19.2534 61.8454C19.4997 61.9475 19.7638 62 20.0304 62C20.2971 62 20.5611 61.9475 20.8075 61.8454C21.0538 61.7434 21.2777 61.5938 21.4662 61.4052L59 23.8716L56.1284 21Z" fill="#54C0EB"/>
<path d="M61.9927 25.8415L59.1584 23.0074C59.1531 23.0026 59.1462 23 59.1391 23C59.132 23 59.1251 23.0026 59.1197 23.0074L21.6547 60.4705C20.9485 61.1767 20.7744 62.289 21.3258 63.1112C21.5641 63.4586 21.9038 63.7239 22.2986 63.8711C22.6933 64.0182 23.1238 64.04 23.5313 63.9334C23.6281 63.9044 23.7151 63.8754 23.8119 63.827C24.044 63.7303 24.2568 63.5852 24.4503 63.4014L24.4793 63.3724L61.9927 25.8706C62.0024 25.8609 62.0024 25.8512 61.9927 25.8415Z" fill="#A8DBF0"/>
</svg>
