<svg width="30" height="30" viewBox="0 0 30 30" fill="none" xmlns="http://www.w3.org/2000/svg">
<path d="M15.6605 4.04344C13.0493 3.8618 10.5649 4.74023 8.6646 6.51398C6.80367 8.25094 5.73609 10.7025 5.73609 13.2398C5.73609 16.2204 7.19554 19.032 9.64031 20.7609C10.1953 21.1533 10.5267 21.8044 10.5267 22.5021V22.5745C10.5267 22.6989 10.5761 22.8181 10.664 22.906C10.7519 22.9939 10.8711 23.0433 10.9955 23.0433C11.1198 23.0433 11.239 22.9939 11.3269 22.906C11.4148 22.8181 11.4642 22.6989 11.4642 22.5745V22.5021C11.4642 21.5004 10.9847 20.5634 10.1817 19.9957C7.98515 18.4423 6.67359 15.9166 6.67359 13.2398C6.67359 10.9277 7.60781 8.7825 9.30421 7.1993C11.0126 5.60508 13.2457 4.81641 15.5958 4.97859C19.5848 5.25422 22.8119 8.31328 23.2687 12.2522C23.4459 13.7796 23.2059 15.3122 22.5745 16.6837C21.8381 18.2838 20.5078 19.6362 18.8287 20.4916L18.7917 20.5106C18.6809 20.567 18.5971 20.6652 18.5586 20.7834C18.5201 20.9016 18.5302 21.0303 18.5866 21.1411C18.643 21.2519 18.7412 21.3357 18.8594 21.3742C18.9776 21.4127 19.1063 21.4026 19.2171 21.3462L19.2541 21.3272C21.1202 20.3763 22.6019 18.8665 23.426 17.0759C24.1291 15.548 24.397 13.8427 24.1999 12.1441C23.6911 7.75711 20.0998 4.35023 15.6605 4.04344ZM10.4013 3.60844C10.4254 3.6651 10.4604 3.71647 10.5043 3.75961C10.5482 3.80275 10.6002 3.83681 10.6573 3.85986C10.7144 3.88291 10.7755 3.89449 10.837 3.89393C10.8986 3.89338 10.9594 3.88071 11.0161 3.85664C11.0728 3.83257 11.1241 3.79758 11.1673 3.75366C11.2104 3.70974 11.2445 3.65775 11.2675 3.60066C11.2906 3.54358 11.3021 3.48251 11.3016 3.42095C11.301 3.35939 11.2884 3.29854 11.2643 3.24187L11.2059 3.10477C11.1819 3.0481 11.1469 2.99673 11.1029 2.9536C11.059 2.91046 11.007 2.87639 10.95 2.85334C10.8929 2.83029 10.8318 2.81872 10.7702 2.81927C10.7087 2.81982 10.6478 2.83249 10.5912 2.85656C10.5345 2.88063 10.4831 2.91563 10.44 2.95955C10.3969 3.00347 10.3628 3.05545 10.3397 3.11254C10.3167 3.16963 10.3051 3.23069 10.3057 3.29225C10.3062 3.35382 10.3189 3.41466 10.343 3.47133L10.4013 3.60844ZM15 3.05695C15.1243 3.05695 15.2435 3.00757 15.3315 2.91966C15.4194 2.83175 15.4687 2.71252 15.4687 2.5882V1.99219C15.4687 1.86787 15.4194 1.74864 15.3315 1.66073C15.2435 1.57282 15.1243 1.52344 15 1.52344C14.8757 1.52344 14.7564 1.57282 14.6685 1.66073C14.5806 1.74864 14.5312 1.86787 14.5312 1.99219V2.5882C14.5312 2.71252 14.5806 2.83175 14.6685 2.91966C14.7564 3.00757 14.8757 3.05695 15 3.05695ZM19.1299 3.91945C19.2436 3.96978 19.3726 3.97293 19.4887 3.92819C19.6047 3.88345 19.6982 3.7945 19.7487 3.68086L19.8091 3.54445C19.8595 3.43079 19.8627 3.30178 19.8179 3.18578C19.7732 3.06979 19.6842 2.97632 19.5705 2.92594C19.4569 2.87556 19.3279 2.87239 19.2119 2.91714C19.0959 2.96188 19.0024 3.05087 18.952 3.16453L18.8916 3.30094C18.8412 3.41457 18.838 3.54356 18.8827 3.65956C18.9274 3.77555 19.0163 3.86903 19.1299 3.91945ZM22.6868 6.29461C22.804 6.29461 22.9212 6.25102 23.0123 6.16312L23.4424 5.74828C23.4867 5.70554 23.5222 5.6545 23.5468 5.59806C23.5713 5.54162 23.5846 5.4809 23.5857 5.41935C23.5868 5.3578 23.5758 5.29664 23.5532 5.23935C23.5307 5.18206 23.4971 5.12977 23.4544 5.08547C23.4116 5.04116 23.3606 5.00571 23.3041 4.98113C23.2477 4.95655 23.187 4.94333 23.1254 4.94222C23.0639 4.94111 23.0027 4.95213 22.9454 4.97466C22.8882 4.99719 22.8359 5.03078 22.7916 5.07352L22.3615 5.48836C22.2942 5.55321 22.2478 5.63669 22.2283 5.72808C22.2088 5.81947 22.2171 5.9146 22.2521 6.00126C22.287 6.08791 22.3471 6.16214 22.4246 6.21441C22.502 6.26668 22.5933 6.29461 22.6868 6.29461ZM24.9281 9.71555C24.9865 9.71555 25.0455 9.70477 25.103 9.68156L25.2419 9.62578C25.2991 9.6028 25.3511 9.56881 25.395 9.52572C25.439 9.48264 25.4741 9.43132 25.4982 9.37469C25.5223 9.31806 25.5351 9.25723 25.5357 9.19568C25.5363 9.13412 25.5248 9.07305 25.5019 9.01594C25.4789 8.95883 25.4449 8.9068 25.4018 8.86283C25.3587 8.81886 25.3074 8.78381 25.2508 8.75967C25.1941 8.73554 25.1333 8.72279 25.0718 8.72216C25.0102 8.72154 24.9491 8.73304 24.892 8.75602L24.753 8.8118C24.652 8.85238 24.5682 8.9269 24.5161 9.02255C24.4639 9.1182 24.4468 9.22901 24.4675 9.33595C24.4882 9.44288 24.5455 9.53927 24.6296 9.60854C24.7136 9.67781 24.8192 9.71565 24.9281 9.71555ZM26.3034 12.9457H25.7034C25.5791 12.9457 25.4599 12.9951 25.372 13.083C25.2841 13.1709 25.2347 13.2901 25.2347 13.4145C25.2347 13.5388 25.2841 13.658 25.372 13.7459C25.4599 13.8338 25.5791 13.8832 25.7034 13.8832H26.3034C26.4278 13.8832 26.547 13.8338 26.6349 13.7459C26.7228 13.658 26.7722 13.5388 26.7722 13.4145C26.7722 13.2901 26.7228 13.1709 26.6349 13.083C26.547 12.9951 26.4278 12.9457 26.3034 12.9457ZM25.1241 17.1684L24.9869 17.1084C24.8738 17.0625 24.7471 17.0625 24.6339 17.1084C24.5207 17.1544 24.4299 17.2428 24.3809 17.3547C24.3319 17.4666 24.3284 17.5932 24.3713 17.7076C24.4142 17.822 24.5 17.9151 24.6105 17.9672L24.7476 18.0272C24.8608 18.0732 24.9875 18.0732 25.1007 18.0272C25.2139 17.9812 25.3046 17.8929 25.3537 17.781C25.4027 17.6691 25.4062 17.5424 25.3633 17.4281C25.3204 17.3137 25.2346 17.2205 25.1241 17.1684ZM22.7873 20.5605C22.7444 20.5165 22.6931 20.4813 22.6366 20.457C22.58 20.4327 22.5192 20.4198 22.4577 20.4191C22.3961 20.4183 22.335 20.4296 22.2779 20.4524C22.2207 20.4753 22.1686 20.5091 22.1245 20.5521C22.0805 20.5951 22.0453 20.6463 22.021 20.7029C21.9967 20.7594 21.9838 20.8202 21.983 20.8818C21.9822 20.9433 21.9936 21.0044 22.0164 21.0616C22.0393 21.1187 22.0731 21.1708 22.1161 21.2149L22.533 21.6429C22.6249 21.7371 22.7468 21.7845 22.8687 21.7845C22.9609 21.7844 23.051 21.7572 23.1278 21.7063C23.2046 21.6553 23.2647 21.5828 23.3005 21.4978C23.3364 21.4129 23.3463 21.3193 23.3292 21.2287C23.3121 21.1381 23.2686 21.0545 23.2043 20.9885L22.7873 20.5605ZM6.98788 20.3166L6.55781 20.7314C6.47091 20.8183 6.42159 20.9358 6.42046 21.0586C6.41933 21.1815 6.46648 21.2999 6.55175 21.3883C6.63703 21.4767 6.75362 21.5282 6.87644 21.5315C6.99925 21.5349 7.11847 21.4898 7.20843 21.4062L7.63851 20.9913C7.7254 20.9045 7.77472 20.787 7.77585 20.6641C7.77699 20.5413 7.72984 20.4229 7.64456 20.3344C7.55928 20.246 7.44269 20.1946 7.31988 20.1912C7.19706 20.1879 7.07785 20.2329 6.98788 20.3166ZM4.89702 16.7984L4.75804 16.8541C4.70093 16.8771 4.64891 16.9111 4.60494 16.9542C4.56097 16.9973 4.52591 17.0486 4.50178 17.1052C4.47764 17.1619 4.4649 17.2227 4.46427 17.2842C4.46364 17.3458 4.47514 17.4069 4.49812 17.464C4.52109 17.5211 4.5551 17.5731 4.59818 17.6171C4.64126 17.6611 4.69258 17.6961 4.74921 17.7202C4.86358 17.769 4.99262 17.7703 5.10796 17.7239L5.24695 17.6681C5.36228 17.6217 5.45447 17.5314 5.50321 17.417C5.55196 17.3027 5.55327 17.1736 5.50687 17.0583C5.46047 16.9429 5.37015 16.8508 5.25578 16.802C5.14141 16.7533 5.01236 16.752 4.89702 16.7984ZM4.76413 13.0816C4.76595 12.9574 4.71838 12.8374 4.63186 12.7482C4.54533 12.6589 4.42694 12.6077 4.30265 12.6056L3.70382 12.5962H3.69656C3.57469 12.599 3.45871 12.6492 3.37317 12.736C3.28763 12.8229 3.23927 12.9396 3.23833 13.0615C3.23738 13.1834 3.28393 13.3008 3.36811 13.389C3.45229 13.4772 3.56749 13.5291 3.68929 13.5337L4.28812 13.5431H4.29538C4.41847 13.5432 4.53665 13.4948 4.62436 13.4085C4.71208 13.3221 4.76229 13.2047 4.76413 13.0816ZM5.38992 8.51273L5.25304 8.4525C5.13923 8.40246 5.01019 8.39968 4.89433 8.44478C4.77847 8.48988 4.68527 8.57915 4.63523 8.69297C4.58519 8.80678 4.58241 8.93582 4.62751 9.05168C4.67261 9.16754 4.76188 9.26074 4.8757 9.31078L5.01257 9.37102C5.12639 9.42105 5.25542 9.42383 5.37128 9.37873C5.48714 9.33364 5.58035 9.24436 5.63038 9.13055C5.68042 9.01673 5.6832 8.8877 5.6381 8.77184C5.59301 8.65598 5.50373 8.56277 5.38992 8.51273ZM7.21242 5.91914C7.30429 6.01336 7.42617 6.0607 7.54828 6.0607C7.64049 6.0608 7.73069 6.03369 7.80756 5.98276C7.88444 5.93182 7.94457 5.85934 7.98043 5.77438C8.01629 5.68942 8.02628 5.59577 8.00915 5.50516C7.99202 5.41455 7.94853 5.331 7.88413 5.265L7.46718 4.83703C7.42423 4.79294 7.37301 4.75774 7.31646 4.73344C7.25991 4.70915 7.19912 4.69623 7.13757 4.69542C7.07602 4.69462 7.01492 4.70594 6.95775 4.72875C6.90058 4.75156 6.84846 4.78541 6.80437 4.82836C6.76028 4.87131 6.72508 4.92253 6.70078 4.97908C6.67649 5.03564 6.66357 5.09642 6.66276 5.15797C6.66195 5.21952 6.67328 5.28062 6.69609 5.33779C6.7189 5.39496 6.75275 5.44708 6.7957 5.49117L7.21242 5.91914Z" fill="#622DFA"/>
<path d="M13.3957 10.9151L12.9963 11.3107C12.9527 11.2588 12.8984 11.2171 12.837 11.1884C12.7756 11.1597 12.7088 11.1447 12.641 11.1445H10.703C10.5787 11.1445 10.4594 11.1939 10.3715 11.2818C10.2836 11.3697 10.2342 11.489 10.2342 11.6133V17.2988C10.2342 17.4231 10.2836 17.5423 10.3715 17.6302C10.4594 17.7181 10.5787 17.7675 10.703 17.7675H12.641C12.7653 17.7675 12.8846 17.7181 12.9725 17.6302C13.0604 17.5423 13.1098 17.4231 13.1098 17.2988V12.518L14.0552 11.5809C14.3966 11.2436 14.6672 10.8415 14.8512 10.3983C15.0355 9.95808 15.1296 9.48542 15.1282 9.00821L15.1275 8.60086L15.1798 8.60696C15.4083 8.63391 15.5967 8.78672 15.6406 8.99086L15.6429 9.04453C15.671 9.68642 15.6244 10.3294 15.5041 10.9605L15.4207 11.3988C15.4079 11.4666 15.4102 11.5364 15.4274 11.6032C15.4446 11.67 15.4763 11.7321 15.5203 11.7853C15.5643 11.8384 15.6194 11.8812 15.6818 11.9106C15.7442 11.9401 15.8123 11.9554 15.8813 11.9555L18.4777 11.9536C18.5327 11.9536 18.5873 11.9674 18.6436 11.9977C18.7573 12.0586 18.8278 12.1748 18.8278 12.3009C18.8278 12.432 18.7744 12.5599 18.6816 12.652L18.6345 12.6987C18.5477 12.7846 18.4979 12.901 18.4956 13.023C18.4933 13.1451 18.5388 13.2633 18.6223 13.3523L18.7439 13.4822C18.7981 13.5398 18.8278 13.6153 18.8278 13.7025C18.8278 13.8084 18.7802 13.9069 18.697 13.9725L18.6218 14.0323C18.5433 14.0946 18.4868 14.1804 18.4606 14.2772C18.4345 14.3739 18.44 14.4765 18.4765 14.5699L18.5606 14.7853C18.5957 14.8751 18.6004 14.9739 18.5739 15.0666C18.5475 15.1593 18.4915 15.2408 18.4144 15.2986L18.2222 15.4434C18.1642 15.4871 18.1172 15.5437 18.0849 15.6086C18.0525 15.6736 18.0356 15.7452 18.0356 15.8177V15.9762C18.0356 16.1191 17.9161 16.2356 17.7694 16.2356H14.1415C14.0172 16.2356 13.8979 16.285 13.81 16.3729C13.7221 16.4608 13.6727 16.5801 13.6727 16.7044C13.6727 16.8287 13.7221 16.9479 13.81 17.0358C13.8979 17.1237 14.0172 17.1731 14.1415 17.1731H17.7694C18.4071 17.1731 18.9305 16.6774 18.9706 16.0533L18.9788 16.0472C19.1421 15.9246 19.2761 15.7671 19.371 15.5863C19.4659 15.4054 19.5193 15.2057 19.5274 15.0016C19.5341 14.8415 19.5127 14.6814 19.4641 14.5287C19.6606 14.2952 19.7675 13.9994 19.7656 13.6943C19.7659 13.4562 19.6979 13.223 19.5696 13.0223C19.6974 12.8032 19.765 12.5542 19.7656 12.3005C19.7656 11.8282 19.5056 11.3953 19.0795 11.167C18.8944 11.0678 18.6877 11.0158 18.4777 11.0156L16.4473 11.017C16.5647 10.3531 16.6092 9.67618 16.5797 9.00328L16.5773 8.94961C16.5746 8.89276 16.567 8.83623 16.5548 8.78063C16.4281 8.19375 15.9197 7.74961 15.2892 7.67555L15.1683 7.66125C15.0453 7.64678 14.9207 7.65851 14.8026 7.69568C14.6846 7.73285 14.5757 7.7946 14.4832 7.87688C14.3905 7.95971 14.3164 8.0613 14.2659 8.17492C14.2154 8.28854 14.1896 8.4116 14.1902 8.53594L14.1909 9.00938C14.1917 9.36243 14.122 9.71208 13.9859 10.0378C13.8494 10.3665 13.6488 10.6648 13.3957 10.9151ZM12.1723 16.83H11.1717V12.082H12.1723V16.83ZM19.0045 22.1058H13.2799C13.1556 22.1058 13.0364 22.1552 12.9485 22.2431C12.8606 22.331 12.8112 22.4502 12.8112 22.5745C12.8112 22.6989 12.8606 22.8181 12.9485 22.906C13.0364 22.9939 13.1556 23.0433 13.2799 23.0433H18.536V24.7533C18.536 25.2199 18.1535 25.5996 17.6831 25.5996H12.3171C12.0986 25.5999 11.8884 25.5159 11.7302 25.3651C11.572 25.2143 11.4781 25.0084 11.468 24.7901H16.7203C16.8446 24.7901 16.9639 24.7407 17.0518 24.6528C17.1397 24.5649 17.1891 24.4457 17.1891 24.3213C17.1891 24.197 17.1397 24.0778 17.0518 23.9899C16.9639 23.902 16.8446 23.8526 16.7203 23.8526H10.9955C10.8712 23.8526 10.7519 23.902 10.664 23.9899C10.5761 24.0778 10.5267 24.197 10.5267 24.3213V24.7533C10.5267 25.737 11.3299 26.5371 12.3171 26.5371H12.6284C12.8482 27.6413 13.8277 28.4766 15 28.4766C16.1723 28.4766 17.1518 27.6413 17.3714 26.5371H17.6827C18.6698 26.5371 19.4731 25.737 19.4731 24.7533V22.6716C19.4731 22.6549 19.4698 22.6392 19.4681 22.6231C19.4698 22.6069 19.4731 22.5912 19.4731 22.5745C19.4733 22.3155 19.2635 22.1058 19.0045 22.1058ZM15 27.5391C14.6909 27.5392 14.3896 27.4426 14.1381 27.263C13.8866 27.0833 13.6976 26.8295 13.5975 26.5371H16.4023C16.3023 26.8295 16.1133 27.0834 15.8619 27.263C15.6104 27.4427 15.3091 27.5392 15 27.5391Z" fill="#2E2E2E"/>
</svg>
