<svg width="80" height="80" viewBox="0 0 80 80" fill="none" xmlns="http://www.w3.org/2000/svg">
<path d="M76 37.7513V60.4763C76 62.8388 74.0875 64.7513 71.725 64.7513H67.5625C67 64.7513 66.4375 65.3138 66.55 65.8763L66.8875 72.1763C66.8875 73.1888 65.65 73.7513 64.975 72.9638L58.1125 65.2013C57.8875 64.9763 57.6625 64.8638 57.325 64.8638H34.6C32.2375 64.8638 30.325 62.9513 30.325 60.5888V37.9763H45.5125C47.875 37.9763 49.7875 36.0638 49.7875 33.7013V33.4763H71.8375C74.0875 33.4763 76 35.3888 76 37.7513Z" fill="#48495B"/>
<path opacity="0.15" d="M52.0375 33.4763V33.7013C52.0375 37.3013 49.1125 40.3388 45.4 40.3388H30.325V37.9763H45.5125C47.875 37.9763 49.7875 36.0638 49.7875 33.7013V33.4763H52.0375Z" fill="#EFEFEF"/>
<path d="M49.675 10.9763V33.7013C49.675 36.0638 47.7625 37.9763 45.4 37.9763H22.675C22.3375 37.9763 22.1125 38.0888 21.8874 38.3138L15.0249 46.0763C14.3499 46.8638 13.1124 46.3013 13.1124 45.2888L13.4499 38.9888C13.4499 38.4263 12.9999 37.8638 12.4374 37.8638H8.27494C5.91244 37.8638 3.99994 35.9513 3.99994 33.5888V10.9763C3.99994 8.61379 5.91244 6.70129 8.27494 6.70129H45.4C47.7625 6.70129 49.675 8.61379 49.675 10.9763Z" fill="#178BFF"/>
<path d="M35.7249 17.2763C36.2875 17.2763 36.85 16.8263 36.85 16.1513C36.85 15.4763 36.4 15.0263 35.7249 15.0263H28.1874C28.1874 13.9013 27.9624 12.2138 27.1749 11.3138C26.8374 10.8638 26.0499 10.7513 25.5999 11.2013C25.1499 11.5388 25.0374 12.3263 25.4874 12.7763C25.8249 13.2263 25.9374 14.2388 25.9374 15.1388H18.2874C17.7249 15.1388 17.1624 15.5888 17.1624 16.2638C17.1624 16.9388 17.6124 17.3888 18.2874 17.3888H20.9874C21.4374 18.9638 22.6749 22.5638 24.9249 25.6013C23.2374 27.2888 20.8749 28.5263 18.0624 28.3013C17.4999 28.1888 16.9374 28.6388 16.9374 29.3138C16.9374 29.8763 17.2749 30.4388 17.9499 30.4388C18.2874 30.4388 18.6249 30.4388 18.9624 30.4388C22.1124 30.4388 24.5874 29.0888 26.4999 27.1763C28.4124 29.0888 30.8874 30.4388 34.0374 30.4388C34.3749 30.4388 34.7124 30.4388 35.0499 30.4388C35.6124 30.4388 36.0624 29.8763 36.0624 29.3138C36.0624 28.7513 35.4999 28.3013 34.9374 28.3013C32.1249 28.5263 29.7624 27.4013 28.0749 25.6013C30.3249 22.5638 31.5624 19.0763 32.0124 17.3888H35.7249V17.2763ZM26.4999 23.6888C24.8124 21.4388 23.7999 18.7388 23.3499 17.2763H29.6499C29.0874 18.8513 28.1874 21.4388 26.4999 23.6888ZM60.5875 56.3138L58.225 50.6888L54.2875 41.2388C54.175 40.9013 53.725 40.6763 53.3875 40.6763C52.9375 40.6763 52.6 40.9013 52.4875 41.2388L45.85 56.3138C45.625 56.7638 45.85 57.4388 46.4125 57.6638C46.975 57.8888 47.5375 57.6638 47.7625 57.1013L50.0125 52.1513H56.875L59.0125 57.1013C59.125 57.4388 59.575 57.6638 59.9125 57.6638C60.025 57.6638 60.1375 57.6638 60.25 57.5513C60.5875 57.4388 60.8125 56.8763 60.5875 56.3138ZM50.6875 50.1263L53.275 44.1638L55.75 50.1263H50.6875Z" fill="white"/>
</svg>
