<svg width="225" height="110" viewBox="0 0 225 110" fill="none" xmlns="http://www.w3.org/2000/svg">
<g clip-path="url(#clip0_20_5011)">
<path d="M103.19 24.5067C106.77 20.7632 111.753 18.4416 117.264 18.4416C124.593 18.4416 130.985 22.5425 134.388 28.6326C137.348 27.3057 140.621 26.5684 144.066 26.5684C157.281 26.5684 167.998 37.4193 167.998 50.8016C167.998 64.184 157.284 75.0373 144.066 75.0373C142.453 75.0373 140.877 74.8724 139.351 74.565C136.354 79.9329 130.642 83.559 124.082 83.559C121.339 83.559 118.743 82.9243 116.43 81.7897C113.394 88.9669 106.312 94 98.0599 94C89.8081 94 82.1413 88.5421 79.3309 80.885C78.1037 81.1449 76.8293 81.2824 75.5224 81.2824C65.2941 81.2824 57 72.8681 57 62.4896C57 55.5323 60.7239 49.4596 66.2624 46.2109C65.1224 43.5769 64.4901 40.6705 64.4901 37.6142C64.4901 25.6788 74.1434 16 86.0469 16C93.0367 16 99.2498 19.3362 103.19 24.5067Z" fill="#139CD8"/>
<path d="M73.0755 56.447C73.0058 56.6294 73.1004 56.6669 73.1228 56.6994C73.3319 56.8518 73.541 56.9618 73.7551 57.0842C74.8877 57.6865 75.958 57.8614 77.0757 57.8614C79.3533 57.8614 80.7672 56.6469 80.7672 54.6901V54.6527C80.7672 52.8434 79.1691 52.1836 77.6731 51.7088L77.4765 51.6463C76.3464 51.279 75.3731 50.9591 75.3731 50.2144V50.1769C75.3731 49.5371 75.9431 49.0673 76.8243 49.0673C77.805 49.0673 78.9675 49.3947 79.7168 49.812C79.7168 49.812 79.9383 49.9545 80.018 49.7395C80.0628 49.6221 80.4411 48.6 80.481 48.4875C80.5233 48.3676 80.4486 48.2776 80.369 48.2301C79.5127 47.7078 78.3303 47.3505 77.1056 47.3505H76.879C74.7931 47.3505 73.3394 48.6175 73.3394 50.4268V50.4643C73.3394 52.371 74.9449 52.9933 76.4484 53.4231L76.6899 53.4981C77.7851 53.8355 78.731 54.1279 78.731 54.9001V54.94C78.731 55.6473 78.1162 56.1746 77.128 56.1746C76.7421 56.1746 75.5174 56.1671 74.1957 55.3274C74.0363 55.2324 73.9442 55.165 73.8198 55.09C73.7551 55.05 73.5908 54.9775 73.5186 55.1924L73.0705 56.4445L73.0755 56.447Z" fill="white"/>
<path d="M106.409 56.447C106.339 56.6294 106.434 56.6669 106.456 56.6994C106.665 56.8518 106.874 56.9618 107.088 57.0842C108.221 57.6865 109.291 57.8614 110.409 57.8614C112.687 57.8614 114.101 56.6469 114.101 54.6901V54.6527C114.101 52.8434 112.503 52.1836 111.006 51.7088L110.81 51.6463C109.68 51.279 108.706 50.9591 108.706 50.2144V50.1769C108.706 49.5371 109.276 49.0673 110.158 49.0673C111.138 49.0673 112.301 49.3947 113.05 49.812C113.05 49.812 113.272 49.9545 113.351 49.7395C113.396 49.6221 113.775 48.6 113.814 48.4875C113.857 48.3676 113.782 48.2776 113.702 48.2301C112.846 47.7078 111.664 47.3505 110.439 47.3505H110.212C108.126 47.3505 106.673 48.6175 106.673 50.4268V50.4643C106.673 52.371 108.281 52.9933 109.782 53.4231L110.023 53.4981C111.119 53.8355 112.067 54.1279 112.067 54.9001V54.94C112.067 55.6473 111.452 56.1746 110.461 56.1746C110.076 56.1746 108.853 56.1671 107.529 55.3274C107.37 55.2324 107.275 55.1675 107.153 55.09C107.113 55.065 106.919 54.9875 106.854 55.1924L106.404 56.4445L106.409 56.447Z" fill="white"/>
<path d="M131.065 50.5642C130.878 49.9295 130.587 49.3722 130.201 48.9073C129.815 48.44 129.322 48.0652 128.74 47.7928C128.16 47.5204 127.473 47.3829 126.704 47.3829C125.934 47.3829 125.245 47.5229 124.665 47.7928C124.085 48.0627 123.592 48.44 123.206 48.9073C122.818 49.3722 122.527 49.932 122.342 50.5642C122.156 51.194 122.061 51.8837 122.061 52.6134C122.061 53.3431 122.156 54.0354 122.342 54.6651C122.529 55.2974 122.818 55.8547 123.206 56.322C123.592 56.7893 124.085 57.1617 124.667 57.4266C125.25 57.6915 125.934 57.8264 126.706 57.8264C127.478 57.8264 128.16 57.6915 128.742 57.4266C129.322 57.1617 129.815 56.7868 130.203 56.322C130.589 55.8572 130.883 55.2974 131.067 54.6651C131.254 54.0354 131.348 53.3456 131.348 52.6134C131.348 51.8812 131.254 51.194 131.067 50.5642M129.168 52.6134C129.168 53.718 128.961 54.5927 128.558 55.2074C128.157 55.8172 127.552 56.1146 126.709 56.1146C125.865 56.1146 125.262 55.8172 124.867 55.2074C124.466 54.5927 124.264 53.718 124.264 52.6134C124.264 51.5088 124.466 50.6392 124.864 50.0294C125.26 49.4271 125.862 49.1323 126.709 49.1323C127.555 49.1323 128.157 49.4246 128.558 50.0294C128.964 50.6392 129.168 51.5088 129.168 52.6134Z" fill="white"/>
<path fill-rule="evenodd" clip-rule="evenodd" d="M146.672 55.8197C146.61 55.6347 146.428 55.7047 146.428 55.7047C146.152 55.8122 145.858 55.9071 145.545 55.9571C145.228 56.0071 144.88 56.0321 144.504 56.0321C143.586 56.0321 142.854 55.7572 142.328 55.2149C141.806 54.6701 141.51 53.793 141.512 52.6059C141.515 51.5263 141.776 50.7141 142.241 50.0944C142.704 49.4796 143.411 49.1622 144.35 49.1622C145.134 49.1622 145.731 49.2547 146.359 49.4496C146.359 49.4496 146.508 49.5146 146.578 49.3197C146.747 48.8549 146.869 48.525 147.046 48.0152C147.095 47.8702 146.973 47.8078 146.926 47.7903C146.68 47.6928 146.1 47.5354 145.659 47.4679C145.251 47.4054 144.768 47.3729 144.233 47.3729C143.436 47.3729 142.724 47.5104 142.114 47.7828C141.507 48.0527 140.992 48.4275 140.584 48.8948C140.175 49.3622 139.867 49.9194 139.66 50.5517C139.453 51.1815 139.349 51.8737 139.349 52.6059C139.349 54.1878 139.772 55.4673 140.613 56.402C141.455 57.3441 142.717 57.8214 144.365 57.8214C145.338 57.8214 146.336 57.624 147.056 57.3391C147.056 57.3391 147.192 57.2716 147.133 57.1117L146.667 55.8172L146.672 55.8197Z" fill="white"/>
<path fill-rule="evenodd" clip-rule="evenodd" d="M156.395 50.2043C156.233 49.5921 155.835 48.9748 155.574 48.6924C155.161 48.2426 154.752 47.9302 154.352 47.7578C153.829 47.5329 153.199 47.3829 152.507 47.3829C151.705 47.3829 150.976 47.5179 150.384 47.7978C149.791 48.0752 149.293 48.4575 148.903 48.9323C148.512 49.4047 148.218 49.9694 148.031 50.6092C147.845 51.244 147.75 51.9362 147.75 52.6684C147.75 53.4006 147.847 54.1078 148.041 54.7301C148.238 55.3599 148.549 55.9122 148.972 56.372C149.395 56.8343 149.941 57.1942 150.59 57.4491C151.237 57.699 152.024 57.8314 152.925 57.8264C154.782 57.8214 155.763 57.4066 156.166 57.1817C156.238 57.1417 156.306 57.0717 156.221 56.8718L155.798 55.6897C155.733 55.5148 155.556 55.5773 155.556 55.5773C155.096 55.7497 154.441 56.0571 152.915 56.0546C151.917 56.0546 151.178 55.7572 150.715 55.2949C150.239 54.8226 150.005 54.1278 149.965 53.1482L156.398 53.1532C156.398 53.1532 156.567 53.1532 156.584 52.9833C156.592 52.9133 156.803 51.6563 156.393 50.2019M149.995 51.5513C150.087 50.9366 150.254 50.4268 150.516 50.0294C150.909 49.4246 151.509 49.0898 152.355 49.0898C153.201 49.0898 153.757 49.4246 154.157 50.0294C154.424 50.4293 154.538 50.9591 154.586 51.5538H149.995V51.5513Z" fill="white"/>
<path fill-rule="evenodd" clip-rule="evenodd" d="M104.87 50.2043C104.709 49.5921 104.31 48.9748 104.049 48.6924C103.636 48.2426 103.23 47.9302 102.827 47.7578C102.302 47.5329 101.674 47.3829 100.985 47.3829C100.181 47.3829 99.4514 47.5179 98.859 47.7978C98.2665 48.0752 97.7687 48.4575 97.3779 48.9323C96.987 49.4047 96.6933 49.9694 96.5066 50.6092C96.3199 51.244 96.2253 51.9362 96.2253 52.6684C96.2253 53.4006 96.3224 54.1078 96.5166 54.7301C96.7132 55.3599 97.0244 55.9122 97.4476 56.372C97.8707 56.8343 98.4159 57.1942 99.0656 57.4491C99.7128 57.699 100.499 57.8314 101.4 57.8264C103.257 57.8214 104.238 57.4066 104.641 57.1817C104.714 57.1417 104.781 57.0717 104.696 56.8718L104.273 55.6897C104.208 55.5148 104.032 55.5773 104.032 55.5773C103.571 55.7497 102.916 56.0571 101.391 56.0546C100.395 56.0546 99.653 55.7572 99.19 55.2949C98.7146 54.8226 98.4806 54.1278 98.4408 53.1482L104.873 53.1532C104.873 53.1532 105.042 53.1532 105.06 52.9833C105.067 52.9133 105.279 51.6563 104.868 50.2019M98.4706 51.5513C98.5627 50.9366 98.7295 50.4268 98.9884 50.0294C99.3842 49.4246 99.9841 49.0898 100.828 49.0898C101.672 49.0898 102.232 49.4246 102.633 50.0294C102.896 50.4293 103.013 50.9591 103.058 51.5538H98.4681L98.4706 51.5513Z" fill="white"/>
<path d="M87.1247 51.2464C86.8633 51.2264 86.5248 51.2164 86.1216 51.2164C85.5689 51.2164 85.0363 51.2864 84.5359 51.4214C84.0331 51.5563 83.5825 51.7662 83.1942 52.0461C82.8034 52.3285 82.4898 52.6859 82.2608 53.1132C82.0317 53.5405 81.9172 54.0404 81.9172 54.6001C81.9172 55.1599 82.0143 55.6697 82.2135 56.0746C82.4101 56.4819 82.6914 56.8243 83.0523 57.0842C83.4108 57.3466 83.8514 57.539 84.3617 57.654C84.867 57.7714 85.4395 57.8289 86.0668 57.8289C86.7264 57.8289 87.3836 57.7739 88.0208 57.664C88.6531 57.5565 89.4248 57.3991 89.6413 57.3491C89.8554 57.2991 90.0919 57.2341 90.0919 57.2341C90.2512 57.1941 90.2388 57.0217 90.2388 57.0217V51.1165C90.2363 49.8195 89.8903 48.8599 89.2132 48.2626C88.5386 47.6703 87.5429 47.3704 86.256 47.3704C85.7731 47.3704 84.9989 47.4354 84.5309 47.5304C84.5309 47.5304 83.127 47.8028 82.5495 48.2601C82.5495 48.2601 82.4226 48.3375 82.4898 48.5175L82.9453 49.747C83.0025 49.9069 83.1569 49.852 83.1569 49.852C83.1569 49.852 83.2067 49.832 83.2639 49.797C84.5011 49.1223 86.0668 49.1422 86.0668 49.1422C86.7613 49.1422 87.2965 49.2847 87.6574 49.5596C88.0084 49.832 88.1851 50.2368 88.1851 51.099V51.3714C87.6325 51.2914 87.1247 51.2464 87.1247 51.2464ZM84.5658 55.7847C84.3119 55.5823 84.2795 55.5323 84.1949 55.4023C84.0654 55.2049 84.0007 54.9225 84.0007 54.5627C84.0007 53.9954 84.1874 53.5855 84.5757 53.3131C84.5733 53.3131 85.1308 52.8283 86.4427 52.8458C87.3637 52.8583 88.1901 52.9958 88.1901 52.9958V55.9321C88.1901 55.9321 87.3736 56.1071 86.4526 56.162C85.1433 56.242 84.5608 55.7847 84.5658 55.7847Z" fill="white"/>
<path fill-rule="evenodd" clip-rule="evenodd" d="M139.018 47.9177C139.068 47.7728 138.963 47.7028 138.921 47.6853C138.811 47.6453 138.264 47.5278 137.843 47.5004C137.034 47.4504 136.586 47.5878 136.183 47.7678C135.782 47.9477 135.341 48.2401 135.097 48.5724V47.7852C135.097 47.6778 135.02 47.5903 134.911 47.5903H133.26C133.153 47.5903 133.076 47.6778 133.076 47.7852V57.4215C133.076 57.529 133.163 57.6165 133.273 57.6165H134.963C135.07 57.6165 135.157 57.529 135.157 57.4215V52.6084C135.157 51.9611 135.229 51.3189 135.371 50.914C135.511 50.5117 135.7 50.1943 135.934 49.9644C136.168 49.7345 136.437 49.5746 136.73 49.4846C137.029 49.3921 137.36 49.3621 137.592 49.3621C137.93 49.3621 138.298 49.4496 138.298 49.4496C138.423 49.4621 138.493 49.3846 138.535 49.2747C138.644 48.9798 138.958 48.0951 139.018 47.9177Z" fill="white"/>
<path fill-rule="evenodd" clip-rule="evenodd" d="M123.151 43.452C122.945 43.387 122.761 43.3445 122.514 43.302C122.265 43.257 121.972 43.2321 121.64 43.2321C120.478 43.2321 119.559 43.5619 118.917 44.2142C118.277 44.8614 117.842 45.8461 117.623 47.1431L117.546 47.5804H116.084C116.084 47.5804 115.905 47.5729 115.868 47.7678L115.629 49.1098C115.612 49.2372 115.666 49.3172 115.838 49.3172H117.259L115.816 57.4016C115.704 58.0514 115.574 58.5861 115.43 58.9935C115.29 59.3958 115.151 59.6932 114.982 59.9131C114.817 60.1231 114.663 60.2805 114.392 60.3705C114.17 60.4429 113.914 60.4779 113.635 60.4779C113.481 60.4779 113.274 60.4529 113.12 60.4204C112.965 60.3905 112.886 60.3555 112.771 60.308C112.771 60.308 112.605 60.243 112.537 60.4105C112.485 60.5479 112.107 61.595 112.062 61.7249C112.017 61.8524 112.079 61.9524 112.161 61.9823C112.351 62.0498 112.49 62.0948 112.749 62.1548C113.107 62.2397 113.409 62.2447 113.692 62.2447C114.285 62.2447 114.825 62.1623 115.27 61.9998C115.721 61.8349 116.112 61.55 116.46 61.1677C116.834 60.7528 117.07 60.3155 117.297 59.7207C117.521 59.1334 117.71 58.4012 117.862 57.5515L119.311 49.3172H121.429C121.429 49.3172 121.608 49.3247 121.645 49.1298L121.884 47.7878C121.902 47.6604 121.847 47.5804 121.675 47.5804H119.619C119.629 47.5354 119.721 46.8082 119.958 46.1234C120.06 45.8311 120.249 45.5961 120.411 45.4337C120.568 45.2738 120.749 45.1613 120.948 45.0963C121.153 45.0314 121.384 44.9989 121.638 44.9989C121.832 44.9989 122.021 45.0214 122.166 45.0514C122.365 45.0938 122.442 45.1163 122.494 45.1313C122.703 45.1963 122.731 45.1338 122.773 45.0339L123.263 43.6769C123.313 43.5319 123.191 43.4695 123.146 43.452" fill="white"/>
<path fill-rule="evenodd" clip-rule="evenodd" d="M94.4083 57.4216C94.4083 57.529 94.3311 57.619 94.2241 57.619H92.5165C92.4094 57.619 92.3323 57.5315 92.3323 57.4216V43.6369C92.3323 43.5294 92.4094 43.442 92.5165 43.442H94.2241C94.3311 43.442 94.4083 43.5294 94.4083 43.6369V57.4216Z" fill="white"/>
</g>
<defs>
<clipPath id="clip0_20_5011">
<rect width="111" height="78" fill="white" transform="translate(57 16)"/>
</clipPath>
</defs>
</svg>
