<svg width="30" height="30" viewBox="0 0 30 30" fill="none" xmlns="http://www.w3.org/2000/svg">
<path d="M15.9909 22.7201C15.8018 22.7201 15.6312 22.8337 15.5585 23.0081L15.0054 24.3316L14.4405 23.0051C14.4045 22.9205 14.3444 22.8485 14.2677 22.7978C14.191 22.7471 14.1012 22.7201 14.0093 22.7201C12.2405 22.7201 10.8014 24.1547 10.8014 25.9179V27.4219C10.8014 27.5462 10.8508 27.6654 10.9387 27.7533C11.0266 27.8412 11.1458 27.8906 11.2701 27.8906H16.3807C16.505 27.8906 16.6242 27.8412 16.7121 27.7533C16.8001 27.6654 16.8494 27.5462 16.8494 27.4219C16.8494 27.2975 16.8001 27.1783 16.7121 27.0904C16.6242 27.0025 16.505 26.9531 16.3807 26.9531H11.7387V25.9179C11.7387 24.7732 12.5976 23.8247 13.7076 23.6773L14.5779 25.7215C14.6139 25.806 14.674 25.8781 14.7507 25.9288C14.8273 25.9795 14.9172 26.0065 15.0091 26.0065H15.0108C15.1029 26.0061 15.193 25.9786 15.2696 25.9274C15.3462 25.8762 15.406 25.8035 15.4415 25.7184L16.2942 23.6775C17.403 23.8259 18.2608 24.7739 18.2608 25.9176V27.4219C18.2608 27.5462 18.3102 27.6654 18.3981 27.7533C18.486 27.8412 18.6053 27.8906 18.7296 27.8906C18.8539 27.8906 18.9731 27.8412 19.0611 27.7533C19.149 27.6654 19.1983 27.5462 19.1983 27.4219V25.9179C19.1988 24.1547 17.7595 22.7201 15.9909 22.7201ZM21.9567 19.4475H20.6374C19.3732 19.4475 18.3448 20.4729 18.3448 21.7334C18.3448 21.8577 18.3941 21.9769 18.482 22.0648C18.57 22.1527 18.6892 22.2021 18.8135 22.2021C18.9378 22.2021 19.0571 22.1527 19.145 22.0648C19.2329 21.9769 19.2823 21.8577 19.2823 21.7334C19.2823 20.9899 19.8902 20.385 20.6374 20.385H21.9567C22.2326 20.3851 22.5019 20.4693 22.7287 20.6265C22.9555 20.7837 23.1289 21.0063 23.2258 21.2646H21.1631C21.0388 21.2646 20.9196 21.314 20.8317 21.4019C20.7437 21.4898 20.6944 21.609 20.6944 21.7334C20.6944 21.8577 20.7437 21.9769 20.8317 22.0648C20.9196 22.1527 21.0388 22.2021 21.1631 22.2021H23.7808C23.9052 22.2021 24.0244 22.1527 24.1123 22.0648C24.2002 21.9769 24.2496 21.8577 24.2496 21.7334C24.2494 20.4729 23.2209 19.4475 21.9567 19.4475ZM11.6552 21.7334C11.6552 20.4729 10.6268 19.4475 9.36256 19.4475H8.04327C6.77905 19.4475 5.75061 20.4729 5.75061 21.7334C5.75061 21.8577 5.8 21.9769 5.8879 22.0648C5.97581 22.1527 6.09504 22.2021 6.21936 22.2021C6.34368 22.2021 6.46291 22.1527 6.55082 22.0648C6.63872 21.9769 6.68811 21.8577 6.68811 21.7334C6.68811 20.9899 7.29608 20.385 8.04327 20.385H9.36256C9.63872 20.3849 9.90834 20.469 10.1354 20.6262C10.3625 20.7834 10.5362 21.0061 10.6333 21.2646H8.56874C8.44442 21.2646 8.32519 21.314 8.23728 21.4019C8.14937 21.4898 8.09999 21.609 8.09999 21.7334C8.09999 21.8577 8.14937 21.9769 8.23728 22.0648C8.32519 22.1527 8.44442 22.2021 8.56874 22.2021H11.1865C11.3108 22.2021 11.43 22.1527 11.5179 22.0648C11.6058 21.9769 11.6552 21.8577 11.6552 21.7334ZM12.637 19.8462C12.637 21.1451 13.6969 22.2019 15 22.2019C16.3031 22.2019 17.363 21.1451 17.363 19.8462C17.363 18.5473 16.3029 17.4902 15 17.4902C13.6971 17.4902 12.637 18.5473 12.637 19.8462ZM16.4255 19.8462C16.4255 20.6283 15.7861 21.2644 15 21.2644C14.2139 21.2644 13.5745 20.6283 13.5745 19.8462C13.5745 19.0641 14.2139 18.4277 15 18.4277C15.7861 18.4277 16.4255 19.0641 16.4255 19.8462ZM19.567 17.2678C19.567 18.2191 20.343 18.993 21.2969 18.993C22.2508 18.993 23.0269 18.2191 23.0269 17.2678C23.0269 16.3165 22.2508 15.5426 21.2969 15.5426C20.343 15.5426 19.567 16.3165 19.567 17.2678ZM22.0896 17.2678C22.0896 17.7021 21.734 18.0555 21.2972 18.0555C20.8603 18.0555 20.5048 17.7021 20.5048 17.2678C20.5048 16.8333 20.8603 16.4801 21.2972 16.4801C21.734 16.4801 22.0896 16.8335 22.0896 17.2678ZM8.7028 18.993C9.6567 18.993 10.4327 18.2191 10.4327 17.2678C10.4327 16.3165 9.6567 15.5426 8.7028 15.5426C7.74889 15.5426 6.97288 16.3165 6.97288 17.2678C6.97288 18.2191 7.74913 18.993 8.7028 18.993ZM8.7028 16.4801C9.13967 16.4801 9.49522 16.8335 9.49522 17.2678C9.49522 17.7021 9.13967 18.0555 8.7028 18.0555C8.26592 18.0555 7.91038 17.7021 7.91038 17.2678C7.91038 16.8335 8.26592 16.4801 8.7028 16.4801Z" fill="#2E2E2E"/>
<path d="M8.85116 11.3822C9.18609 12.1745 9.67154 12.8944 10.2806 13.5019C10.8997 14.1226 11.6353 14.6148 12.4452 14.9502C13.2551 15.2857 14.1234 15.4578 15 15.4566C15.8925 15.4582 16.7761 15.2798 17.598 14.932C18.3911 14.5971 19.1115 14.1114 19.7194 13.5019C20.3288 12.894 20.8145 12.1737 21.1495 11.3808C21.4974 10.559 21.6759 9.6754 21.6743 8.78297C21.6743 7.88297 21.498 7.00969 21.1505 6.18727L21.1491 6.18352C20.8141 5.39117 20.3287 4.67131 19.7196 4.06383C19.1004 3.4433 18.3647 2.9512 17.5548 2.6158C16.7448 2.2804 15.8766 2.10829 15 2.10938C14.0991 2.10938 13.2248 2.28586 12.4019 2.63415C11.609 2.96904 10.8885 3.45466 10.2806 4.06407C9.66 4.68309 9.16781 5.41865 8.83232 6.22847C8.49683 7.03829 8.32466 7.90641 8.32569 8.78297C8.32407 9.67592 8.5028 10.56 8.85116 11.3822ZM10.9434 12.8388C10.595 12.4886 10.2933 12.0947 10.046 11.667H11.9051C11.9583 11.8165 12.0145 11.9653 12.0762 12.1111C12.1793 12.3551 12.296 12.5974 12.4233 12.8316C12.4527 12.8857 12.4924 12.9334 12.5402 12.9722C12.5881 13.0109 12.6431 13.0398 12.7021 13.0573C12.7611 13.0748 12.823 13.0805 12.8842 13.074C12.9455 13.0676 13.0048 13.0491 13.0589 13.0198C13.113 12.9904 13.1608 12.9506 13.1995 12.9028C13.2382 12.855 13.2672 12.8 13.2846 12.7409C13.3021 12.6819 13.3078 12.62 13.3014 12.5588C13.2949 12.4976 13.2765 12.4382 13.2471 12.3841C13.1344 12.1765 13.0318 11.9635 12.9396 11.7459C12.9286 11.7202 12.9192 11.6932 12.9087 11.6672H17.0023C16.9294 11.8284 16.8523 11.9883 16.7681 12.1432C16.432 12.7617 16.0085 13.3284 15.5105 13.8258C15.388 13.948 15.2614 14.066 15.1308 14.1795C15.0005 14.2929 14.8661 14.4015 14.7279 14.505C14.7251 14.5071 14.723 14.5099 14.7201 14.5123C14.0481 14.4812 13.3869 14.331 12.7673 14.0686C12.0855 13.7805 11.4661 13.3629 10.9434 12.8388ZM12.5144 10.3758C12.4153 9.89128 12.3656 9.39798 12.3661 8.90344C12.3658 8.40891 12.4155 7.91562 12.5144 7.4311C12.5552 7.23141 12.6068 7.03243 12.6647 6.83625H17.419C17.5104 7.19038 17.5748 7.55095 17.6116 7.91485C17.6619 8.41178 17.6619 8.91252 17.6116 9.40946C17.587 9.65282 17.55 9.89477 17.5008 10.1344C17.4591 10.3347 17.4091 10.5331 17.3508 10.7292H12.596C12.5658 10.612 12.5386 10.4939 12.5144 10.3758ZM20.2863 11.0156C19.9983 11.6973 19.5807 12.3166 19.0566 12.8391C18.5339 13.3631 17.9146 13.7806 17.2329 14.0686C16.9257 14.198 16.6078 14.3002 16.2827 14.3738C16.4292 14.2225 16.5699 14.0659 16.7046 13.9041C17.0416 13.4956 17.3387 13.0558 17.5917 12.5906C17.7191 12.3563 17.8349 12.1158 17.9388 11.8702C17.9672 11.8034 17.9923 11.7349 18.019 11.667H18.6696C18.7939 11.667 18.9131 11.6176 19.0011 11.5297C19.089 11.4418 19.1384 11.3225 19.1384 11.1982C19.1384 11.0739 19.089 10.9547 19.0011 10.8668C18.9131 10.7788 18.7939 10.7295 18.6696 10.7295H18.3248C18.429 10.3273 18.5023 9.91772 18.5442 9.50438C18.6006 8.94462 18.6006 8.38062 18.5442 7.82086C18.5163 7.54621 18.4746 7.27313 18.4193 7.00266C18.408 6.94735 18.3935 6.89204 18.3811 6.83672H20.3981C20.6234 7.46091 20.7381 8.11961 20.737 8.78321C20.7383 9.55007 20.585 10.3093 20.2863 11.0156ZM19.0566 4.72688C19.405 5.07727 19.7066 5.47124 19.954 5.89899H18.1099C18.0572 5.74929 18 5.60118 17.9386 5.45485C17.8347 5.20919 17.7188 4.96875 17.5915 4.73438C17.5626 4.67932 17.5231 4.63055 17.4752 4.59091C17.4274 4.55127 17.3721 4.52154 17.3126 4.50346C17.2531 4.48538 17.1907 4.47931 17.1288 4.4856C17.067 4.49189 17.007 4.51041 16.9524 4.5401C16.8978 4.56978 16.8496 4.61003 16.8107 4.6585C16.7718 4.70697 16.7429 4.7627 16.7258 4.82244C16.7086 4.88217 16.7035 4.94473 16.7107 5.00647C16.7179 5.0682 16.7374 5.12788 16.7679 5.18204C16.8804 5.38899 16.9837 5.60368 17.0754 5.82024C17.0864 5.84626 17.0958 5.87297 17.1063 5.89899H13.013C13.0859 5.73797 13.1627 5.57813 13.2471 5.42321C13.7477 4.50185 14.4403 3.69868 15.278 3.06797C15.2834 3.06376 15.2876 3.0586 15.2927 3.05438C16.7116 3.12484 18.0533 3.72107 19.0566 4.72688ZM9.71366 6.55032C10.0026 5.86711 10.4166 5.25375 10.9434 4.72688C11.4703 4.2 12.0839 3.78633 12.7671 3.49735C13.0803 3.36539 13.4047 3.26177 13.7365 3.18774C13.5883 3.34022 13.4461 3.49838 13.3101 3.66188C12.9733 4.07045 12.6763 4.51035 12.4233 4.97555C12.296 5.20997 12.1802 5.4504 12.0762 5.69602C12.0478 5.76282 12.0227 5.83126 11.9962 5.89899H11.3306C11.2063 5.89899 11.0871 5.94838 10.9992 6.03628C10.9113 6.12419 10.8619 6.24342 10.8619 6.36774C10.8619 6.49206 10.9113 6.61129 10.9992 6.6992C11.0871 6.7871 11.2063 6.83649 11.3306 6.83649H11.6904C11.4458 7.78549 11.3715 8.77037 11.471 9.74532C11.4989 10.0193 11.5409 10.2945 11.5959 10.5635C11.6072 10.6188 11.6217 10.6739 11.6341 10.7295H9.6021C9.37678 10.1053 9.26209 9.44657 9.26319 8.78297C9.26319 8.00836 9.41484 7.25719 9.71366 6.55032Z" fill="#622DFA"/>
</svg>
