<svg width="80" height="80" viewBox="0 0 80 80" fill="none" xmlns="http://www.w3.org/2000/svg">
<path d="M61.5496 23.6V22.8C61.5496 20.16 59.3896 18 56.7496 18H51.3496C48.7096 18 46.5496 20.16 46.5496 22.8V23.6H61.5496Z" fill="#A4ABB1"/>
<path d="M66.4 23.6H36.8V68.4H71.2V28.4C71.2 25.76 69.04 23.6 66.4 23.6Z" fill="#DADEE0"/>
<path d="M36.8336 23.6H36.8V68.4H71.2V57.9008L36.8336 23.6Z" fill="#C7CED2"/>
<path d="M74 68.4H5.99999C5.68173 68.4 5.3765 68.5264 5.15146 68.7515C4.92642 68.9765 4.79999 69.2817 4.79999 69.6C4.79999 69.9183 4.92642 70.2235 5.15146 70.4485C5.3765 70.6736 5.68173 70.8 5.99999 70.8H74C74.3182 70.8 74.6235 70.6736 74.8485 70.4485C75.0736 70.2235 75.2 69.9183 75.2 69.6C75.2 69.2817 75.0736 68.9765 74.8485 68.7515C74.6235 68.5264 74.3182 68.4 74 68.4Z" fill="#7D8790"/>
<path d="M36.8 68.4V14C36.8 11.36 34.64 9.20001 32 9.20001H13.6C10.96 9.20001 8.79999 11.36 8.79999 14V68.4H36.8Z" fill="#1BB7EA"/>
<path d="M16.8 60H28.8C29.1182 60 29.4235 59.8736 29.6485 59.6485C29.8735 59.4235 30 59.1183 30 58.8C30 58.4817 29.8735 58.1765 29.6485 57.9515C29.4235 57.7264 29.1182 57.6 28.8 57.6H16.8C16.4817 57.6 16.1765 57.7264 15.9514 57.9515C15.7264 58.1765 15.6 58.4817 15.6 58.8C15.6 59.1183 15.7264 59.4235 15.9514 59.6485C16.1765 59.8736 16.4817 60 16.8 60ZM16.8 52H28.8C29.1182 52 29.4235 51.8736 29.6485 51.6485C29.8735 51.4235 30 51.1183 30 50.8C30 50.4817 29.8735 50.1765 29.6485 49.9515C29.4235 49.7264 29.1182 49.6 28.8 49.6H16.8C16.4817 49.6 16.1765 49.7264 15.9514 49.9515C15.7264 50.1765 15.6 50.4817 15.6 50.8C15.6 51.1183 15.7264 51.4235 15.9514 51.6485C16.1765 51.8736 16.4817 52 16.8 52ZM16.8 44H28.8C29.1182 44 29.4235 43.8736 29.6485 43.6485C29.8735 43.4235 30 43.1183 30 42.8C30 42.4817 29.8735 42.1765 29.6485 41.9515C29.4235 41.7264 29.1182 41.6 28.8 41.6H16.8C16.4817 41.6 16.1765 41.7264 15.9514 41.9515C15.7264 42.1765 15.6 42.4817 15.6 42.8C15.6 43.1183 15.7264 43.4235 15.9514 43.6485C16.1765 43.8736 16.4817 44 16.8 44ZM16.8 36H28.8C29.1182 36 29.4235 35.8736 29.6485 35.6485C29.8735 35.4235 30 35.1183 30 34.8C30 34.4817 29.8735 34.1765 29.6485 33.9515C29.4235 33.7264 29.1182 33.6 28.8 33.6H16.8C16.4817 33.6 16.1765 33.7264 15.9514 33.9515C15.7264 34.1765 15.6 34.4817 15.6 34.8C15.6 35.1183 15.7264 35.4235 15.9514 35.6485C16.1765 35.8736 16.4817 36 16.8 36ZM16.8 28H28.8C29.1182 28 29.4235 27.8736 29.6485 27.6485C29.8735 27.4235 30 27.1183 30 26.8C30 26.4817 29.8735 26.1765 29.6485 25.9515C29.4235 25.7264 29.1182 25.6 28.8 25.6H16.8C16.4817 25.6 16.1765 25.7264 15.9514 25.9515C15.7264 26.1765 15.6 26.4817 15.6 26.8C15.6 27.1183 15.7264 27.4235 15.9514 27.6485C16.1765 27.8736 16.4817 28 16.8 28ZM16.8 20H28.8C28.9576 20 29.1136 19.969 29.2592 19.9087C29.4048 19.8484 29.5371 19.76 29.6485 19.6485C29.7599 19.5371 29.8483 19.4048 29.9086 19.2592C29.9689 19.1136 30 18.9576 30 18.8C30 18.6424 29.9689 18.4864 29.9086 18.3408C29.8483 18.1952 29.7599 18.0629 29.6485 17.9515C29.5371 17.84 29.4048 17.7517 29.2592 17.6914C29.1136 17.631 28.9576 17.6 28.8 17.6H16.8C16.6424 17.6 16.4863 17.631 16.3408 17.6914C16.1952 17.7517 16.0629 17.84 15.9514 17.9515C15.84 18.0629 15.7516 18.1952 15.6913 18.3408C15.631 18.4864 15.6 18.6424 15.6 18.8C15.6 18.9576 15.631 19.1136 15.6913 19.2592C15.7516 19.4048 15.84 19.5371 15.9514 19.6485C16.0629 19.76 16.1952 19.8484 16.3408 19.9087C16.4863 19.969 16.6424 20 16.8 20ZM43.2 60H48.8C49.1182 60 49.4235 59.8736 49.6485 59.6485C49.8735 59.4235 50 59.1183 50 58.8C50 58.4817 49.8735 58.1765 49.6485 57.9515C49.4235 57.7264 49.1182 57.6 48.8 57.6H43.2C42.8817 57.6 42.5765 57.7264 42.3514 57.9515C42.1264 58.1765 42 58.4817 42 58.8C42 59.1183 42.1264 59.4235 42.3514 59.6485C42.5765 59.8736 42.8817 60 43.2 60ZM43.2 52H48.8C49.1182 52 49.4235 51.8736 49.6485 51.6485C49.8735 51.4235 50 51.1183 50 50.8C50 50.4817 49.8735 50.1765 49.6485 49.9515C49.4235 49.7264 49.1182 49.6 48.8 49.6H43.2C42.8817 49.6 42.5765 49.7264 42.3514 49.9515C42.1264 50.1765 42 50.4817 42 50.8C42 51.1183 42.1264 51.4235 42.3514 51.6485C42.5765 51.8736 42.8817 52 43.2 52ZM43.2 44H48.8C49.1182 44 49.4235 43.8736 49.6485 43.6485C49.8735 43.4235 50 43.1183 50 42.8C50 42.4817 49.8735 42.1765 49.6485 41.9515C49.4235 41.7264 49.1182 41.6 48.8 41.6H43.2C42.8817 41.6 42.5765 41.7264 42.3514 41.9515C42.1264 42.1765 42 42.4817 42 42.8C42 43.1183 42.1264 43.4235 42.3514 43.6485C42.5765 43.8736 42.8817 44 43.2 44ZM43.2 36H48.8C49.1182 36 49.4235 35.8736 49.6485 35.6485C49.8735 35.4235 50 35.1183 50 34.8C50 34.4817 49.8735 34.1765 49.6485 33.9515C49.4235 33.7264 49.1182 33.6 48.8 33.6H43.2C42.8817 33.6 42.5765 33.7264 42.3514 33.9515C42.1264 34.1765 42 34.4817 42 34.8C42 35.1183 42.1264 35.4235 42.3514 35.6485C42.5765 35.8736 42.8817 36 43.2 36ZM56 60H61.6C61.9182 60 62.2235 59.8736 62.4485 59.6485C62.6735 59.4235 62.8 59.1183 62.8 58.8C62.8 58.4817 62.6735 58.1765 62.4485 57.9515C62.2235 57.7264 61.9182 57.6 61.6 57.6H56C55.6817 57.6 55.3765 57.7264 55.1514 57.9515C54.9264 58.1765 54.8 58.4817 54.8 58.8C54.8 59.1183 54.9264 59.4235 55.1514 59.6485C55.3765 59.8736 55.6817 60 56 60ZM56 52H61.6C61.9182 52 62.2235 51.8736 62.4485 51.6485C62.6735 51.4235 62.8 51.1183 62.8 50.8C62.8 50.4817 62.6735 50.1765 62.4485 49.9515C62.2235 49.7264 61.9182 49.6 61.6 49.6H56C55.6817 49.6 55.3765 49.7264 55.1514 49.9515C54.9264 50.1765 54.8 50.4817 54.8 50.8C54.8 51.1183 54.9264 51.4235 55.1514 51.6485C55.3765 51.8736 55.6817 52 56 52ZM56 44H61.6C61.9182 44 62.2235 43.8736 62.4485 43.6485C62.6735 43.4235 62.8 43.1183 62.8 42.8C62.8 42.4817 62.6735 42.1765 62.4485 41.9515C62.2235 41.7264 61.9182 41.6 61.6 41.6H56C55.6817 41.6 55.3765 41.7264 55.1514 41.9515C54.9264 42.1765 54.8 42.4817 54.8 42.8C54.8 43.1183 54.9264 43.4235 55.1514 43.6485C55.3765 43.8736 55.6817 44 56 44ZM56 36H61.6C61.9182 36 62.2235 35.8736 62.4485 35.6485C62.6735 35.4235 62.8 35.1183 62.8 34.8C62.8 34.4817 62.6735 34.1765 62.4485 33.9515C62.2235 33.7264 61.9182 33.6 61.6 33.6H56C55.6817 33.6 55.3765 33.7264 55.1514 33.9515C54.9264 34.1765 54.8 34.4817 54.8 34.8C54.8 35.1183 54.9264 35.4235 55.1514 35.6485C55.3765 35.8736 55.6817 36 56 36Z" fill="#1F4254"/>
</svg>
