<svg width="225" height="110" viewBox="0 0 225 110" fill="none" xmlns="http://www.w3.org/2000/svg">
<path d="M149.563 61.1813C150.145 61.1976 150.726 61.0978 151.269 60.8879C151.813 60.678 152.31 60.3622 152.731 59.9587L154.301 61.6667C153.264 62.7333 151.825 63.5267 149.589 63.5267C145.756 63.5267 143.28 60.9853 143.28 57.5427C143.266 56.754 143.41 55.9704 143.704 55.2384C143.998 54.5064 144.436 53.8409 144.992 53.2814C145.548 52.7219 146.211 52.2797 146.941 51.981C147.671 51.6823 148.454 51.5333 149.243 51.5427C153.049 51.5427 155.208 54.44 155.019 58.456H146.019C146.339 60.1227 147.508 61.1893 149.559 61.1893M152.301 56.5413C152.056 54.9813 151.128 53.8347 149.265 53.8347C147.536 53.8347 146.329 54.8133 146.019 56.5413H152.301ZM90.4747 61.0573L97.4013 54.0213H90.6413V51.8H100.615V54.0667L93.688 61.1H100.707V63.3093H90.4773L90.4747 61.0573ZM108.481 61.1827C109.064 61.1989 109.644 61.0992 110.188 60.8893C110.732 60.6794 111.229 60.3635 111.649 59.96L113.223 61.6667C112.185 62.7333 110.747 63.5267 108.511 63.5267C104.677 63.5267 102.201 60.9853 102.201 57.5427C102.187 56.754 102.331 55.9704 102.625 55.2384C102.919 54.5064 103.357 53.8409 103.913 53.2814C104.47 52.7219 105.132 52.2797 105.862 51.981C106.593 51.6823 107.375 51.5333 108.164 51.5427C111.971 51.5427 114.129 54.44 113.94 58.456H104.94C105.26 60.1227 106.429 61.1893 108.48 61.1893M111.223 56.5413C110.979 54.9813 110.049 53.8347 108.187 53.8347C106.457 53.8347 105.251 54.8133 104.94 56.5413H111.223ZM128.892 57.528C128.892 53.8587 131.639 51.548 134.665 51.548C135.392 51.5383 136.111 51.6877 136.773 51.9858C137.436 52.2838 138.024 52.7233 138.499 53.2733V46.4933H140.945V63.2933H138.499V61.6933C138.033 62.2658 137.445 62.7262 136.778 63.0406C136.11 63.3549 135.38 63.5151 134.643 63.5093C131.707 63.5093 128.893 61.1893 128.893 57.532M138.636 57.5107C138.549 54.284 134.636 52.7507 132.369 55.0627C130.103 57.3747 131.756 61.26 134.987 61.2587C137.088 61.2587 138.635 59.5787 138.635 57.5253M156.612 60.8587L158.828 59.7093C159.425 60.776 160.561 61.42 161.784 61.3893C163.171 61.3893 163.885 60.6773 163.885 59.872C163.885 58.9387 162.547 58.744 161.092 58.4453C159.135 58.0453 157.097 57.3853 157.097 55.0187C157.097 53.2013 158.827 51.5227 161.551 51.5467C163.684 51.5467 165.292 52.4 166.199 53.776L164.145 54.904C163.861 54.4836 163.475 54.1425 163.022 53.9129C162.569 53.6834 162.066 53.5729 161.559 53.592C160.243 53.592 159.559 54.236 159.559 54.972C159.559 55.7987 160.62 56.0293 162.284 56.3987C164.177 56.7987 166.324 57.4333 166.324 59.8253C166.324 61.4253 164.937 63.5493 161.661 63.5267C159.261 63.5267 157.576 62.56 156.604 60.86M172.967 58.1933L171.027 60.3093V63.296H168.58V46.496H171.027V57.488L176.221 51.7853H179.201L174.697 56.7187L179.316 63.2947H176.547L172.967 58.1933ZM121.484 51.5667C118.575 51.5667 116.151 53.4533 116.151 56.58V63.296H118.644V56.8667C118.644 54.98 119.728 53.8533 121.58 53.8533C123.432 53.8533 124.353 54.9813 124.353 56.8667V63.272H126.833V56.556C126.833 53.4293 124.387 51.5427 121.5 51.5427M62.5867 48.0667V69.6933H44.6733L62.5867 48.0667ZM62.5867 40.304C62.587 42.6799 61.6437 44.9586 59.9642 46.6391C58.2847 48.3196 56.0066 49.2643 53.6307 49.2653C51.2548 49.2643 48.9766 48.3196 47.2971 46.6391C45.6176 44.9586 44.6743 42.6799 44.6747 40.304H62.5867ZM65.5373 69.6907C65.5384 67.3157 66.4823 65.0383 68.1617 63.359C69.841 61.6797 72.1184 60.7357 74.4933 60.7347C76.8683 60.7357 79.1457 61.6797 80.825 63.359C82.5044 65.0383 83.4483 67.3157 83.4493 69.6907H65.5373ZM65.5373 61.928V40.3067H83.4507L65.5373 61.928Z" fill="#03363D"/>
</svg>
