<svg width="225" height="110" viewBox="0 0 225 110" fill="none" xmlns="http://www.w3.org/2000/svg">
<g clip-path="url(#clip0_20_5008)">
<path d="M32.0192 40.7403H37.6328V53.2432H49.4723V40.7403H55.0931V71.4311H49.4723V58.6656H37.6328V71.4311H32.0192V40.7403ZM72.877 61.4346C72.877 64.0038 70.789 66.0945 68.2269 66.0945C65.6638 66.0945 63.5771 64.0038 63.5771 61.4346V48.2212H58.2534V61.4346C58.2534 66.9472 62.7277 71.4311 68.2269 71.4311C73.7248 71.4311 78.1988 66.9472 78.1988 61.4346V48.2212H72.877V61.4346ZM93.0605 48.376C90.4197 48.376 88.5764 49.1442 86.7963 50.896V40.7403H81.4553V59.5615C81.4553 66.6064 86.5362 71.4311 92.2445 71.4311C98.5905 71.4311 104.151 66.5203 104.151 59.9038C104.151 53.3712 99.0235 48.376 93.0605 48.376ZM93.1932 66.4778C89.5741 66.4778 86.8066 63.4477 86.8066 59.9038C86.8066 56.3593 89.5741 53.3283 93.1932 53.3283C96.2597 53.3283 99.0288 56.3593 99.0288 59.9038C99.0288 63.4477 96.2597 66.4778 93.1932 66.4778ZM113.121 49.7249C113.121 47.0334 114.91 46.18 116.868 46.18C118.445 46.18 120.531 47.3754 121.893 48.8274L125.384 44.729C123.639 42.3811 120.105 40.7583 117.209 40.7583C111.417 40.7583 107.243 44.1313 107.243 49.7249C107.243 60.0993 119.977 56.8107 119.977 62.6187C119.977 64.4098 118.232 65.9911 116.231 65.9911C113.079 65.9911 112.056 64.454 110.609 62.8311L106.732 66.8438C109.204 69.8754 112.269 71.4131 115.932 71.4131C121.426 71.4131 125.855 67.9975 125.855 62.6599C125.855 51.133 113.121 54.7198 113.121 49.7249ZM139.916 48.0752C134.208 48.0752 129.126 52.8971 129.126 59.9436V78.8133H134.467V68.6094C136.247 70.3599 138.09 71.1294 140.732 71.1294C146.694 71.1294 151.822 66.1348 151.822 59.6022C151.822 52.9847 146.26 48.0752 139.916 48.0752ZM140.865 66.1777C137.246 66.1777 134.478 63.1435 134.478 59.6022C134.478 56.0576 137.246 53.0266 140.865 53.0266C143.931 53.0266 146.7 56.0576 146.7 59.6022C146.7 63.1435 143.931 66.1777 140.865 66.1777ZM191.135 66.4778C187.985 66.4778 187.091 65.1122 187.091 63.0193V53.7551H191.987V49.0594H187.091V42.8681L181.684 45.3011V64.1721C181.684 68.9972 185.004 71.4311 189.559 71.4311C190.241 71.4311 191.179 71.387 191.69 71.2605L193.011 66.3939C192.414 66.4352 191.733 66.4778 191.135 66.4778Z" fill="#45535E"/>
<path d="M177.05 54.0282C176.026 52.2622 174.586 50.8465 172.786 49.7807C171.44 48.9954 170.045 48.497 168.473 48.283V42.6718C170.045 42.0025 171.021 40.5212 171.021 38.7931C171.021 36.4376 169.136 34.5289 166.789 34.5289C164.439 34.5289 162.522 36.4376 162.522 38.7931C162.522 40.5212 163.441 42.0025 165.014 42.6718V48.2855C163.756 48.4677 162.451 48.8608 161.26 49.4648C158.827 47.6125 150.85 41.5356 146.183 37.9864C146.294 37.5864 146.379 37.174 146.379 36.739C146.379 34.1301 144.271 32.0155 141.668 32.0155C139.065 32.0155 136.958 34.1301 136.958 36.739C136.958 39.3476 139.067 41.4628 141.67 41.4628C142.558 41.4628 143.38 41.2024 144.088 40.7743L145.073 41.5234L158.606 51.2982C157.891 51.9567 157.224 52.7057 156.691 53.5462C155.611 55.2595 154.951 57.1446 154.951 59.2009V59.6299C154.951 61.0734 155.225 62.4361 155.691 63.7163C156.101 64.8341 156.701 65.8505 157.444 66.7694L152.953 71.2829C152.302 71.0401 151.595 70.9902 150.917 71.1394C150.238 71.2885 149.617 71.6303 149.127 72.124C148.788 72.4623 148.519 72.8647 148.336 73.3078C148.153 73.751 148.06 74.2262 148.062 74.7058C148.062 75.6808 148.441 76.5972 149.129 77.2866C149.466 77.6268 149.867 77.8966 150.309 78.0802C150.751 78.2639 151.225 78.3578 151.704 78.3565C152.182 78.3578 152.656 78.2638 153.099 78.0802C153.541 77.8965 153.942 77.6268 154.279 77.2866C154.618 76.9483 154.887 76.5461 155.07 76.1031C155.253 75.6601 155.347 75.1852 155.345 74.7058C155.345 74.3284 155.287 73.9602 155.178 73.6103L159.82 68.9559C160.457 69.3966 161.144 69.7676 161.883 70.0876C163.34 70.7193 164.949 71.1042 166.71 71.1042H167.032C168.979 71.1042 170.815 70.6458 172.541 69.7083C174.36 68.7175 175.783 67.3627 176.859 65.633C177.94 63.8985 178.535 61.9822 178.535 59.8739V59.7686C178.535 57.6947 178.056 55.7812 177.05 54.0282ZM171.378 63.792C170.118 65.1957 168.67 66.0604 167.032 66.0604H166.763C165.827 66.0604 164.913 65.8013 164.017 65.33C163.008 64.8111 162.24 64.071 161.613 63.1338C160.963 62.2139 160.611 61.2096 160.611 60.1447V59.8213C160.611 58.7744 160.812 57.7817 161.317 56.8442C161.857 55.8193 162.586 55.0224 163.556 54.3888C164.508 53.7596 165.525 53.451 166.657 53.451H166.763C167.79 53.451 168.762 53.654 169.679 54.1246C170.614 54.6265 171.378 55.3121 171.97 56.214C172.545 57.1162 172.888 58.0893 172.998 59.1495C173.015 59.3698 173.024 59.5955 173.024 59.8112C173.024 61.2499 172.475 62.5824 171.378 63.792Z" fill="#F8761F"/>
</g>
<defs>
<clipPath id="clip0_20_5008">
<rect width="161" height="47" fill="white" transform="translate(32 32)"/>
</clipPath>
</defs>
</svg>
