<svg width="225" height="110" viewBox="0 0 225 110" fill="none" xmlns="http://www.w3.org/2000/svg">
<g clip-path="url(#clip0_20_4993)">
<path d="M47.4464 59.9118C47.4464 61.5021 47.8003 62.7231 48.2629 63.4618C48.8695 64.4293 49.7742 64.8392 50.6965 64.8392C51.8862 64.8392 52.9745 64.5481 55.0717 61.6875C56.7519 59.3947 58.7317 56.1764 60.0638 54.1588L62.3197 50.7406C63.8868 48.3667 65.7006 45.7277 67.7802 43.9389C69.478 42.4789 71.3095 41.6678 73.1526 41.6678C76.2472 41.6678 79.1948 43.4363 81.4507 46.7532C83.9195 50.3857 85.118 54.9612 85.118 59.683C85.118 62.4899 84.5569 64.5525 83.6023 66.1819C82.68 67.7578 80.8823 69.3322 77.8583 69.3322V64.8392C80.4476 64.8392 81.0938 62.4928 81.0938 59.8075C81.0938 55.9809 80.1891 51.7342 78.1961 48.6998C76.7818 46.5475 74.9488 45.2323 72.9323 45.2323C70.7514 45.2323 68.9963 46.8545 67.0239 49.747C65.9752 51.2837 64.8987 53.1565 63.69 55.2697L62.3593 57.5944C59.6863 62.2683 59.0093 63.3329 57.6728 65.0898C55.3302 68.1662 53.3299 69.3322 50.6965 69.3322C47.5727 69.3322 45.5973 67.9982 44.3739 65.9878C43.3752 64.3497 42.8846 62.2003 42.8846 59.751L47.4464 59.9118Z" fill="#0081FB"/>
<path d="M46.4814 47.0704C48.5728 43.8911 51.591 41.6678 55.0527 41.6678C57.0574 41.6678 59.0504 42.253 61.1315 43.9288C63.408 45.761 65.8342 48.778 68.8612 53.7503L69.9465 55.5348C72.5667 59.8394 74.0574 62.054 74.9298 63.0983C76.0518 64.4395 76.8376 64.8392 77.8583 64.8392C80.4476 64.8392 81.0938 62.4928 81.0938 59.8075L85.118 59.683C85.118 62.4899 84.5569 64.5525 83.6023 66.1819C82.68 67.7578 80.8823 69.3322 77.8583 69.3322C75.9784 69.3322 74.3129 68.9295 72.4712 67.2161C71.0554 65.9009 69.4002 63.5647 68.1268 61.4645L64.3391 55.2248C62.4386 52.0934 60.6953 49.7586 59.6863 48.7012C58.601 47.5643 57.2057 46.1912 54.9792 46.1912C53.1772 46.1912 51.6468 47.4382 50.3661 49.3458L46.4814 47.0704Z" fill="url(#paint0_linear_20_4993)"/>
<path d="M54.9792 46.1912C53.1771 46.1912 51.6468 47.4382 50.3661 49.3458C48.5552 52.0412 47.4464 56.0562 47.4464 59.9118C47.4464 61.5021 47.8003 62.7231 48.2629 63.4618L44.3739 65.9878C43.3752 64.3497 42.8846 62.2003 42.8846 59.751C42.8846 55.2972 44.1242 50.6551 46.4814 47.0704C48.5728 43.8911 51.591 41.6678 55.0526 41.6678L54.9792 46.1912Z" fill="url(#paint1_linear_20_4993)"/>
<path d="M93.9858 42.5427H99.2628L108.235 58.5503L117.209 42.5427H122.371V68.8455H118.066V48.6867L110.197 62.6464H106.158L98.2905 48.6867V68.8455H93.9858V42.5427ZM135.859 52.3497C132.772 52.3497 130.913 54.6411 130.468 57.4785H140.945C140.729 54.5556 139.02 52.3497 135.859 52.3497ZM126.2 59.0949C126.2 53.1246 130.112 48.7794 135.934 48.7794C141.661 48.7794 145.08 53.0696 145.08 59.4135V60.5795H130.468C130.986 63.666 133.063 65.7459 136.412 65.7459C139.083 65.7459 140.753 64.9421 142.336 63.4719L144.623 66.234C142.468 68.1879 139.728 69.3148 136.259 69.3148C129.957 69.3148 126.2 64.7827 126.2 59.0949ZM150.299 52.7263H146.337V49.2502H150.299V43.5015H154.453V49.2502H160.473V52.7263H154.453V61.5369C154.453 64.5452 155.428 65.6141 157.825 65.6141C158.919 65.6141 159.546 65.5214 160.473 65.3693V68.8078C159.319 69.1294 158.217 69.2771 157.024 69.2771C152.541 69.2771 150.299 66.8612 150.299 62.025V52.7263ZM177.962 56.1069C177.128 54.0299 175.267 52.5004 172.532 52.5004C168.978 52.5004 166.703 54.9873 166.703 59.0384C166.703 62.9882 168.797 65.5953 172.362 65.5953C175.164 65.5953 177.164 63.9876 177.962 61.9873V56.1069ZM182.115 68.8455H178.038V66.1022C176.899 67.7172 174.825 69.3148 171.466 69.3148C166.064 69.3148 162.454 64.8552 162.454 59.0384C162.454 53.1666 166.151 48.7794 171.695 48.7794C174.436 48.7794 176.586 49.8599 178.038 51.7675V49.2502H182.115V68.8455Z" fill="#192830"/>
</g>
<defs>
<linearGradient id="paint0_linear_20_4993" x1="51.8436" y1="58.614" x2="80.9213" y2="60.1032" gradientUnits="userSpaceOnUse">
<stop stop-color="#0064E1"/>
<stop offset="0.4" stop-color="#0064E1"/>
<stop offset="0.83" stop-color="#0073EE"/>
<stop offset="1" stop-color="#0082FB"/>
</linearGradient>
<linearGradient id="paint1_linear_20_4993" x1="49.4937" y1="61.8005" x2="49.4937" y2="51.2272" gradientUnits="userSpaceOnUse">
<stop stop-color="#0082FB"/>
<stop offset="1" stop-color="#0064E0"/>
</linearGradient>
<clipPath id="clip0_20_4993">
<rect width="225" height="110" fill="white"/>
</clipPath>
</defs>
</svg>
