<svg width="225" height="110" viewBox="0 0 225 110" fill="none" xmlns="http://www.w3.org/2000/svg">
<path d="M192.831 59.5861C192.719 60.1523 192.526 60.6466 192.254 61.071C191.982 61.4949 191.615 61.8486 191.182 62.1037C190.742 62.3682 190.192 62.5009 189.535 62.5009C188.896 62.5009 188.352 62.3682 187.901 62.1037C187.45 61.8413 187.089 61.4957 186.816 61.071C186.545 60.6466 186.347 60.1523 186.224 59.5861C186.103 59.0196 186.041 58.4416 186.042 57.862C186.042 57.2563 186.099 56.6718 186.211 56.1072C186.324 55.5412 186.517 55.0417 186.789 54.6056C187.061 54.173 187.418 53.8196 187.859 53.5466C188.299 53.2732 188.849 53.1347 189.507 53.1347C190.145 53.1347 190.685 53.2732 191.126 53.5466C191.568 53.8196 191.929 54.1768 192.211 54.6206C192.493 55.0643 192.695 55.5695 192.817 56.1344C192.94 56.7019 193.001 57.2812 193 57.862C193 58.4449 192.943 59.0211 192.831 59.5861ZM196.605 54.9884C196.342 54.0369 195.939 53.2017 195.394 52.4848C194.849 51.7684 194.165 51.1924 193.338 50.7594C192.511 50.3247 191.524 50.1089 190.379 50.1089C189.479 50.1089 188.652 50.2872 187.901 50.6457C187.15 51.0045 186.53 51.5799 186.042 52.3719H185.987V50.5039H182.183V70.2529H186.182V63.3214H186.239C186.727 64.0389 187.353 64.5802 188.113 64.9469C188.873 65.3147 189.705 65.4997 190.606 65.4997C191.676 65.4997 192.61 65.2907 193.409 64.8767C194.206 64.4625 194.874 63.9051 195.408 63.207C195.944 62.5088 196.342 61.7081 196.605 60.8029C196.869 59.897 197 58.954 197 57.9736C197 56.9362 196.869 55.9419 196.605 54.9884ZM176.889 59.586C176.775 60.1521 176.582 60.6464 176.31 61.0708C176.038 61.4955 175.681 61.8412 175.238 62.1036C174.799 62.368 174.248 62.5008 173.592 62.5008C172.952 62.5008 172.41 62.368 171.959 62.1036C171.508 61.8412 171.147 61.4955 170.874 61.0708C170.602 60.6464 170.405 60.1521 170.282 59.586C170.16 59.0195 170.099 58.4414 170.1 57.8618C170.1 57.2561 170.155 56.6716 170.267 56.107C170.382 55.541 170.573 55.0416 170.846 54.6055C171.117 54.1728 171.475 53.8194 171.917 53.5465C172.358 53.273 172.905 53.1345 173.564 53.1345C174.201 53.1345 174.743 53.273 175.183 53.5465C175.622 53.8162 175.993 54.1837 176.268 54.6205C176.549 55.0642 176.751 55.5693 176.873 56.1342C176.996 56.7019 177.057 57.2811 177.056 57.8618C177.056 58.4407 177.001 59.0182 176.889 59.586ZM179.451 52.4846C178.907 51.7683 178.221 51.1923 177.394 50.7592C176.568 50.3245 175.583 50.1088 174.438 50.1088C173.535 50.1088 172.709 50.2871 171.959 50.6456C171.206 51.0044 170.588 51.5797 170.1 52.3717H170.043V50.5038H166.239V70.2529H170.241V63.3214H170.296C170.783 64.0389 171.409 64.5802 172.17 64.9469C172.929 65.3147 173.761 65.4997 174.662 65.4997C175.734 65.4997 176.667 65.2907 177.465 64.8767C178.263 64.4625 178.93 63.9051 179.465 63.207C180.001 62.5088 180.398 61.7081 180.663 60.8029C180.924 59.897 181.057 58.954 181.057 57.9736C181.057 56.9362 180.924 55.9417 180.663 54.9883C180.398 54.0368 179.995 53.2016 179.451 52.4846ZM153.142 57.3229L155.762 49.9098H155.818L158.353 57.3229H153.142ZM153.564 44.9305L145.96 65.1311H150.41L151.987 60.6325H159.509L161.028 65.1311H165.621L158.101 44.9307L153.564 44.9305ZM145.621 58.7233C145.361 58.2651 145.006 57.8691 144.579 57.5625C144.147 57.2524 143.653 57.0017 143.1 56.8123C142.54 56.6235 141.971 56.4636 141.395 56.3331C140.843 56.203 140.289 56.0801 139.734 55.9645C139.19 55.8507 138.705 55.7236 138.282 55.5829C137.86 55.4411 137.519 55.2584 137.255 55.0302C136.992 54.8045 136.862 54.5125 136.862 54.1537C136.862 53.8518 136.935 53.6116 137.086 53.432C137.235 53.2546 137.423 53.1141 137.636 53.0214C137.852 52.9278 138.09 52.8668 138.353 52.8376C138.597 52.811 138.841 52.7973 139.086 52.7965C139.8 52.7965 140.419 52.9329 140.946 53.2061C141.471 53.4796 141.763 54.0032 141.818 54.776H145.621C145.546 53.8713 145.316 53.1219 144.931 52.526C144.546 51.9328 144.062 51.4563 143.48 51.0984C142.899 50.7399 142.237 50.4858 141.494 50.3345C140.752 50.1834 139.987 50.1088 139.2 50.1088C138.41 50.1088 137.639 50.1796 136.89 50.3195C136.137 50.4617 135.462 50.708 134.861 51.056C134.26 51.4049 133.777 51.8803 133.41 52.4846C133.043 53.0879 132.86 53.8623 132.86 54.8045C132.86 55.4457 132.993 55.9891 133.256 56.4319C133.517 56.8757 133.866 57.2419 134.296 57.5347C134.729 57.8271 135.223 58.0637 135.776 58.2415C136.337 58.4235 136.905 58.5797 137.479 58.7097C138.908 59.0119 140.021 59.3125 140.819 59.6154C141.617 59.9166 142.016 60.369 142.016 60.9733C142.016 61.3316 141.932 61.627 141.763 61.8632C141.596 62.097 141.38 62.2905 141.129 62.4293C140.874 62.5714 140.592 62.6757 140.284 62.7402C139.974 62.8068 139.677 62.8401 139.396 62.8401C139.001 62.8401 138.621 62.7924 138.256 62.6985C137.889 62.604 137.565 62.4576 137.284 62.2594C137.002 62.0618 136.771 61.8077 136.593 61.4955C136.416 61.1841 136.325 60.8132 136.325 60.378H132.522C132.561 61.3589 132.781 62.1752 133.186 62.8256C133.588 63.4763 134.104 63.9992 134.734 64.3961C135.363 64.7914 136.082 65.0751 136.89 65.2453C137.705 65.4156 138.535 65.5009 139.367 65.4998C140.185 65.5001 141.002 65.4197 141.804 65.2599C142.602 65.0991 143.311 64.8206 143.931 64.4237C144.552 64.0286 145.052 63.5053 145.438 62.854C145.822 62.2024 146.015 61.3962 146.015 60.4341C146.015 59.7541 145.883 59.1853 145.621 58.7233ZM129.087 46.1193H125.086V50.5039H122.665V53.1913H125.086V61.8211C125.086 62.5577 125.21 63.151 125.453 63.6034C125.697 64.0555 126.03 64.4065 126.453 64.651C126.875 64.8963 127.364 65.0607 127.918 65.1456C128.47 65.2299 129.06 65.2727 129.678 65.2727C130.074 65.2727 130.476 65.2626 130.89 65.2455C131.302 65.2261 131.678 65.1894 132.017 65.1312V62.0187C131.821 62.0588 131.623 62.0872 131.424 62.1037C131.209 62.1235 130.993 62.1332 130.777 62.133C130.101 62.133 129.65 62.0187 129.424 61.7927C129.2 61.5669 129.087 61.1139 129.087 60.4343V53.1913H132.017V50.5039H129.087L129.087 46.1193ZM117.622 59.4718C117.622 59.7001 117.599 60.0017 117.552 60.3783C117.505 60.7566 117.378 61.1277 117.172 61.4957C116.965 61.8635 116.645 62.1805 116.214 62.4434C115.783 62.7083 115.172 62.8401 114.382 62.8401C114.064 62.8401 113.754 62.812 113.453 62.7543C113.152 62.6987 112.89 62.5988 112.665 62.4578C112.44 62.3163 112.261 62.1228 112.129 61.8775C111.999 61.6325 111.932 61.3318 111.932 60.9734C111.932 60.5965 111.999 60.2832 112.129 60.0393C112.256 59.8002 112.435 59.5923 112.651 59.4308C112.866 59.2706 113.12 59.1436 113.411 59.0482C113.702 58.9542 113.998 58.8787 114.299 58.8222C114.617 58.7669 114.937 58.7182 115.256 58.6808C115.563 58.6452 115.868 58.5982 116.171 58.5398C116.448 58.4868 116.721 58.4156 116.989 58.3267C117.242 58.2417 117.453 58.1253 117.622 57.9736V59.4718ZM121.622 61.8775V54.2677C121.622 53.3797 121.426 52.6684 121.03 52.1316C120.637 51.5936 120.129 51.1744 119.51 50.8725C118.89 50.571 118.204 50.3677 117.453 50.2643C116.716 50.1616 115.972 50.1097 115.228 50.1089C114.421 50.1089 113.617 50.1884 112.821 50.3492C112.02 50.5093 111.304 50.7786 110.665 51.1551C110.032 51.5267 109.492 52.0398 109.088 52.6545C108.674 53.277 108.439 54.0598 108.383 55.0031H112.383C112.458 54.2105 112.722 53.6443 113.173 53.3051C113.623 52.9654 114.242 52.7966 115.031 52.7966C115.388 52.7966 115.72 52.8203 116.031 52.8669C116.34 52.9147 116.613 53.0076 116.848 53.1499C117.083 53.2912 117.271 53.4888 117.411 53.7442C117.552 53.9985 117.622 54.3436 117.622 54.7762C117.641 55.1923 117.518 55.5064 117.257 55.7237C116.993 55.9419 116.637 56.1072 116.186 56.219C115.735 56.3332 115.218 56.4183 114.636 56.4731C114.054 56.5308 113.463 56.6078 112.862 56.7007C112.26 56.7955 111.663 56.923 111.074 57.0828C110.483 57.2421 109.955 57.4839 109.496 57.8032C109.035 58.1253 108.66 58.5538 108.368 59.0917C108.078 59.6294 107.932 60.3138 107.932 61.1427C107.932 61.897 108.059 62.5476 108.312 63.094C108.566 63.6424 108.918 64.0934 109.369 64.4522C109.82 64.8107 110.345 65.0753 110.946 65.2455C111.546 65.4146 112.195 65.5 112.89 65.5C113.787 65.5002 114.679 65.3669 115.537 65.1045C116.401 64.8385 117.153 64.3781 117.792 63.7169C117.81 63.962 117.843 64.2034 117.89 64.4386C117.937 64.6733 117.998 64.9058 118.073 65.1312H122.13C121.942 64.8312 121.81 64.3781 121.735 63.7735C121.659 63.1703 121.622 62.5395 121.622 61.8775ZM105.143 51.7627C104.75 51.2438 104.209 50.839 103.525 50.5458C102.839 50.255 101.961 50.1089 100.891 50.1089C100.139 50.1089 99.3698 50.3016 98.5802 50.689C97.7919 51.0747 97.1437 51.6929 96.6371 52.5423H96.5524V44.9307H92.5525V65.1312H96.5524V57.4642C96.5524 55.9744 96.7964 54.9047 97.285 54.2528C97.7727 53.6029 98.5615 53.2771 99.6513 53.2771C100.609 53.2771 101.275 53.574 101.651 54.1689C102.027 54.7624 102.214 55.6635 102.214 56.8702V65.1314H106.215V56.1345C106.215 55.2298 106.134 54.405 105.975 53.6585C105.815 52.9148 105.538 52.2821 105.143 51.7627ZM84.0175 58.851H83.9618L80.5254 44.9309H76.3845L72.8911 58.6809H72.8351L69.652 44.9307H65.2302L70.5537 65.1312H75.0329L78.3841 51.381H78.4406L81.849 65.1312H86.2433L91.6518 44.9307H87.3141L84.0175 58.851Z" fill="#455A64"/>
<g opacity="0.5" filter="url(#filter0_f_20_4970)">
<path d="M20.1646 54.7927C20.1634 58.2564 21.0659 61.6374 22.7816 64.6176L20 74.8008L30.3936 72.0682C33.2572 73.6342 36.4814 74.4593 39.7626 74.4606H39.771C50.5765 74.4606 59.3726 65.6436 59.3772 54.8086C59.379 49.5573 57.3414 44.6197 53.64 40.9052C49.9379 37.1908 45.0154 35.1442 39.771 35.1419C28.9638 35.1419 20.1689 43.9574 20.1646 54.7927V54.7927Z" fill="black"/>
</g>
<path d="M20.8681 54.5881C20.8671 57.9193 21.7375 61.172 23.3927 64.039L20.7097 73.8353L30.7346 71.2066C33.4966 72.712 36.6063 73.5064 39.7711 73.5075H39.7796C50.2015 73.5075 58.6853 65.0265 58.6896 54.6028C58.6917 49.5516 56.7263 44.802 53.1557 41.2288C49.5857 37.6555 44.8376 35.6866 39.7789 35.6844C29.3557 35.6844 20.8723 44.1646 20.8681 54.5881Z" fill="url(#paint0_linear_20_4970)"/>
<path d="M20.193 54.5815C20.1918 58.0329 21.0936 61.402 22.8077 64.3718L20.0286 74.519L30.4131 71.7961C33.2742 73.3564 36.4955 74.1787 39.7738 74.1799H39.7823C50.5782 74.1799 59.3666 65.3941 59.3712 54.5974C59.373 49.3646 57.3372 44.4444 53.639 40.743C49.9403 37.0417 45.0221 35.0024 39.7823 35C28.9845 35 20.1973 43.7844 20.193 54.5815H20.193ZM26.3771 63.8604L25.9895 63.2448C24.3596 60.6532 23.4991 57.6582 23.5005 54.5828C23.504 45.6086 30.8075 38.3076 39.7885 38.3076C44.1376 38.3094 48.225 40.0045 51.2994 43.081C54.3734 46.1572 56.065 50.2468 56.0637 54.5961C56.0599 63.5706 48.7561 70.8727 39.7823 70.8727H39.776C36.8539 70.8711 33.9883 70.0866 31.489 68.6035L30.8942 68.251L24.7319 69.8666L26.3771 63.8604Z" fill="url(#paint1_linear_20_4970)"/>
<path fill-rule="evenodd" clip-rule="evenodd" d="M34.8862 46.3954C34.5195 45.5804 34.1336 45.564 33.7848 45.5497C33.4995 45.5375 33.1728 45.5383 32.8467 45.5383C32.5205 45.5383 31.9901 45.6608 31.5417 46.1506C31.0929 46.6404 29.8284 47.8244 29.8284 50.2325C29.8284 52.641 31.5825 54.9678 31.827 55.2947C32.0717 55.6211 35.2131 60.7207 40.188 62.6826C44.3227 64.3131 45.1641 63.9888 46.0615 63.9072C46.9589 63.8256 48.9574 62.7234 49.3652 61.5805C49.7732 60.4377 49.7732 59.4582 49.6508 59.2535C49.5284 59.0494 49.2021 58.9271 48.7126 58.6823C48.223 58.4375 45.8167 57.2532 45.368 57.0901C44.9193 56.927 44.5929 56.8454 44.2666 57.3354C43.9403 57.825 43.0029 58.9271 42.7172 59.2535C42.4317 59.5806 42.1462 59.6214 41.6566 59.3766C41.1671 59.1311 39.5907 58.6148 37.7206 56.9474C36.2655 55.6501 35.2833 54.048 34.9976 53.558C34.7121 53.0684 34.9671 52.8033 35.2126 52.5593C35.4323 52.34 35.7021 51.988 35.9468 51.7021C36.1911 51.4163 36.2727 51.2123 36.4359 50.886C36.599 50.5591 36.5174 50.2733 36.3951 50.0285C36.2727 49.7838 35.3215 47.3632 34.8862 46.3954Z" fill="white"/>
<defs>
<filter id="filter0_f_20_4970" x="17.4" y="32.5418" width="44.5772" height="44.859" filterUnits="userSpaceOnUse" color-interpolation-filters="sRGB">
<feFlood flood-opacity="0" result="BackgroundImageFix"/>
<feBlend mode="normal" in="SourceGraphic" in2="BackgroundImageFix" result="shape"/>
<feGaussianBlur stdDeviation="1.3" result="effect1_foregroundBlur_20_4970"/>
</filter>
<linearGradient id="paint0_linear_20_4970" x1="39.6995" y1="73.8353" x2="39.6995" y2="35.6843" gradientUnits="userSpaceOnUse">
<stop stop-color="#20B038"/>
<stop offset="1" stop-color="#60D66A"/>
</linearGradient>
<linearGradient id="paint1_linear_20_4970" x1="39.7" y1="74.5191" x2="39.7" y2="35" gradientUnits="userSpaceOnUse">
<stop stop-color="#F9F9F9"/>
<stop offset="1" stop-color="white"/>
</linearGradient>
</defs>
</svg>
