<svg width="80" height="80" viewBox="0 0 80 80" fill="none" xmlns="http://www.w3.org/2000/svg">
<path d="M32.1525 67.124H23.1975L24.5037 60.2563H30.8463L32.1525 67.124Z" fill="#70AFFF"/>
<path d="M34.0421 69H21.2822C21.2822 67.7239 22.3167 66.6895 23.5927 66.6895H31.7316C33.0076 66.6895 34.0421 67.7239 34.0421 69Z" fill="#B3D4FF"/>
<path d="M47.0705 32.8073V58.5497H8.94678V32.8073C8.94678 31.5956 9.93125 30.6162 11.1379 30.6162H44.8743C46.086 30.6162 47.0705 31.5956 47.0705 32.8073Z" fill="#41506C"/>
<path d="M10.1904 57.3058V32.8073C10.1904 32.285 10.6152 31.8599 11.1375 31.8599H44.8742C45.3992 31.8599 45.8265 32.285 45.8265 32.8073V57.3058H10.1904Z" fill="white"/>
<path d="M47.0705 58.5498V60.9075C47.0705 62.1142 46.086 63.0987 44.8743 63.0987H11.1379C9.93125 63.0987 8.94678 62.1142 8.94678 60.9075V58.5498H47.0705Z" fill="#B3D4FF"/>
<path d="M28.0087 61.5393C28.4036 61.5393 28.7238 61.2191 28.7238 60.8241C28.7238 60.4291 28.4036 60.1089 28.0087 60.1089C27.6137 60.1089 27.2935 60.4291 27.2935 60.8241C27.2935 61.2191 27.6137 61.5393 28.0087 61.5393Z" fill="white"/>
<path d="M43.2174 34.6467V54.3257C43.2174 55.1448 42.5577 55.8045 41.7386 55.8045H14.5015C13.6881 55.8045 13.0227 55.1448 13.0227 54.3257V34.6467C13.0227 33.8277 13.6881 33.168 14.5015 33.168H41.7386C42.5577 33.168 43.2174 33.8277 43.2174 34.6467Z" fill="#F2F6FF"/>
<path d="M38.1496 42.7785C38.136 42.3405 37.8168 41.9635 37.3788 41.8821L36.5129 41.7123C36.2141 41.6511 35.9526 41.4576 35.8304 41.1757C35.793 41.0772 35.7421 40.9754 35.6946 40.8804C35.5621 40.5986 35.5791 40.2726 35.7353 40.0009L36.1767 39.2469C36.3974 38.8633 36.3261 38.3743 36.0036 38.0756L34.0205 36.2249C33.7013 35.9228 33.2089 35.8853 32.8422 36.1332L32.1155 36.6223C31.8609 36.7921 31.5349 36.8362 31.2497 36.7241C31.1478 36.6868 31.0425 36.6425 30.9373 36.6052C30.6452 36.5034 30.4279 36.2555 30.3464 35.9601L30.1257 35.1145C30.0136 34.6867 29.6164 34.3947 29.1715 34.4082L26.4618 34.5033C26.0238 34.5169 25.6502 34.8361 25.5688 35.2674L25.399 36.1367C25.3379 36.4389 25.1375 36.6969 24.8557 36.8191C24.7504 36.8634 24.6519 36.9075 24.5501 36.9549C24.275 37.0874 23.949 37.067 23.6808 36.9143L22.9269 36.4762C22.5432 36.2555 22.0576 36.3301 21.7554 36.6493L19.9048 38.6325C19.6026 38.9517 19.5653 39.4439 19.8131 39.8107L20.3055 40.5409C20.4787 40.7921 20.5194 41.118 20.4074 41.4032C20.3666 41.5052 20.3225 41.6138 20.2851 41.7191C20.19 42.011 19.9422 42.2251 19.6434 42.3065L18.8012 42.5272C18.37 42.6393 18.078 43.04 18.0949 43.4814L18.19 46.1911C18.2036 46.6325 18.5228 47.0095 18.9608 47.0909L19.8165 47.2539C20.1187 47.3151 20.3802 47.5086 20.4991 47.7972C20.5432 47.8957 20.5907 47.9977 20.6417 48.1028C20.7741 48.3779 20.7537 48.7038 20.5941 48.9721L20.1561 49.726C19.9354 50.1097 20.0101 50.5986 20.3293 50.8976L22.3157 52.7481C22.6383 53.0504 23.1273 53.0877 23.4974 52.8398L24.2241 52.3508C24.4787 52.1811 24.8047 52.137 25.0866 52.2489C25.1918 52.2931 25.2937 52.3305 25.4024 52.3678C25.6978 52.4697 25.9083 52.7176 25.9898 53.0129L26.2105 53.8585C26.3192 54.2863 26.7199 54.5784 27.1613 54.5648L29.8744 54.4696C30.3193 54.4527 30.6894 54.1369 30.7709 53.699L30.9407 52.8365C31.0018 52.5375 31.1953 52.2761 31.4772 52.1574C31.5824 52.1098 31.6843 52.0655 31.7828 52.0181C32.0578 51.8788 32.3906 51.8992 32.6555 52.0589L33.4093 52.4969C33.7964 52.7176 34.282 52.6428 34.5808 52.3237L36.4314 50.3372C36.7336 50.0112 36.7744 49.5257 36.5265 49.1555L36.0307 48.4221C35.8609 48.1708 35.8168 47.8516 35.9322 47.5663C35.973 47.4612 36.0104 47.3592 36.0409 47.2607C36.1428 46.9654 36.3907 46.7548 36.6895 46.6733L37.5384 46.4458C37.9662 46.3337 38.2583 45.9331 38.2447 45.4984L38.1496 42.7785ZM28.1698 50.1288C25.052 50.1288 22.5276 47.6003 22.5276 44.4865C22.5276 41.3728 25.052 38.8443 28.1698 38.8443C31.2836 38.8443 33.812 41.3728 33.812 44.4865C33.812 47.6003 31.2836 50.1288 28.1698 50.1288Z" fill="#64B5F4"/>
<path d="M25.8203 45.0137C25.8661 46.2697 26.896 47.2747 28.1632 47.2747C29.4305 47.2747 30.4604 46.2697 30.5062 45.0137H25.8203Z" fill="#41506C"/>
<path d="M37.5844 27.7602C37.8151 30.8521 36.5555 33.6625 34.4489 35.5423C32.8958 36.9281 31.9532 38.8701 31.9532 40.9516V41.1291H24.3919V40.9506C24.3919 38.9107 23.5242 36.9594 21.9846 35.6212C19.9902 33.8875 18.7273 31.3316 18.7273 28.4849C18.7273 23.0716 23.2831 18.7275 28.769 19.0642C33.4277 19.3502 37.2372 23.1057 37.5844 27.7602Z" fill="#FEC400"/>
<path d="M29.4817 40.8393H29.0527V37.1624L29.9969 35.5894L30.3638 35.8096L29.4817 37.2808V40.8393Z" fill="white"/>
<path d="M27.2856 40.8393H26.8577V37.2808L25.9756 35.8096L26.3424 35.5894L27.2856 37.1624V40.8393Z" fill="white"/>
<path opacity="0.1" d="M36.1921 28.8282C36.1921 33.2578 32.6013 36.8508 28.1694 36.8508C24.7192 36.8508 21.7785 34.6729 20.6445 31.6169C20.3219 30.748 20.1467 29.8077 20.1467 28.8282C20.1467 24.3962 23.7375 20.8032 28.1694 20.8032C31.5066 20.8032 34.369 22.8406 35.579 25.7422C35.9731 26.6917 36.1921 27.7357 36.1921 28.8282Z" fill="white"/>
<path opacity="0.1" d="M34.574 28.8282C34.574 32.3643 31.7076 35.2326 28.1696 35.2326C25.4153 35.2326 23.0677 33.4939 22.1625 31.0543C21.905 30.3607 21.7651 29.6101 21.7651 28.8282C21.7651 25.2902 24.6316 22.4219 28.1696 22.4219C30.8336 22.4219 33.1187 24.0483 34.0846 26.3646C34.3992 27.1226 34.574 27.9561 34.574 28.8282Z" fill="white"/>
<path d="M28.6367 16.4468V17.4091C28.6367 17.6891 28.4128 17.9129 28.1329 17.9129C27.8531 17.9129 27.6292 17.6891 27.6292 17.4091V16.4468C27.6292 16.1732 27.8531 15.9434 28.1329 15.9434C28.4128 15.9434 28.6367 16.1732 28.6367 16.4468ZM22.722 17.8067L23.2032 18.64C23.3432 18.8825 23.2612 19.1883 23.0188 19.3282C22.7765 19.4681 22.4706 19.3862 22.3307 19.1438L21.8495 18.3104C21.7127 18.0735 21.7917 17.7625 22.0341 17.6225C22.2764 17.4826 22.5852 17.5698 22.722 17.8067ZM34.4388 18.2265L33.9577 19.0598C33.8177 19.3023 33.5119 19.3842 33.2696 19.2442C33.0272 19.1043 32.9452 18.7985 33.0852 18.5561L33.5663 17.7227C33.7031 17.4858 34.012 17.3987 34.2543 17.5386C34.4967 17.6785 34.5756 17.9895 34.4388 18.2265Z" fill="#FEC400"/>
<path d="M32.5829 41.1132C32.5829 41.5652 32.2185 41.9295 31.7665 41.9295H24.5627C24.1107 41.9295 23.7463 41.5652 23.7463 41.1132C23.7463 40.6612 24.1107 40.2969 24.5627 40.2969H31.7665C32.2185 40.2969 32.5829 40.6612 32.5829 41.1132Z" fill="#5E6D84"/>
<path d="M32.5834 41.1126C32.5834 41.3408 32.4922 41.5428 32.3455 41.6928C32.1956 41.8394 31.9935 41.9306 31.7653 41.9306H24.559C24.1092 41.9306 23.7441 41.5657 23.7441 41.1126C23.7441 41.0703 23.7474 41.0279 23.7539 40.9888C23.8159 41.3798 24.1516 41.6764 24.559 41.6764H31.7653C31.9935 41.6764 32.1956 41.5852 32.3455 41.4385C32.4628 41.3179 32.5476 41.1614 32.5736 40.9888C32.5802 41.0279 32.5834 41.0703 32.5834 41.1126Z" fill="#41506C"/>
<path d="M32.5829 42.746C32.5829 43.198 32.2185 43.5623 31.7665 43.5623H24.5627C24.1107 43.5623 23.7463 43.198 23.7463 42.746C23.7463 42.294 24.1107 41.9297 24.5627 41.9297H31.7665C32.2185 41.9297 32.5829 42.294 32.5829 42.746Z" fill="#5E6D84"/>
<path d="M32.5834 42.7454C32.5834 42.9704 32.4922 43.1757 32.3455 43.3256C32.1956 43.4724 31.9935 43.5636 31.7653 43.5636H24.559C24.1092 43.5636 23.7441 43.1985 23.7441 42.7454C23.7441 42.7031 23.7474 42.6607 23.7539 42.6216C23.8159 43.0128 24.1516 43.3094 24.559 43.3094H31.7653C31.9935 43.3094 32.1956 43.2181 32.3455 43.0713C32.4628 42.954 32.5476 42.7976 32.5736 42.6216C32.5802 42.6607 32.5834 42.7031 32.5834 42.7454Z" fill="#41506C"/>
<path d="M32.5829 44.3783C32.5829 44.8303 32.2185 45.1946 31.7665 45.1946H24.5627C24.1107 45.1946 23.7463 44.8303 23.7463 44.3783C23.7463 43.9263 24.1107 43.562 24.5627 43.562H31.7665C32.2185 43.562 32.5829 43.9263 32.5829 44.3783Z" fill="#5E6D84"/>
<path d="M32.5834 44.3782C32.5834 44.6064 32.4922 44.8084 32.3455 44.9583C32.1956 45.105 31.9935 45.1964 31.7653 45.1964H24.559C24.1092 45.1964 23.7441 44.8313 23.7441 44.3782C23.7441 44.3359 23.7474 44.2934 23.7539 44.2544C23.8159 44.6454 24.1516 44.9421 24.559 44.9421H31.7653C31.9935 44.9421 32.1956 44.8509 32.3455 44.7041C32.4628 44.5835 32.5476 44.4271 32.5736 44.2544C32.5802 44.2934 32.5834 44.3359 32.5834 44.3782Z" fill="#41506C"/>
<path d="M34.2259 26.088C34.1767 26.8042 33.6665 27.3913 32.9899 27.5574C32.9592 27.7458 32.8034 27.8925 32.6054 27.8925C32.3864 27.8925 32.2083 27.7145 32.2083 27.4955C32.2083 27.2755 32.3864 27.0985 32.6054 27.0985C32.7657 27.0985 32.9012 27.1937 32.964 27.3298C33.5644 27.1701 34.0102 26.6271 34.0102 25.9771C34.0102 25.909 33.9996 25.8438 33.9902 25.7783C33.9849 25.7418 33.9818 25.7047 33.9738 25.6692C33.9614 25.614 33.9427 25.5616 33.924 25.5091C33.9131 25.4785 33.9051 25.4466 33.8922 25.4171C33.8656 25.3561 33.8322 25.299 33.7975 25.2429C33.7866 25.2251 33.7784 25.2054 33.7667 25.1882C33.7176 25.1161 33.6621 25.0489 33.6008 24.9872C33.5868 24.9732 33.5701 24.9622 33.5555 24.9488C33.5068 24.9038 33.4568 24.8601 33.4021 24.8222C33.3726 24.8019 33.3399 24.7863 33.3088 24.7682C33.2654 24.7428 33.2224 24.7168 33.1761 24.6961C33.1373 24.6788 33.0959 24.6666 33.0553 24.6528C33.0133 24.6385 32.9717 24.6235 32.928 24.6132C32.8823 24.6024 32.8347 24.5968 32.7874 24.5906C32.7271 24.5827 32.6677 24.5722 32.6053 24.5722C32.0249 24.5722 31.5258 24.926 31.3118 25.4293C31.4535 25.4898 31.5524 25.6298 31.5524 25.7942C31.5524 26.0132 31.3755 26.1913 31.1554 26.1913C30.9364 26.1913 30.7583 26.0132 30.7583 25.7942C30.7583 25.6009 30.8985 25.4484 31.0803 25.4123C31.3112 24.7913 31.9049 24.3453 32.6053 24.3453C32.6126 24.3453 32.6192 24.3474 32.6264 24.3475C32.6826 24.1923 32.7165 24.0319 32.7165 23.8674C32.7165 23.093 32.0868 22.4631 31.3126 22.4622L31.3116 22.4626C31.2226 22.4626 31.1361 22.473 31.0515 22.4889C31.0283 22.4933 31.0056 22.5 30.9826 22.5056C30.4832 22.6265 30.0908 23.0144 29.9587 23.5087C30.0949 23.5714 30.1903 23.7071 30.1903 23.8676C30.1903 24.0865 30.0133 24.2646 29.7933 24.2646C29.5743 24.2646 29.3962 24.0865 29.3962 23.8676C29.3962 23.6699 29.5425 23.5143 29.7304 23.4832C29.8551 22.9728 30.2167 22.5547 30.6955 22.3585C30.4956 21.811 29.9715 21.4346 29.3806 21.4346C28.646 21.4346 28.1328 22.0125 28.1328 22.8399V35.0498C28.1328 35.6615 29.0244 36.2186 30.0034 36.2186C30.5682 36.2186 31.0974 36.0222 31.4147 35.7072C30.8452 35.6272 30.3774 35.2344 30.1898 34.7084C29.9822 34.6957 29.8159 34.5267 29.8159 34.316C29.8159 34.096 29.994 33.919 30.2129 33.919C30.433 33.919 30.61 34.096 30.61 34.316C30.61 34.4613 30.5282 34.5831 30.4115 34.6523C30.5952 35.1454 31.0662 35.4996 31.6222 35.5013C32.1041 35.3019 32.427 34.8235 32.427 34.3002C32.427 34.2043 32.4075 34.1112 32.3868 34.0187C31.6612 33.9743 31.0653 33.4568 30.902 32.7709C30.7397 32.721 30.6193 32.5754 30.6193 32.397C30.6193 32.1769 30.7974 31.9999 31.0163 31.9999C31.2364 31.9999 31.4133 32.1769 31.4133 32.397C31.4133 32.5731 31.2967 32.7178 31.1373 32.7696C31.2996 33.3534 31.8257 33.7866 32.4582 33.7991C32.4625 33.798 32.4646 33.7928 32.4691 33.7922C33.163 33.7007 33.6862 33.1026 33.6862 32.4009C33.6862 32.3028 33.6762 32.2067 33.6568 32.1131C33.6538 32.099 33.6475 32.0863 33.6441 32.0723C33.6252 31.9939 33.6024 31.9167 33.5699 31.8426C33.4053 31.4644 33.0792 31.1728 32.6793 31.0543C32.6149 31.1862 32.4826 31.2793 32.3252 31.2793C32.1062 31.2793 31.9281 31.1012 31.9281 30.8823C31.9281 30.6622 32.1062 30.4853 32.3252 30.4853C32.5261 30.4853 32.6843 30.6353 32.7114 30.8286C33.1527 30.951 33.5179 31.2557 33.7254 31.6559C34.3242 31.4887 34.7529 30.9375 34.7529 30.3091C34.7529 29.9714 34.6287 29.6547 34.4108 29.4003C34.2486 29.5272 34.0701 29.613 33.8838 29.6635C33.853 29.8517 33.6972 29.9984 33.4993 29.9984C33.2803 29.9984 33.1023 29.8202 33.1023 29.6013C33.1023 29.3812 33.2803 29.2043 33.4993 29.2043C33.6583 29.2043 33.7924 29.2983 33.8559 29.4325C34.0488 29.3724 34.2314 29.2651 34.3925 29.1074C34.4526 29.0487 34.5091 28.9851 34.5608 28.9158C34.5841 28.8847 34.6061 28.8525 34.6275 28.8197C34.6751 28.7463 34.7179 28.6685 34.7561 28.5869C34.7706 28.5559 34.7859 28.5255 34.799 28.4935C34.8357 28.4032 34.8646 28.3081 34.8893 28.2112C34.897 28.1807 34.9075 28.1517 34.9139 28.1207C34.9381 28.0055 34.9522 27.8867 34.9581 27.7664C34.9587 27.753 34.9619 27.7404 34.9623 27.727L34.9629 27.7257C34.9835 27.0348 34.6917 26.4039 34.2259 26.088Z" fill="white"/>
<path d="M22.0398 26.088C22.089 26.8042 22.5992 27.3913 23.2758 27.5574C23.3065 27.7458 23.4623 27.8925 23.6603 27.8925C23.8793 27.8925 24.0574 27.7145 24.0574 27.4955C24.0574 27.2755 23.8793 27.0985 23.6603 27.0985C23.5 27.0985 23.3645 27.1937 23.3017 27.3298C22.7013 27.1701 22.2555 26.6271 22.2555 25.9771C22.2555 25.909 22.2661 25.8438 22.2756 25.7783C22.2808 25.7418 22.2839 25.7047 22.2919 25.6692C22.3043 25.614 22.323 25.5616 22.3417 25.5091C22.3526 25.4785 22.3606 25.4466 22.3735 25.4171C22.4001 25.3561 22.4335 25.299 22.4682 25.2429C22.4792 25.2251 22.4873 25.2054 22.499 25.1882C22.5481 25.1161 22.6036 25.0489 22.6649 24.9872C22.6789 24.9732 22.6957 24.9622 22.7102 24.9488C22.7589 24.9038 22.8089 24.8601 22.8636 24.8222C22.8931 24.8019 22.9259 24.7863 22.9569 24.7682C23.0004 24.7428 23.0433 24.7168 23.0896 24.6961C23.1284 24.6788 23.1698 24.6666 23.2104 24.6528C23.2524 24.6385 23.294 24.6235 23.3377 24.6132C23.3834 24.6024 23.431 24.5968 23.4784 24.5906C23.5386 24.5827 23.598 24.5722 23.6604 24.5722C24.2408 24.5722 24.74 24.926 24.9539 25.4293C24.8122 25.4898 24.7133 25.6298 24.7133 25.7942C24.7133 26.0132 24.8903 26.1913 25.1103 26.1913C25.3293 26.1913 25.5074 26.0132 25.5074 25.7942C25.5074 25.6009 25.3672 25.4484 25.1854 25.4123C24.9545 24.7913 24.3608 24.3453 23.6604 24.3453C23.6531 24.3453 23.6465 24.3474 23.6393 24.3475C23.5831 24.1923 23.5493 24.0319 23.5493 23.8674C23.5493 23.093 24.1789 22.4631 24.9531 22.4622L24.9541 22.4626C25.0432 22.4626 25.1296 22.473 25.2142 22.4889C25.2374 22.4933 25.2601 22.5 25.2831 22.5056C25.7825 22.6265 26.1749 23.0144 26.3071 23.5087C26.1708 23.5714 26.0754 23.7071 26.0754 23.8676C26.0754 24.0865 26.2524 24.2646 26.4725 24.2646C26.6914 24.2646 26.8695 24.0865 26.8695 23.8676C26.8695 23.6699 26.7232 23.5143 26.5353 23.4832C26.4107 22.9728 26.049 22.5547 25.5702 22.3585C25.7701 21.811 26.2942 21.4346 26.8851 21.4346C27.6198 21.4346 28.1329 22.0125 28.1329 22.8399V35.0498C28.1329 35.6615 27.2413 36.2186 26.2623 36.2186C25.6975 36.2186 25.1683 36.0222 24.851 35.7072C25.4205 35.6272 25.8884 35.2344 26.076 34.7084C26.2836 34.6957 26.4498 34.5267 26.4498 34.316C26.4498 34.096 26.2717 33.919 26.0528 33.919C25.8327 33.919 25.6557 34.096 25.6557 34.316C25.6557 34.4613 25.7375 34.5831 25.8542 34.6523C25.6706 35.1454 25.1995 35.4996 24.6435 35.5013C24.1616 35.3019 23.8387 34.8235 23.8387 34.3002C23.8387 34.2043 23.8582 34.1112 23.879 34.0187C24.6045 33.9743 25.2005 33.4568 25.3637 32.7709C25.526 32.721 25.6464 32.5754 25.6464 32.397C25.6464 32.1769 25.4683 31.9999 25.2494 31.9999C25.0293 31.9999 24.8524 32.1769 24.8524 32.397C24.8524 32.5731 24.969 32.7178 25.1284 32.7696C24.9661 33.3534 24.44 33.7866 23.8075 33.7991C23.8032 33.798 23.8011 33.7928 23.7966 33.7922C23.1027 33.7007 22.5795 33.1026 22.5795 32.4009C22.5795 32.3028 22.5895 32.2067 22.609 32.1131C22.6119 32.099 22.6183 32.0863 22.6216 32.0723C22.6405 31.9939 22.6633 31.9167 22.6959 31.8426C22.8604 31.4644 23.1865 31.1728 23.5865 31.0543C23.6508 31.1862 23.7832 31.2793 23.9405 31.2793C24.1595 31.2793 24.3376 31.1012 24.3376 30.8823C24.3376 30.6622 24.1595 30.4853 23.9405 30.4853C23.7396 30.4853 23.5814 30.6353 23.5543 30.8286C23.1131 30.951 22.7478 31.2557 22.5403 31.6559C21.9415 31.4887 21.5128 30.9375 21.5128 30.3091C21.5128 29.9714 21.637 29.6547 21.8549 29.4003C22.0171 29.5272 22.1956 29.613 22.3819 29.6635C22.4127 29.8517 22.5685 29.9984 22.7664 29.9984C22.9854 29.9984 23.1635 29.8202 23.1635 29.6013C23.1635 29.3812 22.9854 29.2043 22.7664 29.2043C22.6074 29.2043 22.4733 29.2983 22.4098 29.4325C22.2169 29.3724 22.0343 29.2651 21.8733 29.1074C21.8131 29.0487 21.7566 28.9851 21.7049 28.9158C21.6816 28.8847 21.6596 28.8525 21.6382 28.8197C21.5906 28.7463 21.5478 28.6685 21.5097 28.5869C21.4951 28.5559 21.4798 28.5255 21.4668 28.4935C21.43 28.4032 21.4011 28.3081 21.3764 28.2112C21.3688 28.1807 21.3582 28.1517 21.3518 28.1207C21.3276 28.0055 21.3136 27.8867 21.3076 27.7664C21.307 27.753 21.3038 27.7404 21.3034 27.727L21.3028 27.7257C21.2822 27.0348 21.574 26.4039 22.0398 26.088Z" fill="white"/>
<path d="M30.1891 27.3836V30.4183C30.1891 30.7365 29.9326 30.9977 29.6097 30.9977H26.4278C26.1096 30.9977 25.8484 30.7365 25.8484 30.4183V27.3836C25.8484 27.0654 26.1096 26.8042 26.4278 26.8042H29.6097C29.9326 26.8042 30.1891 27.0654 30.1891 27.3836Z" fill="#FEC400"/>
<path d="M29.5097 27.4858H26.5286V30.3146H29.5097V27.4858Z" fill="#FFAB00"/>
<path d="M64.9727 68.9998L67.0873 56.4834H54.3875L54.3904 68.9998H64.9727Z" fill="#2B9BED"/>
<path d="M71.0534 68.9998V56.4834H60.6709L62.7864 68.9998H71.0534Z" fill="#64B5F4"/>
<path d="M49.639 41.4571L50.3291 37.6001H59.6958C59.7021 40.5885 59.7083 45.0795 59.6895 45.1732C59.6558 45.314 47.5624 49.3995 47.3317 49.2756C47.101 49.1518 41.8506 48.3301 41.8506 48.3301L49.639 41.4571Z" fill="#FEB69E"/>
<path d="M50.3523 41.6487H60.2318C60.2256 38.6992 60.2195 34.9803 60.2195 34.9803L57.0146 29.4854C54.1394 29.4854 51.7154 31.7157 51.3641 34.6845L50.5619 41.4627L50.3523 41.6487Z" fill="#FF4F5A"/>
<path d="M71.0532 35.6794H69.3199V29.4795H57.5744C55.8176 29.4795 54.3877 30.9029 54.3877 32.6661V56.8388H71.0532V35.6794Z" fill="#FF4F5A"/>
<path d="M54.5755 34.1831H54.2834V41.6504H54.5755V34.1831Z" fill="#F73F4B"/>
<path d="M57.6344 20.0601C58.5793 20.0601 59.3453 18.8023 59.3453 17.2508C59.3453 15.6992 58.5793 14.4414 57.6344 14.4414C56.6896 14.4414 55.9236 15.6992 55.9236 17.2508C55.9236 18.8023 56.6896 20.0601 57.6344 20.0601Z" fill="#272D4F"/>
<path d="M70.0936 19.5959C70.0936 21.3938 68.638 23.8335 66.8852 23.9953C66.8232 24.0011 66.7613 24.0011 66.6994 24.0011C65.1943 24.0011 63.9741 22.2899 63.5839 20.6481C63.5715 20.596 63.5591 20.5498 63.553 20.4978C63.4848 20.1913 63.4539 19.885 63.4539 19.5959C63.4539 19.1565 63.5344 18.7345 63.6892 18.353C64.0237 17.48 64.7112 16.7863 65.5721 16.451C65.9437 16.3007 66.3525 16.2197 66.7737 16.2197C66.8047 16.2197 66.8294 16.2197 66.8604 16.2255C67.5913 16.2371 68.2602 16.4972 68.799 16.925C68.8362 16.9482 68.8734 16.9828 68.9105 17.0175C69.0592 17.1389 69.2017 17.2835 69.3317 17.4338C69.8024 18.0176 70.0936 18.7692 70.0936 19.5959Z" fill="#272D4F"/>
<path d="M66.4496 22.7822H60.9688V29.4742H66.4496V22.7822Z" fill="#FEB69E"/>
<path d="M60.9668 29.478L62.8688 29.6983L66.4506 29.478H60.9668Z" fill="#FEB69E"/>
<path d="M60.9688 21.6528V26.7628C60.9688 26.7628 63.3919 28.0156 66.4496 27.5458V21.6528H60.9688Z" fill="#F8957E"/>
<path d="M66.4453 19.1162V22.4144C66.4453 25.0606 64.2976 27.2084 61.6514 27.2084C59.0051 27.2084 56.8574 25.0606 56.8574 22.4144V19.1162C56.8574 17.7931 57.3944 16.5913 58.2637 15.7285C59.1266 14.8592 60.3283 14.3223 61.6514 14.3223C64.2976 14.3223 66.4453 16.4699 66.4453 19.1162Z" fill="#FEB69E"/>
<path d="M69.3318 17.4337C68.9697 8.41986 57.8603 11.2818 56.667 12.0034C53.3548 14.0065 52.7841 18.7387 56.6549 18.7387C61.3357 19.3402 65.5754 19.2615 69.3318 17.4337Z" fill="#272D4F"/>
<path d="M61.8829 21.4321C62.13 21.4321 62.3303 21.1362 62.3303 20.7712C62.3303 20.4062 62.13 20.1104 61.8829 20.1104C61.6358 20.1104 61.4355 20.4062 61.4355 20.7712C61.4355 21.1362 61.6358 21.4321 61.8829 21.4321Z" fill="#272D4F"/>
<path d="M58.6998 21.4321C58.9469 21.4321 59.1472 21.1362 59.1472 20.7712C59.1472 20.4062 58.9469 20.1104 58.6998 20.1104C58.4527 20.1104 58.2524 20.4062 58.2524 20.7712C58.2524 21.1362 58.4527 21.4321 58.6998 21.4321Z" fill="#272D4F"/>
<path d="M62.0054 23.4077C62.0066 23.4341 62.0133 23.459 62.0133 23.4857C62.0133 24.49 61.1992 25.3041 60.1949 25.3041C59.1906 25.3041 58.3765 24.49 58.3765 23.4857C58.3765 23.459 58.3832 23.4341 58.3843 23.4077H62.0054Z" fill="white"/>
<path d="M68.1323 19.9166C68.1559 20.8199 67.4187 21.5718 66.4857 21.5962C65.5527 21.6206 65.4672 18.3497 66.4002 18.3253C67.3332 18.3009 68.1087 19.0134 68.1323 19.9166Z" fill="#FEB69E"/>
<path d="M64.7622 17.3464C64.7622 17.3464 64.8966 20.4217 65.6345 21.0042C66.0143 21.3041 66.5123 20.6159 66.5123 20.1319V17.3464C66.5123 16.8568 66.1184 16.4741 65.6345 16.4741C65.1505 16.4741 64.7622 16.8568 64.7622 17.3464Z" fill="#272D4F"/>
<path d="M60.9688 28.1055L60.0498 29.4835L61.5588 31.5039L62.8689 29.6979L60.9688 28.1055Z" fill="#F2F6FF"/>
<path d="M62.8687 29.698L63.8012 31.8329L66.923 29.4738L66.4504 28.0415L62.8687 29.698Z" fill="#F2F6FF"/>
<path d="M40.2891 48.1738V48.9658C40.2891 49.5238 40.7415 49.9762 41.2995 49.9762H59.7327C60.2304 49.9762 60.6339 49.5728 60.6339 49.075C60.6339 48.5773 60.2304 48.1738 59.7327 48.1738H40.2891Z" fill="#41506C"/>
<path d="M53.4457 43.5975C52.931 44.1613 52.8265 46.5877 52.8265 46.5877C52.7947 46.9638 53.0652 47.2981 53.4396 47.3454C53.62 47.3682 53.8749 47.209 54.0944 46.9998C54.4833 46.629 55.0576 46.5271 55.5673 46.6972L57.7482 47.425L59.3221 43.0151L57.2459 41.441C57.0031 41.257 56.6647 41.2672 56.4335 41.4655C56.0916 41.7588 56.1464 42.303 56.54 42.5222L56.6965 42.6094C56.6965 42.6094 54.0185 42.9702 53.4457 43.5975Z" fill="#FEB69E"/>
<path d="M37.6379 36.0034L40.2873 48.1718H56.1316L53.3737 35.5593C53.2705 35.1099 52.8676 34.7949 52.4131 34.7949H38.5985C37.9632 34.7949 37.4933 35.3889 37.6379 36.0034Z" fill="#5E6D84"/>
<path d="M44.8307 42.6271C44.9945 43.4713 45.8324 44.1517 46.7018 44.1517C47.5648 44.1517 48.1381 43.4713 47.9743 42.6271C47.8042 41.7892 46.9727 41.1025 46.1033 41.1025C45.2402 41.1025 44.6669 41.7892 44.8307 42.6271Z" fill="#41506C"/>
<path d="M71.0532 39.3276L67.1723 39.6028C67.0444 41.6586 66.8761 44.0401 66.8761 44.0401L59.3223 43.0147L57.7273 47.3615L67.8525 51.6409C68.9477 51.9716 70.0523 51.9331 71.0532 51.6161V39.3276Z" fill="#FEB69E"/>
<path d="M71.0532 29.9002C70.3491 29.6322 69.5883 29.479 68.79 29.479H66.7703V41.1293H71.0532V29.9002Z" fill="#FF4F5A"/>
<path d="M66.9125 35.4316V40.9503H67.1686C67.2463 40.9503 67.3093 41.0135 67.3093 41.0909C67.3093 41.1684 67.2463 41.2316 67.1686 41.2316H66.7718C66.694 41.2316 66.6311 41.1684 66.6311 41.0909V35.4316H66.9125Z" fill="#F73F4B"/>
<path d="M45.1596 50.55H48.8387C49.0855 50.55 49.2855 50.35 49.2855 50.1032C49.2855 49.1272 48.4942 48.3359 47.5182 48.3359H46.4802C45.5041 48.3359 44.7129 49.1272 44.7129 50.1032C44.7129 50.35 44.9129 50.55 45.1596 50.55Z" fill="#FEB69E"/>
</svg>
