<svg width="161" height="48" viewBox="0 0 161 48" fill="none" xmlns="http://www.w3.org/2000/svg">
<path d="M159.87 42.1228C159.87 42.723 159.752 43.3172 159.522 43.8717C159.292 44.4261 158.955 44.9298 158.53 45.3539C158.106 45.7781 157.601 46.1144 157.047 46.3436C156.492 46.5729 155.897 46.6905 155.297 46.6899H5.64059C4.42762 46.6912 3.2638 46.2107 2.4051 45.3543C1.54639 44.4978 1.0631 43.3354 1.06152 42.1228V5.7015C1.0631 4.4883 1.5462 3.32532 2.40473 2.4679C3.26327 1.61049 4.42707 1.12873 5.64059 1.12842H155.296C155.896 1.12842 156.491 1.24671 157.046 1.47655C157.601 1.70638 158.105 2.04325 158.53 2.46791C158.954 2.89258 159.291 3.39672 159.521 3.95155C159.751 4.50637 159.869 5.10101 159.869 5.7015L159.87 42.1228Z" fill="white"/>
<path d="M155.297 47.7522H5.64064C4.14639 47.7518 2.7133 47.1589 1.65582 46.1035C0.598339 45.0481 0.00284313 43.6164 0 42.1226L0 5.70246C0.00221051 4.20787 0.597314 2.77519 1.65476 1.71869C2.71221 0.662192 4.14565 0.068156 5.64064 0.0668945L155.296 0.0668945C156.791 0.0687855 158.224 0.663024 159.281 1.71939C160.338 2.77575 160.934 4.20807 160.936 5.70246V42.1226C160.939 45.2277 158.404 47.7522 155.297 47.7522Z" fill="#A6A6A6"/>
<path d="M159.87 42.1228C159.87 42.723 159.752 43.3172 159.522 43.8717C159.292 44.4261 158.955 44.9298 158.53 45.3539C158.106 45.7781 157.601 46.1144 157.047 46.3436C156.492 46.5729 155.897 46.6905 155.297 46.6899H5.64059C4.42762 46.6912 3.2638 46.2107 2.4051 45.3543C1.54639 44.4978 1.0631 43.3354 1.06152 42.1228V5.7015C1.0631 4.4883 1.5462 3.32532 2.40473 2.4679C3.26327 1.61049 4.42707 1.12873 5.64059 1.12842H155.296C155.896 1.12842 156.491 1.24671 157.046 1.47655C157.601 1.70638 158.105 2.04325 158.53 2.46791C158.954 2.89258 159.291 3.39672 159.521 3.95155C159.751 4.50637 159.869 5.10101 159.869 5.7015L159.87 42.1228Z" fill="black"/>
<path d="M35.9359 23.6586C35.9013 19.8153 39.0836 17.9455 39.2291 17.8584C37.4268 15.2315 34.6334 14.8725 33.6517 14.8439C31.3055 14.5971 29.0297 16.2474 27.8346 16.2474C26.6155 16.2474 24.7751 14.8678 22.7915 14.9083C20.239 14.9477 17.851 16.4251 16.5414 18.7194C13.8385 23.3974 15.8543 30.2719 18.4438 34.0532C19.7392 35.9063 21.2528 37.9729 23.234 37.9001C25.1723 37.8214 25.8963 36.6659 28.2353 36.6659C30.5529 36.6659 31.2328 37.9001 33.2533 37.8536C35.3335 37.8214 36.6432 35.9934 37.8932 34.1248C39.3902 32.0034 39.9913 29.9118 40.0152 29.8045C39.9675 29.7878 35.9764 28.2638 35.9359 23.6586ZM32.119 12.3564C33.1615 11.0531 33.8748 9.27989 33.6768 7.48047C32.1679 7.54725 30.2809 8.52387 29.1943 9.79861C28.2329 10.9219 27.3741 12.7631 27.596 14.4945C29.2909 14.6209 31.0312 13.6395 32.119 12.3564Z" fill="white"/>
<path d="M155.297 0.0668945H75.1367L106.534 47.7522H155.297C156.792 47.7509 158.225 47.1572 159.282 46.1012C160.34 45.0452 160.935 43.6131 160.938 42.119V5.70246C160.935 4.20797 160.34 2.77547 159.283 1.71904C158.225 0.662608 156.792 0.0684709 155.297 0.0668945Z" fill="url(#paint0_linear_89_2068)"/>
<path d="M64.0092 37.634H61.3004L59.8166 32.9726H54.6591L53.2456 37.634H50.6084L55.7194 21.7647H58.8755L64.0092 37.634ZM59.3693 31.017L58.0275 26.8732C57.8855 26.4499 57.6183 25.453 57.2271 23.8837H57.1794C57.022 24.5586 56.7703 25.5555 56.4256 26.8732L55.1064 31.017H59.3693ZM77.1274 31.7718C77.1274 33.7179 76.599 35.2562 75.541 36.3854C74.5939 37.3907 73.4167 37.8927 72.0128 37.8927C70.4967 37.8927 69.4065 37.3525 68.7445 36.2698V42.2738H66.2016V29.9521C66.2016 28.7299 66.1693 27.4766 66.1073 26.1911H68.3438L68.4857 28.0048H68.5334C69.3815 26.6383 70.6685 25.955 72.3956 25.955C73.7459 25.955 74.873 26.488 75.7748 27.5553C76.6753 28.6249 77.1274 30.0296 77.1274 31.7718ZM74.5367 31.8648C74.5367 30.7511 74.2862 29.8329 73.7828 29.1091C73.233 28.3566 72.4946 27.9798 71.569 27.9798C70.9416 27.9798 70.3715 28.1897 69.8622 28.6035C69.3517 29.0208 69.0177 29.5658 68.8614 30.2407C68.7917 30.4931 68.752 30.7529 68.7434 31.0146V32.9237C68.7434 33.7549 68.9986 34.4572 69.5091 35.032C70.0196 35.6044 70.6828 35.8918 71.4987 35.8918C72.4565 35.8918 73.202 35.5209 73.7351 34.7852C74.2695 34.047 74.5367 33.074 74.5367 31.8648ZM90.292 31.7718C90.292 33.7179 89.7636 35.2562 88.7057 36.3854C87.7574 37.3907 86.5813 37.8927 85.1762 37.8927C83.6602 37.8927 82.57 37.3525 81.908 36.2698V42.2738H79.365V29.9521C79.365 28.7299 79.3328 27.4766 79.2708 26.1911H81.5072L81.6492 28.0048H81.6969C82.5438 26.6383 83.8308 25.955 85.5591 25.955C86.9081 25.955 88.0353 26.488 88.9394 27.5553C89.8388 28.6249 90.292 30.0296 90.292 31.7718ZM87.7001 31.8648C87.7001 30.7511 87.4485 29.8329 86.9451 29.1091C86.3952 28.3566 85.6593 27.9798 84.7337 27.9798C84.1063 27.9798 83.5362 28.1897 83.0245 28.6035C82.514 29.0208 82.1812 29.5658 82.0249 30.2407C81.9474 30.5555 81.9056 30.8119 81.9056 31.0146V32.9237C81.9056 33.7549 82.1621 34.4572 82.6702 35.032C83.1807 35.6032 83.8439 35.8918 84.6621 35.8918C85.6211 35.8918 86.3666 35.5209 86.8986 34.7852C87.433 34.047 87.7001 33.074 87.7001 31.8648ZM105.011 33.1825C105.011 34.5336 104.539 35.6318 103.6 36.4796C102.567 37.405 101.125 37.8689 99.276 37.8689C97.568 37.8689 96.1987 37.5397 95.1657 36.8803L95.7538 34.7613C96.869 35.4219 98.094 35.7511 99.4275 35.7511C100.386 35.7511 101.132 35.534 101.664 35.1036C102.197 34.6719 102.467 34.0947 102.467 33.3745C102.467 32.7294 102.244 32.1892 101.806 31.7492C101.366 31.3103 100.638 30.9013 99.616 30.5257C96.8368 29.4895 95.446 27.9738 95.446 25.98C95.446 24.6779 95.9374 23.6118 96.9179 22.7783C97.8984 21.946 99.1985 21.5298 100.816 21.5298C102.26 21.5298 103.464 21.7814 104.419 22.2834L103.781 24.3559C102.882 23.8694 101.867 23.6261 100.731 23.6261C99.8342 23.6261 99.1305 23.8467 98.6272 24.2856C98.2037 24.6779 97.989 25.1561 97.989 25.7237C97.989 26.3497 98.2335 26.8696 98.7202 27.2774C99.1424 27.6531 99.913 28.0621 101.027 28.5009C102.394 29.0518 103.398 29.6934 104.041 30.4303C104.689 31.1672 105.011 32.0866 105.011 33.1825ZM113.44 28.099H110.637V33.6547C110.637 35.0678 111.131 35.7725 112.121 35.7725C112.575 35.7725 112.952 35.7344 113.251 35.6545L113.321 37.5851C112.82 37.7723 112.16 37.8665 111.343 37.8665C110.339 37.8665 109.554 37.56 108.988 36.9471C108.423 36.3342 108.14 35.3075 108.14 33.8622V28.0943H106.47V26.1863H108.14V24.0912L110.637 23.3376V26.1863H113.44V28.099ZM126.062 31.8183C126.062 33.5772 125.559 35.0213 124.555 36.1505C123.504 37.3132 122.106 37.8927 120.363 37.8927C118.681 37.8927 117.344 37.3358 116.347 36.2233C115.35 35.1083 114.851 33.7036 114.851 32.0091C114.851 30.2359 115.367 28.7835 116.394 27.6543C117.423 26.5238 118.809 25.9586 120.552 25.9586C122.231 25.9586 123.58 26.5167 124.601 27.6304C125.577 28.7108 126.062 30.106 126.062 31.8183ZM123.426 31.8768C123.426 30.8286 123.2 29.9295 122.745 29.177C122.212 28.2684 121.449 27.814 120.46 27.814C119.441 27.814 118.66 28.2684 118.128 29.177C117.672 29.9295 117.446 30.8441 117.446 31.9245C117.446 32.9738 117.672 33.8753 118.128 34.6254C118.678 35.534 119.445 35.9884 120.438 35.9884C121.41 35.9884 122.173 35.5245 122.724 34.6027C123.191 33.8324 123.426 32.9273 123.426 31.8768ZM134.332 28.427C134.067 28.3792 133.799 28.3557 133.53 28.3566C132.636 28.3566 131.944 28.6929 131.457 29.3702C131.035 29.9664 130.823 30.7201 130.823 31.6299V37.634H128.28V29.7947C128.282 28.5935 128.257 27.3924 128.206 26.1923H130.421L130.514 28.3817H130.584C130.854 27.6292 131.276 27.0223 131.855 26.5679C132.386 26.1709 133.031 25.9559 133.694 25.955C133.929 25.955 134.141 25.9717 134.329 26.0015L134.332 28.427ZM145.705 31.3712C145.711 31.7576 145.68 32.1438 145.612 32.5243H137.983C138.011 33.6547 138.381 34.5204 139.09 35.1167C139.733 35.6485 140.564 35.9156 141.585 35.9156C142.715 35.9156 143.745 35.7367 144.672 35.3754L145.07 37.1391C143.987 37.6113 142.709 37.8462 141.233 37.8462C139.458 37.8462 138.065 37.3239 137.051 36.2817C136.04 35.2383 135.533 33.836 135.533 32.0795C135.533 30.3552 136.004 28.9183 136.947 27.7723C137.935 26.5488 139.27 25.9371 140.949 25.9371C142.599 25.9371 143.848 26.5488 144.696 27.7723C145.367 28.7418 145.705 29.9438 145.705 31.3712ZM143.28 30.7117C143.298 29.9569 143.131 29.307 142.786 28.7573C142.346 28.049 141.668 27.696 140.761 27.696C139.929 27.696 139.252 28.0406 138.737 28.7322C138.313 29.282 138.062 29.9426 137.984 30.7093L143.28 30.7117Z" fill="white"/>
<path d="M53.9272 16.1541C53.2198 16.1541 52.6079 16.1196 52.0986 16.0611V8.38885C52.811 8.27884 53.5308 8.22461 54.2516 8.22667C57.1679 8.22667 58.511 9.6612 58.511 11.9996C58.511 14.697 56.9246 16.1541 53.9272 16.1541ZM54.3542 9.21045C53.9606 9.21045 53.6254 9.2343 53.3475 9.29154V15.1239C53.4978 15.1477 53.7864 15.1584 54.192 15.1584C56.1028 15.1584 57.1906 14.0709 57.1906 12.0342C57.1906 10.2181 56.2065 9.21045 54.3542 9.21045ZM62.6964 16.2126C61.0528 16.2126 59.9876 14.9855 59.9876 13.3197C59.9876 11.5834 61.0755 10.3457 62.7895 10.3457C64.4093 10.3457 65.4983 11.5143 65.4983 13.2278C65.4983 14.9855 64.3759 16.2126 62.6964 16.2126ZM62.7442 11.2591C61.8412 11.2591 61.2627 12.1034 61.2627 13.2839C61.2627 14.4418 61.8531 15.286 62.7322 15.286C63.6113 15.286 64.2017 14.3833 64.2017 13.26C64.2017 12.1153 63.6232 11.2591 62.7442 11.2591ZM74.8711 10.4613L73.1118 16.085H71.9655L71.2367 13.6428C71.0555 13.0455 70.9046 12.4393 70.7847 11.8267H70.7608C70.669 12.4396 70.4948 13.0538 70.3099 13.6428L69.5346 16.085H68.3764L66.7209 10.4613H68.0055L68.6424 13.1348C68.7927 13.7716 68.9191 14.3726 69.0241 14.9402H69.048C69.1398 14.4668 69.2901 13.8754 69.5108 13.1468L70.3099 10.4625H71.3286L72.0931 13.0895C72.278 13.7263 72.4283 14.3511 72.5452 14.9414H72.5786C72.6597 14.3631 72.7873 13.749 72.9603 13.0895L73.6437 10.4625L74.8711 10.4613ZM81.3479 16.085H80.0978V12.8558C80.0978 11.8613 79.7161 11.3628 78.9635 11.3628C78.2228 11.3628 77.7135 11.9996 77.7135 12.7401V16.085H76.4635V12.0688C76.4635 11.5715 76.4515 11.0385 76.4169 10.4601H77.5167L77.5751 11.3283H77.6097C77.9461 10.7273 78.6283 10.3457 79.3929 10.3457C80.5738 10.3457 81.3491 11.2484 81.3491 12.7175L81.3479 16.085ZM84.795 16.085H83.5438V7.88086H84.795V16.085ZM89.3526 16.2126C87.7101 16.2126 86.6438 14.9855 86.6438 13.3197C86.6438 11.5834 87.7316 10.3457 89.4444 10.3457C91.0654 10.3457 92.1532 11.5143 92.1532 13.2278C92.1544 14.9855 91.0308 16.2126 89.3526 16.2126ZM89.3991 11.2591C88.4962 11.2591 87.9177 12.1034 87.9177 13.2839C87.9177 14.4418 88.5093 15.286 89.386 15.286C90.2663 15.286 90.8555 14.3833 90.8555 13.26C90.8567 12.1153 90.2794 11.2591 89.3991 11.2591ZM97.0818 16.085L96.9911 15.4375H96.9577C96.576 15.9586 96.019 16.2126 95.3129 16.2126C94.305 16.2126 93.5893 15.5066 93.5893 14.5574C93.5893 13.1694 94.7928 12.4516 96.8766 12.4516V12.3478C96.8766 11.6073 96.4842 11.2364 95.7089 11.2364C95.1542 11.2364 94.6676 11.376 94.2394 11.6538L93.9853 10.8322C94.5054 10.5078 95.1542 10.3457 95.9164 10.3457C97.3859 10.3457 98.1278 11.1208 98.1278 12.6722V14.7435C98.1278 15.3111 98.1529 15.7511 98.2089 16.0862L97.0818 16.085ZM96.91 13.2839C95.5216 13.2839 94.825 13.6202 94.825 14.4179C94.825 15.0082 95.1841 15.2968 95.6826 15.2968C96.3184 15.2968 96.91 14.8114 96.91 14.152V13.2839ZM104.198 16.085L104.139 15.1823H104.105C103.746 15.8644 103.142 16.2126 102.299 16.2126C100.943 16.2126 99.9385 15.0201 99.9385 13.3423C99.9385 11.5834 100.98 10.3445 102.402 10.3445C103.154 10.3445 103.687 10.5985 103.988 11.1088H104.013V7.88086H105.264V14.5694C105.264 15.1131 105.277 15.6223 105.311 16.085H104.198ZM104.013 12.7759C104.013 11.9889 103.492 11.3175 102.696 11.3175C101.769 11.3175 101.203 12.1391 101.203 13.2958C101.203 14.4298 101.791 15.2061 102.671 15.2061C103.457 15.2061 104.013 14.5229 104.013 13.7132V12.7759ZM113.197 16.2126C111.555 16.2126 110.49 14.9855 110.49 13.3197C110.49 11.5834 111.578 10.3457 113.29 10.3457C114.911 10.3457 115.999 11.5143 115.999 13.2278C116 14.9855 114.878 16.2126 113.197 16.2126ZM113.244 11.2591C112.342 11.2591 111.764 12.1034 111.764 13.2839C111.764 14.4418 112.354 15.286 113.232 15.286C114.112 15.286 114.701 14.3833 114.701 13.26C114.704 12.1153 114.125 11.2591 113.244 11.2591ZM122.722 16.085H121.47V12.8558C121.47 11.8613 121.089 11.3628 120.336 11.3628C119.595 11.3628 119.087 11.9996 119.087 12.7401V16.085H117.836V12.0688C117.836 11.5715 117.824 11.0385 117.79 10.4601H118.889L118.948 11.3283H118.982C119.317 10.7273 120.001 10.3445 120.764 10.3445C121.945 10.3445 122.722 11.2472 122.722 12.7163V16.085ZM131.132 11.3986H129.757V14.1293C129.757 14.8246 129.998 15.1716 130.484 15.1716C130.705 15.1716 130.89 15.1477 131.039 15.1131L131.073 16.0623C130.831 16.1553 130.507 16.2018 130.104 16.2018C129.119 16.2018 128.529 15.6581 128.529 14.2343V11.3986H127.709V10.4613H128.529V9.43106L129.757 9.0602V10.4601H131.132V11.3986ZM137.749 16.085H136.501V12.8797C136.501 11.8732 136.12 11.364 135.366 11.364C134.719 11.364 134.115 11.8041 134.115 12.6948V16.085H132.866V7.88086H134.115V11.2591H134.14C134.534 10.6462 135.104 10.3445 135.831 10.3445C137.022 10.3445 137.749 11.2698 137.749 12.7401V16.085ZM144.529 13.5737H140.778C140.802 14.6385 141.507 15.2395 142.55 15.2395C143.105 15.2395 143.616 15.1465 144.066 14.9736L144.261 15.8417C143.729 16.0731 143.103 16.1887 142.374 16.1887C140.614 16.1887 139.573 15.0774 139.573 13.3542C139.573 11.63 140.64 10.3337 142.233 10.3337C143.67 10.3337 144.572 11.3986 144.572 13.0072C144.58 13.1971 144.566 13.3872 144.529 13.5737ZM143.383 12.6829C143.383 11.8148 142.945 11.2019 142.146 11.2019C141.428 11.2019 140.86 11.8267 140.779 12.6829H143.383Z" fill="white"/>
<defs>
<linearGradient id="paint0_linear_89_2068" x1="118.036" y1="47.8788" x2="118.036" y2="-124.097" gradientUnits="userSpaceOnUse">
<stop stop-color="#1A1A1A" stop-opacity="0.1"/>
<stop offset="0.123" stop-color="#212121" stop-opacity="0.151"/>
<stop offset="0.308" stop-color="#353535" stop-opacity="0.227"/>
<stop offset="0.532" stop-color="#575757" stop-opacity="0.318"/>
<stop offset="0.783" stop-color="#858585" stop-opacity="0.421"/>
<stop offset="1" stop-color="#B3B3B3" stop-opacity="0.51"/>
</linearGradient>
</defs>
</svg>
