<?xml version="1.0" encoding="UTF-8"?><svg xmlns="http://www.w3.org/2000/svg" xmlns:xlink="http://www.w3.org/1999/xlink" viewBox="0 0 278.92 327.75"><defs><style>.cls-1{fill:url(#linear-gradient-2);}.cls-2{fill:#36d7f2;}.cls-3{fill:#8fecff;}.cls-4{fill:#cff7ff;}.cls-5{fill:url(#linear-gradient-6);}.cls-6{isolation:isolate;}.cls-7{fill:url(#linear-gradient-11);}.cls-8{fill:#56e0ff;}.cls-9{fill:url(#linear-gradient-10);}.cls-10{fill:url(#linear-gradient-5);}.cls-11{fill:#999;}.cls-12{fill:url(#linear-gradient-7);}.cls-13{opacity:.67;}.cls-13,.cls-14{fill:#e1d6ff;}.cls-15{fill:#ffe8d9;}.cls-16{fill:#f7f7f7;}.cls-17{mix-blend-mode:overlay;}.cls-18{fill:url(#linear-gradient-9);}.cls-19{fill:#09beeb;}.cls-20{fill:url(#linear-gradient-3);}.cls-21{fill:url(#linear-gradient);}.cls-22{fill:url(#linear-gradient-4);}.cls-23{fill:url(#linear-gradient-8);}.cls-24{fill:url(#linear-gradient-12);}.cls-25{fill:url(#linear-gradient-13);}.cls-26{fill:#236696;}</style><linearGradient id="linear-gradient" x1="90.73" y1="123.91" x2="164.3" y2="123.91" gradientUnits="userSpaceOnUse"><stop offset="0" stop-color="#c9f9ff"/><stop offset=".14" stop-color="#c2f7ff"/><stop offset=".33" stop-color="#b0f3ff"/><stop offset=".55" stop-color="#92edff"/><stop offset=".8" stop-color="#69e5ff"/><stop offset="1" stop-color="#43ddff"/></linearGradient><linearGradient id="linear-gradient-2" x1="236.67" y1="177.07" x2="140.38" y2="101.02" gradientUnits="userSpaceOnUse"><stop offset=".22" stop-color="#12c2e9"/><stop offset=".51" stop-color="#7d1edc"/></linearGradient><linearGradient id="linear-gradient-3" x1="264.87" y1="321.8" x2="162.05" y2="9.35" gradientUnits="userSpaceOnUse"><stop offset="0" stop-color="#7d1edc"/><stop offset="1" stop-color="#12c2e9"/></linearGradient><linearGradient id="linear-gradient-4" x1="74.05" y1="53.32" x2="201.52" y2="337.24" xlink:href="#linear-gradient"/><linearGradient id="linear-gradient-5" x1="208.35" y1="-6.93" x2="335.79" y2="276.91" xlink:href="#linear-gradient"/><linearGradient id="linear-gradient-6" x1="148.21" y1="20.07" x2="275.66" y2="303.93" xlink:href="#linear-gradient"/><linearGradient id="linear-gradient-7" x1="247.5" y1="159.3" x2="195.03" y2="68.48" xlink:href="#linear-gradient-3"/><linearGradient id="linear-gradient-8" x1="236.71" y1="164.48" x2="176.17" y2="78.71" gradientUnits="userSpaceOnUse"><stop offset="0" stop-color="#a52eeb"/><stop offset="1" stop-color="#1cdbf2"/></linearGradient><linearGradient id="linear-gradient-9" x1="179.57" y1="246.49" x2="194.07" y2="216.75" xlink:href="#linear-gradient"/><linearGradient id="linear-gradient-10" x1="162.51" y1="260.58" x2="186.12" y2="259.23" xlink:href="#linear-gradient"/><linearGradient id="linear-gradient-11" x1="155.67" y1="278.56" x2="164.64" y2="245.83" xlink:href="#linear-gradient"/><linearGradient id="linear-gradient-12" x1="-528.57" y1="227.53" x2="-496.48" y2="246.95" gradientTransform="translate(-489.47) rotate(-180) scale(1 -1)" gradientUnits="userSpaceOnUse"><stop offset="0" stop-color="#12c2e9"/><stop offset="1" stop-color="#7d1edc"/></linearGradient><linearGradient id="linear-gradient-13" x1="-488.89" y1="233.76" x2="-658.67" y2="180.65" xlink:href="#linear-gradient-12"/></defs><g class="cls-6"><g id="Layer_2"><g id="graphics"><path class="cls-21" d="m93.34,152.29h-2.61v-47.46c.01-3.94,1.42-6.92,3.98-8.38,2.56-1.48,5.88-1.19,9.32.79l60.28,34.8-1.31,2.26-60.28-34.8c-2.6-1.51-4.99-1.79-6.71-.79-1.71.98-2.66,3.16-2.66,6.12v47.46Z"/><path class="cls-1" d="m263.45,49.92L180.66,2.12c-4.31-2.49-8.21-2.71-11.04-1.08-5.24,3.05-3.63,2.29-8.87,5.34h.03c-2.8,1.6-4.54,5.05-4.56,9.95v230.42c-.03,9.83,6.26,21.85,14.81,26.79l82.8,47.8c4.42,2.55,8.42,2.72,11.26.93-.07.04-.15.09-.22.14,5.24-3.04,3.63-2.29,8.87-5.34,2.79-1.62,5.17-5.06,5.18-9.94V76.72c.03-9.84-6.91-21.85-15.47-26.79Z"/><path class="cls-20" d="m254.58,55.26c8.56,4.94,15.5,16.96,15.47,26.79v230.42c-.03,9.83-7.67,13.81-16.22,8.87l-82.8-47.8c-8.56-4.94-14.84-16.96-14.81-26.79V16.33c.03-9.84,7.01-13.81,15.57-8.87l82.79,47.8Z"/><g class="cls-6"><path class="cls-3" d="m218.15,40.73c.66.38,1.18,1.29,1.18,2.04,0,.75-.53,1.05-1.18.67l-14.89-8.59c-.65-.38-1.18-1.29-1.18-2.04,0-.75.53-1.05,1.18-.67l14.89,8.6Z"/><path class="cls-11" d="m219.33,42.76c0,.75-.53,1.05-1.18.67.65.38,1.18.08,1.18-.67Z"/></g><g class="cls-6"><path class="cls-11" d="m223.06,44.63c0,1.04.73,2.31,1.64,2.83-.91-.52-1.64-1.79-1.64-2.83h0Z"/><path class="cls-11" d="m223.06,44.63c0-1.04.74-1.46,1.65-.94-.91-.52-1.65-.1-1.65.94Z"/><path class="cls-3" d="m224.71,43.69c.91.53,1.64,1.8,1.64,2.84,0,1.04-.74,1.46-1.65.94-.91-.53-1.64-1.79-1.64-2.84,0-1.04.74-1.46,1.65-.94Z"/></g><g class="cls-6"><path class="cls-22" d="m161.75,249.25c0,5.66,3.99,12.57,8.91,15.41-4.92-2.84-8.91-9.75-8.91-15.41h0Z"/><path class="cls-10" d="m234.73,57.74c2.12,1.22,4.06.89,4.92-.84-.87,1.73-2.8,2.06-4.92.84Z"/><path class="cls-5" d="m254.17,61.48c4.93,2.85,8.28,9.78,8.26,15.45v230.42c-.02,5.67-4.04,7.96-8.97,5.11l-82.79-47.8c-4.93-2.85-8.28-9.78-8.26-15.44V18.8c.02-5.66,4.04-7.96,8.97-5.12l11.59,6.69c.88.51,1.68,1.58,2.04,2.71l.87,2.76c.85,2.72,2.78,5.28,4.9,6.51l43.97,25.39c2.12,1.22,4.06.89,4.92-.84l.88-1.76c.36-.72,1.16-.86,2.05-.35l11.58,6.68Z"/></g><g class="cls-6"><path class="cls-4" d="m232.86,198.82c5.61,3.24,10.15,11.1,10.13,17.56l-.06,21.05c-.02,6.45-4.58,9.05-10.21,5.8l-40.64-23.47c-5.62-3.24-10.15-11.1-10.14-17.54l.06-21.05c.01-6.46,4.58-9.06,10.2-5.81l40.65,23.47Z"/></g><g class="cls-6"><path class="cls-12" d="m248.68,99.52c2.32,1.34,4.2,4.6,4.2,7.28l-.03,51.3c0,2.67-1.9,3.75-4.23,2.4l-54.21-31.25c-2.33-1.34-4.21-4.6-4.2-7.27l.02-51.31c0-2.67,1.9-3.75,4.23-2.41l54.21,31.25Z"/></g><g class="cls-6"><path class="cls-23" d="m232.74,105.56c2.33,1.34,4.21,4.6,4.2,7.27l-.02,51.3c0,2.67-1.9,3.75-4.22,2.4l-54.21-31.26c-2.33-1.34-4.21-4.6-4.2-7.27l.03-51.3c0-2.68,1.9-3.75,4.22-2.41l54.2,31.26Z"/></g><path class="cls-8" d="m209.44,200.74c1.19,2.13,1.78,4.27,1.77,6.44v3.21c-.02,2.17-.61,3.64-1.81,4.39-1.2.74-2.74.57-4.63-.52-1.86-1.07-3.37-2.66-4.52-4.76-1.16-2.1-1.73-4.25-1.72-6.42v-3.21c.02-2.17.6-3.63,1.76-4.4,1.17-.76,2.67-.62,4.53.45,1.9,1.1,3.43,2.71,4.63,4.84Zm-.82,8.16v-3.23c.01-1.48-.32-2.9-1.02-4.26-.69-1.35-1.62-2.37-2.8-3.05-1.14-.66-2.04-.69-2.7-.13-.66.58-1,1.61-1,3.09v3.23c-.01,1.5.31,2.92.97,4.26.66,1.34,1.56,2.33,2.71,3,1.18.68,2.12.74,2.81.19.69-.55,1.03-1.59,1.04-3.1"/><polygon class="cls-8" points="226.04 208.42 220.36 213.66 226.42 226.49 223.26 224.66 218.38 214.13 216.6 213.1 216.57 220.8 213.98 219.3 214.03 201.49 216.62 202.99 216.6 210.54 218.07 211.39 222.97 206.65 226.04 208.42"/><g class="cls-17"><g class="cls-17"><path class="cls-14" d="m198.33,115.53c.65.37,1.17,1.28,1.17,2.03,0,.75-.53,1.05-1.18.67l-12-6.93c-.65-.37-1.18-1.28-1.17-2.03,0-.75.53-1.05,1.18-.67l12,6.93Z"/></g><g class="cls-17"><path class="cls-14" d="m194.41,106.68c.65.37,1.17,1.28,1.17,2.03,0,.75-.53,1.05-1.18.68l-8.1-4.68c-.65-.37-1.17-1.29-1.17-2.04,0-.75.53-1.05,1.18-.67l8.1,4.68Z"/></g><g class="cls-17"><path class="cls-14" d="m210.99,122.84c.65.37,1.18,1.28,1.17,2.03,0,.75-.53,1.05-1.18.67l-6.8-3.92c-.65-.38-1.18-1.29-1.18-2.03,0-.75.53-1.05,1.18-.67l6.8,3.92Z"/></g><g class="cls-17"><path class="cls-14" d="m223.28,136.02c.65.38,1.18,1.28,1.17,2.03,0,.75-.53,1.05-1.18.67l-10.7-6.18c-.65-.38-1.18-1.28-1.18-2.03,0-.75.54-1.04,1.18-.67l10.7,6.18Z"/></g><g class="cls-17"><path class="cls-14" d="m223.29,129.94c.65.38,1.18,1.28,1.17,2.03,0,.75-.53,1.05-1.18.67l-6.8-3.93c-.65-.37-1.17-1.28-1.17-2.03,0-.75.53-1.05,1.18-.67l6.8,3.92Z"/></g><g class="cls-17"><path class="cls-14" d="m207.07,126.66c.65.37,1.17,1.28,1.17,2.03,0,.75-.53,1.05-1.18.67l-10.7-6.18c-.65-.37-1.18-1.28-1.17-2.03,0-.75.53-1.05,1.18-.67l10.7,6.18Z"/></g><g class="cls-17"><path class="cls-14" d="m223.31,123.37c.65.37,1.17,1.28,1.17,2.03,0,.75-.53,1.05-1.18.68l-23.05-13.31c-.65-.38-1.18-1.29-1.17-2.03,0-.75.53-1.05,1.18-.67l23.05,13.31Z"/></g><g class="cls-17"><path class="cls-14" d="m190.51,117.1c.66.38,1.18,1.29,1.18,2.03,0,.75-.54,1.05-1.18.67l-4.2-2.42c-.65-.38-1.17-1.28-1.17-2.03,0-.75.53-1.05,1.18-.67l4.2,2.42Z"/></g></g><path class="cls-26" d="m185.17,311.19l2.43,1.13s4.88,1.79,5.88,2.38c.55.32.83,1.01.91,1.46.05.29.07,1.1-.1,1.34-.43.6-1.36,1.3-2.21,1.46-1.64.31-5.12-.36-5.12-.36-.44-.21-7.48-2.48-7.48-2.48,0,0-.26-.88-.33-1.41l-.43-3.52h6.45Z"/><path class="cls-26" d="m194.4,316.1c-.05.69-1.36,1.5-2.19,1.76-2.85.89-11.49-1.83-11.89-1.98-.95-.35-1.09-.67-1.09-.67,0,0,.19,1,.23.97,0,0,.19.99.73,1.23.45.2,3.87.92,4.75,1.11,0,0,5.07,1.13,7.46.47.83-.23,1.74-.6,2.13-1.47.12-.27-.13-1.53-.14-1.43Z"/><path class="cls-26" d="m168.79,319.18l2.03,4.38s2.18,3.84-.94,4.08c-.62.05-3.76.05-3.76.05-.74,0-2.43.05-3.42-1.23-.61-.8-.63-4.79-.59-5.3.15-1.93.3-2.72.3-2.72l6.38.74Z"/><path class="cls-19" d="m185.83,268.75l.97,42.72c.19,1.47-.4,1.65-.51,1.76-1.25,1.2-6.84,3.42-7.57,1.71l-4.55-38.73,11.66-7.47Z"/><path class="cls-2" d="m181.29,273.34l-11.46,45.78c.23.98.38,2.27-.61,1.65-3.15-1.97-7.11.64-7.11.64-.5-.34.13-2.79.09-3.16l4.27-43.07,14.81-1.84Z"/><path class="cls-18" d="m194.66,214.49s-.94,16.27-2.47,18.79c-.73,1.21-10.34,13.32-10.34,13.32,0,0-1.36.4-4.43-1.39-1.76-1.02-2.6-4.54,1.46-7.96,1.56-1.31,7.63-8.9,7.63-8.9l2.6-14.17s.29-1.15,2.46-1.28c3.11-.19,3.07,1.58,3.07,1.58Z"/><path class="cls-9" d="m162.98,244.95s5.51-4.6,8.48-5.75c1.6-.62,6.67-1,6.67-1,0,0,5.29,3.81,6.6,8.79.1.39,3.1,6.76,1.97,30.03-.09,1.89-4.31,4.06-9.95,4.22-4.9.15-11.54-1.5-11.54-1.5,0,0,.94-8.55.66-16.62-.24-6.96-2.89-18.18-2.89-18.18Z"/><path class="cls-16" d="m156.98,277.56c-.24.9.81,1.83,1.64,2.05.29.08.15,2.41,1.35,2.65,0,0,.16-.6.4-1.64.02-.08.39-.93.02-1.7-.98-2.03-1.06-2.39-1.89-2.62-.83-.22-1.28.35-1.52,1.25Z"/><path class="cls-16" d="m156.17,276.03l2.39.62.5,1.72-.49,1.8s-.16.49.14,1.16c.11.26.32.72.32.72,0,0-.14,1.86-1.5,1.31-.44-.18-.71-.59-.71-.59-.6-.17-1.59-.57-2.25-.79-1.52-.53-.88-2.34-.88-2.34l.45-1.81c.24-1.02.94-2.08,2.03-1.79Z"/><path class="cls-7" d="m156.44,277.95c-.95-.13-1.51-.59-1.51-.59,0,0-.76-.54-.67-1.33.28-2.36,1.12-12.48,1.94-15.32.9-3.11,3.22-10.57,3.22-10.57,0,0,2.11-6.7,5.92-5.36,2.79.99,2.47,5.77,1.7,8.25-.6,1.95-4.25,10.12-4.25,10.12l-2.98,14.1s-1.15,1.01-3.37.7Z"/><path class="cls-26" d="m162.64,326.46c-.29-.37-.39-1.39-.46-2.48,0,.02.02.02.03.05.3.74.99,1.58,1.89,1.98.72.32,1.83.4,3.76.35,2.32-.06,3.31-.19,3.71-.29,0,.74-.12,1.53-1.39,1.63-.62.05-3.91.05-3.91.05-.74,0-2.63,0-3.62-1.28Z"/><path class="cls-15" d="m171.08,228.44c1.41-.23,1.79,1.1,1.79,1.1l.46,2.83s.03.63-.48.82c-.77.29-1.24-.35-1.72-1.06-.03-.04-.67-1.1-.71-1.16-.55-.9-.68-2.3.65-2.52Z"/><path class="cls-16" d="m177.56,243.65c-.54,3.25-7.59.85-7.53-3.93l-.38-8.64,6.76,1.8-.27,7.74s1.67,1.51,1.42,3.03Z"/><path class="cls-16" d="m169.14,223.88h0s-4.46,3.25-4.46,3.25l5.75,8.11c.46.51,1.03,1.21,1.9,1.41.63.15,1.02.12,2.09.05,0,0,3.88-.66,5.1-2.45.51-.74.16-1.74,0-2.4-.17-.75-1.08-2.77-1.37-3.27l-2.17-4.3s-.96-2.15-1.95-2.58c-1.32-.56-4.89,2.17-4.89,2.17Z"/><path class="cls-26" d="m174.54,222.12c.06.08-.58-.58-2.01.44-1.67,1.2-2.75,3.52-2.94,3.94-.52,1.2.4,3.37.96,4.04,0,0-1.56.53-2.46,1.4-.77.75.99,1.31,1.11,1.37l.67.67c.2.46.5,2.79-.04,2.42-.92-.61-2.96-1.94-3.55-2.29-6.81-4.06-5.07-11.4,1.69-13.87,1.32-.49,3.59-.78,5.14-.21.34.12.53.95,1.43,2.09Z"/><path class="cls-16" d="m167.64,230.89c1.16-.84,2.09.18,2.09.18l1.68,2.32s.31.54-.06.95c-.56.61-1.26.25-2.01-.18-.04-.02-1.09-.69-1.16-.73-.89-.56-1.62-1.76-.53-2.55Z"/><path class="cls-4" d="m189.83,213.71s2.01-1.54,4.32.25c1.04.8-.73,1.42-1.87,1.53-.82.08-4.5-.14-2.46-1.78Z"/><path class="cls-16" d="m193.95,212.76s1.49-.43,2-1.73c.51-1.3,1.33-2.08,2.2-2.6.86-.51-.16-1.28-1.69-.23-.63.43-.98.91-.98.91,0,0,1.45-4.92,1.18-5.58-.28-.67-1.34.98-1.85,3.18,0,0,.67-2.75.47-3.34-.2-.59-1.1.32-2.01,1.06-.9.75-1.18.91-1.33,2.09-.15,1.18-.78,3.68-.97,4.47-.43,1.78-.23,1.24-.56,2.18-.05.16-.68,1.82-.64,1.98.04.15,2.35.74,3.99-.02.34-.16.19-2.37.19-2.37Z"/><path class="cls-24" d="m5.21,200.58l114.36-66.02c1.45-.84,2.77-.92,3.72-.37,1.22.71,1.23.55,2.45,1.26,0,0,0,0,0,0,.94.54,1.54,1.71,1.54,3.36l.13,76.86c.01,3.32-2.32,7.37-5.21,9.04L7.84,290.72c-1.46.85-2.79.92-3.74.36,0,0,0,0,.01,0-1.22-.71-1.23-.54-2.45-1.25C.72,289.29,0,288.13,0,286.48v-76.86c0-3.32,2.33-7.37,5.21-9.04Z"/><path class="cls-25" d="m7.67,201.83c-2.89,1.67-5.23,5.72-5.22,9.04v76.86c0,3.32,2.5,4.66,5.39,2.99l114.35-66.02c2.89-1.67,5.09-5.72,5.08-9.04v-76.86c0-3.32-2.36-4.66-5.25-2.99L7.67,201.83Z"/><path class="cls-13" d="m45.98,206.51l68.99-43.36c1.79-1.13,4.13.16,4.13,2.28v.1c0,.93-.48,1.79-1.26,2.28l-68.99,43.26c-1.79,1.13-4.13-.16-4.13-2.28h0c0-.93.48-1.79,1.26-2.28Z"/><path class="cls-13" d="m46.66,217.23l68.99-43.36c1.79-1.13,4.13.16,4.13,2.28v.1c0,.93-.48,1.79-1.26,2.28l-68.99,43.26c-1.79,1.13-4.13-.16-4.13-2.28h0c0-.93.48-1.79,1.26-2.28Z"/><path class="cls-13" d="m46.66,229.56l68.99-43.36c1.79-1.13,4.13.16,4.13,2.28v.1c0,.93-.48,1.79-1.26,2.28l-68.99,43.26c-1.79,1.13-4.13-.16-4.13-2.28h0c0-.93.48-1.79,1.26-2.28Z"/><path class="cls-13" d="m46.66,242.14l68.99-43.36c1.79-1.13,4.13.16,4.13,2.28v.1c0,.93-.48,1.79-1.26,2.28l-68.99,43.26c-1.79,1.13-4.13-.16-4.13-2.28h0c0-.93.48-1.79,1.26-2.28Z"/><ellipse class="cls-13" cx="24.46" cy="236.07" rx="28.14" ry="14.47" transform="translate(-212.52 249.05) rotate(-87.22)"/></g></g></g></svg>