<svg width="80" height="80" viewBox="0 0 80 80" fill="none" xmlns="http://www.w3.org/2000/svg">
<path d="M35.0351 38.6553V62.5985H44.9688V38.6553H35.0351ZM16.0225 38.6553V62.5985H25.9561V38.6553H16.0225ZM54.2655 38.6553V62.5985H64.1992V38.6553H54.2655Z" fill="#D1DCFF"/>
<path d="M35.035 58.6113V62.5986H44.9687V58.6154L35.035 58.6113ZM54.2654 58.6113V62.5986H64.199V58.6154L54.2654 58.6113ZM22.122 58.6113C20.3441 58.6154 19.3483 61.1956 20.4449 62.5986H25.956V58.6154L22.122 58.6113Z" fill="#BFD2FF"/>
<path d="M13.2002 33.0718V37.8693C13.2002 39.0465 14.1516 39.9979 15.3329 39.9979H26.4639C27.6451 39.9979 28.6006 39.0465 28.6006 37.8652V33.0718H13.2002ZM51.5319 33.0718V37.8693C51.5319 39.0465 52.4834 39.9979 53.6686 39.9979H64.7956C65.9809 39.9979 66.9323 39.0465 66.9323 37.8652V33.0718H51.5319ZM32.3016 33.0718V37.8693C32.3016 39.0465 33.253 39.9979 34.4342 39.9979H45.5653C46.7505 39.9979 47.702 39.0465 47.702 37.8652V33.0718H32.3016Z" fill="#666666"/>
<path d="M11.2006 62.0664H68.7989C70.5728 62.0664 71.9999 63.4936 71.9999 65.2634V68.7991C71.9999 70.573 70.5728 72.0002 68.7989 72.0002H11.2006C10.7799 72.0012 10.3632 71.9191 9.97431 71.7586C9.58547 71.5982 9.23216 71.3624 8.93471 71.065C8.63725 70.7675 8.40151 70.4142 8.24102 70.0254C8.08053 69.6365 7.99846 69.2198 7.99952 68.7991V65.2634C7.99952 63.4895 9.42668 62.0664 11.2006 62.0664Z" fill="#55A1FF"/>
<path d="M13.1982 33.0732V36.5666H28.5987V33.0732H13.1982ZM32.3 33.0732V36.5666H47.7015V33.0732H32.3ZM51.5319 33.0732V36.5666H61.039C63.5094 36.5666 63.231 33.0732 61.039 33.0732H51.5319Z" fill="#4D4D4D"/>
<path d="M68.4104 29.3381C67.9123 30.2565 67.171 30.3141 66.2995 30.3301H17.8454C16.1707 30.3311 15.151 32.1722 16.0363 33.5919H66.6664C67.9556 33.5944 69.2017 33.1284 70.1729 32.2808C71.1442 31.4332 71.7744 30.2615 71.9464 28.9839C70.5875 27.7477 69.0152 27.9343 68.4104 29.3381Z" fill="#488BFF"/>
<path d="M36.1315 9.65275C25.3189 15.7403 15.0547 21.4651 7.99951 25.537V28.2582C7.99951 31.2133 10.3781 33.5919 13.3332 33.5919H66.6703C67.3708 33.5929 68.0647 33.4557 68.712 33.188C69.3594 32.9202 69.9475 32.5274 70.4427 32.0318C70.9379 31.5363 71.3303 30.9478 71.5976 30.3003C71.8648 29.6527 72.0015 28.9587 71.9999 28.2582V25.537C63.0701 20.5217 54.8539 15.9821 44.1099 9.72521C40.1711 7.45143 39.9977 7.41928 36.1315 9.65275Z" fill="#55A1FF"/>
<path d="M39.4292 28.0285C42.2925 28.0285 44.6137 25.7073 44.6137 22.844C44.6137 19.9807 42.2925 17.6594 39.4292 17.6594C36.5658 17.6594 34.2446 19.9807 34.2446 22.844C34.2446 25.7073 36.5658 28.0285 39.4292 28.0285Z" fill="#FFC861"/>
<path d="M41.3087 23.3072C41.0708 24.5253 40.018 24.8389 39.2063 24.7877C38.8697 24.7493 38.5289 24.7916 38.2119 24.911C37.8949 25.0305 37.611 25.2238 37.3835 25.4748C37.1561 25.7258 36.9917 26.0274 36.9039 26.3545C36.8161 26.6817 36.8075 27.0251 36.8788 27.3562C37.6676 27.8023 38.5595 28.0339 39.4656 28.0279C40.3717 28.0219 41.2605 27.7786 42.0432 27.3221C42.826 26.8656 43.4755 26.212 43.927 25.4263C44.3785 24.6407 44.6162 23.7504 44.6164 22.8442C44.6154 22.5835 44.5947 22.3232 44.5545 22.0656C43.0313 21.0704 41.5039 22.0901 41.3087 23.3072Z" fill="#FFAB61"/>
<path d="M16.7157 68.7466C16.3365 68.7479 15.9644 68.8501 15.6378 69.0427C15.3111 69.2353 15.0416 69.5115 14.857 69.8427C14.6723 70.1739 14.5791 70.5482 14.5869 70.9273C14.5947 71.3065 14.7033 71.6768 14.9015 72H68.8029C70.5768 72 71.9999 70.5729 71.9999 68.799V68.7466H16.7157Z" fill="#488BFF"/>
</svg>
