<svg xmlns="http://www.w3.org/2000/svg" xmlns:xlink="http://www.w3.org/1999/xlink" width="40" zoomAndPan="magnify" viewBox="0 0 30 30.000001" height="40" preserveAspectRatio="xMidYMid meet" version="1.0"><defs><clipPath id="a9356894b6"><path d="M 0.484375 0 L 29.515625 0 L 29.515625 29.03125 L 0.484375 29.03125 Z M 0.484375 0 " clip-rule="nonzero"/></clipPath></defs><g clip-path="url(#a9356894b6)"><path fill="#050a30" d="M 25.304688 14.226562 C 26.132812 13.417969 26.613281 12.3125 26.613281 11.128906 C 26.613281 8.726562 24.660156 6.773438 22.257812 6.773438 C 21.070312 6.773438 19.960938 7.25 19.144531 8.085938 C 18.796875 7.84375 18.429688 7.628906 18.046875 7.453125 C 18.875 6.644531 19.355469 5.539062 19.355469 4.355469 C 19.355469 1.953125 17.402344 0 15 0 C 12.597656 0 10.644531 1.953125 10.644531 4.355469 C 10.644531 5.539062 11.125 6.644531 11.953125 7.453125 C 11.570312 7.628906 11.203125 7.84375 10.855469 8.085938 C 10.039062 7.25 8.929688 6.773438 7.742188 6.773438 C 5.339844 6.773438 3.386719 8.726562 3.386719 11.128906 C 3.386719 12.3125 3.867188 13.417969 4.695312 14.226562 C 2.144531 15.402344 0.484375 17.945312 0.484375 20.804688 L 0.484375 25.160156 C 0.484375 25.429688 0.699219 25.644531 0.96875 25.644531 L 7.890625 25.644531 C 7.792969 26.121094 7.742188 26.605469 7.742188 27.097656 L 7.742188 28.546875 C 7.742188 28.816406 7.957031 29.03125 8.226562 29.03125 L 21.773438 29.03125 C 22.042969 29.03125 22.257812 28.816406 22.257812 28.546875 L 22.257812 27.097656 C 22.257812 26.605469 22.207031 26.121094 22.109375 25.644531 L 29.03125 25.644531 C 29.300781 25.644531 29.515625 25.429688 29.515625 25.160156 L 29.515625 20.804688 C 29.515625 17.945312 27.855469 15.402344 25.304688 14.226562 Z M 22.257812 7.742188 C 24.125 7.742188 25.644531 9.261719 25.644531 11.128906 C 25.644531 12.277344 25.070312 13.339844 24.101562 13.964844 C 23.554688 14.324219 22.917969 14.515625 22.257812 14.515625 C 22.183594 14.515625 22.113281 14.511719 22.011719 14.507812 C 21.992188 14.507812 21.972656 14.503906 21.949219 14.5 C 21.929688 14.496094 21.867188 14.488281 21.847656 14.488281 L 21.78125 14.476562 C 21.753906 14.476562 21.726562 14.472656 21.660156 14.457031 C 21.546875 14.441406 21.445312 14.417969 21.316406 14.378906 C 21.269531 14.367188 21.222656 14.351562 21.183594 14.339844 C 20.898438 14.242188 20.644531 14.117188 20.410156 13.964844 C 19.445312 13.339844 18.871094 12.277344 18.871094 11.128906 C 18.871094 10.890625 18.90625 10.660156 18.953125 10.429688 C 19.0625 9.925781 19.273438 9.445312 19.59375 9.039062 C 20.242188 8.214844 21.210938 7.742188 22.257812 7.742188 Z M 11.613281 4.355469 C 11.613281 2.488281 13.132812 0.96875 15 0.96875 C 16.867188 0.96875 18.386719 2.488281 18.386719 4.355469 C 18.386719 5.503906 17.8125 6.566406 16.84375 7.191406 C 15.753906 7.90625 14.273438 7.910156 13.179688 7.207031 C 13.171875 7.199219 13.160156 7.195312 13.152344 7.191406 C 12.1875 6.566406 11.613281 5.503906 11.613281 4.355469 Z M 12.832031 8.128906 C 12.890625 8.164062 12.957031 8.1875 13.019531 8.21875 C 13.101562 8.261719 13.183594 8.304688 13.269531 8.34375 C 13.347656 8.378906 13.429688 8.40625 13.511719 8.433594 C 13.628906 8.476562 13.746094 8.519531 13.867188 8.550781 C 13.886719 8.558594 13.910156 8.5625 13.933594 8.566406 C 14.277344 8.65625 14.636719 8.710938 15 8.710938 C 15.363281 8.710938 15.722656 8.65625 16.070312 8.566406 C 16.089844 8.5625 16.113281 8.558594 16.132812 8.554688 C 16.253906 8.519531 16.375 8.476562 16.492188 8.433594 C 16.570312 8.40625 16.652344 8.378906 16.730469 8.34375 C 16.816406 8.304688 16.898438 8.261719 16.980469 8.21875 C 17.042969 8.1875 17.109375 8.164062 17.167969 8.128906 C 17.65625 8.308594 18.121094 8.546875 18.550781 8.84375 C 18.539062 8.863281 18.53125 8.882812 18.523438 8.898438 C 18.429688 9.054688 18.34375 9.210938 18.273438 9.375 C 18.269531 9.378906 18.269531 9.382812 18.265625 9.390625 C 18.199219 9.550781 18.140625 9.714844 18.089844 9.882812 C 18.078125 9.914062 18.070312 9.945312 18.0625 9.980469 C 18.015625 10.144531 17.980469 10.316406 17.953125 10.488281 C 17.949219 10.519531 17.945312 10.554688 17.941406 10.589844 C 17.917969 10.769531 17.902344 10.949219 17.902344 11.128906 C 17.902344 11.296875 17.914062 11.464844 17.933594 11.628906 C 17.941406 11.683594 17.949219 11.734375 17.957031 11.785156 C 17.976562 11.898438 17.996094 12.011719 18.023438 12.125 C 18.035156 12.179688 18.050781 12.238281 18.066406 12.292969 C 18.09375 12.402344 18.128906 12.511719 18.167969 12.617188 C 18.1875 12.667969 18.203125 12.714844 18.222656 12.761719 C 18.285156 12.914062 18.351562 13.0625 18.425781 13.203125 C 18.433594 13.210938 18.4375 13.222656 18.445312 13.230469 C 18.515625 13.363281 18.597656 13.492188 18.683594 13.617188 C 18.714844 13.660156 18.75 13.703125 18.785156 13.75 C 18.851562 13.835938 18.917969 13.921875 18.992188 14.003906 C 19.03125 14.046875 19.074219 14.09375 19.117188 14.136719 C 19.144531 14.167969 19.167969 14.199219 19.199219 14.226562 C 19.171875 14.238281 19.148438 14.253906 19.121094 14.269531 C 18.875 14.386719 18.636719 14.515625 18.40625 14.660156 C 18.398438 14.664062 18.386719 14.667969 18.378906 14.671875 C 18.375 14.667969 18.367188 14.660156 18.359375 14.652344 C 18.324219 14.609375 18.285156 14.570312 18.246094 14.527344 C 18.171875 14.441406 18.09375 14.351562 18.007812 14.273438 C 17.960938 14.226562 17.90625 14.183594 17.859375 14.140625 C 17.777344 14.070312 17.699219 14.003906 17.617188 13.9375 C 17.558594 13.898438 17.5 13.859375 17.445312 13.816406 C 17.359375 13.761719 17.273438 13.707031 17.1875 13.65625 C 17.125 13.621094 17.0625 13.585938 17 13.554688 C 16.910156 13.507812 16.820312 13.464844 16.726562 13.425781 C 16.660156 13.394531 16.597656 13.367188 16.53125 13.34375 C 16.433594 13.308594 16.332031 13.277344 16.234375 13.246094 C 16.167969 13.230469 16.105469 13.207031 16.039062 13.191406 C 15.925781 13.164062 15.8125 13.144531 15.695312 13.125 C 15.640625 13.117188 15.585938 13.105469 15.527344 13.097656 C 15.351562 13.078125 15.175781 13.066406 15 13.066406 C 14.824219 13.066406 14.648438 13.078125 14.472656 13.097656 C 14.414062 13.105469 14.355469 13.117188 14.300781 13.125 C 14.1875 13.144531 14.074219 13.164062 13.964844 13.191406 C 13.894531 13.207031 13.824219 13.230469 13.757812 13.25 C 13.664062 13.277344 13.570312 13.304688 13.476562 13.339844 C 13.402344 13.367188 13.328125 13.398438 13.257812 13.429688 C 13.175781 13.464844 13.097656 13.503906 13.019531 13.542969 C 12.941406 13.582031 12.867188 13.625 12.792969 13.667969 C 12.722656 13.707031 12.65625 13.75 12.589844 13.792969 C 12.511719 13.84375 12.4375 13.898438 12.363281 13.953125 C 12.304688 13.996094 12.25 14.042969 12.195312 14.089844 C 12.121094 14.15625 12.046875 14.21875 11.976562 14.285156 C 11.925781 14.335938 11.878906 14.390625 11.828125 14.441406 C 11.761719 14.515625 11.695312 14.582031 11.632812 14.65625 C 11.628906 14.664062 11.625 14.667969 11.621094 14.671875 C 11.613281 14.667969 11.601562 14.664062 11.59375 14.660156 C 11.363281 14.515625 11.125 14.386719 10.878906 14.269531 C 10.851562 14.253906 10.828125 14.238281 10.800781 14.226562 C 10.832031 14.195312 10.859375 14.164062 10.886719 14.132812 C 10.925781 14.09375 10.964844 14.050781 11.003906 14.007812 C 11.078125 13.921875 11.152344 13.832031 11.21875 13.742188 C 11.25 13.699219 11.28125 13.660156 11.3125 13.617188 C 11.402344 13.488281 11.488281 13.355469 11.566406 13.214844 C 11.566406 13.210938 11.570312 13.207031 11.570312 13.203125 C 11.648438 13.0625 11.714844 12.914062 11.777344 12.761719 C 11.796875 12.714844 11.8125 12.667969 11.828125 12.621094 C 11.867188 12.511719 11.902344 12.402344 11.933594 12.289062 C 11.949219 12.234375 11.964844 12.179688 11.976562 12.125 C 12.003906 12.011719 12.023438 11.898438 12.042969 11.785156 C 12.050781 11.734375 12.058594 11.679688 12.066406 11.628906 C 12.085938 11.464844 12.097656 11.296875 12.097656 11.128906 C 12.097656 10.949219 12.082031 10.769531 12.058594 10.589844 C 12.054688 10.554688 12.050781 10.519531 12.046875 10.488281 C 12.019531 10.316406 11.984375 10.148438 11.9375 9.980469 C 11.929688 9.949219 11.917969 9.914062 11.910156 9.882812 C 11.859375 9.714844 11.800781 9.550781 11.734375 9.390625 C 11.730469 9.386719 11.730469 9.378906 11.726562 9.375 C 11.65625 9.210938 11.570312 9.054688 11.476562 8.898438 C 11.46875 8.882812 11.460938 8.863281 11.449219 8.847656 C 11.878906 8.546875 12.34375 8.308594 12.832031 8.128906 Z M 18.359375 17.84375 C 18.238281 18.828125 17.691406 19.707031 16.84375 20.257812 C 16.414062 20.539062 15.9375 20.714844 15.410156 20.777344 C 15.171875 20.816406 14.84375 20.816406 14.574219 20.777344 C 14.433594 20.757812 14.296875 20.730469 14.164062 20.699219 C 13.804688 20.609375 13.46875 20.460938 13.152344 20.253906 C 12.1875 19.628906 11.613281 18.570312 11.613281 17.417969 C 11.613281 16.820312 11.769531 16.234375 12.085938 15.699219 C 12.097656 15.671875 12.117188 15.644531 12.132812 15.617188 C 12.140625 15.609375 12.140625 15.605469 12.148438 15.597656 C 12.765625 14.617188 13.832031 14.03125 15 14.03125 C 16.167969 14.03125 17.234375 14.617188 17.863281 15.617188 C 17.882812 15.644531 17.902344 15.671875 17.929688 15.730469 C 18.230469 16.234375 18.386719 16.820312 18.386719 17.417969 C 18.386719 17.5625 18.378906 17.707031 18.359375 17.84375 Z M 4.355469 11.128906 C 4.355469 9.261719 5.875 7.742188 7.742188 7.742188 C 8.789062 7.742188 9.757812 8.214844 10.40625 9.039062 C 10.871094 9.632812 11.128906 10.375 11.128906 11.128906 C 11.128906 11.273438 11.121094 11.414062 11.101562 11.554688 C 10.980469 12.535156 10.433594 13.417969 9.585938 13.96875 C 9.359375 14.117188 9.101562 14.242188 8.820312 14.335938 C 8.777344 14.351562 8.730469 14.367188 8.664062 14.386719 C 8.554688 14.417969 8.453125 14.441406 8.300781 14.464844 C 8.273438 14.472656 8.246094 14.472656 8.21875 14.476562 L 8.109375 14.496094 C 8.089844 14.496094 8.066406 14.5 8.046875 14.5 C 8.027344 14.503906 8.007812 14.507812 7.960938 14.507812 C 7.777344 14.519531 7.59375 14.515625 7.414062 14.496094 C 7.234375 14.480469 7.058594 14.449219 6.882812 14.402344 C 6.878906 14.402344 6.875 14.402344 6.875 14.398438 C 6.703125 14.355469 6.535156 14.296875 6.375 14.226562 C 6.296875 14.191406 6.230469 14.144531 6.15625 14.109375 C 6.070312 14.0625 5.980469 14.019531 5.894531 13.964844 C 4.929688 13.339844 4.355469 12.277344 4.355469 11.128906 Z M 1.453125 20.804688 C 1.453125 18.152344 3.097656 15.808594 5.574219 14.902344 C 5.636719 14.941406 5.707031 14.96875 5.773438 15 C 5.847656 15.039062 5.917969 15.078125 5.996094 15.109375 C 6.105469 15.160156 6.222656 15.199219 6.335938 15.242188 C 6.410156 15.265625 6.480469 15.292969 6.558594 15.316406 C 6.6875 15.351562 6.816406 15.378906 6.949219 15.402344 C 7.015625 15.414062 7.078125 15.429688 7.140625 15.441406 C 7.339844 15.46875 7.539062 15.484375 7.742188 15.484375 C 7.832031 15.484375 7.925781 15.480469 7.988281 15.472656 C 8.042969 15.472656 8.09375 15.46875 8.144531 15.464844 C 8.210938 15.460938 8.273438 15.453125 8.300781 15.445312 L 8.347656 15.4375 C 8.40625 15.429688 8.460938 15.421875 8.476562 15.417969 C 8.632812 15.394531 8.777344 15.363281 8.917969 15.320312 C 8.988281 15.300781 9.058594 15.28125 9.132812 15.253906 C 9.296875 15.199219 9.449219 15.132812 9.597656 15.0625 C 9.644531 15.039062 9.691406 15.015625 9.734375 14.992188 C 9.792969 14.964844 9.851562 14.9375 9.90625 14.90625 C 9.9375 14.917969 9.96875 14.929688 10 14.941406 C 10.144531 14.996094 10.285156 15.058594 10.421875 15.121094 C 10.46875 15.144531 10.515625 15.164062 10.558594 15.183594 C 10.734375 15.273438 10.90625 15.367188 11.074219 15.472656 C 11.082031 15.480469 11.089844 15.484375 11.097656 15.488281 C 11.074219 15.539062 11.054688 15.589844 11.035156 15.636719 C 11.003906 15.703125 10.976562 15.769531 10.949219 15.835938 C 10.910156 15.9375 10.875 16.042969 10.839844 16.148438 C 10.820312 16.214844 10.800781 16.28125 10.78125 16.347656 C 10.753906 16.464844 10.730469 16.582031 10.710938 16.703125 C 10.703125 16.761719 10.6875 16.820312 10.679688 16.875 C 10.660156 17.054688 10.644531 17.238281 10.644531 17.417969 C 10.644531 17.589844 10.65625 17.753906 10.675781 17.921875 C 10.683594 17.972656 10.691406 18.023438 10.699219 18.074219 C 10.71875 18.191406 10.738281 18.304688 10.765625 18.414062 C 10.777344 18.472656 10.792969 18.527344 10.808594 18.582031 C 10.835938 18.695312 10.875 18.800781 10.914062 18.910156 C 10.929688 18.957031 10.945312 19.007812 10.964844 19.054688 C 11.023438 19.203125 11.09375 19.351562 11.167969 19.496094 C 11.171875 19.503906 11.179688 19.507812 11.183594 19.515625 C 11.257812 19.652344 11.339844 19.78125 11.425781 19.90625 C 11.457031 19.953125 11.492188 19.996094 11.523438 20.039062 C 11.589844 20.125 11.660156 20.210938 11.734375 20.292969 C 11.773438 20.339844 11.816406 20.382812 11.855469 20.429688 C 11.886719 20.457031 11.910156 20.488281 11.941406 20.519531 C 11.933594 20.519531 11.929688 20.523438 11.925781 20.523438 C 11.898438 20.539062 11.871094 20.554688 11.839844 20.570312 C 11.625 20.671875 11.417969 20.785156 11.214844 20.910156 C 11.140625 20.957031 11.066406 21.007812 10.992188 21.058594 C 10.839844 21.15625 10.691406 21.261719 10.550781 21.371094 C 10.472656 21.433594 10.394531 21.496094 10.320312 21.558594 C 10.1875 21.671875 10.058594 21.789062 9.933594 21.910156 C 9.863281 21.980469 9.796875 22.042969 9.730469 22.113281 C 9.59375 22.257812 9.46875 22.40625 9.34375 22.558594 C 9.300781 22.613281 9.25 22.667969 9.207031 22.726562 C 9.046875 22.9375 8.894531 23.160156 8.757812 23.390625 C 8.730469 23.4375 8.707031 23.488281 8.679688 23.535156 C 8.574219 23.722656 8.476562 23.914062 8.386719 24.109375 C 8.351562 24.195312 8.316406 24.28125 8.28125 24.371094 C 8.238281 24.472656 8.191406 24.574219 8.152344 24.679688 L 1.453125 24.679688 Z M 21.289062 28.066406 L 8.710938 28.066406 L 8.710938 27.097656 C 8.710938 26.480469 8.796875 25.878906 8.96875 25.300781 C 9.042969 25.058594 9.128906 24.820312 9.230469 24.589844 C 9.261719 24.511719 9.308594 24.441406 9.34375 24.363281 C 9.414062 24.214844 9.484375 24.066406 9.566406 23.925781 C 9.617188 23.839844 9.679688 23.761719 9.730469 23.675781 C 9.8125 23.554688 9.890625 23.429688 9.980469 23.308594 C 10.042969 23.226562 10.113281 23.148438 10.183594 23.066406 C 10.273438 22.960938 10.359375 22.851562 10.457031 22.75 C 10.535156 22.671875 10.617188 22.597656 10.695312 22.523438 C 10.792969 22.429688 10.894531 22.335938 11 22.246094 C 11.085938 22.175781 11.175781 22.113281 11.265625 22.046875 C 11.375 21.96875 11.480469 21.886719 11.597656 21.8125 C 11.691406 21.75 11.792969 21.695312 11.890625 21.640625 C 12.007812 21.574219 12.125 21.507812 12.246094 21.449219 C 12.347656 21.398438 12.457031 21.355469 12.5625 21.308594 C 12.65625 21.269531 12.75 21.234375 12.84375 21.199219 C 12.882812 21.222656 12.921875 21.238281 12.960938 21.261719 C 13.015625 21.289062 13.070312 21.316406 13.125 21.34375 C 13.210938 21.386719 13.300781 21.421875 13.386719 21.457031 C 13.441406 21.480469 13.496094 21.503906 13.550781 21.523438 C 13.648438 21.558594 13.75 21.585938 13.847656 21.613281 C 13.894531 21.625 13.941406 21.640625 13.992188 21.652344 C 14.140625 21.6875 14.289062 21.714844 14.441406 21.734375 C 14.609375 21.761719 14.796875 21.773438 15 21.773438 C 15.203125 21.773438 15.390625 21.761719 15.542969 21.738281 C 15.699219 21.71875 15.851562 21.691406 16.003906 21.652344 C 16.050781 21.644531 16.101562 21.625 16.148438 21.613281 C 16.25 21.585938 16.347656 21.558594 16.445312 21.523438 C 16.503906 21.503906 16.558594 21.480469 16.613281 21.457031 C 16.703125 21.421875 16.789062 21.386719 16.871094 21.347656 C 16.929688 21.320312 16.984375 21.289062 17.042969 21.257812 C 17.082031 21.238281 17.121094 21.222656 17.15625 21.199219 C 17.25 21.234375 17.34375 21.269531 17.433594 21.308594 C 17.542969 21.355469 17.652344 21.398438 17.757812 21.449219 C 17.878906 21.507812 17.992188 21.574219 18.109375 21.640625 C 18.207031 21.695312 18.308594 21.75 18.40625 21.8125 C 18.519531 21.886719 18.625 21.964844 18.734375 22.046875 C 18.824219 22.113281 18.914062 22.175781 19.003906 22.246094 C 19.109375 22.335938 19.203125 22.429688 19.304688 22.523438 C 19.382812 22.597656 19.46875 22.667969 19.542969 22.75 C 19.640625 22.851562 19.726562 22.957031 19.816406 23.066406 C 19.886719 23.148438 19.957031 23.226562 20.023438 23.3125 C 20.109375 23.425781 20.1875 23.550781 20.265625 23.671875 C 20.320312 23.757812 20.382812 23.839844 20.433594 23.925781 C 20.515625 24.066406 20.582031 24.210938 20.652344 24.355469 C 20.691406 24.433594 20.734375 24.511719 20.773438 24.59375 C 20.867188 24.808594 20.949219 25.035156 21.019531 25.265625 C 21.023438 25.277344 21.027344 25.289062 21.03125 25.300781 C 21.203125 25.878906 21.289062 26.480469 21.289062 27.097656 Z M 28.546875 24.675781 L 21.84375 24.675781 C 21.808594 24.570312 21.757812 24.472656 21.71875 24.367188 C 21.683594 24.28125 21.648438 24.195312 21.613281 24.109375 C 21.523438 23.914062 21.421875 23.722656 21.316406 23.53125 C 21.289062 23.484375 21.269531 23.4375 21.242188 23.390625 C 21.101562 23.160156 20.953125 22.9375 20.792969 22.722656 C 20.75 22.667969 20.699219 22.613281 20.65625 22.558594 C 20.53125 22.40625 20.40625 22.253906 20.269531 22.113281 C 20.203125 22.042969 20.136719 21.976562 20.066406 21.910156 C 19.941406 21.789062 19.8125 21.671875 19.679688 21.558594 C 19.605469 21.496094 19.527344 21.429688 19.449219 21.371094 C 19.304688 21.261719 19.160156 21.15625 19.007812 21.058594 C 18.933594 21.007812 18.859375 20.957031 18.785156 20.910156 C 18.582031 20.785156 18.375 20.671875 18.160156 20.570312 C 18.128906 20.554688 18.101562 20.535156 18.070312 20.523438 C 18.066406 20.519531 18.0625 20.519531 18.058594 20.515625 C 18.089844 20.488281 18.117188 20.453125 18.144531 20.421875 C 18.183594 20.382812 18.222656 20.339844 18.261719 20.296875 C 18.339844 20.210938 18.410156 20.121094 18.480469 20.03125 C 18.507812 19.992188 18.542969 19.953125 18.570312 19.910156 C 18.660156 19.777344 18.746094 19.644531 18.824219 19.503906 C 18.824219 19.503906 18.828125 19.5 18.828125 19.496094 C 18.90625 19.351562 18.976562 19.203125 19.035156 19.050781 C 19.054688 19.007812 19.070312 18.957031 19.085938 18.910156 C 19.125 18.804688 19.164062 18.695312 19.195312 18.582031 C 19.207031 18.527344 19.222656 18.472656 19.234375 18.417969 C 19.261719 18.304688 19.285156 18.191406 19.300781 18.074219 C 19.308594 18.023438 19.316406 17.972656 19.324219 17.921875 C 19.34375 17.753906 19.355469 17.589844 19.355469 17.417969 C 19.355469 17.238281 19.339844 17.054688 19.320312 16.875 C 19.3125 16.816406 19.296875 16.757812 19.289062 16.699219 C 19.269531 16.582031 19.246094 16.460938 19.21875 16.347656 C 19.203125 16.28125 19.179688 16.214844 19.160156 16.148438 C 19.128906 16.042969 19.09375 15.941406 19.054688 15.839844 C 19.027344 15.773438 19 15.710938 18.96875 15.644531 C 18.945312 15.59375 18.929688 15.539062 18.902344 15.488281 C 18.910156 15.484375 18.917969 15.480469 18.925781 15.472656 C 19.09375 15.371094 19.265625 15.273438 19.441406 15.183594 C 19.484375 15.164062 19.53125 15.144531 19.578125 15.121094 C 19.714844 15.054688 19.855469 14.996094 20 14.941406 C 20.03125 14.929688 20.0625 14.917969 20.097656 14.90625 C 20.152344 14.9375 20.210938 14.964844 20.265625 14.992188 C 20.3125 15.015625 20.355469 15.039062 20.402344 15.0625 C 20.550781 15.132812 20.707031 15.199219 20.871094 15.253906 C 20.941406 15.277344 21.011719 15.300781 21.0625 15.3125 C 21.222656 15.359375 21.371094 15.394531 21.484375 15.40625 C 21.539062 15.421875 21.597656 15.429688 21.652344 15.4375 L 21.65625 15.433594 C 21.722656 15.453125 21.789062 15.460938 21.855469 15.464844 C 21.90625 15.46875 21.953125 15.472656 21.984375 15.472656 C 22.074219 15.480469 22.167969 15.484375 22.257812 15.484375 C 22.328125 15.484375 22.398438 15.472656 22.46875 15.46875 C 22.558594 15.464844 22.648438 15.457031 22.734375 15.449219 C 22.855469 15.4375 22.972656 15.417969 23.089844 15.394531 C 23.179688 15.375 23.269531 15.355469 23.359375 15.332031 C 23.46875 15.304688 23.578125 15.269531 23.6875 15.230469 C 23.777344 15.199219 23.871094 15.167969 23.960938 15.128906 C 24.0625 15.085938 24.160156 15.035156 24.257812 14.984375 C 24.3125 14.957031 24.371094 14.933594 24.425781 14.902344 C 26.902344 15.808594 28.546875 18.152344 28.546875 20.804688 Z M 28.546875 24.675781 " fill-opacity="1" fill-rule="nonzero"/></g></svg>