<svg xmlns="http://www.w3.org/2000/svg" xmlns:xlink="http://www.w3.org/1999/xlink" width="50" zoomAndPan="magnify" viewBox="0 0 37.5 37.499999" height="50" preserveAspectRatio="xMidYMid meet" version="1.0"><defs><clipPath id="935f552e21"><path d="M 0 0 L 37.007812 0 L 37.007812 37.007812 L 0 37.007812 Z M 0 0 " clip-rule="nonzero"/></clipPath></defs><g clip-path="url(#935f552e21)"><path fill="#ffffff" d="M 0 0 L 37.5 0 L 37.5 127.5 L 0 127.5 Z M 0 0 " fill-opacity="1" fill-rule="nonzero"/><path fill="#ffffff" d="M 0 0 L 37.5 0 L 37.5 37.5 L 0 37.5 Z M 0 0 " fill-opacity="1" fill-rule="nonzero"/><path fill="#ffffff" d="M 0 0 L 37.5 0 L 37.5 37.5 L 0 37.5 Z M 0 0 " fill-opacity="1" fill-rule="nonzero"/><path fill="#050a30" d="M 32.0625 18.375 C 33.128906 17.332031 33.75 15.90625 33.75 14.375 C 33.75 11.273438 31.226562 8.75 28.125 8.75 C 26.589844 8.75 25.15625 9.363281 24.101562 10.445312 C 23.652344 10.128906 23.179688 9.855469 22.6875 9.625 C 23.753906 8.582031 24.375 7.15625 24.375 5.625 C 24.375 2.523438 21.851562 0 18.75 0 C 15.648438 0 13.125 2.523438 13.125 5.625 C 13.125 7.15625 13.746094 8.582031 14.8125 9.625 C 14.320312 9.855469 13.847656 10.128906 13.398438 10.445312 C 12.34375 9.363281 10.910156 8.75 9.375 8.75 C 6.273438 8.75 3.75 11.273438 3.75 14.375 C 3.75 15.90625 4.371094 17.332031 5.4375 18.375 C 2.148438 19.890625 0 23.179688 0 26.875 L 0 32.5 C 0 32.84375 0.28125 33.125 0.625 33.125 L 9.566406 33.125 C 9.441406 33.738281 9.375 34.363281 9.375 35 L 9.375 36.875 C 9.375 37.21875 9.65625 37.5 10 37.5 L 27.5 37.5 C 27.84375 37.5 28.125 37.21875 28.125 36.875 L 28.125 35 C 28.125 34.363281 28.058594 33.738281 27.933594 33.125 L 36.875 33.125 C 37.21875 33.125 37.5 32.84375 37.5 32.5 L 37.5 26.875 C 37.5 23.179688 35.351562 19.890625 32.0625 18.375 Z M 28.125 10 C 30.539062 10 32.5 11.960938 32.5 14.375 C 32.5 15.859375 31.757812 17.230469 30.507812 18.039062 C 29.796875 18.503906 28.976562 18.75 28.125 18.75 C 28.03125 18.75 27.9375 18.746094 27.804688 18.738281 C 27.78125 18.738281 27.753906 18.734375 27.726562 18.730469 C 27.703125 18.726562 27.621094 18.714844 27.59375 18.714844 L 27.507812 18.703125 C 27.472656 18.695312 27.4375 18.691406 27.351562 18.675781 C 27.207031 18.65625 27.074219 18.625 26.90625 18.574219 C 26.847656 18.558594 26.789062 18.539062 26.734375 18.519531 C 26.371094 18.394531 26.039062 18.234375 25.742188 18.039062 C 24.492188 17.230469 23.75 15.859375 23.75 14.375 C 23.75 14.070312 23.792969 13.765625 23.859375 13.46875 C 23.996094 12.820312 24.273438 12.199219 24.6875 11.671875 C 25.519531 10.609375 26.773438 10 28.125 10 Z M 14.375 5.625 C 14.375 3.210938 16.335938 1.25 18.75 1.25 C 21.164062 1.25 23.125 3.210938 23.125 5.625 C 23.125 7.109375 22.382812 8.480469 21.132812 9.289062 C 19.726562 10.210938 17.8125 10.21875 16.398438 9.308594 C 16.386719 9.300781 16.375 9.296875 16.363281 9.289062 C 15.117188 8.480469 14.375 7.109375 14.375 5.625 Z M 15.949219 10.5 C 16.027344 10.546875 16.109375 10.578125 16.191406 10.617188 C 16.296875 10.671875 16.40625 10.730469 16.515625 10.777344 C 16.617188 10.820312 16.722656 10.855469 16.824219 10.894531 C 16.976562 10.949219 17.128906 11.003906 17.285156 11.046875 C 17.3125 11.054688 17.34375 11.058594 17.371094 11.066406 C 17.820312 11.179688 18.28125 11.25 18.75 11.25 C 19.222656 11.25 19.683594 11.179688 20.132812 11.066406 C 20.160156 11.058594 20.1875 11.054688 20.214844 11.046875 C 20.371094 11.003906 20.523438 10.949219 20.675781 10.894531 C 20.78125 10.855469 20.882812 10.820312 20.984375 10.777344 C 21.09375 10.730469 21.203125 10.671875 21.308594 10.617188 C 21.390625 10.578125 21.472656 10.542969 21.550781 10.5 C 22.183594 10.730469 22.78125 11.039062 23.335938 11.425781 C 23.324219 11.449219 23.3125 11.472656 23.300781 11.496094 C 23.179688 11.695312 23.070312 11.898438 22.980469 12.109375 C 22.976562 12.113281 22.972656 12.121094 22.96875 12.128906 C 22.878906 12.335938 22.804688 12.550781 22.742188 12.765625 C 22.726562 12.808594 22.714844 12.847656 22.703125 12.890625 C 22.644531 13.105469 22.597656 13.324219 22.566406 13.546875 C 22.558594 13.589844 22.554688 13.632812 22.546875 13.675781 C 22.519531 13.90625 22.5 14.140625 22.5 14.375 C 22.5 14.59375 22.515625 14.808594 22.539062 15.023438 C 22.546875 15.089844 22.5625 15.15625 22.570312 15.222656 C 22.59375 15.371094 22.621094 15.515625 22.652344 15.660156 C 22.671875 15.734375 22.6875 15.804688 22.707031 15.875 C 22.75 16.019531 22.792969 16.160156 22.84375 16.296875 C 22.867188 16.359375 22.886719 16.421875 22.914062 16.484375 C 22.992188 16.679688 23.078125 16.871094 23.175781 17.054688 C 23.183594 17.066406 23.191406 17.078125 23.199219 17.089844 C 23.292969 17.261719 23.398438 17.425781 23.511719 17.585938 C 23.550781 17.644531 23.59375 17.703125 23.640625 17.757812 C 23.722656 17.871094 23.8125 17.980469 23.90625 18.085938 C 23.957031 18.144531 24.011719 18.203125 24.066406 18.261719 C 24.101562 18.296875 24.136719 18.339844 24.171875 18.375 C 24.136719 18.390625 24.109375 18.414062 24.074219 18.429688 C 23.753906 18.582031 23.445312 18.75 23.148438 18.933594 C 23.136719 18.941406 23.125 18.945312 23.113281 18.953125 C 23.109375 18.945312 23.097656 18.9375 23.089844 18.925781 C 23.046875 18.871094 22.992188 18.820312 22.945312 18.765625 C 22.84375 18.652344 22.742188 18.539062 22.636719 18.4375 C 22.574219 18.375 22.507812 18.320312 22.441406 18.261719 C 22.339844 18.171875 22.238281 18.085938 22.128906 18.003906 C 22.058594 17.949219 21.980469 17.898438 21.90625 17.847656 C 21.796875 17.773438 21.6875 17.703125 21.578125 17.640625 C 21.496094 17.59375 21.417969 17.546875 21.335938 17.507812 C 21.21875 17.445312 21.101562 17.390625 20.980469 17.339844 C 20.898438 17.304688 20.8125 17.269531 20.726562 17.234375 C 20.601562 17.1875 20.472656 17.148438 20.34375 17.109375 C 20.257812 17.085938 20.175781 17.058594 20.09375 17.039062 C 19.945312 17.003906 19.796875 16.980469 19.648438 16.953125 C 19.578125 16.941406 19.503906 16.925781 19.429688 16.917969 C 19.207031 16.890625 18.980469 16.875 18.75 16.875 C 18.519531 16.875 18.292969 16.890625 18.070312 16.917969 C 17.992188 16.925781 17.921875 16.941406 17.84375 16.957031 C 17.699219 16.980469 17.554688 17.003906 17.410156 17.039062 C 17.320312 17.058594 17.234375 17.089844 17.144531 17.113281 C 17.023438 17.152344 16.902344 17.1875 16.78125 17.230469 C 16.6875 17.265625 16.59375 17.308594 16.5 17.347656 C 16.394531 17.394531 16.289062 17.441406 16.1875 17.492188 C 16.089844 17.542969 15.992188 17.597656 15.898438 17.652344 C 15.808594 17.703125 15.722656 17.761719 15.636719 17.816406 C 15.539062 17.882812 15.4375 17.949219 15.34375 18.023438 C 15.269531 18.078125 15.199219 18.140625 15.125 18.203125 C 15.03125 18.28125 14.9375 18.363281 14.84375 18.453125 C 14.777344 18.515625 14.714844 18.585938 14.652344 18.65625 C 14.566406 18.746094 14.480469 18.835938 14.402344 18.933594 C 14.398438 18.9375 14.390625 18.945312 14.386719 18.953125 C 14.375 18.945312 14.363281 18.941406 14.351562 18.933594 C 14.054688 18.746094 13.746094 18.582031 13.425781 18.429688 C 13.390625 18.414062 13.363281 18.390625 13.328125 18.375 C 13.367188 18.335938 13.398438 18.292969 13.4375 18.253906 C 13.488281 18.203125 13.539062 18.148438 13.585938 18.09375 C 13.6875 17.980469 13.777344 17.867188 13.867188 17.75 C 13.90625 17.695312 13.949219 17.644531 13.984375 17.589844 C 14.105469 17.421875 14.214844 17.25 14.3125 17.070312 C 14.316406 17.066406 14.320312 17.0625 14.320312 17.054688 C 14.421875 16.871094 14.507812 16.679688 14.589844 16.484375 C 14.613281 16.421875 14.632812 16.363281 14.652344 16.300781 C 14.703125 16.160156 14.75 16.019531 14.792969 15.875 C 14.8125 15.804688 14.828125 15.734375 14.84375 15.660156 C 14.878906 15.515625 14.90625 15.371094 14.929688 15.21875 C 14.9375 15.15625 14.953125 15.089844 14.960938 15.023438 C 14.984375 14.808594 15 14.59375 15 14.375 C 15 14.140625 14.980469 13.90625 14.953125 13.675781 C 14.945312 13.632812 14.941406 13.589844 14.933594 13.546875 C 14.902344 13.324219 14.855469 13.105469 14.796875 12.890625 C 14.785156 12.847656 14.769531 12.808594 14.757812 12.765625 C 14.695312 12.550781 14.621094 12.335938 14.53125 12.128906 C 14.527344 12.121094 14.523438 12.117188 14.523438 12.109375 C 14.429688 11.898438 14.320312 11.695312 14.199219 11.496094 C 14.1875 11.472656 14.179688 11.449219 14.164062 11.425781 C 14.71875 11.039062 15.316406 10.730469 15.949219 10.5 Z M 23.089844 23.050781 C 22.929688 24.320312 22.226562 25.457031 21.132812 26.164062 C 20.578125 26.53125 19.960938 26.753906 19.277344 26.839844 C 18.96875 26.886719 18.550781 26.890625 18.199219 26.835938 C 18.019531 26.8125 17.84375 26.78125 17.671875 26.734375 C 17.207031 26.621094 16.769531 26.429688 16.363281 26.164062 C 15.117188 25.355469 14.375 23.984375 14.375 22.5 C 14.375 21.726562 14.578125 20.96875 14.984375 20.277344 C 15.003906 20.242188 15.023438 20.207031 15.046875 20.171875 C 15.054688 20.164062 15.058594 20.15625 15.066406 20.144531 C 15.867188 18.878906 17.242188 18.125 18.75 18.125 C 20.257812 18.125 21.632812 18.878906 22.449219 20.171875 C 22.476562 20.207031 22.496094 20.242188 22.535156 20.316406 C 22.921875 20.96875 23.125 21.726562 23.125 22.5 C 23.125 22.6875 23.113281 22.871094 23.089844 23.050781 Z M 5 14.375 C 5 11.960938 6.960938 10 9.375 10 C 10.726562 10 11.980469 10.609375 12.816406 11.671875 C 13.417969 12.441406 13.75 13.398438 13.75 14.375 C 13.75 14.5625 13.738281 14.746094 13.714844 14.925781 C 13.554688 16.195312 12.851562 17.332031 11.753906 18.039062 C 11.460938 18.234375 11.128906 18.394531 10.769531 18.519531 C 10.710938 18.539062 10.652344 18.558594 10.566406 18.582031 C 10.425781 18.625 10.292969 18.65625 10.097656 18.683594 C 10.0625 18.691406 10.027344 18.695312 9.992188 18.699219 L 9.851562 18.726562 C 9.824219 18.726562 9.792969 18.726562 9.769531 18.730469 C 9.746094 18.734375 9.71875 18.738281 9.65625 18.738281 C 9.421875 18.753906 9.1875 18.75 8.953125 18.726562 C 8.71875 18.703125 8.492188 18.664062 8.265625 18.605469 C 8.261719 18.601562 8.257812 18.601562 8.253906 18.597656 C 8.03125 18.542969 7.816406 18.46875 7.609375 18.375 C 7.511719 18.332031 7.421875 18.273438 7.328125 18.222656 C 7.214844 18.160156 7.097656 18.109375 6.992188 18.039062 C 5.742188 17.230469 5 15.859375 5 14.375 Z M 1.25 26.875 C 1.25 23.449219 3.378906 20.417969 6.574219 19.25 C 6.65625 19.296875 6.746094 19.332031 6.832031 19.375 C 6.925781 19.425781 7.019531 19.476562 7.121094 19.519531 C 7.261719 19.582031 7.410156 19.632812 7.558594 19.6875 C 7.65625 19.71875 7.746094 19.753906 7.84375 19.78125 C 8.011719 19.828125 8.179688 19.863281 8.351562 19.894531 C 8.433594 19.910156 8.515625 19.933594 8.601562 19.945312 C 8.855469 19.980469 9.113281 20 9.375 20 C 9.492188 20 9.613281 19.992188 9.695312 19.988281 C 9.765625 19.988281 9.828125 19.980469 9.894531 19.972656 C 9.980469 19.972656 10.058594 19.960938 10.09375 19.949219 L 10.160156 19.941406 C 10.230469 19.929688 10.300781 19.921875 10.328125 19.914062 C 10.523438 19.882812 10.714844 19.84375 10.894531 19.789062 C 10.984375 19.765625 11.078125 19.734375 11.171875 19.703125 C 11.382812 19.632812 11.582031 19.546875 11.773438 19.457031 C 11.835938 19.425781 11.890625 19.394531 11.949219 19.367188 C 12.023438 19.328125 12.097656 19.292969 12.167969 19.253906 C 12.210938 19.269531 12.253906 19.285156 12.292969 19.300781 C 12.480469 19.371094 12.660156 19.449219 12.839844 19.53125 C 12.898438 19.5625 12.957031 19.585938 13.011719 19.613281 C 13.242188 19.726562 13.464844 19.851562 13.679688 19.984375 C 13.6875 19.992188 13.699219 20 13.710938 20.007812 C 13.679688 20.070312 13.65625 20.136719 13.628906 20.199219 C 13.589844 20.285156 13.550781 20.367188 13.515625 20.453125 C 13.464844 20.585938 13.421875 20.722656 13.378906 20.859375 C 13.351562 20.945312 13.324219 21.03125 13.300781 21.117188 C 13.265625 21.265625 13.234375 21.421875 13.210938 21.574219 C 13.199219 21.648438 13.179688 21.722656 13.171875 21.800781 C 13.140625 22.03125 13.125 22.265625 13.125 22.5 C 13.125 22.71875 13.140625 22.933594 13.164062 23.148438 C 13.171875 23.214844 13.1875 23.28125 13.195312 23.347656 C 13.21875 23.496094 13.246094 23.640625 13.277344 23.785156 C 13.296875 23.859375 13.3125 23.929688 13.332031 24.003906 C 13.375 24.144531 13.417969 24.285156 13.46875 24.425781 C 13.492188 24.488281 13.511719 24.550781 13.535156 24.609375 C 13.617188 24.804688 13.703125 24.996094 13.800781 25.179688 C 13.808594 25.191406 13.8125 25.199219 13.820312 25.210938 C 13.914062 25.382812 14.019531 25.550781 14.136719 25.714844 C 14.175781 25.769531 14.21875 25.828125 14.261719 25.882812 C 14.347656 25.996094 14.4375 26.105469 14.53125 26.214844 C 14.582031 26.273438 14.636719 26.328125 14.691406 26.386719 C 14.726562 26.421875 14.757812 26.464844 14.796875 26.5 C 14.792969 26.503906 14.785156 26.507812 14.78125 26.511719 C 14.742188 26.527344 14.707031 26.550781 14.667969 26.570312 C 14.390625 26.703125 14.121094 26.847656 13.863281 27.007812 C 13.761719 27.070312 13.667969 27.136719 13.570312 27.199219 C 13.378906 27.328125 13.1875 27.460938 13.003906 27.605469 C 12.902344 27.683594 12.804688 27.765625 12.707031 27.847656 C 12.53125 27.992188 12.367188 28.144531 12.203125 28.304688 C 12.117188 28.390625 12.027344 28.472656 11.941406 28.5625 C 11.769531 28.75 11.605469 28.941406 11.445312 29.136719 C 11.386719 29.210938 11.324219 29.277344 11.269531 29.351562 C 11.058594 29.628906 10.867188 29.914062 10.6875 30.214844 C 10.652344 30.273438 10.625 30.339844 10.589844 30.398438 C 10.453125 30.640625 10.324219 30.886719 10.210938 31.140625 C 10.160156 31.253906 10.117188 31.367188 10.070312 31.476562 C 10.015625 31.609375 9.957031 31.738281 9.90625 31.875 L 1.25 31.875 Z M 26.875 36.25 L 10.625 36.25 L 10.625 35 C 10.625 34.207031 10.738281 33.425781 10.960938 32.679688 C 11.054688 32.363281 11.167969 32.058594 11.296875 31.765625 C 11.339844 31.664062 11.394531 31.570312 11.445312 31.46875 C 11.535156 31.28125 11.625 31.085938 11.734375 30.90625 C 11.796875 30.792969 11.875 30.691406 11.945312 30.582031 C 12.050781 30.421875 12.148438 30.261719 12.265625 30.109375 C 12.347656 30 12.441406 29.898438 12.527344 29.796875 C 12.644531 29.65625 12.757812 29.515625 12.882812 29.382812 C 12.980469 29.28125 13.085938 29.191406 13.1875 29.09375 C 13.316406 28.972656 13.445312 28.847656 13.582031 28.734375 C 13.691406 28.644531 13.8125 28.5625 13.925781 28.476562 C 14.066406 28.375 14.207031 28.269531 14.355469 28.175781 C 14.476562 28.09375 14.605469 28.027344 14.734375 27.953125 C 14.886719 27.867188 15.035156 27.78125 15.191406 27.703125 C 15.328125 27.640625 15.464844 27.582031 15.605469 27.527344 C 15.722656 27.476562 15.84375 27.425781 15.964844 27.382812 C 16.015625 27.410156 16.066406 27.433594 16.117188 27.460938 C 16.1875 27.5 16.257812 27.535156 16.328125 27.570312 C 16.441406 27.625 16.554688 27.671875 16.667969 27.71875 C 16.738281 27.746094 16.808594 27.777344 16.878906 27.800781 C 17.003906 27.84375 17.132812 27.882812 17.261719 27.917969 C 17.324219 27.933594 17.382812 27.953125 17.445312 27.96875 C 17.640625 28.015625 17.832031 28.050781 18.03125 28.074219 C 18.246094 28.109375 18.488281 28.125 18.75 28.125 C 19.011719 28.125 19.253906 28.109375 19.453125 28.078125 C 19.652344 28.050781 19.851562 28.015625 20.046875 27.96875 C 20.109375 27.953125 20.171875 27.933594 20.234375 27.917969 C 20.363281 27.882812 20.492188 27.84375 20.617188 27.800781 C 20.691406 27.773438 20.765625 27.746094 20.835938 27.714844 C 20.949219 27.671875 21.058594 27.625 21.167969 27.570312 C 21.242188 27.535156 21.316406 27.5 21.386719 27.460938 C 21.4375 27.433594 21.488281 27.410156 21.535156 27.382812 C 21.65625 27.425781 21.777344 27.472656 21.894531 27.523438 C 22.035156 27.582031 22.175781 27.636719 22.3125 27.703125 C 22.464844 27.78125 22.613281 27.867188 22.765625 27.953125 C 22.894531 28.023438 23.023438 28.09375 23.148438 28.175781 C 23.292969 28.269531 23.433594 28.375 23.570312 28.476562 C 23.6875 28.5625 23.808594 28.644531 23.921875 28.738281 C 24.054688 28.847656 24.179688 28.972656 24.308594 29.09375 C 24.414062 29.1875 24.519531 29.28125 24.617188 29.382812 C 24.742188 29.515625 24.855469 29.65625 24.972656 29.792969 C 25.058594 29.898438 25.15625 30 25.238281 30.109375 C 25.351562 30.257812 25.449219 30.417969 25.550781 30.578125 C 25.625 30.6875 25.703125 30.792969 25.769531 30.90625 C 25.871094 31.082031 25.960938 31.273438 26.050781 31.457031 C 26.101562 31.5625 26.160156 31.660156 26.203125 31.765625 C 26.328125 32.046875 26.433594 32.335938 26.523438 32.632812 C 26.527344 32.648438 26.535156 32.664062 26.539062 32.679688 C 26.761719 33.425781 26.875 34.207031 26.875 35 Z M 36.25 31.875 L 27.589844 31.875 C 27.542969 31.738281 27.480469 31.609375 27.425781 31.476562 C 27.382812 31.363281 27.339844 31.25 27.289062 31.144531 C 27.175781 30.886719 27.046875 30.640625 26.910156 30.398438 C 26.875 30.335938 26.847656 30.273438 26.8125 30.214844 C 26.632812 29.914062 26.4375 29.628906 26.230469 29.351562 C 26.175781 29.277344 26.113281 29.210938 26.054688 29.136719 C 25.894531 28.941406 25.730469 28.746094 25.558594 28.5625 C 25.472656 28.472656 25.382812 28.390625 25.296875 28.300781 C 25.132812 28.144531 24.96875 27.992188 24.792969 27.847656 C 24.695312 27.765625 24.597656 27.683594 24.496094 27.605469 C 24.3125 27.460938 24.121094 27.328125 23.925781 27.199219 C 23.832031 27.132812 23.738281 27.066406 23.636719 27.007812 C 23.375 26.847656 23.109375 26.703125 22.832031 26.566406 C 22.792969 26.550781 22.757812 26.527344 22.71875 26.507812 C 22.710938 26.507812 22.707031 26.503906 22.703125 26.5 C 22.742188 26.460938 22.773438 26.421875 22.8125 26.378906 C 22.863281 26.328125 22.914062 26.273438 22.964844 26.21875 C 23.0625 26.105469 23.15625 25.992188 23.242188 25.875 C 23.28125 25.820312 23.324219 25.769531 23.363281 25.714844 C 23.480469 25.546875 23.589844 25.375 23.6875 25.195312 C 23.691406 25.191406 23.695312 25.1875 23.695312 25.183594 C 23.796875 24.996094 23.882812 24.804688 23.964844 24.609375 C 23.988281 24.550781 24.007812 24.488281 24.03125 24.429688 C 24.082031 24.289062 24.125 24.144531 24.167969 24 C 24.1875 23.929688 24.203125 23.859375 24.222656 23.789062 C 24.253906 23.640625 24.28125 23.496094 24.304688 23.347656 C 24.316406 23.28125 24.328125 23.214844 24.335938 23.148438 C 24.359375 22.933594 24.375 22.71875 24.375 22.5 C 24.375 22.265625 24.359375 22.03125 24.328125 21.796875 C 24.320312 21.722656 24.300781 21.648438 24.289062 21.570312 C 24.265625 21.417969 24.238281 21.265625 24.199219 21.113281 C 24.175781 21.027344 24.148438 20.945312 24.121094 20.859375 C 24.082031 20.722656 24.039062 20.589844 23.988281 20.460938 C 23.953125 20.375 23.917969 20.292969 23.878906 20.207031 C 23.847656 20.140625 23.824219 20.070312 23.792969 20.007812 C 23.800781 20 23.808594 19.992188 23.820312 19.988281 C 24.035156 19.851562 24.257812 19.726562 24.488281 19.613281 C 24.542969 19.585938 24.605469 19.558594 24.664062 19.53125 C 24.839844 19.449219 25.023438 19.371094 25.207031 19.300781 C 25.25 19.285156 25.289062 19.269531 25.332031 19.253906 C 25.402344 19.292969 25.480469 19.328125 25.550781 19.367188 C 25.609375 19.394531 25.667969 19.425781 25.726562 19.453125 C 25.921875 19.546875 26.121094 19.632812 26.332031 19.703125 C 26.425781 19.734375 26.515625 19.765625 26.578125 19.78125 C 26.789062 19.839844 26.976562 19.882812 27.125 19.902344 C 27.199219 19.917969 27.269531 19.929688 27.34375 19.9375 L 27.347656 19.9375 C 27.433594 19.957031 27.519531 19.96875 27.605469 19.972656 C 27.671875 19.980469 27.730469 19.988281 27.769531 19.984375 C 27.886719 19.992188 28.007812 20 28.125 20 C 28.21875 20 28.308594 19.984375 28.398438 19.980469 C 28.515625 19.972656 28.628906 19.96875 28.742188 19.953125 C 28.894531 19.9375 29.046875 19.914062 29.199219 19.882812 C 29.316406 19.859375 29.433594 19.835938 29.546875 19.804688 C 29.691406 19.769531 29.832031 19.722656 29.96875 19.675781 C 30.089844 19.632812 30.207031 19.589844 30.324219 19.539062 C 30.453125 19.484375 30.578125 19.421875 30.707031 19.355469 C 30.777344 19.316406 30.855469 19.289062 30.925781 19.25 C 34.121094 20.417969 36.25 23.449219 36.25 26.875 Z M 36.25 31.875 " fill-opacity="1" fill-rule="nonzero"/></g></svg>