<svg width="80" height="80" viewBox="0 0 80 80" fill="none" xmlns="http://www.w3.org/2000/svg">
<g opacity="0.8">
<path d="M70.8182 68H15.1818C13.5423 68 11.9699 67.3415 10.8106 66.1694C9.6513 64.9973 9 63.4076 9 61.75V24.25C9 22.5924 9.6513 21.0027 10.8106 19.8306C11.9699 18.6585 13.5423 18 15.1818 18H70.8182C72.4577 18 74.0301 18.6585 75.1894 19.8306C76.3487 21.0027 77 22.5924 77 24.25V61.75C77 63.4076 76.3487 64.9973 75.1894 66.1694C74.0301 67.3415 72.4577 68 70.8182 68Z" fill="#0277BD"/>
<path opacity="0.2" d="M70.8182 18H15.1818C13.5423 18 11.9699 18.6556 10.8106 19.8224C9.6513 20.9893 9 22.572 9 24.2222V25C9 23.3498 9.6513 21.7671 10.8106 20.6002C11.9699 19.4333 13.5423 18.7778 15.1818 18.7778H70.8182C72.4577 18.7778 74.0301 19.4333 75.1894 20.6002C76.3487 21.7671 77 23.3498 77 25V24.2222C77 22.572 76.3487 20.9893 75.1894 19.8224C74.0301 18.6556 72.4577 18 70.8182 18Z" fill="white"/>
<path opacity="0.1" d="M70.8182 67.2222H15.1818C13.5423 67.2222 11.9699 66.5667 10.8106 65.3998C9.6513 64.2329 9 62.6502 9 61V61.7778C9 63.428 9.6513 65.0107 10.8106 66.1776C11.9699 67.3444 13.5423 68 15.1818 68H70.8182C72.4577 68 74.0301 67.3444 75.1894 66.1776C76.3487 65.0107 77 63.428 77 61.7778V61C77 62.6502 76.3487 64.2329 75.1894 65.3998C74.0301 66.5667 72.4577 67.2222 70.8182 67.2222Z" fill="black"/>
<path d="M64.8182 62H9.18182C7.5423 62 5.96993 61.3415 4.81061 60.1694C3.6513 58.9973 3 57.4076 3 55.75V18.25C3 16.5924 3.6513 15.0027 4.81061 13.8306C5.96993 12.6585 7.5423 12 9.18182 12H64.8182C66.4577 12 68.0301 12.6585 69.1894 13.8306C70.3487 15.0027 71 16.5924 71 18.25V55.75C71 57.4076 70.3487 58.9973 69.1894 60.1694C68.0301 61.3415 66.4577 62 64.8182 62Z" fill="#039BE5"/>
<path opacity="0.2" d="M64.8182 12H9.18182C7.5423 12 5.96993 12.6556 4.81061 13.8224C3.6513 14.9893 3 16.572 3 18.2222L3 19C3 17.3498 3.6513 15.7671 4.81061 14.6002C5.96993 13.4333 7.5423 12.7778 9.18182 12.7778H64.8182C66.4577 12.7778 68.0301 13.4333 69.1894 14.6002C70.3487 15.7671 71 17.3498 71 19V18.2222C71 16.572 70.3487 14.9893 69.1894 13.8224C68.0301 12.6556 66.4577 12 64.8182 12Z" fill="white"/>
<path opacity="0.1" d="M64.8182 61.2222H9.18182C7.5423 61.2222 5.96993 60.5667 4.81061 59.3998C3.6513 58.2329 3 56.6502 3 55V55.7778C3 57.428 3.6513 59.0107 4.81061 60.1776C5.96993 61.3444 7.5423 62 9.18182 62H64.8182C66.4577 62 68.0301 61.3444 69.1894 60.1776C70.3487 59.0107 71 57.428 71 55.7778V55C71 56.6502 70.3487 58.2329 69.1894 59.3998C68.0301 60.5667 66.4577 61.2222 64.8182 61.2222Z" fill="black"/>
<path d="M40 46H62V49H40V46ZM40 37H62V40H40V37ZM40 28H62V31H40V28Z" fill="white"/>
<path d="M24.5 37C28.0899 37 31 34.0899 31 30.5C31 26.9101 28.0899 24 24.5 24C20.9101 24 18 26.9101 18 30.5C18 34.0899 20.9101 37 24.5 37Z" fill="white"/>
<path d="M37 49H12V45.238C12 43.148 13.2125 41.2623 15.1656 40.3163C17.35 39.2571 20.7406 38 24.5 38C28.2594 38 31.65 39.2571 33.8344 40.3163C35.7875 41.2591 37 43.1449 37 45.238V49Z" fill="white"/>
<path d="M70.8333 18.2222C70.8333 16.572 70.1836 14.9893 69.0272 13.8224C67.8707 12.6556 66.3022 12 64.6667 12H9.16667C7.53116 12 5.96265 12.6556 4.80617 13.8224C3.6497 14.9893 3 16.572 3 18.2222L3 55.5556C3 57.2058 3.6497 58.7884 4.80617 59.9553C5.96265 61.1222 7.53116 61.7778 9.16667 61.7778C9.16667 63.428 9.81637 65.0107 10.9728 66.1776C12.1293 67.3444 13.6978 68 15.3333 68H70.8333C72.4688 68 74.0373 67.3444 75.1938 66.1776C76.3503 65.0107 77 63.428 77 61.7778V24.4444C77 22.7942 76.3503 21.2116 75.1938 20.0447C74.0373 18.8778 72.4688 18.2222 70.8333 18.2222Z" fill="url(#paint0_linear_323_2441)"/>
</g>
<defs>
<linearGradient id="paint0_linear_323_2441" x1="0.817" y1="21.5636" x2="79.4326" y2="57.8963" gradientUnits="userSpaceOnUse">
<stop stop-color="white" stop-opacity="0.2"/>
<stop offset="1" stop-color="white" stop-opacity="0"/>
</linearGradient>
</defs>
</svg>
