<svg width="50" height="50" viewBox="0 0 50 50" fill="none" xmlns="http://www.w3.org/2000/svg">
<path d="M40.6001 26.7C40.5001 25 38.7001 25.3 37.9001 25.4L37.2001 17L25.0001 13.8L12.8001 17.1L12.1001 25.5C11.3001 25.3 9.50014 25 9.40014 26.8C9.30014 29 9.80015 32.5001 10.2001 33.4001C10.6001 34.1001 10.9001 36.8 12.7001 36.1C13.3001 39.3 14.5001 43.0001 16.6001 44.9001C18.9001 47.0001 21.4001 48.8 25.0001 49C28.5001 48.9 31.1001 47.1001 33.4001 44.9001C35.5001 43.0001 36.7001 39.3 37.3001 36.1C39.2001 36.7 39.5001 34.1001 39.8001 33.4001C40.2001 32.5001 40.7001 29 40.6001 26.7Z" fill="#FFCC66"/>
<path d="M40.2999 14.9C40.1999 7.6 34.9999 7.1 23.2999 4.4C11.5999 1.7 15.0999 11.7 15.0999 11.7C8.39995 10.2 9.49995 18.8 10.4999 22.2C11.2999 25.2 12.5999 29.9 12.9999 31.2C13.0999 31.4 13.2999 31.6 13.4999 31.6C13.7999 31.6 13.9999 31.3 13.9999 31C13.7999 29.7 13.1999 26.5 13.0999 22.5C12.9999 17.3 17.2 16.2 17.2 16.2C17.2 16.2 30 15.7 32.9 18.4C35.4 20.6 36.7 28.7 37 31.1C37 31.4 37.4 31.6 37.7 31.5L37.7999 31.4C37.9999 31.3 38.0999 31.2 38.0999 31.1C38.4999 29.4 40.3999 21.4 40.2999 14.9Z" fill="#ED7B72"/>
<path d="M26.2002 44.2999V43.0999C37.5002 42.5999 39.9002 31.7 40.0002 31.2L41.2002 31.4C41.2002 31.6 38.5002 43.7999 26.2002 44.2999Z" fill="#4F4D4D"/>
<path d="M40.1002 17.4H41.8002V26.6H40.1002V17.4ZM8.7002 17.4H10.4002V26.6H8.7002V17.4Z" fill="#3AB7FC"/>
<path d="M40.9002 36C42.0002 35 42.8002 32.8 43.0002 30.1C43.1002 27.5 42.6002 25.2 41.6002 24V23.3L40.3002 23.2C38.6002 23.1 37.1002 26 36.9002 29.7C36.7002 33.4 37.9002 36.4 39.6002 36.5L40.9002 36.6V36Z" fill="#4F4D4D"/>
<path d="M44.0499 30.119C44.255 26.4242 43.1696 23.3596 41.6255 23.2738C40.0814 23.1881 38.6634 26.1138 38.4583 29.8086C38.2532 33.5033 39.3386 36.568 40.8827 36.6537C42.4268 36.7395 43.8448 33.8137 44.0499 30.119Z" fill="#666666"/>
<path d="M9.09986 36C7.99986 35 7.19986 32.7 6.99986 30.1C6.89986 27.5 7.39986 25.2 8.39986 24V23.3L9.69986 23.2C11.3999 23.1 12.8999 26 13.0999 29.7C13.2999 33.4 12.0999 36.4 10.3999 36.5L9.09986 36.6V36Z" fill="#4F4D4D"/>
<path d="M11.5337 29.8949C11.3286 26.2001 9.91059 23.2744 8.36651 23.3602C6.82244 23.4459 5.73699 26.5106 5.9421 30.2053C6.1472 33.9001 7.5652 36.8258 9.10928 36.7401C10.6534 36.6543 11.7388 33.5897 11.5337 29.8949Z" fill="#666666"/>
<path d="M26.4001 1.09998H24.1001C15.3001 1.09998 8.1001 8.29998 8.1001 17.1C8.1001 17.6 8.5001 18.1 9.1001 18.1H10.0001C10.5001 18.1 11.0001 17.7 11.0001 17.1C11.0001 9.89998 16.8001 3.99998 24.1001 3.99998H26.4001C33.7001 3.99998 39.5001 9.89998 39.5001 17.1C39.5001 17.6 39.9001 18.1 40.5001 18.1H41.4001C41.9001 18.1 42.4001 17.7 42.4001 17.1C42.4001 8.29998 35.2001 1.09998 26.4001 1.09998Z" fill="#666766"/>
<path d="M25.5001 46.9C27.654 46.9 29.4001 45.4673 29.4001 43.7C29.4001 41.9327 27.654 40.5 25.5001 40.5C23.3462 40.5 21.6001 41.9327 21.6001 43.7C21.6001 45.4673 23.3462 46.9 25.5001 46.9Z" fill="#4F4D4D"/>
<path opacity="0.15" d="M41.8 23.4V18C42.1 17.8 42.4 17.5 42.4 17.1C42.4 8.29998 35.2 1.09998 26.4 1.09998H25V3.99998C25.5 4.09998 30.9 3.29998 35.5 7.59998C33 6.59998 29.5 5.79998 25 4.79998V48.9C28.5 48.8 31.1 47 33.4 44.8C34.6 43.7 35.5 42 36.1 40.2C37.4 39 38.4 37.7 39.1 36.4C39.2 36.4 39.4 36.5 39.5 36.5L40.8 36.6C42.3 36.7 43.7 33.8 43.9 30.1C44.2 26.6 43.2 23.7 41.8 23.4ZM36.9 37.7C37 37.1 37.2 36.6 37.3 36.1C37.6 36.2 37.8 36.2 38 36.2C37.7 36.6 37.3 37.2 36.9 37.7ZM40.1 23.3C39.9 23.3 39.8 23.4 39.6 23.4C39.8 22.1 40 20.7 40.1 19.3V23.3Z" fill="#4F4D4D"/>
</svg>
