<svg width="80" height="80" viewBox="0 0 80 80" fill="none" xmlns="http://www.w3.org/2000/svg">
<path d="M70.9996 63.0211V71.0002H44.0431C43.4366 67.9406 43.6253 68.9111 42.6953 64.2611L45.391 57.522L48.0866 60.2176L53.2892 47.2246L62.0096 50.3111C64.6387 51.2396 66.9151 52.9606 68.5252 55.2369C70.1353 57.5132 70.9998 60.2329 70.9996 63.0211Z" fill="#DAD7E5"/>
<path d="M53.2895 47.2246L48.0869 60.2177L40 52.1307C42.9517 49.6912 41.0378 51.2816 48.0869 45.3916L53.2895 47.2246Z" fill="#DAD7E5"/>
<path d="M51.8743 46.7394L48.8417 54.2872C48.7591 54.4934 48.6267 54.6759 48.4565 54.8185C48.2863 54.9612 48.0834 55.0595 47.866 55.1049C47.6486 55.1502 47.4234 55.1411 47.2103 55.0784C46.9972 55.0157 46.803 54.9014 46.6448 54.7455L42.2104 50.3112L48.087 45.3916L51.8743 46.7394Z" fill="#EDEBF2"/>
<path d="M70.9996 63.0211V68.3046H43.504L42.6953 64.2611L45.391 57.522L48.0866 60.2176L53.2892 47.2246L62.0096 50.3111C64.6387 51.2396 66.9151 52.9606 68.5252 55.2369C70.1353 57.5132 70.9998 60.2329 70.9996 63.0211Z" fill="#EDEBF2"/>
<path d="M37.3043 64.2611C36.3743 68.9111 36.563 67.9406 35.9565 71.0002H9V63.0211C8.9998 60.2329 9.8643 57.5132 11.4744 55.2369C13.0845 52.9606 15.3609 51.2396 17.99 50.3111L26.7104 47.2246L31.913 60.2176L34.6086 57.522L37.3043 64.2611Z" fill="#DAD7E5"/>
<path d="M34.6086 57.522L37.3043 64.2611L36.4956 68.3046H27.9504C23.9968 68.3046 20.2052 66.734 17.4096 63.9384C14.614 61.1428 13.0435 57.3512 13.0435 53.3976C14.4443 52.0164 16.1336 50.9623 17.99 50.3111L26.7104 47.2246L31.913 60.2176L34.6086 57.522Z" fill="#EDEBF2"/>
<path d="M40 52.1307L31.913 60.2177L26.7104 47.2246L31.913 45.3916C38.9622 51.2816 37.0482 49.6912 40 52.1307Z" fill="#DAD7E5"/>
<path d="M37.7894 50.2977L33.355 54.732C33.1968 54.8879 33.0026 55.0023 32.7895 55.065C32.5765 55.1277 32.3512 55.1367 32.1338 55.0914C31.9164 55.046 31.7136 54.9477 31.5433 54.805C31.3731 54.6624 31.2408 54.4799 31.1581 54.2738L28.1255 46.7394L31.9129 45.3916L37.7894 50.2977Z" fill="#EDEBF2"/>
<path d="M44.0432 70.9999H35.9562L37.304 64.2608L34.6084 57.5217L39.9997 52.1304L45.391 57.5217L42.6953 64.2608C42.9649 65.6086 43.5714 68.6547 44.0432 70.9999Z" fill="#DB5669"/>
<path d="M42.6957 64.2608L43.7739 69.6521C42.954 69.6532 42.145 69.4644 41.4102 69.1005C40.6755 68.7367 40.035 68.2077 39.5389 67.5549C39.0427 66.9021 38.7045 66.1433 38.5507 65.338C38.3969 64.5327 38.4316 63.7026 38.6522 62.913L35.9565 56.1738L40 52.1304L45.3913 57.5217L42.6957 64.2608Z" fill="#F26674"/>
<path d="M48.087 40.3911V45.3915L40 52.1306L31.9131 45.3915V40.3911C32.9249 41.5385 34.1694 42.4573 35.5637 43.0868C36.958 43.7162 38.4702 44.0417 40 44.0417C41.5298 44.0417 43.0421 43.7162 44.4364 43.0868C45.8307 42.4573 47.0751 41.5385 48.087 40.3911Z" fill="#EDB996"/>
<path d="M48.0866 45.2967C48.0866 45.4315 48.7336 44.8519 39.9997 52.1301L34.6084 47.6419V45.5932C34.6094 45.3544 34.6738 45.1202 34.795 44.9145C34.9163 44.7088 35.09 44.539 35.2984 44.4224C35.5068 44.3059 35.7424 44.2468 35.9811 44.2512C36.2199 44.2556 36.4531 44.3234 36.6571 44.4475C40.5927 46.7388 43.7736 47.8036 48.0866 45.2967Z" fill="#F6CCAF"/>
<path d="M50.7827 23.8263C50.7827 33.261 51.3218 35.8758 48.8418 39.4206C47.9081 40.7602 46.6822 41.8702 45.2568 42.6669C43.8314 43.4635 42.2436 43.926 40.6133 44.0195C38.9831 44.113 37.3529 43.8349 35.8457 43.2064C34.3386 42.5778 32.994 41.6151 31.9132 40.391C28.5302 36.5497 29.2175 33.4093 29.2175 23.8263C32.0265 23.8254 34.8027 23.2236 37.3599 22.0612C39.9171 20.8989 42.196 19.2029 44.0436 17.0872C44.0436 18.8745 44.7536 20.5886 46.0174 21.8524C47.2813 23.1163 48.9954 23.8263 50.7827 23.8263Z" fill="#F6CCAF"/>
<path d="M50.7824 23.8263C50.7824 33.261 51.3216 35.8758 48.8416 39.4206C46.7659 40.8631 44.2494 41.5306 41.7317 41.3064C39.2139 41.0823 36.855 39.9807 35.0668 38.1941C31.2929 34.4202 31.9129 30.7136 31.9129 23.6241C36.6226 23.0107 40.9411 20.6835 44.0433 17.0872C44.0433 18.8745 44.7533 20.5886 46.0172 21.8524C47.281 23.1163 48.9951 23.8263 50.7824 23.8263Z" fill="#FFDEC7"/>
<path d="M53.4779 23.8264H50.7823C48.995 23.8264 47.2808 23.1163 46.017 21.8525C44.7532 20.5887 44.0432 18.8746 44.0432 17.0872C42.199 19.2071 39.9207 20.9059 37.3628 22.0686C34.8048 23.2313 32.0269 23.8307 29.2171 23.8264H26.5215V22.4785C26.5221 19.8132 27.3128 17.2079 28.7939 14.9919C30.2749 12.776 32.3797 11.0489 34.8422 10.029C37.3047 9.00909 40.0142 8.74218 42.6284 9.262C45.2425 9.78183 47.6439 11.065 49.5288 12.9494C52.7905 16.2112 53.4779 19.6211 53.4779 23.8264Z" fill="#BE927C"/>
<path d="M33.2606 21.1305C32.932 21.1275 32.6083 21.0504 32.3136 20.9049C32.019 20.7593 31.761 20.5492 31.5589 20.29C31.3567 20.0309 31.2157 19.7295 31.1463 19.4083C31.0769 19.0871 31.0809 18.7543 31.158 18.4349C31.8454 15.7392 33.0719 11.6958 34.6893 10.0784C32.2632 11.1184 30.1959 12.8479 28.7439 15.0522C27.2919 17.2566 26.5191 19.8387 26.5215 22.4783V23.8262H29.2171C33.9911 23.7908 38.5986 22.0672 42.2236 18.9605C39.4389 20.3534 36.3741 21.0954 33.2606 21.1305Z" fill="#A87E6B"/>
<path d="M52.1303 25.1741V23.8263C52.1303 20.6091 50.8523 17.5237 48.5774 15.2488C46.3025 12.9739 43.2171 11.6959 39.9999 11.6959C36.7827 11.6959 33.6973 12.9739 31.4224 15.2488C29.1475 17.5237 27.8695 20.6091 27.8695 23.8263V25.1741C27.8695 25.5316 27.7275 25.8744 27.4747 26.1272C27.2219 26.3799 26.8791 26.5219 26.5217 26.5219C26.1642 26.5219 25.8214 26.3799 25.5686 26.1272C25.3158 25.8744 25.1738 25.5316 25.1738 25.1741V23.8263C25.1738 19.8942 26.7359 16.1231 29.5163 13.3427C32.2967 10.5623 36.0678 9.00024 39.9999 9.00024C43.932 9.00024 47.7031 10.5623 50.4835 13.3427C53.2639 16.1231 54.8259 19.8942 54.8259 23.8263V25.1741C54.8259 25.5316 54.6839 25.8744 54.4312 26.1272C54.1784 26.3799 53.8356 26.5219 53.4781 26.5219C53.1206 26.5219 52.7778 26.3799 52.525 26.1272C52.2723 25.8744 52.1303 25.5316 52.1303 25.1741Z" fill="#425B72"/>
<path d="M54.8259 41.3478H42.6955C42.338 41.3478 41.9952 41.2058 41.7424 40.9531C41.4897 40.7003 41.3477 40.3575 41.3477 40C41.3477 39.6426 41.4897 39.2997 41.7424 39.047C41.9952 38.7942 42.338 38.6522 42.6955 38.6522H53.4781V33.2609C53.4781 32.9034 53.6201 32.5606 53.8728 32.3079C54.1256 32.0551 54.4684 31.9131 54.8259 31.9131C55.1833 31.9131 55.5262 32.0551 55.7789 32.3079C56.0317 32.5606 56.1737 32.9034 56.1737 33.2609V40C56.1737 40.3575 56.0317 40.7003 55.7789 40.9531C55.5262 41.2058 55.1833 41.3478 54.8259 41.3478Z" fill="#374F68"/>
<path d="M57.2922 33.0318C55.3783 34.9188 53.4779 34.6088 50.7822 34.6088V23.8262H53.4779C54.5448 23.8253 55.588 24.1411 56.4753 24.7334C57.3627 25.3258 58.0544 26.1681 58.4628 27.1537C58.8712 28.1394 58.978 29.2241 58.7696 30.2704C58.5612 31.3168 58.0471 32.2778 57.2922 33.0318Z" fill="#374F68"/>
<path d="M58.3841 31.4279C55.6345 32.6948 53.478 31.3066 53.478 29.2175V23.8262C54.3773 23.828 55.2617 24.0548 56.0509 24.4858C56.8401 24.9168 57.509 25.5384 57.9966 26.294C58.4842 27.0495 58.7751 27.915 58.8428 28.8117C58.9105 29.7084 58.7528 30.6077 58.3841 31.4279Z" fill="#425B72"/>
<path d="M29.2173 23.8262V34.6088C26.9395 34.6088 23.206 35.094 21.6156 31.4279C21.2469 30.6077 21.0892 29.7084 21.1569 28.8117C21.2246 27.915 21.5155 27.0495 22.0031 26.294C22.4907 25.5384 23.1596 24.9168 23.9488 24.4858C24.738 24.0548 25.6224 23.828 26.5217 23.8262H29.2173Z" fill="#374F68"/>
<path d="M26.5217 23.8262V29.2175C26.5217 31.3335 24.3517 32.6948 21.6156 31.4279C21.2469 30.6077 21.0892 29.7084 21.1569 28.8117C21.2246 27.915 21.5155 27.0495 22.0031 26.294C22.4907 25.5384 23.1596 24.9168 23.9488 24.4858C24.738 24.0548 25.6224 23.828 26.5217 23.8262Z" fill="#425B72"/>
</svg>
