<svg width="50" height="50" viewBox="0 0 50 50" fill="none" xmlns="http://www.w3.org/2000/svg">
<path d="M41.6791 41.5919C39.5614 43.7248 37.0263 45.4551 34.218 46.6544C31.4096 47.8537 28.3129 48.5216 25.0643 48.5294H25.0111C18.5368 48.5294 12.6621 45.918 8.41162 41.6831L14.1042 35.9601C16.9125 38.753 20.7684 40.476 25.0415 40.4608C29.3148 40.4456 33.1705 38.7074 35.9561 35.8993L41.6791 41.5919Z" fill="#178BFF"/>
<path d="M14.1047 35.9601C11.2963 33.1823 9.55496 29.3161 9.54307 25.043C9.5312 20.7773 11.251 16.9092 14.0363 14.1004L8.3203 8.41626C4.07411 12.686 1.45667 18.5835 1.4747 25.0654C1.49278 31.5622 4.14288 37.4372 8.41286 41.6837L14.1047 35.9601Z" fill="#48495B"/>
<path d="M41.5884 8.32436L35.8958 14.0473C33.1027 11.254 29.224 9.52366 24.9508 9.53886C20.8777 9.55301 16.9783 11.143 14.0362 14.1003L8.3208 8.41553C12.5486 4.1498 18.4233 1.48547 24.9281 1.47065C31.4328 1.45545 37.3227 4.07382 41.5884 8.32436Z" fill="#F95353"/>
<path d="M48.5257 24.9314V24.9848C48.5257 31.459 45.9147 37.334 41.6794 41.5919L35.9564 35.8993C38.7496 33.0986 40.4726 29.2276 40.4574 24.9544C40.4422 20.6887 38.704 16.8406 35.8957 14.0473L41.5883 8.32434C45.854 12.5671 48.5105 18.4494 48.5257 24.9314ZM19.504 25.0402V31.2642C19.504 31.6834 19.1641 32.0232 18.745 32.0232H16.0564C15.6372 32.0232 15.2974 31.6834 15.2974 31.2642V25.0402C15.2974 24.621 15.6372 24.2812 16.0564 24.2812H18.745C19.1641 24.2812 19.504 24.621 19.504 25.0402Z" fill="#FFD550"/>
<path d="M27.1031 16.786V31.2643C27.1031 31.6835 26.7633 32.0233 26.3441 32.0233H23.6555C23.2363 32.0233 22.8965 31.6835 22.8965 31.2643V16.786C22.8965 16.3668 23.2363 16.027 23.6555 16.027H26.3441C26.7633 16.027 27.1031 16.3668 27.1031 16.786Z" fill="#00CC6F"/>
<path d="M34.7027 21.2074V31.2643C34.7027 31.6835 34.3629 32.0233 33.9437 32.0233H31.2551C30.8359 32.0233 30.4961 31.6835 30.4961 31.2643V21.2074C30.4961 20.7882 30.8359 20.4484 31.2551 20.4484H33.9437C34.3629 20.4484 34.7027 20.7882 34.7027 21.2074Z" fill="#F95353"/>
</svg>
