<svg width="80" height="80" viewBox="0 0 80 80" fill="none" xmlns="http://www.w3.org/2000/svg">
<path d="M29.8461 24.7692V44.4615H9.0769V24.7692C9.0769 19.0768 13.6923 14.3076 19.5384 14.3076C22.4615 14.3076 25.0769 15.5384 26.9231 17.3845C28.6154 19.3845 29.8461 21.9999 29.8461 24.7692Z" fill="#AB604B"/>
<path d="M22 14.7692C17.5384 15.9999 14.1538 19.9999 14.1538 24.923V44.6153H9.0769V24.7692C9.0769 19.0768 13.6923 14.3076 19.5384 14.3076C20.3077 14.4615 21.2307 14.4615 22 14.7692Z" fill="#8B4F4F"/>
<path d="M36.1538 48.6152V60.6152C36.1538 62.3076 34.9231 63.5383 33.3846 63.5383C31.8461 63.5383 30.6154 62.3076 30.6154 60.6152V70.7691H7.0769V62.4614C6.76921 62.6152 6.30767 62.7691 5.84614 62.7691C4.46152 62.9229 3.0769 61.5383 3.0769 59.9999V48.7691C3.0769 43.6922 7.0769 39.5383 12 39.5383H27.2308C32.1538 39.3845 36.1538 43.5383 36.1538 48.6152Z" fill="#E83D62"/>
<path d="M8.76929 51.3848H9.84621V62.9232H8.76929V51.3848Z" fill="#CE2955"/>
<path d="M33.2307 63.6924H43.846V57.8462H33.2307C31.6922 57.8462 30.4614 59.2308 30.4614 60.7693C30.4614 62.3077 31.6922 63.6924 33.2307 63.6924Z" fill="#E83D62"/>
<path d="M30.4614 60.7692C30.4614 62.4615 31.6922 63.6923 33.2307 63.6923H43.846V62.1538H33.2307C31.846 62.1538 30.7691 61.2308 30.4614 60V60.7692Z" fill="#CE2955"/>
<path d="M30.4614 51.3848H31.5383V62.9232H30.4614V51.3848Z" fill="#CE2955"/>
<path d="M5.99994 62.9233H19.3846V57.0771H5.99994C4.46148 57.0771 3.23071 58.4618 3.23071 60.0002C3.07687 61.5387 4.46148 62.9233 5.99994 62.9233Z" fill="#E83D62"/>
<path d="M3.0769 60.0002C3.0769 61.6925 4.30767 62.9233 5.84613 62.9233H19.2307V61.3848H5.99998C4.61537 61.3848 3.53844 60.4617 3.23075 59.231C3.23075 59.3848 3.0769 59.6925 3.0769 60.0002Z" fill="#CE2955"/>
<path d="M15.6924 60C15.6924 62.1538 17.3847 63.8461 19.3847 63.8461C21.3847 63.8461 23.077 62.1538 23.077 60C23.077 57.8461 21.3847 56.1538 19.3847 56.1538C17.3847 56.1538 15.6924 57.8461 15.6924 60Z" fill="#FFAF93"/>
<path d="M16.1538 61.846C16.7692 63.0768 18 63.846 19.3846 63.846C21.3846 63.846 23.0769 62.1537 23.0769 59.9999C23.0769 58.6152 22.3077 57.2306 21.0769 56.6152C21.3846 57.2306 21.5384 57.846 21.5384 58.4614C21.5384 60.6152 19.8461 62.3075 17.8461 62.3075C17.2307 62.1537 16.6153 61.9999 16.1538 61.846Z" fill="#EE8778"/>
<path d="M40.1538 60.1538C40.1538 62.3076 41.8461 63.9999 43.8461 63.9999C45.8461 63.9999 47.5384 62.3076 47.5384 60.1538C47.5384 57.9999 45.8461 56.3076 43.8461 56.3076C41.8461 56.3076 40.1538 57.9999 40.1538 60.1538Z" fill="#FFAF93"/>
<path d="M40.6155 61.9998C41.2309 63.2306 42.4616 63.9998 43.8462 63.9998C45.8462 63.9998 47.5386 62.3075 47.5386 60.1537C47.5386 58.769 46.7693 57.3844 45.5386 56.769C45.8462 57.3844 46.0001 57.9998 46.0001 58.6152C46.0001 60.769 44.3078 62.4613 42.3078 62.4613C41.8462 62.4613 41.2309 62.3075 40.6155 61.9998Z" fill="#EE8778"/>
<path d="M17.3845 27.846C17.2307 27.0768 16.6153 26.6152 15.8461 26.6152C15.0768 26.6152 14.4615 27.0768 14.3076 27.846H17.3845ZM24.4615 27.846C24.3076 27.0768 23.6922 26.6152 22.923 26.6152C22.1538 26.6152 21.5384 27.0768 21.3845 27.846H24.4615Z" fill="#312E4B"/>
<path d="M23.3845 36.769V39.9998C23.3845 42.1537 21.5384 43.9998 19.3845 43.9998C18.3076 43.9998 17.2307 43.5383 16.6153 42.769C15.8461 41.9998 15.3845 41.0767 15.3845 39.9998V36.769H23.3845Z" fill="#FFAF93"/>
<path d="M26.7692 22.6152V32.6152C26.7692 32.9229 26.6153 33.2306 26.6153 33.5383C25.8461 36.7691 22.923 39.2306 19.5384 39.2306C17.5384 39.2306 15.6922 38.4614 14.4615 37.0768C13.0768 35.6922 12.3076 33.9998 12.3076 31.9998V22.6152H26.7692Z" fill="#FFAF93"/>
<path d="M29.2309 30.0001C29.2309 31.3847 28.1539 32.6155 26.6155 32.6155V27.5386C28.1539 27.5386 29.2309 28.6155 29.2309 30.0001Z" fill="#FFAF93"/>
<path d="M27.3845 27.6922C27.2307 27.6922 26.923 27.5383 26.7691 27.5383V32.6153C27.0768 32.6153 27.2307 32.6153 27.3845 32.4614V27.6922ZM17.8461 42.7691C18.4614 43.3845 19.2307 43.846 19.9999 43.846H19.3845C18.3076 43.846 17.2307 43.3845 16.6153 42.6153C15.8461 41.846 15.3845 40.923 15.3845 39.846V37.846C14.923 37.5383 14.6153 37.2307 14.1538 36.923C12.7691 35.5383 11.9999 33.846 11.9999 31.846V32.6153C10.6153 32.6153 9.38452 31.5383 9.38452 29.9999C9.38452 29.2307 9.84606 28.4614 10.3076 27.9999C10.7691 27.6922 11.2307 27.3845 11.8461 27.3845V22.4614H13.9999V31.846C13.9999 33.6922 14.6153 35.2307 15.6922 36.4614L16.1538 36.923C17.2307 37.9999 18.6153 38.7691 20.1538 38.923C21.2307 38.7691 22.1538 38.4614 23.0768 37.846V39.0768C21.8461 39.6922 20.6153 39.9999 19.0768 39.9999H18.6153C17.6922 40.1537 16.923 41.846 17.8461 42.7691Z" fill="#EE8778"/>
<path d="M19.9999 30.923V31.9999C19.9999 32.3076 19.6923 32.6153 19.3846 32.6153C19.0769 32.6153 18.7692 32.3076 18.7692 31.9999V30.923C18.7692 30.6153 19.0769 30.3076 19.3846 30.3076C19.5384 30.3076 19.6923 30.3076 19.8461 30.4615C19.9999 30.6153 19.9999 30.7692 19.9999 30.923ZM17.2307 34.3076C17.3846 35.3845 18.4615 36.1538 19.5384 36.1538C20.6153 36.1538 21.5384 35.3845 21.8461 34.3076H17.2307Z" fill="#EE8778"/>
<path d="M17.3845 28.7693C17.2307 28.154 16.6153 27.5386 15.8461 27.5386C15.0768 27.5386 14.4615 28.0001 14.3076 28.7693H17.3845ZM24.4615 28.7693C24.3076 28.154 23.6922 27.5386 22.923 27.5386C22.1538 27.5386 21.5384 28.0001 21.3845 28.7693H24.4615Z" fill="#312E4B"/>
<path d="M25.5384 31.6921C25.5384 32.1536 24.9231 32.4613 24.1538 32.4613C23.3846 32.4613 22.7692 32.1536 22.7692 31.6921C22.7692 31.2305 23.3846 30.9229 24.1538 30.9229C24.9231 30.9229 25.5384 31.3844 25.5384 31.6921ZM15.8461 31.6921C15.8461 32.1536 15.2307 32.4613 14.4615 32.4613C13.6923 32.4613 13.0769 32.1536 13.0769 31.6921C13.0769 31.2305 13.6923 30.9229 14.4615 30.9229C15.2307 30.9229 15.8461 31.3844 15.8461 31.6921Z" fill="#EE8778"/>
<path d="M27.2307 22C27.2307 24.4615 25.2307 26.3077 22.923 26.3077H15.6922C13.2307 26.3077 11.3845 24.3077 11.3845 22" fill="#AB604B"/>
<path d="M14.6153 22C14.3076 22.9231 14.3076 23.8462 14.3076 24.7692V26.1538C12.6153 25.5385 11.3845 24 11.3845 22H14.6153Z" fill="#8B4F4F"/>
<path d="M76.7692 43.5387L71.2308 63.0771C71.0769 63.6925 70.4615 64.1541 69.8461 64.1541H41.6923C40.7692 64.1541 40 63.231 40.3077 62.3079L45.8461 42.7694C46 42.1541 46.6154 41.6925 47.2308 41.6925H75.3846C76.3077 41.5387 77.0769 42.6156 76.7692 43.5387Z" fill="#5B5E8B"/>
<path d="M51.5384 41.5386C50.923 41.5386 50.3076 42.0001 50.1538 42.6155L44.6153 62.154C44.3076 63.077 45.0769 64.0001 45.9999 64.0001H41.8461C40.923 64.0001 40.1538 63.077 40.4615 62.154L45.9999 42.6155C46.1538 42.0001 46.7692 41.5386 47.3846 41.5386H51.5384ZM62.3076 70.9232H46.7692C46.3076 70.9232 45.8461 70.4617 45.8461 70.0001C45.8461 69.5386 46.3076 69.077 46.7692 69.077H53.3846C55.2307 69.077 56.6153 67.3847 56.3076 65.5386L54.4615 56.154C54.3076 55.6924 54.7692 55.3847 55.0769 55.3847H62.6153C62.923 55.3847 63.2307 55.6924 63.2307 56.0001L65.2307 67.6924C65.5384 69.2309 64.1538 70.9232 62.3076 70.9232Z" fill="#312E4B"/>
<path d="M67.2308 12.154V32.4617C67.2308 32.9233 67.0769 33.231 66.9231 33.5386C66.6154 34.3079 66 34.9233 65.3846 35.231C65.2308 35.3848 65.0769 35.3848 64.7692 35.3848H61.5384L62 37.8463C62.1538 38.6156 61.2307 39.231 60.4615 38.6156L56.9231 35.5386H35.6923C35.5384 35.5386 35.2307 35.3848 35.0769 35.3848C34.3077 35.0771 33.6923 34.4617 33.3846 33.6925C33.2308 33.3848 33.0769 32.9233 33.0769 32.4617V11.5386C33.0769 11.3848 33.2308 11.0771 33.2308 10.9233C33.5384 10.154 34.1538 9.6925 34.9231 9.3848C35.3846 9.23096 35.5384 9.23096 35.8461 9.23096H64.9231C65.0769 9.23096 65.3846 9.3848 65.5384 9.3848C66.3077 9.6925 66.7692 10.3079 67.0769 10.9233C67.2307 11.0771 67.2308 11.231 67.2308 11.5386V12.154Z" fill="#DEDDFF"/>
<path d="M40.0001 35.5387H36.4617C34.7693 35.5387 33.5386 34.1541 33.5386 32.4618V12.1541C33.5386 10.4618 34.9232 9.07715 36.6155 9.07715H40.0001C38.3078 9.07715 36.9232 10.4618 36.9232 12.1541V32.4618C36.9232 34.1541 38.3078 35.5387 40.0001 35.5387Z" fill="#C6C6F7"/>
<path d="M57.5385 16.923V27.6922C57.5385 29.0768 56.4616 30.1537 55.077 30.1537H44.3077C42.9231 30.1537 41.8462 29.0768 41.8462 27.6922V16.923C41.8462 15.5383 42.9231 14.4614 44.3077 14.4614H55.077C56.4616 14.6153 57.5385 15.6922 57.5385 16.923Z" fill="#65B9FF"/>
<path d="M46.7692 30.1537H44.4615C43.0769 30.1537 42 29.0768 42 27.6922V16.923C42 15.5383 43.0769 14.4614 44.4615 14.4614H46.7692C45.3846 14.4614 44.3077 15.5383 44.3077 16.923V27.6922C44.3077 29.0768 45.3846 30.1537 46.7692 30.1537Z" fill="#3E7FFF"/>
<path d="M45.0769 27.846C44.6153 27.846 44.1538 27.3845 44.1538 26.9229V17.5383C44.1538 17.0768 44.6153 16.6152 45.0769 16.6152H54.4615C54.923 16.6152 55.3846 16.9229 55.3846 17.5383V26.9229C55.3846 27.3845 54.923 27.846 54.4615 27.846H45.0769Z" fill="#DEDDFF"/>
<path d="M45.6922 17.6922V27.0768C45.6922 27.3845 45.9999 27.846 46.3076 27.846H45.2307C44.7692 27.846 44.3076 27.3845 44.3076 26.9229V17.5383C44.3076 17.0768 44.6153 16.6152 45.2307 16.6152H54.923H46.6153C45.9999 16.7691 45.6922 17.2306 45.6922 17.6922Z" fill="#C6C6F7"/>
<path d="M53.5385 11.8462V14.6154H54.6154V11.8462C54.6154 11.5385 54.3077 11.3847 54.1539 11.3847C53.6924 11.2308 53.5385 11.5385 53.5385 11.8462ZM50.6154 11.8462V14.6154H51.6924V11.8462C51.6924 11.5385 51.3847 11.3847 51.2308 11.3847C50.9231 11.2308 50.6154 11.5385 50.6154 11.8462ZM47.8462 11.8462V14.6154H48.9231V11.8462C48.9231 11.5385 48.6154 11.3847 48.4616 11.3847C48.1539 11.2308 47.8462 11.5385 47.8462 11.8462ZM45.077 11.8462V14.6154H46.1539V11.8462C46.1539 11.5385 45.8462 11.3847 45.6924 11.3847C45.2308 11.2308 45.077 11.5385 45.077 11.8462ZM46.1539 32.9231V30.1539H45.077V32.9231C45.077 33.2308 45.3847 33.3847 45.5385 33.3847C45.8462 33.3847 46.1539 33.2308 46.1539 32.9231ZM48.9231 32.9231V30.1539H47.8462V32.9231C47.8462 33.2308 48.1539 33.3847 48.3077 33.3847C48.6154 33.3847 48.9231 33.2308 48.9231 32.9231ZM51.6924 32.9231V30.1539H50.6154V32.9231C50.6154 33.2308 50.9231 33.3847 51.077 33.3847C51.5385 33.3847 51.6924 33.2308 51.6924 32.9231ZM54.6154 32.9231V30.1539H53.5385V32.9231C53.5385 33.2308 53.8462 33.3847 54.0001 33.3847C54.3077 33.3847 54.6154 33.2308 54.6154 32.9231ZM60.3077 26.0001H57.5385V27.077H60.3077C60.6154 27.077 60.7693 26.7693 60.7693 26.6154C60.9231 26.3077 60.6154 26.0001 60.3077 26.0001ZM60.3077 23.2308H57.5385V24.3077H60.3077C60.6154 24.3077 60.7693 24.0001 60.7693 23.8462C60.9231 23.5385 60.6154 23.2308 60.3077 23.2308ZM60.3077 20.4616H57.5385V21.5385H60.3077C60.6154 21.5385 60.7693 21.2308 60.7693 21.077C60.9231 20.6154 60.6154 20.4616 60.3077 20.4616ZM60.3077 17.5385H57.5385V18.6154H60.3077C60.6154 18.6154 60.7693 18.3077 60.7693 18.1539C60.9231 17.8462 60.6154 17.5385 60.3077 17.5385ZM39.2308 18.6154H42.0001V17.5385H39.2308C38.9231 17.5385 38.7693 17.8462 38.7693 18.0001C38.7693 18.4616 38.9231 18.6154 39.2308 18.6154ZM39.2308 21.5385H42.0001V20.4616H39.2308C38.9231 20.4616 38.7693 20.7693 38.7693 20.9231C38.7693 21.2308 38.9231 21.5385 39.2308 21.5385ZM39.2308 24.3077H42.0001V23.2308H39.2308C38.9231 23.2308 38.7693 23.5385 38.7693 23.6924C38.7693 24.0001 38.9231 24.3077 39.2308 24.3077ZM39.2308 27.077H42.0001V26.0001H39.2308C38.9231 26.0001 38.7693 26.3077 38.7693 26.4616C38.7693 26.9231 38.9231 27.077 39.2308 27.077Z" fill="#312E4B"/>
<path d="M46.1538 25.231C46.1538 25.231 46 25.0771 46 24.9233V24.7694L48.1538 19.6925C48.1538 19.5386 48.3077 19.5386 48.3077 19.3848C48.4615 19.3848 48.4615 19.231 48.6154 19.231H48.7692C48.9231 19.231 48.9231 19.231 49.0769 19.3848C49.2308 19.3848 49.2308 19.5386 49.2308 19.6925L51.3846 24.7694V24.9233C51.3846 25.0771 51.3846 25.0771 51.2308 25.231C51.2308 25.231 51.0769 25.3848 50.9231 25.3848H50.7692L50.6154 25.231L50 23.8463H47.0769L46.4615 25.231L46.3077 25.3848H46.1538C46.3077 25.3848 46.1538 25.231 46.1538 25.231ZM47.6923 23.0771H50L48.9231 20.3079L47.6923 23.0771Z" fill="#E83D62"/>
<path d="M51.2307 25.3848H50.923L50.7692 25.231L50.3077 24.0002H47.5384L47.0769 25.231C47.0769 25.3848 46.923 25.3848 46.923 25.3848H46.6153C46.4615 25.3848 46.3077 25.3848 46.3077 25.231C46.1538 25.0771 46.1538 25.0771 46.1538 24.9233V24.7694L48.3077 19.6925C48.3077 19.5386 48.4615 19.5386 48.4615 19.3848C48.6153 19.3848 48.6153 19.231 48.7692 19.231H48.923C49.0769 19.231 49.2307 19.231 49.2307 19.3848C49.3846 19.3848 49.3846 19.5386 49.3846 19.6925L51.5384 24.7694V24.9233C51.5384 25.0771 51.5384 25.231 51.3846 25.231C51.3846 25.3848 51.2307 25.3848 51.2307 25.3848ZM47.2307 23.6925H50.3077L50.923 25.0771C50.923 25.0771 50.923 25.231 51.0769 25.231H51.2307C51.3846 25.231 51.3846 25.231 51.3846 25.0771L51.5384 24.9233V24.7694L49.2307 19.6925C49.2307 19.5386 49.0769 19.5386 49.0769 19.5386C49.0769 19.5386 48.923 19.3848 48.7692 19.3848H48.6153C48.4615 19.3848 48.4615 19.3848 48.3077 19.5386L48.1538 19.6925L46.1538 24.7694V24.9233C46.1538 25.0771 46.1538 25.0771 46.3077 25.0771L46.4615 25.231H46.6153L46.7692 25.0771L47.2307 23.6925ZM50 23.0771H47.5384V22.9233L48.7692 20.0002L50 23.0771ZM47.6923 22.9233H49.6923L48.6153 20.4617L47.6923 22.9233ZM52.923 25.231C52.923 25.231 52.7692 25.0771 52.7692 24.9233V19.6925C52.7692 19.5386 52.7692 19.5386 52.923 19.3848C52.923 19.3848 53.0769 19.231 53.2307 19.231C53.3846 19.231 53.3846 19.231 53.5384 19.3848C53.5384 19.5386 53.6923 19.5386 53.6923 19.6925V24.9233C53.6923 25.0771 53.6923 25.0771 53.5384 25.231C53.3846 25.231 53.3846 25.3848 53.2307 25.3848C53.0769 25.3848 52.923 25.231 52.923 25.231Z" fill="#E83D62"/>
<path d="M53.2308 25.3849C53.077 25.3849 52.9231 25.3849 52.9231 25.2311C52.7693 25.0772 52.7693 25.0772 52.7693 24.9234V19.6926C52.7693 19.5388 52.7693 19.3849 52.9231 19.3849C53.077 19.2311 53.3847 19.2311 53.5385 19.3849C53.6924 19.5388 53.6924 19.5388 53.6924 19.6926V24.9234C53.6924 25.0772 53.6924 25.2311 53.5385 25.2311C53.3847 25.3849 53.3847 25.3849 53.2308 25.3849ZM53.2308 19.3849C53.077 19.3849 53.077 19.3849 53.077 19.5388L52.9231 19.6926V24.9234C52.9231 25.0772 52.9231 25.0772 53.077 25.0772C53.2308 25.2311 53.3847 25.2311 53.5385 25.0772L53.6924 24.9234V19.6926C53.6924 19.5388 53.6924 19.5388 53.5385 19.5388C53.3847 19.3849 53.2308 19.3849 53.2308 19.3849Z" fill="#E83D62"/>
</svg>
