<svg width="50" height="50" viewBox="0 0 50 50" fill="none" xmlns="http://www.w3.org/2000/svg">
<path d="M25.0004 46.9993H10.3342C7.09448 46.9993 4.46777 44.3726 4.46777 41.1328V8.86731C4.46777 5.62756 7.09448 3.00085 10.3342 3.00085H25.0004C28.2401 3.00085 30.8668 5.62756 30.8668 8.86731V41.1328C30.8668 44.3726 28.2401 46.9993 25.0004 46.9993Z" fill="#EEEEFF"/>
<path d="M25.0002 1.53418H10.334C6.29352 1.53418 3.00098 4.82673 3.00098 8.86725V41.1328C3.00098 45.1733 6.29352 48.4658 10.334 48.4658H25.0002C29.0407 48.4658 32.3333 45.1733 32.3333 41.1328V8.86725C32.3333 4.82673 29.0407 1.53418 25.0002 1.53418ZM29.4 41.1328H5.9342V8.86725C5.9342 6.44 7.9068 4.46741 10.334 4.46741H25.0002C27.4274 4.46741 29.4 6.44 29.4 8.86725V41.1328Z" fill="#6D6DFC"/>
<path d="M20.6006 10.3339H14.0008C13.1912 10.3339 12.5342 9.67682 12.5342 8.86725C12.5342 8.05768 13.1912 7.40063 14.0008 7.40063H20.6006C21.4101 7.40063 22.0672 8.05768 22.0672 8.86725C22.0672 9.67682 21.4101 10.3339 20.6006 10.3339Z" fill="#CACAFC"/>
<path d="M20.6003 33.7997V35.2664C20.6003 36.073 19.9403 36.733 19.1337 36.733H15.4672C14.7779 36.733 14.1765 36.249 14.0299 35.5743L11.83 25.308C11.742 24.8754 11.8446 24.4207 12.1233 24.0761C12.4019 23.7314 12.8273 23.5334 13.2672 23.5334H16.2005C16.9484 23.5334 17.5791 24.0981 17.6597 24.8387L18.3344 30.9252L20.1677 32.7658C20.4463 33.0371 20.6003 33.4111 20.6003 33.7997Z" fill="#F24327"/>
<path d="M37.5033 29.2019C37.9433 29.7446 37.936 30.5292 37.4813 31.0645C37.1953 31.4018 36.7773 31.5852 36.3594 31.5852C36.1174 31.5852 35.8754 31.5265 35.648 31.4018C31.4609 29.0846 26.7164 27.6253 21.9352 27.1927C21.1799 27.1267 20.6006 26.4887 20.6006 25.7334V15.4671C20.6006 14.7118 21.1799 14.0738 21.9352 14.0078C24.4578 13.7732 26.973 13.2672 29.4149 12.4825C31.5709 11.8006 33.6681 10.8913 35.648 9.79863C36.264 9.46131 37.0267 9.60064 37.4813 10.1359C37.936 10.6713 37.9433 11.4559 37.5033 11.9985C36.1247 13.7145 35.2667 17.0144 35.2667 20.6002C35.2667 24.1861 36.1247 27.486 37.5033 29.2019Z" fill="#F49625"/>
<path d="M22.0672 14.7337V26.4666C22.0672 27.2733 21.4072 27.9332 20.6006 27.9332H14.7341C11.5002 27.9332 8.86768 25.3007 8.86768 22.0668V19.1335C8.86768 15.8997 11.5002 13.2671 14.7341 13.2671H20.6006C21.4072 13.2671 22.0672 13.9271 22.0672 14.7337Z" fill="#0F0FED"/>
<path d="M16.934 22.0668H14.0008C13.1912 22.0668 12.5342 21.4097 12.5342 20.6002C12.5342 19.7906 13.1912 19.1335 14.0008 19.1335H16.934C17.7436 19.1335 18.4006 19.7906 18.4006 20.6002C18.4006 21.4097 17.7436 22.0668 16.934 22.0668Z" fill="#7777F7"/>
<path d="M38.933 31.5998C41.7679 31.5998 44.0661 26.6751 44.0661 20.6002C44.0661 14.5253 41.7679 9.60059 38.933 9.60059C36.098 9.60059 33.7998 14.5253 33.7998 20.6002C33.7998 26.6751 36.098 31.5998 38.933 31.5998Z" fill="#F49625"/>
<path d="M40.3996 20.6002C40.3996 23.8854 38.009 26.6426 34.7971 27.1193C34.1665 25.3007 33.7998 23.0421 33.7998 20.6002C33.7998 18.1582 34.1665 15.8997 34.7971 14.0811C38.009 14.5577 40.3996 17.3149 40.3996 20.6002Z" fill="#0F0FED"/>
<path d="M38.9333 33.0663C35.1707 33.0663 32.3335 27.7066 32.3335 20.6001C32.3335 13.4937 35.1707 8.13391 38.9333 8.13391C42.6959 8.13391 45.533 13.4937 45.533 20.6001C45.533 27.7066 42.6959 33.0663 38.9333 33.0663ZM38.9333 11.0671C37.438 11.0671 35.2667 14.7806 35.2667 20.6001C35.2667 26.4197 37.438 30.1331 38.9333 30.1331C40.4285 30.1331 42.5998 26.4197 42.5998 20.6001C42.5998 14.7806 40.4285 11.0671 38.9333 11.0671Z" fill="#F4C38E"/>
<path d="M40.3997 39.6661C39.5901 39.6661 38.9331 39.0091 38.9331 38.1995V36.7329C38.9331 35.9233 39.5901 35.2663 40.3997 35.2663C41.2093 35.2663 41.8663 35.9233 41.8663 36.7329V38.1995C41.8663 39.0091 41.2093 39.6661 40.3997 39.6661ZM45.5336 37.4662C44.9961 37.4662 44.4776 37.1692 44.2202 36.6552L43.4869 35.1886C43.1247 34.4641 43.4187 33.5834 44.1433 33.2204C44.867 32.8581 45.7485 33.1514 46.1114 33.8767L46.8448 35.3433C47.207 36.0678 46.913 36.9485 46.1884 37.3115C45.978 37.4171 45.7543 37.4662 45.5336 37.4662ZM40.3997 5.93402C39.5901 5.93402 38.9331 5.27698 38.9331 4.46741V3.00079C38.9331 2.19122 39.5901 1.53418 40.3997 1.53418C41.2093 1.53418 41.8663 2.19122 41.8663 3.00079V4.46741C41.8663 5.27698 41.2093 5.93402 40.3997 5.93402ZM44.7988 8.13394C44.5781 8.13394 44.3544 8.08408 44.144 7.97921C43.4195 7.61696 43.1262 6.73626 43.4877 6.01102L44.221 4.5444C44.584 3.8199 45.4647 3.52584 46.1892 3.8881C46.9137 4.25035 47.207 5.13105 46.8455 5.85629L46.1122 7.3229C45.8541 7.83695 45.3363 8.13394 44.7988 8.13394Z" fill="#F24327"/>
</svg>
