<svg width="50" height="50" viewBox="0 0 50 50" fill="none" xmlns="http://www.w3.org/2000/svg">
<g clip-path="url(#clip0_52_335)">
<path d="M34.6775 38.3065L35.4839 40.7259H31.7984L31.4517 38.3065H34.6775Z" fill="#434A54"/>
<path d="M31.7981 40.7259L33.0642 49.5969H27.4191L25.8062 38.3065H31.4513L31.7981 40.7259Z" fill="#656D78"/>
<path d="M18.5488 31.0484C18.5488 29.1234 19.3135 27.2773 20.6747 25.9161C22.0358 24.555 23.8819 23.7903 25.8069 23.7903H38.7102V38.3065H25.8069C23.8819 38.3065 22.0358 37.5418 20.6747 36.1806C19.3135 34.8195 18.5488 32.9733 18.5488 31.0484Z" fill="#ED5565"/>
<path d="M50.0001 23.7902V38.3064C50.0001 40.5322 48.1936 42.3386 45.9678 42.3386C43.7339 42.3386 41.9355 40.5322 41.9355 38.3064V32.6612H45.9678C46.8557 32.6612 47.5807 31.9354 47.5807 31.0483C47.5807 30.1612 46.8557 29.4354 45.9678 29.4354H41.9355V23.7902C41.9355 21.5644 43.7339 19.7579 45.9678 19.7579C48.1936 19.7579 50.0001 21.5644 50.0001 23.7902Z" fill="#E6E9ED"/>
<path d="M45.9678 42.3386C46.3797 42.3329 46.7882 42.2638 47.1791 42.1338C45.5477 41.6169 44.3549 40.108 44.3549 38.3064V23.7902C44.3549 21.9886 45.5477 20.4797 47.1791 19.9628C46.7882 19.8328 46.3797 19.7637 45.9678 19.7579C43.742 19.7579 41.9355 21.5644 41.9355 23.7902V38.3064C41.9355 40.5322 43.742 42.3386 45.9678 42.3386Z" fill="#CCD1D9"/>
<path d="M45.1611 19.7579H45.9676C43.7337 19.7579 41.9353 21.5644 41.9353 23.7902V38.3064C41.9353 40.5322 43.7337 42.3386 45.9676 42.3386H42.7417C40.5079 42.3386 38.7095 40.5322 38.7095 38.3064V23.7902C38.7095 21.5644 40.5079 19.7579 42.7417 19.7579H45.1611Z" fill="#F5F7FA"/>
<path d="M45.9678 29.4354C46.8557 29.4354 47.5807 30.1612 47.5807 31.0483C47.5807 31.9354 46.8557 32.6612 45.9678 32.6612H41.9355V29.4354H45.9678Z" fill="#ED5565"/>
<path d="M41.9355 29.4354H44.3549V32.6612H41.9355V29.4354Z" fill="#DA4453"/>
<path d="M45.1614 1.20966V19.7581H42.7421C40.5162 19.7581 38.7098 21.5646 38.7098 23.7904H36.3227L26.0162 15.3226L44.6372 0.0241699C44.9598 0.322558 45.1614 0.741914 45.1614 1.20966ZM0.524195 0.0241699L19.1452 15.3226L0.524195 30.621C0.201613 30.3226 0 29.9033 0 29.4355V1.20966C0 0.741914 0.201613 0.322558 0.524195 0.0241699Z" fill="#EDAB37"/>
<path d="M36.3224 23.7904H25.8063C23.8813 23.7904 22.0352 24.5551 20.674 25.9162C19.3129 27.2774 18.5482 29.1235 18.5482 31.0485H1.61264C1.19328 31.0485 0.806185 30.8872 0.523926 30.6211L19.1449 15.3226L22.5804 18.1452L26.0159 15.3226L36.3224 23.7904Z" fill="#F6BB42"/>
<path d="M44.6369 0.0241002L26.0159 15.3225L22.5804 18.1451L19.1449 15.3225L0.523926 0.0241002C0.806185 -0.24203 1.19328 -0.40332 1.61264 -0.40332H43.5482C43.9684 -0.40332 44.3547 -0.24203 44.6369 0.0241002Z" fill="#FFCE54"/>
<path d="M33.8709 50.4033H27.4192C27.2054 50.4033 27.0002 50.3183 26.849 50.1671C26.6978 50.0159 26.6128 49.8107 26.6128 49.5969C26.6128 49.383 26.6978 49.1778 26.849 49.0266C27.0002 48.8754 27.2054 48.7904 27.4192 48.7904H33.8709C34.0848 48.7904 34.2899 48.8754 34.4411 49.0266C34.5924 49.1778 34.6773 49.383 34.6773 49.5969C34.6773 49.8107 34.5924 50.0159 34.4411 50.1671C34.2899 50.3183 34.0848 50.4033 33.8709 50.4033Z" fill="#ED5565"/>
<path d="M22.5811 30.2419H18.5964C18.5666 30.5073 18.5488 30.7758 18.5488 31.0484C18.5488 31.321 18.5666 31.5895 18.5964 31.8548H22.5811C22.795 31.8548 23.0001 31.7699 23.1513 31.6186C23.3026 31.4674 23.3876 31.2623 23.3876 31.0484C23.3876 30.8345 23.3026 30.6294 23.1513 30.4781C23.0001 30.3269 22.795 30.2419 22.5811 30.2419ZM22.5811 27.0161H19.773C19.4399 27.5184 19.1706 28.0602 18.9714 28.629H22.5811C22.795 28.629 23.0001 28.5441 23.1513 28.3928C23.3026 28.2416 23.3876 28.0365 23.3876 27.8226C23.3876 27.6087 23.3026 27.4036 23.1513 27.2523C23.0001 27.1011 22.795 27.0161 22.5811 27.0161ZM22.5811 33.4677H18.9706C19.1738 34.0411 19.44 34.5839 19.7722 35.0807H22.5811C22.795 35.0807 23.0001 34.9957 23.1513 34.8444C23.3026 34.6932 23.3876 34.4881 23.3876 34.2742C23.3876 34.0603 23.3026 33.8552 23.1513 33.7039C23.0001 33.5527 22.795 33.4677 22.5811 33.4677Z" fill="#DA4453"/>
</g>
<defs>
<clipPath id="clip0_52_335">
<rect width="50" height="50" fill="white"/>
</clipPath>
</defs>
</svg>
