<svg xmlns="http://www.w3.org/2000/svg" xmlns:xlink="http://www.w3.org/1999/xlink" width="50" zoomAndPan="magnify" viewBox="0 0 37.5 37.499999" height="50" preserveAspectRatio="xMidYMid meet" version="1.0"><defs><clipPath id="2a1ea0db95"><path d="M 0 0 L 37.007812 0 L 37.007812 37.007812 L 0 37.007812 Z M 0 0 " clip-rule="nonzero"/></clipPath></defs><g clip-path="url(#2a1ea0db95)"><path fill="#ffffff" d="M 0 0 L 37.5 0 L 37.5 37.5 L 0 37.5 Z M 0 0 " fill-opacity="1" fill-rule="nonzero"/><path fill="#ffffff" d="M 0 0 L 37.5 0 L 37.5 37.5 L 0 37.5 Z M 0 0 " fill-opacity="1" fill-rule="nonzero"/><path fill="#050a30" d="M 31.25 11.25 L 30.046875 11.25 L 30.046875 1.25 C 30.046875 0.558594 29.484375 0 28.796875 0 L 8.703125 0 C 8.015625 0 7.453125 0.558594 7.453125 1.25 L 7.453125 11.25 L 6.25 11.25 C 2.804688 11.25 0 14.054688 0 17.5 L 0 26.863281 C 0 30.308594 2.804688 33.113281 6.25 33.113281 L 7.449219 33.113281 L 7.449219 36.25 C 7.449219 36.941406 8.007812 37.5 8.699219 37.5 L 28.800781 37.5 C 29.492188 37.5 30.050781 36.941406 30.050781 36.25 L 30.050781 33.113281 L 31.25 33.113281 C 34.695312 33.113281 37.5 30.308594 37.5 26.863281 L 37.5 17.5 C 37.5 14.054688 34.695312 11.25 31.25 11.25 Z M 9.953125 2.5 L 27.546875 2.5 L 27.546875 11.25 L 9.953125 11.25 Z M 27.550781 35 L 9.949219 35 L 9.949219 26.25 L 27.550781 26.25 Z M 35 26.863281 C 35 28.929688 33.316406 30.613281 31.25 30.613281 L 30.050781 30.613281 L 30.050781 26.25 L 30.78125 26.25 C 31.472656 26.25 32.03125 25.691406 32.03125 25 C 32.03125 24.308594 31.472656 23.75 30.78125 23.75 L 6.71875 23.75 C 6.027344 23.75 5.46875 24.308594 5.46875 25 C 5.46875 25.691406 6.027344 26.25 6.71875 26.25 L 7.449219 26.25 L 7.449219 30.613281 L 6.25 30.613281 C 4.183594 30.613281 2.5 28.929688 2.5 26.863281 L 2.5 17.5 C 2.5 15.433594 4.183594 13.75 6.25 13.75 L 31.25 13.75 C 33.316406 13.75 35 15.433594 35 17.5 Z M 35 26.863281 " fill-opacity="1" fill-rule="nonzero"/></g><path fill="#050a30" d="M 30.671875 18.398438 C 30.671875 18.648438 30.621094 18.886719 30.527344 19.117188 C 30.433594 19.347656 30.296875 19.546875 30.121094 19.722656 C 29.945312 19.898438 29.742188 20.035156 29.511719 20.132812 C 29.28125 20.226562 29.042969 20.273438 28.796875 20.273438 C 28.546875 20.273438 28.308594 20.226562 28.078125 20.132812 C 27.847656 20.035156 27.644531 19.898438 27.46875 19.722656 C 27.292969 19.546875 27.15625 19.347656 27.0625 19.117188 C 26.96875 18.886719 26.921875 18.648438 26.921875 18.398438 C 26.921875 18.148438 26.96875 17.910156 27.0625 17.679688 C 27.15625 17.453125 27.292969 17.25 27.46875 17.074219 C 27.644531 16.898438 27.847656 16.761719 28.078125 16.667969 C 28.308594 16.570312 28.546875 16.523438 28.796875 16.523438 C 29.042969 16.523438 29.28125 16.570312 29.511719 16.667969 C 29.742188 16.761719 29.945312 16.898438 30.121094 17.074219 C 30.296875 17.25 30.433594 17.453125 30.527344 17.679688 C 30.621094 17.910156 30.671875 18.148438 30.671875 18.398438 Z M 30.671875 18.398438 " fill-opacity="1" fill-rule="nonzero"/><path fill="#050a30" d="M 24.792969 27.339844 L 12.707031 27.339844 C 12.019531 27.339844 11.457031 27.902344 11.457031 28.589844 C 11.457031 29.28125 12.019531 29.839844 12.707031 29.839844 L 24.792969 29.839844 C 25.480469 29.839844 26.042969 29.28125 26.042969 28.589844 C 26.042969 27.902344 25.480469 27.339844 24.792969 27.339844 Z M 24.792969 27.339844 " fill-opacity="1" fill-rule="nonzero"/><path fill="#050a30" d="M 18.75 31.410156 L 12.707031 31.410156 C 12.019531 31.410156 11.457031 31.96875 11.457031 32.660156 C 11.457031 33.347656 12.019531 33.910156 12.707031 33.910156 L 18.75 33.910156 C 19.441406 33.910156 20 33.347656 20 32.660156 C 20 31.96875 19.441406 31.410156 18.75 31.410156 Z M 18.75 31.410156 " fill-opacity="1" fill-rule="nonzero"/></svg>