<svg xmlns="http://www.w3.org/2000/svg" xmlns:xlink="http://www.w3.org/1999/xlink" width="40" zoomAndPan="magnify" viewBox="0 0 30 30.000001" height="40" preserveAspectRatio="xMidYMid meet" version="1.0"><defs><clipPath id="d10f33b756"><path d="M 0.484375 0 L 29.515625 0 L 29.515625 29.03125 L 0.484375 29.03125 Z M 0.484375 0 " clip-rule="nonzero"/></clipPath></defs><g clip-path="url(#d10f33b756)"><path fill="#050a30" d="M 24.675781 8.710938 L 23.746094 8.710938 L 23.746094 0.96875 C 23.746094 0.433594 23.3125 0 22.777344 0 L 7.222656 0 C 6.6875 0 6.253906 0.433594 6.253906 0.96875 L 6.253906 8.710938 L 5.324219 8.710938 C 2.65625 8.710938 0.484375 10.878906 0.484375 13.546875 L 0.484375 20.796875 C 0.484375 23.464844 2.65625 25.636719 5.324219 25.636719 L 6.25 25.636719 L 6.25 28.066406 C 6.25 28.597656 6.683594 29.03125 7.21875 29.03125 L 22.78125 29.03125 C 23.316406 29.03125 23.75 28.597656 23.75 28.066406 L 23.75 25.636719 L 24.675781 25.636719 C 27.34375 25.636719 29.515625 23.464844 29.515625 20.796875 L 29.515625 13.546875 C 29.515625 10.878906 27.34375 8.710938 24.675781 8.710938 Z M 8.191406 1.933594 L 21.808594 1.933594 L 21.808594 8.710938 L 8.191406 8.710938 Z M 21.8125 27.097656 L 8.1875 27.097656 L 8.1875 20.324219 L 21.8125 20.324219 Z M 27.582031 20.796875 C 27.582031 22.398438 26.277344 23.699219 24.675781 23.699219 L 23.75 23.699219 L 23.75 20.324219 L 24.316406 20.324219 C 24.847656 20.324219 25.28125 19.890625 25.28125 19.355469 C 25.28125 18.820312 24.847656 18.386719 24.316406 18.386719 L 5.683594 18.386719 C 5.152344 18.386719 4.71875 18.820312 4.71875 19.355469 C 4.71875 19.890625 5.152344 20.324219 5.683594 20.324219 L 6.25 20.324219 L 6.25 23.699219 L 5.324219 23.699219 C 3.722656 23.699219 2.417969 22.398438 2.417969 20.796875 L 2.417969 13.546875 C 2.417969 11.949219 3.722656 10.644531 5.324219 10.644531 L 24.675781 10.644531 C 26.277344 10.644531 27.582031 11.949219 27.582031 13.546875 Z M 27.582031 20.796875 " fill-opacity="1" fill-rule="nonzero"/></g><path fill="#050a30" d="M 24.226562 14.246094 C 24.226562 14.4375 24.191406 14.621094 24.117188 14.800781 C 24.042969 14.976562 23.9375 15.132812 23.804688 15.269531 C 23.667969 15.40625 23.511719 15.511719 23.332031 15.585938 C 23.15625 15.660156 22.96875 15.695312 22.777344 15.695312 C 22.585938 15.695312 22.398438 15.660156 22.222656 15.585938 C 22.042969 15.511719 21.886719 15.40625 21.75 15.269531 C 21.613281 15.132812 21.507812 14.976562 21.4375 14.800781 C 21.363281 14.621094 21.324219 14.4375 21.324219 14.246094 C 21.324219 14.050781 21.363281 13.867188 21.4375 13.6875 C 21.507812 13.511719 21.613281 13.355469 21.75 13.21875 C 21.886719 13.082031 22.042969 12.976562 22.222656 12.902344 C 22.398438 12.828125 22.585938 12.792969 22.777344 12.792969 C 22.96875 12.792969 23.15625 12.828125 23.332031 12.902344 C 23.511719 12.976562 23.667969 13.082031 23.804688 13.21875 C 23.9375 13.355469 24.042969 13.511719 24.117188 13.6875 C 24.191406 13.867188 24.226562 14.050781 24.226562 14.246094 Z M 24.226562 14.246094 " fill-opacity="1" fill-rule="nonzero"/><path fill="#050a30" d="M 19.675781 21.167969 L 10.324219 21.167969 C 9.789062 21.167969 9.355469 21.601562 9.355469 22.136719 C 9.355469 22.671875 9.789062 23.101562 10.324219 23.101562 L 19.675781 23.101562 C 20.210938 23.101562 20.644531 22.671875 20.644531 22.136719 C 20.644531 21.601562 20.210938 21.167969 19.675781 21.167969 Z M 19.675781 21.167969 " fill-opacity="1" fill-rule="nonzero"/><path fill="#050a30" d="M 15 24.316406 L 10.324219 24.316406 C 9.789062 24.316406 9.355469 24.75 9.355469 25.285156 C 9.355469 25.820312 9.789062 26.25 10.324219 26.25 L 15 26.25 C 15.535156 26.25 15.96875 25.820312 15.96875 25.285156 C 15.96875 24.75 15.535156 24.316406 15 24.316406 Z M 15 24.316406 " fill-opacity="1" fill-rule="nonzero"/></svg>