<svg width="85" height="19" viewBox="0 0 85 19" fill="none" xmlns="http://www.w3.org/2000/svg">
<path d="M9.61997 13.7564L10.6086 12.2305L5.06794 2.13159C4.91732 1.85803 4.64119 1.70361 4.35549 1.70361C4.21921 1.70361 4.08055 1.73887 3.95384 1.81182C3.55936 2.0404 3.4195 2.55349 3.64184 2.95837L9.51716 13.67C9.5339 13.7004 9.55303 13.7296 9.57454 13.7588H9.61997V13.7564Z" fill="url(#paint0_linear_112_82)"/>
<path d="M12.1799 9.95715L11.1394 11.531L7.44145 4.92271C7.3694 4.79247 7.33398 4.65127 7.33398 4.51251C7.33398 4.21672 7.48786 3.93311 7.76142 3.7773C8.16321 3.54968 8.67369 3.6921 8.89963 4.09743L12.1799 9.95715Z" fill="url(#paint1_linear_112_82)"/>
<path d="M7.58926 3.55866C7.96783 3.32849 8.10091 2.80906 7.88868 2.39917C7.6753 1.98929 7.19691 1.84405 6.81833 2.07545C6.43975 2.30563 6.30668 2.82506 6.51891 3.23494C6.73229 3.64482 7.21068 3.79007 7.58926 3.55866Z" fill="url(#paint2_linear_112_82)"/>
<path d="M12.0825 4.65095L13.7518 7.5956L12.6959 9.17218L10.5866 5.44838C10.5135 5.31792 10.4775 5.17648 10.4775 5.03625C10.4775 4.70094 10.6808 4.3766 11.0328 4.2437C11.4281 4.09494 11.8742 4.28515 12.0825 4.65217V4.65095Z" fill="url(#paint3_linear_112_82)"/>
<path d="M10.7318 3.96051C11.1104 3.74804 11.2435 3.26857 11.0313 2.89021C10.8179 2.51186 10.3395 2.37779 9.96091 2.5914C9.58233 2.80386 9.44925 3.28334 9.66149 3.66169C9.87487 4.04004 10.3533 4.17412 10.7318 3.96051Z" fill="url(#paint4_linear_112_82)"/>
<path d="M3.75717 1.59328C4.1673 1.36299 4.31147 0.843316 4.08155 0.43324C3.85039 0.0243944 3.33213 -0.120918 2.92201 0.109365C2.51188 0.339648 2.36771 0.859325 2.59763 1.2694C2.8288 1.67948 3.34705 1.82479 3.75717 1.59328Z" fill="url(#paint5_linear_112_82)"/>
<path d="M42.8385 4.45508H40.8532L36.6719 13.7585H38.6011L39.5833 11.5631H44.1083L45.0894 13.7585H47.0186L42.8385 4.45508ZM40.2292 10.1056L41.8452 6.47936L43.4612 10.1056H40.2292Z" fill="url(#paint6_linear_112_82)"/>
<path d="M16.3826 4.45508C13.8672 8.34062 12.9869 9.88391 10.4775 13.7585H12.7946C14.7779 10.6343 16.7454 7.58051 18.7287 4.45508H16.3826Z" fill="url(#paint7_linear_112_82)"/>
<path d="M21.0018 4.45508C20.332 4.45993 19.661 4.46357 18.9912 4.46842V13.7585H21.0867C21.0576 10.6574 21.0297 7.55623 21.0018 4.45508Z" fill="url(#paint8_linear_112_82)"/>
<path d="M28.1778 4.46478C27.4019 6.45742 26.6248 8.44885 25.8476 10.4415C25.1263 8.44522 24.405 6.45015 23.6837 4.45508C22.9054 4.45629 22.127 4.45872 21.3486 4.45993L25.045 13.7585H26.819C28.0516 10.6598 29.2841 7.55865 30.5166 4.45993C29.737 4.46236 28.9574 4.46357 28.1778 4.46478Z" fill="url(#paint9_linear_112_82)"/>
<path d="M39.4223 4.46478C38.6652 4.47448 37.9081 4.48419 37.1511 4.49389C36.4789 5.56965 35.808 6.64541 35.1358 7.71996C34.5594 6.64177 33.9841 5.56358 33.4076 4.48419C32.5752 4.47448 31.7416 4.46478 30.9092 4.45508C31.9712 6.26701 33.0333 8.07652 34.0953 9.88846V13.7585H35.7721C35.8762 13.7561 35.979 13.7549 36.0831 13.7525C36.0579 12.4438 36.034 11.1364 36.0089 9.82903C37.1463 8.04135 38.2849 6.25246 39.4223 4.46478Z" fill="url(#paint10_linear_112_82)"/>
<path d="M54.544 12.1671C52.431 12.1671 51.4389 10.9317 51.4389 9.0881C51.4389 7.24454 52.5342 6.03441 54.4286 6.03441C55.1621 6.03441 55.8069 6.19246 56.4117 6.4036V4.77119C55.7547 4.57332 54.9945 4.45508 54.119 4.45508C51.7352 4.45508 49.5068 5.83775 49.5068 9.14119C49.5068 11.5771 50.7358 13.3797 53.2993 13.7054C53.5737 13.7404 53.864 13.7585 54.17 13.7585C54.5464 13.7585 54.8901 13.7392 55.2046 13.7054C55.7401 13.6487 56.1894 13.551 56.5793 13.4436V11.8245C55.8069 12.0754 55.201 12.1659 54.544 12.1659V12.1671Z" fill="url(#paint11_linear_112_82)"/>
<path d="M61.1953 4.45508C58.1631 4.45508 56.8408 6.56018 56.8408 9.17798C56.8408 11.7958 58.2147 13.7585 61.1569 13.7585C64.099 13.7585 65.4849 11.6908 65.4849 9.0875C65.4849 6.48418 64.111 4.45508 61.1953 4.45508ZM61.1689 12.1782C59.4458 12.1782 58.7715 10.809 58.7715 9.09836C58.7715 7.49269 59.4326 6.0342 61.1689 6.0342C62.9051 6.0342 63.5662 7.41548 63.5662 9.09836C63.5662 10.7812 62.9063 12.1782 61.1689 12.1782Z" fill="url(#paint12_linear_112_82)"/>
<path d="M69.3717 8.58203H68.1148V6.07107H69.3717C70.3236 6.07107 70.9587 6.36335 70.9587 7.27039C70.9587 8.17742 70.3653 8.58203 69.3717 8.58203ZM73.606 13.7585L71.2208 9.58689C72.2573 9.08446 72.9328 8.14964 72.9328 7.10372C72.9328 5.60004 72.1656 4.71958 70.5476 4.45508H66.1406V13.7585H68.1148V10.2415H69.3848L71.3709 13.7585H73.606Z" fill="url(#paint13_linear_112_82)"/>
<path d="M76.7522 9.05843H75.91V6.15519H76.7115C77.6615 6.15519 78.4102 6.48771 78.4102 7.53728C78.4102 8.51793 77.8088 9.05843 76.7522 9.05843ZM75.91 13.7585V10.7162H76.7654C79.0511 10.7162 80.4156 9.51309 80.4156 7.45506C80.4156 5.21565 78.8642 4.45508 76.7654 4.45508H73.998V13.7585H75.91Z" fill="url(#paint14_linear_112_82)"/>
<path d="M12.5297 17.1614H11.6049L11.4139 17.57H11.1572L11.9452 15.9355H12.1916L12.983 17.57H12.7219L12.5308 17.1614H12.5297ZM12.4426 16.9746L12.0673 16.1733L11.692 16.9746H12.4426Z" fill="black"/>
<path d="M16.8375 15.9355L16.053 17.57H15.7997L15.0117 15.9355H15.2883L15.9322 17.2781L16.5818 15.9355H16.8375Z" fill="black"/>
<path d="M19.0033 17.5689L18.632 17.0672C18.5862 17.0704 18.5504 17.0715 18.5236 17.0715H18.0976V17.5689H17.8516V15.9355H18.5236C18.7461 15.9355 18.9216 15.9865 19.0502 16.0872C19.1788 16.188 19.2425 16.328 19.2425 16.5051C19.2425 16.6313 19.2101 16.7384 19.1441 16.8275C19.0782 16.9166 18.9854 16.9813 18.8635 17.0216L19.2716 17.57H19.0033V17.5689ZM18.8724 16.7777C18.9541 16.714 18.9954 16.6228 18.9954 16.5051C18.9954 16.3874 18.9541 16.2962 18.8724 16.2336C18.7908 16.171 18.6712 16.1392 18.5157 16.1392H18.0976V16.8742H18.5157C18.6712 16.8742 18.7908 16.8424 18.8724 16.7787V16.7777Z" fill="black"/>
<path d="M21.7061 15.9355H22.5061C22.7071 15.9355 22.8846 15.9695 23.0399 16.0384C23.1953 16.1074 23.3161 16.2028 23.4024 16.3269C23.4887 16.451 23.5318 16.5921 23.5318 16.7522C23.5318 16.9124 23.4887 17.0545 23.4024 17.1786C23.3161 17.3027 23.1953 17.3981 23.0399 17.4671C22.8846 17.536 22.7059 17.57 22.5061 17.57H21.7061V15.9355ZM22.4901 17.3663C22.6442 17.3663 22.7786 17.3409 22.8957 17.2889C23.0128 17.238 23.1028 17.1659 23.1657 17.0725C23.2286 16.9803 23.2606 16.8731 23.2606 16.7512C23.2606 16.6292 23.2286 16.5231 23.1657 16.4309C23.1028 16.3386 23.0128 16.2665 22.8957 16.2145C22.7786 16.1636 22.6442 16.1371 22.4901 16.1371H21.9773V17.3642H22.4901V17.3663Z" fill="black"/>
<path d="M25.7641 17.3671V17.57H24.5469V15.9355H25.7303V16.1384H24.7864V16.6407H25.6269V16.8393H24.7864V17.3671H25.7641Z" fill="black"/>
<path d="M26.9805 15.9355H27.2345V17.3672H28.1977V17.57H26.9805V15.9355Z" fill="black"/>
<path d="M29.2129 15.9355H29.467V17.3672H30.4301V17.57H29.2129V15.9355Z" fill="black"/>
<path d="M32.4105 17.1614H31.4858L31.2947 17.57H31.0381L31.8261 15.9355H32.0725L32.8639 17.57H32.6027L32.4117 17.1614H32.4105ZM32.3235 16.9746L31.9481 16.1733L31.5728 16.9746H32.3235Z" fill="black"/>
<path d="M36.4621 16.7434H36.7037V17.3667C36.6167 17.432 36.5147 17.4828 36.3991 17.5171C36.2834 17.5523 36.162 17.57 36.036 17.57C35.8573 17.57 35.697 17.5347 35.555 17.4642C35.4118 17.3937 35.2996 17.2962 35.2183 17.1717C35.1369 17.0473 35.0957 16.9083 35.0957 16.7528C35.0957 16.5972 35.1369 16.4582 35.2183 16.3327C35.2996 16.2083 35.4118 16.1108 35.5561 16.0403C35.6993 15.9708 35.8619 15.9355 36.0417 15.9355C36.1826 15.9355 36.3109 15.9563 36.4254 15.9988C36.5399 16.0403 36.6384 16.1015 36.7186 16.1824L36.5629 16.3234C36.422 16.2 36.2513 16.1388 36.0509 16.1388C35.9169 16.1388 35.7955 16.1647 35.689 16.2176C35.5825 16.2705 35.4989 16.3431 35.4382 16.4364C35.3775 16.5298 35.3477 16.6356 35.3477 16.7528C35.3477 16.8699 35.3775 16.9726 35.4382 17.067C35.4989 17.1603 35.5825 17.2339 35.689 17.2868C35.7955 17.3397 35.9157 17.3667 36.0486 17.3667C36.2067 17.3667 36.3441 17.3325 36.4621 17.264V16.7434Z" fill="black"/>
<path d="M39.0872 17.5689L38.716 17.0672C38.6702 17.0704 38.6344 17.0715 38.6076 17.0715H38.1815V17.5689H37.9355V15.9355H38.6076C38.8301 15.9355 39.0056 15.9865 39.1342 16.0872C39.2617 16.188 39.3265 16.328 39.3265 16.5051C39.3265 16.6313 39.2941 16.7384 39.2281 16.8275C39.1622 16.9166 39.0693 16.9813 38.9475 17.0216L39.3556 17.57H39.0872V17.5689ZM38.9564 16.7777C39.038 16.714 39.0794 16.6228 39.0794 16.5051C39.0794 16.3874 39.038 16.2962 38.9564 16.2336C38.8748 16.171 38.7551 16.1392 38.5997 16.1392H38.1815V16.8742H38.5997C38.7551 16.8742 38.8748 16.8424 38.9564 16.7787V16.7777Z" fill="black"/>
<path d="M40.9705 17.4642C40.8467 17.3937 40.7496 17.2962 40.6793 17.1707C40.6089 17.0462 40.5732 16.9073 40.5732 16.7528C40.5732 16.5982 40.6089 16.4603 40.6793 16.3348C40.7496 16.2104 40.8467 16.1118 40.9705 16.0413C41.0944 15.9708 41.2331 15.9355 41.3867 15.9355C41.5403 15.9355 41.677 15.9708 41.8008 16.0413C41.9247 16.1118 42.0208 16.2093 42.0911 16.3338C42.1605 16.4582 42.1962 16.5972 42.1962 16.7528C42.1962 16.9083 42.1615 17.0473 42.0911 17.1717C42.0208 17.2962 41.9247 17.3926 41.8008 17.4642C41.677 17.5347 41.5393 17.57 41.3867 17.57C41.2341 17.57 41.0934 17.5347 40.9705 17.4642ZM41.6889 17.2868C41.778 17.2339 41.8484 17.1603 41.8999 17.067C41.9514 16.9736 41.9772 16.8689 41.9772 16.7528C41.9772 16.6366 41.9514 16.5329 41.8999 16.4396C41.8484 16.3462 41.778 16.2726 41.6889 16.2197C41.5997 16.1668 41.4986 16.1398 41.3867 16.1398C41.2747 16.1398 41.1737 16.1668 41.0825 16.2197C40.9914 16.2726 40.92 16.3462 40.8685 16.4396C40.817 16.5329 40.7912 16.6376 40.7912 16.7528C40.7912 16.8679 40.817 16.9726 40.8685 17.067C40.92 17.1603 40.9914 17.2339 41.0825 17.2868C41.1737 17.3397 41.2747 17.3667 41.3867 17.3667C41.4986 17.3667 41.5997 17.3397 41.6889 17.2868Z" fill="black"/>
<path d="M43.4245 17.3843C43.2823 17.2615 43.21 17.0842 43.21 16.8535V15.9355H43.4844V16.8451C43.4844 17.1913 43.664 17.3643 44.0245 17.3643C44.2004 17.3643 44.3351 17.3213 44.4275 17.2364C44.521 17.1514 44.5672 17.0203 44.5672 16.8451V15.9355H44.8329V16.8545C44.8329 17.0863 44.7618 17.2636 44.6183 17.3864C44.4761 17.5091 44.2765 17.57 44.0195 17.57C43.7626 17.57 43.5642 17.5081 43.4208 17.3853L43.4245 17.3843Z" fill="black"/>
<path d="M47.2735 16.0873C47.4036 16.1881 47.4699 16.3282 47.4699 16.5055C47.4699 16.6827 47.4048 16.8228 47.2735 16.9236C47.1434 17.0244 46.9642 17.0754 46.7359 17.0754H46.3009V17.57H46.0498V15.9355H46.7359C46.963 15.9355 47.1422 15.9865 47.2735 16.0873ZM47.0931 16.7772C47.1765 16.7145 47.2187 16.6233 47.2187 16.5055C47.2187 16.3877 47.1765 16.2964 47.0931 16.2338C47.0098 16.1712 46.8877 16.1393 46.729 16.1393H46.3021V16.8727H46.729C46.8877 16.8727 47.0098 16.8408 47.0931 16.7782V16.7772Z" fill="black"/>
<path d="M50.3513 17.4642C50.2119 17.3937 50.1027 17.2962 50.0236 17.1707C49.9444 17.0462 49.9043 16.9073 49.9043 16.7528C49.9043 16.5982 49.9444 16.4603 50.0236 16.3348C50.1027 16.2104 50.2119 16.1118 50.3513 16.0413C50.4906 15.9708 50.6466 15.9355 50.8194 15.9355C50.9922 15.9355 51.146 15.9708 51.2853 16.0413C51.4247 16.1118 51.5328 16.2093 51.6119 16.3338C51.6899 16.4582 51.7301 16.5972 51.7301 16.7528C51.7301 16.9083 51.6911 17.0473 51.6119 17.1717C51.5328 17.2962 51.4247 17.3926 51.2853 17.4642C51.146 17.5347 50.9911 17.57 50.8194 17.57C50.6478 17.57 50.4895 17.5347 50.3513 17.4642ZM51.1594 17.2868C51.2597 17.2339 51.3388 17.1603 51.3968 17.067C51.4548 16.9736 51.4837 16.8689 51.4837 16.7528C51.4837 16.6366 51.4548 16.5329 51.3968 16.4396C51.3388 16.3462 51.2597 16.2726 51.1594 16.2197C51.0591 16.1668 50.9454 16.1398 50.8194 16.1398C50.6935 16.1398 50.5798 16.1668 50.4772 16.2197C50.3747 16.2726 50.2944 16.3462 50.2365 16.4396C50.1785 16.5329 50.1495 16.6376 50.1495 16.7528C50.1495 16.8679 50.1785 16.9726 50.2365 17.067C50.2944 17.1603 50.3747 17.2339 50.4772 17.2868C50.5798 17.3397 50.6935 17.3667 50.8194 17.3667C50.9454 17.3667 51.0591 17.3397 51.1594 17.2868Z" fill="black"/>
<path d="M53.1936 16.1383V16.7082H54.0581V16.9088H53.1936V17.57H52.9473V15.9355H54.1644V16.1383H53.1936Z" fill="black"/>
<path d="M56.8572 17.4651C56.7137 17.3946 56.6014 17.297 56.5192 17.1725C56.437 17.048 56.3965 16.9089 56.3965 16.7533C56.3965 16.5976 56.437 16.4586 56.5192 16.334C56.6002 16.2095 56.7137 16.113 56.8584 16.0414C57.0031 15.9708 57.164 15.9355 57.3422 15.9355C57.4811 15.9355 57.6085 15.9563 57.7242 15.9988C57.84 16.0404 57.9384 16.1026 58.0194 16.1846L57.8539 16.3288C57.7196 16.2022 57.5529 16.1389 57.3526 16.1389C57.2207 16.1389 57.1003 16.1659 56.9938 16.2188C56.8873 16.2718 56.8028 16.3454 56.7426 16.4388C56.6824 16.5322 56.6523 16.637 56.6523 16.7522C56.6523 16.8674 56.6824 16.9722 56.7426 17.0667C56.8028 17.1601 56.8861 17.2337 56.9938 17.2867C57.1014 17.3396 57.2207 17.3666 57.3526 17.3666C57.5517 17.3666 57.7184 17.3022 57.8539 17.1746L58.0194 17.3188C57.9384 17.4008 57.8388 17.4631 57.7231 17.5056C57.6073 17.5482 57.4788 17.57 57.3399 17.57C57.1616 17.57 57.0007 17.5347 56.8572 17.4641V17.4651Z" fill="black"/>
<path d="M59.3267 17.4642C59.1719 17.3937 59.0505 17.2962 58.9626 17.1707C58.8747 17.0462 58.8301 16.9073 58.8301 16.7528C58.8301 16.5982 58.8747 16.4603 58.9626 16.3348C59.0505 16.2104 59.1719 16.1118 59.3267 16.0413C59.4815 15.9708 59.6549 15.9355 59.8469 15.9355C60.0388 15.9355 60.2098 15.9708 60.3646 16.0413C60.5194 16.1118 60.6395 16.2093 60.7274 16.3338C60.8141 16.4582 60.8587 16.5972 60.8587 16.7528C60.8587 16.9083 60.8154 17.0473 60.7274 17.1717C60.6395 17.2962 60.5194 17.3926 60.3646 17.4642C60.2098 17.5347 60.0376 17.57 59.8469 17.57C59.6561 17.57 59.4803 17.5347 59.3267 17.4642ZM60.2246 17.2868C60.3361 17.2339 60.424 17.1603 60.4884 17.067C60.5528 16.9736 60.585 16.8689 60.585 16.7528C60.585 16.6366 60.5528 16.5329 60.4884 16.4396C60.424 16.3462 60.3361 16.2726 60.2246 16.2197C60.1132 16.1668 59.9868 16.1398 59.8469 16.1398C59.7069 16.1398 59.5806 16.1668 59.4667 16.2197C59.3527 16.2726 59.2635 16.3462 59.1991 16.4396C59.1347 16.5329 59.1025 16.6376 59.1025 16.7528C59.1025 16.8679 59.1347 16.9726 59.1991 17.067C59.2635 17.1603 59.3527 17.2339 59.4667 17.2868C59.5806 17.3397 59.7069 17.3667 59.8469 17.3667C59.9868 17.3667 60.1132 17.3397 60.2246 17.2868Z" fill="black"/>
<path d="M63.4648 17.57L63.4625 16.3792L62.8417 17.3715H62.7291L62.1082 16.3866V17.57H61.873V15.9355H62.0737L62.7893 17.0839L63.496 15.9355H63.6966L63.6988 17.57H63.4636H63.4648Z" fill="black"/>
<path d="M66.3429 16.0873C66.473 16.1881 66.5392 16.3282 66.5392 16.5055C66.5392 16.6827 66.4741 16.8228 66.3429 16.9236C66.2127 17.0244 66.0335 17.0754 65.8052 17.0754H65.3703V17.57H65.1191V15.9355H65.8052C66.0324 15.9355 66.2116 15.9865 66.3429 16.0873ZM66.1625 16.7772C66.2458 16.7145 66.2881 16.6233 66.2881 16.5055C66.2881 16.3877 66.2458 16.2964 66.1625 16.2338C66.0792 16.1712 65.957 16.1393 65.7983 16.1393H65.3714V16.8727H65.7983C65.957 16.8727 66.0792 16.8408 66.1625 16.7782V16.7772Z" fill="black"/>
<path d="M68.5209 17.1614H67.5961L67.4051 17.57H67.1484L67.9364 15.9355H68.1829L68.9742 17.57H68.7131L68.522 17.1614H68.5209ZM68.4338 16.9746L68.0585 16.1733L67.6832 16.9746H68.4338Z" fill="black"/>
<path d="M71.4083 15.9355V17.57H71.2153L70.2242 16.3516V17.57H69.9883V15.9355H70.1813L71.1724 17.1539V15.9355H71.4083Z" fill="black"/>
<path d="M73.3576 17.0053V17.57H73.1121V17L72.4229 15.9355H72.6875L73.2428 16.7973L73.8002 15.9355H74.0458L73.3565 17.0053H73.3576Z" fill="black"/>
<defs>
<linearGradient id="paint0_linear_112_82" x1="3.53665" y1="7.72938" x2="10.6086" y2="7.72938" gradientUnits="userSpaceOnUse">
<stop stop-color="#2C8ECB"/>
<stop offset="0.26" stop-color="#2E98D3"/>
<stop offset="0.54" stop-color="#2E76BA"/>
<stop offset="0.8" stop-color="#2F55A2"/>
<stop offset="1" stop-color="#2C4B9D"/>
</linearGradient>
<linearGradient id="paint1_linear_112_82" x1="7.33398" y1="7.6006" x2="12.1799" y2="7.6006" gradientUnits="userSpaceOnUse">
<stop stop-color="#2C8ECB"/>
<stop offset="0.26" stop-color="#2E98D3"/>
<stop offset="0.54" stop-color="#2E76BA"/>
<stop offset="0.8" stop-color="#2F55A2"/>
<stop offset="1" stop-color="#2C4B9D"/>
</linearGradient>
<linearGradient id="paint2_linear_112_82" x1="6.41796" y1="2.81767" x2="7.98963" y2="2.81767" gradientUnits="userSpaceOnUse">
<stop stop-color="#2C8ECB"/>
<stop offset="0.26" stop-color="#2E98D3"/>
<stop offset="0.54" stop-color="#2E76BA"/>
<stop offset="0.8" stop-color="#2F55A2"/>
<stop offset="1" stop-color="#2C4B9D"/>
</linearGradient>
<linearGradient id="paint3_linear_112_82" x1="10.4775" y1="6.68111" x2="13.7518" y2="6.68111" gradientUnits="userSpaceOnUse">
<stop stop-color="#2C8ECB"/>
<stop offset="0.26" stop-color="#2E98D3"/>
<stop offset="0.54" stop-color="#2E76BA"/>
<stop offset="0.8" stop-color="#2F55A2"/>
<stop offset="1" stop-color="#2C4B9D"/>
</linearGradient>
<linearGradient id="paint4_linear_112_82" x1="9.56053" y1="3.27652" x2="11.1322" y2="3.27652" gradientUnits="userSpaceOnUse">
<stop stop-color="#2C8ECB"/>
<stop offset="0.26" stop-color="#2E98D3"/>
<stop offset="0.54" stop-color="#2E76BA"/>
<stop offset="0.8" stop-color="#2F55A2"/>
<stop offset="1" stop-color="#2C4B9D"/>
</linearGradient>
<linearGradient id="paint5_linear_112_82" x1="2.48827" y1="0.850705" x2="4.19092" y2="0.850705" gradientUnits="userSpaceOnUse">
<stop stop-color="#2C8ECB"/>
<stop offset="0.26" stop-color="#2E98D3"/>
<stop offset="0.54" stop-color="#2E76BA"/>
<stop offset="0.8" stop-color="#2F55A2"/>
<stop offset="1" stop-color="#2C4B9D"/>
</linearGradient>
<linearGradient id="paint6_linear_112_82" x1="36.6719" y1="9.1068" x2="47.0186" y2="9.1068" gradientUnits="userSpaceOnUse">
<stop stop-color="#2C8ECB"/>
<stop offset="0.26" stop-color="#2E98D3"/>
<stop offset="0.54" stop-color="#2E76BA"/>
<stop offset="0.8" stop-color="#2F55A2"/>
<stop offset="1" stop-color="#2C4B9D"/>
</linearGradient>
<linearGradient id="paint7_linear_112_82" x1="562.719" y1="-99.4137" x2="569.658" y2="-100.777" gradientUnits="userSpaceOnUse">
<stop stop-color="#2C8ECB"/>
<stop offset="0.26" stop-color="#2E98D3"/>
<stop offset="0.54" stop-color="#2E76BA"/>
<stop offset="0.8" stop-color="#2F55A2"/>
<stop offset="1" stop-color="#2C4B9D"/>
</linearGradient>
<linearGradient id="paint8_linear_112_82" x1="18.9941" y1="9.10292" x2="21.0896" y2="9.10292" gradientUnits="userSpaceOnUse">
<stop stop-color="#2C8ECB"/>
<stop offset="0.26" stop-color="#2E98D3"/>
<stop offset="0.54" stop-color="#2E76BA"/>
<stop offset="0.8" stop-color="#2F55A2"/>
<stop offset="1" stop-color="#2C4B9D"/>
</linearGradient>
<linearGradient id="paint9_linear_112_82" x1="21.3286" y1="9.14258" x2="30.4965" y2="9.14258" gradientUnits="userSpaceOnUse">
<stop stop-color="#2C8ECB"/>
<stop offset="0.26" stop-color="#2E98D3"/>
<stop offset="0.54" stop-color="#2E76BA"/>
<stop offset="0.8" stop-color="#2F55A2"/>
<stop offset="1" stop-color="#2C4B9D"/>
</linearGradient>
<linearGradient id="paint10_linear_112_82" x1="30.9405" y1="9.10219" x2="39.4536" y2="9.10219" gradientUnits="userSpaceOnUse">
<stop stop-color="#2C8ECB"/>
<stop offset="0.26" stop-color="#2E98D3"/>
<stop offset="0.54" stop-color="#2E76BA"/>
<stop offset="0.8" stop-color="#2F55A2"/>
<stop offset="1" stop-color="#2C4B9D"/>
</linearGradient>
<linearGradient id="paint11_linear_112_82" x1="49.5068" y1="9.10741" x2="56.5793" y2="9.10741" gradientUnits="userSpaceOnUse">
<stop stop-color="#2D8BCB"/>
<stop offset="0.21" stop-color="#2D81C3"/>
<stop offset="0.57" stop-color="#2E68B1"/>
<stop offset="0.8" stop-color="#2F55A2"/>
<stop offset="1" stop-color="#2E4FA1"/>
</linearGradient>
<linearGradient id="paint12_linear_112_82" x1="56.8408" y1="0.0651344" x2="65.4849" y2="0.0651344" gradientUnits="userSpaceOnUse">
<stop stop-color="#2D8BCB"/>
<stop offset="0.21" stop-color="#2D81C3"/>
<stop offset="0.57" stop-color="#2E68B1"/>
<stop offset="0.8" stop-color="#2F55A2"/>
<stop offset="1" stop-color="#2E4FA1"/>
</linearGradient>
<linearGradient id="paint13_linear_112_82" x1="66.1406" y1="9.10741" x2="73.606" y2="9.10741" gradientUnits="userSpaceOnUse">
<stop stop-color="#2D8BCB"/>
<stop offset="0.21" stop-color="#2D81C3"/>
<stop offset="0.57" stop-color="#2E68B1"/>
<stop offset="0.8" stop-color="#2F55A2"/>
<stop offset="1" stop-color="#2E4FA1"/>
</linearGradient>
<linearGradient id="paint14_linear_112_82" x1="73.998" y1="9.1068" x2="80.4156" y2="9.1068" gradientUnits="userSpaceOnUse">
<stop stop-color="#2A8ACA"/>
<stop offset="0.22" stop-color="#2A80C3"/>
<stop offset="0.58" stop-color="#2D67B0"/>
<stop offset="0.8" stop-color="#2F55A2"/>
<stop offset="1" stop-color="#2E4FA1"/>
</linearGradient>
</defs>
</svg>
