<svg width="162" height="48" viewBox="0 0 162 48" fill="none" xmlns="http://www.w3.org/2000/svg">
<path fill-rule="evenodd" clip-rule="evenodd" d="M155.998 48H6.00221C2.69414 48 0 45.2948 0 42V6C0 2.69327 2.69414 0 6.00221 0H155.998C159.303 0 162 2.69327 162 6V42C162 45.2948 159.303 48 155.998 48Z" fill="black"/>
<path fill-rule="evenodd" clip-rule="evenodd" d="M155.998 0.960598C158.772 0.960598 161.043 3.22594 161.043 6V42C161.043 44.7741 158.787 47.0394 155.998 47.0394H6.00221C3.2276 47.0394 0.956658 44.7741 0.956658 42V6C0.956658 3.22594 3.2127 0.960598 6.00221 0.960598H155.998ZM155.998 0H6.00221C2.69414 0 0 2.70524 0 6V42C0 45.3067 2.69414 48 6.00221 48H155.998C159.303 48 162 45.3067 162 42V6C162 2.70524 159.303 0 155.998 0Z" fill="#A6A6A6"/>
<path d="M85.3107 16C84.2207 16 83.3019 15.6082 82.5753 14.8369C81.8547 14.0872 81.4523 13.0536 81.4703 11.9985C81.4703 10.8723 81.8426 9.91901 82.5753 9.16313C83.2989 8.39182 84.2177 8 85.3077 8C86.3856 8 87.3044 8.39182 88.0431 9.16313C88.7757 9.94369 89.148 10.897 89.148 11.9985C89.136 13.1277 88.7637 14.081 88.0431 14.8338C87.3194 15.6113 86.4006 16 85.3107 16ZM52.8794 16C51.8135 16 50.8886 15.6143 50.132 14.8523C49.3813 14.0933 49 13.1338 49 12.0015C49 10.8693 49.3813 9.90976 50.132 9.15079C50.8736 8.38874 51.7984 8.00309 52.8794 8.00309C53.4078 8.00309 53.9213 8.11107 54.4137 8.33012C54.8971 8.543 55.2905 8.83301 55.5817 9.18781L55.6538 9.27729L54.8401 10.098L54.756 9.99614C54.2966 9.43463 53.6811 9.16005 52.8674 9.16005C52.1407 9.16005 51.5072 9.42538 50.9847 9.94987C50.4593 10.4774 50.192 11.1685 50.192 12.0046C50.192 12.8407 50.4593 13.5318 50.9847 14.0594C51.5072 14.5839 52.1407 14.8492 52.8674 14.8492C53.642 14.8492 54.2936 14.5839 54.8011 14.0594C55.1013 13.7509 55.2875 13.3189 55.3535 12.7729H52.7443V11.619H56.4735L56.4885 11.7239C56.5156 11.9182 56.5426 12.1188 56.5426 12.3039C56.5426 13.3683 56.2303 14.2291 55.6118 14.8646C54.9092 15.6174 53.9904 16 52.8794 16ZM96 15.8365H94.85L91.3279 10.0455L91.3579 11.0883V15.8334H90.2079V8.1666H91.5201L91.5561 8.22522L94.868 13.6799L94.838 12.6402V8.1666H96V15.8365ZM76.6691 15.8365H75.5041V9.32048H73.4834V8.1666H78.6869V9.32048H76.6661V15.8365H76.6691ZM72.5345 15.8365H71.3725V8.1666H72.5345V15.8365ZM66.0038 15.8365H64.8418V9.32048H62.8211V8.1666H68.0246V9.32048H66.0038V15.8365ZM62.0854 15.8241H57.6295V8.1666H62.0854V9.32048H58.7945V11.4246H61.7641V12.5661H58.7945V14.6703H62.0854V15.8241ZM83.428 14.044C83.9475 14.5777 84.578 14.8461 85.3107 14.8461C86.0643 14.8461 86.6799 14.5839 87.1933 14.044C87.7038 13.5195 87.962 12.8315 87.962 12.0015C87.962 11.1716 87.7038 10.4805 87.1963 9.95912C86.6769 9.42538 86.0433 9.15696 85.3137 9.15696C84.56 9.15696 83.9445 9.41921 83.434 9.95912C82.9236 10.4836 82.6654 11.1716 82.6654 12.0015C82.6654 12.8315 82.9206 13.5226 83.428 14.044Z" fill="white"/>
<path fill-rule="evenodd" clip-rule="evenodd" d="M81.5783 26.5453C78.7419 26.5453 76.4427 28.6446 76.4427 31.5402C76.4427 34.4095 78.7569 36.5351 81.5783 36.5351C84.4147 36.5351 86.7139 34.4212 86.7139 31.5402C86.7139 28.6446 84.4147 26.5453 81.5783 26.5453ZM81.5783 34.5558C80.0265 34.5558 78.6908 33.3027 78.6908 31.5285C78.6908 29.7279 80.0295 28.5011 81.5783 28.5011C83.1301 28.5011 84.4657 29.7279 84.4657 31.5285C84.4687 33.3144 83.1301 34.5558 81.5783 34.5558ZM70.3737 26.5453C67.5373 26.5453 65.2381 28.6446 65.2381 31.5402C65.2381 34.4095 67.5523 36.5351 70.3737 36.5351C73.2101 36.5351 75.5093 34.4212 75.5093 31.5402C75.5093 28.6446 73.2071 26.5453 70.3737 26.5453ZM70.3737 34.5558C68.8219 34.5558 67.4862 33.3027 67.4862 31.5285C67.4862 29.7279 68.8249 28.5011 70.3737 28.5011C71.9255 28.5011 73.2611 29.7279 73.2611 31.5285C73.2611 33.3144 71.9255 34.5558 70.3737 34.5558ZM57.041 28.0707V30.1846H62.2426C62.0835 31.3704 61.6813 32.2458 61.066 32.846C60.3037 33.5897 59.1271 34.3977 57.053 34.3977C53.8564 34.3977 51.3562 31.8798 51.3562 28.7617C51.3562 25.6435 53.8564 23.1256 57.053 23.1256C58.7789 23.1256 60.0365 23.7902 60.97 24.6393L62.5068 23.1402C61.2101 21.9281 59.4842 21 57.065 21C52.6798 21 49 24.4841 49 28.75C49 33.0275 52.6768 36.4999 57.065 36.4999C59.4332 36.4999 61.2101 35.7445 62.6148 34.3216C64.0465 32.925 64.4998 30.9546 64.4998 29.3648C64.4998 28.87 64.4607 28.425 64.3797 28.0473H57.038C57.041 28.0444 57.041 28.0707 57.041 28.0707ZM111.575 29.7161C111.146 28.5948 109.849 26.5336 107.19 26.5336C104.555 26.5336 102.364 28.5567 102.364 31.5285C102.364 34.3333 104.531 36.5233 107.445 36.5233C109.786 36.5233 111.149 35.1268 111.71 34.307L109.972 33.171C109.396 34.0054 108.595 34.5529 107.457 34.5529C106.308 34.5529 105.503 34.0435 104.969 33.0392L111.815 30.2724C111.815 30.2754 111.575 29.7161 111.575 29.7161ZM104.594 31.385C104.54 29.4556 106.131 28.4747 107.268 28.4747C108.166 28.4747 108.913 28.9051 109.168 29.5317L104.594 31.385ZM99.032 36.2247H101.28V21.5504H99.032V36.2247ZM95.3402 27.655H95.2591C94.7519 27.0665 93.7884 26.5336 92.5578 26.5336C90.0035 26.5336 87.6503 28.7265 87.6503 31.5431C87.6503 34.348 89.9915 36.5146 92.5578 36.5146C93.7734 36.5146 94.7519 35.9788 95.2591 35.3786H95.3402V36.0959C95.3402 38.0019 94.2956 39.0296 92.6118 39.0296C91.2341 39.0296 90.3787 38.0634 90.0305 37.2553L88.0765 38.0517C88.6378 39.3692 90.1356 41 92.6088 41C95.2441 41 97.4772 39.4863 97.4772 35.7943V26.8322H95.3522V27.655C95.3552 27.655 95.3402 27.655 95.3402 27.655ZM92.7589 34.5558C91.2071 34.5558 89.9105 33.291 89.9105 31.5431C89.9105 29.7806 91.2071 28.504 92.7589 28.504C94.2957 28.504 95.4872 29.7952 95.4872 31.5431C95.5023 33.291 94.2987 34.5558 92.7589 34.5558ZM122.102 21.5504H116.726V36.2247H118.974V30.6677H122.105C124.593 30.6677 127.039 28.9081 127.039 26.1149C127.039 23.3218 124.602 21.5504 122.102 21.5504ZM122.168 28.6182H118.971V23.5823H122.168C123.851 23.5823 124.803 24.9379 124.803 26.1003C124.803 27.2509 123.839 28.6182 122.168 28.6182ZM136.05 26.519C134.417 26.519 132.733 27.2246 132.037 28.7617L134.03 29.5698C134.459 28.7617 135.245 28.4865 136.077 28.4865C137.241 28.4865 138.418 29.1657 138.445 30.3778V30.533C138.043 30.3105 137.16 29.9709 136.104 29.9709C133.951 29.9709 131.769 31.1186 131.769 33.2705C131.769 35.241 133.534 36.5058 135.5 36.5058C137.01 36.5058 137.841 35.8412 138.361 35.0711H138.442V36.2071H140.609V30.5857C140.609 27.9682 138.616 26.519 136.05 26.519ZM135.767 34.5558C135.032 34.5558 134.003 34.2045 134.003 33.3027C134.003 32.1667 135.287 31.7363 136.383 31.7363C137.373 31.7363 137.841 31.9442 138.43 32.2312C138.268 33.5487 137.127 34.5441 135.767 34.5558ZM148.515 26.8322L145.933 33.1973H145.852L143.178 26.8322H140.759L144.772 35.7299L142.485 40.675H144.826L151 26.8322H148.515ZM128.279 36.2247H130.527V21.5504H128.279V36.2247Z" fill="white"/>
<path fill-rule="evenodd" clip-rule="evenodd" d="M12.5293 9.08061C12.1938 9.45382 12 10.0241 12 10.7705V37.2444C12 37.9908 12.1938 38.5611 12.5409 38.9194L12.6305 39L27 24.1672V23.8358L12.619 9L12.5293 9.08061Z" fill="url(#paint0_linear_89_2078)"/>
<path fill-rule="evenodd" clip-rule="evenodd" d="M31.881 29L27 24.1691V23.8309L31.881 19L31.9871 19.0641L37.7606 22.312C39.4131 23.2332 39.4131 24.7551 37.7606 25.688L31.9871 28.9359L31.881 29Z" fill="url(#paint1_linear_89_2078)"/>
<path fill-rule="evenodd" clip-rule="evenodd" d="M32 28.9232L26.9402 24L12 38.537C12.5469 39.107 13.4644 39.171 14.4895 38.6155L32 28.9232Z" fill="url(#paint2_linear_89_2078)"/>
<path fill-rule="evenodd" clip-rule="evenodd" d="M32 19.0739L14.4895 9.39047C13.4644 8.82017 12.5439 8.89873 12 9.46903L26.9402 24L32 19.0739Z" fill="url(#paint3_linear_89_2078)"/>
<path opacity="0.2" fill-rule="evenodd" clip-rule="evenodd" d="M31.8805 29L14.4895 38.447C13.5182 38.9814 12.6515 38.9442 12.0926 38.4584L12 38.547L12.0926 38.6242C12.6515 39.1071 13.5182 39.1471 14.4895 38.6127L32 29.1029L31.8805 29Z" fill="black"/>
<path opacity="0.12" fill-rule="evenodd" clip-rule="evenodd" d="M37.8 25.5387L32 28.8937L32.1043 29L37.7855 25.71C38.6 25.2374 39 24.6172 39 24C38.9507 24.567 38.5362 25.1045 37.8 25.5387Z" fill="black"/>
<path opacity="0.25" fill-rule="evenodd" clip-rule="evenodd" d="M14.9643 9.56412L37.7775 22.4846C38.5186 22.9005 38.9358 23.4444 39 24C39 23.3921 38.5974 22.7813 37.7775 22.3159L14.9643 9.39541C13.3275 8.46172 12 9.24125 12 11.1057V11.2744C12 9.40705 13.3275 8.64206 14.9643 9.56412Z" fill="white"/>
<defs>
<linearGradient id="paint0_linear_89_2078" x1="25.7112" y1="10.4855" x2="2.5996" y2="16.4512" gradientUnits="userSpaceOnUse">
<stop stop-color="#00A0FF"/>
<stop offset="0.00657" stop-color="#00A1FF"/>
<stop offset="0.2601" stop-color="#00BEFF"/>
<stop offset="0.5122" stop-color="#00D2FF"/>
<stop offset="0.7604" stop-color="#00DFFF"/>
<stop offset="1" stop-color="#00E3FF"/>
</linearGradient>
<linearGradient id="paint1_linear_89_2078" x1="39.9157" y1="24" x2="11.3338" y2="24" gradientUnits="userSpaceOnUse">
<stop stop-color="#FFE000"/>
<stop offset="0.4087" stop-color="#FFBD00"/>
<stop offset="0.7754" stop-color="#FFA500"/>
<stop offset="1" stop-color="#FF9C00"/>
</linearGradient>
<linearGradient id="paint2_linear_89_2078" x1="29.2474" y1="26.6782" x2="10.9164" y2="58.3867" gradientUnits="userSpaceOnUse">
<stop stop-color="#FF3A44"/>
<stop offset="1" stop-color="#C31162"/>
</linearGradient>
<linearGradient id="paint3_linear_89_2078" x1="8.23804" y1="0.872829" x2="16.4232" y2="15.0382" gradientUnits="userSpaceOnUse">
<stop stop-color="#32A071"/>
<stop offset="0.0685" stop-color="#2DA771"/>
<stop offset="0.4762" stop-color="#15CF74"/>
<stop offset="0.8009" stop-color="#06E775"/>
<stop offset="1" stop-color="#00F076"/>
</linearGradient>
</defs>
</svg>
