<svg width="100" height="100" viewBox="0 0 100 100" fill="none" xmlns="http://www.w3.org/2000/svg">
<rect width="100" height="100" rx="13" fill="#DCD3FF"/>
<path d="M70.2333 42.5406L48.3667 64.4344L43.3176 59.3853L65.1958 37.5031L70.2333 42.5406ZM71.6031 41.1708L66.5676 36.1353L69.9136 32.7873C70.2787 32.4244 70.7729 32.2213 71.2876 32.2224C71.8023 32.2235 72.2955 32.4287 72.6591 32.7931L74.9453 35.0735C75.7048 35.8311 75.7106 37.0594 74.955 37.817L71.6031 41.1708ZM42.064 60.8713L46.8981 65.7054L40.824 66.9008L42.064 60.8713ZM61.625 38.375L50 24.8125H28.6933C28.1832 24.813 27.6781 24.914 27.207 25.1097C26.7359 25.3054 26.3079 25.592 25.9476 25.953C25.5872 26.3141 25.3015 26.7427 25.1067 27.2142C24.912 27.6857 24.812 28.1909 24.8125 28.7011V73.2345C24.8107 73.744 24.9095 74.2489 25.103 74.7202C25.2966 75.1915 25.5812 75.6201 25.9406 75.9813C26.3 76.3424 26.7271 76.6292 27.1975 76.8251C27.6678 77.0211 28.1722 77.1223 28.6817 77.1231H57.7539C58.7779 77.1226 59.76 76.7163 60.4852 75.9934C61.2103 75.2704 61.6195 74.2895 61.6231 73.2655V53.8731L76.3093 39.1868C77.0377 38.4615 77.4487 37.4771 77.4523 36.4493C77.4559 35.4214 77.0519 34.4341 76.3287 33.7037L74.0425 31.4194C73.6822 31.0587 73.2541 30.773 72.7829 30.5786C72.3117 30.3842 71.8066 30.2851 71.2969 30.2869C70.7871 30.2887 70.2828 30.3914 69.8129 30.5891C69.3431 30.7868 68.917 31.0756 68.5593 31.4388L61.625 38.375ZM59.6875 55.8125V73.2636C59.6855 73.7755 59.4803 74.2658 59.117 74.6265C58.7537 74.9873 58.262 75.189 57.75 75.1875H28.6875C27.6316 75.1875 26.75 74.3234 26.75 73.2597V28.6797C26.75 27.6335 27.6141 26.7519 28.6798 26.7519H48.0625V36.4278C48.0625 38.5959 49.7966 40.3144 51.9336 40.3144H59.6875L40.3125 59.6894L38.375 69.3769L48.0625 67.4394L59.6875 55.8125ZM50 27.7188L59.1063 38.375H51.9317C50.8738 38.375 50 37.4993 50 36.4201V27.7188Z" fill="#6B4CDD"/>
</svg>
