<svg width="100" height="100" viewBox="0 0 100 100" fill="none" xmlns="http://www.w3.org/2000/svg">
<rect width="100" height="100" rx="13" fill="#D8FFE0"/>
<g clip-path="url(#clip0_314_3167)">
<path fill-rule="evenodd" clip-rule="evenodd" d="M63.3669 70.7537H35.6782C34.4335 70.7537 33.4422 69.7699 33.4422 68.5178V51.7703C33.4422 51.338 33.785 50.9952 34.2173 50.9952C34.6496 50.9952 34.9925 51.338 34.9925 51.7703V68.5178C34.9925 68.9053 35.3353 69.2482 35.7229 69.2482H63.4489C63.8365 69.2482 64.1793 68.9053 64.1793 68.5178V51.7703C64.1793 51.338 64.5297 50.9952 64.9545 50.9952C65.3868 50.9952 65.7296 51.338 65.7296 51.7703V68.5178C65.6029 69.7699 64.6116 70.7537 63.3669 70.7537ZM64.8725 50.0933C64.4402 50.0933 64.0974 49.743 64.0974 49.3182V39.0253L56.905 31.8776H35.6782C35.2459 31.8776 34.9477 32.1832 34.9477 32.5708V49.3182C34.9477 49.743 34.6049 50.0933 34.1726 50.0933C33.7403 50.0933 33.3975 49.743 33.3975 49.3182V32.5708C33.3975 31.3634 34.3887 30.3721 35.6334 30.3721H57.1658C57.382 30.3721 57.5534 30.4615 57.6801 30.5882L65.3868 38.2054C65.5135 38.3396 65.6029 38.5557 65.6029 38.7272V49.3182C65.6029 49.743 65.2601 50.0933 64.8725 50.0933Z" fill="#00A123"/>
<path fill-rule="evenodd" clip-rule="evenodd" d="M64.8726 39.5027H58.8877C57.5535 39.5027 56.4356 38.422 56.4356 37.0879V31.1029C56.4356 30.6707 56.7784 30.3725 57.2107 30.3725C57.6355 30.3725 57.9411 30.6707 57.9411 31.1029V37.0432C57.9411 37.5649 58.3734 37.9525 58.8877 37.9525H64.8279C65.2602 37.9525 65.603 38.2953 65.603 38.7276C65.603 39.1524 65.2602 39.5027 64.8726 39.5027ZM52.3884 46.3895H38.6521C38.2198 46.3895 37.877 46.0467 37.877 45.6144C37.877 45.1821 38.2198 44.8393 38.6521 44.8393H52.3884C52.8133 44.8393 53.1636 45.1821 53.1636 45.6144C53.1636 46.0467 52.776 46.3895 52.3884 46.3895ZM59.9237 46.3895H55.7871C55.3548 46.3895 55.012 46.0467 55.012 45.6144C55.012 45.1821 55.3548 44.8393 55.7871 44.8393H59.9237C60.3485 44.8393 60.6914 45.1821 60.6914 45.6144C60.6914 46.0467 60.3485 46.3895 59.9237 46.3895ZM52.3884 41.4779H38.6521C38.2198 41.4779 37.877 41.135 37.877 40.7474C37.877 40.3599 38.2198 39.9723 38.6521 39.9723H52.3884C52.8133 39.9723 53.1636 40.3151 53.1636 40.7474C53.1636 41.1797 52.776 41.4779 52.3884 41.4779ZM52.3884 36.5289H38.6521C38.2198 36.5289 37.877 36.1861 37.877 35.7985C37.877 35.4109 38.2198 35.0233 38.6521 35.0233H52.3884C52.8133 35.0233 53.1636 35.3662 53.1636 35.7985C53.1636 36.2308 52.776 36.5289 52.3884 36.5289ZM52.3884 56.2055H38.6521C38.2198 56.2055 37.877 55.8626 37.877 55.4303C37.877 54.998 38.2198 54.6552 38.6521 54.6552H52.3884C52.8133 54.6552 53.1636 54.998 53.1636 55.4303C53.1636 55.8626 52.776 56.2055 52.3884 56.2055ZM59.9237 56.2055H55.7871C55.3548 56.2055 55.012 55.8626 55.012 55.4303C55.012 54.998 55.3548 54.6552 55.7871 54.6552H59.9237C60.3485 54.6552 60.6914 54.998 60.6914 55.4303C60.6914 55.8626 60.3485 56.2055 59.9237 56.2055ZM52.3884 61.1544H38.6521C38.2198 61.1544 37.877 60.8116 37.877 60.3793C37.877 59.9544 38.2198 59.6041 38.6521 59.6041H52.3884C52.8133 59.6041 53.1636 59.9544 53.1636 60.3793C53.1636 60.8116 52.776 61.1544 52.3884 61.1544ZM59.9237 61.1544H55.7871C55.3548 61.1544 55.012 60.8116 55.012 60.3793C55.012 59.9544 55.3548 59.6041 55.7871 59.6041H59.9237C60.3485 59.6041 60.6914 59.9544 60.6914 60.3793C60.6914 60.8116 60.3485 61.1544 59.9237 61.1544ZM52.3884 66.0661H38.6521C38.2198 66.0661 37.877 65.7232 37.877 65.291C37.877 64.8587 38.2198 64.5158 38.6521 64.5158H52.3884C52.8133 64.5158 53.1636 64.8587 53.1636 65.291C53.1636 65.7232 52.776 66.0661 52.3884 66.0661ZM59.9237 66.0661H55.7871C55.3548 66.0661 55.012 65.7232 55.012 65.291C55.012 64.8587 55.3548 64.5158 55.7871 64.5158H59.9237C60.3485 64.5158 60.6914 64.8587 60.6914 65.291C60.6914 65.7232 60.3485 66.0661 59.9237 66.0661ZM70.9843 77H61.3398C60.9075 77 60.5647 76.6572 60.5647 76.2249C60.5647 75.7926 60.9075 75.4497 61.3398 75.4497H70.2091V66.6698C70.2091 66.2375 70.552 65.8947 70.9843 65.8947C71.4166 65.8947 71.7594 66.2375 71.7594 66.6698V76.2696C71.7594 76.7019 71.4166 77 70.9843 77ZM37.6608 77H28.0163C27.5841 77 27.2412 76.6572 27.2412 76.2249V66.6698C27.2412 66.2375 27.5841 65.8947 28.0163 65.8947C28.4486 65.8947 28.7915 66.2375 28.7915 66.6698V75.5392H37.6608C38.0931 75.5392 38.436 75.882 38.436 76.3143C38.436 76.7391 38.0931 77 37.6608 77ZM70.9843 35.1948C70.552 35.1948 70.2091 34.8519 70.2091 34.4196V25.5503H61.3398C60.9075 25.5503 60.5647 25.2074 60.5647 24.7751C60.5647 24.3428 60.9075 24 61.3398 24H70.9843C71.4166 24 71.7594 24.3428 71.7594 24.7751V34.4644C71.7594 34.8966 71.4166 35.1948 70.9843 35.1948ZM28.0163 35.1948C27.5841 35.1948 27.2412 34.8519 27.2412 34.4196V24.8646C27.2412 24.4323 27.5841 24.0894 28.0163 24.0894H37.6608C38.0931 24.0894 38.436 24.4323 38.436 24.8646C38.436 25.2894 38.0931 25.6397 37.6608 25.6397H28.7915V34.4644C28.7915 34.8966 28.4486 35.1948 28.0163 35.1948ZM70.9843 52.5012H28.0163C27.5841 52.5012 27.2412 52.1583 27.2412 51.7261V49.2739C27.2412 48.8417 27.5841 48.4988 28.0163 48.4988H70.9396C71.3719 48.4988 71.7147 48.8417 71.7147 49.2739V51.7261C71.7147 52.2031 71.4166 52.5012 70.9843 52.5012ZM28.7915 50.9956H70.2091V50.0491H28.7915V50.9956Z" fill="#00A123"/>
</g>
<defs>
<clipPath id="clip0_314_3167">
<rect width="53" height="53" fill="white" transform="translate(23 24)"/>
</clipPath>
</defs>
</svg>
