<svg width="100" height="100" viewBox="0 0 100 100" fill="none" xmlns="http://www.w3.org/2000/svg">
<rect width="100" height="100" rx="13" fill="#D0F0FF"/>
<path d="M49.7778 56.6676C49.7778 56.1153 49.33 55.6676 48.7778 55.6676L39.7778 55.6676C39.2255 55.6676 38.7778 56.1153 38.7778 56.6676C38.7778 57.2198 39.2255 57.6676 39.7778 57.6676L47.7778 57.6676L47.7778 65.6676C47.7778 66.2198 48.2255 66.6676 48.7778 66.6676C49.33 66.6676 49.7778 66.2198 49.7778 65.6676L49.7778 56.6676ZM38.4854 68.3741L49.4849 57.3747L48.0707 55.9604L37.0712 66.9599L38.4854 68.3741Z" fill="#1F90E7"/>
<path d="M51.2222 52.1088C51.2222 52.6611 51.67 53.1088 52.2222 53.1088H61.2222C61.7745 53.1088 62.2222 52.6611 62.2222 52.1088C62.2222 51.5565 61.7745 51.1088 61.2222 51.1088H53.2222V43.1088C53.2222 42.5565 52.7745 42.1088 52.2222 42.1088C51.67 42.1088 51.2222 42.5565 51.2222 43.1088V52.1088ZM62.5146 40.4023L51.5151 51.4017L52.9293 52.8159L63.9288 41.8165L62.5146 40.4023Z" fill="#1F90E7"/>
<path d="M52.2222 55.6676C51.67 55.6676 51.2222 56.1153 51.2222 56.6676L51.2222 65.6676C51.2222 66.2198 51.67 66.6676 52.2222 66.6676C52.7745 66.6676 53.2222 66.2198 53.2222 65.6676L53.2222 57.6676L61.2222 57.6676C61.7745 57.6676 62.2222 57.2198 62.2222 56.6676C62.2222 56.1153 61.7745 55.6676 61.2222 55.6676L52.2222 55.6676ZM63.9288 66.9599L52.9293 55.9604L51.5151 57.3747L62.5146 68.3741L63.9288 66.9599Z" fill="#1F90E7"/>
<path d="M48.7778 53.1088C49.33 53.1088 49.7778 52.6611 49.7778 52.1088V43.1088C49.7778 42.5565 49.33 42.1088 48.7778 42.1088C48.2255 42.1088 47.7778 42.5565 47.7778 43.1088V51.1088H39.7778C39.2255 51.1088 38.7778 51.5565 38.7778 52.1088C38.7778 52.6611 39.2255 53.1088 39.7778 53.1088H48.7778ZM37.0712 41.8165L48.0707 52.8159L49.4849 51.4017L38.4854 40.4023L37.0712 41.8165Z" fill="#1F90E7"/>
<path d="M34 35L40.9679 34.9941L41 26" stroke="#1F90E7" stroke-width="2" stroke-linecap="round" stroke-linejoin="round"/>
<path d="M67.2138 77H32.7787C31.2474 77 30 75.6911 30 74.1017V32.7155L38.4631 23H67.2213C68.7526 23 70 24.3089 70 25.8983V74.1017C70 75.6989 68.7451 77 67.2213 77H67.2138Z" stroke="#1F90E7" stroke-width="2" stroke-linecap="round" stroke-linejoin="round"/>
</svg>
