<svg width="100" height="100" viewBox="0 0 100 100" fill="none" xmlns="http://www.w3.org/2000/svg">
<rect width="100" height="100" rx="13" fill="#FFE3D5"/>
<path d="M47.75 70.1309H28.7305C28.5078 70.1426 28.7949 70.1719 28.6895 70.1367C28.6309 70.1133 28.5664 70.1074 28.502 70.0898C28.6367 70.1719 28.543 70.1016 28.502 70.0898C28.4609 70.0605 28.4141 70.0371 28.373 70.0137C28.5137 70.1074 28.3848 70.0195 28.3496 69.9844C28.3145 69.9492 28.2266 69.8203 28.3203 69.9609C28.291 69.9199 28.2676 69.8731 28.2441 69.832C28.2266 69.791 28.1621 69.6973 28.2441 69.832C28.2207 69.7559 28.1973 69.6856 28.1855 69.6094C28.209 69.7852 28.1973 69.6211 28.1973 69.5742C28.209 69.2695 28.1973 68.959 28.1973 68.6543V31.582C28.1973 31.5469 28.1973 31.4004 28.1914 31.5059C28.1855 31.6113 28.3027 31.1953 28.209 31.3887C28.2324 31.3418 28.2559 31.3008 28.2793 31.2539C28.373 31.0547 28.2148 31.3125 28.2969 31.2246C28.3379 31.1777 28.3848 31.1367 28.4316 31.0957C28.3965 31.125 28.3027 31.166 28.4375 31.1016C28.4844 31.0781 28.5254 31.0488 28.5723 31.0313C28.4023 31.1133 28.6074 31.0313 28.6484 31.0195C28.8242 30.9668 28.5547 31.0078 28.7305 31.0137H68.5449C68.6328 31.0137 68.7266 31.0195 68.8144 31.0137H68.832C68.8672 31.0137 69.0078 31.0254 68.8379 31.002C68.9141 31.0137 68.9902 31.0371 69.0605 31.0605C68.8613 30.9961 69.2363 31.1777 69.1602 31.1191C69.0781 31.0547 69.3594 31.3711 69.2422 31.1953C69.2715 31.2363 69.2949 31.2832 69.3184 31.3242C69.4355 31.5117 69.3008 31.2305 69.3301 31.3594C69.3477 31.4238 69.3652 31.4824 69.377 31.5469C69.3711 31.5 69.3711 31.3887 69.3652 31.5527C69.3242 32.918 69.3652 34.2949 69.3652 35.6602V52.0313C69.3652 52.4883 69.7695 52.9336 70.2441 52.9102C70.7187 52.8867 71.123 52.5234 71.123 52.0313V32.502C71.123 31.9512 71.1816 31.3184 70.9883 30.7969C70.6426 29.877 69.7988 29.291 68.8203 29.2734H29.1641C28.5957 29.2734 28.0508 29.2852 27.541 29.6016C26.8379 30.0293 26.4453 30.7793 26.4277 31.5938V66.8613C26.4277 67.7754 26.4102 68.6953 26.4277 69.6094C26.4512 70.6406 27.1426 71.6074 28.1738 71.8418C28.4434 71.9004 28.7012 71.9063 28.9707 71.9063H47.7383C48.1953 71.9063 48.6406 71.502 48.6172 71.0273C48.6055 70.5352 48.2422 70.1309 47.75 70.1309Z" fill="#FB5607"/>
<path d="M47.7501 70.1308H29.8322C29.4689 70.1308 29.0997 70.1191 28.7365 70.1308C28.5724 70.1366 28.6837 70.1366 28.7306 70.1425C28.6779 70.1366 28.631 70.1191 28.5782 70.1074C28.3615 70.0722 28.6486 70.1542 28.5431 70.1015C28.4962 70.0781 28.4552 70.0488 28.4142 70.0253C28.5021 70.1132 28.3029 69.9609 28.4142 70.0253L28.3087 69.9199C28.2677 69.873 28.2736 69.8847 28.3322 69.9491C28.3087 69.9199 28.2911 69.8847 28.2736 69.8554C28.2618 69.832 28.1974 69.6913 28.2384 69.7909C28.2794 69.8964 28.2267 69.7382 28.2208 69.7148C28.215 69.6855 28.1974 69.5273 28.2032 69.6386C28.215 69.7851 28.2091 69.5214 28.2091 69.5976V61.7929C28.1212 61.998 28.0392 62.2089 27.9513 62.414L34.0333 56.3847C34.3204 56.1034 34.6017 55.8222 34.8888 55.5409H33.6466L36.3302 58.207C37.754 59.6191 39.1779 61.037 40.6017 62.4491C40.9298 62.7714 41.2521 63.0995 41.5802 63.4218C41.92 63.7558 42.4825 63.7558 42.8224 63.4218C43.4728 62.7714 44.129 62.121 44.7794 61.4706C46.3497 59.912 47.9142 58.3476 49.4845 56.789C51.3829 54.9023 53.2814 53.0097 55.1798 51.123C56.8204 49.4882 58.4611 47.8593 60.1017 46.2245C60.8927 45.4335 61.7423 44.6777 62.4923 43.8456L62.5275 43.8105H61.2853C62.2286 44.748 63.172 45.6796 64.1212 46.6171C65.6212 48.0995 67.1154 49.582 68.6154 51.0644C68.9611 51.4042 69.3068 51.7499 69.6525 52.0898C69.5646 51.8847 69.4825 51.6738 69.3947 51.4687V52.0195C69.3947 52.4765 69.7989 52.9218 70.2736 52.8984C70.7482 52.8749 71.1525 52.5116 71.1525 52.0195C71.1525 51.5683 71.1818 51.1523 70.8478 50.8007C70.7072 50.6484 70.5548 50.5077 70.4025 50.3613L68.4864 48.4628C66.8868 46.8749 65.2814 45.2929 63.6818 43.705C63.295 43.3241 62.9142 42.9433 62.5275 42.5624C62.1876 42.2284 61.6251 42.2226 61.2853 42.5624C60.6349 43.2128 59.9786 43.8632 59.3282 44.5136C57.7579 46.0722 56.1935 47.6366 54.6232 49.1952C52.7247 51.082 50.8263 52.9745 48.9279 54.8613C47.2872 56.496 45.6466 58.1249 44.006 59.7597C43.215 60.5507 42.3654 61.3066 41.6154 62.1386L41.5802 62.1738H42.8224L40.1388 59.5077C38.715 58.0956 37.2911 56.6777 35.8673 55.2656C35.5392 54.9433 35.2169 54.6152 34.8888 54.2929C34.549 53.9589 33.9865 53.9589 33.6466 54.2929C31.6661 56.2558 29.6857 58.2128 27.7111 60.1757C27.3947 60.4863 27.0724 60.7968 26.7618 61.1191C26.4103 61.4823 26.4572 61.8749 26.4572 62.3261V69.5976C26.4747 70.4003 26.879 71.1386 27.5704 71.5605C28.3204 72.0175 29.3693 71.8886 30.2189 71.8886H47.7677C48.2247 71.8886 48.67 71.4843 48.6466 71.0097C48.6056 70.5351 48.2423 70.1308 47.7501 70.1308ZM41.7443 40.33C41.7443 40.412 41.7443 40.4941 41.7384 40.5761C41.7384 40.6171 41.7325 40.6581 41.7267 40.6991C41.715 40.8398 41.7501 40.5644 41.7267 40.705C41.6974 40.8749 41.6564 41.039 41.6036 41.2089C41.5802 41.2851 41.5509 41.3554 41.5275 41.4316C41.5861 41.2734 41.4923 41.5019 41.4747 41.5429C41.3986 41.6952 41.3048 41.83 41.2169 41.9765C41.2111 41.9882 41.1349 42.0878 41.1935 42.0116C41.2579 41.9296 41.1583 42.0527 41.1407 42.0702C41.088 42.1288 41.0411 42.1874 40.9884 42.2402C40.8712 42.3574 40.7482 42.4745 40.6193 42.5741C40.7482 42.4745 40.5607 42.6093 40.5138 42.6386C40.4493 42.6796 40.3849 42.7206 40.3146 42.7558C40.2443 42.7909 40.1798 42.8261 40.1095 42.8613C40.0743 42.8788 40.0392 42.8964 40.004 42.9081C40.1212 42.8554 40.0275 42.8964 39.9572 42.9199C39.8107 42.9726 39.6583 43.0136 39.5001 43.0488C39.465 43.0546 39.254 43.0898 39.3419 43.0781C39.4415 43.0663 39.3068 43.0781 39.3009 43.0839C39.2306 43.0898 39.1661 43.0956 39.0958 43.0956C38.9318 43.1015 38.7677 43.0956 38.6036 43.0781C38.4982 43.0722 38.6212 43.0839 38.6388 43.0839C38.5978 43.0781 38.5626 43.0722 38.5216 43.0605C38.4161 43.0429 38.3165 43.0136 38.2111 42.9902C38.1349 42.9667 38.0587 42.9433 37.9884 42.9199C37.9532 42.9081 37.9122 42.8906 37.8771 42.8788C37.8888 42.8847 38.0001 42.9316 37.9064 42.8906C37.7423 42.8144 37.5841 42.7265 37.4318 42.6327C37.4025 42.6152 37.2384 42.498 37.3029 42.5449C37.3673 42.5917 37.2091 42.4687 37.1857 42.4452C37.0509 42.3281 36.9279 42.1991 36.8107 42.0644L36.7404 41.9765C36.7521 41.9882 36.8165 42.082 36.7638 41.9999C36.7111 41.9238 36.6642 41.8534 36.6173 41.7773C36.5763 41.7128 36.5411 41.6425 36.506 41.5722L36.4532 41.4667C36.4474 41.4491 36.3829 41.3027 36.4181 41.3964C36.4474 41.4726 36.3771 41.2792 36.3654 41.2441C36.3361 41.1562 36.3126 41.0683 36.2892 40.9804C36.2716 40.9042 36.254 40.8222 36.2423 40.746C36.2423 40.7343 36.2189 40.6054 36.2365 40.705C36.2482 40.8046 36.2306 40.6406 36.2306 40.623C36.2189 40.4472 36.213 40.2656 36.2247 40.0898C36.2306 40.0312 36.254 39.8495 36.2306 40.0019C36.2482 39.9081 36.2657 39.8202 36.2833 39.7265C36.3243 39.5624 36.3771 39.3984 36.4357 39.2402C36.3829 39.3808 36.4474 39.2167 36.4708 39.164C36.5177 39.0702 36.5646 38.9824 36.6173 38.8945C36.6583 38.83 36.7052 38.7656 36.7404 38.7011C36.8282 38.5663 36.6818 38.7538 36.7872 38.6366C36.9044 38.5019 37.0275 38.3671 37.1564 38.2499C37.215 38.1972 37.2736 38.1503 37.3322 38.1034C37.215 38.1913 37.3615 38.0917 37.4025 38.0624C37.5548 37.9628 37.713 37.8808 37.8712 37.7988C38.0177 37.7226 37.795 37.8222 37.9474 37.7695C38.0236 37.746 38.0939 37.7167 38.17 37.6933C38.2579 37.6699 38.3458 37.6464 38.4396 37.623C38.4923 37.6113 38.7267 37.582 38.5626 37.5937C38.7267 37.5761 38.8907 37.5702 39.0548 37.5702C39.1486 37.5702 39.2423 37.582 39.3419 37.5878C39.4474 37.5937 39.3243 37.582 39.3068 37.582C39.3595 37.5878 39.4122 37.5995 39.465 37.6113C39.6583 37.6523 39.8458 37.7109 40.0333 37.7753C40.1271 37.8105 40.0157 37.7636 40.004 37.7577C40.0509 37.7812 40.0978 37.7988 40.1447 37.8222C40.2267 37.8632 40.3029 37.9042 40.3849 37.9511C40.4728 38.0038 40.5548 38.0624 40.6427 38.121C40.7247 38.1738 40.631 38.1093 40.6193 38.0976C40.6603 38.1269 40.7013 38.162 40.7365 38.1972C40.8712 38.3144 41.0001 38.4433 41.1173 38.5781C41.1525 38.6191 41.1818 38.6542 41.2169 38.6952C41.1642 38.6249 41.1759 38.6366 41.2169 38.7011C41.2638 38.7773 41.3165 38.8534 41.3634 38.9296C41.4103 39.0058 41.4513 39.0878 41.4923 39.1699C41.5157 39.2167 41.5392 39.2636 41.5568 39.3105C41.5216 39.2284 41.5333 39.246 41.5568 39.3163C41.6154 39.4921 41.6681 39.6679 41.7091 39.8495C41.7208 39.9023 41.7267 39.955 41.7384 40.0077C41.7267 39.9199 41.7325 39.9316 41.7384 40.0136C41.7384 40.1132 41.7443 40.2245 41.7443 40.33C41.7501 40.787 42.1427 41.2324 42.6232 41.2089C43.0978 41.1855 43.5079 40.8222 43.5021 40.33C43.4786 38.3964 42.2716 36.7148 40.4611 36.0527C38.7384 35.4199 36.67 35.9941 35.5099 37.412C34.297 38.8886 34.0861 41.0038 35.0822 42.662C36.0782 44.3144 38.006 45.123 39.8868 44.7656C41.9786 44.3671 43.4728 42.4277 43.4962 40.33C43.5021 39.873 43.0861 39.4277 42.6173 39.4511C42.1427 39.4745 41.7501 39.8378 41.7443 40.33ZM71.6622 62.7304C71.1759 63.2109 70.6954 63.6972 70.2091 64.1777C69.0548 65.3261 67.9005 66.4804 66.7462 67.6288L62.5333 71.8241C61.3204 73.0312 60.1075 74.2441 58.8947 75.4511C58.3087 76.0312 57.6759 76.5937 57.131 77.2089C57.1251 77.2206 57.1134 77.2265 57.1075 77.2323C57.3126 77.1445 57.5236 77.0624 57.7286 76.9745H53.3224L54.2013 77.8534V73.4765C54.1134 73.6816 54.0314 73.8925 53.9435 74.0976C54.67 73.3652 55.4025 72.6386 56.129 71.9062C57.7462 70.2831 59.3634 68.6659 60.9806 67.0429C62.6329 65.3847 64.2853 63.7265 65.9376 62.0741C66.7755 61.2363 67.6251 60.4101 68.4513 59.5546L68.4689 59.537C68.4806 59.5253 68.4982 59.5077 68.504 59.5077C68.6036 59.4081 68.4103 59.5605 68.5275 59.4902C68.5802 59.4609 68.6915 59.4081 68.5743 59.4491C68.6271 59.4316 68.6739 59.4199 68.7267 59.4023C68.8966 59.3554 68.7618 59.4023 68.7267 59.4023H68.8849C68.8439 59.3964 68.7208 59.3671 68.8849 59.414C68.92 59.4257 69.0314 59.4784 68.8966 59.4081C68.9435 59.4316 68.9904 59.4609 69.0372 59.4902C68.9728 59.4491 68.9786 59.4374 69.0548 59.5136C69.3126 59.7714 69.5763 60.0292 69.8341 60.287C70.2618 60.7148 70.6954 61.1425 71.1232 61.5702L71.5685 62.0156L71.674 62.121L71.6974 62.1445C71.8087 62.2499 71.6974 62.1034 71.7618 62.2323C71.7794 62.2675 71.8204 62.3788 71.7736 62.2382C71.7911 62.2909 71.8029 62.3378 71.8146 62.3906C71.7677 62.1913 71.7853 62.5956 71.8204 62.3906C71.8146 62.4433 71.797 62.496 71.7853 62.5429C71.7794 62.5546 71.7325 62.6718 71.7677 62.5898C71.8146 62.496 71.7267 62.6484 71.715 62.6659C71.6329 62.8066 71.8439 62.537 71.6622 62.7304C71.3341 63.0761 71.3224 63.6327 71.6622 63.9726C71.9904 64.3007 72.5763 64.3183 72.9044 63.9726C73.754 63.0702 73.7599 61.746 72.8868 60.8613C72.4708 60.4394 72.0489 60.0292 71.6329 59.6132C71.2052 59.1913 70.7833 58.7695 70.3556 58.3476C69.506 57.5097 68.2345 57.4159 67.3146 58.2128C66.9864 58.4999 66.6876 58.8339 66.3771 59.1386C65.6447 59.871 64.9181 60.6034 64.1857 61.3359C62.129 63.3984 60.0724 65.4609 58.0099 67.5234C56.4103 69.1288 54.8048 70.7343 53.2052 72.3398C53.0529 72.4921 52.9005 72.6386 52.754 72.7909C52.5079 73.0488 52.4318 73.3534 52.4318 73.6991V77.8476C52.4318 78.3222 52.8361 78.7265 53.3107 78.7265H57.3888C57.7521 78.7265 58.0509 78.7265 58.3556 78.457C59.1818 77.7187 59.9318 76.8808 60.7169 76.1015C62.3107 74.5136 63.9044 72.9257 65.4923 71.3378L70.3263 66.5214C71.17 65.6835 72.0431 64.8632 72.8575 63.996L72.8927 63.9609C73.2267 63.6269 73.2267 63.0527 72.8927 62.7187C72.5704 62.3964 72.0021 62.3964 71.6622 62.7304Z" fill="#FB5607"/>
<path d="M69.9507 65.6548L66.0776 61.7817L65.5269 61.231C65.1929 60.897 64.6187 60.897 64.2847 61.231C63.9507 61.5649 63.9507 62.1392 64.2847 62.4731L68.1577 66.3462L68.7085 66.897C69.0425 67.231 69.6167 67.231 69.9507 66.897C70.2905 66.5571 70.2905 65.9888 69.9507 65.6548Z" fill="#FB5607"/>
</svg>
