<svg width="80" height="80" viewBox="0 0 80 80" fill="none" xmlns="http://www.w3.org/2000/svg">
<path d="M55.4998 13C49.5399 13 43.5799 15.45 39.9999 22.82C36.4199 15.45 30.4599 13 24.5 13C16.15 13 9.00003 17.91 9.00003 29.1999C8.9965 31.8338 9.30532 34.4588 9.92003 37.0199C14.77 57.2398 37.3199 66.9998 39.9999 66.9998C42.6299 66.9998 64.4998 57.5598 69.8298 37.9999C70.6129 35.1324 71.0064 32.1725 70.9998 29.1999C70.9998 17.91 63.8498 13 55.4998 13Z" fill="#E63B47"/>
<path d="M31.0001 35.9999H49.0001C53.4937 35.9997 57.8796 34.624 61.5682 32.0576C65.2569 29.4912 68.0716 25.8572 69.634 21.644C67.174 15.691 61.669 13 55.5 13C49.5401 13 43.5801 15.45 40.0001 22.82C36.4201 15.45 30.4601 13 24.5002 13C18.3312 13 12.8262 15.691 10.3662 21.644C11.9286 25.8572 14.7433 29.4912 18.432 32.0576C22.1206 34.624 26.5065 35.9997 31.0001 35.9999Z" fill="#FF505B"/>
<path d="M50.3071 17.464C49.6071 17.851 48.9022 18.435 49.0072 19.126C49.174 19.6341 49.5329 20.0569 50.0071 20.304C50.8551 20.885 51.7621 21.404 52.6721 21.918C54.4131 22.904 56.1671 23.877 57.9811 24.768C59.1193 25.3977 60.3649 25.8098 61.6541 25.9829C61.9504 26.0149 62.2498 26.0041 62.5431 25.9509C63.0896 25.8169 63.5786 25.5109 63.9381 25.078C64.5617 24.3481 64.9304 23.4348 64.9881 22.4766C65.0459 21.5184 64.7896 20.5674 64.2581 19.768C61.6511 15.558 54.7361 15.006 50.3071 17.464ZM21.3073 17.464C20.6073 17.851 19.9023 18.435 20.0073 19.126C20.1741 19.6341 20.533 20.0569 21.0073 20.304C21.8553 20.885 22.7623 21.404 23.6723 21.918C25.4132 22.904 27.1722 23.877 28.9812 24.768C30.1194 25.3977 31.365 25.8098 32.6542 25.9829C32.9506 26.0149 33.2499 26.0041 33.5432 25.9509C34.0915 25.8179 34.5825 25.5118 34.9432 25.078C35.5668 24.3481 35.9355 23.4348 35.9932 22.4766C36.051 21.5184 35.7947 20.5674 35.2632 19.768C32.6512 15.558 25.7362 15.006 21.3073 17.464Z" fill="#FF99A0"/>
<path d="M70.0658 37.0133C70.0428 37.0133 70.0228 37.0003 69.9998 37.0003H55.5548L50.8479 29.4703C50.7528 29.3182 50.6187 29.1945 50.4595 29.1121C50.3002 29.0296 50.1218 28.9915 49.9427 29.0018C49.7637 29.012 49.5908 29.0701 49.4419 29.1702C49.2931 29.2702 49.1739 29.4084 49.0969 29.5703L40.0969 48.4702L30.9339 24.6413C30.8645 24.46 30.7437 24.3028 30.5864 24.189C30.4291 24.0751 30.2421 24.0095 30.0482 24.0002C29.8542 23.9908 29.6618 24.0382 29.4943 24.1364C29.3268 24.2346 29.1915 24.3795 29.1049 24.5533L23.382 36.0003H10C9.90373 36.0053 9.80871 36.0245 9.71802 36.0573C9.78502 36.3783 9.84402 36.7043 9.91802 37.0203C9.99802 37.3522 10.094 37.6742 10.184 38.0002H24C24.1858 38.0003 24.368 37.9486 24.5261 37.851C24.6841 37.7533 24.8119 37.6135 24.895 37.4472L29.8809 27.4753L39.0659 51.3592C39.1362 51.5417 39.2584 51.6996 39.4175 51.8133C39.5765 51.9271 39.7655 51.9917 39.9609 51.9992H39.9999C40.1884 51.9987 40.3729 51.9449 40.5321 51.844C40.6914 51.7432 40.8188 51.5994 40.8999 51.4292L50.1159 32.0763L54.1488 38.5292C54.2389 38.6737 54.3643 38.7928 54.5132 38.8752C54.6621 38.9576 54.8296 39.0006 54.9998 39.0002H69.5268C69.6268 38.6672 69.7378 38.3392 69.8268 38.0002C69.9188 37.6772 69.9868 37.3422 70.0658 37.0133Z" fill="#FBFBFB"/>
</svg>
