<svg xmlns="http://www.w3.org/2000/svg" width="1159" height="771" fill="none" viewBox="0 0 1159 771">
  <path fill="url(#a)" d="M904 526.77c-33.42-73.45 2-89.19 32.9-162.41 32.22-76.28 11.2-127.56-43.87-159.55-74.6-43.35-146.67 20.5-222.47 20.5-123.77 0-111.92-80.41-239.75-72.87-88.7 5.23-157.46 113.69-131.07 185.88 22.53 61.64 19.19 105.94-31.18 165.11-60.44 71-28.66 166.64 57.13 166.64h515c75.11 0 93.31-77.39 63.31-143.3Z"/>
  <path fill="#1A0A76" d="M494.85 584.29a.852.852 0 0 1-.85-.85v-39.1a.842.842 0 0 1 .249-.601.84.84 0 0 1 .601-.249.842.842 0 0 1 .601.249.84.84 0 0 1 .249.601v39.1a.852.852 0 0 1-.85.85Zm0-54.4a.857.857 0 0 1-.616-.263A.855.855 0 0 1 494 529v-3.89a.852.852 0 0 1 1.451-.601.852.852 0 0 1 .249.601V529a.865.865 0 0 1-.234.627.856.856 0 0 1-.616.263Zm-25.8 38.73a.852.852 0 0 1-.85-.85v-25.22H456a.852.852 0 0 1-.601-1.451.852.852 0 0 1 .601-.249h13.9v26.92a.842.842 0 0 1-.249.601.84.84 0 0 1-.601.249Zm-28.33-26.07h-2.94v-37.87a.852.852 0 0 1 1.451-.601.852.852 0 0 1 .249.601v36.17h1.24a.852.852 0 0 1 .601 1.451.852.852 0 0 1-.601.249Zm90.56 33.62a.852.852 0 0 1-.85-.85v-34.48h6.34a.852.852 0 0 1 .601 1.451.852.852 0 0 1-.601.249h-4.62v32.77a.847.847 0 0 1-.536.8.848.848 0 0 1-.334.06Zm33.38-33.36-12.61-.1a.857.857 0 0 1-.84-.86.853.853 0 0 1 .252-.595.853.853 0 0 1 .598-.245l10.89.08V514.6a.852.852 0 0 1 1.451-.601.852.852 0 0 1 .249.601l.01 28.21ZM470.55 154h-22.1a.852.852 0 0 1-.601-1.451.852.852 0 0 1 .601-.249h22.1a.852.852 0 0 1 .601 1.451.852.852 0 0 1-.601.249Zm129.18 0h-41a.852.852 0 0 1-.601-1.451.852.852 0 0 1 .601-.249h41a.852.852 0 0 1 .601 1.451.852.852 0 0 1-.601.249Zm-64.59 0h-41a.852.852 0 0 1-.601-1.451.852.852 0 0 1 .601-.249h41a.852.852 0 0 1 .601 1.451.852.852 0 0 1-.601.249Zm88.22 0a.852.852 0 0 1-.601-1.451.852.852 0 0 1 .601-.249l41-.22a.852.852 0 0 1 .601 1.451.852.852 0 0 1-.601.249l-41 .22Zm64.59-.34a.852.852 0 0 1-.601-1.451.852.852 0 0 1 .601-.249l41-.22a.852.852 0 0 1 .601 1.451.852.852 0 0 1-.601.249l-41 .22Zm110.27 36.41h-.1l-22.66-2.72-1.63-34.16-21.28.11a.845.845 0 0 1-.6-.242.84.84 0 0 1-.25-.598.862.862 0 0 1 .85-.86l22.91-.12 1.64 34.36 21.23 2.54a.858.858 0 0 1 .586.284.832.832 0 0 1 .168.287.837.837 0 0 1-.038.65.855.855 0 0 1-.816.479l-.01-.01ZM926 298.55a.852.852 0 0 1-.85-.85v-47a.852.852 0 0 1 1.451-.601.852.852 0 0 1 .249.601v47a.852.852 0 0 1-.85.85Zm0-74.13a.852.852 0 0 1-.85-.85v-7.89a20.605 20.605 0 0 0-6.037-14.553 20.605 20.605 0 0 0-14.553-6.037h-5.42a.842.842 0 0 1-.601-.249.84.84 0 0 1-.249-.601.842.842 0 0 1 .249-.601.84.84 0 0 1 .601-.249h5.42a22.324 22.324 0 0 1 15.753 6.537 22.324 22.324 0 0 1 6.537 15.753v7.89a.852.852 0 0 1-.85.85Zm-54-29.33h-32l-14.91-1.79a.849.849 0 1 1 .2-1.68l14.86 1.78h31.94a.842.842 0 0 1 .601.249.84.84 0 0 1 .249.601.842.842 0 0 1-.249.601.84.84 0 0 1-.601.249l-.09-.01Zm54 152.7a.852.852 0 0 1-.85-.85v-22.1a.852.852 0 0 1 1.451-.601.852.852 0 0 1 .249.601v22.1a.852.852 0 0 1-.85.85Z"/>
  <path fill="#332DA4" d="M559.46 647.55h-82.15a5.51 5.51 0 0 0-5.51 5.51v12.14a5.51 5.51 0 0 0 5.51 5.51h82.15a5.51 5.51 0 0 0 5.51-5.51v-12.14a5.51 5.51 0 0 0-5.51-5.51Zm0-28.67h-82.15a5.51 5.51 0 0 0-5.51 5.51v12.13a5.51 5.51 0 0 0 5.51 5.51h82.15a5.51 5.51 0 0 0 5.51-5.51v-12.13a5.51 5.51 0 0 0-5.51-5.51Zm0-28.67h-82.15a5.51 5.51 0 0 0-5.51 5.51v12.14a5.51 5.51 0 0 0 5.51 5.51h82.15a5.51 5.51 0 0 0 5.51-5.51v-12.14a5.51 5.51 0 0 0-5.51-5.51Z"/>
  <path fill="#1A0A76" d="M559.46 642.03h-41.35v5.51h41.35v-5.51Zm0-28.66h-41.35v5.51h41.35v-5.51Zm0-28.67h-41.35v5.51h41.35v-5.51Z"/>
  <path fill="#332DA4" d="M559.46 561.54h-82.15a5.51 5.51 0 0 0-5.51 5.51v12.14a5.51 5.51 0 0 0 5.51 5.51h82.15a5.51 5.51 0 0 0 5.51-5.51v-12.14a5.51 5.51 0 0 0-5.51-5.51Z"/>
  <path fill="url(#b)" d="M518.11 647.55h-73.88a5.51 5.51 0 0 0-5.51 5.51v12.14a5.51 5.51 0 0 0 5.51 5.51h73.88a5.51 5.51 0 0 0 5.51-5.51v-12.14a5.51 5.51 0 0 0-5.51-5.51Z"/>
  <path fill="#332DA4" d="M518.11 642.03h-73.87v5.51h73.87v-5.51Z"/>
  <path fill="url(#c)" d="M452.51 659.12a2.76 2.76 0 1 1-5.52.02 2.76 2.76 0 0 1 5.52-.02Z"/>
  <path fill="url(#d)" d="M463.53 659.12a2.754 2.754 0 0 1-1.699 2.558 2.766 2.766 0 0 1-3.013-.596 2.766 2.766 0 0 1-.596-3.013 2.756 2.756 0 0 1 2.558-1.699c.729 0 1.429.29 1.945.805.515.516.805 1.216.805 1.945Z"/>
  <path fill="url(#e)" d="M474.56 659.12a2.76 2.76 0 1 1-5.52.02 2.76 2.76 0 0 1 5.52-.02Z"/>
  <path fill="url(#f)" d="M518.11 618.88h-73.88a5.51 5.51 0 0 0-5.51 5.51v12.13a5.51 5.51 0 0 0 5.51 5.51h73.88a5.51 5.51 0 0 0 5.51-5.51v-12.13a5.51 5.51 0 0 0-5.51-5.51Z"/>
  <path fill="#332DA4" d="M518.11 613.37h-73.87v5.51h73.87v-5.51Z"/>
  <path fill="url(#g)" d="M452.51 630.46a2.758 2.758 0 0 1-3.298 2.707 2.756 2.756 0 0 1-2.169-2.168 2.764 2.764 0 0 1 1.174-2.834 2.758 2.758 0 0 1 4.293 2.295Z"/>
  <path fill="url(#h)" d="M463.53 630.46a2.757 2.757 0 0 1-1.706 2.551 2.75 2.75 0 0 1-1.596.155 2.754 2.754 0 0 1-2.166-2.174 2.757 2.757 0 0 1 1.182-2.832 2.76 2.76 0 0 1 1.536-.46 2.757 2.757 0 0 1 2.75 2.76Z"/>
  <path fill="url(#i)" d="M474.56 630.46a2.758 2.758 0 0 1-3.298 2.707 2.756 2.756 0 0 1-2.169-2.168 2.764 2.764 0 0 1 1.174-2.834 2.76 2.76 0 0 1 4.293 2.295Z"/>
  <path fill="url(#j)" d="M518.11 590.21h-73.88a5.51 5.51 0 0 0-5.51 5.51v12.14a5.51 5.51 0 0 0 5.51 5.51h73.88a5.51 5.51 0 0 0 5.51-5.51v-12.14a5.51 5.51 0 0 0-5.51-5.51Z"/>
  <path fill="#332DA4" d="M518.11 584.7h-73.87v5.51h73.87v-5.51Z"/>
  <path fill="url(#k)" d="M452.51 601.79a2.76 2.76 0 1 1-5.522 0 2.76 2.76 0 0 1 5.522 0Z"/>
  <path fill="url(#l)" d="M463.53 601.79a2.757 2.757 0 0 1-1.706 2.551 2.759 2.759 0 0 1-3.601-3.614 2.76 2.76 0 0 1 2.557-1.697 2.75 2.75 0 0 1 2.75 2.76Z"/>
  <path fill="url(#m)" d="M474.56 601.79a2.759 2.759 0 0 1-3.317 2.673 2.762 2.762 0 0 1-1.99-3.766 2.762 2.762 0 0 1 4.509-.878 2.748 2.748 0 0 1 .798 1.971Z"/>
  <path fill="url(#n)" d="M518.11 561.54h-73.88a5.51 5.51 0 0 0-5.51 5.51v12.14a5.51 5.51 0 0 0 5.51 5.51h73.88a5.51 5.51 0 0 0 5.51-5.51v-12.14a5.51 5.51 0 0 0-5.51-5.51Z"/>
  <path fill="url(#o)" d="M452.51 573.12a2.758 2.758 0 0 1-3.298 2.707 2.763 2.763 0 0 1-2.169-2.169 2.761 2.761 0 0 1 2.707-3.298 2.772 2.772 0 0 1 2.76 2.76Z"/>
  <path fill="url(#p)" d="M463.53 573.12a2.757 2.757 0 0 1-1.706 2.551 2.759 2.759 0 0 1-3.601-3.614 2.76 2.76 0 0 1 5.307 1.063Z"/>
  <path fill="url(#q)" d="M474.56 573.12a2.758 2.758 0 0 1-3.298 2.707 2.763 2.763 0 0 1-2.169-2.169 2.761 2.761 0 0 1 2.707-3.298 2.772 2.772 0 0 1 2.76 2.76Z"/>
  <path fill="#1A0A76" d="M556.59 668.21H441.36a5.786 5.786 0 0 1-4.081-1.696 5.785 5.785 0 0 1-1.689-4.084V650.3a5.78 5.78 0 0 1 5.77-5.77h115.23a5.78 5.78 0 0 1 5.77 5.77v12.13c0 1.531-.608 3-1.689 4.084a5.786 5.786 0 0 1-4.081 1.696Zm-115.23-23.16a5.26 5.26 0 0 0-5.25 5.25v12.13a5.26 5.26 0 0 0 5.25 5.25h115.23a5.26 5.26 0 0 0 5.25-5.25V650.3a5.26 5.26 0 0 0-5.25-5.25H441.36Zm115.23-5.51H441.36a5.786 5.786 0 0 1-4.081-1.696 5.785 5.785 0 0 1-1.689-4.084v-12.13a5.78 5.78 0 0 1 5.77-5.77h115.23a5.78 5.78 0 0 1 5.77 5.77v12.13c0 1.531-.608 3-1.689 4.084a5.786 5.786 0 0 1-4.081 1.696Zm-115.23-23.16a5.26 5.26 0 0 0-5.25 5.25v12.13a5.26 5.26 0 0 0 5.25 5.25h115.23a5.26 5.26 0 0 0 5.25-5.25v-12.13a5.26 5.26 0 0 0-5.25-5.25H441.36Zm115.23-5.51H441.36a5.786 5.786 0 0 1-4.081-1.696 5.785 5.785 0 0 1-1.689-4.084V593c0-1.531.608-3 1.689-4.084a5.786 5.786 0 0 1 4.081-1.696h115.23a5.786 5.786 0 0 1 4.081 1.696A5.785 5.785 0 0 1 562.36 593v12.12a5.78 5.78 0 0 1-5.77 5.75Zm-115.23-23.16a5.262 5.262 0 0 0-5.25 5.26v12.12a5.262 5.262 0 0 0 5.25 5.26h115.23a5.262 5.262 0 0 0 5.25-5.26V593a5.262 5.262 0 0 0-5.25-5.26l-115.23-.03Zm115.23-5.51H441.36a5.778 5.778 0 0 1-5.77-5.77V564.3c0-1.531.608-3 1.689-4.084a5.786 5.786 0 0 1 4.081-1.696h115.23a5.786 5.786 0 0 1 4.081 1.696 5.785 5.785 0 0 1 1.689 4.084v12.13a5.78 5.78 0 0 1-5.77 5.77Zm-115.23-23.15a5.26 5.26 0 0 0-5.25 5.25v12.13a5.26 5.26 0 0 0 5.25 5.25h115.23a5.26 5.26 0 0 0 5.25-5.25V564.3a5.26 5.26 0 0 0-5.25-5.25H441.36Z"/>
  <path fill="url(#r)" d="M938.54 486.12s18.15-41.57 3.86-63.83c-15.35-23.94-32.6-5.33-22.62 26.6a130.433 130.433 0 0 0 18.76 37.23Z"/>
  <path fill="url(#s)" d="M908.89 635.6A379.462 379.462 0 0 0 929 577.54a292.543 292.543 0 0 0 8.38-81.26 416.226 416.226 0 0 0-4.94-49.44c-.37-2.45 3.4-3.28 3.78-.82 4.41 28.52 6.62 57.46 4.22 86.28-2.38 28.52-9.3 56.41-19.27 83.2a421.004 421.004 0 0 1-7.85 19.6l-4.43.5Z"/>
  <path fill="url(#t)" d="M938.16 535.23s42.44-16 48.43-41.76c6.44-27.7-18.93-27.08-34.84 2.35a130.245 130.245 0 0 0-13.59 39.41Z"/>
  <path fill="url(#u)" d="M933.58 563.68s-39.84-21.68-42.23-48c-2.57-28.32 22.48-24.21 34.19 7.12a130.69 130.69 0 0 1 8.04 40.88Z"/>
  <path fill="url(#v)" d="M920.2 609.05S880.37 587.37 878 561c-2.57-28.32 22.48-24.21 34.18 7.12a130.405 130.405 0 0 1 8.02 40.93Z"/>
  <path fill="url(#w)" d="M927.48 591.82s45.13-4.52 57.55-27.88c13.36-25.1-11.32-31-34.27-6.7a130.596 130.596 0 0 0-23.28 34.58Z"/>
  <path fill="#fff" d="m929.23 589.65-.45-1.37c27-8.86 37.87-25.11 38-25.27l1.2.79c-.13.2-11.3 16.82-38.75 25.85ZM939.87 531l-.65-1.28c24.15-12.33 32.42-39.74 32.5-40l1.38.41c-.1.28-8.51 28.28-33.23 40.87Zm-8.097-94.729-1.421.229 7.219 44.772 1.422-.23-7.22-44.771ZM919.81 606.89c-8.4-5.62-26.65-40.66-27.42-42.15l1.28-.66c.18.36 18.84 36.2 26.94 41.62l-.8 1.19Zm11.53-48.36c-8.4-5.61-26.65-40.66-27.42-42.15l1.27-.66c.19.36 18.85 36.2 26.95 41.62l-.8 1.19Z"/>
  <path fill="url(#x)" d="M892.44 671.12h45.62l15.98-27.5h-77.58l15.98 27.5Z"/>
  <path fill="#fff" d="M938.47 671.83H892l-16.81-28.92h80.06l-16.78 28.92Zm-45.62-1.42h44.8l15.15-26.08h-75.11l15.16 26.08Z"/>
  <path fill="url(#y)" d="M954.28 616.45h-78.05a8.4 8.4 0 0 0-8.4 8.4v10.69a8.4 8.4 0 0 0 8.4 8.4h78.05a8.4 8.4 0 0 0 8.4-8.4v-10.69a8.4 8.4 0 0 0-8.4-8.4Z"/>
  <path fill="#fff" d="M954.27 644.65h-78a9.129 9.129 0 0 1-9.12-9.11v-10.69a9.131 9.131 0 0 1 9.12-9.12h78a9.131 9.131 0 0 1 9.12 9.12v10.69a9.129 9.129 0 0 1-9.12 9.11Zm-78-27.49a7.705 7.705 0 0 0-5.435 2.255 7.705 7.705 0 0 0-2.255 5.435v10.69a7.705 7.705 0 0 0 2.255 5.435 7.705 7.705 0 0 0 5.435 2.255h78a7.705 7.705 0 0 0 5.435-2.255 7.705 7.705 0 0 0 2.255-5.435v-10.69a7.705 7.705 0 0 0-2.255-5.435 7.705 7.705 0 0 0-5.435-2.255h-78Z"/>
  <path fill="#1A0A76" d="M975.83 674.51H795.32a1.288 1.288 0 0 1-.977-.331 1.276 1.276 0 0 1-.307-1.46 1.276 1.276 0 0 1 1.284-.759h180.51a1.278 1.278 0 0 1 1.167 1.275 1.28 1.28 0 0 1-1.167 1.275Zm-196.66 0H348.1a1.278 1.278 0 0 1-1.167-1.275 1.28 1.28 0 0 1 1.167-1.275h431.07a1.278 1.278 0 0 1 1.167 1.275 1.28 1.28 0 0 1-1.167 1.275Zm-447.17 0H210.83a1.288 1.288 0 0 1-.977-.331 1.276 1.276 0 0 1-.307-1.46 1.276 1.276 0 0 1 1.284-.759H332a1.271 1.271 0 0 1 .977.331 1.276 1.276 0 0 1 .307 1.46 1.276 1.276 0 0 1-1.284.759Z"/>
  <path fill="url(#z)" d="M269.667 345.475c7.4-28.514-9.715-57.629-38.229-65.03-28.514-7.401-57.629 9.715-65.03 38.229-7.401 28.514 9.715 57.629 38.229 65.03 28.514 7.401 57.629-9.715 65.03-38.229Z"/>
  <path fill="#14085C" d="M221.92 392.6a53.638 53.638 0 0 1-37.915-91.583A53.64 53.64 0 0 1 275.56 339a53.71 53.71 0 0 1-53.64 53.6Zm0-106.68a52.998 52.998 0 0 0-51.982 63.34 53.005 53.005 0 0 0 41.642 41.642 53.003 53.003 0 0 0 54.408-22.537 52.998 52.998 0 0 0 8.932-29.445 53.096 53.096 0 0 0-15.553-37.447 53.096 53.096 0 0 0-37.447-15.553Z"/>
  <path fill="url(#A)" d="m254.37 313.73-43.94 43.94-21-21a6.72 6.72 0 0 0-9.51 9.5l25.73 25.72a6.683 6.683 0 0 0 4.75 1.979 6.684 6.684 0 0 0 4.75-1.979l48.69-48.68a6.72 6.72 0 0 0-9.5-9.51l.03.03Z"/>
  <path fill="#14085C" d="M210.43 369.13a7 7 0 0 1-5-2.06l-25.72-25.72a7.025 7.025 0 0 1 9.93-9.94l20.76 20.76 43.72-43.72a6.998 6.998 0 0 1 9.94 0 7.007 7.007 0 0 1 2.066 4.965 7.01 7.01 0 0 1-2.066 4.965l-48.66 48.69a6.996 6.996 0 0 1-4.97 2.06ZM184.71 330a6.415 6.415 0 0 0-5.976 3.971A6.422 6.422 0 0 0 180.17 341l25.72 25.72a6.427 6.427 0 0 0 4.54 1.881 6.415 6.415 0 0 0 4.54-1.881L263.66 318a6.417 6.417 0 0 0 .136-9.216 6.402 6.402 0 0 0-2.129-1.409 6.424 6.424 0 0 0-7.087 1.555L210.43 353l-21.19-21.19a6.372 6.372 0 0 0-4.53-1.81Z"/>
  <path fill="url(#B)" d="M416.19 207h379.89a29.483 29.483 0 0 1 20.846 8.634 29.483 29.483 0 0 1 8.634 20.846v264.78a29.494 29.494 0 0 1-8.637 20.853 29.494 29.494 0 0 1-20.853 8.637H416.19a29.48 29.48 0 0 1-29.48-29.48v-264.8A29.482 29.482 0 0 1 416.19 207Z"/>
  <path fill="url(#C)" d="M796.26 207H416a29.303 29.303 0 0 0-29.31 29.3v12.12h438.88v-12.13A29.308 29.308 0 0 0 796.26 207Z"/>
  <path fill="#fff" d="M796.39 218.77H641a8.932 8.932 0 0 0-8.631 8.925A8.927 8.927 0 0 0 641 236.62h155.39a8.923 8.923 0 0 0 6.507-2.506 8.923 8.923 0 0 0 0-12.838 8.923 8.923 0 0 0-6.507-2.506Zm-368.3 10.47a1.82 1.82 0 1 0 1.81 1.82 1.796 1.796 0 0 0-.527-1.286 1.802 1.802 0 0 0-1.283-.534Zm7.67 0a1.82 1.82 0 1 0 1.81 1.82 1.796 1.796 0 0 0-.527-1.286 1.802 1.802 0 0 0-1.283-.534Zm7.67 0a1.82 1.82 0 1 0 1.81 1.82 1.796 1.796 0 0 0-.527-1.286 1.802 1.802 0 0 0-1.283-.534Z"/>
  <path fill="#1A0A76" d="M796.44 231.72H643.18v1.55h153.26v-1.55Z"/>
  <path fill="#1A0A76" d="M806.91 520.69H427a30.29 30.29 0 0 1-30.26-30.26V225.65A30.29 30.29 0 0 1 427 195.39h379.9a30.29 30.29 0 0 1 30.26 30.26v264.78a30.291 30.291 0 0 1-30.25 30.26ZM427 196.94a28.737 28.737 0 0 0-28.71 28.71v264.78A28.737 28.737 0 0 0 427 519.14h379.9a28.73 28.73 0 0 0 28.7-28.71V225.65a28.73 28.73 0 0 0-28.7-28.71H427Z"/>
  <path fill="#1A0A76" d="m518.9 495.98-.14-4.13h-70.94l.14 4.13h70.94Zm1.63-87.15-.14-4.13h-70.94l.14 4.13h70.94Zm-1-86-.14-4.13h-70.94l.14 4.13h70.94Zm-15.6 160.72-.14-4.13h-56.92l.15 4.13h56.91Zm1.63-87.15-.14-4.13H448.5l.15 4.13h56.91Zm-1-86-.14-4.13H447.5l.15 4.13h56.91Zm93.12 185.58-.14-4.13h-70.93l.14 4.13h70.93Zm1.63-87.15-.14-4.13h-70.93l.14 4.13h70.93Zm-1-86-.14-4.13h-70.93l.14 4.13h70.93Zm-15.59 160.72-.15-4.13h-56.91l.14 4.13h56.92Zm1.63-87.15-.15-4.13h-56.91l.14 4.13h56.92Zm-1-86-.15-4.13h-56.91l.14 4.13h56.92ZM481.72 471.57l-.15-4.13h-33.54l.14 4.13h33.55Zm1.63-87.15-.15-4.13h-33.54l.14 4.13h33.55Zm-1-86-.15-4.13h-33.54l.14 4.13h33.55Zm36.05 160.71-.14-4.13h-70.94l.14 4.13h70.94Zm1.63-87.15-.14-4.13h-70.94l.14 4.13h70.94Zm-1-86-.14-4.13h-70.94l.14 4.13h70.94Z"/>
  <path fill="url(#D)" d="m503.43 446.7-.14-4.13h-56.92l.15 4.13h56.91Z"/>
  <path fill="url(#E)" d="m505.06 359.55-.14-4.13H448l.15 4.13h56.91Z"/>
  <path fill="url(#F)" d="m504.06 273.55-.14-4.13H447l.15 4.13h56.91Z"/>
  <path fill="#1A0A76" d="m495.35 471.57-.14-4.13h-10.18l.14 4.13h10.18Zm1.63-87.15-.14-4.13h-10.18l.14 4.13h10.18Zm-1-86-.14-4.13h-10.18l.14 4.13h10.18Zm64.52 173.15-.14-4.13h-33.55l.15 4.13h33.54Zm1.63-87.15-.14-4.13h-33.55l.15 4.13h33.54Zm-1-86-.14-4.13h-33.55l.15 4.13h33.54Z"/>
  <path fill="url(#G)" d="m597.18 459.13-.14-4.13h-70.93l.14 4.13h70.93Z"/>
  <path fill="url(#H)" d="m598.81 371.98-.14-4.13h-70.93l.14 4.13h70.93Z"/>
  <path fill="url(#I)" d="m597.81 285.98-.14-4.13h-70.93l.14 4.13h70.93Z"/>
  <path fill="#1A0A76" d="m582.22 446.7-.15-4.13h-56.91l.14 4.13h56.92Zm1.63-87.15-.15-4.13h-56.91l.14 4.13h56.92Zm-1-86-.15-4.13h-56.91l.14 4.13h56.92Zm-8.72 198.02-.14-4.13h-10.18l.14 4.13h10.18Zm1.63-87.15-.14-4.13h-10.18l.14 4.13h10.18Zm-1-86-.14-4.13h-10.18l.14 4.13h10.18Zm-93.54 136.3-.15-4.14h-33.54l.14 4.14h33.55Zm1.63-87.15-.15-4.14h-33.54l.14 4.14h33.55Zm-1-86-.15-4.14h-33.54l.14 4.14h33.55Z"/>
  <path fill="url(#J)" d="m517.9 422.28-.14-4.13h-70.94l.14 4.13h70.94Z"/>
  <path fill="url(#K)" d="m519.53 335.13-.14-4.13h-70.94l.14 4.13h70.94Z"/>
  <path fill="#1A0A76" d="m494.85 434.72-.14-4.14h-10.19l.15 4.14h10.18Zm1.63-87.15-.14-4.14h-10.19l.15 4.14h10.18Zm-1-86-.14-4.14h-10.19l.15 4.14h10.18ZM560 434.72l-.14-4.14h-33.55l.14 4.14H560Zm1.63-87.15-.14-4.14h-33.55l.14 4.14h33.55Zm-1-86-.14-4.14h-33.55l.14 4.14h33.55Zm36.05 160.71-.14-4.13h-70.93l.14 4.13h70.93Zm1.63-87.15-.14-4.13h-70.93l.14 4.13h70.93Zm-24.68 99.59-.14-4.14h-10.18l.14 4.14h10.18Zm1.63-87.15-.14-4.14h-10.18l.14 4.14h10.18Zm-1-86-.14-4.14h-10.18l.14 4.14h10.18Zm122.6 234.41-.15-4.13h-70.93l.14 4.13h70.94Zm1.63-87.15-.15-4.13h-70.93l.14 4.13h70.94Zm-1-86-.15-4.13h-70.93l.14 4.13h70.94Zm-15.6 160.72-.14-4.13h-56.92l.14 4.13h56.92Zm1.63-87.15-.14-4.13h-56.92l.14 4.13h56.92Zm-1-86-.14-4.13h-56.92l.14 4.13h56.92Zm93.12 185.58-.14-4.13h-70.94l.15 4.13h70.93Zm1.63-87.15-.14-4.13h-70.94l.15 4.13h70.93Zm-1-86-.14-4.13h-70.94l.15 4.13h70.93Z"/>
  <path fill="url(#L)" d="m760.67 483.55-.14-4.13h-56.91l.14 4.13h56.91Z"/>
  <path fill="url(#M)" d="m762.3 396.4-.14-4.13h-56.91l.14 4.13h56.91Z"/>
  <path fill="url(#N)" d="m761.3 310.4-.14-4.13h-56.91l.14 4.13h56.91Z"/>
  <path fill="#1A0A76" d="m659.67 471.57-.14-4.13h-33.55l.15 4.13h33.54Zm1.63-87.15-.14-4.13h-33.55l.15 4.13h33.54Zm-1-86-.14-4.13h-33.55l.15 4.13h33.54Zm36.06 160.71-.15-4.13h-70.93l.14 4.13h70.94Zm1.63-87.15-.15-4.13h-70.93l.14 4.13h70.94Zm-1-86-.15-4.13h-70.93l.14 4.13h70.94Zm-15.6 160.72-.14-4.13h-56.92l.14 4.13h56.92Zm1.63-87.15-.14-4.13h-56.92l.14 4.13h56.92Zm-1-86-.14-4.13h-56.92l.14 4.13h56.92Zm-8.71 198.02-.15-4.13h-10.18l.14 4.13h10.19Zm1.63-87.15-.15-4.13h-10.18l.14 4.13h10.19Zm-1-86-.15-4.13h-10.18l.14 4.13h10.19Zm64.52 173.15-.14-4.13h-33.55l.14 4.13h33.55Zm1.63-87.15-.14-4.13H706.4l.14 4.13h33.55Zm-1-86-.14-4.13H705.4l.14 4.13h33.55Zm36.05 160.71L775 455h-70.94l.15 4.13h70.93Zm1.63-87.15-.14-4.13h-70.94l.15 4.13h70.93Zm-1-86-.14-4.13h-70.94l.15 4.13h70.93Zm-15.6 160.72-.14-4.13h-56.91l.14 4.13h56.91Zm1.63-87.15-.14-4.13h-56.91l.14 4.13h56.91Zm-1-86-.14-4.13h-56.91l.14 4.13h56.91Zm-8.71 198.02-.14-4.13h-10.18l.14 4.13h10.18Zm1.63-87.15-.14-4.13H743.4l.14 4.13h10.18Zm-1-86-.14-4.13H742.4l.14 4.13h10.18Zm-93.55 136.3-.14-4.14h-33.55l.15 4.14h33.54Zm1.63-87.15-.14-4.14h-33.55l.15 4.14h33.54Zm-1-86-.14-4.14h-33.55l.15 4.14h33.54Zm36.06 160.71-.15-4.13h-70.93l.14 4.13h70.94Zm1.63-87.15-.15-4.13h-70.93l.14 4.13h70.94Zm-1-86-.15-4.13h-70.93l.14 4.13h70.94Zm-23.68 185.59-.15-4.14h-10.18l.15 4.14h10.18Zm1.63-87.15-.15-4.14h-10.18l.15 4.14h10.18Zm-1-86-.15-4.14h-10.18l.15 4.14h10.18Zm64.52 173.15-.14-4.14h-33.55l.14 4.14h33.55Zm1.63-87.15-.14-4.14H705.9l.14 4.14h33.55Zm-1-86-.14-4.14H704.9l.14 4.14h33.55Z"/>
  <path fill="url(#O)" d="m774.64 422.28-.14-4.13h-70.94l.15 4.13h70.93Z"/>
  <path fill="url(#P)" d="m776.27 335.13-.14-4.13h-70.94l.15 4.13h70.93Z"/>
  <path fill="url(#Q)" d="m775.27 249.13-.14-4.13h-70.94l.15 4.13h70.93Z"/>
  <path fill="#1A0A76" d="m751.59 434.72-.14-4.14h-10.18l.14 4.14h10.18Zm-323.5-88.03a.852.852 0 0 1-.85-.85v-44.2a.852.852 0 0 1 1.451-.601.852.852 0 0 1 .249.601v44.2a.852.852 0 0 1-.85.85Zm0-69.7a.852.852 0 0 1-.85-.85v-44.2a.852.852 0 0 1 1.451-.601.852.852 0 0 1 .249.601v44.2a.857.857 0 0 1-.245.607.853.853 0 0 1-.605.253v-.01Z"/>
  <path fill="url(#R)" d="M873.72 442.21c-20.43-30.3-43.13-14.66-48.92-6-52.64 78.32-121.14 104.26-129.73 139.18-6.4 26 4.25 96.37 113.16 97.31 113.66 1 140.2-79.91 114.23-131.61-25.97-51.7-28.29-68.55-48.74-98.88Z"/>
  <path fill="#E1CAC2" d="M864 498.44c-5-47.3-29.87-41.27-65.55-8.42-35.68 32.85-46.37 48.94-69.8 50.2-23.43 1.26-23.65 17.78-19.41 22.01 23.29 23.09 86.63 26.85 127.82 18.94 21.31-4.09 41.71-33.51 57.9-31.46.04 0-26.96-12.98-30.96-51.27Z"/>
  <path fill="#1A0A76" d="M819.62 670.17c-18.75 0-31.74-15.4-37.65-29.8-7.55-18.42-5.53-37.11 5.14-47.64 9.13-9 20.71-10.47 31.92-11.88 17.22-2.18 33.48-4.24 42.62-30.92 15.19-44.35-9-117.86-9.25-118.6l.94-.31c.25.74 24.54 74.56 9.25 119.23-9.34 27.27-26.67 29.46-43.44 31.58-11 1.4-22.45 2.84-31.34 11.61-10.38 10.24-12.31 28.56-4.92 46.56 5.79 14.11 18.47 29.18 36.73 29.18v.99Z"/>
  <path fill="#1A0A76" d="M728.51 651.88c-18.1-6.59-26-30.4-25.59-49.74.31-16.74 6.62-36.56 23.39-41.95 11.55-3.72 20.33-3.85 28.08-4 14-.21 26.13-.39 49.26-21 35.63-31.8 36-102 36-102.69h1c0 .71-.31 71.34-36.28 103.44-23.47 20.88-35.75 21.06-49.97 21.28-8 .12-16.38.25-27.79 3.92-16.27 5.23-22.39 24.62-22.7 41-.36 19 7.3 42.37 25 48.78l-.4.96Zm106.96 15.81a105.258 105.258 0 0 0 14.29-2.81 124.716 124.716 0 0 0 13.83-4.51 102.59 102.59 0 0 0 25.32-14.09 77.286 77.286 0 0 0 19.21-21.48 76.13 76.13 0 0 0 9.62-27.15c.17-1.19.4-2.38.52-3.58l.37-3.61c.15-2.41.32-4.83.31-7.25-.01-2.42-.07-4.83-.15-7.25-.08-2.42-.31-4.84-.63-7.24-.5-4.82-1.39-9.59-2.35-14.34-.96-4.75-2.22-9.43-3.62-14.08a248.716 248.716 0 0 0-10-27.33c-3.8-8.94-8-17.69-12.56-26.3 4.66 8.53 9.05 17.21 13 26.1a247.793 247.793 0 0 1 10.27 27.31 158.766 158.766 0 0 1 6.14 28.54c.33 2.42.46 4.85.66 7.29.2 2.44.24 4.87.17 7.31-.07 2.44-.15 4.88-.29 7.32l-.37 3.64c-.11 1.22-.34 2.42-.51 3.63a75 75 0 0 1-29.35 49.08 102.816 102.816 0 0 1-25.61 13.93 126.1 126.1 0 0 1-13.94 4.3 105.968 105.968 0 0 1-14.33 2.57Z"/>
  <path fill="url(#S)" d="M772.61 442.63c-7.6 1.24-26.44 13-38.23 51.29-1.43 4.64 15.41 12.43 23 4.77 20.39-20.57 28.95-58.29 15.23-56.06Z"/>
  <path fill="url(#T)" d="M736.6 490.78c-1 3.52-2 7.58 3.71 14.09s4.86 9.4 4.81 10.76c-.05 1.36 3.36.84 3.31-3.12v-3.27a23.568 23.568 0 0 0 3.67 2.73c1.39.68 3.06 4.22 5.83 3.85 2.77-.37 1.2-3.11 1.2-3.11s3.12 5 5.68 3.7c2.56-1.3-1.67-6.06-3.61-8.35s-.21-2-.21-2 2.47.86 4 1.44c1.53.58.42 9.12 4.3 7.35 1.58-.72 0-8.73 0-8.73s1.79-.46.52-3-6-2.57-7.83-3.51-4.67-.14-5.39-1.31c-.72-1.17 3-3.39 3-4.84-.01-4.66-20.71-11.09-22.99-2.68Z"/>
  <path fill="url(#U)" d="m684.58 529.34 100.2 22.76v-8.23l-100.2-22.06v7.53Z"/>
  <path fill="url(#V)" d="M799.2 559.21c-14.4 7.73-26.17 14.88-81.31 11.9-46.66-2.53-42.7-22.64-13.46-34.06 19.2-7.49 38.53-11.68 61.92-12.51 26.01-.92 61.49 19.3 32.85 34.67Z"/>
  <path fill="url(#W)" d="M817.16 534.43c4 .69 12.09.93 17.52 5.76 3.82 3.38 5.82 34-16.59 36.15-24.08 2.31-37.21-3.84-38.64-8.85-1.43-5.01.24-39.63 37.71-33.06Z"/>
  <path fill="url(#X)" d="M792.13 436.52c2.86-.37 14.84-2.56 21.92-.7 7.32 1.92 18.27 1.82 24.59 7.45s3.17 51.59 2 64.75c-1.12 12.2-5.1 33.8-5.1 33.8s-19.24-10.39-40.28-5.81c-18.88 4.11-23.79-4.87-34.19-11.21 0 0 1.93-8.38 5.74-14.63 3.81-6.25 2.28-12.37-2.29-26.89-4.57-14.52-1.89-36.08 5-39.8 10.21-5.6 11.73-5.54 22.61-6.96Z"/>
  <path fill="#fff" d="M766.55 490c3.1 1.18 6.14 2.55 9.33 3.51 4.66 1.41 9.67 1.64 14.51 1.82 9.05.34 17.53-.7 26.48-1.56a138.679 138.679 0 0 1 24.78.28c.21-3.49.4-7.28.55-11.18-2.7-.17-5.39-.51-8.18-.74-6.18-.5-12.47 0-18.66 0-12.94.11-26.19.79-39.1-.13a35.84 35.84 0 0 1-13-3.49c.307 1.604.704 3.19 1.19 4.75.83 2.49 1.55 4.74 2.1 6.74Z"/>
  <path fill="url(#Y)" d="M804.22 416.5s4.22 11.53 4.87 18.41c.6 6.28.16 31.47-16.79 28.13-19.2-3.8-3.15-45.51-3.15-45.51l15.07-1.03Z"/>
  <path fill="url(#Z)" d="M793.55 463.43s-1.72-8.61-5.27-10.77c-3.1-1.88-3.16-17-3.16-17-7.42.34-7.88 36.55 8.43 27.77Z"/>
  <path fill="url(#aa)" d="M795.27 463.43s2.86-8.61 8.77-10.77c5.15-1.88 4.68-20.91 4.68-20.91 12.35.36 13.67 40.46-13.45 31.68Z"/>
  <path fill="url(#ab)" d="M770.75 400.69a57.83 57.83 0 0 0 1.39 11.68c.83 3.28.64 14.18 2.7 17.69 2.06 3.51 5.11 8.4 15.28 4.66 10.17-3.74 13.88-9.49 15.49-17.72 1.61-8.23 1-16.62-.27-18.64-1.27-2.02-5.62-10.92-17.07-9.4-10.61 1.45-17.66 5.59-17.52 11.73Z"/>
  <path fill="#FF6C6C" d="M778.65 412.16a26.613 26.613 0 0 1-2.58 5.78 3.418 3.418 0 0 0 1.642.877 3.416 3.416 0 0 0 1.858-.117l-.92-6.54Z"/>
  <path fill="#060248" d="M791.43 406.34a.998.998 0 0 1-.52-.19 8.43 8.43 0 0 0-5.69-1.22.92.92 0 0 1-.707-.192.922.922 0 0 1-.349-.644.914.914 0 0 1 .226-.697.918.918 0 0 1 .66-.317 10.252 10.252 0 0 1 7 1.59.928.928 0 0 1 .31 1.071.932.932 0 0 1-.94.599h.01Zm-20.2.97a.878.878 0 0 1-.54-.22.924.924 0 0 1-.289-.993.922.922 0 0 1 .179-.317 5.487 5.487 0 0 1 4.93-2.22.927.927 0 0 1 .602.382.912.912 0 0 1 .148.698.917.917 0 0 1-.376.601.905.905 0 0 1-.694.149A3.783 3.783 0 0 0 772 407a.924.924 0 0 1-.77.31Zm6.29 17.11s2.18 3.2 5 3.61c1.5.22 6-3.12 6-3.76a3.342 3.342 0 0 0-.11-1.27c-2.52 1.13-6.91 1.36-9.27 1.41-1 .03-1.62.01-1.62.01Z"/>
  <path fill="#fff" d="M788.39 423c-2.14 1-6.73 1.3-9.18 1.4l1 1.87c5.95.15 8.27-1.68 8.29-2a3.342 3.342 0 0 0-.11-1.27Z"/>
  <path fill="#060248" d="M789.91 411.21a3.744 3.744 0 0 0-2.33-.39 3.997 3.997 0 0 0-.83.19 1.998 1.998 0 0 1-.47-1.2 2.145 2.145 0 0 1 2.906-2.129 2.136 2.136 0 0 1 1.326 1.567 2.144 2.144 0 0 1-.602 1.962Zm-14.37.21a3.675 3.675 0 0 0-2.33-.39 3.484 3.484 0 0 0-.83.19 2.089 2.089 0 0 1-.47-1.2 2.145 2.145 0 0 1 2.906-2.129 2.136 2.136 0 0 1 1.326 1.567 2.144 2.144 0 0 1-.602 1.962Z"/>
  <path fill="#1A0A76" d="M785.79 381.08c-19.59-3.86-18.91 9.9-17.53 13.89a42.425 42.425 0 0 1 1.68 9.47 36.122 36.122 0 0 1 1.73-8s7.15 3.43 13.06-.3c6.72-4.25 10.91-2 11.76 3.44 2.36 15.07 6.61 10.52 6.86 9.52s5.37-4.61 5.73 1.11c.29 4.51-5.13 8.07-3.78 11.14 9.75 3.15 5.65-10.62 8.46-18.07 2.81-7.45-1.19-5.54-4.17-17.07-2.98-11.53-14.19-3.21-23.8-5.13Z"/>
  <path fill="url(#ac)" d="M803.8 408.14c.65-1.07 4.71-3.61 5.67-.42.89 2.93.86 7.37-2.93 10.28-3.79 2.91-4.15-7.54-2.74-9.86Z"/>
  <path fill="#1A0A76" d="M747 536.66a.399.399 0 0 0 .245.379c.049.02.102.031.155.031h70a.817.817 0 0 0 .82-.81v-2H747v2.4Z"/>
  <path fill="#1A0A76" d="M809.06 533.48v.82h2.5v-1.09h-2.23a.269.269 0 0 0-.27.27Zm-2.9 0v.82h2.5v-1.09h-2.23a.269.269 0 0 0-.27.27Zm-2.9 0v.82h2.5v-1.09h-2.22a.272.272 0 0 0-.28.27Zm-12.08 0v.82h2.5v-1.09h-2.22a.272.272 0 0 0-.28.27Zm-2.9 0v.82h2.5v-1.09h-2.22a.283.283 0 0 0-.195.078.284.284 0 0 0-.085.192Zm-34.03 0v.82h2.5v-1.09h-2.23a.269.269 0 0 0-.27.27Zm-2.9 0v.82h2.5v-1.09h-2.23a.269.269 0 0 0-.27.27Zm42.82 0v.82h8.59v-1.09h-8.32a.269.269 0 0 0-.27.27Zm-52.23 0v.82h8.59v-1.09h-8.32a.269.269 0 0 0-.27.27Zm15.48 0v.82h29.84v-1.09h-29.57a.269.269 0 0 0-.27.27Z"/>
  <path fill="url(#ad)" d="M742.62 533.21h-6a.617.617 0 0 0-.438.182.617.617 0 0 0-.182.438v.47h6.94v-.82a.271.271 0 0 0-.32-.27Z"/>
  <path fill="url(#ae)" d="M734.26 533.21h-6.06a.617.617 0 0 0-.438.182.617.617 0 0 0-.182.438v.47h6.95v-.82a.269.269 0 0 0-.27-.27Z"/>
  <path fill="url(#af)" d="M725.89 533.21h-6.06a.617.617 0 0 0-.438.182.617.617 0 0 0-.182.438v.47h6.95v-.82a.269.269 0 0 0-.27-.27Z"/>
  <path fill="url(#ag)" d="M717.52 533.21h-6.06a.617.617 0 0 0-.438.182.617.617 0 0 0-.182.438v.47h6.95v-.82a.269.269 0 0 0-.27-.27Z"/>
  <path fill="url(#ah)" d="M707.67 533.21h-3.17a.617.617 0 0 0-.438.182.617.617 0 0 0-.182.438v.47h4.06v-.82a.269.269 0 0 0-.27-.27Z"/>
  <path fill="url(#ai)" d="M702.73 533.21h-3.17a.617.617 0 0 0-.435.182.602.602 0 0 0-.131.202.596.596 0 0 0-.044.236v.47h4v-.82a.265.265 0 0 0-.061-.175.266.266 0 0 0-.159-.095Z"/>
  <path fill="url(#aj)" d="M698.09 533.21h-3.17a.617.617 0 0 0-.438.182.617.617 0 0 0-.182.438v.47h4.06v-.82a.269.269 0 0 0-.27-.27Z"/>
  <path fill="#1A0A76" d="M751.05 481.88c-.55-2.22-1.43-3.78-3.71-3.78l14.13 58.65a3.198 3.198 0 0 0 2.06-3.88c-.53-2.5-9.53-39.01-12.48-50.99Z"/>
  <path fill="#332DA4" d="M747.34 478.1h-74.56a1.602 1.602 0 0 0-1.55 2L685 534.3h78.37l-13.8-54.49a2.261 2.261 0 0 0-2.23-1.71Z"/>
  <path fill="#332DA4" d="M685.24 536.66a.41.41 0 0 0 .41.41h76.93a.81.81 0 0 0 .81-.81v-2h-78.15v2.4Z"/>
  <path fill="url(#ak)" d="m806.81 527.57 18.97-.46v-7.53l-18.97 1.01v6.98Z"/>
  <path fill="#060248" d="M728.87 645.57s6.12 9.81 4.48 25.37c0 0-2.31 2.93-11.81 2.17-9.5-.76-30.08 2.74-41.86-4.06l.67-5.4s-.45-3.67 18.29-5.56c13.33-1.34 7.52-11.55 7.52-11.55l22.71-.97Z"/>
  <path fill="#fff" d="M722.11 667.87c-9.16-.43-28.17 3.42-41.76-4.22l-.67 5.4c11.78 6.8 32.36 3.3 41.86 4.06 9.5.76 11.81-2.17 11.81-2.17.193-1.82.287-3.65.28-5.48-1.02.76-4.18 2.75-11.52 2.41Z"/>
  <path fill="url(#al)" d="M682.72 555.06c-2.17 7 18.23 92.62 18 99.18 0 0 17.15 2.84 31.92-3.36 0 0-13.24-81.16-18.54-88.29-4.81-6.53-26.58-23.01-31.38-7.53Z"/>
  <path fill="#fff" d="M712.18 564.28s7.17 72.26 8.89 86.85l1.5-.25c-1.7-14.49-8.68-75.06-10.39-86.6Z"/>
  <path fill="#060248" d="M765.33 651.29s-.78 7-1.84 12-6 5.44-6.58 9c-.63 4.1.71 5.48.71 5.48s7.33 3 19.73.78c7.22-1.3 3.75-5 9.06-8.19 5.31-3.19-2.69-11.61.63-18.4-.04.04-17.4-7.84-21.71-.67Z"/>
  <path fill="#fff" d="M787.15 667.08c-5.43 3-1.88 5.38-9.28 6.61-12.71 2.12-20.23-.74-20.23-.74s-.41-.08-.68-.79c0 .05 0 .09-.05.14-.63 4.1.71 5.48.71 5.48s7.33 3 19.73.78c7.22-1.3 3.75-5 9.06-8.19 1.62-1 2-2.42 1.83-4.17a3.773 3.773 0 0 1-1.09.88Z"/>
  <path fill="url(#am)" d="M821.19 556.11s-11.88-5.36-16.69-9.18c-4.81-3.82-25-5.73-25.49 17.89-.49 23.62-13.4 67.69-16.09 88.06 0 0 4.38-.57 14 1.55 9.62 2.12 10.61 4.39 10.61 4.39s23.76-52.91 23.76-74.55 9.9-28.16 9.9-28.16Z"/>
  <path fill="#fff" d="M809.5 577c-2.13 9.46-6.76 29.21-10.16 37.82-4.57 11.55-14.24 40.6-14.34 40.9l1.45.47c.09-.29 9.75-29.3 14.3-40.82 3.39-8.58 10.91-39.23 13.08-48.89-.5-.23-3.92 10.78-4.33 10.52Z"/>
  <path fill="url(#an)" d="M854.57 517.5c-6.29 5.93-22.71 8.82-49.83 7.36-27.12-1.46-29.6 3.8-41.87-2.76a4.725 4.725 0 0 1 1.66-5.19s-1.72-3.41 1.73-5c3.45-1.59-1.58-3.42 6.83-6.69 8.41-3.27 9.51 5.61 20.07 4.55 10.56-1.06 39.89-8.25 45.66-8.43 5.77-.18 21.3 10.94 15.75 16.16Z"/>
  <path fill="url(#ao)" d="M832.54 439.89c8.1.7 16.85 7.27 22.06 31.05 2.59 11.83 8.59 47.91-2.64 52.45-10.41 4.23-19.29 6.15-24.26 1.56-6-5.5-6.86-18.44-5.64-21.89.92-2.6 11.65-1.34 10.73-3.94a104.155 104.155 0 0 1-4.29-18.29s-9.93-42.15 4.04-40.94Z"/>
  <path fill="url(#ap)" d="m290.87 604.85 7.64-16.27-9.84-5.7a45.234 45.234 0 0 0 .72-15.75l10.33-4.77-6.09-16.89-11 2.93A45.366 45.366 0 0 0 272 536.74l4-10.68-16.27-7.64-5.73 9.84a45.477 45.477 0 0 0-15.75-.72l-4.77-10.33-16.89 6.1 2.93 11a45.224 45.224 0 0 0-11.66 10.62l-10.7-3.93-7.64 16.27 9.84 5.7a45.479 45.479 0 0 0-.73 15.75l-10.33 4.77 6.1 16.89 11-2.92A45.545 45.545 0 0 0 216 609.1l-3.93 10.68 16.27 7.64 5.71-9.84a45.202 45.202 0 0 0 15.74.72l4.77 10.33 16.89-6.09-2.92-11a45.66 45.66 0 0 0 11.65-10.61l10.69 3.92Zm-60.64-2.57a32.444 32.444 0 0 1-12.33-48.618 32.437 32.437 0 0 1 33.908-12.238 32.438 32.438 0 0 1 3.215 62.002 32.44 32.44 0 0 1-24.793-1.146Z"/>
  <path fill="#1A0A76" d="m196.01 561.48-7.01-4.06 5.76-12.27.72.34-5.45 11.61 6.38 3.69-.4.69Zm16.44 58.44-.74-.28 3.82-10.39a37.35 37.35 0 0 1-8.38-8.57l.66-.44a36.308 36.308 0 0 0 8.42 8.53l.26.18-4.04 10.97Zm45.78-17.4-.36-.71c22.73-11.54 17.63-34.85 17.58-35.08l.77-.18c.06.24 5.31 24.14-17.99 35.97Zm31.15-26.61a73.095 73.095 0 0 0-.38-8.74v-.28l3.8-1.75.33.72-3.27 1.51c.28 2.841.4 5.695.36 8.55l-.84-.01Z"/>
  <path fill="#1A0A76" d="m233.33 627.33-16.94-8 4-10.74a43.677 43.677 0 0 1-10.39-11.3l-11.06 3-6.34-17.58 10.39-4.8a45.655 45.655 0 0 1 .71-15.33l-9.91-5.74 7.95-16.94 10.75 4c1-1.31 6.16-7.65 11.34-10.36l-2.94-11 17.58-6.34 4.79 10.37a37.318 37.318 0 0 1 15.34.73l5.74-9.91 16.93 8-3.94 10.61c1.24.95 7 5.53 10.34 11.34l11.05-2.94 6.35 17.58-10.39 4.79a40.01 40.01 0 0 1-.71 15.34l9.9 5.74-7.95 16.93-10.74-4a40.587 40.587 0 0 1-11.35 10.34l2.94 11.06-17.57 6.34-4.8-10.38a35.17 35.17 0 0 1-15.34-.71l-5.73 9.9Zm-16-8.35 15.67 7.33 5.68-9.79.29.08a33.785 33.785 0 0 0 15.56.72l.31-.08 4.76 10.3 16.22-5.85-2.91-10.94.25-.15a39.55 39.55 0 0 0 11.54-10.5l.17-.26 10.64 3.91 7.33-15.62-9.79-5.68.07-.29a38.445 38.445 0 0 0 .72-15.58l-.06-.3 10.29-4.75-5.85-16.22-11 2.91-.15-.27c-3.57-6.48-10.43-11.48-10.5-11.53l-.25-.17 3.91-10.63-15.62-7.34-5.61 9.79-.29-.07a36.124 36.124 0 0 0-15.57-.72l-.31.07-4.75-10.3-16.23 5.86 2.92 11-.28.14c-5.6 2.78-11.47 10.43-11.53 10.51l-.17.23-10.62-3.91-7.34 15.63 9.79 5.67-.07.29a44.289 44.289 0 0 0-.72 15.6l.05.29-10.28 4.75 5.85 16.22 10.95-2.91.15.26c3.76 6.59 10.44 11.49 10.51 11.54l.24.18-3.97 10.58Z"/>
  <path fill="#1A0A76" d="M244.17 604.82a32.849 32.849 0 0 1-15-58.82 32.851 32.851 0 0 1 52.19 31 32.892 32.892 0 0 1-37.19 27.82Zm9.22-64.27a32.069 32.069 0 0 0-15.215 61.991 32.065 32.065 0 0 0 42.405-25.691 32.11 32.11 0 0 0-27.19-36.3Zm683.67-221.02-1.61-7.34a3.35 3.35 0 0 0-3.32-2.63h-43.36a3.998 3.998 0 0 0-3.9 3.64l-.62 9-.36 5-4.28 61.28a3.346 3.346 0 0 0 3.39 3.64h100.88a4.002 4.002 0 0 0 3.9-3.64l4.38-62.69a3.34 3.34 0 0 0-.886-2.573 3.334 3.334 0 0 0-2.504-1.067h-48.4a3.333 3.333 0 0 1-3.31-2.62Z"/>
  <path fill="url(#aq)" d="m972.302 280.742-81.8.1.122 99.43 81.8-.1-.122-99.43Z"/>
  <path fill="#1A0A76" d="m936.196 300.086-33.59.041.003 2.54 33.59-.041-.003-2.54Zm-16.825 7.391-16.8.018.003 2.54 16.8-.018-.003-2.54Zm21.664-.177-16.8.021.003 2.54 16.8-.021-.003-2.54Zm21.83-.007-16.8.021.003 2.54 16.8-.021-.003-2.54Zm-.061-7.091-23.39.024.002 2.54 23.39-.024-.002-2.54Zm.069 14.081-33.59.041.004 2.54 33.589-.041-.003-2.54Zm-36.85.035-23.39.029.004 2.54 23.39-.029-.004-2.54Zm10.209 6.928-33.59.041.003 2.54 33.59-.041-.003-2.54Zm-16.781 7.27-16.8.021.003 2.54 16.8-.021-.003-2.54Zm21.61-.056-16.8.021.003 2.54 16.8-.021-.003-2.54Zm21.83.003-16.8.021.003 2.54 16.8-.021-.003-2.54Zm-.009-7.25-23.39.029.003 2.54 23.39-.029-.003-2.54Zm.007 14.23-33.59.041.003 2.54 33.59-.041-.003-2.54Zm-36.85.045-23.39.029.003 2.54 23.39-.029-.003-2.54Z"/>
  <path fill="url(#ar)" d="m915.8 319.93-3.55-7.33a4.643 4.643 0 0 0-4-2.63h-43.37a2.906 2.906 0 0 0-2.388 1.079 2.908 2.908 0 0 0-.552 2.561l1.74 8.95 1 5.05 11.92 61.28a4.637 4.637 0 0 0 4.35 3.65h100.86a2.923 2.923 0 0 0 2.38-1.09 2.915 2.915 0 0 0 .55-2.56l-12.18-62.68a4.642 4.642 0 0 0-4.35-3.65h-48.4a4.614 4.614 0 0 1-4.01-2.63Z"/>
  <path fill="#1A0A76" d="M919.4 396.29h-40.17a5.62 5.62 0 0 1-5.26-4.4l-10.06-51.78.84-.16 10.06 51.78a4.715 4.715 0 0 0 4.42 3.7h40.17v.86Zm56.57-75.41h-.86V277.5l-39.23.04v-.85l40.09-.05v44.24Zm19.11 34.67-.85-.05 2.25-33.75a2.99 2.99 0 0 0-.816-2.232 3 3 0 0 0-2.184-.938h-11.32v-.86h11.36a3.772 3.772 0 0 1 2.79 1.22 3.794 3.794 0 0 1 1 2.86l-2.23 33.75Z"/>
  <path fill="url(#as)" d="M485.7 135.25H345.44c-6.014 0-10.89 4.876-10.89 10.89v97.76c0 6.014 4.876 10.89 10.89 10.89H485.7c6.014 0 10.89-4.876 10.89-10.89v-97.76c0-6.014-4.876-10.89-10.89-10.89Z"/>
  <path fill="url(#at)" d="M485.77 135.25h-140.4a10.82 10.82 0 0 0-7.654 3.166 10.8 10.8 0 0 0-3.166 7.654v4.47h162v-4.47a10.81 10.81 0 0 0-10.78-10.82Z"/>
  <path fill="#fff" d="M349.83 143.46a.683.683 0 0 0-.636.415.677.677 0 0 0 .145.746.686.686 0 0 0 .746.145.675.675 0 0 0 .415-.636.673.673 0 0 0-.67-.67Zm2.83 0a.677.677 0 0 0-.677.81.686.686 0 0 0 .186.351.686.686 0 0 0 .746.145.675.675 0 0 0 .415-.636.673.673 0 0 0-.67-.67Zm2.83 0a.683.683 0 0 0-.636.415.677.677 0 0 0 .145.746.686.686 0 0 0 .746.145.675.675 0 0 0 .415-.636.673.673 0 0 0-.67-.67Z"/>
  <path fill="#1A0A76" d="M489.7 251.08H349.43a11.177 11.177 0 0 1-7.895-3.275 11.177 11.177 0 0 1-3.275-7.895v-97.77A11.187 11.187 0 0 1 349.43 131H489.7a11.187 11.187 0 0 1 11.17 11.18v97.77a11.18 11.18 0 0 1-11.17 11.13ZM349.43 131.54a10.608 10.608 0 0 0-10.6 10.6v97.77a10.615 10.615 0 0 0 3.111 7.489 10.615 10.615 0 0 0 7.489 3.111H489.7a10.608 10.608 0 0 0 10.6-10.6v-97.77a10.608 10.608 0 0 0-10.6-10.6H349.43Z"/>
  <path fill="#1A0A76" d="M479.93 166.32h-34.65v.38h34.65v-.38Zm0 24.32h-34.65v.38h34.65v-.38Zm0 24.31h-34.65v.38h34.65v-.38Zm0 24.32h-34.65v.38h34.65v-.38Z"/>
  <path fill="url(#au)" d="M363.4 157.09h52.25a3.9 3.9 0 0 1 1.496.298 3.896 3.896 0 0 1 2.116 2.116 3.9 3.9 0 0 1 .298 1.496v52.25a3.9 3.9 0 0 1-.298 1.496 3.896 3.896 0 0 1-2.116 2.116 3.9 3.9 0 0 1-1.496.298H363.4a3.91 3.91 0 0 1-3.91-3.91V161a3.921 3.921 0 0 1 3.91-3.91Z"/>
  <path fill="url(#av)" d="m364.59 213.05 17.58-34.88 10.48 22.03 7.36-11.65 14.38 24.36-49.8.14Z"/>
  <path fill="#fff" d="M397.31 174.11a3.89 3.89 0 1 1-7.78-.081 3.89 3.89 0 0 1 7.78.081Z"/>
  <path fill="#1A0A76" d="M413.18 216h-52.25a4.3 4.3 0 0 1-3.048-1.262 4.33 4.33 0 0 1-1.262-3.048v-52.25a4.326 4.326 0 0 1 1.265-3.045 4.326 4.326 0 0 1 3.045-1.265h52.25a4.326 4.326 0 0 1 3.045 1.265 4.326 4.326 0 0 1 1.265 3.045v52.25a4.326 4.326 0 0 1-1.265 3.045A4.326 4.326 0 0 1 413.18 216Zm-52.25-60.08a3.528 3.528 0 0 0-3.52 3.52v52.25a3.528 3.528 0 0 0 3.52 3.52h52.25a3.528 3.528 0 0 0 3.52-3.52v-52.25a3.528 3.528 0 0 0-3.52-3.52h-52.25Zm26.93 81.35h-29.93v1.91h29.93v-1.91Zm33.27-5.75h-63.2v1.91h63.2v-1.91Zm-13.4-5.75h-49.8v1.91h49.8v-1.91Zm-7.51 11.5h-7.87v1.91h7.87v-1.91Z"/>
  <path fill="url(#aw)" d="M836.51 165.16h-11.09v1.61a40.286 40.286 0 0 0-7.57 3.07c.2-2 .3-4.033.3-6.1 0-33.08-25.85-59.89-57.72-59.89h-11.09V105c-18.79 3.8-34.32 17.05-41.81 34.8a38.52 38.52 0 0 0-26.24-10.41h-11.08V131c-16.42 5-28.43 20.7-28.43 39.35.013 1.877.153 3.752.42 5.61a35.273 35.273 0 0 0-10-1.47h-11.09v1.78c-14.78 4.87-25.49 19.21-25.49 36.16 0 19.69 14.46 35.87 33 37.75v.19h207.89c22.67 0 41.06-19.08 41.06-42.61s-18.39-42.6-41.06-42.6Z"/>
  <path fill="url(#ax)" d="M825.42 165.16a39.706 39.706 0 0 0-18.66 4.68c.2-2 .3-4.033.3-6.1 0-33.08-25.84-59.89-57.72-59.89-23.66 0-44 14.77-52.89 35.91a38.537 38.537 0 0 0-26.24-10.41c-21.82 0-39.51 18.36-39.51 41a43.33 43.33 0 0 0 .41 5.61 35.237 35.237 0 0 0-10-1.47c-20.2 0-36.57 17-36.57 37.94 0 19.69 13.68 37.94 32.23 37.94h208.65c22.68 0 41.07-19.08 41.07-42.61s-18.39-42.6-41.07-42.6Z"/>
  <path fill="#1A0A76" d="M825.42 251.1H788a.729.729 0 1 1 0-1.46h37.43c22.24 0 40.33-18.79 40.33-41.88 0-23.09-18.09-41.87-40.33-41.87a38.713 38.713 0 0 0-18.31 4.6.748.748 0 0 1-.75 0 .703.703 0 0 1-.257-.294.703.703 0 0 1-.063-.386c.19-2 .29-4 .29-6 0-32.62-25.57-59.16-57-59.16-22.63 0-43.13 13.92-52.22 35.46a.708.708 0 0 1-.52.43.732.732 0 0 1-.65-.17 37.873 37.873 0 0 0-25.74-10.22c-21.38 0-38.78 18.07-38.78 40.27.012 1.844.149 3.685.41 5.51a.733.733 0 0 1-.25.659.716.716 0 0 1-.327.159.722.722 0 0 1-.363-.018 34.557 34.557 0 0 0-28.43 4 .73.73 0 0 1-.814-.022.747.747 0 0 1-.298-.475.725.725 0 0 1 .124-.547.747.747 0 0 1 .208-.196 36.001 36.001 0 0 1 28.56-4.49 41.06 41.06 0 0 1-.29-4.61c0-23 18.06-41.73 40.25-41.73a39.292 39.292 0 0 1 26 9.91c9.51-21.55 30.27-35.41 53.16-35.41 32.23 0 58.45 27.19 58.45 60.62 0 1.61-.06 3.23-.18 4.85a39.92 39.92 0 0 1 17.81-4.17c23.05 0 41.8 19.45 41.8 43.34 0 23.89-18.78 43.3-41.83 43.3Zm-66 0H698.2a.729.729 0 1 1 0-1.46h61.22a.729.729 0 1 1 0 1.46Zm-89.79 0H621.9a.729.729 0 1 1 0-1.46h47.73a.729.729 0 1 1 0 1.46Z"/>
  <path fill="#1A0A76" d="M815.22 145.68a.808.808 0 0 1-.77-.55c-5.85-17.76-17-26.3-17.14-26.39a.816.816 0 0 1 1-1.29c.47.36 11.7 8.94 17.71 27.17a.81.81 0 0 1-.51 1 .78.78 0 0 1-.29.06Zm59.31 79a.688.688 0 0 1-.28-.05.808.808 0 0 1-.48-1c.06-.16 6.15-16.89-.38-32.58a41.001 41.001 0 0 0-20.24-21.32.81.81 0 0 1 .6-1.5 41.932 41.932 0 0 1 21.14 22.2c6.78 16.29.66 33.06.4 33.77a.808.808 0 0 1-.76.48Zm-509.31 63.78c-6.87-5.24-33.37-14.65-40.72 8.58-7.35 23.23-3.63 48.83-3.63 48.83s28.13 5.69 52.13-3.15c0 0-1.81-23-.68-34.38 1.13-11.38-2.19-16.13-7.1-19.88Z"/>
  <path fill="url(#ay)" d="M368.64 644.8c.38-2.44 4.19-26.09 4.19-26.09l1.29-45.86-2.64-13.85 2-3.52 24.45-7.05s4 8.15 1.54 21.58c-2.33 12.89-11.79 53-11.81 53-.02 0-.43 16.8.34 25.57s-3.73 18.24-11.59 13c-7.86-5.24-8.15-14.34-7.77-16.78Z"/>
  <path fill="#FF6C6C" d="m371.16 626.15 3-53.3-1.59-8.37h1.4l4.54 11.25s-8.26 59.55-5 71.23c1.14 4-.73 6.19-3.65 7.21a13.57 13.57 0 0 1-1.19-9.37c.33-2.44 2.49-18.65 2.49-18.65Z"/>
  <path fill="url(#az)" d="M400 554.72c-2.91-39.77-7.85-83.15-9.67-86-18-28.5-53.72-10.4-40.4 32.22 3.27 10.47 21.34 62.22 22.9 73.74a21.53 21.53 0 0 1 0 6.53 358.085 358.085 0 0 0-2.09 44.63s5.69 6.67 17.38 3.64c0 0 10.31-44 12.11-50.9 1.8-6.9 2.21-7.28-.23-23.86Z"/>
  <path fill="#060248" d="M395.19 637.79s-3.93 9.42-2.47 15.21c1.46 5.79 11.93 5 12.73 9.11.93 4.7-.56 6.35-.56 6.35s-8.3 3.83-22.71 1.82c-8.37-1.17-9.28-4.71-15.54-8.08-5.62-3 .91-11.49-.69-18.75a.84.84 0 0 1 1.29-.89l6.24 4.4s1.29-6.29 4.55-8.39c5.74-3.7 15.17-3.81 17.16-.78Z"/>
  <path fill="#332DA4" d="M365.62 658.45c6.41 3.15 7.16 5.16 15.74 6.23 14.75 1.86 23.28-1.79 23.28-1.79s.48-.11.75-.94a.936.936 0 0 1 .06.16c.93 4.7-.56 6.35-.56 6.35s-8.3 3.83-22.71 1.82c-8.37-1.17-9.28-4.71-15.54-8.08-1.91-1-2.41-2.69-2.31-4.72.369.397.806.725 1.29.97Zm12.85-82.72c-3.51-15.93-22.11-55.46-22.11-55.46 6.51 19.47 15.4 46.44 16.47 54.36a21.53 21.53 0 0 1 0 6.53 358.085 358.085 0 0 0-2.09 44.63 13.141 13.141 0 0 0 4.5 3c-.39-30.3 6.76-37.13 3.23-53.06Z"/>
  <path fill="url(#aA)" d="M336.63 621.2s4.54 16.83 2.94 25.44c-1.6 8.61-.71 17.72 7.56 13.24 8.27-4.48 10.87-13.88 10.7-16.31-.17-2.43-.55-25.18-.55-25.18s-21.28-1.47-20.65 2.81Z"/>
  <path fill="url(#aB)" d="M311.14 474c-2.07 6.91 26.45 153 26.45 153 1.25 4.54 20.27 3.23 20.25 1.1 0 0-1.19-54.34-1.84-60.92-.65-6.58.43-64.58 0-76.35-.89-24.68-35.23-48.91-44.86-16.83Z"/>
  <path fill="#060248" d="M329.2 637.41s4.27 9.2 3.06 15c-1.21 5.8-6.92 6.24-7.55 10.31-.72 4.71.81 6.28.81 6.28s8.41 3.48 22.63.9c8.28-1.5 4.3-5.79 10.39-9.39 6.09-3.6-3.09-13.31.73-21.11l-8.14 6.23s-1.53-6.18-4.86-8.14c-5.84-3.44-15.22-3.16-17.07-.08Z"/>
  <path fill="#332DA4" d="M359.39 656.74c-6.23 3.4-2.16 6.17-10.64 7.58-14.58 2.43-23.2-.85-23.2-.85s-.48-.09-.78-.9c0 .06 0 .1-.06.16-.73 4.71.81 6.28.81 6.28s8.41 3.48 22.63.9c8.28-1.5 4.3-5.79 10.39-9.39 1.85-1.1 2.28-2.77 2.1-4.79-.352.41-.776.752-1.25 1.01ZM356 519.24l-7-21.69s.38 53.65 1 72.45c.62 18.8 7.81 58.06 7.81 58.06s-1.19-54.34-1.84-60.92c-.36-4.03-.11-27.64.03-47.9Z"/>
  <path fill="url(#aC)" d="M382.23 356.33c7.5 11.39 14 32 23.89 45.2 9.89 13.2 2.31 38.85-12 27.3s-26.42-40.39-29.47-47c-6.02-12.89 6.03-43.02 17.58-25.5Z"/>
  <path fill="url(#aD)" d="m410.21 411.49-.67-.19c-9.19-2.11-10.53 3.85-14.41 1.13-3.88-2.72-14.08-35.17-14.08-35.17l-15.15-10.14-4.79 6.16s5.06 11.44 6.86 16c5.24 11.32 15 30.64 26.11 39.59 11.11 8.95 18.27-4.68 16.13-17.38Z"/>
  <path fill="url(#aE)" d="M458.93 407.58a11.507 11.507 0 0 0-3.58-2.17c-1.9-.81-5.06.52-6.91 1.69-5.4 3.4-5.72 5.82-10.58 6.42-3 .35-21.4-1.89-30.72-.88-12 1.3-15 15.38-7.61 18.3 12 4.73 36.48-4.72 42.29-3.53 5.06 1 12.31-.6 16.05-2.48 4.34-2.51 3.17-2.54 3.05-4.37-1.68-.18.37-4.29.37-4.29-.9-2.77-9.5-4-9.5-4a5.66 5.66 0 0 0 2.45-2.44c1.66-.58 2.37.83 3.81.4a1.7 1.7 0 0 0 .88-2.65Z"/>
  <path fill="#FF6C6C" d="M435.68 427.07c-25.32.83-32.63 6.45-33.74-4.49-.88-8.7 8.54-10.19 8.54-10.2-1.26.07-2.39.16-3.34.26-12 1.3-15 15.38-7.61 18.3 10.33 4.09 30-2.42 40.38-3.62l-4.23-.25Z"/>
  <path fill="url(#aF)" d="M391.534 469.939c-12.81 13.29-43-6.83-82.34 6.2-4.64-28.56 5.81-35.71 4.75-61.16a369.61 369.61 0 0 1 1.3-47.41 16.528 16.528 0 0 1 2.47-6.868 16.532 16.532 0 0 1 5.19-5.132c3.77-2.23 12.69-7.06 27.9-8.4 6.59-.59 22.22.18 28.23 5.22 5.43 4.54 11.64 103.97 12.5 117.55Z"/>
  <path fill="url(#aG)" d="M347 382.19s12.36 10.74 17.55 12.33c5.19 1.59-5.86 10.13-6.13 9.64-.27-.49-13.25-4-13.25-4l-1.46-7 3.29-10.97Z"/>
  <path fill="url(#aH)" d="M383.13 391c-1.57 3.8-7.52 24.13-7.79 24.67-4.94 11.21-4.7 11.83-11.16 17.52l-.75.62a8.785 8.785 0 0 1-.71.52l-.09.06c-.24.16-.48.31-.72.44-1.84 1-9.72-.27-12.22-1.75-7-4.15-13.07-10.27-18.12-16.15A62.996 62.996 0 0 1 318 390.28c-1.45-6.25-3.34-10.81-3-15.78 4.57-9.23 11.51-14.86 18.18-7.38 9.08 10.18 12.68 25.66 24.38 37.27a20.178 20.178 0 0 1 2.44 2.93c6.64-8.4 14.75-17.93 16-19.51 2.29-2.82 5.78-6.14 8.54-7.48.55 4.31-1.87 5.91-1.41 10.67Z"/>
  <path fill="url(#aI)" d="M333.76 362c9.08 10.18 12.71 22.9 24.4 34.51 11.69 11.61 7.94 38.11-7.94 28.77s-32-36.13-36-42.19c-7.78-11.89 5.57-36.71 19.54-21.09Z"/>
  <path fill="url(#aJ)" d="M362.44 427.06c11.22-6.28 24.91-42.86 27.1-47.92.88-2.05 3.89.21 6.54-1-.74-3.74-7.68-5.95-7.68-5.95-2.4-1.65-8.4 3.61-11.77 7.81-1.89 2.32-18.45 21.76-23.56 29.63-6.58 10.08 2.42 21.31 9.37 17.43Z"/>
  <path fill="#FF6C6C" d="M384.54 391.66c-5.75 11.33-14 30.84-22.1 35.39-6.95 3.89-15.95-7.34-9.37-17.46.66-1 1.52-2.24 2.52-3.58 0 0-3.75 8.51 2.17 13.66s26.78-28 26.78-28v-.01Z"/>
  <path fill="url(#aK)" d="M389 371.89c6.3-.16 12.15 4 16.2 8.63 1.57 1.81 5.2 6.12 5.14 8.38 0 1.92-2.2 2.26-3.36.37-1.32-2.16-4.7-5.93-6.79-7 2.81 2.8-1.44 5.33-3.77 4.29.46 1.4-2.36 2.38-4.77.65.85 1.09-2.83 3-6.51-.77-2.67-2.44-3.44-3.44-4-5.72a7.666 7.666 0 0 1 2.46-7c.09-.41 1.27-1.09 1.47-1.16a5.062 5.062 0 0 1 3.93-.67Z"/>
  <path fill="url(#aL)" d="M348.24 354c10.18-.87 12-6.44 12-6.44-5.48-7.12-.19-21.11-.19-21.11l-18.68-.78a48.842 48.842 0 0 1-2.93 24.08c1.16 3.92 9.8 4.25 9.8 4.25Z"/>
  <path fill="#FF6C6C" d="M358.44 344a21.996 21.996 0 0 1-15.37-13.57s.6-.21 1.38-.45l13.61 4.22a23.002 23.002 0 0 0 .38 9.8Z"/>
  <path fill="#1A0A76" d="m411.65 413.59-37.1 9.21 37.63 3.42-.53-12.63Z"/>
  <path fill="#332DA4" d="m374.55 422.8.46 3.59 38.02 4.34-.85-4.51-37.63-3.42Z"/>
  <path fill="#1A0A76" d="m481.79 408.92-69.61 17.3.85 4.51 69.49-17.79-.73-4.02Z"/>
  <path fill="#332DA4" d="m481.79 408.92-69.61 17.3-1.81-43.13a3.118 3.118 0 0 1 2.36-3.19l63.46-15.77A3.122 3.122 0 0 1 480 367l1.79 41.92Z"/>
  <path fill="url(#aM)" d="M447.09 429c.38-.198.72-.466 1-.79a3.005 3.005 0 0 0 3.24-.69c.07-.07.13-.16.2-.24a2.874 2.874 0 0 0 3.176 1.243 2.88 2.88 0 0 0 1.074-.553 3.64 3.64 0 0 0 1-.94 1.64 1.64 0 0 0 .55-.36c.137.07.281.123.43.16 7.1 1 5.37-10.62.83-12.76a1.922 1.922 0 0 0-1.92.37 5.001 5.001 0 0 0-1.2 2.27 9.515 9.515 0 0 0-.5-1 1.997 1.997 0 0 0-1.88-.66c-1.71.22-2.69 1.8-3.1 3.8a2.883 2.883 0 0 0-1.88-1.75c-2.53-.67-3.39.95-3.43 3.09a1.924 1.924 0 0 0-1.84.36c-2.64 2.28.45 10.37 4.25 8.45Z"/>
  <path fill="url(#aN)" d="M357.58 298.22c11.75 2.46 15.16 7.69 13.69 19.56-1.83 14.85-6.08 26-20.15 19.82-19.12-8.41-13.05-43.45 6.46-39.38Z"/>
  <path fill="#FF6C6C" d="M361.14 318a24.575 24.575 0 0 0 2.34 5.37 3.168 3.168 0 0 1-3.25.68l.91-6.05Z"/>
  <path fill="#1A0A76" d="M352.75 310.49a.453.453 0 0 1-.34-.14.484.484 0 0 1-.109-.54.484.484 0 0 1 .109-.16c2.15-2.15 5.49-1.4 5.64-1.36a.491.491 0 0 1 .36.59.485.485 0 0 1-.397.379.483.483 0 0 1-.193-.009s-2.95-.66-4.71 1.1a.464.464 0 0 1-.36.14Zm18.07.51a.446.446 0 0 1-.31-.11 4.878 4.878 0 0 0-4.05-1.31.517.517 0 0 1-.567-.765.514.514 0 0 1 .317-.235 5.855 5.855 0 0 1 4.93 1.51.498.498 0 0 1 .178.33.492.492 0 0 1-.108.36.496.496 0 0 1-.39.22Z"/>
  <path fill="url(#aO)" d="M343.4 320.21c.47-2.35-.51-6.62-4-6.72-3.49-.1-7.54 8.87.79 12.55 1.14.53 2.22-.92 3.21-5.83Z"/>
  <path fill="#1A0A76" d="m358.09 299.28-15.38 20.18c.19-19.08 5.82-27.47 5.82-27.47s19-8.77 26.32 3.34-.47 24.6-.47 24.6.16-16.33-16.29-20.65Z"/>
  <path fill="#1A0A76" d="M356.68 313.87c0 .9-.55 1.61-1.15 1.58-.6-.03-1.06-.77-1-1.67.06-.9.55-1.6 1.15-1.58.6.02 1.03.8 1 1.67Z"/>
  <path fill="#1A0A76" d="m355.41 312.23 2-.69s-1.06 1.61-2 .69Zm12.45 1.9c0 .9-.55 1.61-1.15 1.59-.6-.02-1-.78-1-1.68 0-.9.56-1.6 1.15-1.58.59.02 1.04.77 1 1.67Z"/>
  <path fill="#1A0A76" d="m366.59 312.49 2-.68s-1.05 1.6-2 .68Z"/>
  <path fill="url(#aP)" d="M365 327.9s-3.43 3.81-9.22 0c0 0 .56 5.17 5.1 4.81 3.9-.31 4.12-4.81 4.12-4.81Z"/>
  <path fill="#060248" d="M365 327.9s-3.43 2.43-9.22 0c0 0 1.68 3.33 5.2 3a5.005 5.005 0 0 0 4.02-3Z"/>
  <path fill="url(#aQ)" d="M365 327.9s-3.43 2.43-9.22 0a23.362 23.362 0 0 0 5-.67c3.22-.65 4.22.67 4.22.67Z"/>
  <defs>
    <linearGradient id="a" x1="237.33" x2="952.1" y1="411" y2="411" gradientUnits="userSpaceOnUse">
      <stop stop-color="#EFEFFB"/>
      <stop offset="1" stop-color="#D0D7F6"/>
    </linearGradient>
    <linearGradient id="b" x1="438.72" x2="523.63" y1="659.12" y2="659.12" gradientUnits="userSpaceOnUse">
      <stop stop-color="#5851D4"/>
      <stop offset="1" stop-color="#807DFC"/>
    </linearGradient>
    <linearGradient id="c" x1="446.99" x2="452.51" y1="659.12" y2="659.12" gradientUnits="userSpaceOnUse">
      <stop stop-color="#FF627B"/>
      <stop offset="1" stop-color="#FFAE5A"/>
    </linearGradient>
    <linearGradient id="d" x1="458.02" x2="463.53" y1="659.12" y2="659.12" gradientUnits="userSpaceOnUse">
      <stop stop-color="#009BAF"/>
      <stop offset="1" stop-color="#00EBE9"/>
    </linearGradient>
    <linearGradient id="e" x1="469.05" x2="474.56" y1="659.12" y2="659.12" gradientUnits="userSpaceOnUse">
      <stop stop-color="#FA2853"/>
      <stop offset="1" stop-color="#FF5676"/>
    </linearGradient>
    <linearGradient id="f" x1="438.72" x2="523.63" y1="630.46" y2="630.46" gradientUnits="userSpaceOnUse">
      <stop stop-color="#5851D4"/>
      <stop offset="1" stop-color="#807DFC"/>
    </linearGradient>
    <linearGradient id="g" x1="446.99" x2="452.51" y1="630.46" y2="630.46" gradientUnits="userSpaceOnUse">
      <stop stop-color="#FF627B"/>
      <stop offset="1" stop-color="#FFAE5A"/>
    </linearGradient>
    <linearGradient id="h" x1="458.02" x2="463.53" y1="630.46" y2="630.46" gradientUnits="userSpaceOnUse">
      <stop stop-color="#009BAF"/>
      <stop offset="1" stop-color="#00EBE9"/>
    </linearGradient>
    <linearGradient id="i" x1="469.05" x2="474.56" y1="630.46" y2="630.46" gradientUnits="userSpaceOnUse">
      <stop stop-color="#FA2853"/>
      <stop offset="1" stop-color="#FF5676"/>
    </linearGradient>
    <linearGradient id="j" x1="438.72" x2="523.63" y1="601.79" y2="601.79" gradientUnits="userSpaceOnUse">
      <stop stop-color="#5851D4"/>
      <stop offset="1" stop-color="#807DFC"/>
    </linearGradient>
    <linearGradient id="k" x1="446.99" x2="452.51" y1="601.79" y2="601.79" gradientUnits="userSpaceOnUse">
      <stop stop-color="#FF627B"/>
      <stop offset="1" stop-color="#FFAE5A"/>
    </linearGradient>
    <linearGradient id="l" x1="458.02" x2="463.53" y1="601.79" y2="601.79" gradientUnits="userSpaceOnUse">
      <stop stop-color="#009BAF"/>
      <stop offset="1" stop-color="#00EBE9"/>
    </linearGradient>
    <linearGradient id="m" x1="469.05" x2="474.56" y1="601.79" y2="601.79" gradientUnits="userSpaceOnUse">
      <stop stop-color="#FA2853"/>
      <stop offset="1" stop-color="#FF5676"/>
    </linearGradient>
    <linearGradient id="n" x1="438.72" x2="523.63" y1="573.12" y2="573.12" gradientUnits="userSpaceOnUse">
      <stop stop-color="#5851D4"/>
      <stop offset="1" stop-color="#807DFC"/>
    </linearGradient>
    <linearGradient id="o" x1="446.99" x2="452.51" y1="573.12" y2="573.12" gradientUnits="userSpaceOnUse">
      <stop stop-color="#FF627B"/>
      <stop offset="1" stop-color="#FFAE5A"/>
    </linearGradient>
    <linearGradient id="p" x1="458.02" x2="463.53" y1="573.12" y2="573.12" gradientUnits="userSpaceOnUse">
      <stop stop-color="#009BAF"/>
      <stop offset="1" stop-color="#00EBE9"/>
    </linearGradient>
    <linearGradient id="q" x1="469.05" x2="474.56" y1="573.12" y2="573.12" gradientUnits="userSpaceOnUse">
      <stop stop-color="#FA2853"/>
      <stop offset="1" stop-color="#FF5676"/>
    </linearGradient>
    <linearGradient id="r" x1="916.82" x2="947.89" y1="448.77" y2="448.77" gradientUnits="userSpaceOnUse">
      <stop stop-color="#C2D6FA"/>
      <stop offset="1" stop-color="#A9B5EA"/>
    </linearGradient>
    <linearGradient id="s" x1="908.89" x2="941.38" y1="540.07" y2="540.07" gradientUnits="userSpaceOnUse">
      <stop stop-color="#C2D6FA"/>
      <stop offset="1" stop-color="#A9B5EA"/>
    </linearGradient>
    <linearGradient id="t" x1="938.16" x2="987.62" y1="504.22" y2="504.22" gradientUnits="userSpaceOnUse">
      <stop stop-color="#C2D6FA"/>
      <stop offset="1" stop-color="#A9B5EA"/>
    </linearGradient>
    <linearGradient id="u" x1="891.17" x2="933.58" y1="530.16" y2="530.16" gradientUnits="userSpaceOnUse">
      <stop stop-color="#C2D6FA"/>
      <stop offset="1" stop-color="#A9B5EA"/>
    </linearGradient>
    <linearGradient id="v" x1="877.79" x2="920.2" y1="575.53" y2="575.53" gradientUnits="userSpaceOnUse">
      <stop stop-color="#C2D6FA"/>
      <stop offset="1" stop-color="#A9B5EA"/>
    </linearGradient>
    <linearGradient id="w" x1="927.48" x2="988.8" y1="566.79" y2="566.79" gradientUnits="userSpaceOnUse">
      <stop stop-color="#C2D6FA"/>
      <stop offset="1" stop-color="#A9B5EA"/>
    </linearGradient>
    <linearGradient id="x" x1="876.46" x2="954.04" y1="657.37" y2="657.37" gradientUnits="userSpaceOnUse">
      <stop stop-color="#C2D6FA"/>
      <stop offset="1" stop-color="#A9B5EA"/>
    </linearGradient>
    <linearGradient id="y" x1="867.83" x2="962.67" y1="630.19" y2="630.19" gradientUnits="userSpaceOnUse">
      <stop stop-color="#C2D6FA"/>
      <stop offset="1" stop-color="#A9B5EA"/>
    </linearGradient>
    <linearGradient id="z" x1="164.72" x2="271.4" y1="332.063" y2="332.063" gradientUnits="userSpaceOnUse">
      <stop stop-color="#C2D6FA"/>
      <stop offset="1" stop-color="#A9B5EA"/>
    </linearGradient>
    <linearGradient id="A" x1="182.148" x2="256.986" y1="342.798" y2="329.299" gradientUnits="userSpaceOnUse">
      <stop stop-color="#0170D8"/>
      <stop offset="1" stop-color="#014099"/>
    </linearGradient>
    <linearGradient id="B" x1="311.71" x2="815.32" y1="446.38" y2="313.79" gradientUnits="userSpaceOnUse">
      <stop stop-color="#EFEFFB"/>
      <stop offset="1" stop-color="#D0D7F6"/>
    </linearGradient>
    <linearGradient id="C" x1="407.642" x2="544.181" y1="227.708" y2="43.149" gradientUnits="userSpaceOnUse">
      <stop stop-color="#0170D8"/>
      <stop offset="1" stop-color="#014099"/>
    </linearGradient>
    <linearGradient id="D" x1="446.37" x2="503.43" y1="444.63" y2="444.63" gradientUnits="userSpaceOnUse">
      <stop stop-color="#FF627B"/>
      <stop offset="1" stop-color="#FFAE5A"/>
    </linearGradient>
    <linearGradient id="E" x1="448" x2="505.06" y1="357.48" y2="357.48" gradientUnits="userSpaceOnUse">
      <stop stop-color="#FF627B"/>
      <stop offset="1" stop-color="#FFAE5A"/>
    </linearGradient>
    <linearGradient id="F" x1="447" x2="504.06" y1="271.48" y2="271.48" gradientUnits="userSpaceOnUse">
      <stop stop-color="#FF627B"/>
      <stop offset="1" stop-color="#FFAE5A"/>
    </linearGradient>
    <linearGradient id="G" x1="526.11" x2="597.18" y1="457.07" y2="457.07" gradientUnits="userSpaceOnUse">
      <stop stop-color="#FF627B"/>
      <stop offset="1" stop-color="#FFAE5A"/>
    </linearGradient>
    <linearGradient id="H" x1="527.74" x2="598.81" y1="369.92" y2="369.92" gradientUnits="userSpaceOnUse">
      <stop stop-color="#FF627B"/>
      <stop offset="1" stop-color="#FFAE5A"/>
    </linearGradient>
    <linearGradient id="I" x1="526.74" x2="597.81" y1="283.92" y2="283.92" gradientUnits="userSpaceOnUse">
      <stop stop-color="#FF627B"/>
      <stop offset="1" stop-color="#FFAE5A"/>
    </linearGradient>
    <linearGradient id="J" x1="446.82" x2="517.9" y1="420.22" y2="420.22" gradientUnits="userSpaceOnUse">
      <stop stop-color="#FF627B"/>
      <stop offset="1" stop-color="#FFAE5A"/>
    </linearGradient>
    <linearGradient id="K" x1="448.45" x2="519.53" y1="333.07" y2="333.07" gradientUnits="userSpaceOnUse">
      <stop stop-color="#FF627B"/>
      <stop offset="1" stop-color="#FFAE5A"/>
    </linearGradient>
    <linearGradient id="L" x1="703.62" x2="760.67" y1="481.48" y2="481.48" gradientUnits="userSpaceOnUse">
      <stop stop-color="#FF627B"/>
      <stop offset="1" stop-color="#FFAE5A"/>
    </linearGradient>
    <linearGradient id="M" x1="705.25" x2="762.3" y1="394.33" y2="394.33" gradientUnits="userSpaceOnUse">
      <stop stop-color="#FF627B"/>
      <stop offset="1" stop-color="#FFAE5A"/>
    </linearGradient>
    <linearGradient id="N" x1="704.25" x2="761.3" y1="308.33" y2="308.33" gradientUnits="userSpaceOnUse">
      <stop stop-color="#FF627B"/>
      <stop offset="1" stop-color="#FFAE5A"/>
    </linearGradient>
    <linearGradient id="O" x1="703.56" x2="774.64" y1="420.22" y2="420.22" gradientUnits="userSpaceOnUse">
      <stop stop-color="#FF627B"/>
      <stop offset="1" stop-color="#FFAE5A"/>
    </linearGradient>
    <linearGradient id="P" x1="705.19" x2="776.27" y1="333.07" y2="333.07" gradientUnits="userSpaceOnUse">
      <stop stop-color="#FF627B"/>
      <stop offset="1" stop-color="#FFAE5A"/>
    </linearGradient>
    <linearGradient id="Q" x1="704.19" x2="775.27" y1="247.07" y2="247.07" gradientUnits="userSpaceOnUse">
      <stop stop-color="#FF627B"/>
      <stop offset="1" stop-color="#FFAE5A"/>
    </linearGradient>
    <linearGradient id="R" x1="693.61" x2="931.62" y1="548.52" y2="548.52" gradientUnits="userSpaceOnUse">
      <stop stop-color="#003286"/>
      <stop offset="1" stop-color="#0078E2"/>
    </linearGradient>
    <linearGradient id="S" x1="748.156" x2="756.72" y1="443.933" y2="502.698" gradientUnits="userSpaceOnUse">
      <stop stop-color="#49FDC7"/>
      <stop offset="1" stop-color="#3BADE9"/>
    </linearGradient>
    <linearGradient id="T" x1="737.037" x2="769.488" y1="504.135" y2="499.291" gradientUnits="userSpaceOnUse">
      <stop stop-color="#FA9"/>
      <stop offset="1" stop-color="#FF856E"/>
    </linearGradient>
    <linearGradient id="U" x1="780.24" x2="686.25" y1="547.76" y2="524.75" gradientUnits="userSpaceOnUse">
      <stop stop-color="#FA2853"/>
      <stop offset="1" stop-color="#FF5676"/>
    </linearGradient>
    <linearGradient id="V" x1="752.368" x2="709.501" y1="552.001" y2="534.819" gradientUnits="userSpaceOnUse">
      <stop stop-color="#5851D4"/>
      <stop offset="1" stop-color="#807DFC"/>
    </linearGradient>
    <linearGradient id="W" x1="811.06" x2="781.58" y1="554.41" y2="577.13" gradientUnits="userSpaceOnUse">
      <stop stop-color="#5851D4"/>
      <stop offset="1" stop-color="#807DFC"/>
    </linearGradient>
    <linearGradient id="X" x1="786.145" x2="801.446" y1="437.593" y2="543.254" gradientUnits="userSpaceOnUse">
      <stop stop-color="#49FDC7"/>
      <stop offset="1" stop-color="#3BADE9"/>
    </linearGradient>
    <linearGradient id="Y" x1="784.6" x2="801.96" y1="445.27" y2="435.97" gradientUnits="userSpaceOnUse">
      <stop stop-color="#FA9"/>
      <stop offset="1" stop-color="#FF856E"/>
    </linearGradient>
    <linearGradient id="Z" x1="784.298" x2="790.999" y1="436.346" y2="464.186" gradientUnits="userSpaceOnUse">
      <stop stop-color="#49FDC7"/>
      <stop offset="1" stop-color="#3BADE9"/>
    </linearGradient>
    <linearGradient id="aa" x1="802.012" x2="807.395" y1="432.525" y2="464.918" gradientUnits="userSpaceOnUse">
      <stop stop-color="#49FDC7"/>
      <stop offset="1" stop-color="#3BADE9"/>
    </linearGradient>
    <linearGradient id="ab" x1="785.373" x2="801.493" y1="403.989" y2="424.592" gradientUnits="userSpaceOnUse">
      <stop stop-color="#FA9"/>
      <stop offset=".34" stop-color="#FFA796"/>
      <stop offset=".61" stop-color="#FF9F8C"/>
      <stop offset=".86" stop-color="#FF907B"/>
      <stop offset="1" stop-color="#FF856E"/>
    </linearGradient>
    <linearGradient id="ac" x1="802.712" x2="810.717" y1="407.261" y2="410.933" gradientUnits="userSpaceOnUse">
      <stop stop-color="#FA9"/>
      <stop offset=".34" stop-color="#FFA796"/>
      <stop offset=".61" stop-color="#FF9F8C"/>
      <stop offset=".86" stop-color="#FF907B"/>
      <stop offset="1" stop-color="#FF856E"/>
    </linearGradient>
    <linearGradient id="ad" x1="735.95" x2="742.9" y1="533.75" y2="533.75" gradientUnits="userSpaceOnUse">
      <stop stop-color="#99CEFF"/>
      <stop offset="1" stop-color="#D5E9FF"/>
    </linearGradient>
    <linearGradient id="ae" x1="727.58" x2="734.53" y1="533.75" y2="533.75" gradientUnits="userSpaceOnUse">
      <stop stop-color="#99CEFF"/>
      <stop offset="1" stop-color="#D5E9FF"/>
    </linearGradient>
    <linearGradient id="af" x1="719.21" x2="726.16" y1="533.75" y2="533.75" gradientUnits="userSpaceOnUse">
      <stop stop-color="#99CEFF"/>
      <stop offset="1" stop-color="#D5E9FF"/>
    </linearGradient>
    <linearGradient id="ag" x1="710.85" x2="717.79" y1="533.75" y2="533.75" gradientUnits="userSpaceOnUse">
      <stop stop-color="#99CEFF"/>
      <stop offset="1" stop-color="#D5E9FF"/>
    </linearGradient>
    <linearGradient id="ah" x1="703.88" x2="707.94" y1="533.75" y2="533.75" gradientUnits="userSpaceOnUse">
      <stop stop-color="#99CEFF"/>
      <stop offset="1" stop-color="#D5E9FF"/>
    </linearGradient>
    <linearGradient id="ai" x1="698.95" x2="703.01" y1="533.75" y2="533.75" gradientUnits="userSpaceOnUse">
      <stop stop-color="#99CEFF"/>
      <stop offset="1" stop-color="#D5E9FF"/>
    </linearGradient>
    <linearGradient id="aj" x1="694.3" x2="698.36" y1="533.75" y2="533.75" gradientUnits="userSpaceOnUse">
      <stop stop-color="#99CEFF"/>
      <stop offset="1" stop-color="#D5E9FF"/>
    </linearGradient>
    <linearGradient id="ak" x1="812.654" x2="813.029" y1="519.768" y2="527.826" gradientUnits="userSpaceOnUse">
      <stop stop-color="#49FDC7"/>
      <stop offset="1" stop-color="#3BADE9"/>
    </linearGradient>
    <linearGradient id="al" x1="732.06" x2="688.81" y1="610.41" y2="599.46" gradientUnits="userSpaceOnUse">
      <stop stop-color="#5851D4"/>
      <stop offset="1" stop-color="#807DFC"/>
    </linearGradient>
    <linearGradient id="am" x1="825.65" x2="796.17" y1="573.33" y2="596.06" gradientUnits="userSpaceOnUse">
      <stop stop-color="#5851D4"/>
      <stop offset="1" stop-color="#807DFC"/>
    </linearGradient>
    <linearGradient id="an" x1="804.21" x2="812.13" y1="510.89" y2="521.14" gradientUnits="userSpaceOnUse">
      <stop stop-color="#FA9"/>
      <stop offset="1" stop-color="#FF856E"/>
    </linearGradient>
    <linearGradient id="ao" x1="832.967" x2="854.721" y1="441.929" y2="524.899" gradientUnits="userSpaceOnUse">
      <stop stop-color="#49FDC7"/>
      <stop offset="1" stop-color="#3BADE9"/>
    </linearGradient>
    <linearGradient id="ap" x1="188.391" x2="299.584" y1="564.953" y2="580.897" gradientUnits="userSpaceOnUse">
      <stop stop-color="#C2D6FA"/>
      <stop offset="1" stop-color="#A9B5EA"/>
    </linearGradient>
    <linearGradient id="aq" x1="890.479" x2="972.399" y1="330.57" y2="330.57" gradientUnits="userSpaceOnUse">
      <stop stop-color="#EFEFFB"/>
      <stop offset="1" stop-color="#D0D7F6"/>
    </linearGradient>
    <linearGradient id="ar" x1="867.717" x2="972.119" y1="351.25" y2="331.414" gradientUnits="userSpaceOnUse">
      <stop stop-color="#0170D8"/>
      <stop offset="1" stop-color="#014099"/>
    </linearGradient>
    <linearGradient id="as" x1="1935.08" x2="2097.12" y1="195.02" y2="195.02" gradientUnits="userSpaceOnUse">
      <stop stop-color="#C2D6FA"/>
      <stop offset="1" stop-color="#A9B5EA"/>
    </linearGradient>
    <linearGradient id="at" x1="334.55" x2="496.59" y1="142.89" y2="142.89" gradientUnits="userSpaceOnUse">
      <stop stop-color="#5851D4"/>
      <stop offset="1" stop-color="#807DFC"/>
    </linearGradient>
    <linearGradient id="au" x1="362.358" x2="414.345" y1="187.122" y2="180.49" gradientUnits="userSpaceOnUse">
      <stop stop-color="#0170D8"/>
      <stop offset="1" stop-color="#014099"/>
    </linearGradient>
    <linearGradient id="av" x1="364.59" x2="414.39" y1="195.61" y2="195.61" gradientUnits="userSpaceOnUse">
      <stop stop-color="#5851D4"/>
      <stop offset="1" stop-color="#807DFC"/>
    </linearGradient>
    <linearGradient id="aw" x1="897.87" x2="839.68" y1="165.57" y2="172.04" gradientUnits="userSpaceOnUse">
      <stop stop-color="#5851D4"/>
      <stop offset="1" stop-color="#807DFC"/>
    </linearGradient>
    <linearGradient id="ax" x1="2185.07" x2="2467.02" y1="177.11" y2="177.11" gradientUnits="userSpaceOnUse">
      <stop stop-color="#C2D6FA"/>
      <stop offset="1" stop-color="#A9B5EA"/>
    </linearGradient>
    <linearGradient id="ay" x1="395.57" x2="377.51" y1="665.65" y2="564.36" gradientUnits="userSpaceOnUse">
      <stop stop-color="#FA9"/>
      <stop offset=".34" stop-color="#FFA796"/>
      <stop offset=".61" stop-color="#FF9F8C"/>
      <stop offset=".86" stop-color="#FF907B"/>
      <stop offset="1" stop-color="#FF856E"/>
    </linearGradient>
    <linearGradient id="az" x1="378.93" x2="371.14" y1="627.22" y2="455.83" gradientUnits="userSpaceOnUse">
      <stop stop-color="#5851D4"/>
      <stop offset="1" stop-color="#807DFC"/>
    </linearGradient>
    <linearGradient id="aA" x1="336.62" x2="357.84" y1="639.6" y2="639.6" gradientUnits="userSpaceOnUse">
      <stop stop-color="#FA9"/>
      <stop offset=".34" stop-color="#FFA796"/>
      <stop offset=".61" stop-color="#FF9F8C"/>
      <stop offset=".86" stop-color="#FF907B"/>
      <stop offset="1" stop-color="#FF856E"/>
    </linearGradient>
    <linearGradient id="aB" x1="340.15" x2="332.36" y1="628.98" y2="457.59" gradientUnits="userSpaceOnUse">
      <stop stop-color="#5851D4"/>
      <stop offset="1" stop-color="#807DFC"/>
    </linearGradient>
    <linearGradient id="aC" x1="377.697" x2="392.48" y1="352.893" y2="431.732" gradientUnits="userSpaceOnUse">
      <stop stop-color="#49FDC7"/>
      <stop offset="1" stop-color="#3BADE9"/>
    </linearGradient>
    <linearGradient id="aD" x1="411" x2="372.839" y1="450.5" y2="408.857" gradientUnits="userSpaceOnUse">
      <stop stop-color="#49FDC7"/>
      <stop offset="1" stop-color="#3BADE9"/>
    </linearGradient>
    <linearGradient id="aE" x1="385.13" x2="450.796" y1="419.107" y2="411.811" gradientUnits="userSpaceOnUse">
      <stop stop-color="#FA9"/>
      <stop offset=".34" stop-color="#FFA796"/>
      <stop offset=".61" stop-color="#FF9F8C"/>
      <stop offset=".86" stop-color="#FF907B"/>
      <stop offset="1" stop-color="#FF856E"/>
    </linearGradient>
    <linearGradient id="aF" x1="392" x2="326.5" y1="533" y2="338.5" gradientUnits="userSpaceOnUse">
      <stop stop-color="#49FDC7"/>
      <stop offset="1" stop-color="#3BADE9"/>
    </linearGradient>
    <linearGradient id="aG" x1="350.557" x2="352.956" y1="382.708" y2="404.67" gradientUnits="userSpaceOnUse">
      <stop stop-color="#49FDC7"/>
      <stop offset="1" stop-color="#3BADE9"/>
    </linearGradient>
    <linearGradient id="aH" x1="336.421" x2="344.514" y1="365.338" y2="436.715" gradientUnits="userSpaceOnUse">
      <stop stop-color="#49FDC7"/>
      <stop offset="1" stop-color="#3BADE9"/>
    </linearGradient>
    <linearGradient id="aI" x1="377" x2="315.885" y1="412.5" y2="337.341" gradientUnits="userSpaceOnUse">
      <stop stop-color="#49FDC7"/>
      <stop offset="1" stop-color="#3BADE9"/>
    </linearGradient>
    <linearGradient id="aJ" x1="393.48" x2="354.24" y1="370.44" y2="424.4" gradientUnits="userSpaceOnUse">
      <stop stop-color="#FA9"/>
      <stop offset=".34" stop-color="#FFA796"/>
      <stop offset=".61" stop-color="#FF9F8C"/>
      <stop offset=".86" stop-color="#FF907B"/>
      <stop offset="1" stop-color="#FF856E"/>
    </linearGradient>
    <linearGradient id="aK" x1="401.07" x2="361.82" y1="375.95" y2="429.91" gradientUnits="userSpaceOnUse">
      <stop stop-color="#FA9"/>
      <stop offset=".34" stop-color="#FFA796"/>
      <stop offset=".61" stop-color="#FF9F8C"/>
      <stop offset=".86" stop-color="#FF907B"/>
      <stop offset="1" stop-color="#FF856E"/>
    </linearGradient>
    <linearGradient id="aL" x1="360.126" x2="338.436" y1="342.405" y2="341.538" gradientUnits="userSpaceOnUse">
      <stop stop-color="#FA9"/>
      <stop offset=".34" stop-color="#FFA796"/>
      <stop offset=".61" stop-color="#FF9F8C"/>
      <stop offset=".86" stop-color="#FF907B"/>
      <stop offset="1" stop-color="#FF856E"/>
    </linearGradient>
    <linearGradient id="aM" x1="446.233" x2="466.072" y1="432.655" y2="426.209" gradientUnits="userSpaceOnUse">
      <stop stop-color="#FA9"/>
      <stop offset=".34" stop-color="#FFA796"/>
      <stop offset=".61" stop-color="#FF9F8C"/>
      <stop offset=".86" stop-color="#FF907B"/>
      <stop offset="1" stop-color="#FF856E"/>
    </linearGradient>
    <linearGradient id="aN" x1="366.45" x2="341.66" y1="312.37" y2="327.12" gradientUnits="userSpaceOnUse">
      <stop stop-color="#FA9"/>
      <stop offset=".34" stop-color="#FFA796"/>
      <stop offset=".61" stop-color="#FF9F8C"/>
      <stop offset=".86" stop-color="#FF907B"/>
      <stop offset="1" stop-color="#FF856E"/>
    </linearGradient>
    <linearGradient id="aO" x1="362.74" x2="337.94" y1="306.12" y2="320.88" gradientUnits="userSpaceOnUse">
      <stop stop-color="#FA9"/>
      <stop offset=".34" stop-color="#FFA796"/>
      <stop offset=".61" stop-color="#FF9F8C"/>
      <stop offset=".86" stop-color="#FF907B"/>
      <stop offset="1" stop-color="#FF856E"/>
    </linearGradient>
    <linearGradient id="aP" x1="365" x2="355.78" y1="330.32" y2="330.32" gradientUnits="userSpaceOnUse">
      <stop stop-color="#FA2853"/>
      <stop offset="1" stop-color="#FF5676"/>
    </linearGradient>
    <linearGradient id="aQ" x1="365" x2="355.78" y1="328.02" y2="328.02" gradientUnits="userSpaceOnUse">
      <stop stop-color="#FA2853"/>
      <stop offset="1" stop-color="#FF5676"/>
    </linearGradient>
  </defs>
</svg>
