<svg width="80" height="80" viewBox="0 0 80 80" fill="none" xmlns="http://www.w3.org/2000/svg">
<path d="M55.676 37.8115L50.5742 43.906L50.0364 43.3475L49.5538 42.8512L38.5781 31.4687L41.129 27.8148L47.5046 32.2269L47.9061 29.5038C48.2646 27.084 50.3398 25.2983 52.7803 25.2983H53.7869L55.676 37.8115Z" fill="#64B5F4"/>
<path d="M50.0366 33.1509V43.3473L49.5542 42.8514V33.1509H50.0366Z" fill="#2B9BED"/>
<path d="M37.8197 57.1915C37.737 57.2743 37.6473 57.3708 37.5508 57.4604C37.5508 57.4604 37.5508 57.4604 37.5508 57.4742C36.9303 58.0809 36.1857 58.6807 35.3309 59.2391C31.6631 61.6935 26.1615 63.6446 21.3769 64.6925C16.6681 65.7335 12.6763 65.8921 11.8765 64.789C10.739 63.2516 11.7662 59.4115 11.5939 59.2391C11.4215 59.0667 10.9734 58.9082 11.0285 58.3498C11.0837 57.7913 11.7042 57.4604 11.7042 57.4604C11.7042 57.4604 10.408 57.1639 10.4701 56.5573C10.5321 55.9368 11.8765 55.206 11.5939 54.4821C11.3112 53.7513 8.22257 53.703 8.00885 52.6275C7.78823 51.5658 11.7662 46.2021 11.6421 45.2368C11.1182 40.7349 14.6549 27.2083 31.9182 30.4486C35.4274 31.1105 38.0679 33.2546 39.7845 36.1226C43.4592 42.2585 42.9352 51.7244 37.8197 57.1915Z" fill="#B3D4FF"/>
<path d="M38.382 73.1962H20.4373C20.4373 73.1962 21.218 67.8774 21.3766 64.6935C26.1586 63.6444 31.6603 61.6926 35.3323 59.2405C36.1862 58.6794 36.9303 58.0816 37.5525 57.4717C37.4427 57.9108 34.9907 67.7432 38.382 73.1962Z" fill="#70AFFF"/>
<path d="M38.3852 73.1926H32.8077C32.6491 73.1926 28.6505 65.3262 35.331 59.2386C36.1859 58.6801 36.9305 58.0803 37.551 57.4736C37.4407 57.908 34.9932 67.7461 38.3852 73.1926Z" fill="#B3D4FF"/>
<path d="M36.1168 72.5996C35.9306 72.5996 35.7583 72.5303 35.6273 72.3996C35.4964 72.2684 35.4274 72.096 35.4274 71.9102C35.4274 71.7304 35.4964 71.5513 35.6273 71.4207C35.6893 71.3581 35.765 71.3103 35.8478 71.276C36.0202 71.1999 36.2063 71.1999 36.3787 71.276C36.4615 71.3103 36.5373 71.3581 36.5992 71.4207C36.6682 71.4894 36.7167 71.5581 36.751 71.6483C36.7853 71.7304 36.8062 71.8206 36.8062 71.9102C36.8062 72.096 36.7305 72.2684 36.5992 72.3996C36.4753 72.5303 36.2959 72.5996 36.1168 72.5996ZM34.4208 70.4344C34.2552 70.0897 34.4 69.6763 34.7447 69.5106C35.0827 69.345 35.4964 69.4898 35.6617 69.8345C35.8273 70.1792 35.6825 70.5933 35.3378 70.7589C35.2412 70.8067 35.1379 70.8276 35.0412 70.8276C34.7861 70.8276 34.538 70.6828 34.4208 70.4344ZM33.6553 68.3594C33.559 67.9938 33.7795 67.6147 34.1451 67.5184C34.5171 67.4215 34.8894 67.6423 34.986 68.0146C35.0827 68.3802 34.8618 68.7593 34.4966 68.8556C34.4346 68.8697 34.3794 68.8764 34.3175 68.8764C34.0138 68.8764 33.7381 68.6697 33.6553 68.3594ZM33.3244 66.1598C33.3106 65.7807 33.6072 65.4636 33.9862 65.4502C34.3656 65.4293 34.6827 65.7255 34.7033 66.112C34.7171 66.491 34.4208 66.8081 34.0347 66.8223C34.0276 66.8223 34.0209 66.8223 34.0138 66.8223C33.6415 66.8223 33.3382 66.5321 33.3244 66.1598ZM34.0414 64.7466C33.6691 64.6638 33.4281 64.3056 33.5038 63.9333C33.5796 63.561 33.9452 63.3199 34.3175 63.3953C34.6895 63.4714 34.9308 63.8296 34.8551 64.2093C34.7861 64.5332 34.4966 64.7607 34.1795 64.7607C34.1313 64.7607 34.0899 64.754 34.0414 64.7466ZM34.538 62.7268C34.1933 62.5612 34.0485 62.1545 34.2071 61.8098C34.3656 61.4651 34.7723 61.3136 35.117 61.4718C35.4688 61.6374 35.6135 62.0441 35.455 62.3888C35.3378 62.644 35.0894 62.7887 34.8275 62.7887C34.7309 62.7887 34.6346 62.7679 34.538 62.7268ZM35.896 61.0032C35.7098 61.0032 35.5374 60.9271 35.4136 60.7965C35.2826 60.6652 35.2065 60.4929 35.2065 60.3071C35.2065 60.2175 35.2274 60.1273 35.2617 60.0452C35.2964 59.9623 35.3446 59.8863 35.4136 59.8243C35.4412 59.79 35.4755 59.7624 35.5169 59.7348C35.5512 59.7139 35.5927 59.693 35.6341 59.6728C35.6755 59.6587 35.7169 59.6452 35.765 59.6311C35.896 59.6035 36.034 59.6244 36.1582 59.6728C36.2477 59.7072 36.3235 59.7557 36.3858 59.8243C36.4477 59.8863 36.5029 59.9623 36.5373 60.0452C36.5716 60.1273 36.5854 60.2175 36.5854 60.3071C36.5854 60.4929 36.5167 60.6652 36.3858 60.7965C36.2545 60.9271 36.0821 61.0032 35.896 61.0032ZM37.8197 57.1908C37.737 57.2735 37.6474 57.3701 37.5509 57.4597C37.5509 57.4597 37.5509 57.4597 37.5509 57.4734C36.9304 58.0801 36.1858 58.6799 35.3309 59.2384C35.3309 59.2384 36.8201 55.3845 31.8424 55.5706C29.65 55.6533 25.4376 58.8385 20.6599 55.2535C15.8615 51.6754 13.6553 40.3067 22.025 36.3701C30.3946 32.4128 35.3309 39.1347 39.7846 36.1219C43.4593 42.2578 42.9353 51.7236 37.8197 57.1908Z" fill="#70AFFF"/>
<path d="M32.1747 47.7064C32.1074 47.9167 32.0233 48.1186 31.9139 48.3121L32.605 49.8748C32.655 49.9878 32.6304 50.1199 32.543 50.2073L31.0828 51.6674C30.9954 51.7548 30.8633 51.7795 30.7502 51.7295L29.1877 51.0383C28.9941 51.1477 28.7922 51.2319 28.5818 51.2992L27.966 52.8838C27.9213 52.9988 27.8106 53.0746 27.6872 53.0746H25.6147C25.4912 53.0746 25.3803 52.9986 25.3357 52.8833L24.7198 51.2908C24.5094 51.2235 24.3074 51.1393 24.1139 51.0383L22.5594 51.7292C22.4466 51.7794 22.3145 51.755 22.2269 51.6679L20.7591 50.2071C20.6714 50.1198 20.6465 49.9877 20.6963 49.8745L21.3877 48.3037C21.2867 48.1102 21.2026 47.9083 21.1353 47.7064L19.5507 47.0905C19.4356 47.0458 19.3599 46.9351 19.3599 46.8117V44.7398C19.3599 44.6159 19.4362 44.5049 19.5518 44.4605L21.1353 43.8526C21.2026 43.6423 21.2867 43.4404 21.3877 43.2468L20.6966 41.6842C20.6466 41.5712 20.6712 41.439 20.7586 41.3517L22.2271 39.8831C22.3145 39.7957 22.4467 39.771 22.5597 39.821L24.1223 40.5122C24.3158 40.4196 24.5178 40.3355 24.7198 40.2682L25.3357 38.6756C25.3803 38.5604 25.4912 38.4844 25.6147 38.4844H27.6872C27.8106 38.4844 27.9213 38.5602 27.966 38.6752L28.5818 40.2598C28.7838 40.3271 28.9857 40.4112 29.1793 40.5122L30.75 39.8208C30.8632 39.7709 30.9953 39.7959 31.0826 39.8835L32.5434 41.3514C32.6305 41.439 32.6549 41.5711 32.6047 41.684L31.9139 43.2384C32.0148 43.4319 32.1074 43.6423 32.1747 43.8526L33.7581 44.4605C33.8738 44.5049 33.9501 44.6159 33.9501 44.7398V46.8117C33.9501 46.9351 33.8743 47.0458 33.7593 47.0905L32.1747 47.7064Z" fill="white"/>
<path d="M29.9347 45.7802C29.9347 47.591 28.4653 49.0604 26.6545 49.0604C24.8437 49.0604 23.3743 47.591 23.3743 45.7802C23.3743 43.9636 24.8437 42.4941 26.6545 42.4941C28.4653 42.4941 29.9347 43.9636 29.9347 45.7802Z" fill="#70AFFF"/>
<path d="M39.5941 42.9809C39.5636 43.0763 39.5254 43.1679 39.4758 43.2557L39.7894 43.9647C39.812 44.016 39.8008 44.0759 39.7612 44.1156L39.0987 44.778C39.0591 44.8177 38.9991 44.8289 38.9478 44.8062L38.2389 44.4926C38.1511 44.5422 38.0595 44.5804 37.964 44.6109L37.6846 45.3299C37.6644 45.3821 37.6141 45.4164 37.5581 45.4164H36.6179C36.5618 45.4164 36.5115 45.382 36.4913 45.3297L36.2118 44.6071C36.1164 44.5766 36.0247 44.5384 35.9369 44.4926L35.2317 44.806C35.1805 44.8288 35.1205 44.8178 35.0808 44.7782L34.4149 44.1155C34.3751 44.0759 34.3638 44.0159 34.3864 43.9646L34.7001 43.2519C34.6543 43.1641 34.6161 43.0725 34.5855 42.9809L33.8666 42.7015C33.8144 42.6812 33.78 42.631 33.78 42.575V41.635C33.78 41.5788 33.8147 41.5284 33.8671 41.5082L34.5855 41.2325C34.6161 41.137 34.6543 41.0454 34.7001 40.9576L34.3865 40.2486C34.3638 40.1974 34.375 40.1374 34.4147 40.0978L35.0809 39.4315C35.1206 39.3918 35.1805 39.3806 35.2318 39.4033L35.9408 39.7169C36.0286 39.6749 36.1202 39.6367 36.2118 39.6062L36.4913 38.8837C36.5115 38.8314 36.5618 38.7969 36.6179 38.7969H37.5581C37.6141 38.7969 37.6644 38.8313 37.6846 38.8834L37.964 39.6024C38.0557 39.6329 38.1473 39.6711 38.2351 39.7169L38.9477 39.4032C38.9991 39.3806 39.059 39.3919 39.0986 39.4317L39.7614 40.0976C39.8009 40.1374 39.812 40.1973 39.7892 40.2485L39.4758 40.9538C39.5216 41.0416 39.5636 41.137 39.5941 41.2325L40.3125 41.5082C40.365 41.5284 40.3996 41.5788 40.3996 41.635V42.575C40.3996 42.631 40.3652 42.6812 40.313 42.7015L39.5941 42.9809Z" fill="white"/>
<path d="M38.578 42.1071C38.578 42.9286 37.9113 43.5953 37.0898 43.5953C36.2682 43.5953 35.6016 42.9286 35.6016 42.1071C35.6016 41.2829 36.2682 40.6162 37.0898 40.6162C37.9113 40.6162 38.578 41.2829 38.578 42.1071Z" fill="#70AFFF"/>
<path d="M39.0897 51.934C39.0592 52.0294 39.021 52.1211 38.9714 52.2089L39.285 52.9178C39.3076 52.9691 39.2965 53.0291 39.2568 53.0687L38.5943 53.7311C38.5547 53.7708 38.4947 53.782 38.4435 53.7593L37.7345 53.4457C37.6467 53.4954 37.5551 53.5336 37.4596 53.5641L37.1802 54.283C37.16 54.3352 37.1097 54.3696 37.0537 54.3696H36.1135C36.0574 54.3696 36.0071 54.3351 35.9869 54.2828L35.7074 53.5603C35.612 53.5297 35.5203 53.4915 35.4325 53.4457L34.7273 53.7592C34.6761 53.7819 34.6161 53.7709 34.5764 53.7313L33.9105 53.0686C33.8707 53.029 33.8594 52.969 33.882 52.9177L34.1957 52.205C34.1499 52.1172 34.1117 52.0256 34.0811 51.934L33.3622 51.6546C33.31 51.6343 33.2756 51.5841 33.2756 51.5281V50.5881C33.2756 50.5319 33.3103 50.4815 33.3627 50.4614L34.0811 50.1856C34.1117 50.0901 34.1499 49.9985 34.1957 49.9107L33.8821 49.2018C33.8594 49.1505 33.8706 49.0905 33.9103 49.0509L34.5765 48.3846C34.6162 48.345 34.6761 48.3338 34.7274 48.3564L35.4364 48.67C35.5242 48.628 35.6158 48.5899 35.7074 48.5593L35.9869 47.8368C36.0071 47.7845 36.0574 47.75 36.1135 47.75H37.0537C37.1097 47.75 37.16 47.7844 37.1802 47.8366L37.4596 48.5555C37.5513 48.586 37.6429 48.6242 37.7307 48.67L38.4433 48.3563C38.4947 48.3337 38.5546 48.345 38.5942 48.3848L39.257 49.0508C39.2965 49.0905 39.3076 49.1504 39.2848 49.2017L38.9714 49.9069C39.0172 49.9947 39.0592 50.0901 39.0897 50.1856L39.8081 50.4614C39.8606 50.4815 39.8952 50.5319 39.8952 50.5881V51.5281C39.8952 51.5841 39.8608 51.6343 39.8087 51.6546L39.0897 51.934Z" fill="white"/>
<path d="M38.0734 51.0602C38.0734 51.8818 37.4067 52.5484 36.5852 52.5484C35.7636 52.5484 35.0969 51.8818 35.0969 51.0602C35.0969 50.236 35.7636 49.5693 36.5852 49.5693C37.4067 49.5693 38.0734 50.236 38.0734 51.0602Z" fill="#70AFFF"/>
<path d="M71.2914 28.9385V57.2533H49.9468V29.1385C49.9468 27.0219 51.6634 25.2983 53.7868 25.2983H67.6513C69.6644 25.2983 71.2914 26.9323 71.2914 28.9385Z" fill="#64B5F4"/>
<path d="M71.2915 31.248V56.5707C71.1122 54.7713 71.0433 52.9512 70.5883 51.2001C70.0436 49.0835 68.8164 47.0014 66.8171 46.1259C65.521 45.5675 64.0525 45.5743 62.6392 45.595C60.5237 45.6177 54.4462 45.7077 51.7049 45.7398C51.2912 45.7467 50.3398 45.7053 49.9468 45.2848C49.8434 45.1745 49.7745 45.0435 49.7676 44.878C49.7607 44.7263 49.8296 44.5954 49.9468 44.4782C50.3949 44.0369 51.5601 43.837 51.9599 43.7474C55.0417 43.0924 58.2268 42.7615 61.1224 41.5205C64.1697 40.2244 66.7826 37.9217 68.451 35.0606C69.1198 33.923 69.6575 32.6821 70.602 31.772C70.8089 31.5721 71.0433 31.3928 71.2915 31.248Z" fill="#2B9BED"/>
<path d="M71.2907 72.932H61.5844L60.0488 64.9565L59.9781 72.932H50.2931L49.9463 57.2567L71.199 57.2529C71.199 57.2529 71.1738 66.3379 71.2907 72.932Z" fill="#272D4F"/>
<path d="M53.9474 16.0968C54.903 16.0968 55.6777 14.8247 55.6777 13.2554C55.6777 11.6862 54.903 10.4141 53.9474 10.4141C52.9917 10.4141 52.217 11.6862 52.217 13.2554C52.217 14.8247 52.9917 16.0968 53.9474 16.0968Z" fill="#272D4F"/>
<path d="M66.946 14.371C66.946 16.6916 65.1924 19.8405 63.0807 20.0494C63.0061 20.0569 62.9315 20.0569 62.8568 20.0569C61.0436 20.0569 59.5736 17.8482 59.1035 15.729C59.0886 15.6618 59.0736 15.6021 59.0662 15.535C58.9841 15.1395 58.9468 14.744 58.9468 14.371C58.9468 13.8038 59.0438 13.2591 59.2303 12.7666C59.6333 11.6399 60.4616 10.7445 61.4987 10.3117C61.9465 10.1177 62.4389 10.0132 62.9463 10.0132C62.9837 10.0132 63.0135 10.0132 63.0508 10.0207C63.9313 10.0356 64.7372 10.3714 65.3864 10.9236C65.4312 10.9534 65.4759 10.9982 65.5207 11.0429C65.6998 11.1996 65.8714 11.3862 66.0281 11.5802C66.5952 12.3338 66.946 13.3039 66.946 14.371Z" fill="#272D4F"/>
<path opacity="0.15" d="M61.387 18.1321C60.693 17.2665 59.9916 16.386 59.1036 15.7294C59.029 15.6697 58.9619 15.6174 58.8872 15.5652C58.9469 15.5577 59.0066 15.5503 59.0663 15.5354C59.5066 15.4831 59.9468 15.3936 60.3722 15.2742C61.178 16.3786 62.2749 17.3038 63.1778 17.3038C64.8269 17.3038 66.5208 14.9608 66.5208 13.3117C66.5208 12.7297 66.3193 12.1402 65.9835 11.6253L66.0283 11.5806C66.5954 12.3342 66.9461 13.3043 66.9461 14.3713C66.9461 16.6919 65.1925 19.8409 63.0808 20.0498" fill="black"/>
<path d="M62.8628 18.8486H57.3201V25.2991H62.8628V18.8486Z" fill="#FEB69E"/>
<path d="M57.3201 25.3001L59.0328 25.2451L62.8628 25.3001H57.3201Z" fill="#FEB69E"/>
<path d="M57.3193 17.7065V22.8742C57.3193 22.8742 59.7698 24.1412 62.862 23.6661V17.7065H57.3193Z" fill="#F8957E"/>
<path d="M62.8579 15.141V18.4765C62.8579 21.1525 60.686 23.3245 58.0099 23.3245C55.3338 23.3245 53.1619 21.1525 53.1619 18.4765V15.141C53.1619 13.803 53.7049 12.5877 54.584 11.7151C55.4566 10.8359 56.6719 10.293 58.0099 10.293C60.686 10.293 62.8579 12.4649 62.8579 15.141Z" fill="#FEB69E"/>
<path d="M65.8205 13.0697C66.946 5.27453 59.0055 6.95657 54.2635 6.95657C53.9955 6.95657 53.7334 6.96304 53.4774 6.97593C49.5679 7.1729 49.7982 13.0697 53.7127 13.0697H65.8205Z" fill="#272D4F"/>
<path d="M58.2433 17.4821C58.4931 17.4821 58.6956 17.183 58.6956 16.8141C58.6956 16.4451 58.4931 16.146 58.2433 16.146C57.9935 16.146 57.791 16.4451 57.791 16.8141C57.791 17.183 57.9935 17.4821 58.2433 17.4821Z" fill="#272D4F"/>
<path d="M55.0255 17.4821C55.2753 17.4821 55.4778 17.183 55.4778 16.8141C55.4778 16.4451 55.2753 16.146 55.0255 16.146C54.7757 16.146 54.5732 16.4451 54.5732 16.8141C54.5732 17.183 54.7757 17.4821 55.0255 17.4821Z" fill="#272D4F"/>
<path d="M58.3682 19.4814C58.3693 19.5082 58.3761 19.5333 58.3761 19.5603C58.3761 20.5759 57.5528 21.3992 56.5372 21.3992C55.5216 21.3992 54.6982 20.5759 54.6982 19.5603C54.6982 19.5333 54.7051 19.5082 54.7062 19.4814H58.3682Z" fill="white"/>
<path d="M64.5635 15.9507C64.5874 16.8641 63.8419 17.6246 62.8983 17.6493C61.9548 17.6739 61.8684 14.3661 62.8119 14.3414C63.7554 14.3168 64.5397 15.0373 64.5635 15.9507Z" fill="#FEB69E"/>
<path d="M62.9251 13.3491V16.171C62.9251 16.656 62.5282 17.0528 62.0359 17.0528L61.1541 13.3491C61.1541 12.8568 61.5509 12.4673 62.0359 12.4673C62.5282 12.4673 62.9251 12.8568 62.9251 13.3491Z" fill="#272D4F"/>
<path d="M56.0762 25.3169L57.4953 27.8139L59.0327 25.2453L57.3158 23.9424L56.0762 25.3169Z" fill="#F2F6FF"/>
<path d="M59.0327 25.2447L59.9757 28.0135L63.8368 25.3008L62.8627 23.4189L59.0327 25.2447Z" fill="#F2F6FF"/>
<path d="M67.6515 25.3006C67.6515 25.3006 67.7732 25.29 67.9763 25.2991C68.8834 25.3396 71.4121 25.7716 71.9551 29.2828C72.436 32.3927 68.9219 38.812 66.9432 42.122C66.1664 43.4215 64.7938 44.2426 64.0449 44.2377L49.6893 45.8602L47.8337 40.6161L61.2341 37.4343C61.2341 37.4343 65.5629 25.8814 67.6515 25.3006Z" fill="#64B5F4"/>
<path d="M50.0366 40.0931C51.8872 39.5838 53.7432 39.0978 55.6036 38.6299L61.195 37.2692L61.0754 37.3747C62.2771 34.2997 63.7066 30.892 65.4361 28.0132C64.1649 30.4984 62.3452 34.9238 61.3931 37.4938L61.3616 37.579L61.2734 37.5994L55.6672 38.8975C53.795 39.3159 51.9186 39.7161 50.0366 40.0931Z" fill="#2B9BED"/>
<path d="M40.913 32.8888L41.2263 34.4075L44.992 41.2905L44.0262 41.8186L40.2605 34.9366L39.1505 33.8536L38.6443 31.9832L39.6101 31.4541L40.913 32.8888Z" fill="#E0E0E4"/>
<path d="M47.834 40.6163L44.979 40.4551C44.4598 40.4258 44.0227 40.8389 44.0227 41.3589C44.0227 41.8218 44.372 42.2101 44.8323 42.259L46.8635 42.4749" fill="#FEB69E"/>
<path d="M44.8631 41.2438L44.0565 41.6851C43.8163 41.8165 43.5151 41.7283 43.3837 41.4882L43.0756 40.925C42.9442 40.6849 43.0323 40.3837 43.2725 40.2523L44.0791 39.8109C44.3193 39.6795 44.6204 39.7677 44.7518 40.0078L45.06 40.571C45.1914 40.8112 45.1032 41.1124 44.8631 41.2438Z" fill="#270E14"/>
<path d="M47.9603 47.8622C47.1046 48.3304 46.0313 48.0163 45.5631 47.1605L43.3797 43.17C42.9115 42.3143 43.2256 41.241 44.0814 40.7728C44.9371 40.3045 46.0104 40.6187 46.4786 41.4744L48.662 45.4649C49.1302 46.3207 48.8161 47.394 47.9603 47.8622Z" fill="#FF4F5A"/>
<path d="M44.7543 42.7395L46.6665 46.2345C46.7699 46.4234 46.6973 46.6596 46.5125 46.7606C46.3236 46.864 46.0855 46.7979 45.9821 46.6089L44.0699 43.114C43.9665 42.9251 44.0391 42.6889 44.2281 42.5855C44.4128 42.4844 44.6509 42.5506 44.7543 42.7395ZM46.0595 42.0254L47.9718 45.5203C48.0752 45.7092 48.0025 45.9454 47.8178 46.0465C47.6288 46.1499 47.3908 46.0837 47.2874 45.8948L45.3751 42.3998C45.2718 42.2109 45.3444 41.9747 45.5334 41.8714C45.7181 41.7703 45.9562 41.8364 46.0595 42.0254Z" fill="#F73F4B"/>
<path d="M46.9259 42.2913L44.8748 43.5858C43.6462 44.2722 43.248 45.8507 44.004 47.0378C44.8013 48.2896 46.5202 48.5496 47.652 47.5896L49.7672 45.7955L47.834 40.6162" fill="#FEB69E"/>
<path d="M41.1293 27.8148L38.5784 31.4687L35.1227 30.1373C33.9192 29.6736 33.3048 28.3351 33.7377 27.1202C34.1674 25.9142 35.4748 25.2649 36.6954 25.6514L38.9695 26.3714L38.763 25.6542C38.6584 25.2908 38.8479 24.9075 39.2002 24.77C39.5807 24.6215 40.0091 24.8132 40.1519 25.1959L41.1293 27.8148Z" fill="#FEB69E"/>
</svg>
