<svg xmlns="http://www.w3.org/2000/svg" xmlns:xlink="http://www.w3.org/1999/xlink" width="150" zoomAndPan="magnify" viewBox="0 0 112.5 89.999999" height="120" preserveAspectRatio="xMidYMid meet" version="1.0"><defs><clipPath id="5fb66a0c40"><path d="M 0 0.199219 L 112.003906 0.199219 L 112.003906 89.800781 L 0 89.800781 Z M 0 0.199219 " clip-rule="nonzero"/></clipPath><clipPath id="82b62d5614"><path d="M 33.933594 55 L 54 55 L 54 67.132812 L 33.933594 67.132812 Z M 33.933594 55 " clip-rule="nonzero"/></clipPath><clipPath id="fe3ffdab13"><path d="M 53 58 L 67.683594 58 L 67.683594 67.132812 L 53 67.132812 Z M 53 58 " clip-rule="nonzero"/></clipPath><clipPath id="90afe90990"><path d="M 33.933594 47 L 67.683594 47 L 67.683594 67 L 33.933594 67 Z M 33.933594 47 " clip-rule="nonzero"/></clipPath><clipPath id="bc93925272"><path d="M 47.726562 31.148438 L 67.679688 31.148438 L 67.679688 42.738281 L 47.726562 42.738281 Z M 47.726562 31.148438 " clip-rule="nonzero"/></clipPath><clipPath id="822abee10d"><path d="M 67.257812 42.417969 L 67.679688 42.417969 L 67.679688 58.722656 L 67.257812 58.722656 Z M 67.257812 42.417969 " clip-rule="nonzero"/></clipPath><clipPath id="641e138139"><path d="M 47 31.132812 L 67.683594 31.132812 L 67.683594 59 L 47 59 Z M 47 31.132812 " clip-rule="nonzero"/></clipPath></defs><g clip-path="url(#5fb66a0c40)"><path fill="#ffffff" d="M 0 0.199219 L 112.5 0.199219 L 112.5 97.699219 L 0 97.699219 Z M 0 0.199219 " fill-opacity="1" fill-rule="nonzero"/><path fill="#ffffff" d="M 0 0.199219 L 112.5 0.199219 L 112.5 90.199219 L 0 90.199219 Z M 0 0.199219 " fill-opacity="1" fill-rule="nonzero"/><path fill="#ffffff" d="M 0 0.199219 L 112.5 0.199219 L 112.5 90.199219 L 0 90.199219 Z M 0 0.199219 " fill-opacity="1" fill-rule="nonzero"/></g><g clip-path="url(#82b62d5614)"><path fill="#364852" d="M 53.476562 67.117188 L 33.933594 55.804688 L 33.933594 55.335938 L 53.476562 66.648438 L 53.476562 67.117188 " fill-opacity="1" fill-rule="nonzero"/></g><g clip-path="url(#fe3ffdab13)"><path fill="#30383f" d="M 67.269531 59.132812 L 53.476562 67.117188 L 53.476562 66.648438 L 67.269531 58.664062 L 67.269531 59.132812 " fill-opacity="1" fill-rule="nonzero"/></g><g clip-path="url(#90afe90990)"><path fill="#506c7f" d="M 53.476562 66.652344 L 33.933594 55.339844 L 47.726562 47.355469 L 67.269531 58.667969 L 53.476562 66.652344 " fill-opacity="1" fill-rule="nonzero"/></g><path fill="#364852" d="M 46.398438 48.867188 L 47.4375 49.46875 L 47.957031 49.167969 L 46.917969 48.566406 L 46.398438 48.867188 " fill-opacity="1" fill-rule="nonzero"/><path fill="#364852" d="M 47.722656 49.632812 L 48.761719 50.234375 L 49.28125 49.933594 L 48.242188 49.332031 L 47.722656 49.632812 " fill-opacity="1" fill-rule="nonzero"/><path fill="#364852" d="M 49.050781 50.398438 L 50.085938 51 L 50.605469 50.699219 L 49.570312 50.097656 L 49.050781 50.398438 " fill-opacity="1" fill-rule="nonzero"/><path fill="#364852" d="M 50.375 51.167969 L 51.414062 51.765625 L 51.933594 51.46875 L 50.894531 50.867188 L 50.375 51.167969 " fill-opacity="1" fill-rule="nonzero"/><path fill="#364852" d="M 53.257812 52.234375 L 52.21875 51.632812 L 51.699219 51.933594 L 52.738281 52.535156 L 53.257812 52.234375 " fill-opacity="1" fill-rule="nonzero"/><path fill="#364852" d="M 54.582031 53 L 53.542969 52.398438 L 53.023438 52.699219 L 54.0625 53.300781 L 54.582031 53 " fill-opacity="1" fill-rule="nonzero"/><path fill="#364852" d="M 55.90625 53.765625 L 54.867188 53.167969 L 54.347656 53.46875 L 55.386719 54.066406 L 55.90625 53.765625 " fill-opacity="1" fill-rule="nonzero"/><path fill="#364852" d="M 57.230469 54.535156 L 56.191406 53.933594 L 55.671875 54.234375 L 56.710938 54.835938 L 57.230469 54.535156 " fill-opacity="1" fill-rule="nonzero"/><path fill="#364852" d="M 57 55 L 58.035156 55.601562 L 58.554688 55.300781 L 57.515625 54.699219 L 57 55 " fill-opacity="1" fill-rule="nonzero"/><path fill="#364852" d="M 58.324219 55.765625 L 59.363281 56.367188 L 59.878906 56.066406 L 58.84375 55.464844 L 58.324219 55.765625 " fill-opacity="1" fill-rule="nonzero"/><path fill="#364852" d="M 59.648438 56.535156 L 60.6875 57.136719 L 61.207031 56.835938 L 60.167969 56.234375 L 59.648438 56.535156 " fill-opacity="1" fill-rule="nonzero"/><path fill="#364852" d="M 60.972656 57.300781 L 62.011719 57.902344 L 62.53125 57.601562 L 61.492188 57 L 60.972656 57.300781 " fill-opacity="1" fill-rule="nonzero"/><path fill="#364852" d="M 63.855469 58.367188 L 62.816406 57.765625 L 62.296875 58.066406 L 63.335938 58.667969 L 63.855469 58.367188 " fill-opacity="1" fill-rule="nonzero"/><path fill="#364852" d="M 64.140625 58.535156 L 63.621094 58.835938 L 64.660156 59.433594 L 65.179688 59.132812 L 64.140625 58.535156 " fill-opacity="1" fill-rule="nonzero"/><path fill="#364852" d="M 45.0625 49.640625 L 46.101562 50.242188 L 47.140625 49.640625 L 46.101562 49.039062 L 45.0625 49.640625 " fill-opacity="1" fill-rule="nonzero"/><path fill="#364852" d="M 46.386719 50.40625 L 47.425781 51.007812 L 48.464844 50.40625 L 47.425781 49.804688 L 46.386719 50.40625 " fill-opacity="1" fill-rule="nonzero"/><path fill="#364852" d="M 47.714844 51.171875 L 48.75 51.773438 L 49.789062 51.171875 L 48.75 50.570312 L 47.714844 51.171875 " fill-opacity="1" fill-rule="nonzero"/><path fill="#364852" d="M 49.039062 51.941406 L 50.078125 52.539062 L 51.113281 51.941406 L 50.078125 51.339844 L 49.039062 51.941406 " fill-opacity="1" fill-rule="nonzero"/><path fill="#364852" d="M 52.441406 52.707031 L 51.402344 52.105469 L 50.363281 52.707031 L 51.402344 53.308594 L 52.441406 52.707031 " fill-opacity="1" fill-rule="nonzero"/><path fill="#364852" d="M 53.765625 53.472656 L 52.726562 52.871094 L 51.6875 53.472656 L 52.726562 54.074219 L 53.765625 53.472656 " fill-opacity="1" fill-rule="nonzero"/><path fill="#364852" d="M 55.089844 54.238281 L 54.050781 53.640625 L 53.011719 54.238281 L 54.050781 54.839844 L 55.089844 54.238281 " fill-opacity="1" fill-rule="nonzero"/><path fill="#364852" d="M 56.414062 55.007812 L 55.375 54.40625 L 54.335938 55.007812 L 55.375 55.609375 L 56.414062 55.007812 " fill-opacity="1" fill-rule="nonzero"/><path fill="#364852" d="M 55.664062 55.773438 L 56.699219 56.375 L 57.738281 55.773438 L 56.699219 55.171875 L 55.664062 55.773438 " fill-opacity="1" fill-rule="nonzero"/><path fill="#364852" d="M 56.988281 56.539062 L 58.027344 57.140625 L 59.0625 56.539062 L 58.027344 55.941406 L 56.988281 56.539062 " fill-opacity="1" fill-rule="nonzero"/><path fill="#364852" d="M 58.3125 57.308594 L 59.351562 57.910156 L 60.390625 57.308594 L 59.351562 56.707031 L 58.3125 57.308594 " fill-opacity="1" fill-rule="nonzero"/><path fill="#364852" d="M 59.636719 58.074219 L 60.675781 58.675781 L 61.714844 58.074219 L 60.675781 57.472656 L 59.636719 58.074219 " fill-opacity="1" fill-rule="nonzero"/><path fill="#364852" d="M 63.039062 58.839844 L 62 58.238281 L 60.960938 58.839844 L 62 59.441406 L 63.039062 58.839844 " fill-opacity="1" fill-rule="nonzero"/><path fill="#364852" d="M 62.285156 59.609375 L 63.324219 60.207031 L 64.363281 59.609375 L 63.324219 59.007812 L 62.285156 59.609375 " fill-opacity="1" fill-rule="nonzero"/><path fill="#364852" d="M 43.726562 50.414062 L 44.765625 51.015625 L 45.804688 50.414062 L 44.765625 49.8125 L 43.726562 50.414062 " fill-opacity="1" fill-rule="nonzero"/><path fill="#364852" d="M 45.050781 51.179688 L 46.089844 51.78125 L 47.128906 51.179688 L 46.089844 50.578125 L 45.050781 51.179688 " fill-opacity="1" fill-rule="nonzero"/><path fill="#364852" d="M 46.378906 51.945312 L 47.414062 52.546875 L 48.453125 51.945312 L 47.414062 51.34375 L 46.378906 51.945312 " fill-opacity="1" fill-rule="nonzero"/><path fill="#364852" d="M 47.703125 52.714844 L 48.742188 53.3125 L 49.777344 52.714844 L 48.738281 52.113281 L 47.703125 52.714844 " fill-opacity="1" fill-rule="nonzero"/><path fill="#364852" d="M 51.101562 53.480469 L 50.066406 52.878906 L 49.027344 53.480469 L 50.066406 54.082031 L 51.101562 53.480469 " fill-opacity="1" fill-rule="nonzero"/><path fill="#364852" d="M 52.429688 54.246094 L 51.390625 53.644531 L 50.351562 54.246094 L 51.390625 54.847656 L 52.429688 54.246094 " fill-opacity="1" fill-rule="nonzero"/><path fill="#364852" d="M 53.753906 55.011719 L 52.714844 54.414062 L 51.675781 55.011719 L 52.714844 55.613281 L 53.753906 55.011719 " fill-opacity="1" fill-rule="nonzero"/><path fill="#364852" d="M 55.078125 55.78125 L 54.039062 55.179688 L 53 55.78125 L 54.039062 56.382812 L 55.078125 55.78125 " fill-opacity="1" fill-rule="nonzero"/><path fill="#364852" d="M 54.324219 56.546875 L 55.363281 57.148438 L 56.402344 56.546875 L 55.363281 55.945312 L 54.324219 56.546875 " fill-opacity="1" fill-rule="nonzero"/><path fill="#364852" d="M 55.652344 57.3125 L 56.6875 57.914062 L 57.726562 57.3125 L 56.6875 56.710938 L 55.652344 57.3125 " fill-opacity="1" fill-rule="nonzero"/><path fill="#364852" d="M 56.976562 58.082031 L 58.015625 58.679688 L 59.050781 58.082031 L 58.015625 57.480469 L 56.976562 58.082031 " fill-opacity="1" fill-rule="nonzero"/><path fill="#364852" d="M 58.300781 58.847656 L 59.339844 59.449219 L 60.378906 58.847656 L 59.339844 58.246094 L 58.300781 58.847656 " fill-opacity="1" fill-rule="nonzero"/><path fill="#364852" d="M 61.703125 59.613281 L 60.664062 59.011719 L 59.625 59.613281 L 60.664062 60.214844 L 61.703125 59.613281 " fill-opacity="1" fill-rule="nonzero"/><path fill="#364852" d="M 60.949219 60.382812 L 61.988281 60.980469 L 63.027344 60.382812 L 61.988281 59.78125 L 60.949219 60.382812 " fill-opacity="1" fill-rule="nonzero"/><path fill="#364852" d="M 42.390625 51.1875 L 43.429688 51.789062 L 44.46875 51.1875 L 43.429688 50.585938 L 42.390625 51.1875 " fill-opacity="1" fill-rule="nonzero"/><path fill="#364852" d="M 43.714844 51.953125 L 44.753906 52.554688 L 45.792969 51.953125 L 44.753906 51.351562 L 43.714844 51.953125 " fill-opacity="1" fill-rule="nonzero"/><path fill="#364852" d="M 45.039062 52.71875 L 46.078125 53.320312 L 47.117188 52.71875 L 46.078125 52.117188 L 45.039062 52.71875 " fill-opacity="1" fill-rule="nonzero"/><path fill="#364852" d="M 46.367188 53.488281 L 47.402344 54.085938 L 48.441406 53.488281 L 47.402344 52.886719 L 46.367188 53.488281 " fill-opacity="1" fill-rule="nonzero"/><path fill="#364852" d="M 49.765625 54.253906 L 48.730469 53.652344 L 47.691406 54.253906 L 48.730469 54.855469 L 49.765625 54.253906 " fill-opacity="1" fill-rule="nonzero"/><path fill="#364852" d="M 51.09375 55.019531 L 50.054688 54.417969 L 49.015625 55.019531 L 50.054688 55.621094 L 51.09375 55.019531 " fill-opacity="1" fill-rule="nonzero"/><path fill="#364852" d="M 52.417969 55.785156 L 51.378906 55.1875 L 50.339844 55.785156 L 51.378906 56.386719 L 52.417969 55.785156 " fill-opacity="1" fill-rule="nonzero"/><path fill="#364852" d="M 53.742188 56.554688 L 52.703125 55.953125 L 51.664062 56.554688 L 52.703125 57.15625 L 53.742188 56.554688 " fill-opacity="1" fill-rule="nonzero"/><path fill="#364852" d="M 52.988281 57.320312 L 54.027344 57.921875 L 55.066406 57.320312 L 54.027344 56.71875 L 52.988281 57.320312 " fill-opacity="1" fill-rule="nonzero"/><path fill="#364852" d="M 54.316406 58.085938 L 55.351562 58.6875 L 56.390625 58.085938 L 55.351562 57.484375 L 54.316406 58.085938 " fill-opacity="1" fill-rule="nonzero"/><path fill="#364852" d="M 55.640625 58.855469 L 56.679688 59.453125 L 57.714844 58.855469 L 56.679688 58.253906 L 55.640625 58.855469 " fill-opacity="1" fill-rule="nonzero"/><path fill="#364852" d="M 56.964844 59.621094 L 58.003906 60.222656 L 59.042969 59.621094 L 58.003906 59.019531 L 56.964844 59.621094 " fill-opacity="1" fill-rule="nonzero"/><path fill="#364852" d="M 59.328125 59.785156 L 58.289062 60.386719 L 59.328125 60.988281 L 60.652344 61.753906 L 61.691406 61.152344 L 60.367188 60.386719 L 59.328125 59.785156 " fill-opacity="1" fill-rule="nonzero"/><path fill="#364852" d="M 41.054688 51.960938 L 42.09375 52.558594 L 43.132812 51.960938 L 42.09375 51.359375 L 41.054688 51.960938 " fill-opacity="1" fill-rule="nonzero"/><path fill="#364852" d="M 42.378906 52.726562 L 43.417969 53.328125 L 44.457031 52.726562 L 43.417969 52.125 L 42.378906 52.726562 " fill-opacity="1" fill-rule="nonzero"/><path fill="#364852" d="M 43.703125 53.492188 L 44.742188 54.09375 L 45.78125 53.492188 L 44.742188 52.890625 L 43.703125 53.492188 " fill-opacity="1" fill-rule="nonzero"/><path fill="#364852" d="M 45.03125 54.261719 L 46.066406 54.859375 L 47.105469 54.261719 L 46.066406 53.660156 L 45.03125 54.261719 " fill-opacity="1" fill-rule="nonzero"/><path fill="#364852" d="M 52.40625 57.328125 L 51.367188 56.726562 L 51.082031 56.558594 L 50.042969 55.960938 L 49.757812 55.792969 L 48.71875 55.191406 L 47.394531 54.425781 L 46.355469 55.027344 L 47.679688 55.792969 L 48.71875 56.394531 L 49.003906 56.558594 L 50.042969 57.160156 L 50.328125 57.328125 L 51.367188 57.925781 L 51.652344 58.09375 L 52.691406 58.695312 L 53.730469 58.09375 L 52.691406 57.492188 L 52.40625 57.328125 " fill-opacity="1" fill-rule="nonzero"/><path fill="#364852" d="M 52.976562 58.859375 L 54.015625 59.460938 L 55.054688 58.859375 L 54.015625 58.257812 L 52.976562 58.859375 " fill-opacity="1" fill-rule="nonzero"/><path fill="#364852" d="M 54.304688 59.628906 L 55.339844 60.226562 L 56.378906 59.628906 L 55.339844 59.027344 L 54.304688 59.628906 " fill-opacity="1" fill-rule="nonzero"/><path fill="#364852" d="M 55.628906 60.394531 L 56.667969 60.996094 L 57.703125 60.394531 L 56.667969 59.792969 L 55.628906 60.394531 " fill-opacity="1" fill-rule="nonzero"/><path fill="#364852" d="M 56.953125 61.160156 L 57.992188 61.761719 L 59.03125 61.160156 L 57.992188 60.558594 L 56.953125 61.160156 " fill-opacity="1" fill-rule="nonzero"/><path fill="#364852" d="M 58.277344 61.925781 L 59.316406 62.527344 L 60.355469 61.925781 L 59.316406 61.328125 L 58.277344 61.925781 " fill-opacity="1" fill-rule="nonzero"/><path fill="#364852" d="M 65.042969 58.234375 L 65.699219 58.613281 C 65.804688 58.675781 65.789062 58.78125 65.667969 58.851562 C 65.546875 58.921875 65.359375 58.929688 65.253906 58.871094 L 64.601562 58.492188 C 64.492188 58.429688 64.507812 58.320312 64.628906 58.25 C 64.75 58.179688 64.9375 58.171875 65.042969 58.234375 " fill-opacity="1" fill-rule="nonzero"/><path fill="#364852" d="M 48.597656 61.957031 C 48.339844 62.101562 47.917969 62.101562 47.664062 61.957031 L 42.046875 58.703125 C 41.789062 58.554688 41.792969 58.3125 42.050781 58.164062 L 45.355469 56.25 C 45.613281 56.101562 46.03125 56.101562 46.285156 56.25 L 51.90625 59.5 C 52.160156 59.648438 52.160156 59.894531 51.90625 60.039062 Z M 52.28125 59.492188 L 46.300781 56.03125 C 46.042969 55.882812 45.628906 55.882812 45.371094 56.03125 L 41.667969 58.175781 C 41.414062 58.324219 41.414062 58.5625 41.671875 58.710938 L 47.652344 62.171875 C 47.90625 62.320312 48.320312 62.320312 48.578125 62.171875 L 52.277344 60.03125 C 52.539062 59.882812 52.539062 59.640625 52.28125 59.492188 " fill-opacity="1" fill-rule="nonzero"/><g clip-path="url(#bc93925272)"><path fill="#506c7f" d="M 67.273438 42.695312 L 47.730469 31.382812 L 48.136719 31.148438 L 67.679688 42.460938 L 67.273438 42.695312 " fill-opacity="1" fill-rule="nonzero"/></g><g clip-path="url(#822abee10d)"><path fill="#30383f" d="M 67.679688 42.460938 L 67.679688 58.429688 L 67.273438 58.664062 L 67.273438 42.695312 L 67.679688 42.460938 " fill-opacity="1" fill-rule="nonzero"/></g><g clip-path="url(#641e138139)"><path fill="#364852" d="M 67.273438 58.664062 L 47.730469 47.351562 L 47.730469 31.382812 L 67.273438 42.695312 L 67.273438 58.664062 " fill-opacity="1" fill-rule="nonzero"/></g><path fill="#ffffff" d="M 66.816406 43.082031 L 66.816406 57.746094 L 48.191406 46.96875 L 48.191406 32.304688 L 66.816406 43.082031 " fill-opacity="1" fill-rule="nonzero"/><path fill="#82c3ed" d="M 66.816406 43.738281 L 48.191406 32.960938 L 48.191406 32.304688 L 66.816406 43.082031 L 66.816406 43.738281 " fill-opacity="1" fill-rule="nonzero"/><path fill="#dddaf1" d="M 53.101562 40.566406 L 49.464844 38.460938 C 49.058594 38.226562 48.730469 37.597656 48.730469 37.058594 L 48.730469 35.230469 C 48.730469 34.691406 49.058594 34.441406 49.464844 34.675781 L 53.101562 36.78125 C 53.507812 37.015625 53.835938 37.644531 53.835938 38.183594 L 53.835938 40.011719 C 53.835938 40.550781 53.507812 40.800781 53.101562 40.566406 " fill-opacity="1" fill-rule="nonzero"/><path fill="#364852" d="M 58.683594 40.777344 L 54.710938 38.476562 L 54.710938 37.710938 L 58.683594 40.011719 L 58.683594 40.777344 " fill-opacity="1" fill-rule="nonzero"/><path fill="#364852" d="M 61.117188 42.1875 L 59.277344 41.125 L 59.277344 40.355469 L 61.117188 41.421875 L 61.117188 42.1875 " fill-opacity="1" fill-rule="nonzero"/><path fill="#364852" d="M 66.113281 46.328125 L 54.710938 39.730469 L 54.710938 39.347656 L 66.113281 45.945312 L 66.113281 46.328125 " fill-opacity="1" fill-rule="nonzero"/><path fill="#364852" d="M 66.113281 47.195312 L 54.710938 40.597656 L 54.710938 40.214844 L 66.113281 46.8125 L 66.113281 47.195312 " fill-opacity="1" fill-rule="nonzero"/><path fill="#364852" d="M 62.917969 46.214844 L 54.710938 41.464844 L 54.710938 41.082031 L 62.917969 45.832031 L 62.917969 46.214844 " fill-opacity="1" fill-rule="nonzero"/><path fill="#364852" d="M 60.136719 50.253906 L 48.730469 43.652344 L 48.730469 43.269531 L 60.136719 49.871094 L 60.136719 50.253906 " fill-opacity="1" fill-rule="nonzero"/><path fill="#364852" d="M 60.136719 51.121094 L 48.730469 44.519531 L 48.730469 44.136719 L 60.136719 50.738281 L 60.136719 51.121094 " fill-opacity="1" fill-rule="nonzero"/><path fill="#364852" d="M 56.9375 50.136719 L 48.730469 45.386719 L 48.730469 45.003906 L 56.9375 49.753906 L 56.9375 50.136719 " fill-opacity="1" fill-rule="nonzero"/><path fill="#e9ad10" d="M 52.347656 38.238281 C 52.347656 38.917969 51.871094 39.191406 51.285156 38.851562 C 50.695312 38.511719 50.21875 37.683594 50.21875 37.003906 C 50.21875 36.324219 50.695312 36.050781 51.285156 36.390625 C 51.871094 36.730469 52.347656 37.558594 52.347656 38.238281 " fill-opacity="1" fill-rule="nonzero"/><path fill="#82c3ed" d="M 50.734375 42.875 L 48.730469 41.714844 L 48.730469 39.394531 L 50.734375 40.554688 L 50.734375 42.875 " fill-opacity="1" fill-rule="nonzero"/><path fill="#b2aede" d="M 53.347656 44.386719 L 51.34375 43.226562 L 51.34375 40.910156 L 53.347656 42.066406 L 53.347656 44.386719 " fill-opacity="1" fill-rule="nonzero"/><path fill="#2366b6" d="M 55.960938 45.898438 L 53.957031 44.738281 L 53.957031 42.421875 L 55.960938 43.582031 L 55.960938 45.898438 " fill-opacity="1" fill-rule="nonzero"/><path fill="#e9ad10" d="M 58.574219 47.410156 L 56.570312 46.253906 L 56.570312 43.933594 L 58.574219 45.09375 L 58.574219 47.410156 " fill-opacity="1" fill-rule="nonzero"/><path fill="#e0183d" d="M 61.1875 48.925781 L 59.183594 47.765625 L 59.183594 45.445312 L 61.1875 46.605469 L 61.1875 48.925781 " fill-opacity="1" fill-rule="nonzero"/><path fill="#b2aede" d="M 63.800781 50.4375 L 61.796875 49.277344 L 61.796875 46.957031 L 63.800781 48.117188 L 63.800781 50.4375 " fill-opacity="1" fill-rule="nonzero"/><path fill="#b2aede" d="M 65.59375 50.316406 L 64.953125 50.683594 L 64.789062 50.402344 L 65.265625 50.125 L 64.789062 49.300781 L 64.953125 49.203125 L 65.59375 50.316406 " fill-opacity="1" fill-rule="nonzero"/><path fill="#dddaf1" d="M 65.59375 55.148438 L 61.796875 52.949219 L 61.796875 50.832031 L 65.59375 53.03125 L 65.59375 55.148438 " fill-opacity="1" fill-rule="nonzero"/><path fill="#879094" d="M 52.707031 49.582031 L 48.191406 46.96875 L 52.707031 49.582031 M 65.375 42.25 L 59.164062 38.65625 L 65.378906 42.25 " fill-opacity="1" fill-rule="nonzero"/><path fill="#ffffff" d="M 52.707031 49.582031 L 48.191406 46.96875 L 48.191406 45.007812 L 48.882812 44.605469 L 55.09375 48.203125 L 54.671875 48.445312 L 48.730469 45.003906 L 48.730469 45.386719 L 54.34375 48.636719 L 52.707031 49.582031 M 55.421875 48.011719 L 49.210938 44.414062 L 49.632812 44.171875 L 55.84375 47.765625 L 55.421875 48.011719 M 56.171875 47.578125 L 49.960938 43.980469 L 51.34375 43.179688 L 51.34375 43.226562 L 53.347656 44.386719 L 53.347656 42.066406 L 53.308594 42.042969 L 54.710938 41.234375 L 54.710938 41.464844 L 60.722656 44.941406 L 59.519531 45.640625 L 59.183594 45.445312 L 59.183594 45.832031 L 58.574219 46.1875 L 58.574219 45.09375 L 56.570312 43.933594 L 56.570312 46.253906 L 57.515625 46.800781 L 56.171875 47.578125 M 53.957031 42.421875 L 53.957031 44.738281 L 55.960938 45.898438 L 55.960938 43.582031 L 53.957031 42.421875 M 61.050781 44.753906 L 54.839844 41.15625 L 55.261719 40.914062 L 61.472656 44.507812 L 61.050781 44.753906 M 61.800781 44.320312 L 55.589844 40.722656 L 56.011719 40.480469 L 62.222656 44.074219 L 61.800781 44.320312 M 62.550781 43.882812 L 56.339844 40.289062 L 57.089844 39.855469 L 58.683594 40.777344 L 58.683594 40.011719 L 57.753906 39.472656 L 58.597656 38.984375 L 64.808594 42.578125 L 62.550781 43.882812 M 59.277344 40.355469 L 59.277344 41.125 L 61.117188 42.1875 L 61.117188 41.421875 L 59.277344 40.355469 M 65.375 42.25 L 59.164062 38.65625 L 65.375 42.25 " fill-opacity="1" fill-rule="nonzero"/><path fill="#b2dff6" d="M 64.808594 42.578125 L 58.597656 38.984375 L 59.164062 38.65625 L 65.375 42.25 L 64.808594 42.578125 " fill-opacity="1" fill-rule="nonzero"/><path fill="#879094" d="M 58.683594 40.777344 L 57.089844 39.855469 L 57.753906 39.472656 L 58.683594 40.011719 L 58.683594 40.777344 " fill-opacity="1" fill-rule="nonzero"/><path fill="#879094" d="M 61.117188 42.1875 L 59.277344 41.125 L 59.277344 40.355469 L 61.117188 41.421875 L 61.117188 42.1875 " fill-opacity="1" fill-rule="nonzero"/><path fill="#879094" d="M 62.222656 44.074219 L 56.011719 40.480469 L 56.339844 40.289062 L 62.550781 43.882812 L 62.222656 44.074219 " fill-opacity="1" fill-rule="nonzero"/><path fill="#879094" d="M 61.472656 44.507812 L 55.261719 40.914062 L 55.589844 40.722656 L 61.800781 44.320312 L 61.472656 44.507812 " fill-opacity="1" fill-rule="nonzero"/><path fill="#879094" d="M 60.722656 44.941406 L 54.710938 41.464844 L 54.710938 41.234375 L 54.839844 41.15625 L 61.050781 44.753906 L 60.722656 44.941406 " fill-opacity="1" fill-rule="nonzero"/><path fill="#879094" d="M 55.84375 47.765625 L 49.632812 44.171875 L 49.960938 43.980469 L 56.171875 47.578125 L 55.84375 47.765625 " fill-opacity="1" fill-rule="nonzero"/><path fill="#879094" d="M 55.09375 48.203125 L 48.882812 44.605469 L 49.210938 44.414062 L 55.421875 48.011719 L 55.09375 48.203125 " fill-opacity="1" fill-rule="nonzero"/><path fill="#879094" d="M 54.34375 48.636719 L 48.730469 45.386719 L 48.730469 45.003906 L 54.671875 48.445312 L 54.34375 48.636719 " fill-opacity="1" fill-rule="nonzero"/><path fill="#d3d1ed" d="M 53.347656 44.386719 L 51.34375 43.226562 L 51.34375 43.179688 L 53.308594 42.042969 L 53.347656 42.066406 L 53.347656 44.386719 " fill-opacity="1" fill-rule="nonzero"/><path fill="#8cadd6" d="M 55.960938 45.898438 L 53.957031 44.738281 L 53.957031 42.421875 L 55.960938 43.582031 L 55.960938 45.898438 " fill-opacity="1" fill-rule="nonzero"/><path fill="#eecd4f" d="M 57.515625 46.800781 L 56.570312 46.253906 L 56.570312 43.933594 L 58.574219 45.09375 L 58.574219 46.1875 L 57.515625 46.800781 " fill-opacity="1" fill-rule="nonzero"/><path fill="#eb7f8f" d="M 59.183594 45.832031 L 59.183594 45.445312 L 59.519531 45.640625 L 59.183594 45.832031 " fill-opacity="1" fill-rule="nonzero"/><path fill="#ffffff" d="M 57.675781 52.457031 L 56.707031 51.898438 L 55.980469 51.476562 L 58.363281 50.09375 L 60.058594 51.074219 L 57.675781 52.457031 M 60.136719 51.03125 L 60.136719 50.738281 L 58.695312 49.902344 L 59.113281 49.660156 L 60.136719 50.253906 L 60.136719 49.871094 L 59.445312 49.46875 L 60.789062 48.691406 L 61.1875 48.925781 L 61.1875 48.460938 L 61.796875 48.109375 L 61.796875 49.277344 L 62.480469 49.671875 L 60.136719 51.03125 M 63.800781 48.910156 L 63.800781 48.117188 L 62.792969 47.53125 L 64.742188 46.402344 L 66.113281 47.195312 L 66.113281 46.8125 L 65.074219 46.210938 L 65.492188 45.96875 L 66.113281 46.328125 L 66.113281 45.945312 L 65.824219 45.777344 L 66.816406 45.203125 L 66.816406 47.164062 L 63.800781 48.910156 " fill-opacity="1" fill-rule="nonzero"/><path fill="#879094" d="M 66.113281 46.328125 L 65.492188 45.96875 L 65.824219 45.777344 L 66.113281 45.945312 L 66.113281 46.328125 " fill-opacity="1" fill-rule="nonzero"/><path fill="#879094" d="M 66.113281 47.195312 L 64.742188 46.402344 L 65.074219 46.210938 L 66.113281 46.8125 L 66.113281 47.195312 " fill-opacity="1" fill-rule="nonzero"/><path fill="#879094" d="M 60.136719 50.253906 L 59.113281 49.660156 L 59.445312 49.46875 L 60.136719 49.871094 L 60.136719 50.253906 " fill-opacity="1" fill-rule="nonzero"/><path fill="#879094" d="M 60.058594 51.074219 L 58.363281 50.09375 L 58.695312 49.902344 L 60.136719 50.738281 L 60.136719 51.03125 L 60.058594 51.074219 " fill-opacity="1" fill-rule="nonzero"/><path fill="#eb7f8f" d="M 61.1875 48.925781 L 60.789062 48.691406 L 61.1875 48.460938 L 61.1875 48.925781 " fill-opacity="1" fill-rule="nonzero"/><path fill="#d3d1ed" d="M 62.480469 49.671875 L 61.796875 49.277344 L 61.796875 48.109375 L 62.792969 47.53125 L 63.800781 48.117188 L 63.800781 48.910156 L 62.480469 49.671875 " fill-opacity="1" fill-rule="nonzero"/><path fill="#82c3ed" d="M 64.238281 50.308594 L 57.328125 46.308594 L 57 46.5 L 63.90625 50.5 L 64.238281 50.308594 " fill-opacity="1" fill-rule="nonzero"/><path fill="#2366b6" d="M 64.238281 54.871094 L 64.238281 50.308594 L 63.90625 50.5 L 63.90625 55.0625 L 64.238281 54.871094 " fill-opacity="1" fill-rule="nonzero"/><path fill="#4d92d5" d="M 63.90625 55.0625 L 57 51.0625 L 57 46.5 L 63.90625 50.5 L 63.90625 55.0625 " fill-opacity="1" fill-rule="nonzero"/><path fill="#e9ad10" d="M 59.183594 51.625 L 60.335938 50.625 L 61.046875 51.417969 L 61.964844 50.757812 L 63.539062 54.144531 L 59.183594 51.625 " fill-opacity="1" fill-rule="nonzero"/><path fill="#ffffff" d="M 58.707031 48.539062 L 57.597656 47.898438 L 57.597656 47.550781 L 58.707031 48.191406 L 58.707031 48.539062 " fill-opacity="1" fill-rule="nonzero"/><path fill="#ffffff" d="M 58.707031 49.476562 L 57.597656 48.832031 L 57.597656 48.484375 L 58.707031 49.128906 L 58.707031 49.476562 " fill-opacity="1" fill-rule="nonzero"/><path fill="#ffffff" d="M 58.707031 50.410156 L 57.597656 49.769531 L 57.597656 49.421875 L 58.707031 50.0625 L 58.707031 50.410156 " fill-opacity="1" fill-rule="nonzero"/><path fill="#ffffff" d="M 58.707031 51.347656 L 57.597656 50.707031 L 57.597656 50.359375 L 58.707031 51 L 58.707031 51.347656 " fill-opacity="1" fill-rule="nonzero"/><path fill="#e0183d" d="M 59.183594 51.625 L 60.324219 51.347656 L 61.199219 52.324219 L 62.128906 51.796875 L 62.789062 52.601562 L 63.539062 54.144531 L 59.183594 51.625 " fill-opacity="1" fill-rule="nonzero"/><path fill="#b2aede" d="M 53.285156 46.390625 L 41.195312 39.390625 L 41.195312 37.285156 L 53.285156 44.28125 L 53.285156 46.390625 " fill-opacity="1" fill-rule="nonzero"/><path fill="#4d92d5" d="M 42.914062 39.332031 C 42.914062 39.695312 42.664062 39.839844 42.351562 39.660156 C 42.039062 39.480469 41.785156 39.042969 41.785156 38.679688 C 41.785156 38.320312 42.039062 38.171875 42.351562 38.351562 C 42.664062 38.535156 42.914062 38.972656 42.914062 39.332031 " fill-opacity="1" fill-rule="nonzero"/><path fill="#364852" d="M 43.371094 39.78125 L 44.441406 40.398438 L 44.441406 40.035156 L 43.371094 39.414062 L 43.371094 39.78125 " fill-opacity="1" fill-rule="nonzero"/><path fill="#364852" d="M 44.898438 40.664062 L 46.523438 41.601562 L 46.523438 41.238281 L 44.898438 40.300781 L 44.898438 40.664062 " fill-opacity="1" fill-rule="nonzero"/><path fill="#e0183d" d="M 52.453125 45.183594 L 50.6875 44.164062 C 50.550781 44.082031 50.441406 43.871094 50.441406 43.6875 C 50.441406 43.503906 50.550781 43.421875 50.6875 43.5 L 52.453125 44.523438 C 52.589844 44.601562 52.699219 44.8125 52.699219 44.996094 C 52.699219 45.179688 52.589844 45.265625 52.453125 45.183594 " fill-opacity="1" fill-rule="nonzero"/><path fill="#e9ad10" d="M 47.75 42.132812 C 47.75 42.238281 47.675781 42.28125 47.582031 42.230469 C 47.492188 42.175781 47.417969 42.046875 47.417969 41.9375 C 47.417969 41.832031 47.492188 41.789062 47.582031 41.839844 C 47.675781 41.894531 47.75 42.023438 47.75 42.132812 " fill-opacity="1" fill-rule="nonzero"/><path fill="#e9ad10" d="M 48.328125 42.464844 C 48.328125 42.574219 48.25 42.617188 48.160156 42.5625 C 48.066406 42.507812 47.992188 42.378906 47.992188 42.269531 C 47.992188 42.164062 48.066406 42.121094 48.160156 42.175781 C 48.25 42.226562 48.328125 42.359375 48.328125 42.464844 " fill-opacity="1" fill-rule="nonzero"/><path fill="#364852" d="M 48.902344 42.796875 C 48.902344 42.90625 48.828125 42.949219 48.734375 42.894531 C 48.640625 42.839844 48.566406 42.710938 48.566406 42.605469 C 48.566406 42.496094 48.640625 42.453125 48.734375 42.507812 C 48.828125 42.5625 48.902344 42.691406 48.902344 42.796875 " fill-opacity="1" fill-rule="nonzero"/><path fill="#dddaf1" d="M 53.660156 44.066406 L 41.566406 37.066406 L 41.195312 37.28125 L 53.285156 44.28125 L 53.660156 44.066406 " fill-opacity="1" fill-rule="nonzero"/><path fill="#8782bd" d="M 53.660156 46.171875 L 53.660156 44.066406 L 53.285156 44.28125 L 53.285156 46.390625 L 53.660156 46.171875 " fill-opacity="1" fill-rule="nonzero"/><path fill="#b2aede" d="M 53.285156 49.355469 L 41.195312 42.355469 L 41.195312 40.25 L 53.285156 47.25 L 53.285156 49.355469 " fill-opacity="1" fill-rule="nonzero"/><path fill="#e9ad10" d="M 42.914062 42.300781 C 42.914062 42.660156 42.664062 42.808594 42.351562 42.628906 C 42.039062 42.445312 41.785156 42.007812 41.785156 41.644531 C 41.785156 41.285156 42.039062 41.136719 42.351562 41.320312 C 42.664062 41.5 42.914062 41.9375 42.914062 42.300781 " fill-opacity="1" fill-rule="nonzero"/><path fill="#364852" d="M 43.371094 42.746094 L 44.441406 43.367188 L 44.441406 43 L 43.371094 42.382812 L 43.371094 42.746094 " fill-opacity="1" fill-rule="nonzero"/><path fill="#364852" d="M 44.898438 43.628906 L 46.523438 44.570312 L 46.523438 44.203125 L 44.898438 43.265625 L 44.898438 43.628906 " fill-opacity="1" fill-rule="nonzero"/><path fill="#e0183d" d="M 52.453125 48.152344 L 50.6875 47.128906 C 50.550781 47.050781 50.441406 46.835938 50.441406 46.65625 C 50.441406 46.472656 50.550781 46.386719 50.6875 46.46875 L 52.453125 47.488281 C 52.589844 47.566406 52.699219 47.78125 52.699219 47.964844 C 52.699219 48.144531 52.589844 48.230469 52.453125 48.152344 " fill-opacity="1" fill-rule="nonzero"/><path fill="#e9ad10" d="M 47.75 45.097656 C 47.75 45.207031 47.675781 45.25 47.582031 45.195312 C 47.492188 45.140625 47.417969 45.011719 47.417969 44.90625 C 47.417969 44.796875 47.492188 44.753906 47.582031 44.808594 C 47.675781 44.863281 47.75 44.992188 47.75 45.097656 " fill-opacity="1" fill-rule="nonzero"/><path fill="#e9ad10" d="M 48.328125 45.429688 C 48.328125 45.539062 48.25 45.582031 48.160156 45.527344 C 48.066406 45.476562 47.992188 45.34375 47.992188 45.238281 C 47.992188 45.128906 48.066406 45.085938 48.160156 45.140625 C 48.25 45.195312 48.328125 45.324219 48.328125 45.429688 " fill-opacity="1" fill-rule="nonzero"/><path fill="#e9ad10" d="M 48.902344 45.765625 C 48.902344 45.871094 48.828125 45.914062 48.734375 45.859375 C 48.640625 45.808594 48.566406 45.675781 48.566406 45.570312 C 48.566406 45.464844 48.640625 45.421875 48.734375 45.472656 C 48.828125 45.527344 48.902344 45.65625 48.902344 45.765625 " fill-opacity="1" fill-rule="nonzero"/><path fill="#dddaf1" d="M 53.660156 47.03125 L 41.566406 40.03125 L 41.195312 40.25 L 53.285156 47.246094 L 53.660156 47.03125 " fill-opacity="1" fill-rule="nonzero"/><path fill="#8782bd" d="M 53.660156 49.140625 L 53.660156 47.03125 L 53.285156 47.25 L 53.285156 49.355469 L 53.660156 49.140625 " fill-opacity="1" fill-rule="nonzero"/><path fill="#b2aede" d="M 53.285156 52.320312 L 41.195312 45.324219 L 41.195312 43.214844 L 53.285156 50.214844 L 53.285156 52.320312 " fill-opacity="1" fill-rule="nonzero"/><path fill="#e0183d" d="M 42.914062 45.265625 C 42.914062 45.628906 42.664062 45.773438 42.351562 45.59375 C 42.039062 45.414062 41.785156 44.972656 41.785156 44.613281 C 41.785156 44.25 42.039062 44.105469 42.351562 44.285156 C 42.664062 44.464844 42.914062 44.90625 42.914062 45.265625 " fill-opacity="1" fill-rule="nonzero"/><path fill="#364852" d="M 43.371094 45.714844 L 44.441406 46.332031 L 44.441406 45.96875 L 43.371094 45.347656 L 43.371094 45.714844 " fill-opacity="1" fill-rule="nonzero"/><path fill="#364852" d="M 44.898438 46.597656 L 46.523438 47.535156 L 46.523438 47.171875 L 44.898438 46.230469 L 44.898438 46.597656 " fill-opacity="1" fill-rule="nonzero"/><path fill="#e0183d" d="M 52.453125 51.117188 L 50.6875 50.09375 C 50.550781 50.015625 50.441406 49.804688 50.441406 49.621094 C 50.441406 49.4375 50.550781 49.355469 50.6875 49.433594 L 52.453125 50.457031 C 52.589844 50.535156 52.699219 50.746094 52.699219 50.929688 C 52.699219 51.113281 52.589844 51.195312 52.453125 51.117188 " fill-opacity="1" fill-rule="nonzero"/><path fill="#e9ad10" d="M 47.75 48.066406 C 47.75 48.171875 47.675781 48.214844 47.582031 48.160156 C 47.492188 48.109375 47.417969 47.976562 47.417969 47.871094 C 47.417969 47.765625 47.492188 47.722656 47.582031 47.773438 C 47.675781 47.828125 47.75 47.957031 47.75 48.066406 " fill-opacity="1" fill-rule="nonzero"/><path fill="#e9ad10" d="M 48.328125 48.398438 C 48.328125 48.503906 48.25 48.546875 48.160156 48.496094 C 48.066406 48.441406 47.992188 48.3125 47.992188 48.203125 C 47.992188 48.097656 48.066406 48.054688 48.160156 48.105469 C 48.25 48.160156 48.328125 48.289062 48.328125 48.398438 " fill-opacity="1" fill-rule="nonzero"/><path fill="#364852" d="M 48.902344 48.730469 C 48.902344 48.835938 48.828125 48.882812 48.734375 48.828125 C 48.640625 48.773438 48.566406 48.644531 48.566406 48.535156 C 48.566406 48.429688 48.640625 48.386719 48.734375 48.441406 C 48.828125 48.492188 48.902344 48.625 48.902344 48.730469 " fill-opacity="1" fill-rule="nonzero"/><path fill="#dddaf1" d="M 53.660156 49.996094 L 41.566406 43 L 41.195312 43.214844 L 53.285156 50.214844 L 53.660156 49.996094 " fill-opacity="1" fill-rule="nonzero"/><path fill="#8782bd" d="M 53.660156 52.105469 L 53.660156 50 L 53.285156 50.214844 L 53.285156 52.320312 L 53.660156 52.105469 " fill-opacity="1" fill-rule="nonzero"/></svg>