<svg width="80" height="80" viewBox="0 0 80 80" fill="none" xmlns="http://www.w3.org/2000/svg">
<path d="M29.9248 14.7586C30.2906 16.199 30.2906 17.708 29.9248 19.1484C29.437 21.0332 28.337 22.7026 26.7976 23.8944C25.2581 25.0862 23.3664 25.733 21.4195 25.7332H19.2246V21.3433H21.4195C22.5838 21.3433 23.7003 20.8808 24.5236 20.0576C25.3469 19.2343 25.8094 18.1177 25.8094 16.9535C25.8094 15.7892 25.3469 14.6727 24.5236 13.8494C23.7003 13.0262 22.5838 12.5637 21.4195 12.5637H19.2246V8.17383H21.4195C23.3664 8.17398 25.2581 8.82075 26.7976 10.0126C28.337 11.2044 29.437 12.8738 29.9248 14.7586Z" fill="#D8D7DA"/>
<path d="M34.589 14.7585V19.1484H29.9248C30.2906 17.708 30.2906 16.199 29.9248 14.7585H34.589Z" fill="#EE8700"/>
<path d="M34.5889 12.5637H62.6179C61.527 13.7652 60.9243 15.3308 60.9279 16.9536C60.9269 17.7218 61.0644 18.4839 61.3339 19.2033V19.2143L60.0938 21.3434H34.5889V12.5637Z" fill="#FF9811"/>
<path d="M66.8763 23.3518L54.0141 45.6192C47.7586 42.1951 47.7586 42.1951 46.4197 41.2294L57.8991 21.3434L59.1392 19.2144C60.9281 20.246 65.3179 22.4409 66.8763 23.3518ZM60.9281 54.2672L66.4154 65.2417H29.1018L34.5891 54.2672H60.9281Z" fill="#FF9811"/>
<path d="M54.0139 45.6192C54.2359 46.2843 54.3471 46.9813 54.3431 47.6824C54.342 48.9272 53.9881 50.1461 53.3225 51.1979C52.6568 52.2497 51.7067 53.0913 50.5823 53.6251C49.4578 54.1589 48.2051 54.363 46.9693 54.2139C45.7336 54.0647 44.5654 53.5683 43.6002 52.7823C42.6351 51.9963 41.9125 50.9528 41.5162 49.7728C41.12 48.5929 41.0663 47.3248 41.3613 46.1155C41.6564 44.9063 42.2882 43.8054 43.1835 42.9406C44.0787 42.0758 45.2007 41.4825 46.4195 41.2294C46.8602 41.1405 47.3088 41.0964 47.7584 41.0977C49.144 41.098 50.4943 41.5351 51.6173 42.3468C52.7403 43.1586 53.5789 44.3036 54.0139 45.6192ZM72.9999 65.2418V71.8265H22.5168V65.2418H72.9999Z" fill="#EE8700"/>
<path d="M32.3941 63.0466V67.4364C32.3941 68.6007 31.9316 69.7172 31.1083 70.5405C30.2851 71.3638 29.1685 71.8263 28.0042 71.8263H12.6398C11.4756 71.8263 10.359 71.3638 9.53575 70.5405C8.7125 69.7172 8.25 68.6007 8.25 67.4364V63.0466H32.3941ZM32.3941 38.9025V41.0974H8.25V38.9025C8.25 37.7383 8.7125 36.6217 9.53575 35.7984C10.359 34.9752 11.4756 34.5127 12.6398 34.5127H28.0042C29.1685 34.5127 30.2851 34.9752 31.1083 35.7984C31.9316 36.6217 32.3941 37.7383 32.3941 38.9025Z" fill="#E6E7E8"/>
<path d="M8.25 41.0977H32.3941V63.0468H8.25V41.0977Z" fill="#5AAAE7"/>
<path d="M47.7584 49.8771C48.9706 49.8771 49.9533 48.8944 49.9533 47.6822C49.9533 46.47 48.9706 45.4873 47.7584 45.4873C46.5462 45.4873 45.5635 46.47 45.5635 47.6822C45.5635 48.8944 46.5462 49.8771 47.7584 49.8771Z" fill="#CC7400"/>
<path d="M22.6508 54.1344C22.3451 53.8284 21.982 53.5857 21.5824 53.4202C21.1829 53.2546 20.7546 53.1693 20.322 53.1693C19.8895 53.1693 19.4612 53.2546 19.0616 53.4202C18.662 53.5857 18.299 53.8284 17.9932 54.1344L16.4414 52.5826C17.4717 51.5554 18.8672 50.9785 20.322 50.9785C21.7769 50.9785 23.1724 51.5554 24.2026 52.5826L22.6508 54.1344Z" fill="#1E81CE"/>
<path d="M25.7543 51.0296C24.3123 49.5911 22.3586 48.7833 20.3219 48.7833C18.2851 48.7833 16.3314 49.5911 14.8895 51.0296L13.3376 49.4778C15.1913 47.6278 17.7031 46.5889 20.3219 46.5889C22.9407 46.5889 25.4525 47.6278 27.3061 49.4778L25.7543 51.0296ZM20.3219 57.5594L18.7701 56.0076C19.1817 55.5962 19.7399 55.365 20.3219 55.365C20.9039 55.365 21.4621 55.5962 21.8737 56.0076L20.3219 57.5594Z" fill="#1E81CE"/>
<path d="M19.2246 66.3389H21.4195V68.5338H19.2246V66.3389Z" fill="#C6C5CA"/>
<path d="M33.4915 24.6357H35.6864V26.8307H33.4915V24.6357ZM37.8813 24.6357H46.6609V26.8307H37.8813V24.6357ZM59.9775 43.8412L66.5622 32.4365L68.463 33.5339L61.8783 44.9387L59.9775 43.8412ZM67.6597 30.5357L68.7572 28.6349L70.658 29.7323L69.5605 31.6331L67.6597 30.5357Z" fill="#FFA733"/>
<path d="M65.3179 23.5381C68.9546 23.5381 71.9026 20.5901 71.9026 16.9534C71.9026 13.3167 68.9546 10.3687 65.3179 10.3687C61.6812 10.3687 58.7332 13.3167 58.7332 16.9534C58.7332 20.5901 61.6812 23.5381 65.3179 23.5381Z" fill="#EE8700"/>
<path d="M65.3177 19.1484C66.5299 19.1484 67.5126 18.1657 67.5126 16.9535C67.5126 15.7412 66.5299 14.7585 65.3177 14.7585C64.1055 14.7585 63.1228 15.7412 63.1228 16.9535C63.1228 18.1657 64.1055 19.1484 65.3177 19.1484Z" fill="#CC7400"/>
</svg>
