<svg width="80" height="80" viewBox="0 0 80 80" fill="none" xmlns="http://www.w3.org/2000/svg">
<path d="M56 70.25C56 71.7688 54.7846 73 53.2854 73H18.7146C17.2154 73 16 71.7688 16 70.25V9.58492C16 9.52995 16 9.47497 16.0136 9.43368C16.0814 8.07246 17.1944 7 18.5517 7H53.2854C54.7846 7 56 8.23122 56 9.75L56 70.25Z" fill="#E5E8F9"/>
<path d="M18.5 23.6202C18.2236 23.6202 18 23.4611 18 23.2645V20.3558C18 20.1591 18.2236 20 18.5 20C18.7764 20 19 20.1591 19 20.3558V23.2645C19 23.4611 18.7764 23.6202 18.5 23.6202ZM18.5 43C18.2236 43 18 42.8409 18 42.6442V26.3337C18 26.1371 18.2236 25.9779 18.5 25.9779C18.7764 25.9779 19 26.1371 19 26.3337V42.6442C19 42.8409 18.7764 43 18.5 43Z" fill="white"/>
<path d="M56 16.2482V9.75C56 8.23122 54.7847 7 53.2857 7H18.7143C17.2153 7 16 8.23122 16 9.75V16.2482H56ZM16 62.3475V70.25C16 71.7688 17.2153 73 18.7143 73H53.2857C54.7847 73 56 71.7688 56 70.25V62.3475H16Z" fill="#666666"/>
<path d="M39.126 69H31.874C31.3106 69 30.8536 68.539 30.8536 67.9707C30.8536 67.4025 31.3106 66.9415 31.874 66.9415H39.126C39.6893 66.9415 40.1464 67.4025 40.1464 67.9707C40.1464 68.539 39.6894 69 39.126 69ZM34.9011 13.0585H31.0204C30.457 13.0585 30 12.5975 30 12.0293C30 11.461 30.457 11 31.0204 11H34.9011C35.4645 11 35.9215 11.461 35.9215 12.0293C35.9215 12.5975 35.4645 13.0585 34.9011 13.0585ZM39.9796 13.0585H38.9679C38.4046 13.0585 37.9476 12.5975 37.9476 12.0293C37.9476 11.461 38.4046 11 38.9679 11H39.9796C40.543 11 41 11.461 41 12.0293C41 12.5975 40.543 13.0585 39.9796 13.0585Z" fill="#4C4947"/>
<path d="M49 33.5075C49 40.35 43.2567 46 36.0078 46C28.8827 46 23 40.4686 23 33.5075C23 26.6053 28.8295 21 36.0078 21C43.1861 21 49 26.6053 49 33.5075Z" fill="#FF4848"/>
<path d="M39.7173 31.2267C39.7173 33.5609 37.8324 35.4483 35.5025 35.4483C33.1882 35.4483 31.2827 33.5781 31.2827 31.2267C31.2827 28.8942 33.1738 27 35.5025 27C37.8312 27 39.7173 28.8942 39.7173 31.2267ZM45 41.7154C42.6873 44.3497 39.2864 46 35.5075 46C31.7287 46 28.3277 44.3497 26 41.7154C28.3126 39.066 31.7136 37.4006 35.5075 37.4006C39.3015 37.4006 42.7024 39.066 45 41.7154Z" fill="#FFCC33"/>
<path d="M27 52H21V57H27V52Z" fill="#6699FF"/>
<path d="M39 52H33V57H39V52Z" fill="#6699FF"/>
<path d="M51 52H45V57H51V52Z" fill="#6699FF"/>
<path d="M64.4922 27.2839C65.325 23.7556 63.14 20.2201 59.6117 19.3873C56.0834 18.5544 52.548 20.7394 51.7151 24.2677C50.8822 27.796 53.0673 31.3314 56.5956 32.1643C60.1238 32.9972 63.6593 30.8121 64.4922 27.2839Z" fill="#77E244"/>
<path d="M56.9067 28C56.7369 28 56.5671 27.9319 56.4375 27.7956L55.1944 26.4891C54.9352 26.2166 54.9352 25.7752 55.1944 25.5027C55.4537 25.2303 55.8736 25.2303 56.1329 25.5027L56.9067 26.3161L59.8671 23.2044C60.1264 22.9319 60.5463 22.9319 60.8056 23.2044C61.0648 23.4768 61.0648 23.9183 60.8056 24.1907L57.3759 27.7956C57.2463 27.9319 57.0765 28 56.9067 28Z" fill="white"/>
</svg>
