<svg width="80" height="80" viewBox="0 0 80 80" fill="none" xmlns="http://www.w3.org/2000/svg">
<path d="M67.9884 33.4268V44.3893H58.739L58.6645 40.4727L58.5347 33.4268H67.9884Z" fill="#FEB69E"/>
<path d="M66.5732 33.4272C66.2876 37.369 62.9914 40.4852 58.969 40.4852C58.8697 40.4852 58.7641 40.4852 58.6648 40.4728L58.5344 33.4272H66.5732Z" fill="#F8957E"/>
<path d="M68.1654 25.3363V31.8899C68.1654 36.1029 64.7468 39.5145 60.5338 39.5145C56.874 39.5145 53.8099 36.9398 53.0723 33.4999C53.0085 33.2091 52.9659 32.9112 52.9376 32.6133C52.9163 32.3722 52.9021 32.131 52.9021 31.8899V25.3363C52.9021 21.1232 56.3208 17.7046 60.5338 17.7046C62.6403 17.7046 64.5482 18.5557 65.9313 19.9388C67.3143 21.3219 68.1654 23.2298 68.1654 25.3363Z" fill="#FEB69E"/>
<path d="M70.8841 22.8354L56.9393 24.3079C54.7649 24.5375 52.6267 23.5349 51.1674 21.595C49.3229 19.143 47.2219 15.9137 47.8701 14.6604C49.847 10.8379 59.0706 12.012 65.2238 13.2842C68.4994 13.9615 70.8841 17.37 70.8841 21.3424V22.8354Z" fill="#272D4F"/>
<path d="M64.7608 28.4446C63.3555 28.4446 62.2163 27.3054 62.2163 25.9001V21.1377H64.7608V28.4446Z" fill="#272D4F"/>
<path d="M67.9901 33.426C67.9901 33.426 66.5982 32.0937 67.0072 29.5754C67.4161 27.0571 68.4708 24.0438 66.4906 23.8286C64.5104 23.6134 63.714 24.2591 63.714 24.2591C63.714 24.2591 63.6925 19.7821 63.8647 19.6745C64.0369 19.5669 66.7919 18.1894 67.0072 18.1463C67.2224 18.1033 71.2294 15.8842 73.4033 18.5316C75.5772 21.179 72.3307 32.2184 67.9901 33.426ZM12.1958 45.9674C12.1958 45.9674 12.4358 47.9103 13.9297 48.4185C13.972 48.4326 14.02 48.4468 14.0737 48.4609H14.0765C14.229 48.5004 14.4323 48.5428 14.6808 48.5852C15.5647 48.7405 17.0049 48.924 18.6399 49.1754C18.8263 49.2064 19.0127 49.2347 19.2047 49.2657C19.6255 49.3335 20.0547 49.4069 20.4867 49.4832C20.6759 49.517 20.8652 49.5538 21.0544 49.5876C21.5231 49.6752 21.9919 49.7712 22.455 49.8729C22.6386 49.9124 22.8221 49.9548 23.0028 49.9971C24.7141 50.4009 26.3096 50.9092 27.4166 51.5615C27.891 51.8383 28.2751 52.1433 28.5433 52.4793C28.4643 52.2393 26.1967 45.3377 29.9186 40.1106C33.7082 34.7904 27.1709 32.4607 27.1709 32.4607C27.1709 32.4607 22.0568 31.9213 19.5633 31.6361H19.5605C19.4673 31.6249 19.377 31.6136 19.2922 31.6051C18.7105 31.5373 18.318 31.4865 18.2389 31.4695C17.8436 31.3764 13.2265 33.8642 13.2265 33.8642L13.0119 34.3386C13.0119 34.3386 14.3843 36.8265 14.469 38.0775C14.7514 42.2963 12.1958 45.9674 12.1958 45.9674Z" fill="#272D4F"/>
<path d="M18.6399 49.1753C18.8263 49.2064 19.0126 49.2346 19.2047 49.2657C20.685 44.7409 20.2261 39.9396 19.4193 35.2563L18.863 35.3524C19.6516 39.9467 20.1258 44.7312 18.6399 49.1753Z" fill="white"/>
<path d="M22.4548 49.8728C22.6384 49.9123 22.8219 49.9547 23.0027 49.9971C24.2958 44.2099 28.4795 43.2004 25.739 39.1166C24.9924 37.9911 23.7583 36.7344 23.8583 35.2959L23.2963 35.2563C23.1479 37.4112 25.1827 38.7585 25.8548 40.5144C26.9629 43.372 23.6668 44.4522 22.4548 49.8728Z" fill="#64B5F4"/>
<path d="M20.7097 45.4337C20.5205 46.7722 20.4442 48.1305 20.4866 49.4831C20.6758 49.517 20.865 49.5537 21.0542 49.5876C21.0062 48.2265 21.0768 46.8597 21.2688 45.5128C21.4361 44.3381 21.6719 43.5399 22.6271 42.9684H22.63C23.552 42.3577 24.0108 41.6317 23.3924 39.7012C22.4803 36.8547 21.1954 34.1409 19.5632 31.6361H19.5604C19.5321 31.5881 19.4982 31.5373 19.4672 31.4893L19.2921 31.6051L18.9956 31.7999C20.6447 34.3019 21.9438 37.0185 22.8559 39.8734C23.0903 40.6048 23.2964 41.5169 22.8192 42.0902C22.7118 42.2201 22.5678 42.3246 22.4153 42.4318H22.4125C21.5956 42.9941 21.0014 43.3704 20.7097 45.4337Z" fill="#FEC400"/>
<path d="M14.0764 48.4607C14.2289 48.5002 14.4322 48.5426 14.6807 48.5849L16.2282 46.419C17.0552 45.265 18.2075 43.7028 19.5971 43.355C21.6631 42.6559 25.2818 44.0554 26.3547 38.9724C26.4648 38.4584 26.5383 37.936 26.6089 37.4277C26.7218 36.6257 26.8376 35.7955 27.0974 35.0274L26.5609 34.8467C26.2869 35.6628 26.1655 36.5212 26.0497 37.3486C25.9791 37.8456 25.9057 38.3624 25.8012 38.8566C24.8784 43.4717 21.7173 42.0281 19.2809 42.8609C17.7927 43.3861 16.8099 44.6343 15.7679 46.0914L14.0764 48.4607Z" fill="#FF4F5A"/>
<path d="M8.53027 24.6895C8.53027 31.6673 14.1837 37.3208 21.1615 37.3208C22.6526 37.3208 24.0843 37.061 25.4115 36.5865C25.0952 35.8382 25.0077 35.3017 25.0077 35.3017C24.9512 35.0814 24.9145 34.7369 24.8919 34.3218C24.7987 32.5738 24.971 29.5974 24.971 29.5974C25.1404 29.2868 25.2901 28.9846 25.42 28.691C28.5545 21.7583 21.9748 19.9369 21.9748 19.9369L21.8421 12.0808C21.6162 12.0667 21.3903 12.061 21.1615 12.061C14.1837 12.061 8.53027 17.7145 8.53027 24.6895Z" fill="#FEC400"/>
<path d="M14.7028 27.5369C14.7937 27.821 14.9073 28.0938 15.0551 28.3551L14.1216 30.4656C14.0541 30.6183 14.0874 30.7967 14.2055 30.9148L16.1775 32.8868C16.2956 33.0048 16.474 33.0381 16.6267 32.9706L18.7371 32.0372C18.9986 32.1849 19.2713 32.2986 19.5554 32.3895L20.3871 34.5296C20.4475 34.685 20.5971 34.7873 20.7638 34.7873H23.5628C23.7297 34.7873 23.8795 34.6847 23.9397 34.529L24.7716 32.3781C25.0557 32.2872 25.3285 32.1735 25.5899 32.0372L27.6894 32.9702C27.8418 33.038 28.0203 33.0051 28.1385 32.8874L30.121 30.9145C30.2394 30.7966 30.273 30.6181 30.2058 30.4652L29.2719 28.3437C29.4083 28.0824 29.522 27.8097 29.6128 27.5369L31.7531 26.7052C31.9084 26.6448 32.0108 26.4952 32.0108 26.3285V23.5302C32.0108 23.3629 31.9077 23.213 31.7515 23.153L29.6128 22.332C29.522 22.0479 29.4083 21.7752 29.2719 21.5137L30.2054 19.4033C30.2729 19.2507 30.2396 19.0722 30.1216 18.9541L28.1382 16.9707C28.0201 16.8526 27.8417 16.8193 27.689 16.8869L25.5785 17.8203C25.3171 17.6953 25.0444 17.5817 24.7716 17.4908L23.9397 15.3399C23.8795 15.1842 23.7297 15.0815 23.5628 15.0815H20.7638C20.5971 15.0815 20.4475 15.1839 20.3871 15.3393L19.5554 17.4794C19.2827 17.5703 19.0099 17.684 18.7485 17.8203L16.6271 16.8865C16.4742 16.8192 16.2957 16.8529 16.1779 16.9713L14.2049 18.9538C14.0872 19.0721 14.0542 19.2505 14.122 19.403L15.0551 21.5024C14.9187 21.7638 14.7937 22.0479 14.7028 22.332L12.5642 23.153C12.408 23.213 12.3049 23.3629 12.3049 23.5302V26.3285C12.3049 26.4952 12.4073 26.6448 12.5626 26.7052L14.7028 27.5369Z" fill="white"/>
<path d="M26.7541 25.4098C26.7541 28.4342 24.2954 30.8929 21.2637 30.8929C18.2392 30.8929 15.7805 28.4342 15.7805 25.4098C15.7805 22.3708 18.2392 19.9121 21.2637 19.9121C24.2954 19.9121 26.7541 22.3708 26.7541 25.4098Z" fill="#272D4F"/>
<path d="M23.9007 25.4644C23.9007 26.9042 22.7279 28.0769 21.2848 28.0769C19.8451 28.0769 18.6724 26.9042 18.6724 25.4644C18.6724 24.0146 19.8451 22.8452 21.2848 22.8452C22.7279 22.8452 23.9007 24.0146 23.9007 25.4644Z" fill="white"/>
<path d="M21.825 11.0242L21.8419 12.0803L21.9746 19.9364C21.9746 19.9364 28.5543 21.7578 25.4198 28.6905C25.2899 28.9842 25.1402 29.2863 24.9708 29.5969C24.9708 29.5969 24.7985 32.5733 24.8917 34.3213C24.9143 34.7364 24.951 35.081 25.0075 35.3012C25.0075 35.3012 25.095 35.8378 25.4113 36.5861C25.9535 37.8681 27.1678 39.7743 29.7629 40.6779C31.5843 41.3105 36.7266 41.9882 37.4383 40.003C38.1499 38.0206 37.026 36.4844 37.1022 36.1484C37.1756 35.8123 37.8505 35.2108 37.3648 34.6122C37.3648 34.6122 37.9889 33.6775 37.6755 33.1523C37.3648 32.6298 37.2152 31.0936 37.2152 31.0936C37.2152 31.0936 39.7228 31.0936 39.6861 29.6337C39.6465 28.1737 36.2409 23.7938 36.2409 23.7938C36.2409 23.7938 37.1756 21.8087 37.0655 21.4698C36.9526 21.1337 34.1061 10.4256 21.825 11.0242Z" fill="#B3D4FF"/>
<path d="M13.4751 31.585C14.0596 32.2374 14.7261 32.8163 15.4603 33.2992C15.5026 33.3302 15.545 33.3585 15.5902 33.3839C17.197 34.4174 19.1087 35.016 21.1617 35.016C22.4748 35.016 23.7343 34.7704 24.8921 34.3214C24.8554 33.6465 24.861 32.788 24.878 31.986C24.8808 31.8844 24.8808 31.7827 24.8836 31.681C24.9175 30.543 24.9712 29.597 24.9712 29.597C25.1406 29.2864 25.2903 28.9843 25.4202 28.6906C24.3584 29.8286 22.8448 30.5374 21.1617 30.5374C19.5945 30.5374 18.174 29.9218 17.1264 28.9193C16.8073 28.6115 16.3216 28.5578 15.9375 28.7809L13.7321 30.0601C13.1871 30.3764 13.0543 31.1191 13.4751 31.585Z" fill="#64B5F4"/>
<path d="M15.3723 33.2028L15.4599 33.2989L15.5615 33.4118L15.5898 33.3836L17.4902 31.6638C17.6738 31.4972 17.9477 31.4661 18.168 31.5904C19.1366 32.1382 21.6837 33.2311 24.8775 31.9857C24.8804 31.8841 24.8804 31.7824 24.8832 31.6808C21.7515 32.9487 19.2523 31.8756 18.3092 31.3447C17.9816 31.1612 17.5749 31.2035 17.2982 31.4549L15.3723 33.2028ZM31.268 24.4459C31.268 24.4459 34.0241 26.1092 34.6171 25.9341C34.6454 25.9257 34.6736 25.9144 34.699 25.9003C34.7838 25.8551 34.8572 25.7816 34.9193 25.6885C35.2469 25.2112 35.3175 24.2511 35.3175 24.2511C35.3175 24.2511 35.3288 23.548 34.9843 23.1667C34.908 23.0848 34.8148 23.017 34.7019 22.9775C34.6539 22.9577 34.603 22.9464 34.5494 22.938C33.7643 22.8279 31.268 24.4459 31.268 24.4459Z" fill="#222333"/>
<path d="M37.1024 36.1485C37.1758 35.8124 37.8507 35.2109 37.365 34.6123C37.365 34.6123 37.9891 33.6775 37.6756 33.1523C37.6756 33.1523 36.1705 33.5505 35.4561 34.3158C34.7416 35.0839 36.5517 36.0468 37.1024 36.1485Z" fill="#7D9CE3"/>
<path d="M31.7742 35.4369C35.0888 34.3578 37.3172 34.7469 37.3397 34.7513L37.3908 34.4736C37.2977 34.4562 35.075 34.066 31.6868 35.1683L31.7742 35.4369Z" fill="#222333"/>
<path d="M31.8841 41.18L32.1663 41.1695L31.9037 34.0364C31.8828 33.4281 31.6355 32.8542 31.208 32.4204L26.0517 27.1821L25.8508 27.3807L31.0068 32.6184C31.3846 33.0017 31.603 33.5089 31.6216 34.0466L31.8841 41.18Z" fill="#222333"/>
<path d="M6 68.6126H34.5468C34.5468 68.6126 31.9376 55.3935 28.5461 52.4849C28.1987 52.1883 27.8203 51.8777 27.4165 51.5614C23.8528 49.4576 15.2484 48.8674 13.9296 48.4184C12.4358 47.9102 12.1957 45.9673 12.1957 45.9673C12.1957 45.9673 11.2779 46.758 9.31808 51.4344C7.35547 56.1079 6 68.6126 6 68.6126Z" fill="#B3D4FF"/>
<path d="M33.9031 24.4408C33.9031 25.0988 34.2335 25.6607 34.6994 25.9008C34.7841 25.8556 34.8576 25.7821 34.9197 25.689C34.4961 25.5337 34.1855 25.0338 34.1855 24.4408C34.1855 23.8167 34.53 23.2943 34.9846 23.1672C34.9084 23.0853 34.8152 23.0175 34.7022 22.978C34.2335 23.2152 33.9031 23.7828 33.9031 24.4408Z" fill="#F8C51A"/>
<path d="M74.0879 45.6781V67.9277C74.0879 68.5164 73.6127 68.9987 73.0169 68.9987H51.1432C50.5475 68.9987 50.0723 68.5164 50.0723 67.9277V56.3454C50.0723 52.1536 51.7958 48.3591 54.569 45.6355C54.6115 45.6072 54.6541 45.5646 54.6966 45.5149C54.7392 45.4724 54.7888 45.4227 54.8456 45.3802C57.5266 42.8836 61.1084 41.3657 65.0519 41.3657H69.7756C72.1587 41.3657 74.0879 43.2949 74.0879 45.6781Z" fill="#64B5F4"/>
<path d="M74.0882 45.132V67.9277C74.0882 68.5165 73.613 68.9987 73.0172 68.9987H66.4707V45.132C66.4707 43.2099 67.8963 41.6212 69.7475 41.3658C69.9177 41.3374 70.1021 41.3232 70.2794 41.3232C71.3291 41.3232 72.2867 41.7488 72.9746 42.4368C73.6626 43.1248 74.0882 44.0752 74.0882 45.132Z" fill="#64B5F4"/>
<path d="M64.7346 56.105H63.7131V68.9998H64.7346V56.105Z" fill="#2B9BED"/>
<path d="M67.2507 41.3657C64.7186 42.0041 56.4415 44.1532 54.8457 45.3802C57.5267 42.8836 61.1085 41.3657 65.052 41.3657H67.2507Z" fill="#FEB69E"/>
<path d="M54.0106 28.1472C54.3161 28.1472 54.5638 27.6932 54.5638 27.1331C54.5638 26.5731 54.3161 26.1191 54.0106 26.1191C53.705 26.1191 53.4573 26.5731 53.4573 27.1331C53.4573 27.6932 53.705 28.1472 54.0106 28.1472Z" fill="#0E0F16"/>
<path d="M55.4698 33.2734C55.0513 33.55 54.5549 33.6919 54.0584 33.6919C53.9662 33.6919 53.8811 33.6919 53.7889 33.6777C53.5406 33.6564 53.2995 33.5926 53.0725 33.5003C53.0087 33.2095 52.9661 32.9116 52.9377 32.6138C53.2073 32.8123 53.5335 32.94 53.8669 32.9755C54.2783 33.0181 54.7251 32.9116 55.0797 32.6776C55.2428 32.5712 55.4627 32.6138 55.5691 32.784C55.6755 32.9471 55.6329 33.167 55.4698 33.2734Z" fill="#F8957E"/>
</svg>
