<svg width="80" height="80" viewBox="0 0 80 80" fill="none" xmlns="http://www.w3.org/2000/svg">
<path d="M58.8571 32.1316H41.0476V28.0263C41.0476 27.7541 40.9372 27.4931 40.7408 27.3006C40.5443 27.1081 40.2778 27 40 27C39.7222 27 39.4557 27.1081 39.2592 27.3006C39.0628 27.4931 38.9524 27.7541 38.9524 28.0263V32.1316H21.1429C20.3096 32.1324 19.5107 32.457 18.9214 33.0343C18.3322 33.6115 18.0008 34.3942 18 35.2105V38.2895C18 38.5617 18.1104 38.8227 18.3068 39.0152C18.5033 39.2077 18.7698 39.3158 19.0476 39.3158C19.3255 39.3158 19.5919 39.2077 19.7884 39.0152C19.9849 38.8227 20.0952 38.5617 20.0952 38.2895V35.2105C20.0952 34.9383 20.2056 34.6773 20.4021 34.4848C20.5985 34.2923 20.865 34.1842 21.1429 34.1842H38.9524V38.2895C38.9524 38.5617 39.0628 38.8227 39.2592 39.0152C39.4557 39.2077 39.7222 39.3158 40 39.3158C40.2778 39.3158 40.5443 39.2077 40.7408 39.0152C40.9372 38.8227 41.0476 38.5617 41.0476 38.2895V34.1842H58.8571C59.135 34.1842 59.4015 34.2923 59.5979 34.4848C59.7944 34.6773 59.9048 34.9383 59.9048 35.2105V38.2895C59.9048 38.5617 60.0151 38.8227 60.2116 39.0152C60.4081 39.2077 60.6745 39.3158 60.9524 39.3158C61.2302 39.3158 61.4967 39.2077 61.6932 39.0152C61.8896 38.8227 62 38.5617 62 38.2895V35.2105C61.9992 34.3942 61.6678 33.6115 61.0786 33.0343C60.4893 32.457 59.6904 32.1324 58.8571 32.1316ZM60.9524 44.4474C60.6745 44.4474 60.4081 44.5555 60.2116 44.748C60.0151 44.9404 59.9048 45.2015 59.9048 45.4737V51.6316C59.9048 51.9038 60.0151 52.1648 60.2116 52.3573C60.4081 52.5498 60.6745 52.6579 60.9524 52.6579C61.2302 52.6579 61.4967 52.5498 61.6932 52.3573C61.8896 52.1648 62 51.9038 62 51.6316V45.4737C62 45.2015 61.8896 44.9404 61.6932 44.748C61.4967 44.5555 61.2302 44.4474 60.9524 44.4474ZM60.9524 57.7895C60.6745 57.7895 60.4081 57.8976 60.2116 58.0901C60.0151 58.2825 59.9048 58.5436 59.9048 58.8158V64.9737C59.9048 65.2459 60.0151 65.5069 60.2116 65.6994C60.4081 65.8919 60.6745 66 60.9524 66C61.2302 66 61.4967 65.8919 61.6932 65.6994C61.8896 65.5069 62 65.2459 62 64.9737V58.8158C62 58.5436 61.8896 58.2825 61.6932 58.0901C61.4967 57.8976 61.2302 57.7895 60.9524 57.7895ZM40 44.4474C39.7222 44.4474 39.4557 44.5555 39.2592 44.748C39.0628 44.9404 38.9524 45.2015 38.9524 45.4737V51.6316C38.9524 51.9038 39.0628 52.1648 39.2592 52.3573C39.4557 52.5498 39.7222 52.6579 40 52.6579C40.2778 52.6579 40.5443 52.5498 40.7408 52.3573C40.9372 52.1648 41.0476 51.9038 41.0476 51.6316V45.4737C41.0476 45.2015 40.9372 44.9404 40.7408 44.748C40.5443 44.5555 40.2778 44.4474 40 44.4474ZM40 57.7895C39.7222 57.7895 39.4557 57.8976 39.2592 58.0901C39.0628 58.2825 38.9524 58.5436 38.9524 58.8158V64.9737C38.9524 65.2459 39.0628 65.5069 39.2592 65.6994C39.4557 65.8919 39.7222 66 40 66C40.2778 66 40.5443 65.8919 40.7408 65.6994C40.9372 65.5069 41.0476 65.2459 41.0476 64.9737V58.8158C41.0476 58.5436 40.9372 58.2825 40.7408 58.0901C40.5443 57.8976 40.2778 57.7895 40 57.7895ZM19.0476 44.4474C18.7698 44.4474 18.5033 44.5555 18.3068 44.748C18.1104 44.9404 18 45.2015 18 45.4737V51.6316C18 51.9038 18.1104 52.1648 18.3068 52.3573C18.5033 52.5498 18.7698 52.6579 19.0476 52.6579C19.3255 52.6579 19.5919 52.5498 19.7884 52.3573C19.9849 52.1648 20.0952 51.9038 20.0952 51.6316V45.4737C20.0952 45.2015 19.9849 44.9404 19.7884 44.748C19.5919 44.5555 19.3255 44.4474 19.0476 44.4474ZM19.0476 57.7895C18.7698 57.7895 18.5033 57.8976 18.3068 58.0901C18.1104 58.2825 18 58.5436 18 58.8158V64.9737C18 65.2459 18.1104 65.5069 18.3068 65.6994C18.5033 65.8919 18.7698 66 19.0476 66C19.3255 66 19.5919 65.8919 19.7884 65.6994C19.9849 65.5069 20.0952 65.2459 20.0952 64.9737V58.8158C20.0952 58.5436 19.9849 58.2825 19.7884 58.0901C19.5919 57.8976 19.3255 57.7895 19.0476 57.7895Z" fill="#7188EA"/>
<path d="M45 13.2857H35C34.7348 13.2857 34.4804 13.1753 34.2929 12.9789C34.1054 12.7824 34 12.5159 34 12.2381V10.1429C34.0008 9.30958 34.3171 8.51066 34.8796 7.92144C35.442 7.33222 36.2046 7.00083 37 7H43C43.7954 7.00083 44.558 7.33222 45.1204 7.92144C45.6829 8.51066 45.9992 9.30958 46 10.1429V12.2381C46 12.5159 45.8946 12.7824 45.7071 12.9789C45.5196 13.1753 45.2652 13.2857 45 13.2857ZM36 11.1905H44V10.1429C44 9.86501 43.8946 9.59855 43.7071 9.40208C43.5196 9.20561 43.2652 9.09524 43 9.09524H37C36.7348 9.09524 36.4804 9.20561 36.2929 9.40208C36.1054 9.59855 36 9.86501 36 10.1429V11.1905ZM50.585 17.3274C50.4564 17.2304 50.3077 17.1668 50.151 17.1419C49.9944 17.1169 49.8343 17.1313 49.684 17.1839L40 20.5625L30.316 17.1839C30.1657 17.1314 30.0056 17.1172 29.849 17.1422C29.6923 17.1673 29.5436 17.231 29.4151 17.3281C29.2866 17.4252 29.1819 17.5529 29.1097 17.7007C29.0376 17.8485 29 18.0121 29 18.1781V25.8571C29.0008 26.6904 29.3171 27.4893 29.8796 28.0786C30.442 28.6678 31.2046 28.9992 32 29H48C48.7954 28.9992 49.558 28.6678 50.1204 28.0786C50.6829 27.4893 50.9992 26.6904 51 25.8571V18.1781C51.0001 18.012 50.9625 17.8483 50.8903 17.7004C50.8182 17.5525 50.7135 17.4247 50.585 17.3274Z" fill="#845340"/>
<path d="M51 11H29C28.4698 11.0008 27.9616 11.2118 27.5867 11.5867C27.2118 11.9616 27.0008 12.4699 27 13.0001V16.2802C26.9996 16.6998 27.1315 17.1089 27.3769 17.4493C27.6223 17.7896 27.9688 18.044 28.367 18.1762L39.684 21.9484C39.889 22.0172 40.111 22.0172 40.316 21.9484L51.632 18.1772C52.0307 18.0449 52.3775 17.7903 52.6231 17.4495C52.8687 17.1088 53.0006 16.6992 53 16.2792V13.0001C52.9992 12.4699 52.7882 11.9616 52.4133 11.5867C52.0384 11.2118 51.5302 11.0008 51 11Z" fill="#9B6B53"/>
<path d="M40 24C39.7348 24 39.4804 23.8946 39.2929 23.7071C39.1054 23.5196 39 23.2652 39 23V20C39 19.7348 39.1054 19.4804 39.2929 19.2929C39.4804 19.1054 39.7348 19 40 19C40.2652 19 40.5196 19.1054 40.7071 19.2929C40.8946 19.4804 41 19.7348 41 20V23C41 23.2652 40.8946 23.5196 40.7071 23.7071C40.5196 23.8946 40.2652 24 40 24Z" fill="#774436"/>
<path d="M47 64H33C32.4477 64 32 64.4477 32 65V72C32 72.5523 32.4477 73 33 73H47C47.5523 73 48 72.5523 48 72V65C48 64.4477 47.5523 64 47 64Z" fill="#8CA8F9"/>
<path d="M26.9375 64H12.0625C11.4757 64 11 64.4477 11 65V72C11 72.5523 11.4757 73 12.0625 73H26.9375C27.5243 73 28 72.5523 28 72V65C28 64.4477 27.5243 64 26.9375 64Z" fill="#8CA8F9"/>
<path d="M67.9375 64H53.0625C52.4757 64 52 64.4477 52 65V72C52 72.5523 52.4757 73 53.0625 73H67.9375C68.5243 73 69 72.5523 69 72V65C69 64.4477 68.5243 64 67.9375 64Z" fill="#8CA8F9"/>
<path d="M47 50H33C32.4477 50 32 50.4975 32 51.1111V58.8889C32 59.5025 32.4477 60 33 60H47C47.5523 60 48 59.5025 48 58.8889V51.1111C48 50.4975 47.5523 50 47 50Z" fill="#8CA8F9"/>
<path d="M26.9375 50H12.0625C11.4757 50 11 50.4975 11 51.1111V58.8889C11 59.5025 11.4757 60 12.0625 60H26.9375C27.5243 60 28 59.5025 28 58.8889V51.1111C28 50.4975 27.5243 50 26.9375 50Z" fill="#8CA8F9"/>
<path d="M67.9375 50H53.0625C52.4757 50 52 50.4975 52 51.1111V58.8889C52 59.5025 52.4757 60 53.0625 60H67.9375C68.5243 60 69 59.5025 69 58.8889V51.1111C69 50.4975 68.5243 50 67.9375 50Z" fill="#8CA8F9"/>
<path d="M47 37H33C32.4477 37 32 37.4477 32 38V45C32 45.5523 32.4477 46 33 46H47C47.5523 46 48 45.5523 48 45V38C48 37.4477 47.5523 37 47 37Z" fill="#8CA8F9"/>
<path d="M26.9375 37H12.0625C11.4757 37 11 37.4477 11 38V45C11 45.5523 11.4757 46 12.0625 46H26.9375C27.5243 46 28 45.5523 28 45V38C28 37.4477 27.5243 37 26.9375 37Z" fill="#8CA8F9"/>
<path d="M67.9375 37H53.0625C52.4757 37 52 37.4477 52 38V45C52 45.5523 52.4757 46 53.0625 46H67.9375C68.5243 46 69 45.5523 69 45V38C69 37.4477 68.5243 37 67.9375 37Z" fill="#8CA8F9"/>
</svg>
