<svg xmlns="http://www.w3.org/2000/svg" xmlns:xlink="http://www.w3.org/1999/xlink" width="40" zoomAndPan="magnify" viewBox="0 0 30 30.000001" height="40" preserveAspectRatio="xMidYMid meet" version="1.0"><defs><clipPath id="2465b49129"><path d="M 0.484375 0 L 29.515625 0 L 29.515625 29.03125 L 0.484375 29.03125 Z M 0.484375 0 " clip-rule="nonzero"/></clipPath></defs><g clip-path="url(#2465b49129)"><path fill="#050a30" d="M 29.15625 21.3125 C 29.367188 21.878906 29.492188 22.488281 29.511719 23.125 C 29.515625 23.183594 29.515625 23.246094 29.515625 23.308594 C 29.515625 26.46875 26.953125 29.03125 23.792969 29.03125 C 10.917969 29.03125 0.484375 18.597656 0.484375 5.722656 C 0.484375 2.5625 3.046875 0 6.207031 0 C 6.269531 0 6.332031 0 6.390625 0.00390625 C 7.027344 0.0234375 7.640625 0.148438 8.207031 0.359375 L 10.355469 9.664062 C 10.355469 9.667969 10.351562 9.671875 10.347656 9.671875 L 6.40625 11.445312 L 6.394531 11.449219 C 8.203125 16.957031 12.558594 21.3125 18.066406 23.121094 L 18.070312 23.109375 L 19.84375 19.164062 L 29.15625 21.3125 " fill-opacity="1" fill-rule="nonzero"/></g></svg>