<svg xmlns="http://www.w3.org/2000/svg" xmlns:xlink="http://www.w3.org/1999/xlink" width="50" zoomAndPan="magnify" viewBox="0 0 37.5 37.499999" height="50" preserveAspectRatio="xMidYMid meet" version="1.0"><defs><clipPath id="e9d6c50107"><path d="M 0 0 L 37.007812 0 L 37.007812 37.007812 L 0 37.007812 Z M 0 0 " clip-rule="nonzero"/></clipPath></defs><g clip-path="url(#e9d6c50107)"><path fill="#ffffff" d="M 0 0 L 37.5 0 L 37.5 37.5 L 0 37.5 Z M 0 0 " fill-opacity="1" fill-rule="nonzero"/><path fill="#ffffff" d="M 0 0 L 37.5 0 L 37.5 37.5 L 0 37.5 Z M 0 0 " fill-opacity="1" fill-rule="nonzero"/><path fill="#050a30" d="M 37.035156 27.527344 C 37.308594 28.261719 37.46875 29.046875 37.492188 29.867188 C 37.5 29.945312 37.5 30.023438 37.5 30.105469 C 37.5 34.1875 34.1875 37.5 30.105469 37.5 C 13.476562 37.5 0 24.019531 0 7.394531 C 0 3.3125 3.3125 0 7.394531 0 C 7.476562 0 7.554688 0 7.632812 0.0078125 C 8.453125 0.03125 9.242188 0.191406 9.972656 0.464844 L 12.75 12.480469 C 12.75 12.488281 12.746094 12.492188 12.742188 12.492188 L 7.648438 14.78125 L 7.636719 14.789062 C 9.972656 21.902344 15.597656 27.527344 22.710938 29.863281 L 22.71875 29.851562 L 25.007812 24.757812 L 37.035156 27.527344 " fill-opacity="1" fill-rule="nonzero"/></g></svg>