<svg xmlns="http://www.w3.org/2000/svg" width="155" height="155" id="mobile"><circle cx="77.5" cy="77.5" r="77.5" fill="#21D8DE"></circle><path fill="#242D3C" d="M101.384 18.5H53.625c-4.521 0-8.229 3.699-8.229 8.236v101.536c0 4.53 3.708 8.228 8.229 8.228h47.759c4.527 0 8.22-3.697 8.22-8.228V26.736c0-4.537-3.693-8.236-8.22-8.236z"></path><path fill="#16C6CC" d="M50.049 36.341h54.897v82.325H50.049z"></path><path fill="#3E4959" d="M72.413 130.127a2.21 2.21 0 0 1-2.205-2.213v-.663c0-1.225.99-2.21 2.205-2.21h10.178c1.212 0 2.2.985 2.2 2.21v.663a2.208 2.208 0 0 1-2.2 2.213H72.413zM79.577 27.416a2.063 2.063 0 0 1-2.068 2.066 2.066 2.066 0 0 1-2.071-2.066c0-1.141.93-2.072 2.071-2.072 1.143 0 2.068.931 2.068 2.072z"></path><path fill="#242D3C" d="M78.332 27.416a.82.82 0 0 1-.823.821.826.826 0 0 1-.831-.821c0-.453.373-.831.831-.831a.83.83 0 0 1 .823.831z"></path><path fill="#FFF" d="M61.138 110.325l-4.031-4.03 4.031-4.03 1.06 1.06-2.969 2.97 2.969 2.97zM93.856 110.325l4.031-4.03-4.031-4.03-1.06 1.06 2.97 2.97-2.97 2.97zM104.946 45.875v48.049H63.22c-7.274 0-13.171-5.897-13.171-13.174V45.875h54.897z"></path><path fill="#D9D8D7" d="M76.39 80.75c0 7.276-5.897 13.174-13.17 13.174h41.727c7.275 0 13.169-5.9 13.169-13.174H76.39zM50.049 36.341h54.897v9.534H50.049zM57.107 60.539h40.779v2.85H57.107zM57.107 66.236h40.779v2.85H57.107zM57.107 71.934h40.779v2.85H57.107z"></path><path fill="#242D3C" d="M57.107 54.842H77.5v2.849H57.107z"></path><circle cx="77.508" cy="45.875" r="3" fill="#FF6D3B"></circle></svg>