<svg width="80" height="80" viewBox="0 0 80 80" fill="none" xmlns="http://www.w3.org/2000/svg">
<path d="M15.1774 70H11.8226C11.3392 70 10.8756 69.7997 10.5338 69.4433C10.192 69.0868 10 68.6033 10 68.0992V56.9008C10 56.3967 10.192 55.9132 10.5338 55.5567C10.8756 55.2003 11.3392 55 11.8226 55H15.1774C15.6608 55 16.1244 55.2003 16.4662 55.5567C16.808 55.9132 17 56.3967 17 56.9008V68.0992C17 68.6033 16.808 69.0868 16.4662 69.4433C16.1244 69.7997 15.6608 70 15.1774 70Z" fill="#FFD45A"/>
<path d="M27.1774 70H23.8226C23.3392 70 22.8756 69.8059 22.5338 69.4605C22.192 69.115 22 68.6464 22 68.1579V49.8421C22 49.3536 22.192 48.885 22.5338 48.5395C22.8756 48.1941 23.3392 48 23.8226 48H27.1774C27.6608 48 28.1244 48.1941 28.4662 48.5395C28.808 48.885 29 49.3536 29 49.8421V68.1579C29 68.6464 28.808 69.115 28.4662 69.4605C28.1244 69.8059 27.6608 70 27.1774 70Z" fill="#51B7E3"/>
<path d="M39.1774 70H35.8226C35.3392 70 34.8756 69.8024 34.5338 69.4506C34.192 69.0988 34 68.6217 34 68.1242V41.8758C34 41.3783 34.192 40.9012 34.5338 40.5494C34.8756 40.1976 35.3392 40 35.8226 40H39.1774C39.6608 40 40.1244 40.1976 40.4662 40.5494C40.808 40.9012 41 41.3783 41 41.8758V68.1242C41 68.6217 40.808 69.0988 40.4662 69.4506C40.1244 69.8024 39.6608 70 39.1774 70Z" fill="#5CA658"/>
<path d="M51.1774 70H47.8226C47.3392 70 46.8756 69.8003 46.5338 69.4447C46.192 69.0892 46 68.607 46 68.1042V33.8958C46 33.393 46.192 32.9108 46.5338 32.5553C46.8756 32.1997 47.3392 32 47.8226 32H51.1774C51.6608 32 52.1244 32.1997 52.4662 32.5553C52.808 32.9108 53 33.393 53 33.8958V68.1042C53 68.607 52.808 69.0892 52.4662 69.4447C52.1244 69.8003 51.6608 70 51.1774 70Z" fill="#E46047"/>
<path d="M66.4746 66L67 67.5981L66.4746 69L65.385 68.7114L65 67.5981L65.1065 66H66.4746Z" fill="#D3AE7E"/>
<path d="M65 68.5667C65 69.3589 65.4478 70 66 70C66.5533 70 67 69.3589 67 68.5667C67.0004 68.3749 66.9727 68.1841 66.9178 68C66.7656 68.5084 66.4111 68.8635 66 68.8635C65.5889 68.8635 65.2356 68.5084 65.0822 68C65.0268 68.184 64.9991 68.3749 65 68.5667Z" fill="#565656"/>
<path d="M59.5188 66L59 67.6186L59.5188 69L60.6124 68.7114L61 67.5981L60.8931 66H59.5188Z" fill="#D3AE7E"/>
<path d="M61.2633 68.34C61.2633 69.2575 60.7945 70 60.2163 70C59.637 70 59.1693 69.2575 59.1693 68.34C59.1693 68.1063 59.2007 67.8837 59.2554 67.6837C59.4148 68.2725 59.7859 68.6837 60.2163 68.6837C60.6467 68.6837 61.0167 68.2725 61.1772 67.6837C61.2319 67.885 61.2633 68.1063 61.2633 68.34ZM66.618 63.2L66.7949 66.7475H64.9359L63.7761 55.3912L63.441 42.4512H62.6767L62.3417 55.3912L61.1818 66.7475H59.324L59.4997 63.2C61.2167 48.48 56.5111 43.5037 58.7552 37.18H67.3626C69.6613 43.66 64.8696 48.215 66.618 63.2ZM67.544 17.6112C67.3439 12.4862 65.4128 10 62.7826 10C60.1535 10 58.0211 12.4812 58.0211 17.6112C58.0211 17.6112 57.5569 25.9713 60.9818 29.1525H65.8584C65.8607 29.1525 67.8349 25.035 67.544 17.6112Z" fill="#565656"/>
<path d="M64.5852 23.6043V21H61.4148V23.6043L60 24.6211V28H66V24.4994L64.5852 23.6043Z" fill="#CFA572"/>
<path d="M56.1351 41L56.0083 42.3987C55.9854 42.6537 56.0095 42.9111 56.0856 43.158C56.1985 43.5248 56.423 43.979 56.8402 44C56.9182 44 56.9931 43.9715 57.0482 43.9209C57.1034 43.8702 57.1344 43.8015 57.1344 43.7298V42.2123C57.1344 42.2123 57.3006 42.012 57.6848 42.224V42.9612C57.687 43.0137 57.7105 43.0636 57.7507 43.1011C57.7909 43.1385 57.8449 43.1608 57.9021 43.1636C57.9593 43.1664 58.0155 43.1494 58.0598 43.1161C58.1041 43.0827 58.1332 43.0354 58.1414 42.9833C58.1845 42.6339 58.1946 41.8723 57.6341 41.2003L56.1351 41ZM69.8646 41L69.9915 42.3987C70.0153 42.654 69.9891 42.9112 69.9141 43.158C69.8012 43.5248 69.5768 43.979 69.1595 44C69.0815 44 69.0066 43.9715 68.9515 43.9209C68.8963 43.8702 68.8653 43.8015 68.8653 43.7298V42.2123C68.8653 42.2123 68.6992 42.012 68.3149 42.224V42.9612C68.3127 43.0137 68.2892 43.0636 68.249 43.1011C68.2088 43.1385 68.1548 43.1608 68.0976 43.1636C68.0404 43.1664 67.9842 43.1494 67.9399 43.1161C67.8956 43.0827 67.8665 43.0354 67.8583 42.9833C67.8152 42.6339 67.8051 41.8723 68.3656 41.2003L69.8646 41Z" fill="#D3AE7E"/>
<path d="M64.6149 24C64.7328 24.3119 65.0287 24.5832 65.3459 24.7338C65.4863 24.8689 65.628 25.0027 65.7433 25.1497C65.7045 25.1007 65.1152 25.3697 65.0512 25.3948C64.6538 25.5657 64.2438 25.9696 64.6149 26.3724C64.8456 26.6413 65.0512 26.4943 64.7428 26.7632C64.5121 26.9712 64.23 27.1182 63.9867 27.301C63.7435 27.4839 63.0514 28.5476 62.8207 28.3516C62.6765 28.2392 61.0453 26.909 61.1281 26.7501C61.3074 26.3712 61.7688 25.9194 61.3588 25.5155C61.0892 25.2466 60.7181 25.2095 60.372 25.0996C60.6767 24.9059 60.3244 25.1987 60.7958 24.8067C61.0516 24.5868 61.2572 24.3299 61.3212 24C59.8771 24.0911 58.5236 24.7026 57.5353 25.7103C56.547 26.7181 55.9981 28.0465 56 29.426V41H58.154V38.8368H67.8598V41H70V29.426C70.0009 28.0366 69.4431 26.6997 68.4414 25.6904C67.4397 24.6811 66.0703 24.0761 64.6149 24ZM58.05 37.6272L58.2418 29.4511C58.2418 29.4511 58.3735 30.2471 58.791 30.8937C59.2461 31.5965 59.3502 32.4546 59.1972 33.2673C58.9001 34.8533 58.4336 37.0572 58.05 37.6272ZM66.8003 33.2673C66.6473 32.4546 66.7514 31.5965 67.2065 30.8937C67.624 30.2483 67.7557 29.4511 67.7557 29.4511L67.9488 37.6272C67.5664 37.0572 67.0987 34.8533 66.8003 33.2673Z" fill="#D7DADC"/>
<path d="M64.7133 13C61.0224 13.0852 59.5898 16.7142 60.0997 19.8712C60.7869 21.1585 61.9205 22 63.2017 22C65.2995 22 67 19.7497 67 16.9747C66.9996 16.7115 66.9841 16.4485 66.9534 16.187C65.3823 14.8408 64.7133 13 64.7133 13Z" fill="#EAC08B"/>
<path d="M66 19.6432C65.4231 21.0486 64.2576 22 62.9155 22C61.75 22 60.714 21.2757 60.09 20.1622C59.8428 18.7135 60.1018 17.1568 60.9024 16C60.4785 17.0162 60.3726 18.1838 60.561 19.2973C61.1849 20.4108 62.2209 21.1351 63.3864 21.1351C64.4342 21.1351 65.3643 20.5622 66 19.6432Z" fill="#D3AE7E"/>
<path d="M65.9969 25.2968C65.9155 25.2968 64.5667 25.9268 64.5667 25.9268L65.2268 26.8809L63 29L60.7732 26.8809L61.4333 25.9268C61.4333 25.9268 60.0845 25.2968 60.0031 25.2968C59.9382 25.2968 60.9151 24.4117 61.3464 24.0222C61.4289 24.0123 61.5136 24.0062 61.5973 24L63 28.428L64.4027 24C64.4864 24.0049 64.5711 24.0123 64.6536 24.0222C65.0849 24.4117 66.0618 25.2968 65.9969 25.2968Z" fill="white"/>
</svg>
