<svg width="80" height="80" viewBox="0 0 80 80" fill="none" xmlns="http://www.w3.org/2000/svg">
<path d="M50.3713 56.5361H29.6284V67.574H50.3713V56.5361Z" fill="#D1D1D6"/>
<path d="M50.3714 56.5361H40V67.574H50.3714V56.5361Z" fill="#B1B1B5"/>
<path fill-rule="evenodd" clip-rule="evenodd" d="M12.0739 12.9714H67.9263C70.7169 12.9714 73 15.2547 73 18.0453V52.9508C73 55.7414 70.7167 58.0247 67.9263 58.0247H12.0739C9.28325 58.0245 7 55.7413 7 52.9507V18.0453C7 15.2547 9.28325 12.9714 12.0739 12.9714Z" fill="#ECEFF1"/>
<path fill-rule="evenodd" clip-rule="evenodd" d="M40 12.9714H67.9263C70.7169 12.9714 73 15.2547 73 18.0453V52.9508C73 55.7414 70.7167 58.0247 67.9263 58.0247H40V12.9714Z" fill="#D1D1D6"/>
<path fill-rule="evenodd" clip-rule="evenodd" d="M11.9468 17.2144H68.0537C68.4408 17.2144 68.7574 17.531 68.7574 17.918V49.4778H11.2432V17.918C11.2432 17.5309 11.5597 17.2144 11.9468 17.2144Z" fill="#837683"/>
<path fill-rule="evenodd" clip-rule="evenodd" d="M40 17.2144H68.0535C68.4405 17.2144 68.7571 17.531 68.7571 17.918V49.4778H40V17.2144Z" fill="#685E68"/>
<path fill-rule="evenodd" clip-rule="evenodd" d="M18.9093 72.9997H61.0907C61.8236 72.9997 62.4214 72.402 62.4214 71.6691V69.5426C62.4214 67.6412 60.4744 66.0854 58.0945 66.0854H21.9055C19.5256 66.0854 17.5786 67.6411 17.5786 69.5426V71.6691C17.5786 72.402 18.1763 72.9997 18.9093 72.9997Z" fill="#ECEFF1"/>
<path fill-rule="evenodd" clip-rule="evenodd" d="M40 72.9999H61.0907C61.8236 72.9999 62.4214 72.4022 62.4214 71.6692V69.5426C62.4214 67.6412 60.4744 66.0854 58.0945 66.0854H40V72.9999Z" fill="#D1D1D6"/>
<path fill-rule="evenodd" clip-rule="evenodd" d="M25.0728 16.9016H54.9274V41.303C35.423 41.303 44.5771 41.303 25.0728 41.303V16.9016Z" fill="#ECEFF1"/>
<path d="M54.9272 16.9016H52.1055V41.303H54.9272V16.9016Z" fill="#D1D1D6"/>
<path fill-rule="evenodd" clip-rule="evenodd" d="M29.9214 25.0967H36.6602C37.0666 25.0967 37.3979 25.428 37.3979 25.8344V40.262H29.1836V25.8344C29.1836 25.428 29.5151 25.0967 29.9214 25.0967Z" fill="#8AC9FE"/>
<path fill-rule="evenodd" clip-rule="evenodd" d="M35.6271 25.8344V40.262H37.3977V25.8344C37.3977 25.428 37.0663 25.0967 36.66 25.0967H34.8894C35.2958 25.0967 35.6271 25.428 35.6271 25.8344Z" fill="#60B7FF"/>
<path fill-rule="evenodd" clip-rule="evenodd" d="M42.4604 25.0967H50.3961C50.8024 25.0967 51.1338 25.428 51.1338 25.8344V30.3429C51.1338 30.7493 50.8023 31.0806 50.3961 31.0806H42.4604C42.0541 31.0806 41.7227 30.7491 41.7227 30.3429V25.8344C41.7227 25.428 42.054 25.0967 42.4604 25.0967Z" fill="#8AC9FE"/>
<path fill-rule="evenodd" clip-rule="evenodd" d="M49.3632 25.8344V30.3429C49.3632 30.7493 49.0317 31.0806 48.6255 31.0806H50.396C50.8024 31.0806 51.1338 30.7491 51.1338 30.3429V25.8344C51.1338 25.428 50.8023 25.0967 50.396 25.0967H48.6255C49.0317 25.0967 49.3632 25.428 49.3632 25.8344Z" fill="#60B7FF"/>
<path fill-rule="evenodd" clip-rule="evenodd" d="M42.4604 33.6377H50.3961C50.8024 33.6377 51.1338 33.9692 51.1338 34.3754V35.1847C51.1338 35.5909 50.8023 35.9224 50.3961 35.9224H42.4604C42.0541 35.9224 41.7227 35.5909 41.7227 35.1847V34.3754C41.7227 33.969 42.054 33.6377 42.4604 33.6377Z" fill="#8AC9FE"/>
<path fill-rule="evenodd" clip-rule="evenodd" d="M50.396 33.6377H48.6255C49.0319 33.6377 49.3632 33.9692 49.3632 34.3754V35.1847C49.3632 35.5909 49.0317 35.9224 48.6255 35.9224H50.396C50.8024 35.9224 51.1338 35.5909 51.1338 35.1847V34.3754C51.1338 33.969 50.8023 33.6377 50.396 33.6377Z" fill="#60B7FF"/>
<path fill-rule="evenodd" clip-rule="evenodd" d="M22.0725 40.2622H57.9275C58.1307 40.2622 58.2964 40.4279 58.2964 40.6311V43.224C58.2964 43.4271 58.1307 43.5928 57.9275 43.5928H22.0725C21.8693 43.5928 21.7036 43.4271 21.7036 43.224V40.6311C21.7036 40.4279 21.8693 40.2622 22.0725 40.2622Z" fill="#A79BA7"/>
<path fill-rule="evenodd" clip-rule="evenodd" d="M58.2964 41.9277V43.2242C58.2964 43.4274 58.1307 43.593 57.9275 43.593H22.0725C21.8693 43.593 21.7036 43.4274 21.7036 43.2242V41.9277H58.2964Z" fill="#837683"/>
<path fill-rule="evenodd" clip-rule="evenodd" d="M22.0117 16.9016L26.9678 7.39667C27.0982 7.14664 27.34 7 27.622 7H52.3777C52.6597 7 52.9014 7.14664 53.0319 7.39667L57.988 16.9016C57.988 19.3852 55.9747 21.3986 53.4909 21.3986C51.0073 21.3986 48.9939 19.3852 48.9939 16.9016C48.9939 19.3852 46.9805 21.3986 44.4968 21.3986C42.0132 21.3986 39.9998 19.3852 39.9998 16.9016C39.9998 19.3852 37.9865 21.3986 35.5027 21.3986C33.0191 21.3986 31.0057 19.3852 31.0057 16.9016C31.0057 19.3852 28.9924 21.3986 26.5086 21.3986C24.0251 21.3986 22.0117 19.3852 22.0117 16.9016Z" fill="#FFE177"/>
<path fill-rule="evenodd" clip-rule="evenodd" d="M26.5088 21.3987C28.9924 21.3987 31.0058 19.3853 31.0058 16.9016H25.0726H22.0117C22.0117 18.8831 23.2931 20.5653 25.0726 21.1645C25.5236 21.3163 26.0066 21.3987 26.5088 21.3987ZM39.9999 16.9016C39.9999 19.3853 42.0132 21.3987 44.497 21.3987C46.9806 21.3987 48.994 19.3853 48.994 16.9016H39.9999Z" fill="#FFD064"/>
<path fill-rule="evenodd" clip-rule="evenodd" d="M48.9943 16.9016C48.9943 19.3853 51.0076 21.3987 53.4913 21.3987C53.9935 21.3987 54.4766 21.3163 54.9275 21.1645C56.707 20.5653 57.9884 18.8831 57.9884 16.9016H48.9943ZM35.5032 21.3987C37.9868 21.3987 40.0002 19.3853 40.0002 16.9016H31.0061C31.0061 19.3853 33.0195 21.3987 35.5032 21.3987Z" fill="#FD4755"/>
<path fill-rule="evenodd" clip-rule="evenodd" d="M48.9943 16.9016H57.9884L53.0323 7.39667C52.9019 7.14664 52.6601 7 52.3781 7H46.3849L48.9943 16.9016ZM31.0061 16.9016H40.0002V7H33.6156L31.0061 16.9016Z" fill="#FE646F"/>
</svg>
