<svg width="80" height="80" viewBox="0 0 80 80" fill="none" xmlns="http://www.w3.org/2000/svg">
<path fill-rule="evenodd" clip-rule="evenodd" d="M52.9938 40.0433H11.909C10.3068 40.0433 9 38.7366 9 37.1344V11.5859C9 9.98368 10.3068 8.677 11.909 8.677H52.9938C53.8488 8.677 54.5846 9.00478 55.1564 9.64055L64.3945 19.9105C65.5802 21.2286 66.4474 22.5874 66.4474 24.3603C66.4474 26.1332 65.5799 27.4918 64.3945 28.8099L55.1564 39.0799C54.5846 39.7154 53.8485 40.0433 52.9938 40.0433Z" fill="#FE646F"/>
<path fill-rule="evenodd" clip-rule="evenodd" d="M52.9938 40.0435H11.909C10.3068 40.0435 9 38.7368 9 37.1346V24.3604H66.4474C66.4474 26.1333 65.5799 27.4919 64.3945 28.81L55.1564 39.0799C54.5846 39.7156 53.8485 40.0435 52.9938 40.0435Z" fill="#FD4755"/>
<path fill-rule="evenodd" clip-rule="evenodd" d="M19.3003 16.2612C20.7893 16.2612 21.9962 17.4681 21.9962 18.9571C21.9962 20.446 20.7893 21.6529 19.3003 21.6529C17.8114 21.6529 16.6045 20.446 16.6045 18.9571C16.6045 17.4682 17.8114 16.2612 19.3003 16.2612ZM28.6519 15.91L17.2971 31.7152C17.1418 31.9387 17.0805 32.2142 17.1264 32.4824C17.1724 32.7507 17.3219 32.9901 17.5428 33.1491C17.7637 33.3081 18.0382 33.3739 18.3071 33.3323C18.5761 33.2907 18.8179 33.1451 18.9805 32.9269L30.3353 17.1217C30.4906 16.8983 30.5519 16.6227 30.506 16.3545C30.46 16.0862 30.3105 15.8468 30.0896 15.6878C29.8687 15.5288 29.5942 15.463 29.3253 15.5046C29.0563 15.5462 28.8145 15.6918 28.6519 15.91ZM28.3224 27.0674C29.8114 27.0674 31.0183 28.2743 31.0183 29.7633C31.0183 31.2522 29.8114 32.4591 28.3224 32.4591C26.8335 32.4591 25.6266 31.2522 25.6266 29.7633C25.6266 28.2744 26.8336 27.0674 28.3224 27.0674Z" fill="#ECEFF1"/>
<path fill-rule="evenodd" clip-rule="evenodd" d="M70.3946 37.5897L45.3871 70.1869C44.4119 71.4581 42.5797 71.6996 41.3086 70.7243L21.038 55.1734C19.7669 54.1983 19.5256 52.366 20.5008 51.0949L45.5081 18.4976C46.0286 17.8193 46.7366 17.4349 47.5889 17.3682L61.3603 16.2896C63.1279 16.1512 64.7337 16.29 66.1403 17.3692C67.5469 18.4483 68.0968 19.9636 68.4211 21.7064L70.9463 35.2873C71.1029 36.1278 70.915 36.9114 70.3946 37.5897Z" fill="#FFE177"/>
<path fill-rule="evenodd" clip-rule="evenodd" d="M70.3947 37.5899L45.3871 70.1871C44.4119 71.4582 42.5798 71.6997 41.3086 70.7245L31.1733 62.949L66.1405 17.3694C67.5471 18.4485 68.097 19.9637 68.4212 21.7066L70.9465 35.2875C71.1029 36.1279 70.915 36.9115 70.3947 37.5899Z" fill="#FFD064"/>
<path d="M62.9299 25.8627C63.5277 24.4942 62.903 22.9001 61.5344 22.3023C60.1659 21.7045 58.5718 22.3293 57.974 23.6978C57.3762 25.0664 58.001 26.6604 59.3695 27.2582C60.7381 27.856 62.3321 27.2312 62.9299 25.8627Z" fill="#ECEFF1"/>
<path fill-rule="evenodd" clip-rule="evenodd" d="M46.2198 53.2642C46.3711 53.4907 46.4272 53.7677 46.376 54.0353C46.3249 54.3029 46.1705 54.5396 45.9464 54.6944C45.7222 54.8492 45.4461 54.9097 45.1778 54.8627C44.9094 54.8158 44.6703 54.6652 44.512 54.4434L37.7371 44.6667C37.6123 44.486 37.548 44.2704 37.5535 44.0509C37.5591 43.8314 37.634 43.6193 37.7677 43.4451C37.9014 43.2709 38.0869 43.1436 38.2975 43.0816C38.5081 43.0195 38.733 43.0258 38.9398 43.0996L38.9407 43.097L50.1386 47.1084C50.3966 47.2025 50.607 47.3949 50.7238 47.6436C50.8405 47.8922 50.8543 48.177 50.7619 48.4357C50.6696 48.6944 50.4787 48.9061 50.2309 49.0247C49.983 49.1432 49.6984 49.1589 49.439 49.0684L46.7587 48.1082L44.5982 50.9243L46.2198 53.2642ZM41.2893 46.1487L43.356 49.1312L44.7053 47.3725L41.2893 46.1487ZM59.6377 33.3673C59.8066 33.1535 60.0528 33.0146 60.3232 32.9807C60.5936 32.9467 60.8665 33.0204 61.0831 33.1857C61.2997 33.3511 61.4426 33.595 61.481 33.8647C61.5195 34.1345 61.4504 34.4086 61.2887 34.6279L57.9039 39.0399C57.7367 39.2588 57.4895 39.4024 57.2165 39.439C56.9435 39.4756 56.6671 39.4023 56.4481 39.2351L47.4618 32.3412C47.2429 32.174 47.0994 31.9267 47.0628 31.6537C47.0262 31.3807 47.0995 31.1043 47.2666 30.8854L50.6514 26.4733C50.8203 26.2595 51.0665 26.1207 51.3369 26.0867C51.6073 26.0528 51.8802 26.1264 52.0968 26.2918C52.3134 26.4571 52.4563 26.701 52.4947 26.9708C52.5332 27.2406 52.4641 27.5147 52.3023 27.734L49.5483 31.3237L52.3934 33.5064L54.1571 31.2074C54.326 30.9936 54.5723 30.8548 54.8426 30.8208C55.113 30.7868 55.3859 30.8605 55.6025 31.0258C55.8191 31.1912 55.962 31.4351 56.0005 31.7049C56.0389 31.9746 55.9698 32.2487 55.8081 32.468L54.0415 34.7707L56.8866 36.9533L59.6377 33.3673ZM54.2578 40.3799L51.5066 43.9661L43.3424 37.7028C43.1234 37.5373 42.8477 37.4653 42.5757 37.5025C42.3037 37.5396 42.0575 37.683 41.8908 37.9012C41.7242 38.1194 41.6508 38.3947 41.6866 38.6669C41.7224 38.9391 41.8645 39.1861 42.0818 39.3538L51.0681 46.2479C51.2871 46.415 51.5635 46.4883 51.8365 46.4517C52.1095 46.4151 52.3567 46.2716 52.5239 46.0527L55.9087 41.6407C56.0758 41.4218 56.1491 41.1454 56.1125 40.8724C56.0759 40.5994 55.9324 40.3522 55.7135 40.185C55.6051 40.1022 55.4815 40.0415 55.3497 40.0065C55.2179 39.9715 55.0804 39.9628 54.9453 39.9809C54.8101 39.999 54.6798 40.0435 54.5618 40.112C54.4439 40.1805 54.3406 40.2715 54.2578 40.3799ZM36.1983 49.6511C36.1441 49.5968 36.0841 49.5487 36.0193 49.5077C35.5116 49.1479 34.9041 49.0145 34.324 49.091C33.7435 49.1675 33.1902 49.4541 32.7914 49.9337C32.7543 49.974 32.7204 50.0171 32.6901 50.0627L30.7831 52.5484C30.2658 53.2228 30.0712 54.0479 30.1748 54.8338C30.2785 55.6214 30.6815 56.37 31.3584 56.8893L32.5862 57.8313C33.2606 58.3487 34.0859 58.5432 34.8717 58.4396C35.6593 58.3359 36.4079 57.9329 36.9271 57.256L38.4504 55.2702C38.5316 55.1647 38.6328 55.0761 38.7483 55.0098C38.8638 54.9434 38.9913 54.9005 39.1234 54.8835C39.2566 54.8657 39.3919 54.8743 39.5218 54.9089C39.6516 54.9435 39.7733 55.0034 39.8799 55.0852L41.1079 56.0272C41.2134 56.1084 41.3019 56.2096 41.3683 56.3251C41.4347 56.4406 41.4776 56.568 41.4946 56.7001C41.5124 56.8333 41.5038 56.9687 41.4692 57.0985C41.4345 57.2283 41.3746 57.35 41.2929 57.4567L39.3438 59.9973C39.3185 60.0301 39.2871 60.0575 39.2511 60.0781C39.2152 60.0986 39.1756 60.1119 39.1346 60.1171C39.0924 60.1228 39.0495 60.12 39.0084 60.109C38.9673 60.098 38.9288 60.079 38.895 60.0531C38.676 59.8876 38.4003 59.8156 38.1283 59.8527C37.8563 59.8899 37.61 60.0333 37.4434 60.2515C37.2768 60.4697 37.2034 60.745 37.2392 61.0172C37.2749 61.2894 37.4171 61.5364 37.6344 61.7041C38.1562 62.1045 38.7948 62.2549 39.4029 62.1747C40.0128 62.0945 40.5925 61.7823 40.9947 61.258L42.9438 58.7174C43.4612 58.043 43.6556 57.2179 43.5521 56.432C43.4484 55.6445 43.0454 54.8959 42.3685 54.3766L41.1407 53.4346C40.4661 52.9173 39.641 52.7229 38.8552 52.8263C38.0677 52.93 37.3191 53.333 36.7998 54.0099L35.2765 55.9957C35.1953 56.1013 35.094 56.1898 34.9785 56.2561C34.8631 56.3225 34.7356 56.3654 34.6035 56.3824C34.4703 56.4002 34.3349 56.3916 34.2051 56.357C34.0753 56.3224 33.9536 56.2625 33.847 56.1807L32.6191 55.2388C32.5136 55.1575 32.4251 55.0563 32.3587 54.9408C32.2924 54.8253 32.2494 54.6979 32.2324 54.5658C32.2146 54.4326 32.2233 54.2972 32.2579 54.1674C32.2925 54.0376 32.3525 53.9158 32.4342 53.8092L34.3833 51.2685C34.4086 51.2357 34.4401 51.2083 34.476 51.1877C34.5119 51.1672 34.5515 51.1539 34.5926 51.1486C34.6659 51.1389 34.7403 51.1546 34.8035 51.193C35.0103 51.3615 35.2739 51.4442 35.54 51.424C35.806 51.4038 36.0541 51.2822 36.2331 51.0844C36.412 50.8865 36.5082 50.6275 36.5017 50.3608C36.4953 50.0941 36.3866 49.84 36.1983 49.6511Z" fill="#ECEFF1"/>
</svg>
