<svg xmlns="http://www.w3.org/2000/svg" viewBox="0 0 64 64" id="seo-business"><path fill="#110239" d="M10.8 43.1H52v6.1H10.8z"></path><path fill="#110239" d="M53.4 47.2h-44c-1.4 0-2.5-1.1-2.5-2.5V16.8c0-1.4 1.1-2.5 2.5-2.5h44c1.4 0 2.5 1.1 2.5 2.5v27.8c.1 1.5-1.1 2.6-2.5 2.6z"></path><path fill="#fefefe" d="M9.2 16.5h44.5v28.2H9.2z"></path><path fill="#110239" d="M2.1 56v.9c0 .5.5.9 1.2.9h56.2c.7 0 1.2-.4 1.2-.9V56H2.1z"></path><path fill="#110239" d="M31.4 49.1H7.3c-.1.1-3.9 3.5-5 6-.5 1.1-.2 1.6.7 1.6h56.6c.9 0 1.2-.6.7-1.6-1.2-2.5-4.9-5.9-5-6H31.4z"></path><path fill="#9c9eb9" d="M57.7 55.4H6.4l3.6-5.3h44.1z"></path><path fill="#d0d1de" d="m57.1 54.5-.1-.2h-3.4l-.7-1.3h3.2l-.1-.1h-3.2l-.6-1.3h2.9l-.1-.2h-2.9l-.6-1.3h-.3l.6 1.3h-3.7l-.5-1.3h-.3l.5 1.3h-3.7l-.4-1.3h-.3l.4 1.3h-3.7l-.3-1.3h-.3l.2 1.3H36l-.1-1.3h-.3l.1 1.3h-3.5v-1.3h-.3v1.3h-3.6l.1-1.3h-.3l-.1 1.3h-3.7l.2-1.3h-.3l-.3 1.3h-3.7l.4-1.3h-.3l-.4 1.3h-3.7l.5-1.3h-.3l-.5 1.3h-3.7l.6-1.3h.2l-.6 1.3H9.1l-.1.2h3.3l-.6 1.3H8.1L8 53h3.5l-.6 1.3H7.2l-.2.2h3.8l-.5.9h.3l.5-.9H15l-.4.9h.3l.4-.9h3.9l-.3.9h.3l.3-.9h3.9l-.2.9h.3l.2-.9h3.9l-.1.9h.3l.1-.9h3.9v.9h.3v-.9h3.7l.1.9h.3l-.1-.9H40l.2.9h.8l-.2-.9h3.9l.3.9h.3l-.3-.9h4l.4.9h.3l-.4-.9h3.9l.5.9h.3l-.5-.9h3.6zm-40.6-2.9h3.7l-.4 1.3H16l.5-1.3zm-3.9 0h3.7l-.5 1.3H12l.6-1.3zm2.6 2.7h-3.9l.6-1.3h3.8l-.5 1.3zm4.2 0h-3.9L16 53h3.8l-.4 1.3zm4.3 0h-3.9l.4-1.3H24l-.3 1.3zm.3-1.4h-3.8l.4-1.3h3.7l-.3 1.3zm3.9 1.4H24l.2-1.3H28l-.1 1.3zm.2-1.4h-3.8l.2-1.3h3.7l-.1 1.3zm4 1.4h-3.8l.1-1.3h3.7v1.3zm0-1.4h-3.7l.1-1.3h3.6v1.3zm.3-1.3h3.5l.1 1.3h-3.6v-1.3zm0 2.7V53H36l.1 1.3h-3.7zm19.5-2.7.6 1.3h-3.8l-.5-1.3h3.7zm-4 0 .5 1.3h-3.8l-.4-1.3h3.7zm-11.7 0h3.7l.2 1.3h-3.8l-.1-1.3zm.3 2.7-.1-1.3h3.8l.2 1.3h-3.9zm3.7-2.7h3.7l.4 1.3h-3.8l-.3-1.3zm.6 2.7-.3-1.3h3.8l.4 1.3h-3.9zm4.2 0-.4-1.3h3.8l.5 1.3H45zm4.3 0-.5-1.3h3.8l.6 1.3h-3.9z"></path><path fill="#110239" d="M31.4 56.7h-2.5s0 .2.1.3c0 0 .1.1.2.1h4.4c.1 0 .1 0 .2-.1s.1-.3.1-.3h-2.5z"></path><path fill="#fefefe" d="M9.2 16.5h44.5v28.2H9.2z"></path><path fill="#01c7e2" d="m32.2 30.9-4 1.8-5.1-5.1L9.2 38.2v6.5h44.5V11.6L35.1 34.1z"></path><path fill="#fefefe" d="M17.9 36.1h1.4v1.1h-1.4zM19.9 36.1h1.4v1.1h-1.4z"></path><path fill="#fd425f" d="M21.9 36.1h1.4v1.1h-1.4z"></path><path fill="#fefefe" d="M23.9 36.1h1.4v1.1h-1.4zM26 36.1h1.4v1.1H26z"></path><path fill="#fd425f" d="M28 36.1h1.4v1.1H28z"></path><path fill="#fefefe" d="M17.9 37.9h1.4V39h-1.4zM19.9 37.9h1.4V39h-1.4zM21.9 37.9h1.4V39h-1.4zM23.9 37.9h1.4V39h-1.4z"></path><path fill="#fd425f" d="M26 37.9h1.4V39H26z"></path><path fill="#fefefe" d="M28 37.9h1.4V39H28zM17.9 39.8h1.4v1.1h-1.4z"></path><path fill="#fd425f" d="M19.9 39.8h1.4v1.1h-1.4z"></path><path fill="#fefefe" d="M21.9 39.8h1.4v1.1h-1.4zM23.9 39.8h1.4v1.1h-1.4zM26 39.8h1.4v1.1H26zM28 39.8h1.4v1.1H28zM17.9 41.6h1.4v1.1h-1.4zM19.9 41.6h1.4v1.1h-1.4z"></path><path fill="#fd425f" d="M21.9 41.6h1.4v1.1h-1.4z"></path><path fill="#fefefe" d="M23.9 41.6h1.4v1.1h-1.4z"></path><path fill="#fff" d="m32.7 33-.1-.1-.2.1-.1-.3.3-.2.3.3zM29.5 34.2l-.1-.3.5-.2.1.3-.5.2zm1-.4-.1-.3.5-.2.1.3-.5.2zm.9-.4-.1-.3.5-.2.1.3-.5.2zM28.7 34.5l-.3-.2.1-.2.2.1.2-.1.1.3zM27.9 33.9l-.4-.4.2-.2.4.4-.2.2zm-.8-.7-.4-.4.2-.2.4.4-.2.2zm-.9-.8-.4-.4.2-.2.4.4-.2.2zm-.9-.7-.4-.4.2-.2.4.4-.2.2zm-.8-.8-.5-.4.2-.2.4.4-.1.2zM23.6 30.1l-.1-.1-.2.1-.1-.2.3-.3.3.3zM10.2 39.4l-.2-.3.5-.4.2.3-.5.4zm1-.7-.2-.3.5-.4.2.3-.5.4zm1-.8-.2-.2.5-.4.2.3-.5.3zm1-.7-.1-.2.5-.4.2.3-.6.3zm1.1-.7-.2-.3.5-.4.2.3-.5.4zm1-.7-.2-.3.5-.4.2.3-.5.4zm1-.7-.2-.3.5-.4.2.3-.5.4zm1-.8-.2-.3.5-.4.2.3-.5.4zm1-.7-.2-.3.5-.4.2.3-.5.4zm1-.7-.2-.3.5-.4.2.3-.5.4zm1-.7-.1-.2.5-.4.2.3-.6.3zm1-.7-.2-.3.5-.3.2.2-.5.4zm1-.7-.2-.2.5-.3.2.2-.5.3zM36.2 35l-.2-.2.4-.4.2.2-.4.4zm.8-.9-.2-.2.4-.4.2.2-.4.4zm.7-.9-.2-.2.4-.4.2.2-.4.4zm.8-.9-.2-.2.4-.4.2.2-.4.4zm.7-.8-.2-.2.4-.4.2.2-.4.4zm.8-.9-.2-.2.4-.4.2.2-.4.4zm.7-.9-.2-.2.4-.4.2.2-.4.4zm.8-.9-.2-.2.4-.4.2.2-.4.4zm.7-.8-.2-.2.4-.4.2.2-.4.4zm.8-.9-.2-.2.4-.4.2.2-.4.4zm.7-.9-.2-.2.4-.4.2.2-.4.4zm.7-.8-.2-.2.4-.4.2.2-.4.4zm.8-.9-.2-.2.4-.4.2.2-.4.4zm.7-.8-.2-.2.4-.4.2.2-.4.4zm.7-.9-.2-.2.4-.4.2.2-.4.4zm.8-.8-.2-.2.4-.4.2.2-.4.4zm.7-.9-.2-.2.4-.4.2.2-.4.4zm.7-.8-.2-.2.4-.4.2.2-.4.4zm.7-.8-.2-.2.4-.4.2.2-.4.4zm.7-.9-.2-.2.4-.4.2.2-.4.4zm.8-.8-.2-.2.4-.4.2.2-.4.4zm.7-.8-.2-.2.4-.4.2.2-.4.4zm.6-.8-.2-.2.4-.4.2.2-.4.4zm.7-.8-.2-.2.4-.4.2.2-.4.4zM35.5 35.8l-.3-.3.2-.3.1.1.1-.1.2.2zM34.7 35l-.5-.5.2-.2.5.5-.2.2zm-1-1-.5-.5.2-.2.5.5-.2.2z"></path><g fill="#fd425f"><path d="m52.5 8.3-17.4 22-2.8-3.4-4.1 2-5.2-5.6L9.2 34.5v1.4L23 24.7l5.1 5.5 4.1-1.9 3 3.6L53.2 9l-.7-.7z"></path><path d="m55.2 6.3-4.1 1.4 2.7 2.7z"></path></g><path fill="#fd425f" d="M14.5 20.1c.9.1 1.8.5 1.8 1.4h-1.5c0-.3-.4-.4-.6-.4-.1 0-.6 0-.6.3 0 .6 2.8 0 2.9 1.8 0 1.1-.8 1.5-1.9 1.6l.1 1.1h-.9l.1-1.2c-1-.1-1.9-.5-1.9-1.5h1.5c0 .4.5.5.7.5.2 0 .7 0 .7-.3 0-.7-2.8 0-2.9-1.8 0-1 .8-1.4 1.7-1.5l-.1-1.1h.9v1.1z"></path><path fill="#110239" d="M38 51.1s.1 1.3-.1 1.4c-.2.2-2.7.5-2.9.2-.2-.2-.1-.6.4-.8.6-.2.9-.1 1.2-.2.3-.2.2-.7.2-.7l1.2.1zm8.2 0s-.1 1.3.1 1.4c.2.2 2.7.5 2.9.2.2-.2.1-.6-.4-.8-.6-.2-.9-.1-1.2-.2-.3-.2-.2-.7-.2-.7l-1.2.1z"></path><path fill="#fd425f" d="M46.3 43.8c-.3-1.4-1.7-5.1-2.3-6.4-.2-.1-.5-.1-.7-.2.1-.3.1-.5.2-.8-.4.1-.9.2-1.3.3-.1 0-.1 0-.2.1-.1 0-.1 0-.2-.1-.5-.1-.9-.2-1.3-.3 0 .2.1.5.2.8-.2.1-.5.1-.7.2-.5 1.3-2 5-2.3 6.4-.4 1.9-1 7.5-1 7.5l1.6.2s1.6-7.5 1.8-7.9c.4-.7.8-1.4 1.2-2 .3-.5 1-.5 1.4 0 .4.6.8 1.2 1.2 2 .2.4 1.8 7.9 1.8 7.9l1.6-.2s-.6-5.6-1-7.5z"></path><path fill="#f88667" d="M46.8 20.6c-.1-.6-.2-.7-.4-.9-.1-.1-.2-.1-.3-.2l-.3-.3-.3-.3c-.1-.2.2-.1.3-.1.1.1.4.4.6.4.2-.1-.2-.5-.3-.6-.2-.2-.4-.2-.6-.3-.1-.1-.2-.1 0-.2.1-.1.2 0 .4 0 .2.1.5.2.6.4-.1-.2-.4-.3-.5-.4-.1-.1-.6-.2-.6-.4.2-.4 1.2.3 1.3.5-.1-.2-.3-.3-.5-.5-.1-.1-.4-.3-.2-.3.3-.1.7.5 1 .7-.1-.2-.2-.3-.4-.5s0-.3.3-.1l.3.3c.4.5.4.8.4 1.3 0 .2 0 .5.1 1.1 0 .5-.7.3-.9.4zm-15.6 9c-.6-.2-.7-.5-.8-.7 0-.1-.1-.2-.1-.3-.1-.1-.1-.2-.2-.3-.1-.2-.1-.3-.2-.4-.1-.1-.1.1-.1.3 0 .2.3.5.3.6-.1.1-.5-.3-.5-.4-.2-.2-.1-.4-.1-.6 0-.1-.1-.2-.2-.1s-.1.2-.1.3c0 .2.1.5.2.7-.1-.1-.2-.4-.3-.6 0-.1-.1-.7-.3-.6-.4.1.1 1.2.2 1.4-.2-.2-.2-.4-.3-.6-.1-.1-.2-.4-.3-.2-.2.3.3.8.5 1.1-.2-.1-.3-.3-.4-.5-.2-.2-.3 0-.1.2.1.1.2.3.3.4.4.5.7.5 1.2.7.2.1.4.1 1 .4.2.1.2-.5.3-.8zm11.6-1.2c-.3.1-.7.1-1 .1-.1 0-.2 0-.4-.1 0 .4 0 1.4-.3 1.9 0 0 .1.5 1 .5s1-.5 1-.5-.4-.8-.3-1.9z"></path><path fill="#e5e6ed" d="M46.2 30.9c-.2-.3-1.4-1-2.2-1.1-1.3-.2-2.6-.2-3.8 0-.8.1-1.6.3-1.8.6-.3.4.6 2.6.8 4.6.1 1.7.4 2.9.4 2.9.5.9 4.4.9 4.9 0 0 0 .1-1.4.4-3 .2-2 1.6-3.6 1.3-4z"></path><path fill="#abadc4" d="M39.9 34.5c0-.5.2-1.5 0-2-.3-.7-.9-1-1.5-1.3.2.9.6 2.4.7 3.7.1 1.7.4 2.9.4 2.9.1.2.3.3.6.4-.5-1-.2-2.7-.2-3.7z"></path><path fill="#f88667" d="M44 26s-1.8-1.1-2.1-.8c-.3.3-.7 1.2-.9 1.3-.2.1-.5.3-.5.4 0 .2.1.2.1.3 0 .2-.4 1-.2 1.2.2.2 1.5.7 2.3.2.8-.5 2.2-2.1 1.3-2.6z"></path><path fill="#110239" d="M44.4 26.4h-1.6s-.3.8-1 1.3c0 0 0 .2.2.2s.3-.1.4-.2c.1-.2.4-.6.7-.2.2.4-.3.5-.5.5 0 0-.7.9-.2 1 0 0 .6-.1 1.5-1.1 1.1-1 .9-1.6.5-1.5z"></path><path fill="#110239" d="M41.4 24.6s-.8.5.1 1.4c.9.9 2.9.4 2.9.4s.2-.6-.5-1.2c-.6-.5-1.2-.7-1.7-.5-.7.3-.8-.1-.8-.1z"></path><path fill="#e5e6ed" d="m31 29.3-.7 1.1S32 32 34 33.3c1.1.8 5-.5 5.6-.6.9-.3 1.5-2.1.1-2.8-.8-.4-4.2 2.2-5 1.7-1.1-.5-3.7-2.3-3.7-2.3zm15.5-9 1.3-.2s.9 3.8.8 5.1c-.1 1.4-2.2 6.3-2.7 6.7-.6.5-2.2-.9-1-2.3 1.2-1.4 2-4.4 2-4.6 0-.1-.4-4.7-.4-4.7z"></path><path fill="#d0d1de" d="M19.4 18.1H30v1H19.4zM19.4 19.6H30v1H19.4zM19.4 21.1h8v1h-8z"></path></svg>