<svg xmlns="http://www.w3.org/2000/svg" enable-background="new 0 0 495.99 496" viewBox="0 0 495.99 496" id="skills"><path fill="#cdc7b9" d="M486.04,215.914c-0.001-1.062-0.425-2.078-1.176-2.827c-0.75-0.747-1.766-1.167-2.824-1.167
		c-0.002,0-0.004,0-0.006,0l-126.25,0.19c-2.208,0.004-3.997,1.797-3.994,4.005l0.05,39.05c0.003,2.208,1.793,3.995,4,3.995
		c0.001,0,0.003,0,0.005,0c2.209-0.003,3.998-1.796,3.995-4.005l-0.045-35.052l23.561-0.035l0.054,35.048
		c0.003,2.207,1.793,3.994,4,3.994c0.002,0,0.004,0,0.006,0c2.209-0.003,3.997-1.797,3.994-4.006l-0.054-35.048l23.569-0.036
		l0.045,35.055c0.003,2.208,1.793,3.995,4,3.995c0.001,0,0.003,0,0.005,0c2.209-0.003,3.998-1.796,3.995-4.005l-0.045-35.057
		l23.56-0.035l0.045,35.051c0.003,2.208,1.793,3.995,4,3.995c0.001,0,0.003,0,0.005,0c2.209-0.003,3.998-1.796,3.995-4.005
		l-0.045-35.053l23.561-0.035l0.054,35.05c0.003,2.207,1.793,3.994,4,3.994c0.002,0,0.004,0,0.006,0
		c2.209-0.003,3.997-1.797,3.994-4.006L486.04,215.914z"></path><path fill="#655f68" d="M495.76 346.63c-59.446 9.573-108.311 39.486-148.66 85.77l13.11 24.137 14.04 38.893 121.74-.18L495.76 346.63zM482.1 251.97l-31.57.05-31.56.05-31.56.04-31.57.05-13.52.02.17 112.25c60.017 4.888 111.993-28.201 153.13-112.48L482.1 251.97z"></path><path fill="#9e4949" d="M468.61,280.22c12.15,25.371,12.114,54.837,0.14,88.32v0.01c-8.42,6.29-17.42,12.54-27.03,18.65
		c-20.543-20.712-20.969-48.31-0.13-83.17C451.51,295.99,460.51,287.98,468.61,280.22z"></path><path fill="#9e4949" d="M414.57,324.25c19.22,19.75,16.937,45.388,0.12,78.77c-9.22,4.97-18.28,9.41-27.04,13.39
		c-21.188-18.063-27.855-40.883-0.11-74.97c4.46-2.61,8.97-5.36,13.52-8.25c4.64-2.95,9.14-5.93,13.5-8.95L414.57,324.25z"></path><path fill="#9e4949" d="M360.51,356.02c16.837,20.5,19.304,43.853,0.11,71.56v0.01c-4.65,1.74-9.16,3.34-13.52,4.81
		c-1.821,6.689-6.295,6.785-13.53,0.02c-23.088-17.832-23.096-39.225-0.1-64.15l0-0.01c2.95-1.21,5.96-2.49,9.02-3.83
		C348.34,361.86,354.35,359.07,360.51,356.02z"></path><path fill="#ffc05a" d="M495.62 251.95l.14 94.68c-8.23 7.25-17.23 14.61-27.01 21.91-.05-29.44-.09-58.88-.14-88.32C479.06 270.23 488.03 260.64 495.62 251.95zM441.59 304.03c.05 27.72.09 55.45.13 83.17-9.1 5.78-18.14 11.05-27.03 15.82-.04-27.01-.08-51.77-.12-78.77l-.01-.01C424.25 317.57 433.25 310.79 441.59 304.03zM387.54 341.44c.04 24.99.08 49.98.11 74.97-9.38 4.24-18.44 7.95-27.03 11.17-.04-23.86-.07-47.7-.11-71.56C369.27 351.69 378.31 346.85 387.54 341.44zM333.47 368.27c.04 21.38.07 42.77.1 64.15-11.219 13.267-20.246 13.339-27.05.04l-.09-54.07c8.38-2.83 17.44-6.17 27.04-10.13V368.27z"></path><path fill="#a35757" d="M374.15,432.36l0.1,63.07l-108.22,0.17c-19.68-17.8-19.781-38.816-0.1-63.08l0.01,0l40.58-0.06
		l27.05-0.04l13.53-0.02L374.15,432.36z"></path><path fill="#ad6a6a" d="M265.93,432.52l0.1,63.08L99.2,495.85c-31.247-35.906-35.359-73.367-8-112.63l174.66-0.26
		L265.93,432.52z"></path><path fill="#cdc7b9" d="M91.2,383.22l-6.75-95.08c-21.742-22.49-45.005-24.856-70.33,0.1L0,496l99.2-0.15L91.2,383.22z"></path><path fill="#d6eae8" d="M82.46,260.14c-22.055-23.603-44.187-26.578-66.43,0.1h-0.01l-1.9,28
		c6.34-3.28,18.75-8.56,35.15-8.59c6.68-0.01,20.31,0.85,35.18,8.49L82.46,260.14z"></path><path fill="#e7f2f1" d="M80.47,232.21c-21.213-23.394-42.053-22.967-62.54,0.09h-0.01l-1.9,27.94h0.01
		c6.76-3.26,18.34-7.6,33.2-7.62c6.39-0.01,19.13,0.77,33.23,7.52L80.47,232.21z"></path><path fill="#655f68" d="M76.16,171.48l4.31,60.73c-13.32-5.92-25.19-6.63-31.28-6.62c-13.53,0.02-24.34,3.61-31.26,6.71
		h-0.01l4.13-60.74c11.37-8.55,23.23-9.05,27.05-9.05C63.32,162.49,73.11,169.2,76.16,171.48z"></path><path fill="#1ea6bc" d="M360.14,113.37l0.07,43.26l-34.77,0.05c-2.62,12.33-7.47,23.84-14.09,34.1l24.63,24.54l-30.56,30.63
		l-24.63-24.54c-10.25,6.65-21.75,11.53-34.09,14.19l0.05,34.74l-43.28,0.06l-0.06-34.74c-12.34-2.62-23.85-7.46-34.12-14.08
		l-24.56,24.61l-30.66-30.53l24.56-24.62c-6.65-10.24-11.53-21.73-14.19-34.06l-34.77,0.05l-0.07-43.25l34.77-0.05
		c2.63-12.34,7.47-23.84,14.1-34.11l-24.64-24.54l30.56-30.63l24.64,24.54c10.25-6.64,21.75-11.52,34.08-14.18l-0.05-34.74L246.35,0
		l0.05,34.74c12.34,2.63,23.86,7.47,34.13,14.09l24.56-24.62l30.65,30.54l-24.56,24.61c6.65,10.25,11.53,21.74,14.2,34.06
		L360.14,113.37z M225.02,211.8c42.34-0.07,76.6-34.41,76.54-76.71c-0.06-42.31-34.43-76.55-76.77-76.48
		c-42.33,0.06-76.6,34.4-76.54,76.71C148.32,177.62,182.69,211.86,225.02,211.8z"></path><path fill="#5d5560" d="M243.22,180.03c0.01,5.09-4.11,9.22-9.19,9.23l-18.08,0.02c-5.09,0.01-9.22-4.11-9.22-9.19
		l-0.02-9.03c12.169-5.692,24.336-5.711,36.5-0.05L243.22,180.03z"></path><polygon fill="#655f68" points="243.18 152.77 243.21 171.01 206.71 171.06 206.68 152.83 216.943 139.215 231.785 142.042"></polygon><path fill="#ffc05a" d="M247.65,88.94c-12.32-10.44-33.34-10.4-45.62,0.07c-15.81,13.48-16.91,44.06,4.65,63.82l36.5-0.06
		C264.69,132.95,263.5,102.38,247.65,88.94z"></path><path fill="#f9b132" d="M234,111.76c7.77,6.14,8.12,23.65-4.5,41.03l-9.13,0.02c-12.68-17.35-12.38-34.86-4.62-41.02
		C220.6,107.93,229.13,107.92,234,111.76z"></path><path fill="#c3ddda" d="M82.46,260.14l1.99,28c-14.87-7.64-28.5-8.5-35.18-8.49c-0.66,0-1.31,0.01-1.95,0.03
		c0.41-9.29,0.73-18.35,0.99-27.05c0.3-0.01,0.61-0.01,0.92-0.01C55.62,252.61,68.36,253.39,82.46,260.14z"></path><path fill="#d6eae8" d="M82.46,260.14c-14.1-6.75-26.84-7.53-33.23-7.52c-0.31,0-0.62,0-0.92,0.01
		c0.29-9.5,0.49-18.57,0.64-27.04c0.08,0,0.16,0,0.24,0c6.09-0.01,17.96,0.7,31.28,6.62L82.46,260.14z"></path><path fill="#5d5560" d="M80.47,232.21c-13.32-5.92-25.19-6.63-31.28-6.62c-0.08,0-0.16,0-0.24,0
		c0.64-37.29,0.15-63.08,0.15-63.08c14.22-0.02,24.01,6.69,27.06,8.97L80.47,232.21z"></path><path fill="#c1bcb0" d="M91.2,383.22l8,112.63L0,496c32.03-16.3,43.41-126.9,47.32-216.32c0.64-0.02,1.29-0.03,1.95-0.03
		c6.68-0.01,20.31,0.85,35.18,8.49L91.2,383.22z"></path></svg>