<svg xmlns="http://www.w3.org/2000/svg" fill-rule="evenodd" stroke-linejoin="round" stroke-miterlimit="2" clip-rule="evenodd" viewBox="0 0 64 64" id="smart-factory"><g transform="translate(-673 -1071)"><path fill="#faa019" d="M729,206.652C729,206.252 728.789,205.869 728.414,205.587C728.039,205.304 727.53,205.146 727,205.146C719.192,205.146 690.808,205.146 683,205.146C682.47,205.146 681.961,205.304 681.586,205.587C681.211,205.869 681,206.252 681,206.652C681,209.125 681,214.02 681,216.494C681,216.893 681.211,217.276 681.586,217.559C681.961,217.841 682.47,218 683,218C690.808,218 719.192,218 727,218C727.53,218 728.039,217.841 728.414,217.559C728.789,217.276 729,216.893 729,216.494C729,214.02 729,209.125 729,206.652Z" transform="matrix(.93319 0 0 1.23925 47.103 856.843)"></path><path fill="#46508c" d="M720.144,193.71C720.435,193.268 720.86,193.15 721.225,193.407C721.59,193.665 721.827,194.251 721.827,194.898C721.827,199.041 721.827,205.146 721.827,205.146L712.604,205.146C712.604,205.146 717.484,197.745 720.144,193.71Z" transform="matrix(.93319 0 0 .57427 50.703 993.261)"></path><path fill="#46508c" d="M720.144,193.71C720.435,193.268 720.86,193.15 721.225,193.407C721.59,193.665 721.827,194.251 721.827,194.898C721.827,199.041 721.827,205.146 721.827,205.146L712.604,205.146C712.604,205.146 717.484,197.745 720.144,193.71Z" transform="matrix(.93319 0 0 .57427 42.097 993.261)"></path><path fill="#46508c" d="M720.144,193.71C720.435,193.268 720.86,193.15 721.225,193.407C721.59,193.665 721.827,194.251 721.827,194.898C721.827,199.041 721.827,205.146 721.827,205.146L712.604,205.146C712.604,205.146 717.484,197.745 720.144,193.71Z" transform="matrix(.93319 0 0 .57427 33.491 993.261)"></path><path fill="#ffcd05" d="M693.411,183.473L695.035,205.146L681.333,205.146L682.957,183.473L693.411,183.473Z" transform="translate(49.886 919.631) scale(.93319)"></path><path fill="#46508c" d="M687.213,1090.85L687.398,1088.37C687.471,1087.4 688.282,1086.64 689.259,1086.64L694.922,1086.64C695.899,1086.64 696.71,1087.4 696.783,1088.37L696.969,1090.85L687.213,1090.85Z"></path><path fill="#99e6ff" d="M61.738,85.531C64.425,81.007 69.361,77.972 75,77.972C80.639,77.972 85.575,81.007 88.262,85.531L84.589,87.706C82.646,84.435 79.077,82.24 75,82.24C70.923,82.24 67.354,84.435 65.411,87.706L61.738,85.531Z" transform="rotate(60 -482.282 1140.01) scale(.94907)"></path><path fill="#5ad7ff" d="M84.589,87.706C82.646,84.435 79.077,82.24 75,82.24C70.923,82.24 67.354,84.435 65.411,87.706L69.576,90.172C70.675,88.322 72.694,87.08 75,87.08C77.306,87.08 79.325,88.322 80.424,90.172L84.589,87.706Z" transform="rotate(60 -482.282 1140.01) scale(.94907)"></path><path fill="#2796d8" d="M69.576,90.172C70.675,88.322 72.694,87.08 75,87.08C77.306,87.08 79.325,88.322 80.424,90.172C80.424,90.172 78.956,91.041 77.548,91.875C75.977,90.945 74.023,90.945 72.452,91.875C71.044,91.041 69.576,90.172 69.576,90.172Z" transform="rotate(60 -482.282 1140.01) scale(.94907)"></path><path fill="#ffcd05" d="M701.933,205.928C701.933,205.375 701.485,204.928 700.933,204.928C697.962,204.928 689.214,204.928 686.243,204.928C685.691,204.928 685.243,205.375 685.243,205.928C685.243,206.682 685.243,207.711 685.243,208.465C685.243,209.017 685.691,209.465 686.243,209.465C689.214,209.465 697.962,209.465 700.933,209.465C701.485,209.465 701.933,209.017 701.933,208.465C701.933,207.711 701.933,206.682 701.933,205.928Z" transform="translate(47.103 923.565) scale(.93319)"></path><path fill="#ffcd05" d="M701.933,205.928C701.933,205.375 700.803,204.928 699.41,204.928C696.263,204.928 690.913,204.928 687.766,204.928C686.372,204.928 685.243,205.375 685.243,205.928C685.243,206.682 685.243,207.711 685.243,208.465C685.243,209.017 686.372,209.465 687.766,209.465C690.913,209.465 696.263,209.465 699.41,209.465C700.803,209.465 701.933,209.017 701.933,208.465C701.933,207.711 701.933,206.682 701.933,205.928Z" transform="matrix(.36994 0 0 .93319 454.692 923.565)"></path><path fill="#ffcd05" d="M701.933,205.928C701.933,205.375 700.803,204.928 699.41,204.928C696.263,204.928 690.913,204.928 687.766,204.928C686.372,204.928 685.243,205.375 685.243,205.928C685.243,206.682 685.243,207.711 685.243,208.465C685.243,209.017 686.372,209.465 687.766,209.465C690.913,209.465 696.263,209.465 699.41,209.465C700.803,209.465 701.933,209.017 701.933,208.465C701.933,207.711 701.933,206.682 701.933,205.928Z" transform="matrix(.36994 0 0 .93319 463.729 923.565)"></path></g></svg>