<svg xmlns="http://www.w3.org/2000/svg" viewBox="0 0 60 60" id="software-development"><path fill="#adb2bb" d="M19 45h22v7H19zM47 59H13a1 1 0 0 1-1-1v-3l2-1h32l2 1v3a1 1 0 0 1-1 1Z"></path><path fill="#cdd1d7" d="m48 55-7-5H19l-7 5h36zM57 39v5a3 3 0 0 1-3 3H6a3 3 0 0 1-3-3v-5l1-2h52Z"></path><path fill="#6ec8e8" d="M57 10v29H3V10a3 3 0 0 1 3-3h48a3 3 0 0 1 3 3Z"></path><path fill="#557993" d="M46.87 20.05a16.228 16.228 0 0 0 0-4.1l-3.3-1.319a13.9 13.9 0 0 0-1.595-3.842l1.4-3.268a16.127 16.127 0 0 0-2.9-2.9l-3.268 1.4a13.9 13.9 0 0 0-3.842-1.6L32.05 1.13a16.228 16.228 0 0 0-4.1 0l-1.319 3.3a13.9 13.9 0 0 0-3.842 1.6l-3.268-1.4a16.127 16.127 0 0 0-2.9 2.9l1.4 3.268a13.9 13.9 0 0 0-1.595 3.842l-3.3 1.319a16.228 16.228 0 0 0 0 4.1l3.3 1.319a13.9 13.9 0 0 0 1.595 3.842l-1.4 3.268a16.127 16.127 0 0 0 2.9 2.9l3.268-1.4a13.9 13.9 0 0 0 3.842 1.595l1.319 3.3a16.228 16.228 0 0 0 4.1 0l1.319-3.3a13.9 13.9 0 0 0 3.842-1.595l3.268 1.4a16.127 16.127 0 0 0 2.9-2.9l-1.4-3.268a13.9 13.9 0 0 0 1.595-3.842Z"></path><path fill="#373737" d="M6 8h7a1 1 0 0 0 0-2H6a4 4 0 0 0-4 4v34a4 4 0 0 0 4 4h12v2.42l-6.5 3.712a1.029 1.029 0 0 0-.131.106 1.085 1.085 0 0 0-.1.08.988.988 0 0 0-.183.271c0 .009-.011.015-.015.024a1 1 0 0 0-.072.356c0 .011-.006.02-.006.031v3a2 2 0 0 0 2 2H47a2 2 0 0 0 2-2v-3c0-.011-.006-.02-.006-.031a1 1 0 0 0-.072-.356c0-.009-.012-.016-.016-.025a.98.98 0 0 0-.182-.27 1.085 1.085 0 0 0-.1-.08 1.029 1.029 0 0 0-.131-.106L42 50.42V48h12a4 4 0 0 0 4-4V10a4 4 0 0 0-4-4H43.412a18.383 18.383 0 0 0-.683-.727 16.487 16.487 0 0 0-1.643-1.447 1 1 0 0 0-1-.124l-2.807 1.2a14.914 14.914 0 0 0-3.168-1.312L32.979.759a1 1 0 0 0-.8-.62 17.335 17.335 0 0 0-4.366 0 1 1 0 0 0-.8.62L25.889 3.59a14.914 14.914 0 0 0-3.167 1.315L19.915 3.7a1 1 0 0 0-1 .124 17.27 17.27 0 0 0-3.088 3.088 1 1 0 0 0-.124 1l1.2 2.807a14.914 14.914 0 0 0-1.315 3.167l-2.831 1.132a1 1 0 0 0-.62.8 17.212 17.212 0 0 0 0 4.366 1 1 0 0 0 .62.8l2.831 1.132a14.914 14.914 0 0 0 1.315 3.167l-1.2 2.807a1 1 0 0 0 .124 1 17.27 17.27 0 0 0 3.088 3.088 1 1 0 0 0 1 .124l2.807-1.2a14.914 14.914 0 0 0 3.167 1.315l1.132 2.831a1 1 0 0 0 .8.62 17.212 17.212 0 0 0 4.366 0 1 1 0 0 0 .8-.62l1.132-2.831a14.914 14.914 0 0 0 3.159-1.317l2.807 1.2a1 1 0 0 0 1-.124 17.27 17.27 0 0 0 3.088-3.088 1 1 0 0 0 .123-1l-1.2-2.808a14.914 14.914 0 0 0 1.315-3.167l2.831-1.132a1 1 0 0 0 .62-.8 17.212 17.212 0 0 0 0-4.366 1 1 0 0 0-.62-.8l-2.832-1.126a14.914 14.914 0 0 0-1.31-3.167L44.26 8H54a2 2 0 0 1 2 2v28H4V10a2 2 0 0 1 2-2Zm37.2 7.56 2.74 1.1a15.335 15.335 0 0 1 0 2.688l-2.74 1.1a1 1 0 0 0-.6.688 12.908 12.908 0 0 1-1.481 3.565 1 1 0 0 0-.063.911l1.164 2.719a16.095 16.095 0 0 1-1.9 1.901l-2.72-1.173a.994.994 0 0 0-.912.063 12.908 12.908 0 0 1-3.56 1.478 1 1 0 0 0-.688.6l-1.1 2.74a15.668 15.668 0 0 1-2.688 0l-1.1-2.74a1 1 0 0 0-.688-.6 12.908 12.908 0 0 1-3.565-1.481 1 1 0 0 0-.912-.063l-2.718 1.165q-.5-.418-.991-.911t-.91-.99l1.165-2.718a1 1 0 0 0-.063-.912 12.908 12.908 0 0 1-1.47-3.562 1 1 0 0 0-.6-.688l-2.74-1.1a15.335 15.335 0 0 1-.002-2.684l2.74-1.1a1 1 0 0 0 .6-.688 12.908 12.908 0 0 1 1.481-3.565 1 1 0 0 0 .063-.912l-1.166-2.714q.418-.5.912-.991c.326-.328.657-.631.989-.91L22.4 6.941a1 1 0 0 0 .912-.063 12.908 12.908 0 0 1 3.56-1.478 1 1 0 0 0 .688-.6l1.1-2.74a15.668 15.668 0 0 1 2.688 0l1.1 2.74a1 1 0 0 0 .688.6 12.908 12.908 0 0 1 3.565 1.481 1 1 0 0 0 .912.063l2.718-1.165q.5.418.991.912c.327.326.632.657.908.988L41.059 10.4a1 1 0 0 0 .063.911 12.908 12.908 0 0 1 1.478 3.561 1 1 0 0 0 .6.688ZM13 58v-2h34v2Zm2.766-4 3.5-2h21.468l3.5 2ZM40 50H20v-2h20Zm16-10v4a2 2 0 0 1-2 2H6a2 2 0 0 1-2-2v-4Z"></path><path fill="#373737" d="M28 44h4a1 1 0 0 0 0-2h-4a1 1 0 0 0 0 2zm-3.293-31.707a1 1 0 0 0-1.414 0l-5 5a1 1 0 0 0 0 1.414l5 5a1 1 0 0 0 1.414-1.414L20.414 18l4.293-4.293a1 1 0 0 0 0-1.414zm12 0a1 1 0 0 0-1.414 1.414L39.586 18l-4.293 4.293a1 1 0 1 0 1.414 1.414l5-5a1 1 0 0 0 0-1.414zm-4.336-.222a1 1 0 0 0-1.3.558l-4 10a1 1 0 0 0 .558 1.3A.986.986 0 0 0 28 24a1 1 0 0 0 .929-.629l4-10a1 1 0 0 0-.558-1.3z"></path></svg>