<svg xmlns="http://www.w3.org/2000/svg" xmlns:xlink="http://www.w3.org/1999/xlink" width="40" zoomAndPan="magnify" viewBox="0 0 30 30.000001" height="40" preserveAspectRatio="xMidYMid meet" version="1.0"><defs><clipPath id="836382b509"><path d="M 0.484375 0 L 29.515625 0 L 29.515625 29.03125 L 0.484375 29.03125 Z M 0.484375 0 " clip-rule="nonzero"/></clipPath><clipPath id="5e72ec268b"><path d="M 10.582031 13 L 13 13 L 13 16.839844 L 10.582031 16.839844 Z M 10.582031 13 " clip-rule="nonzero"/></clipPath><clipPath id="dc227bfac3"><path d="M 12 13 L 19.292969 13 L 19.292969 16.839844 L 12 16.839844 Z M 12 13 " clip-rule="nonzero"/></clipPath><clipPath id="8927bdd355"><path d="M 15 8.128906 L 17 8.128906 L 17 10 L 15 10 Z M 15 8.128906 " clip-rule="nonzero"/></clipPath><clipPath id="3a9afb8aa7"><path d="M 17 11 L 19.292969 11 L 19.292969 13 L 17 13 Z M 17 11 " clip-rule="nonzero"/></clipPath></defs><g clip-path="url(#836382b509)"><path fill="#ffffff" d="M 0.484375 0 L 29.515625 0 L 29.515625 36.289062 L 0.484375 36.289062 Z M 0.484375 0 " fill-opacity="1" fill-rule="nonzero"/><path fill="#ffffff" d="M 0.484375 0 L 29.515625 0 L 29.515625 29.03125 L 0.484375 29.03125 Z M 0.484375 0 " fill-opacity="1" fill-rule="nonzero"/><path fill="#ffffff" d="M 0.484375 0 L 29.515625 0 L 29.515625 29.03125 L 0.484375 29.03125 Z M 0.484375 0 " fill-opacity="1" fill-rule="nonzero"/></g><g clip-path="url(#5e72ec268b)"><path fill="#4d81c2" d="M 10.582031 13.203125 L 12.234375 13.203125 L 12.234375 16.832031 L 10.582031 16.832031 Z M 10.582031 13.203125 " fill-opacity="1" fill-rule="evenodd"/></g><g clip-path="url(#dc227bfac3)"><path fill="#4d81c2" d="M 19.21875 13.398438 C 19.125 13.28125 18.878906 13.269531 18.59375 13.476562 L 16.59375 14.945312 C 16.601562 15.007812 16.597656 15.074219 16.574219 15.136719 C 16.492188 15.386719 16.253906 15.453125 16.023438 15.453125 C 15.839844 15.453125 15.609375 15.414062 15.328125 15.328125 C 14.964844 15.21875 14.433594 15.226562 14.222656 15.230469 C 14.09375 15.234375 14.085938 15.03125 14.214844 15.027344 C 14.492188 15.019531 15.007812 15.023438 15.382812 15.132812 C 15.789062 15.253906 16.296875 15.339844 16.386719 15.070312 C 16.484375 14.765625 15.921875 14.421875 15.714844 14.335938 C 15.554688 14.273438 15.390625 14.269531 15.214844 14.269531 C 14.902344 14.269531 14.546875 14.265625 14.167969 13.882812 C 13.898438 13.605469 13.546875 13.496094 13.207031 13.574219 C 13.09375 13.597656 13.003906 13.632812 12.914062 13.664062 C 12.777344 13.710938 12.632812 13.757812 12.433594 13.78125 L 12.433594 16.167969 C 12.828125 16.210938 14.226562 16.378906 14.816406 16.59375 C 15.03125 16.667969 15.476562 16.589844 16.015625 16.382812 C 16.476562 16.199219 16.929688 15.949219 17.09375 15.789062 L 19.140625 13.746094 C 19.261719 13.625 19.292969 13.488281 19.21875 13.398438 Z M 19.21875 13.398438 " fill-opacity="1" fill-rule="evenodd"/></g><path fill="#03a8dd" d="M 15.140625 11.363281 L 15.140625 10.84375 C 15.140625 10.785156 15.183594 10.738281 15.238281 10.738281 C 15.292969 10.738281 15.335938 10.785156 15.335938 10.84375 L 15.335938 11.363281 L 16.355469 11.363281 L 16.355469 10.84375 C 16.355469 10.785156 16.398438 10.738281 16.453125 10.738281 C 16.511719 10.738281 16.554688 10.785156 16.554688 10.84375 L 16.554688 11.363281 L 17.039062 11.363281 L 17.039062 10.390625 C 17.039062 10.140625 16.839844 9.933594 16.59375 9.933594 L 15.097656 9.933594 C 14.855469 9.933594 14.652344 10.140625 14.652344 10.390625 L 14.652344 11.363281 Z M 15.140625 11.363281 " fill-opacity="1" fill-rule="evenodd"/><g clip-path="url(#8927bdd355)"><path fill="#03a8dd" d="M 15.847656 9.519531 C 16.148438 9.519531 16.390625 9.105469 16.390625 8.765625 C 16.390625 8.332031 16.109375 8.132812 15.847656 8.132812 C 15.585938 8.132812 15.300781 8.332031 15.300781 8.765625 C 15.304688 9.105469 15.546875 9.519531 15.847656 9.519531 Z M 15.847656 9.519531 " fill-opacity="1" fill-rule="evenodd"/></g><path fill="#03a8dd" d="M 18.039062 11.148438 C 18.289062 11.148438 18.496094 10.796875 18.496094 10.507812 C 18.496094 10.144531 18.257812 9.976562 18.039062 9.976562 C 17.820312 9.976562 17.582031 10.144531 17.582031 10.507812 C 17.582031 10.796875 17.785156 11.148438 18.039062 11.148438 Z M 18.039062 11.148438 " fill-opacity="1" fill-rule="evenodd"/><g clip-path="url(#3a9afb8aa7)"><path fill="#03a8dd" d="M 17.019531 12.714844 L 17.386719 12.714844 L 17.386719 12.246094 C 17.386719 12.191406 17.429688 12.144531 17.484375 12.144531 C 17.539062 12.144531 17.582031 12.191406 17.582031 12.246094 L 17.582031 12.714844 L 18.496094 12.714844 L 18.496094 12.246094 C 18.496094 12.191406 18.539062 12.144531 18.59375 12.144531 C 18.648438 12.144531 18.691406 12.191406 18.691406 12.246094 L 18.691406 12.714844 L 19.058594 12.714844 L 19.058594 11.886719 C 19.058594 11.679688 18.890625 11.507812 18.6875 11.507812 L 17.394531 11.507812 C 17.191406 11.507812 17.023438 11.679688 17.023438 11.886719 L 17.023438 12.714844 Z M 17.019531 12.714844 " fill-opacity="1" fill-rule="evenodd"/></g><path fill="#03a8dd" d="M 13.65625 11.148438 C 13.910156 11.148438 14.113281 10.796875 14.113281 10.507812 C 14.113281 10.144531 13.875 9.976562 13.65625 9.976562 C 13.4375 9.976562 13.199219 10.144531 13.199219 10.507812 C 13.199219 10.796875 13.402344 11.148438 13.65625 11.148438 Z M 13.65625 11.148438 " fill-opacity="1" fill-rule="evenodd"/><path fill="#03a8dd" d="M 13 12.246094 C 13 12.191406 13.042969 12.144531 13.101562 12.144531 C 13.15625 12.144531 13.199219 12.191406 13.199219 12.246094 L 13.199219 12.714844 L 14.113281 12.714844 L 14.113281 12.246094 C 14.113281 12.191406 14.15625 12.144531 14.210938 12.144531 C 14.265625 12.144531 14.308594 12.191406 14.308594 12.246094 L 14.308594 12.714844 L 14.675781 12.714844 L 14.675781 11.886719 C 14.675781 11.679688 14.507812 11.507812 14.304688 11.507812 L 13.011719 11.507812 C 12.808594 11.507812 12.640625 11.679688 12.640625 11.886719 L 12.640625 12.714844 L 13.003906 12.714844 Z M 13 12.246094 " fill-opacity="1" fill-rule="evenodd"/></svg>