<svg width="80" height="80" viewBox="0 0 80 80" fill="none" xmlns="http://www.w3.org/2000/svg">
<path d="M36.7002 58.6229C36.7469 58.5008 36.8045 58.3831 36.8723 58.2713C37.1151 57.8625 37.4397 57.5083 37.8257 57.2307C38.2117 56.9531 38.6509 56.7582 39.1157 56.6581C39.5805 56.5579 40.0609 56.5548 40.527 56.6489C40.9931 56.7429 41.4347 56.9321 41.8243 57.2046L42.722 57.9225C43.2031 58.3072 43.8171 58.4853 44.4294 58.4178L48.9431 57.9209C48.9431 57.9209 50.7917 63.6717 50.9011 63.7027C50.997 63.7298 47.0011 64.3261 43.6765 64.2049C42.7737 64.1687 41.9047 63.8513 41.191 63.2971C39.9482 62.3391 37.9503 60.6188 36.7002 58.6229Z" fill="#7E7EBC"/>
<path d="M59.186 39.7148C59.6342 39.7149 60.0647 39.8898 60.3859 40.2023C60.7072 40.5148 60.8939 40.9403 60.9063 41.3883C60.9671 43.5321 61.1697 47.2814 61.8475 49.883L58.0423 50.0389C58.0423 50.0389 57.0355 44.8175 57.4765 41.2316C57.5271 40.8137 57.7288 40.4287 58.0438 40.1492C58.3587 39.8698 58.765 39.7153 59.186 39.7148Z" fill="#3D4165"/>
<path d="M51.9463 37.4326C51.9789 37.4279 52.0117 37.4236 52.0448 37.4194C52.4311 37.3721 52.8228 37.4401 53.1706 37.6149C53.5184 37.7897 53.8067 38.0633 53.9993 38.4015C55.2934 40.6696 58.4273 46.2725 59.6705 49.4771L54.8615 51.3798C54.8615 51.3798 52.4092 44.3698 50.4733 40.2126C50.3427 39.9365 50.2782 39.6337 50.2852 39.3283C50.2921 39.0229 50.3702 38.7234 50.5132 38.4535C50.6562 38.1836 50.8602 37.9508 51.109 37.7735C51.3578 37.5963 51.6445 37.4796 51.9463 37.4326Z" fill="#7E7EBC"/>
<path d="M42.6755 39.3312C42.7092 39.3057 42.7438 39.2803 42.7792 39.255C43.273 38.8993 43.8768 38.7301 44.4835 38.7773C45.0902 38.8245 45.6605 39.0852 46.0933 39.513C48.2347 41.6313 52.6073 46.1667 55.5477 50.633L51.5322 54.1446C51.5322 54.1446 45.1507 47.4338 42.108 42.7647C41.751 42.2267 41.611 41.5734 41.7163 40.9363C41.8216 40.2993 42.1643 39.7258 42.6755 39.3312Z" fill="#7E7EBC"/>
<path d="M70.9018 70.4569L72.6087 68.6801C72.7856 68.496 72.8845 68.2507 72.8848 67.9954C72.8851 67.7401 72.7868 67.4946 72.6103 67.3101L67.4437 61.9062L65.3535 64.6267L70.9018 70.4569Z" fill="#3D4165"/>
<path d="M63.1489 66.9609L68.3264 71.7377C68.5168 71.9133 68.7685 72.0073 69.0275 71.9995C69.2865 71.9917 69.5321 71.8827 69.7116 71.6959L70.9015 70.4572L65.3532 64.627L63.1489 66.9609Z" fill="#B6B6EC"/>
<path d="M38.6378 30.8123L31.3258 23.6807C31.8913 24.181 32.5407 24.5775 33.2441 24.8519C33.9736 25.1382 34.7713 25.2032 35.5376 25.0387C36.3038 24.8742 37.0046 24.4875 37.5523 23.9269C37.7314 23.7389 37.8354 23.4916 37.8445 23.2321C37.8537 22.9725 37.7673 22.7185 37.6017 22.5184C35.5248 19.9774 33.1806 17.6672 30.6096 15.6276C29.2092 14.5194 27.4803 13.9077 25.6946 13.8887L24.7704 13.8777C24.0549 13.8693 23.3482 13.7191 22.6911 13.4358C22.034 13.1526 21.4395 12.7418 20.9422 12.2274L16.4117 7.54102L7.60645 15.3424L10.6465 18.3863C12.0151 19.7572 12.9192 21.5229 13.2316 23.4347L13.9034 27.5446C15.6991 33.2464 20.8096 37.7223 24.0572 40.0956C24.8181 40.6494 25.7509 40.9152 26.6894 40.8454C27.6279 40.7757 28.5111 40.375 29.1818 39.7148L29.4643 39.4373C30.1477 39.8932 30.9695 40.0947 31.7863 40.0065C32.6031 39.9184 33.363 39.5462 33.9334 38.955L34.408 38.4627L34.8233 38.8389C35.2573 39.2318 35.8215 39.4499 36.4069 39.451C36.9923 39.4522 37.5574 39.2363 37.9929 38.8451C38.2128 38.6311 38.387 38.3746 38.5048 38.0911C38.6226 37.8077 38.6816 37.5033 38.6782 37.1964C38.6748 36.8895 38.6091 36.5865 38.4851 36.3058C38.361 36.025 38.1812 35.7724 37.9566 35.5633L37.8958 35.5067L38.747 34.5765C39.2212 34.0577 39.4749 33.3748 39.4545 32.6723C39.4341 31.9697 39.1412 31.3027 38.6378 30.8123Z" fill="#FFCAD4"/>
<path d="M31.3258 23.6812L30.4271 22.7521C30.2017 22.5189 29.9249 22.3416 29.6187 22.2345C29.3125 22.1273 28.9856 22.0933 28.6639 22.135C26.1767 22.4605 24.5886 21.8154 23.7127 21.2433C23.6648 21.2108 23.6071 21.196 23.5495 21.2012C23.4919 21.2065 23.4379 21.2316 23.3967 21.2723C23.3555 21.3129 23.3297 21.3665 23.3236 21.4241C23.3176 21.4816 23.3317 21.5395 23.3635 21.5878C24.0957 22.7025 25.7752 24.1475 29.3542 23.138L31.3258 23.6812Z" fill="#EF91A3"/>
<path d="M49.3409 56.5317C49.3409 56.5317 47.3499 58.9466 48.6894 62.0344C49.9925 65.0394 53.5768 64.6049 53.5768 64.6049C53.5768 64.6049 52.1287 58.5953 49.3409 56.5317ZM59.6705 66.7705C59.6705 66.7705 63.1992 68.9796 66.4873 65.735C69.7635 62.5016 66.9834 58.2234 66.9834 58.2234L59.6705 66.7705Z" fill="#3D4165"/>
<path d="M38.392 35.0004C35.9971 32.646 31.0112 28.3325 29.3351 26.8926C29.4133 26.744 29.4361 26.5725 29.3995 26.4087C29.3629 26.2449 29.2692 26.0994 29.1352 25.9983C29.0012 25.8971 28.8357 25.8469 28.6681 25.8567C28.5005 25.8664 28.3418 25.9354 28.2204 26.0513C25.5691 28.5555 22.1125 32.1209 22.0778 32.1565C21.9561 32.2822 21.8851 32.4484 21.8784 32.6233C21.8718 32.7982 21.9301 32.9693 22.042 33.1038C24.1677 35.59 26.4995 37.8923 29.0126 39.9861C29.158 40.1056 29.3448 40.1624 29.5321 40.1441C29.7193 40.1258 29.8916 40.0339 30.0111 39.8885C30.1306 39.7432 30.1874 39.5563 30.1691 39.3691C30.1508 39.1818 30.0588 39.0095 29.9135 38.8901C27.6364 36.9859 25.5088 34.9096 23.5496 32.6796C23.9775 32.2419 24.6763 31.5299 25.4935 30.7091C26.8897 32.0368 30.925 35.8952 33.898 38.9566C34.0295 39.0894 34.2082 39.165 34.3952 39.1668C34.5821 39.1686 34.7622 39.0966 34.8964 38.9663C35.0305 38.8361 35.1077 38.6581 35.1113 38.4712C35.1149 38.2843 35.0446 38.1035 34.9156 37.9681C31.9457 34.9102 27.9263 31.0652 26.4975 29.706C27.1058 29.1011 27.7185 28.5005 28.3355 27.9043C29.9251 29.2701 34.9965 33.6518 37.3973 36.0121C37.4638 36.0775 37.5424 36.1291 37.6288 36.164C37.7151 36.1989 37.8075 36.2165 37.9007 36.2157C37.9939 36.2149 38.0859 36.1957 38.1717 36.1594C38.2575 36.123 38.3352 36.0701 38.4005 36.0036C38.4659 35.9372 38.5174 35.8586 38.5524 35.7722C38.5873 35.6858 38.6049 35.5934 38.6041 35.5003C38.6033 35.4071 38.5841 35.315 38.5478 35.2293C38.5114 35.1435 38.4585 35.0657 38.392 35.0004Z" fill="#EF91A3"/>
<path d="M44.3259 58.4239C43.8242 58.4573 43.3252 58.3273 42.9037 58.0532C41.7467 60.209 41.8186 62.5245 41.983 63.7819C42.4559 64.009 42.9664 64.1475 43.4892 64.1903C43.3466 63.4866 42.9177 60.7346 44.3259 58.4239Z" fill="#3D4165"/>
<path d="M31.8051 65.3893C31.7289 65.3893 31.6532 65.3769 31.581 65.3526C26.283 63.5894 21.6698 60.2119 18.3887 55.6939C15.1076 51.176 13.3232 45.7442 13.2857 40.1606C13.285 40.0675 13.3027 39.9751 13.3377 39.8888C13.3728 39.8024 13.4245 39.7238 13.4899 39.6575C13.5553 39.5912 13.6332 39.5384 13.719 39.5021C13.8048 39.4659 13.897 39.4469 13.9901 39.4462H13.9952C14.1825 39.4462 14.3621 39.5203 14.495 39.6522C14.6279 39.7841 14.7032 39.9633 14.7046 40.1505C14.74 45.438 16.4299 50.5818 19.537 54.8602C22.6442 59.1387 27.0127 62.337 32.0299 64.0067C32.1898 64.0597 32.3256 64.168 32.413 64.312C32.5004 64.4561 32.5337 64.6265 32.5068 64.7929C32.48 64.9592 32.3949 65.1106 32.2666 65.2199C32.1384 65.3291 31.9754 65.3892 31.8069 65.3893H31.8051ZM37.8958 66.629C37.8765 66.629 37.8573 66.629 37.8376 66.6268C37.528 66.6017 37.2189 66.5711 36.9104 66.5352C36.7246 66.5122 36.5555 66.4166 36.4399 66.2694C36.3243 66.1222 36.2715 65.9353 36.2931 65.7494C36.3147 65.5634 36.4089 65.3936 36.5552 65.2768C36.7015 65.1601 36.8881 65.1059 37.0741 65.126C37.3662 65.1599 37.6619 65.1891 37.9523 65.2128C38.1346 65.2279 38.3039 65.3128 38.4251 65.4498C38.5462 65.5868 38.6097 65.7653 38.6024 65.948C38.5952 66.1307 38.5176 66.3036 38.3859 66.4305C38.2542 66.5574 38.0786 66.6285 37.8958 66.629ZM65.9383 43.3395C65.9144 43.3395 65.8903 43.3383 65.866 43.3359C65.7733 43.3265 65.6833 43.2989 65.6013 43.2548C65.5193 43.2106 65.4467 43.1507 65.3878 43.0785C65.329 43.0063 65.2849 42.9232 65.2581 42.834C65.2313 42.7448 65.2224 42.6511 65.2318 42.5584C65.319 41.6977 65.3627 40.8331 65.3627 39.9679C65.3627 28.2021 57.0407 17.8053 45.575 15.2467C45.4841 15.2264 45.398 15.1884 45.3218 15.1349C45.2456 15.0814 45.1806 15.0133 45.1307 14.9347C45.0807 14.856 45.0468 14.7683 45.0307 14.6766C45.0147 14.5848 45.0169 14.4908 45.0372 14.3999C45.0575 14.309 45.0955 14.2229 45.149 14.1467C45.2026 14.0705 45.2706 14.0055 45.3492 13.9556C45.4279 13.9057 45.5156 13.8717 45.6073 13.8557C45.6991 13.8396 45.7931 13.8418 45.884 13.8621C51.8143 15.1932 57.1148 18.5037 60.913 23.2486C64.7112 27.9934 66.7809 33.89 66.7814 39.9679C66.7813 40.8809 66.7352 41.7933 66.6434 42.7017C66.6257 42.8765 66.5438 43.0384 66.4135 43.1562C66.2833 43.2741 66.1139 43.3394 65.9383 43.3395ZM37.0926 14.8031C36.9111 14.8033 36.7365 14.7339 36.6046 14.6092C36.4728 14.4846 36.3937 14.3141 36.3837 14.1329C36.3737 13.9517 36.4335 13.7736 36.5508 13.6352C36.6681 13.4967 36.834 13.4085 37.0144 13.3887C37.2873 13.3581 37.5617 13.3316 37.8376 13.309C37.9307 13.301 38.0245 13.3115 38.1135 13.3398C38.2025 13.3682 38.2851 13.4138 38.3564 13.4742C38.4278 13.5345 38.4865 13.6083 38.5292 13.6914C38.5719 13.7745 38.5978 13.8653 38.6054 13.9584C38.6129 14.0515 38.602 14.1452 38.5732 14.2341C38.5445 14.323 38.4984 14.4054 38.4377 14.4764C38.3771 14.5475 38.3029 14.6058 38.2196 14.6482C38.1363 14.6905 38.0455 14.7159 37.9523 14.723C37.6913 14.7442 37.4314 14.7694 37.1726 14.7986C37.1461 14.8016 37.1193 14.8031 37.0926 14.8031Z" fill="#B3B3DA"/>
<path d="M51.8522 45.7392C50.8495 45.9809 49.9085 46.4299 49.0898 47.0574C48.2712 47.6848 47.593 48.4768 47.099 49.3822C47.4435 49.7833 47.6966 50.1576 48.2795 50.3516C48.9672 49.2724 50.286 47.3541 52.8836 46.9986C52.5427 46.5722 52.1989 46.1524 51.8522 45.7392ZM47.8646 41.3125C45.5279 42.1006 44.2743 43.9129 43.7036 45.0193C44.0261 45.4464 44.3537 45.8696 44.6864 46.2888C44.8688 45.7949 45.9835 43.1091 48.9672 42.4786C48.6027 42.087 48.2352 41.6983 47.8646 41.3125ZM55.6628 41.3769C55.4011 40.8994 55.1376 40.4229 54.8724 39.9473C53.4622 40.0293 52.1189 40.5762 51.0525 41.5026C51.2537 41.9664 51.4508 42.432 51.6438 42.8994C52.1557 42.3592 52.7831 41.9417 53.479 41.678C54.175 41.4144 54.9215 41.3115 55.6628 41.3769ZM57.9968 45.8099C57.7436 45.3036 57.4864 44.7993 57.225 44.2972C56.4243 44.2465 55.6216 44.3562 54.8639 44.6197C54.1061 44.8831 53.4086 45.2952 52.812 45.8316C53.0066 46.335 53.1943 46.8277 53.3716 47.2985C53.5084 47.1167 54.9835 45.2795 57.9968 45.8099Z" fill="#3D4165"/>
<path d="M37.4511 44.2125C37.4971 44.1769 37.5441 44.1414 37.5919 44.1061C38.0002 43.8051 38.4951 43.6444 39.0023 43.648C39.5096 43.6517 40.0021 43.8195 40.406 44.1264C41.8782 45.2482 44.5251 47.2881 47.099 49.3819C47.4289 49.7755 47.8292 50.1042 48.2796 50.3512C49.6105 51.4546 50.8675 52.5364 51.8668 53.4697L49.8085 57.6182C49.8085 57.6182 44.8579 55.0471 37.2875 47.7279C37.0467 47.4973 36.858 47.2178 36.7342 46.9082C36.6104 46.5986 36.5544 46.2661 36.5699 45.933C36.5854 45.5999 36.6721 45.2741 36.8241 44.9773C36.9761 44.6805 37.1899 44.4198 37.4511 44.2125Z" fill="#7E7EBC"/>
<path d="M47.0989 49.3815C45.1618 50.5742 44.3677 52.532 44.0589 53.6704C44.4687 53.9923 44.8824 54.3093 45.2998 54.6213C45.3949 54.0704 45.9607 51.4724 48.2803 50.3508C47.8879 50.026 47.4941 49.7029 47.0989 49.3815ZM42.7225 45.9087C40.7914 47.0262 39.954 48.9338 39.6348 49.9242C40.0362 50.2879 40.428 50.6371 40.8103 50.9716C40.8308 50.9254 40.8463 50.8772 40.8567 50.8277C40.8623 50.7983 41.4566 47.9368 43.9604 46.8756C43.5315 46.5388 43.1169 46.2149 42.7225 45.9087Z" fill="#3D4165"/>
<path d="M49.324 55.3051C50.6533 53.6874 53.6109 50.664 58.1971 49.0659C58.1971 49.0659 66.6361 51.5095 65.8242 57.9405C64.8001 66.0564 57.3824 66.8152 57.3824 66.8152L53.8559 65.6647C53.4362 65.5286 53.0579 65.2882 52.7566 64.9659C52.4552 64.6436 52.2407 64.2501 52.1332 63.8222C51.7524 62.2873 50.9212 59.708 49.2611 57.3649C49.0436 57.0625 48.9318 56.6967 48.9432 56.3244C48.9545 55.952 49.0884 55.5937 49.324 55.3051Z" fill="white"/>
<path d="M58.8635 63.892C59.3091 63.892 59.6703 63.5308 59.6703 63.0852C59.6703 62.6395 59.3091 62.2783 58.8635 62.2783C58.4179 62.2783 58.0566 62.6395 58.0566 63.0852C58.0566 63.5308 58.4179 63.892 58.8635 63.892Z" fill="#3D4165"/>
<path d="M61.6066 61.122C62.0522 61.122 62.4135 60.7607 62.4135 60.3151C62.4135 59.8695 62.0522 59.5083 61.6066 59.5083C61.161 59.5083 60.7998 59.8695 60.7998 60.3151C60.7998 60.7607 61.161 61.122 61.6066 61.122Z" fill="#3D4165"/>
<path d="M67.5333 58.7288C67.7863 58.2531 67.9121 57.7202 67.8984 57.1816C67.8847 56.643 67.732 56.1171 67.4551 55.6549C66.0709 53.356 64.3542 51.2745 62.3608 49.4781C61.937 49.0971 61.4231 48.8304 60.8676 48.7032C60.3122 48.576 59.7335 48.5925 59.1861 48.7511C58.8479 48.8484 58.5189 48.9538 58.1969 49.0669C60.2301 51.4803 62.1143 54.0155 63.8388 56.6583C64.234 57.2593 64.4484 57.961 64.4568 58.6802C64.4651 59.3993 64.267 60.1058 63.8859 60.7158C62.5938 62.7739 60.3126 65.7392 57.3813 66.8152L58.1466 67.0649C58.6043 67.2169 59.0911 67.26 59.5683 67.1906C60.0455 67.1211 60.4999 66.9412 60.8953 66.665C64.2124 64.3156 66.4484 60.7517 67.5333 58.7288Z" fill="#B8C0E5"/>
<path d="M64.2639 58.5951C64.7095 58.5951 65.0707 58.2339 65.0707 57.7883C65.0707 57.3427 64.7095 56.9814 64.2639 56.9814C63.8183 56.9814 63.457 57.3427 63.457 57.7883C63.457 58.2339 63.8183 58.5951 64.2639 58.5951Z" fill="#3D4165"/>
</svg>
