<svg width="62" height="50" viewBox="0 0 62 50" fill="none" xmlns="http://www.w3.org/2000/svg">
<rect width="62" height="50" rx="11" fill="#0D0D0D"/>
<g clip-path="url(#clip0_118_14)">
<path d="M33.5181 23.4375L32.0548 21.5312L26.6607 14.5H19.5L28.3513 25.9064L29.807 27.7792L35.5177 35.1412H42.4945L33.5162 23.4375H33.5181ZM31.1622 26.1924L29.6951 24.3178L23.7494 16.7148H25.9935L30.802 23.0132L32.2539 24.9178L38.3702 32.9301H36.4294L31.1622 26.1943V26.1924Z" fill="white"/>
<path d="M29.6959 24.3178L31.1629 26.1924L29.8077 27.7792L23.2043 35.5H20.2305L28.354 25.9046L29.6978 24.316L29.6959 24.3178ZM38.0071 14.5L32.0556 21.5312L30.8028 23.0114L32.2547 24.9159L33.5188 23.4375L41.1628 14.5H38.0089H38.0071Z" fill="white"/>
</g>
<defs>
<clipPath id="clip0_118_14">
<rect width="23" height="21" fill="white" transform="translate(19.5 14.5)"/>
</clipPath>
</defs>
</svg>
