<svg xmlns="http://www.w3.org/2000/svg" enable-background="new 0 0 512 512" viewBox="0 0 512 512" id="web-design"><path fill="#6770e6" d="M503.282,450.754H8.718c-4.815,0-8.718-3.903-8.718-8.718V126.424
		c0-4.815,3.903-8.718,8.718-8.718h494.564c4.815,0,8.718,3.903,8.718,8.718v315.612C512,446.851,508.097,450.754,503.282,450.754z"></path><path fill="#a1f1fc" d="M30,412.036V156.424c0-4.815,3.903-8.718,8.718-8.718h434.564c4.815,0,8.718,3.903,8.718,8.718
		v255.612c0,4.815-3.903,8.718-8.718,8.718H38.718C33.903,420.754,30,416.851,30,412.036z"></path><rect width="113.704" height="39.282" x="199.148" y="450.754" fill="#5861c7"></rect><path fill="#6770e6" d="M341.874,512H170.126c-6.065,0-10.982-4.917-10.982-10.982v0
		c0-6.065,4.917-10.982,10.982-10.982h171.747c6.065,0,10.982,4.917,10.982,10.982v0C352.856,507.083,347.939,512,341.874,512z"></path><path fill="#5861c7" d="M341.874,502H170.126c-4.263,0-7.949-2.433-9.77-5.982c-0.77,1.501-1.212,3.197-1.212,5v0
		c0,6.065,4.917,10.982,10.982,10.982h171.747c6.065,0,10.982-4.917,10.982-10.982v0c0-1.803-0.443-3.499-1.212-5
		C349.823,499.567,346.136,502,341.874,502z"></path><path fill="#fff7f2" d="M412.465,0H99.535c-9.744,0-17.643,7.899-17.643,17.643v403.112h348.216V17.643
		C430.108,7.899,422.209,0,412.465,0z"></path><rect width="348.216" height="129.633" x="81.892" y="208.049" fill="#ff8354"></rect><rect width="86.822" height="68.695" x="109.576" y="63.297" fill="#69ebfc"></rect><rect width="86.822" height="68.695" x="212.589" y="63.297" fill="#d476e2"></rect><rect width="86.822" height="68.695" x="315.602" y="63.297" fill="#6770e6"></rect><path fill="#ffac8c" d="M186.829,158.021h-67.685c-3.168,0-5.736-2.568-5.736-5.736l0,0
		c0-3.168,2.568-5.736,5.736-5.736h67.685c3.168,0,5.736,2.568,5.736,5.736l0,0C192.566,155.453,189.997,158.021,186.829,158.021z"></path><path fill="#edd4c2" d="M177.641 178.69h-49.308c-3.168 0-5.736-2.568-5.736-5.736l0 0c0-3.168 2.568-5.736 5.736-5.736h49.308c3.168 0 5.736 2.568 5.736 5.736l0 0C183.377 176.122 180.809 178.69 177.641 178.69zM280.654 178.69h-49.308c-3.168 0-5.736-2.568-5.736-5.736l0 0c0-3.168 2.568-5.736 5.736-5.736h49.308c3.168 0 5.736 2.568 5.736 5.736l0 0C286.39 176.122 283.822 178.69 280.654 178.69zM383.667 178.69h-49.308c-3.168 0-5.736-2.568-5.736-5.736l0 0c0-3.168 2.568-5.736 5.736-5.736h49.308c3.168 0 5.736 2.568 5.736 5.736l0 0C389.403 176.122 386.835 178.69 383.667 178.69z"></path><path fill="#ffac8c" d="M289.843 158.021h-67.685c-3.168 0-5.736-2.568-5.736-5.736l0 0c0-3.168 2.568-5.736 5.736-5.736h67.685c3.168 0 5.736 2.568 5.736 5.736l0 0C295.579 155.453 293.011 158.021 289.843 158.021zM392.856 158.021h-67.685c-3.168 0-5.736-2.568-5.736-5.736l0 0c0-3.168 2.568-5.736 5.736-5.736h67.685c3.168 0 5.736 2.568 5.736 5.736l0 0C398.592 155.453 396.024 158.021 392.856 158.021z"></path><path fill="#ff8354" d="M412.465,0H99.535c-9.744,0-17.643,7.899-17.643,17.643v17.118h348.216V17.643
		C430.108,7.899,422.209,0,412.465,0z"></path><path fill="#ffac8c" d="M430.108,20H81.892v-2.357C81.892,7.899,89.791,0,99.535,0h312.93
		c9.744,0,17.643,7.899,17.643,17.643V20z"></path><path fill="#ffefe4" d="M240.107,23.117H119.144c-3.168,0-5.736-2.568-5.736-5.736v0c0-3.168,2.568-5.736,5.736-5.736
		h120.963c3.168,0,5.736,2.568,5.736,5.736v0C245.843,20.549,243.275,23.117,240.107,23.117z"></path><path fill="#ffac8c" d="M322.887,249.69H189.113c-3.168,0-5.736-2.568-5.736-5.736v0
		c0-3.168,2.568-5.736,5.736-5.736h133.774c3.168,0,5.736,2.568,5.736,5.736v0C328.623,247.121,326.055,249.69,322.887,249.69z"></path><path fill="#fff7f2" d="M293.48,307.514H142.259c-5.914,0-10.708-4.794-10.708-10.708l0,0
		c0-5.914,4.794-10.708,10.708-10.708H293.48c5.914,0,10.708,4.794,10.708,10.708l0,0
		C304.188,302.72,299.394,307.514,293.48,307.514z"></path><path fill="#ffac8c" d="M369.741 307.514h-44.845c-5.914 0-10.708-4.794-10.708-10.708l0 0c0-5.914 4.794-10.708 10.708-10.708h44.845c5.914 0 10.708 4.794 10.708 10.708l0 0C380.449 302.72 375.655 307.514 369.741 307.514zM289.843 269.947h-67.685c-3.168 0-5.736-2.568-5.736-5.736l0 0c0-3.168 2.568-5.736 5.736-5.736h67.685c3.168 0 5.736 2.568 5.736 5.736l0 0C295.579 267.379 293.011 269.947 289.843 269.947z"></path><path fill="#ff8354" d="M450.968,512l-7.97-102.469c-0.75-9.642-8.793-17.084-18.464-17.084h0
		c-9.672,0-17.714,7.442-18.464,17.084L398.099,512H450.968z"></path><polygon fill="#e0734a" points="398.877 502 398.099 512 450.968 512 450.191 502"></polygon><path fill="#d476e2" d="M454.32,309.809c-18.453-17.219-35.513-26.742-40.852-40.649
		c-1.634-4.256-7.465-4.705-9.712-0.739c-11.514,20.316-30.719,59.661-30.719,96.077c0,28.441,23.056,51.497,51.498,51.497
		c28.441,0,51.497-23.056,51.497-51.497C476.031,364.499,478.524,332.394,454.32,309.809z"></path><path fill="#e0734a" d="M406.107,440.221h36.855c9.041,0,16.37-7.329,16.37-16.37v0c0-9.041-7.329-16.37-16.37-16.37
		h-36.855c-9.041,0-16.37,7.329-16.37,16.37v0C389.736,432.892,397.065,440.221,406.107,440.221z"></path></svg>