<svg width="27" height="25" viewBox="0 0 27 25" fill="none" xmlns="http://www.w3.org/2000/svg">
<path d="M16.456 10.6399L14.7383 8.37042L8.40602 0H0L10.3907 13.5791L12.0995 15.8086L18.8034 24.5728H26.9936L16.4538 10.6399H16.456ZM13.6904 13.9195L11.9682 11.6879L4.98843 2.63661H7.62282L13.2676 10.1348L14.972 12.4021L22.152 21.9406H19.8736L13.6904 13.9218V13.9195Z" fill="white"/>
<path d="M11.969 11.6879L13.6912 13.9195L12.1003 15.8086L4.34843 25H0.857422L10.3937 13.5769L11.9713 11.6857L11.969 11.6879ZM21.7256 0L14.7391 8.37042L13.2684 10.1326L14.9728 12.3999L16.4568 10.6399L25.4302 0H21.7278H21.7256Z" fill="white"/>
</svg>
